<svg id="Layer_1" data-name="Layer 1" xmlns="http://www.w3.org/2000/svg" viewBox="0 0 433.15 324.1"><defs><style>.cls-1{fill:#fff;}.cls-2{fill:#f9a605;}</style></defs><path class="cls-1" d="M90.87,216.22H5.34l14.5-69a115.09,115.09,0,0,1,3.84-14.41,35,35,0,0,1,4.95-9.54,29.66,29.66,0,0,1,7.22-6.75c2.78-1.85,6.37-4,10.68-6.27L69.87,98a34.53,34.53,0,0,0,6.1-4c1.41-1.19,2.42-3.35,3-6.41l4.38-21.41c0-.48-.15-1.54-3-1.54-2.22,0-3.07.44-3.4.8a9.09,9.09,0,0,0-1.45,3.74l-5,23.18H32.59l5-23.49a114.3,114.3,0,0,1,6-20.34,28.38,28.38,0,0,1,8.88-11.84,31.31,31.31,0,0,1,14.18-5.45A150.9,150.9,0,0,1,88.21,30c6.46,0,12.05.23,16.59.69a36.41,36.41,0,0,1,11.31,2.72,13.63,13.63,0,0,1,6.57,6,20.88,20.88,0,0,1,2,9.8,57.38,57.38,0,0,1-.81,9c-.55,3.33-1.21,7-2,11l-4.39,20.57A94.53,94.53,0,0,1,113.94,103a38.5,38.5,0,0,1-4.94,9.41,31.72,31.72,0,0,1-7.33,7.09,93.55,93.55,0,0,1-10.59,6.29L64.74,139.22A10.61,10.61,0,0,0,61,141.83a10.66,10.66,0,0,0-1.92,4.76l-7.44,34.72h7.1l8.08-37.19h39.33ZM7.09,214.8H89.72l14.71-69.26H68l-8.09,37.19h-10l7.8-36.43A11.73,11.73,0,0,1,60,140.9a11.94,11.94,0,0,1,4.17-3l26.3-13.39a91.7,91.7,0,0,0,10.43-6.18,30,30,0,0,0,7-6.77,36.6,36.6,0,0,0,4.76-9.07,92.55,92.55,0,0,0,3.55-13.06l4.39-20.56c.76-3.94,1.41-7.62,2-10.94a55.77,55.77,0,0,0,.8-8.78,19.66,19.66,0,0,0-1.88-9.14,12.2,12.2,0,0,0-5.91-5.34,35,35,0,0,0-10.86-2.6c-4.5-.46-10-.69-16.45-.69A149.35,149.35,0,0,0,67,32.69a29.83,29.83,0,0,0-13.54,5.19A26.89,26.89,0,0,0,45,49.14a113.3,113.3,0,0,0-6,20.08L34.35,91h35l4.73-22.07a10.39,10.39,0,0,1,1.78-4.37c.76-.86,2.22-1.27,4.46-1.27,3.64,0,4.4,1.64,4.4,3v.14L80.36,87.92c-.64,3.37-1.81,5.8-3.47,7.21a36.18,36.18,0,0,1-6.36,4.13h0L47.2,111.5c-4.27,2.29-7.82,4.37-10.56,6.2a28.34,28.34,0,0,0-6.88,6.42A34,34,0,0,0,25,133.29a115,115,0,0,0-3.78,14.23Z"/><path class="cls-1" d="M147.57,218.53c-6.61,0-12.31-.24-16.93-.7a36.6,36.6,0,0,1-11.43-2.72,13.47,13.47,0,0,1-6.56-6c-1.36-2.55-2.05-6-2.05-10.26,0-4.95.94-11.61,2.79-19.79L136.72,68.92a115.57,115.57,0,0,1,6-20.34,28.07,28.07,0,0,1,9-11.85,32.14,32.14,0,0,1,14.29-5.44A150.9,150.9,0,0,1,187.53,30c6.62,0,12.28.23,16.82.69a35.22,35.22,0,0,1,11.43,2.84,14.08,14.08,0,0,1,6.68,6.08,21.46,21.46,0,0,1,2,10c0,4.8-.86,11.37-2.56,19.55L198.62,179.4a119.37,119.37,0,0,1-6.05,20.45,27.88,27.88,0,0,1-9,12,32.18,32.18,0,0,1-14.4,5.44A151.85,151.85,0,0,1,147.57,218.53Zm40-187.1a149.35,149.35,0,0,0-21.26,1.26,30.82,30.82,0,0,0-13.66,5.19,26.68,26.68,0,0,0-8.55,11.26,114.59,114.59,0,0,0-6,20.08L114.77,179.39C112.94,187.48,112,194,112,198.88c0,4,.63,7.25,1.88,9.6a12.2,12.2,0,0,0,5.9,5.35,35.3,35.3,0,0,0,11,2.59c4.58.46,10.22.69,16.79.69A150.49,150.49,0,0,0,169,215.85a30.79,30.79,0,0,0,13.78-5.19,26.47,26.47,0,0,0,8.54-11.37,117.07,117.07,0,0,0,6-20.19L220.56,68.92c1.68-8.08,2.53-14.56,2.53-19.26a20.13,20.13,0,0,0-1.88-9.37,12.74,12.74,0,0,0-6-5.46,33.82,33.82,0,0,0-11-2.71C199.71,31.66,194.1,31.43,187.53,31.43ZM154.73,185c-3.64,0-4.4-1.65-4.4-3v-.15L174.13,68.92c.33-2.14.89-3.59,1.7-4.4s2.32-1.24,4.54-1.24c3.64,0,4.41,1.64,4.41,3l0,.14L161,179.39a10.32,10.32,0,0,1-1.78,4.37C158.42,184.62,157,185,154.73,185Zm-3-2.95c0,.48.15,1.53,3,1.53,2.22,0,3.07-.44,3.4-.8a8.89,8.89,0,0,0,1.46-3.73L183.36,66.22c0-.48-.15-1.53-3-1.53-2.24,0-3.16.46-3.54.84s-1,1.35-1.3,3.64Z"/><path class="cls-1" d="M290.89,216.22H205.37l14.5-69a115.09,115.09,0,0,1,3.84-14.41,35,35,0,0,1,4.95-9.54,29.66,29.66,0,0,1,7.22-6.75c2.77-1.85,6.37-4,10.68-6.27L269.89,98a34.29,34.29,0,0,0,6.11-4c1.4-1.19,2.41-3.35,3-6.41l4.37-21.41c0-.48-.14-1.54-3-1.54-2.22,0-3.08.44-3.4.8a8.89,8.89,0,0,0-1.46,3.74l-5,23.18H232.62l5-23.49a116,116,0,0,1,6-20.34,28.48,28.48,0,0,1,8.89-11.84,31.31,31.31,0,0,1,14.18-5.45A150.8,150.8,0,0,1,288.24,30c6.46,0,12,.23,16.59.69a36.41,36.41,0,0,1,11.31,2.72,13.61,13.61,0,0,1,6.56,6,20.88,20.88,0,0,1,2.05,9.8,56.31,56.31,0,0,1-.82,9c-.54,3.33-1.2,7-2,11l-4.4,20.57A94.65,94.65,0,0,1,314,103a38.18,38.18,0,0,1-5,9.41,31.67,31.67,0,0,1-7.32,7.09,94.45,94.45,0,0,1-10.59,6.29l-26.34,13.39a8.54,8.54,0,0,0-5.63,7.37l-7.44,34.72h7.09l8.09-37.19h39.33Zm-83.78-1.42h82.63l14.72-69.26H268l-8.08,37.19h-10l7.81-36.43a11.84,11.84,0,0,1,2.23-5.4,12,12,0,0,1,4.17-3l26.31-13.39a92.37,92.37,0,0,0,10.42-6.18,30.09,30.09,0,0,0,7-6.77,36.6,36.6,0,0,0,4.76-9.07,92.55,92.55,0,0,0,3.55-13.06l4.39-20.56C321.33,65,322,61.3,322.53,58a55.77,55.77,0,0,0,.8-8.78,19.54,19.54,0,0,0-1.88-9.14,12.22,12.22,0,0,0-5.9-5.34,35.08,35.08,0,0,0-10.87-2.6c-4.49-.46-10-.69-16.44-.69A149.25,149.25,0,0,0,267,32.69a29.83,29.83,0,0,0-13.54,5.19A27,27,0,0,0,245,49.14a114.26,114.26,0,0,0-6,20.08L234.37,91h35.05l4.73-22.07a10.39,10.39,0,0,1,1.78-4.37c.76-.86,2.22-1.27,4.46-1.27,3.64,0,4.4,1.64,4.4,3v.14l-4.39,21.48c-.65,3.37-1.81,5.8-3.47,7.21a36.56,36.56,0,0,1-6.36,4.13h0L247.22,111.5c-4.26,2.29-7.82,4.37-10.56,6.2a28.47,28.47,0,0,0-6.87,6.42,33.73,33.73,0,0,0-4.75,9.17,114.76,114.76,0,0,0-3.79,14.23Z"/><path class="cls-1" d="M347.6,218.53c-6.62,0-12.31-.24-16.93-.7a36.6,36.6,0,0,1-11.43-2.72,13.54,13.54,0,0,1-6.57-6c-1.36-2.55-2.05-6-2.05-10.26,0-4.95.94-11.61,2.8-19.79L336.74,68.92a115.47,115.47,0,0,1,6.05-20.34,28.07,28.07,0,0,1,9-11.85,32.14,32.14,0,0,1,14.29-5.44A150.8,150.8,0,0,1,387.56,30c6.61,0,12.27.23,16.82.69a35.28,35.28,0,0,1,11.43,2.84,14.12,14.12,0,0,1,6.68,6.08,21.59,21.59,0,0,1,2,10c0,4.8-.86,11.37-2.55,19.55L398.65,179.4a120,120,0,0,1-6,20.45,27.94,27.94,0,0,1-9,12,32.22,32.22,0,0,1-14.41,5.44A151.6,151.6,0,0,1,347.6,218.53Zm40-187.1a149.35,149.35,0,0,0-21.26,1.26,30.77,30.77,0,0,0-13.66,5.19,26.6,26.6,0,0,0-8.55,11.26,113.73,113.73,0,0,0-6,20.08L314.8,179.39C313,187.48,312,194,312,198.88a20.77,20.77,0,0,0,1.88,9.6,12.27,12.27,0,0,0,5.91,5.35,35.23,35.23,0,0,0,11,2.59c4.57.46,10.22.69,16.79.69A150.49,150.49,0,0,0,369,215.85a30.75,30.75,0,0,0,13.77-5.19,26.4,26.4,0,0,0,8.54-11.37,117.87,117.87,0,0,0,6-20.19L420.59,68.92c1.67-8.08,2.52-14.56,2.52-19.26a20.13,20.13,0,0,0-1.88-9.37,12.74,12.74,0,0,0-6-5.46,33.82,33.82,0,0,0-11-2.71C399.74,31.66,394.13,31.43,387.56,31.43ZM354.76,185c-3.64,0-4.41-1.65-4.41-3l0-.15L374.16,68.92c.33-2.14.88-3.59,1.7-4.4s2.32-1.24,4.54-1.24c3.64,0,4.4,1.64,4.4,3v.14L361,179.39a10.45,10.45,0,0,1-1.78,4.37C358.45,184.62,357,185,354.76,185Zm-3-2.95c0,.48.15,1.53,3,1.53,2.22,0,3.07-.44,3.4-.8a9.09,9.09,0,0,0,1.45-3.73L383.39,66.22c0-.48-.16-1.53-3-1.53-2.24,0-3.16.46-3.54.84s-.95,1.35-1.31,3.64Z"/><path class="cls-1" d="M38.77,300.4H28.94l8-37.55h-.31L24.84,300.4H14.54l4.18-37.93h-.31l-8,37.93H.53l12.93-61.16H30c-.36,2.94-.73,5.8-1.09,8.56s-.72,5.48-1.08,8.16-.75,5.4-1.16,8.13-.85,5.55-1.32,8.44h.31q1.17-4.33,2.29-8.44T30.26,256q1.15-4,2.36-8.16c.8-2.76,1.64-5.62,2.52-8.56H51.7Z"/><path class="cls-1" d="M64.17,300.4H44.89l12.93-61.16H77l-2.17,10.3H68.19L67.26,254h6.35l-2.09,9.91H65.17l-5.49,25.7h6.73Z"/><path class="cls-1" d="M107,300.4H97.14l8-37.55h-.3L93,300.4H82.74l4.18-37.93h-.31l-8,37.93H68.73l12.93-61.16H98.22c-.36,2.94-.72,5.8-1.08,8.56s-.72,5.48-1.08,8.16-.75,5.4-1.16,8.13-.85,5.55-1.32,8.44h.31c.77-2.89,1.54-5.7,2.28-8.44s1.51-5.44,2.29-8.13,1.56-5.4,2.36-8.16,1.64-5.62,2.51-8.56H119.9Z"/><path class="cls-1" d="M143.12,288.24a40.14,40.14,0,0,1-2,6.82,9.11,9.11,0,0,1-2.94,3.91,10.67,10.67,0,0,1-4.72,1.78,51.06,51.06,0,0,1-7.2.42c-2.22,0-4.11-.08-5.65-.23a12.15,12.15,0,0,1-3.76-.89,4.32,4.32,0,0,1-2.09-1.9,7.08,7.08,0,0,1-.66-3.33,31.44,31.44,0,0,1,.93-6.58l7.82-36.92a38.32,38.32,0,0,1,2-6.77,9.13,9.13,0,0,1,3-3.87,10.27,10.27,0,0,1,4.68-1.78,48.54,48.54,0,0,1,7.16-.43c2.22,0,4.09.08,5.61.23a11.94,11.94,0,0,1,3.76.93,4.39,4.39,0,0,1,2.12,1.94,6.9,6.9,0,0,1,.66,3.25,33.75,33.75,0,0,1-.85,6.5Zm-15.71.93c0,.52.41.78,1.24.78a1.77,1.77,0,0,0,1.31-.35,3.13,3.13,0,0,0,.54-1.36l8-37.85c0-.52-.42-.77-1.24-.77a1.94,1.94,0,0,0-1.35.34,2.47,2.47,0,0,0-.51,1.36Z"/><path class="cls-1" d="M158.61,300.4H146.06L159,239.24h14c2.22,0,4.12.08,5.69.24a11.69,11.69,0,0,1,3.83.92,4.5,4.5,0,0,1,2.13,1.94,6.92,6.92,0,0,1,.66,3.25,30.08,30.08,0,0,1-.85,6.12l-1.32,6.34a12.93,12.93,0,0,1-1.35,3.95,10.41,10.41,0,0,1-1.9,2.48,6.72,6.72,0,0,1-2,1.35,9.57,9.57,0,0,1-1.82.58l-.08.31a6,6,0,0,1,2.64,1.59q1.08,1.13,1.08,4a17.8,17.8,0,0,1-.15,2.2c-.11.8-.26,1.72-.47,2.75l-4.88,23.15H161.55l5.88-28c0-.52-.41-.78-1.24-.78h-1.47Zm8.2-38.63h1.47c.67,0,1.1-.12,1.28-.35a3.69,3.69,0,0,0,.5-1.35l1.94-9.29c0-.52-.42-.78-1.24-.78h-1.47Z"/><path class="cls-1" d="M192.51,300.4H180l12.93-61.16h12.54Z"/><path class="cls-1" d="M225.33,238.47c2.17,0,4,.08,5.5.23a11.75,11.75,0,0,1,3.71.93,4.41,4.41,0,0,1,2.13,2,7.4,7.4,0,0,1,.66,3.37,33.45,33.45,0,0,1-.85,6.35L226.1,300.4H213.49L216,288.24H213.1l-2.56,12.16H198.39l10.37-49.08a35.52,35.52,0,0,1,2.06-6.77,9.36,9.36,0,0,1,2.94-3.87,10,10,0,0,1,4.6-1.78A46.5,46.5,0,0,1,225.33,238.47ZM215.27,278h2.94l5.88-27.56c0-.52-.44-.77-1.31-.77a2,2,0,0,0-1.36.34,2.55,2.55,0,0,0-.5,1.36Z"/><path class="cls-1" d="M272,238.47c2.16,0,4,.08,5.49.23a11.74,11.74,0,0,1,3.72.93,4.41,4.41,0,0,1,2.13,2A7.4,7.4,0,0,1,284,245a34.29,34.29,0,0,1-.85,6.35L272.78,300.4H260.16l2.56-12.16h-2.94l-2.56,12.16H245.07l10.37-49.08a35.6,35.6,0,0,1,2.05-6.77,9.53,9.53,0,0,1,2.94-3.87A10.07,10.07,0,0,1,265,238.9,46.5,46.5,0,0,1,272,238.47ZM261.94,278h2.95l5.88-27.56c0-.52-.44-.77-1.32-.77a1.94,1.94,0,0,0-1.35.34,2.55,2.55,0,0,0-.5,1.36Z"/><path class="cls-1" d="M307.85,300.4H295.31V270.9H295l-6.19,29.5H278.43l12.93-61.16h13.47l-1.39,31h.31l6.58-31h10.45Z"/><path class="cls-1" d="M327.35,301.17c-2.16,0-4-.08-5.49-.23a11.34,11.34,0,0,1-3.68-.93,4.53,4.53,0,0,1-2.09-1.93,7.14,7.14,0,0,1-.66-3.33,34,34,0,0,1,.86-6.51l10.37-49H339.2l-10.53,49.93c0,.52.41.78,1.24.78a1.81,1.81,0,0,0,1.32-.35,3.4,3.4,0,0,0,.54-1.36l10.37-49h12.23l-10.37,49a38,38,0,0,1-2.05,6.82,9.5,9.5,0,0,1-3,3.91,10.56,10.56,0,0,1-4.65,1.78A48.05,48.05,0,0,1,327.35,301.17Z"/><path class="cls-1" d="M373.34,238.47c2.16,0,4,.08,5.49.23a11.74,11.74,0,0,1,3.72.93,4.41,4.41,0,0,1,2.13,2,7.54,7.54,0,0,1,.65,3.37,33.45,33.45,0,0,1-.85,6.35L374.11,300.4H361.49l2.56-12.16H361.1l-2.55,12.16H346.4l10.37-49.08a35.6,35.6,0,0,1,2.05-6.77,9.53,9.53,0,0,1,2.94-3.87,10,10,0,0,1,4.61-1.78A46.5,46.5,0,0,1,373.34,238.47ZM363.27,278h2.94l5.89-27.56c0-.52-.44-.77-1.32-.77a1.94,1.94,0,0,0-1.35.34,2.55,2.55,0,0,0-.51,1.36Z"/><path class="cls-1" d="M399.58,300.4H379.76l12.93-61.16h12.54l-10.68,50.32h7.27Z"/><rect class="cls-2" x="43.63" width="389.52" height="1.42"/><rect class="cls-2" y="322.69" width="392.49" height="1.42"/></svg>