<svg id="Layer_1" data-name="Layer 1" xmlns="http://www.w3.org/2000/svg" viewBox="0 0 61.41 61.41"><defs><style>.cls-1{fill:#fff;}.cls-2{fill:#565655;}</style></defs><path class="cls-1" d="M30.7,0A30.71,30.71,0,1,0,61.41,30.7,30.71,30.71,0,0,0,30.7,0ZM20.5,27.4h6.41V14.29c0-.64.16-.79.81-.79h6.55c.62,0,.78.15.78.76V27.4h6.41a1.32,1.32,0,0,1,.34,0,.52.52,0,0,1,.3.8,2.09,2.09,0,0,1-.2.22L31.49,38.87c-.16.16-.38.26-.54.42-.18-.17-.4-.29-.57-.47L20.09,28.51a.93.93,0,0,1-.35-.61C19.88,27.41,20.2,27.4,20.5,27.4ZM49.75,46.93H12.15V30.31h2.12v14.5H47.63V30.31h2.12Z"/><path class="cls-2" d="M20.09,28.51,30.38,38.82c.17.18.39.3.57.47.16-.16.38-.26.54-.42L41.9,28.46a2.09,2.09,0,0,0,.2-.22.52.52,0,0,0-.3-.8,1.32,1.32,0,0,0-.34,0H35.05V14.26c0-.61-.16-.76-.78-.76H27.72c-.65,0-.81.15-.81.79V27.4H20.5c-.3,0-.62,0-.76.5A.93.93,0,0,0,20.09,28.51Z"/><polygon class="cls-2" points="47.63 44.81 14.27 44.81 14.27 30.31 12.15 30.31 12.15 46.93 49.75 46.93 49.75 30.31 47.63 30.31 47.63 44.81"/></svg>