<svg id="Layer_1" data-name="Layer 1" xmlns="http://www.w3.org/2000/svg" viewBox="0 0 251.62 251.62"><defs><style>.cls-1{fill:#565655;}.cls-2{fill:#fff;}</style></defs><path class="cls-1" d="M125.81,0A125.81,125.81,0,1,0,251.62,125.81,125.81,125.81,0,0,0,125.81,0ZM84,112.29h26.27V58.57c0-2.62.65-3.26,3.3-3.26h26.84c2.54,0,3.18.63,3.18,3.14v53.83h26.27a5.23,5.23,0,0,1,1.42.14,2.12,2.12,0,0,1,1.21,3.28,7.1,7.1,0,0,1-.82.92Q150.37,138,129,159.28c-.66.65-1.56,1.07-2.23,1.71-.72-.68-1.61-1.2-2.31-1.91Q103.4,138,82.33,116.81a3.7,3.7,0,0,1-1.46-2.47C81.44,112.31,82.78,112.29,84,112.29Zm119.84,80H49.78V124.22h8.69v59.4H195.15v-59.4h8.7Z"/><path class="cls-2" d="M82.33,116.81q21.08,21.13,42.16,42.27c.7.71,1.59,1.23,2.31,1.91.67-.64,1.57-1.06,2.23-1.71q21.35-21.32,42.65-42.65a7.1,7.1,0,0,0,.82-.92,2.12,2.12,0,0,0-1.21-3.28,5.23,5.23,0,0,0-1.42-.14H143.6V58.45c0-2.51-.64-3.14-3.18-3.14H113.58c-2.65,0-3.3.64-3.3,3.26v53.71H84c-1.23,0-2.57,0-3.14,2A3.7,3.7,0,0,0,82.33,116.81Z"/><polygon class="cls-2" points="195.15 183.62 58.47 183.62 58.47 124.22 49.78 124.22 49.78 192.31 203.85 192.31 203.85 124.22 195.15 124.22 195.15 183.62"/></svg>