<svg id="Layer_1" data-name="Layer 1" xmlns="http://www.w3.org/2000/svg" viewBox="0 0 544.44 507.05"><defs><style>.cls-1,.cls-6{fill:#dad7d6;}.cls-2{opacity:0.6;}.cls-3{opacity:0.3;}.cls-4{opacity:0.1;}.cls-5{opacity:0.5;}.cls-6{opacity:0.3;}</style></defs><path class="cls-1" d="M137.75,42.38a234.32,234.32,0,0,1,259.38-6.2l-.54.85a233.33,233.33,0,0,0-258.27,6.16Z"/><g class="cls-2"><path class="cls-1" d="M148.07,431.52A233.1,233.1,0,0,0,503.18,203.16l1-.14a233.87,233.87,0,0,1-76.28,206h0a234.21,234.21,0,0,1-280.35,23.39Z"/></g><path class="cls-1" d="M437.4,18.47A271.74,271.74,0,0,1,542.15,270.34l-1-.13A270.82,270.82,0,0,0,436.79,19.26Z"/><g class="cls-3"><path class="cls-1" d="M29.36,111.78l.89.46c-50.42,99.23-34.62,220.06,39.4,303a272.46,272.46,0,0,0,38,35.17c105,80.19,249.91,71.86,345-13q3.45-3.07,6.82-6.29l.69.72q-3.37,3.23-6.84,6.32c-95.42,85.17-240.81,93.53-346.25,13A271.89,271.89,0,0,1,29.36,111.78m.89.46h0"/></g><g class="cls-4"><path class="cls-1" d="M331.36,264.7a66.8,66.8,0,0,1-125.59-32.22l-22.64-.17a89.43,89.43,0,0,0,167.75,43.88Z"/></g><path class="cls-1" d="M356.71,202.61a89.62,89.62,0,0,0-83.46-59.07l-.17,22.65a66.89,66.89,0,0,1,61.9,43Z"/><g class="cls-3"><path class="cls-1" d="M261.64,334.74a99.74,99.74,0,0,1-61.95-30l-16,16a122.29,122.29,0,0,0,75.72,36.58Z"/></g><path class="cls-1" d="M283.92,112.8a123,123,0,0,0-134.51,110L171.94,225a100.32,100.32,0,0,1,109.72-89.7Z"/><path class="cls-1" d="M316.15,145.25a100.17,100.17,0,0,1,38.38,146.07l18.24,13.45a122.84,122.84,0,0,0-46.94-180Z"/><g class="cls-5"><path class="cls-1" d="M300.67,366a134.25,134.25,0,0,1-129.12-41.63c-49.27-55.19-44.44-140.18,10.75-189.44L167.22,118C102.71,175.62,97.07,275,154.65,339.46a157,157,0,0,0,150.75,48.7"/></g><g class="cls-5"><path class="cls-1" d="M376.07,352c64.51-57.58,70.15-156.91,12.57-221.42l-16.89,15.07C421,200.89,416.19,285.88,361,335.14Z"/></g><polygon class="cls-1" points="155.19 111.55 154.85 111.18 163.92 103.09 140.15 76.45 131.46 84.21 155.56 111.22 155.19 111.55 154.85 111.18 155.19 111.55 154.81 111.89 130.04 84.13 140.23 75.04 165.33 103.17 155.15 112.26 154.81 111.89 155.19 111.55"/><polygon class="cls-1" points="408.83 395.74 408.5 395.37 417.57 387.27 393.8 360.64 385.1 368.4 409.21 395.41 408.83 395.74 408.5 395.37 408.83 395.74 408.46 396.07 383.69 368.32 393.88 359.23 418.98 387.35 408.8 396.44 408.46 396.07 408.83 395.74"/><polygon class="cls-1" points="183.62 89.46 183.37 89.03 193.92 82.99 176.21 52 166.09 57.78 184.05 89.21 183.62 89.46 183.37 89.03 183.62 89.46 183.18 89.71 164.72 57.41 176.58 50.63 195.29 83.36 183.43 90.14 183.18 89.71 183.62 89.46"/><rect class="cls-6" x="362.69" y="382.75" width="12.65" height="36.7" transform="translate(-150.4 235.99) rotate(-29.75)"/><rect class="cls-1" x="210.12" y="36" width="12.65" height="36.7" transform="translate(-6.27 68.58) rotate(-17.75)"/><g class="cls-3"><rect class="cls-1" x="326.25" y="398.78" width="12.66" height="36.7" transform="translate(-111.33 121.24) rotate(-17.75)"/></g><rect class="cls-1" x="249.1" y="27.89" width="12.66" height="36.7" transform="translate(-3.35 25.82) rotate(-5.75)"/><g class="cls-3"><rect class="cls-1" x="287.27" y="406.89" width="12.66" height="36.7" transform="translate(-41.13 31.56) rotate(-5.75)"/></g><rect class="cls-1" x="276.9" y="40.09" width="36.7" height="12.66" transform="translate(216.96 334.85) rotate(-83.75)"/><g class="cls-3"><rect class="cls-1" x="235.43" y="418.74" width="36.7" height="12.66" transform="translate(-196.4 631.05) rotate(-83.75)"/></g><rect class="cls-1" x="315.81" y="48.54" width="36.7" height="12.65" transform="translate(177.41 355.03) rotate(-71.75)"/><g class="cls-3"><rect class="cls-1" x="196.52" y="410.29" width="36.7" height="12.66" transform="translate(-248.09 490.19) rotate(-71.75)"/></g><rect class="cls-1" x="352.11" y="64.89" width="36.7" height="12.66" transform="translate(122.33 355.37) rotate(-59.75)"/><g class="cls-3"><rect class="cls-1" x="160.22" y="393.94" width="36.7" height="12.66" transform="translate(-257.16 352.9) rotate(-59.75)"/></g><rect class="cls-1" x="384.22" y="88.43" width="36.7" height="12.65" transform="translate(61.73 329) rotate(-47.74)"/><g class="cls-3"><rect class="cls-1" x="128.11" y="370.4" width="36.7" height="12.66" transform="translate(-230.88 231.84) rotate(-47.75)"/></g><rect class="cls-1" x="410.73" y="118.14" width="36.7" height="12.66" transform="translate(8.15 274.19) rotate(-35.76)"/><g class="cls-3"><rect class="cls-1" x="101.59" y="340.69" width="36.7" height="12.65" transform="translate(-180.14 135.46) rotate(-35.75)"/></g><rect class="cls-1" x="430.49" y="152.71" width="36.7" height="12.66" transform="translate(-26.04 194.23) rotate(-23.75)"/><g class="cls-3"><rect class="cls-1" x="81.83" y="306.12" width="36.7" height="12.65" transform="translate(-117.34 66.8) rotate(-23.75)"/></g><polygon class="cls-1" points="441.73 194.5 442.21 194.4 444.69 206.3 479.64 199.03 477.27 187.62 441.83 194.99 441.73 194.5 442.21 194.4 441.73 194.5 441.62 194.01 478.04 186.43 480.83 199.8 443.92 207.48 441.13 194.11 441.62 194.01 441.73 194.5"/><g class="cls-3"><rect class="cls-1" x="69.7" y="268.2" width="36.7" height="12.65" transform="translate(-54.06 23.68) rotate(-11.75)"/></g><polygon class="cls-1" points="446.65 230.17 447.15 230.17 447.1 242.32 482.79 242.48 482.85 230.82 446.64 230.67 446.65 230.17 447.15 230.17 446.65 230.17 446.65 229.67 483.85 229.83 483.79 243.48 446.09 243.32 446.15 229.66 446.65 229.67 446.65 230.17"/><polygon class="cls-1" points="65.73 228.5 66.23 228.51 66.18 240.66 101.88 240.82 101.93 229.16 65.73 229 65.73 228.5 66.23 228.51 65.73 228.5 65.74 228 102.94 228.17 102.88 241.82 65.18 241.66 65.24 228 65.74 228 65.73 228.5"/><polygon class="cls-1" points="444.05 266.08 444.54 266.18 441.95 278.06 476.84 285.64 479.32 274.25 443.94 266.56 444.05 266.08 444.54 266.18 444.05 266.08 444.15 265.59 480.5 273.48 477.61 286.82 440.77 278.82 443.66 265.48 444.15 265.59 444.05 266.08"/><polygon class="cls-1" points="71.8 185.25 72.29 185.36 69.71 197.24 104.6 204.81 107.07 193.42 71.7 185.74 71.8 185.25 72.29 185.36 71.8 185.25 71.91 184.76 108.26 192.66 105.36 206 68.52 198 71.42 184.66 71.91 184.76 71.8 185.25"/><polygon class="cls-1" points="434.03 300.66 434.49 300.87 429.5 311.95 462.05 326.61 466.83 315.99 433.83 301.12 434.03 300.66 434.49 300.87 434.03 300.66 434.24 300.21 468.16 315.48 462.55 327.93 428.18 312.45 433.78 300 434.24 300.21 434.03 300.66"/><polygon class="cls-1" points="86.73 144.21 87.18 144.42 82.19 155.5 114.74 170.16 119.53 159.54 86.52 144.67 86.73 144.21 87.18 144.42 86.73 144.21 86.93 143.76 120.85 159.03 115.24 171.49 80.87 156 86.48 143.55 86.93 143.76 86.73 144.21"/><polygon class="cls-1" points="417.05 332.41 417.45 332.7 410.27 342.51 439.06 363.62 445.95 354.22 416.76 332.81 417.05 332.41 417.45 332.7 417.05 332.41 417.35 332.01 447.35 354 439.27 365.01 408.87 342.72 416.94 331.71 417.35 332.01 417.05 332.41"/><polygon class="cls-1" points="109.86 107.17 110.27 107.46 103.08 117.27 131.87 138.38 138.76 128.98 109.57 107.57 109.86 107.17 110.27 107.46 109.86 107.17 110.16 106.77 140.16 128.76 132.08 139.77 101.68 117.48 109.75 106.47 110.16 106.77 109.86 107.17"/></svg>