<?xml version="1.0" encoding="utf-8"?>
<!-- Generator: Adobe Illustrator 24.3.0, SVG Export Plug-In . SVG Version: 6.00 Build 0)  -->
<svg version="1.1" id="Layer_1" xmlns="http://www.w3.org/2000/svg" xmlns:xlink="http://www.w3.org/1999/xlink" x="0px" y="0px"
	 viewBox="0 0 126.8 131.9" style="enable-background:new 0 0 126.8 131.9;" xml:space="preserve">
<style type="text/css">
	.st0{fill:#565655;}
	.st1{fill:#FFFFFF;}
</style>
<g>
	<path class="st0" d="M63.4,128.9c35,0,63.4-28.4,63.4-63.3S98.4,2.2,63.4,2.2S0,30.6,0,65.5l0,0C0.1,100.5,28.4,128.9,63.4,128.9
		L63.4,128.9"/>
	<g>
		<path class="st1" d="M87.9,123.3H38.3c-1,0-1.9-0.8-1.9-1.9V96.3c0-1,0.8-1.9,1.9-1.9H88c1,0,1.9,0.8,1.9,1.9v25.1
			C89.8,122.4,89,123.3,87.9,123.3L87.9,123.3z M40.1,119.5H86V98.2H40.1V119.5z"/>
		<path class="st1" d="M96.3,131.9H29.9c-1,0-1.9-0.8-1.9-1.9v-8.6c0-1,0.8-1.9,1.9-1.9h66.4c1,0,1.9,0.8,1.9,1.9v8.6
			C98.2,131,97.3,131.9,96.3,131.9L96.3,131.9z M31.8,128.1h62.6v-4.9H31.8V128.1z"/>
		<path class="st1" d="M63.1,73.5c-18.9,0-34.3-24.3-34.3-54.3c0-6,0.6-11.9,1.9-17.7c0.2-0.9,1-1.5,1.8-1.5h61.1
			c0.9,0,1.7,0.6,1.8,1.5c1.3,5.8,1.9,11.8,1.9,17.7C97.3,49.1,82,73.5,63.1,73.5L63.1,73.5z M34.1,3.8c-1,5.1-1.5,10.2-1.5,15.4
			c0,27.8,13.7,50.5,30.5,50.5S93.6,47,93.6,19.2c0-5.2-0.5-10.3-1.5-15.4C92.1,3.8,34.1,3.8,34.1,3.8z"/>
		<path class="st1" d="M58.5,89.9L58.5,89.9c-1.1-0.1-1.9-1-1.8-2c0.5-6-0.7-11.9-3.5-17.2c-1.2-2.2,2.2-4,3.3-1.8
			c3.1,5.9,4.5,12.6,3.9,19.3C60.3,89.2,59.4,89.9,58.5,89.9L58.5,89.9z"/>
		<path class="st1" d="M67.7,89.9c-1,0-1.8-0.8-1.9-1.7c-0.5-6.7,0.8-13.3,3.9-19.3c1.2-2.2,4.5-0.5,3.3,1.8
			C70.2,76,69,82,69.5,87.9c0.1,1-0.7,1.9-1.7,2L67.7,89.9z"/>
		<path class="st1" d="M79.4,98.1c-0.9,0-1.6-0.6-1.8-1.5c-0.9-4-7.3-7.1-14.5-7.1s-13.6,3.1-14.5,7.1c-0.2,1-1.2,1.7-2.3,1.5
			c-1-0.2-1.7-1.3-1.4-2.3c1.3-5.8,9-10.1,18.1-10.1c9.2,0,16.8,4.2,18.1,10.1C81.5,97,80.6,98.1,79.4,98.1L79.4,98.1z"/>
		<path class="st1" d="M39.3,56.5c-0.1,0-0.2,0-0.2,0c-14-1.8-24.4-13.7-24.4-27.8v-13c0-5.3,4.3-9.6,9.6-9.6h7.3
			c2.5,0,2.5,3.8,0,3.8h-7.3c-3.2,0-5.9,2.6-5.9,5.9v13.1c0,12.2,9.1,22.5,21.1,24C42,52.9,41.8,56.7,39.3,56.5L39.3,56.5z"/>
		<path class="st1" d="M86.9,56.5c-2.5,0.2-2.7-3.6-0.2-3.8c12.1-1.6,21.1-11.9,21.1-24v-13c0-3.2-2.6-5.9-5.9-5.9h-7.3
			c-2.5,0-2.5-3.8,0-3.8h7.3c5.3,0,9.6,4.3,9.6,9.6v13.1c0,14.1-10.5,26-24.4,27.8C87.1,56.5,87,56.5,86.9,56.5L86.9,56.5z"/>
	</g>
</g>
</svg>
