<svg id="Layer_1" data-name="Layer 1" xmlns="http://www.w3.org/2000/svg" viewBox="0 0 144.79 126.69"><defs><style>.cls-1{fill:#b5b0ae;}.cls-2{fill:#fff;}</style></defs><path class="cls-1" d="M72.39,126.69A63.35,63.35,0,1,0,9.05,63.35a63.34,63.34,0,0,0,63.34,63.34"/><path class="cls-2" d="M72.39,121.41C32.48,121.41,0,104.2,0,83A37.2,37.2,0,0,1,27.29,47.22a22.1,22.1,0,1,1,19.63,0A37,37,0,0,1,61.09,54.7a18.08,18.08,0,0,1,22.61,0,37,37,0,0,1,14.17-7.48,22.11,22.11,0,1,1,19.63,0A37.2,37.2,0,0,1,144.79,83C144.79,104.2,112.31,121.41,72.39,121.41ZM37.1,49.52A33.54,33.54,0,0,0,3.62,83c0,19.16,30.85,34.75,68.77,34.75S141.17,102.2,141.17,83A33.48,33.48,0,0,0,86.29,57.25a18.11,18.11,0,0,1-5.07,27.42,30.25,30.25,0,0,1,21.33,28.87H98.93a26.54,26.54,0,1,0-53.07,0H42.24A30.24,30.24,0,0,1,63.57,84.67a18.12,18.12,0,0,1-5.08-27.42A33.38,33.38,0,0,0,37.1,49.52Zm35.29,4.83a14.51,14.51,0,1,0,14.49,14.5A14.51,14.51,0,0,0,72.39,54.35Zm35.3-45.46A18.51,18.51,0,1,0,126.17,27.4,18.51,18.51,0,0,0,107.69,8.89Zm-70.59,0A18.51,18.51,0,1,0,55.58,27.4,18.51,18.51,0,0,0,37.1,8.89Z"/></svg>