<svg id="Layer_1" data-name="Layer 1" xmlns="http://www.w3.org/2000/svg" viewBox="0 0 103.7 93.66"><defs><style>.cls-1{fill:#f9a605;}.cls-2{fill:#fff;}</style></defs><path class="cls-1" d="M51.85,93.66A46.83,46.83,0,1,0,5,46.83,46.83,46.83,0,0,0,51.85,93.66"/><path class="cls-2" d="M93.66,82.38a2.48,2.48,0,1,1-2.48-2.46,2.47,2.47,0,0,1,2.48,2.46"/><path class="cls-2" d="M45.76,82.38a2.48,2.48,0,1,1-2.48-2.46,2.47,2.47,0,0,1,2.48,2.46"/><path class="cls-2" d="M42,73.49H92.47a8.89,8.89,0,1,1,0,17.78H42a8.89,8.89,0,1,1,0-17.78m41.64-2.25H50.74V66.49h32.9Zm-42.71-7V49.79H63.12a1.13,1.13,0,0,0,1.13-1.12V31h4.16v6.61a1.13,1.13,0,0,0,1.13,1.12h18v7.62a1.13,1.13,0,0,0,1.13,1.13h4.84V64.26Zm0-20.53L48.65,31,62,31v16.5H40.93ZM17.59,10.85l7.11-8,33.19,26H48.05a1.12,1.12,0,0,0-1,.54L42.9,36.07ZM10.13,46.22,3.6,43.51,19.26,15.85l7.11,7Zm12,7.3a1.13,1.13,0,0,0,1.13-.2L26,51l4.52,2.11-.19.6a13.64,13.64,0,0,1-13,9.47l-.95,0a22.81,22.81,0,0,1-3.09-.21,12.29,12.29,0,0,1-9.41-5.14C1.18,53.51,2.15,48,2.51,46.4l.19-.84,7.35,3.14ZM79.5,19.15h9.1v4.14H84.79a1.14,1.14,0,0,0-1.13,1.13v12.1H79.5ZM42,93.52H92.47a11.14,11.14,0,1,0,0-22.28H85.91V66.5h8.75a1.14,1.14,0,0,0,1.13-1.13v-19a1.13,1.13,0,0,0-1.13-1.12H89.81v-7.6a1.14,1.14,0,0,0-1.13-1.13H85.93v-11h3.78a1.14,1.14,0,0,0,1.14-1.13V18a1.14,1.14,0,0,0-1.14-1.13H78.37A1.14,1.14,0,0,0,77.23,18V36.52H70.68V29.93a1.13,1.13,0,0,0-1.14-1.12h-8l-.2-.16L25.25.38A1.15,1.15,0,0,0,23.7.52l-8.51,9.65a1.12,1.12,0,0,0,0,1.56l2.44,2.43L1.05,43.73C1,43.81-1.9,52.54,2.12,59c2,3.42,5.79,5.54,10.86,6.15a27,27,0,0,0,3.45.23H17A16.32,16.32,0,0,0,33,52.63a1.13,1.13,0,0,0-.65-1.19l-6-2.81a1.17,1.17,0,0,0-1.23.17L22.3,51.18l-10-4L28.08,24.45,41.81,38.11l-2.89,4.77a1.1,1.1,0,0,0-.16.58V65.52a1.13,1.13,0,0,0,1.13,1.12h8.75v4.6H42a11.14,11.14,0,1,0,0,22.28"/><path class="cls-2" d="M92.91,84.05a2.43,2.43,0,0,1-1.7.73h-.87v-.18a2.4,2.4,0,1,1,3.26-2.25,2.33,2.33,0,0,1-.68,1.69m-1.73-6a4.36,4.36,0,1,0,4.4,4.36A4.38,4.38,0,0,0,91.18,78"/><path class="cls-2" d="M45,84.05a2.43,2.43,0,0,1-1.7.73h-.87v-.18a2.4,2.4,0,1,1,3.26-2.25A2.33,2.33,0,0,1,45,84.05m-1.73-6a4.36,4.36,0,1,0,4.4,4.36A4.39,4.39,0,0,0,43.28,78"/></svg>