<svg id="Layer_1" data-name="Layer 1" xmlns="http://www.w3.org/2000/svg" viewBox="0 0 100.42 114.77"><defs><style>.cls-1{fill:#b5b0ae;}.cls-2{fill:#fff;}</style></defs><path class="cls-1" d="M50.21,107.6A50.22,50.22,0,1,0,0,57.38,50.21,50.21,0,0,0,50.21,107.6"/><path class="cls-2" d="M64.42,114.77,50.21,89.28,36,114.77,24.55,94.94.76,97,18.1,65.94l1.34,1.63A39.55,39.55,0,0,0,50.21,81.9,39.55,39.55,0,0,0,81,67.57l1.33-1.63L99.66,97l-23.78-2.1ZM26.12,91.93,36,109l13.49-24.2A42.44,42.44,0,0,1,18.58,71L5.91,93.7ZM51,84.76,64.47,109l9.84-17L94.52,93.7,81.84,71A42.44,42.44,0,0,1,51,84.76Z"/><path class="cls-2" d="M62.58,64.88a3.27,3.27,0,0,1-1.92-.63L50.21,56.68,39.77,64.24a3.29,3.29,0,0,1-5.06-3.67l4-12.24L28.26,40.77a3.28,3.28,0,0,1,1.93-5.94H43.1l4-12.24a3.24,3.24,0,0,1,3.13-2.27h0a3.22,3.22,0,0,1,3.11,2.27l4,12.24h12.9a3.28,3.28,0,0,1,1.93,5.94L61.72,48.33l4,12.25a3.3,3.3,0,0,1-3.13,4.3ZM50.21,53.13l12.13,8.79a.39.39,0,0,0,.49,0,.37.37,0,0,0,.15-.45L58.35,47.24l12.13-8.8a.41.41,0,0,0-.25-.74h-15L50.6,23.48a.38.38,0,0,0-.39-.29h0a.39.39,0,0,0-.4.29L45.18,37.7h-15a.38.38,0,0,0-.4.29.37.37,0,0,0,.15.45l12.13,8.8L37.44,61.46a.38.38,0,0,0,.15.46.4.4,0,0,0,.5,0Z"/><path class="cls-2" d="M50.21,85.2a42.6,42.6,0,1,1,42.6-42.6A42.65,42.65,0,0,1,50.21,85.2Zm0-82.33A39.73,39.73,0,1,0,89.94,42.6,39.77,39.77,0,0,0,50.21,2.87Z"/></svg>