<svg id="Layer_1" data-name="Layer 1" xmlns="http://www.w3.org/2000/svg" viewBox="0 0 90.78 87.21"><defs><style>.cls-1{fill:#00734a;}.cls-2{fill:#fff;}</style></defs><path class="cls-1" d="M46.15,82.93a40,40,0,1,0-40-40,40,40,0,0,0,40,40"/><path class="cls-2" d="M88.16,26.91a10,10,0,0,0,2.44-5.35,23.14,23.14,0,0,0-1-9.91c-2.23-7.14-4.75-8.87-6.59-10.13l-.12-.08C80.2-.43,77.17-.47,70.44,1.29l-1,.27L71.53,9.4,0,28.47,3.82,42.79l5-1.33V57.22H2.48v20H17.29v-20H11V40.89l27.45-7.32L34.61,78H25.5v9.22H66.27V78H56.49l-4-48.17,23-6.12,2.33,8.53.87,0a10.44,10.44,0,0,0,2.61-.57v5.63H76.4V52.8H88.25V37.24H83.4V30.69A16.29,16.29,0,0,0,88.16,26.91Zm-73,48.16H4.63V59.37H15.14Zm49,10H27.65V80.14H64.12ZM54.33,78H36.77l3.85-45,9.73-2.6Zm-49-37.83L2.64,30,71.56,11.62l2.71,10.16ZM86.09,50.64H78.55V39.4h7.54ZM72,3.1C77.93,1.65,80,2,81.71,3.22l.12.08c1.67,1.14,3.75,2.56,5.76,9a21,21,0,0,1,.88,9,7.92,7.92,0,0,1-1.93,4.21,13.43,13.43,0,0,1-7.18,4.4Z"/></svg>