<?xml version="1.0" encoding="utf-8"?>
<!-- Generator: Adobe Illustrator 24.3.0, SVG Export Plug-In . SVG Version: 6.00 Build 0)  -->
<svg version="1.1" id="Layer_1" xmlns="http://www.w3.org/2000/svg" xmlns:xlink="http://www.w3.org/1999/xlink" x="0px" y="0px"
	 viewBox="0 0 132.2 132.4" style="enable-background:new 0 0 132.2 132.4;" xml:space="preserve">
<style type="text/css">
	.st0{fill:#565655;}
	.st1{fill:#FFFFFF;}
</style>
<g>
	<path class="st0" d="M66.1,129.7c35,0,63.4-28.4,63.4-63.3S101.1,3,66.1,3S2.7,31.4,2.7,66.3l0,0C2.8,101.3,31.1,129.7,66.1,129.7
		L66.1,129.7"/>
	<g>
		<g>
			<g>
				<path class="st1" d="M26,77.1c-7.5,0-16-1.1-25-4.4c-0.6-0.2-1-0.8-1-1.4v-6.1c0-0.2,0-0.4,0.1-0.6l23.6-55
					c0.2-0.5,0.8-0.9,1.4-0.9c0.6,0,1.1,0.3,1.4,0.9l25.7,55.2c0.1,0.2,0.1,0.4,0.1,0.6v5.9c0,0.6-0.4,1.1-0.9,1.4
					C50.7,73,40.5,77.1,26,77.1z M3,70.2c22,7.8,41.9,1.6,46.3,0v-4.5L25.2,13.9L3,65.5V70.2z"/>
			</g>
			<g>
				<path class="st1" d="M50.7,66.8H1.5c-0.8,0-1.5-0.7-1.5-1.5s0.7-1.5,1.5-1.5h49.2c0.8,0,1.5,0.7,1.5,1.5S51.5,66.8,50.7,66.8z"
					/>
			</g>
		</g>
		<g>
			<g>
				<path class="st1" d="M105.9,77.1c-7.5,0-16-1.1-25-4.4c-0.6-0.2-1-0.8-1-1.4v-6.1c0-0.2,0-0.4,0.1-0.6l23.6-55
					c0.2-0.5,0.8-0.9,1.4-0.9c0,0,0,0,0,0c0.6,0,1.1,0.3,1.4,0.9l25.7,55.2c0.1,0.2,0.1,0.4,0.1,0.6v5.9c0,0.6-0.4,1.1-0.9,1.4
					C130.6,73,120.4,77.1,105.9,77.1z M82.9,70.2c22.1,7.8,41.9,1.6,46.3,0v-4.5l-24.1-51.9L82.9,65.5V70.2z"/>
			</g>
			<g>
				<path class="st1" d="M130.5,66.8H81.4c-0.8,0-1.5-0.7-1.5-1.5s0.7-1.5,1.5-1.5h49.1c0.8,0,1.5,0.7,1.5,1.5
					S131.3,66.8,130.5,66.8z"/>
			</g>
		</g>
		<g>
			<path class="st1" d="M66.3,19c-5.2,0-9.5-4.3-9.5-9.5S61.1,0,66.3,0c5.2,0,9.5,4.3,9.5,9.5S71.5,19,66.3,19z M66.3,3
				c-3.6,0-6.5,2.9-6.5,6.5s2.9,6.5,6.5,6.5c3.6,0,6.5-2.9,6.5-6.5S69.9,3,66.3,3z"/>
		</g>
		<g>
			<path class="st1" d="M58.4,11.6H25c-0.8,0-1.5-0.7-1.5-1.5s0.7-1.5,1.5-1.5h33.4c0.8,0,1.5,0.7,1.5,1.5S59.2,11.6,58.4,11.6z"/>
		</g>
		<g>
			<path class="st1" d="M66.3,110.3c-0.8,0-1.5-0.7-1.5-1.5V17.4c0-0.8,0.7-1.5,1.5-1.5s1.5,0.7,1.5,1.5v91.4
				C67.8,109.6,67.1,110.3,66.3,110.3z"/>
		</g>
		<g>
			<path class="st1" d="M105,11.6H74.3c-0.8,0-1.5-0.7-1.5-1.5s0.7-1.5,1.5-1.5H105c0.8,0,1.5,0.7,1.5,1.5S105.8,11.6,105,11.6z"/>
		</g>
		<g>
			<path class="st1" d="M107.2,132.4C107.2,132.4,107.2,132.4,107.2,132.4l-80.8-0.1c-0.8,0-1.5-0.7-1.5-1.5v-6.2
				c0-0.5,0.2-0.9,0.6-1.2c3.7-2.9,7.4-4.6,41.3-5.2c34.1-0.6,40.8,4.8,41.5,5.4c0.3,0.3,0.5,0.7,0.5,1.1v6.2c0,0.4-0.2,0.8-0.4,1.1
				C108,132.2,107.6,132.4,107.2,132.4z M27.9,129.3l77.8,0.1v-3.9c-2-1.1-10.8-4.8-38.9-4.3c-32.2,0.6-36.4,2.2-38.9,4.1V129.3z"/>
		</g>
		<g>
			<path class="st1" d="M88.3,121.8c-0.8,0-1.5-0.7-1.5-1.5V114c-0.7-0.7-4.6-3.7-20.5-3.7c-16,0-19.7,3.1-20.4,3.8v6.2
				c0,0.8-0.7,1.5-1.5,1.5s-1.5-0.7-1.5-1.5v-6.6c0-0.2,0-0.3,0.1-0.5c0.3-1,3-5.9,23.3-5.9c20.3,0,23.1,4.7,23.4,5.7
				c0.1,0.2,0.1,0.3,0.1,0.5v6.8C89.8,121.1,89.1,121.8,88.3,121.8z"/>
		</g>
	</g>
</g>
</svg>
