<?xml version="1.0" encoding="utf-8"?>
<!-- Generator: Adobe Illustrator 24.3.0, SVG Export Plug-In . SVG Version: 6.00 Build 0)  -->
<svg version="1.1" id="Layer_1" xmlns="http://www.w3.org/2000/svg" xmlns:xlink="http://www.w3.org/1999/xlink" x="0px" y="0px"
	 viewBox="0 0 136.2 136.5" style="enable-background:new 0 0 136.2 136.5;" xml:space="preserve">
<style type="text/css">
	.st0{fill:#565655;}
	.st1{fill:#FFFFFF;}
</style>
<g>
	<path class="st0" d="M68.1,132.1c35,0,63.4-28.4,63.4-63.3S103.1,5.4,68.1,5.4S4.7,33.8,4.7,68.7l0,0
		C4.8,103.7,33.1,132.1,68.1,132.1L68.1,132.1"/>
	<g>
		<path class="st1" d="M80.3,136.5H1.5c-0.8,0-1.5-0.7-1.5-1.5v-17.7c0-10,10.5-17.3,16-17.3h17.4c0.8,0,1.5,0.6,1.5,1.4
			c0,0.3,0.4,7.1,6,7.1c5.7,0,5.9-7.1,5.9-7.4c0-0.8,0.7-1.5,1.5-1.5h15c8.8,0,18.5,9.1,18.5,15.2V135
			C81.8,135.8,81.1,136.5,80.3,136.5z M3,133.5h75.8v-18.7c0-4.2-8.2-12.2-15.5-12.2H49.7c-0.5,3.7-2.8,8.9-8.8,8.9s-8.3-5-8.9-8.5
			H16c-3.9,0-13,6-13,14.3V133.5z"/>
	</g>
	<g>
		<path class="st1" d="M40.5,97.6c-5.1,0-9.2-1.7-12-5.1c-6.3-7.5-4-20.6-3.9-21.1s0.4-0.9,0.8-1.1s0.9-0.2,1.3,0
			c0.2,0.1,4.8,2.2,9.8-1.4c-1.9-3.4-1.3-7.4-1.2-7.6c0.1-0.8,0.9-1.4,1.7-1.2c0.8,0.1,1.4,0.9,1.2,1.7l0,0c0,0-0.6,3.6,1.3,6.2
			l0.1,0.1c0.1,0.1,0.1,0.2,0.2,0.3c1.3,1.5,3.5,2.3,6.3,2.4h9.3c0.7,0,1.4,0.5,1.5,1.3c0.3,2.2,1.7,13.5-4.1,20.2
			C50,95.9,45.8,97.6,40.5,97.6z M27.4,73.7c-0.4,3.6-0.7,12,3.5,16.9c2.2,2.6,5.5,4,9.7,4c4.4,0,7.8-1.4,10.2-4
			c4.2-5,3.9-13.1,3.5-16.6h-8c-3.3-0.1-5.9-1-7.8-2.7C34,74.6,29.7,74.3,27.4,73.7z"/>
	</g>
	<g>
		<path class="st1" d="M67.6,54c-5.2,0-9.2-1.7-12.1-5.1c-6.3-7.5-4-20.5-3.9-21.1c0.1-0.5,0.4-0.9,0.8-1.1c0.4-0.2,0.9-0.2,1.3,0
			c0.2,0.1,4.8,2.3,9.9-1.4c-1.9-3.4-1.2-7.3-1.2-7.5c0.1-0.8,0.9-1.4,1.7-1.2c0.8,0.1,1.4,0.9,1.2,1.7c0,0.1-0.6,3.9,1.5,6.5
			c1.3,1.6,3.5,2.5,6.4,2.5h9.3c0.7,0,1.4,0.5,1.5,1.3c0.1,0.5,2,12.9-4.2,20.2C77,52.3,72.9,54,67.6,54z M54.4,30.1
			C54,33.7,53.7,42,57.9,47c2.2,2.7,5.5,4,9.8,4c4.4,0,7.7-1.4,10-4.1c4.3-5,3.9-13.4,3.6-16.5h-8c-3.3-0.1-5.9-1-7.8-2.7
			C61,31,56.7,30.7,54.4,30.1z"/>
	</g>
	<g>
		<path class="st1" d="M33.4,103c-0.8,0-1.5-0.7-1.5-1.5v-6.7c0-0.8,0.7-1.5,1.5-1.5s1.5,0.7,1.5,1.5v6.7
			C34.9,102.3,34.2,103,33.4,103z"/>
	</g>
	<g>
		<path class="st1" d="M48.3,103c-0.8,0-1.5-0.7-1.5-1.5v-6.7c0-0.8,0.7-1.5,1.5-1.5s1.5,0.7,1.5,1.5v6.7
			C49.8,102.3,49.1,103,48.3,103z"/>
	</g>
	<g>
		<path class="st1" d="M26.1,103c-4.1,0-7.3-1.3-9.7-3.8c-4.1-4.4-3.7-11.1-3.7-11.3V69.3c0-8.7,8.2-24.9,27.9-24.9
			c18.8,0,29,15.9,29,24.1v25.8c0,0.5,0.1,2.9-1.9,5c-2.1,2.3-5.7,3.4-10.7,3.4c-0.8,0-1.5-0.7-1.5-1.5s0.7-1.5,1.5-1.5
			c4,0.1,6.9-0.7,8.4-2.3c1.2-1.3,1.2-2.8,1.2-2.8v-0.1v-26c0-5.8-8-21.1-26-21.1c-17.6,0-24.9,14.3-24.9,21.9V88
			c0,0.2-0.3,5.8,2.9,9.2c1.7,1.9,4.3,2.8,7.5,2.8c0.8,0,1.5,0.7,1.5,1.5S26.9,103,26.1,103z"/>
	</g>
	<g>
		<path class="st1" d="M134.7,136.5H55.9c-0.8,0-1.5-0.7-1.5-1.5s0.7-1.5,1.5-1.5h77.3v-18.7c0-4.2-8.2-12.2-15.5-12.2h-13.6
			c-0.5,3.7-2.8,8.9-8.8,8.9s-8.3-4.9-8.9-8.5h-16c-0.8,0-1.5-0.7-1.5-1.5s0.7-1.5,1.5-1.5h17.4c0.8,0,1.5,0.7,1.5,1.5
			c0,0.3,0.3,7,6,7c5.6,0,5.9-7.1,5.9-7.4c0-0.8,0.7-1.5,1.5-1.5h15c8.8,0,18.5,9.1,18.5,15.2V135
			C136.2,135.8,135.5,136.5,134.7,136.5z"/>
	</g>
	<g>
		<path class="st1" d="M95.4,97.6c-5.3,0-9.4-1.7-12.3-5.1c-6.2-7.3-4.2-19.7-4.2-20.2c0.1-0.7,0.7-1.3,1.5-1.3h9.3
			c2.9-0.1,5.1-0.9,6.4-2.5c2.2-2.6,1.5-6.5,1.5-6.5c-0.1-0.8,0.4-1.6,1.2-1.7c0.8-0.1,1.6,0.4,1.7,1.2c0,0.2,0.7,4.1-1.2,7.5
			c5.1,3.7,9.8,1.4,9.9,1.4c0.4-0.2,0.9-0.2,1.3,0s0.7,0.6,0.8,1.1c0.1,0.6,2.4,13.6-3.9,21.1C104.6,95.9,100.6,97.6,95.4,97.6z
			 M81.7,74c-0.3,3.2-0.6,11.5,3.6,16.5c2.3,2.7,5.7,4.1,10,4.1c4.2,0,7.5-1.3,9.7-4c4.2-5,3.9-13.3,3.5-16.9
			c-2.4,0.6-6.7,0.9-11.1-2.4C95.6,73,93,73.9,89.7,74H81.7z"/>
	</g>
	<g>
		<path class="st1" d="M87.8,103c-0.8,0-1.5-0.7-1.5-1.5v-7c0-0.8,0.7-1.5,1.5-1.5s1.5,0.7,1.5,1.5v7C89.3,102.3,88.6,103,87.8,103z
			"/>
	</g>
	<g>
		<path class="st1" d="M102.7,103c-0.8,0-1.5-0.7-1.5-1.5v-6.9c0-0.8,0.7-1.5,1.5-1.5s1.5,0.7,1.5,1.5v6.9
			C104.2,102.3,103.5,103,102.7,103z"/>
	</g>
	<g>
		<path class="st1" d="M122.3,103.4c-0.8,0-1.5-0.7-1.5-1.5V68.5c0-5.8-8-21.1-26-21.1c-17.6,0-24.9,14.3-24.9,21.9v32.1
			c0,0.8-0.7,1.5-1.5,1.5s-1.5-0.7-1.5-1.5V69.3c0-8.7,8.2-24.9,27.9-24.9c18.8,0,29,15.9,29,24.1v33.4
			C123.8,102.7,123.1,103.4,122.3,103.4z"/>
	</g>
	<g>
		<path class="st1" d="M101.1,47.7c-0.7,0-1.3-0.5-1.5-1.2c-0.7-2.8-2.2-7.8-3.4-9.2c-0.4-0.4-0.5-1-0.3-1.6
			c0.7-1.9,2.2-7.4,0.3-10.4c-2.4-3.9-5.7-5.8-5.8-5.8c-0.3-0.2-0.6-0.5-0.7-0.8C89.6,18.1,84.2,2.6,67.9,3S46.7,17.7,46.5,18.3
			c-0.1,0.2-0.2,0.5-0.4,0.6c0,0-3.6,3.3-5.3,7c-1.5,3-0.7,8.1-0.3,9.8c0.1,0.5,0,1-0.3,1.3c-1.2,1.4-4.2,5.7-3.3,8.4
			c0.3,0.8-0.2,1.6-0.9,1.9c-0.8,0.3-1.6-0.2-1.9-0.9c-1.4-4.2,2-9,3.4-10.8c-0.4-2-1.1-7.3,0.7-11.1c1.7-3.7,4.8-6.8,5.8-7.7
			c1-2.5,7.2-16.6,24-16.9c16.7-0.4,23.4,14.3,24.6,17.3c1.1,0.7,4,2.8,6.3,6.5c2.5,4,0.9,10.1,0.2,12.2c1.9,2.9,3.4,9.1,3.6,9.8
			c0.2,0.8-0.3,1.6-1.1,1.8C101.3,47.7,101.2,47.7,101.1,47.7z"/>
	</g>
</g>
</svg>
