<svg id="Layer_1" data-name="Layer 1" xmlns="http://www.w3.org/2000/svg" viewBox="0 0 68.91 70.18"><defs><style>.cls-1{fill:#1b9fda;}.cls-2{fill:#fff;}</style></defs><path class="cls-1" d="M33.27,68.11A31.72,31.72,0,1,0,1.55,36.39,31.73,31.73,0,0,0,33.27,68.11"/><path class="cls-2" d="M68.91,47.74a1.11,1.11,0,0,0,0-.25l0,0a1,1,0,0,0-.11-.17l-.07-.06a.71.71,0,0,0-.09-.07l-21-12.49L45.07,14.29H58.84V19a.71.71,0,1,0,1.42,0V13.56a.54.54,0,0,0,0-.22.3.3,0,0,0,0-.08.38.38,0,0,0-.09-.13L60,13.06l0,0L43.13.15A.24.24,0,0,0,43,.09l-.08,0a.86.86,0,0,0-.24,0H26a1,1,0,0,0-.24,0l-.08,0-.11.06L8.71,13l0,0-.07.07-.09.13,0,.08a.78.78,0,0,0,0,.22V19a.71.71,0,1,0,1.42,0V14.29H23.58L21,34.66.34,47.16l-.08.07s-.05,0-.07.06a.64.64,0,0,0-.11.16l0,0a1,1,0,0,0,0,.25H0V53.2a.71.71,0,0,0,1.42,0V48.47H7.7V53.2a.71.71,0,1,0,1.42,0V48.47H19.2L16.52,69.38s0,.06,0,.08a1.15,1.15,0,0,0,0,.19s0,.07.05.11a1.17,1.17,0,0,0,.05.11s0,0,0,0,0,0,0,0a.83.83,0,0,0,.15.11l.08,0a.64.64,0,0,0,.3.08H51.07a.68.68,0,0,0,.31-.08.18.18,0,0,0,.07,0,.83.83,0,0,0,.15-.11s0,0,0,0l0,0a.61.61,0,0,0,.05-.12.54.54,0,0,0,0-.11.55.55,0,0,0,0-.18.27.27,0,0,0,0-.09L49.23,48.47H59.74V53.2a.71.71,0,1,0,1.41,0V48.47h6.34V53.2a.71.71,0,1,0,1.42,0V47.74ZM33,57.67,18.13,68l2.43-19Zm-10.69-9.2H46.17l-12,8.34ZM34.18,58.54,48.82,68.76H19.48Zm1.25-.87L47.87,49l2.31,19ZM20.81,47.06,22.26,35.8h24l1.37,11.26Zm14.52-24,8.41-8,2.2,18.14Zm9.79,11.32H23.41L34.3,24ZM34.3,22.08l-8.14-7.79H42.49Zm-1,1L22.59,33.2l2.33-18.13ZM44.9,12.88,43.61,2.29,57.46,12.88ZM42.07,1.42l1.4,11.46H25.2L26.67,1.42ZM11.24,12.88,25.12,2.3,23.77,12.88Zm-8,34.18,17.49-10.6-1.36,10.6Zm45.81,0-1.3-10.63L65.62,47.06Z"/></svg>