<?xml version="1.0" encoding="utf-8"?>
<!-- Generator: Adobe Illustrator 24.3.0, SVG Export Plug-In . SVG Version: 6.00 Build 0)  -->
<svg version="1.1" id="Capa_1" xmlns="http://www.w3.org/2000/svg" xmlns:xlink="http://www.w3.org/1999/xlink" x="0px" y="0px"
	 viewBox="0 0 28.6 30.1" style="enable-background:new 0 0 28.6 30.1;" xml:space="preserve">
<style type="text/css">
	.st0{fill:#8EC043;}
	.st1{fill:#FFFFFF;}
</style>
<g>
	<g>
		<g>
			<path class="st0" d="M14.3,30.1c7.9,0,14.3-6.4,14.3-14.3S22.2,1.5,14.3,1.5S0,7.9,0,15.8S6.4,30.1,14.3,30.1"/>
		</g>
	</g>
	<g>
		<g>
			<path class="st1" d="M25.4,28H3.3V3.6l5.5-0.1V2.9c0-0.6,0.5-1.1,1.1-1.1h1.7c0.6-1.1,1.6-1.7,2.7-1.7c1.1,0,2.1,0.6,2.6,1.7l0,0
				c0,0,0,0,0,0h1.8c0.6,0,1.1,0.5,1.1,1.1v0.6l5.5,0.1V28z M4.3,27h20.1V4.6l-4.5-0.1v2.3H8.8V4.5L4.3,4.6V27z M9.8,5.8h9.1V2.9
				c0,0-0.1-0.1-0.1-0.1l-1.8,0c-0.4,0-0.9-0.2-1-0.6c-0.4-0.7-1-1.1-1.7-1.1c-0.7,0-1.4,0.4-1.8,1.1c-0.2,0.4-0.5,0.6-0.9,0.6H9.9
				c0,0-0.1,0.1-0.1,0.1l0,1.1c0,0,0,0,0,0c0,0,0,0,0,0V5.8z M8.7,24.1l-1.7-1.7c-0.2-0.2-0.2-0.5,0-0.7s0.5-0.2,0.7,0l1.1,1.1
				l2.2-2.1c0.2-0.2,0.5-0.2,0.7,0c0.2,0.2,0.2,0.5,0,0.7L8.7,24.1z M21,22.8h-7c-0.3,0-0.5-0.2-0.5-0.5s0.2-0.5,0.5-0.5h7
				c0.3,0,0.5,0.2,0.5,0.5S21.3,22.8,21,22.8z M8.7,18.8l-1.7-1.7c-0.2-0.2-0.2-0.5,0-0.7s0.5-0.2,0.7,0l1.1,1.1l2.2-2.1
				c0.2-0.2,0.5-0.2,0.7,0c0.2,0.2,0.2,0.5,0,0.7L8.7,18.8z M21,17.4h-7c-0.3,0-0.5-0.2-0.5-0.5s0.2-0.5,0.5-0.5h7
				c0.3,0,0.5,0.2,0.5,0.5S21.3,17.4,21,17.4z M8.7,13.4l-1.7-1.7c-0.2-0.2-0.2-0.5,0-0.7s0.5-0.2,0.7,0L8.7,12L11,9.9
				c0.2-0.2,0.5-0.2,0.7,0c0.2,0.2,0.2,0.5,0,0.7L8.7,13.4z M21,12h-7c-0.3,0-0.5-0.2-0.5-0.5S13.7,11,14,11h7
				c0.3,0,0.5,0.2,0.5,0.5S21.3,12,21,12z"/>
		</g>
	</g>
</g>
</svg>
