<?xml version="1.0" encoding="utf-8"?>
<!-- Generator: Adobe Illustrator 24.3.0, SVG Export Plug-In . SVG Version: 6.00 Build 0)  -->
<svg version="1.1" id="Layer_1" xmlns="http://www.w3.org/2000/svg" xmlns:xlink="http://www.w3.org/1999/xlink" x="0px" y="0px"
	 viewBox="0 0 126.8 126.7" style="enable-background:new 0 0 126.8 126.7;" xml:space="preserve">
<style type="text/css">
	.st0{fill:#565655;}
	.st1{fill:#FFFFFF;}
</style>
<g>
	<path class="st0" d="M63.4,126.7c35,0,63.4-28.4,63.4-63.3S98.4,0,63.4,0S0,28.4,0,63.3l0,0C0.1,98.3,28.4,126.7,63.4,126.7
		L63.4,126.7"/>
	<path class="st1" d="M63.4,114c28,0,50.7-22.7,50.7-50.6c0-28-22.7-50.7-50.6-50.7c-20.3,0-38.6,12.1-46.6,30.7l-0.4,0.9
		c-10.5,25.9,2,55.4,27.9,65.9C50.4,112.7,56.9,114,63.4,114z M103.2,88.9l-2.6-2.6v-6.1c0-0.3-0.1-0.5-0.2-0.8l-6.6-13.2v-6.4
		c0-0.6-0.3-1.1-0.8-1.4l-5-3.2c-0.4-0.3-0.9-0.3-1.4-0.2l-6.2,1.6L70,52l-1.4-10l4-4h8.5l2.9,4.3c0.3,0.4,0.7,0.7,1.1,0.7l10.1,1.7
		c0.3,0,0.5,0,0.8-0.1l9.3-3.1C113.2,56.6,112.3,74.7,103.2,88.9L103.2,88.9z M96.2,29.3l-2.7,1.8l-7.7-1.5l-5-1.7
		c-0.3-0.1-0.6-0.1-0.9,0l-6.3,1.6l-2.8-0.9l2-4.1h5.7c0.3,0,0.5-0.1,0.8-0.2l5.8-2.9C89.2,23.5,92.9,26.2,96.2,29.3z M44.9,19.8
		l4.1,2.7c0.2,0.1,0.4,0.2,0.7,0.3l8.2,1.4L57,26.6L52.7,28c-0.4,0.1-0.7,0.4-0.9,0.7L47,36.8l-7.8,4.7l-11.5,1.6
		c-0.8,0.1-1.5,0.8-1.5,1.7v5c0,0.4,0.2,0.9,0.5,1.2l2.9,2.9v2.9l-7-4.7l-2.5-7.6C24.9,33.4,33.8,24.6,44.9,19.8z M40.1,75.2
		l-7.6-1.5L29.7,68v-4l6.3-6.3l2.3,4.7c0.3,0.6,0.9,0.9,1.5,0.9h10.9l4.6,7.6c0.3,0.5,0.9,0.8,1.4,0.8h4.7l-1.2,5.9L53.8,84
		c-0.3,0.3-0.5,0.7-0.5,1.2v4.2L47.2,94c-0.4,0.3-0.7,0.8-0.7,1.4v6.1l-2.1-0.7l-3-7.4V76.9C41.5,76.1,40.9,75.4,40.1,75.2z
		 M18.2,49.5l1.4,4.2c0.1,0.4,0.4,0.7,0.7,0.9l8.4,5.6l-1.9,1.9c-0.3,0.3-0.5,0.7-0.5,1.2v5.1c0,0.3,0.1,0.5,0.2,0.8l3.4,6.8
		c0.2,0.5,0.7,0.8,1.2,0.9l7.1,1.4v15.5c0,0.2,0,0.4,0.1,0.6l3.4,8.4c0.2,0.5,0.6,0.8,1,1l5.1,1.7c0.2,0.1,0.3,0.1,0.5,0.1
		c0.9,0,1.7-0.8,1.7-1.7v-7.6l6.1-4.6c0.4-0.3,0.7-0.8,0.7-1.4v-4.4l6.3-6.3c0.2-0.2,0.4-0.5,0.5-0.9l1.7-8.4c0.2-0.9-0.4-1.8-1.3-2
		c-0.1,0-0.2,0-0.3,0h-5.8L53,60.8c-0.3-0.5-0.9-0.8-1.4-0.8H40.8l-2.9-5.8c-0.2-0.5-0.7-0.8-1.2-0.9c-0.5-0.1-1.1,0.1-1.5,0.5
		L33,55.9v-2.7c0-0.4-0.2-0.9-0.5-1.2l-2.9-2.9v-2.9L40,44.8c0.2,0,0.4-0.1,0.6-0.2l8.4-5.1c0.2-0.1,0.4-0.3,0.6-0.6l4.7-7.9
		l4.5-1.5c0.5-0.2,0.9-0.6,1.1-1.1l1.7-5.1c0.3-0.9-0.2-1.8-1.1-2.1c-0.1,0-0.2,0-0.3-0.1l-9.8-1.6l-1.7-1.1
		c10.6-3.5,22.1-3,32.5,1.2l-3.1,1.5h-6.4c-0.6,0-1.2,0.4-1.5,0.9l-3.3,6.8c-0.4,0.8-0.1,1.8,0.8,2.3c0.1,0,0.1,0.1,0.2,0.1l5.1,1.7
		c0.3,0.1,0.6,0.1,0.9,0l6.3-1.6l4.6,1.5c0.1,0,0.1,0,0.2,0.1l8.4,1.7c0.4,0.1,0.9,0,1.3-0.2l3.8-2.6c1.9,2.1,3.6,4.4,5.1,6.8
		l-8.3,2.8l-9-1.5l-3-4.5c-0.3-0.5-0.8-0.7-1.4-0.8H71.8c-0.4,0-0.9,0.2-1.2,0.5l-5.1,5.1c-0.4,0.4-0.6,0.9-0.5,1.4l1.7,11.8
		c0.1,0.6,0.5,1.1,1,1.3l11.9,5.1c0.3,0.1,0.7,0.2,1.1,0.1l6-1.5l3.7,2.5v5.9c0,0.3,0.1,0.5,0.2,0.8l6.6,13.2v6.4
		c0,0.4,0.2,0.9,0.5,1.2l3.5,3.5c-15.7,20.7-45.3,24.9-66.2,9.3C19.1,89.2,12.4,68.6,18.2,49.5z"/>
</g>
</svg>
