<svg id="Layer_1" data-name="Layer 1" xmlns="http://www.w3.org/2000/svg" viewBox="0 0 143.52 98.57"><defs><style>.cls-1{fill:#fff;}</style></defs><path class="cls-1" d="M124.79,55.39s-3.93-22.74,18.53-25c0,0,1.42,8.43-3.36,12.5S128.16,51.46,124.79,55.39Z"/><path class="cls-1" d="M126.08,16.84s7,8,0,16.4C126.08,33.24,119.38,26.25,126.08,16.84Z"/><path class="cls-1" d="M107.4,28S121,26.4,124.53,40.66C124.53,40.66,110.53,42.23,107.4,28Z"/><path class="cls-1" d="M0,31.39S.29,41.8,3.57,45.22s6.82,3.48,9.27,4.42c3.48,1.35,7.84,5,8.41,6.85,0,0,2.43-10-4.42-14.55C10.83,37.52,5.42,39.66,0,31.39Z"/><path class="cls-1" d="M20.38,41.41s.59-12.6,11-13.5C31.39,27.91,32.27,37.44,20.38,41.41Z"/><path class="cls-1" d="M33,76.22l-1.27-.15c-4.5-.51-7.63-4.47-8.73-8.16s-.28-7.3,2.28-9.43a5.92,5.92,0,0,1,5-1.49c3.9.71,6.58,5.35,6.69,5.55l.64,1.13-1.18.54c-2.05.93-3.21,6.84-3.38,10.74ZM29.3,59.27a3.85,3.85,0,0,0-2.48,1c-1.8,1.5-2.38,4.09-1.53,6.93a10,10,0,0,0,3.53,5.16,1.42,1.42,0,0,0,2.22-1c.36-2.46,1.08-5.64,2.52-7.67a1.61,1.61,0,0,0-.09-2,7.06,7.06,0,0,0-3.59-2.41A3.9,3.9,0,0,0,29.3,59.27Z"/><path class="cls-1" d="M40.81,82.27c-5.77,0-9.76-6.47-9.94-6.76l-.17-.29v-.34c.12-10.09,4.23-12.55,4.7-12.8l.26-.1c5.86-1.52,9.45,3.41,10.53,6.22l.26.69-.5.54c-3.67,4-3.32,11.48-3.31,11.56l.06,1.13-1.13.11A6.56,6.56,0,0,1,40.81,82.27Zm-7.05-6.79a13.25,13.25,0,0,0,4.41,3.78A1.53,1.53,0,0,0,40.36,78,19.56,19.56,0,0,1,43,69.47a2.16,2.16,0,0,0-.08-2.41c-1.16-1.63-3.25-3.57-6.44-2.83-.48.36-2.92,2.49-3.31,9.23A3,3,0,0,0,33.76,75.48Z"/><path class="cls-1" d="M51.74,89.39c-7.59,0-11.21-7.51-11.36-7.83l-.1-.22V81.1c-.35-8.89,3.8-13.14,4-13.31l.31-.31.43,0c4.34-.39,7.57.41,9.58,2.4a6.94,6.94,0,0,1,2,5.14l0,.48-.36.31c-5,4.51-3.18,12.06-3.16,12.14l.36,1.45-1.49,0Zm-8.61-7.8c1.07,1.66,3.52,4.75,7.34,5.33-.34-2.73-.43-8.41,3.76-12.53a4.63,4.63,0,0,0-1.36-2.89c-1.28-1.23-3.43-1.84-6.27-1.78a1.89,1.89,0,0,0-1.52.87,17.49,17.49,0,0,0-2.46,9.25A3.28,3.28,0,0,0,43.13,81.59Z"/><path class="cls-1" d="M78.26,98.57a11.72,11.72,0,0,1-5.72-1.42c-2.13-1.22-5.36-3.3-6.6-4.11-10,3.53-15-4.12-15-4.2l-.13-.2,0-.23C49,78.7,54.44,74.16,54.67,74l.22-.17.27-.06a8.25,8.25,0,0,1,7.57,1.58c4.61,4,4.66,13.14,4.57,15.78,1.28.82,4.4,2.84,6.41,4,3.13,1.78,9.48,2.11,14.18-4.29l1.92,1.4C86.31,97,82,98.57,78.26,98.57ZM53,87.74A9.94,9.94,0,0,0,63.87,91.2a1.42,1.42,0,0,0,1.07-1.39c0-3.23-.47-9.87-3.76-12.7A5.84,5.84,0,0,0,56,76C55.12,76.81,51.81,80.53,53,87.74Z"/><path class="cls-1" d="M92.93,93.22a19.51,19.51,0,0,1-2.12-.12h0c-4.51,0-13.42-9.21-16.25-12.25a1.12,1.12,0,0,1,.08-1.6l.08-.08a1.13,1.13,0,0,1,1.59.08C80.7,84,88,90.73,90.94,90.73c5.57.62,9-1.28,11.28-6.13a1.15,1.15,0,0,1,1.45-.61l.11,0a1.12,1.12,0,0,1,.62,1.5C102,90.69,98.27,93.22,92.93,93.22Z"/><path class="cls-1" d="M107.93,86.3c-7.3,0-20.81-12.85-24.6-16.6a1.18,1.18,0,0,1,0-1.68h0A1.18,1.18,0,0,1,85,68c5.18,5.12,17.27,15.92,22.92,15.92H108c3.44-.07,5.92-1.07,7-2.81a4.89,4.89,0,0,0-.09-4.76,14.59,14.59,0,0,0-2.8-3.27c-5.15-5-15.18-12.48-18.3-14.78a1.18,1.18,0,0,1-.26-1.65h0a1.19,1.19,0,0,1,1.66-.26c3.16,2.32,13.23,9.81,18.56,15A16.77,16.77,0,0,1,117,75.33a7.14,7.14,0,0,1,0,7c-1.51,2.46-4.69,3.86-9,3.94Z"/><path class="cls-1" d="M120.49,76.16a16.8,16.8,0,0,1-7.29-2l1.17-2.07c.07,0,6.91,3.81,10.13,0,1.63-1.9,2.3-3.44,2.17-5-.22-2.52-2.59-5.55-7.45-9.55C110,50,89.17,34.16,85,32.49l-.14-.06c-4.27-1.72-13.16-5.3-19.8,1.63C57,42.48,51.28,45.45,45.88,44s-10.06-3.59-9.6-9.76c.34-4.6,6.68-9,12.28-12.95,1.42-1,2.76-1.93,3.87-2.78,1.45-1.12,2.9-2.36,4.44-3.68,4-3.43,9.63-8.31,15.51-11,8-3.61,14.88-4.17,18.3-3.7h0c-4,1-9.62,1.83-17.73,6.28A90.6,90.6,0,0,0,58.41,16.61c-1.56,1.34-3,2.61-4.54,3.76-1.15.88-2.51,1.84-3.95,2.84C45,26.65,38.9,30.92,38.64,34.4c-.27,3.69,1.86,5.67,7.86,7.29,4.44,1.21,9.49-1.56,16.87-9.27,7.76-8.09,18-4,22.41-2.19l.14.06c4.58,1.84,25.43,17.75,34.8,25.45,5.47,4.49,8,7.93,8.31,11.17.19,2.23-.65,4.31-2.73,6.74A7.34,7.34,0,0,1,120.49,76.16Z"/><path class="cls-1" d="M60.28,13.25c-.36-.23-7.74-5.73-8.77-11.38h0c.7,3.83,7.88,5.69,11.55,8.54Z"/></svg>