<svg id="Layer_1" data-name="Layer 1" xmlns="http://www.w3.org/2000/svg" viewBox="0 0 152.43 137.77"><defs><style>.cls-1{fill:#b5b0ae;}.cls-2{fill:#fff;}</style></defs><path class="cls-1" d="M76.22,137.77A68.89,68.89,0,1,0,7.33,68.89a68.88,68.88,0,0,0,68.89,68.88"/><path class="cls-2" d="M150.46,126.94H2a2,2,0,0,1-2-2V43.44a2,2,0,0,1,2-2H24.41V26.52a15.7,15.7,0,0,1,15.7-15.68h72.18A15.69,15.69,0,0,1,128,26.52v15h22.49a2,2,0,0,1,2,2V125A2,2,0,0,1,150.46,126.94ZM3.94,123H148.49V45.41H3.94Zm113-81.53H124V26.52a11.76,11.76,0,0,0-11.74-11.75H40.11A11.76,11.76,0,0,0,28.35,26.52v15h7.11V31.19A9.17,9.17,0,0,1,44.62,22h63.15a9.17,9.17,0,0,1,9.16,9.17Zm-77.54,0H113V31.19A5.23,5.23,0,0,0,107.77,26H44.62a5.24,5.24,0,0,0-5.23,5.23Zm44.5,69H68.54a2,2,0,0,1-2-2V93.86H52a2,2,0,0,1-2-2V76.53a2,2,0,0,1,2-2H66.57V60a2,2,0,0,1,2-2H83.89a2,2,0,0,1,2,2V74.56h14.61a2,2,0,0,1,2,2V91.89a2,2,0,0,1-2,2H85.86v14.6A2,2,0,0,1,83.89,110.42ZM70.5,106.49H81.93V91.89a2,2,0,0,1,2-2H98.5V78.49H83.89a2,2,0,0,1-2-2V61.92H70.5V76.53a2,2,0,0,1-2,2H53.93V89.92H68.54a2,2,0,0,1,2,2Z"/></svg>