<?xml version="1.0" encoding="utf-8"?>
<!-- Generator: Adobe Illustrator 24.3.0, SVG Export Plug-In . SVG Version: 6.00 Build 0)  -->
<svg version="1.1" id="Layer_1" xmlns="http://www.w3.org/2000/svg" xmlns:xlink="http://www.w3.org/1999/xlink" x="0px" y="0px"
	 viewBox="0 0 875.23 196.51" style="enable-background:new 0 0 875.23 196.51;" xml:space="preserve">
<style type="text/css">
	.st0{fill:#F8A900;}
	.st1{fill:#006C43;}
	.st2{fill:#FFFFFF;}
	.st3{clip-path:url(#SVGID_2_);fill:#006C43;}
	.st4{clip-path:url(#SVGID_2_);fill:#144E38;}
	.st5{clip-path:url(#SVGID_2_);fill:#135038;}
	.st6{clip-path:url(#SVGID_2_);fill:#14513A;}
	.st7{clip-path:url(#SVGID_2_);fill:#135339;}
	.st8{clip-path:url(#SVGID_2_);fill:#13543A;}
	.st9{clip-path:url(#SVGID_2_);fill:#18553B;}
	.st10{clip-path:url(#SVGID_2_);fill:#17583C;}
	.st11{clip-path:url(#SVGID_2_);fill:#16593D;}
	.st12{clip-path:url(#SVGID_2_);fill:#175A3D;}
	.st13{clip-path:url(#SVGID_2_);fill:#175B3F;}
	.st14{clip-path:url(#SVGID_2_);fill:#1C5C3E;}
	.st15{clip-path:url(#SVGID_2_);fill:#1B5E40;}
	.st16{clip-path:url(#SVGID_2_);fill:#1B5F41;}
	.st17{clip-path:url(#SVGID_2_);fill:#1A6142;}
	.st18{clip-path:url(#SVGID_2_);fill:#1F6242;}
	.st19{clip-path:url(#SVGID_2_);fill:#1F6343;}
	.st20{clip-path:url(#SVGID_2_);fill:#1E6443;}
	.st21{clip-path:url(#SVGID_2_);fill:#1F6544;}
	.st22{clip-path:url(#SVGID_2_);fill:#226845;}
	.st23{clip-path:url(#SVGID_2_);fill:#236945;}
	.st24{clip-path:url(#SVGID_2_);fill:#266B46;}
	.st25{clip-path:url(#SVGID_2_);fill:#266C47;}
	.st26{clip-path:url(#SVGID_2_);fill:#266D49;}
	.st27{clip-path:url(#SVGID_2_);fill:#296E49;}
	.st28{clip-path:url(#SVGID_2_);fill:#28704A;}
	.st29{clip-path:url(#SVGID_2_);fill:#2D724B;}
	.st30{clip-path:url(#SVGID_2_);fill:#2D734B;}
	.st31{clip-path:url(#SVGID_2_);fill:#2E744C;}
	.st32{clip-path:url(#SVGID_2_);fill:#31764D;}
	.st33{clip-path:url(#SVGID_2_);fill:#30784F;}
	.st34{clip-path:url(#SVGID_2_);fill:#347950;}
	.st35{clip-path:url(#SVGID_2_);fill:#347A51;}
	.st36{clip-path:url(#SVGID_2_);fill:#377C52;}
	.st37{clip-path:url(#SVGID_2_);fill:#3C7E53;}
	.st38{clip-path:url(#SVGID_2_);fill:#3B7F53;}
	.st39{clip-path:url(#SVGID_2_);fill:#3E8155;}
	.st40{clip-path:url(#SVGID_2_);fill:#3E8356;}
	.st41{clip-path:url(#SVGID_2_);fill:#428356;}
	.st42{clip-path:url(#SVGID_2_);fill:#458657;}
	.st43{clip-path:url(#SVGID_2_);fill:#448859;}
	.st44{clip-path:url(#SVGID_2_);fill:#48895B;}
	.st45{clip-path:url(#SVGID_2_);fill:#4C8B5C;}
	.st46{clip-path:url(#SVGID_2_);fill:#4C8C5E;}
	.st47{clip-path:url(#SVGID_2_);fill:#528E5E;}
	.st48{clip-path:url(#SVGID_2_);fill:#52915F;}
	.st49{clip-path:url(#SVGID_2_);fill:#569262;}
	.st50{clip-path:url(#SVGID_2_);fill:#599362;}
	.st51{clip-path:url(#SVGID_2_);fill:#599563;}
	.st52{clip-path:url(#SVGID_2_);fill:#609764;}
	.st53{clip-path:url(#SVGID_2_);fill:#5F9865;}
	.st54{clip-path:url(#SVGID_2_);fill:#639B67;}
	.st55{clip-path:url(#SVGID_2_);fill:#669C67;}
	.st56{clip-path:url(#SVGID_2_);fill:#6A9E6A;}
	.st57{clip-path:url(#SVGID_2_);fill:#6CA06C;}
	.st58{clip-path:url(#SVGID_2_);fill:#6FA26C;}
	.st59{clip-path:url(#SVGID_2_);fill:#73A46F;}
	.st60{clip-path:url(#SVGID_2_);fill:#76A66F;}
	.st61{clip-path:url(#SVGID_2_);fill:#79A771;}
	.st62{clip-path:url(#SVGID_2_);fill:#7BA973;}
	.st63{clip-path:url(#SVGID_2_);fill:#7EAA75;}
	.st64{clip-path:url(#SVGID_2_);fill:#81AC76;}
	.st65{clip-path:url(#SVGID_2_);fill:#84B079;}
	.st66{clip-path:url(#SVGID_2_);fill:#87B279;}
	.st67{clip-path:url(#SVGID_2_);fill:#8AB37B;}
	.st68{clip-path:url(#SVGID_2_);fill:#8CB57E;}
	.st69{clip-path:url(#SVGID_2_);fill:#F8A900;}
</style>
<g>
	<rect class="st0" width="199.48" height="195.16"/>
	<polygon class="st1" points="84.62,107.26 53.68,83.54 0.18,122.8 0.18,196.51 199.15,196.51 199.15,110.53 134.78,64.73 	"/>
	<g>
		<path class="st2" d="M22.86,97.58c0-42.33,35.07-76.63,78.32-76.63c43.27,0,78.33,34.31,78.33,76.63
			c0,42.32-35.06,76.63-78.33,76.63C57.93,174.22,22.86,139.9,22.86,97.58"/>
	</g>
	<g>
		<defs>
			<path id="SVGID_1_" d="M33.04,97.58c0,36.83,30.51,66.67,68.14,66.67s68.14-29.84,68.14-66.67c0-36.81-30.51-66.66-68.14-66.66
				S33.04,60.77,33.04,97.58"/>
		</defs>
		<clipPath id="SVGID_2_">
			<use xlink:href="#SVGID_1_"  style="overflow:visible;"/>
		</clipPath>
		<path class="st3" d="M150.42,91.34L150.42,91.34c0,44.35-36,80.35-80.35,80.35c-44.36,0-80.35-36-80.35-80.35
			s36-80.35,80.35-80.35C114.42,10.98,150.42,46.98,150.42,91.34 M151.72,91.39c0-45.03-36.54-81.58-81.58-81.58
			c-45.03,0-81.58,36.55-81.58,81.58s36.55,81.58,81.58,81.58C115.18,172.97,151.72,136.42,151.72,91.39"/>
		<path class="st4" d="M149.19,91.34L149.19,91.34c0,43.67-35.45,79.12-79.13,79.12S-9.07,135.01-9.07,91.34
			c0-43.68,35.45-79.13,79.13-79.13S149.19,47.66,149.19,91.34 M150.36,91.39c0-44.35-36-80.35-80.35-80.35s-80.35,36-80.35,80.35
			s36,80.35,80.35,80.35S150.36,135.75,150.36,91.39"/>
		<path class="st5" d="M147.96,91.33L147.96,91.33c0,43-34.9,77.9-77.9,77.9c-43,0-77.89-34.9-77.89-77.9s34.9-77.89,77.89-77.89
			C113.06,13.44,147.96,48.33,147.96,91.33 M149.12,91.25c0-43.67-35.44-79.13-79.12-79.13c-43.67,0-79.12,35.45-79.12,79.13
			S26.33,170.37,70,170.37C113.68,170.37,149.12,134.92,149.12,91.25"/>
		<path class="st6" d="M146.73,91.34L146.73,91.34c0,42.32-34.35,76.67-76.67,76.67c-42.32,0-76.67-34.35-76.67-76.67
			c0-42.33,34.35-76.67,76.67-76.67C112.39,14.66,146.73,49.01,146.73,91.34 M147.9,91.39c0-43-34.9-77.9-77.89-77.9
			c-43,0-77.89,34.9-77.89,77.9c0,43,34.89,77.89,77.89,77.89C113,169.29,147.9,134.39,147.9,91.39"/>
		<path class="st7" d="M145.51,91.34L145.51,91.34c0,41.64-33.8,75.44-75.45,75.44c-41.64,0-75.44-33.8-75.44-75.44
			c0-41.65,33.8-75.45,75.44-75.45C111.71,15.89,145.51,49.69,145.51,91.34 M146.82,91.39c0-42.32-34.35-76.67-76.67-76.67
			c-42.33,0-76.67,34.35-76.67,76.67s34.34,76.67,76.67,76.67C112.47,168.06,146.82,133.71,146.82,91.39"/>
		<path class="st8" d="M144.28,91.34L144.28,91.34c0,40.96-33.25,74.22-74.22,74.22c-40.96,0-74.22-33.25-74.22-74.22
			c0-40.97,33.25-74.22,74.22-74.22C111.03,17.11,144.28,50.36,144.28,91.34 M145.44,91.39c0-41.65-33.79-75.44-75.44-75.44
			S-5.44,49.75-5.44,91.39s33.8,75.44,75.45,75.44S145.44,133.04,145.44,91.39"/>
		<path class="st9" d="M143.05,91.33L143.05,91.33c0,40.29-32.7,72.99-72.99,72.99c-40.29,0-72.99-32.7-72.99-72.99
			c0-40.29,32.7-72.99,72.99-72.99C110.36,18.34,143.05,51.04,143.05,91.33 M144.22,91.25c0-40.97-33.25-74.22-74.22-74.22
			c-40.96,0-74.22,33.25-74.22,74.22c0,40.96,33.25,74.22,74.22,74.22C110.97,165.47,144.22,132.22,144.22,91.25"/>
		<path class="st9" d="M141.83,91.34L141.83,91.34c0,39.61-32.15,71.76-71.77,71.76S-1.7,130.95-1.7,91.34
			c0-39.62,32.15-71.76,71.76-71.76S141.83,51.72,141.83,91.34 M143.14,91.39c0-40.29-32.7-72.99-72.99-72.99
			c-40.29,0-72.99,32.7-72.99,72.99s32.7,72.99,72.99,72.99C110.44,164.38,143.14,131.69,143.14,91.39"/>
		<path class="st10" d="M140.6,91.34L140.6,91.34c0,38.94-31.6,70.54-70.54,70.54c-38.93,0-70.53-31.6-70.53-70.54
			S31.13,20.8,70.06,20.8C109,20.8,140.6,52.4,140.6,91.34 M141.91,91.39c0-39.62-32.15-71.76-71.76-71.76
			c-39.62,0-71.77,32.15-71.77,71.76s32.15,71.76,71.77,71.76C109.76,163.16,141.91,131.01,141.91,91.39"/>
		<path class="st11" d="M139.37,91.33L139.37,91.33c0,38.26-31.05,69.31-69.31,69.31S0.75,129.59,0.75,91.33s31.05-69.3,69.32-69.3
			S139.37,53.07,139.37,91.33 M140.54,91.25c0-38.94-31.6-70.54-70.54-70.54c-38.94,0-70.54,31.6-70.54,70.54
			s31.6,70.54,70.54,70.54C108.94,161.79,140.54,130.19,140.54,91.25"/>
		<path class="st12" d="M138.15,91.33L138.15,91.33c0,37.58-30.5,68.08-68.08,68.08S1.97,128.91,1.97,91.33
			c0-37.58,30.51-68.08,68.09-68.08S138.15,53.75,138.15,91.33 M139.31,91.25c0-38.26-31.05-69.31-69.31-69.31
			c-38.26,0-69.31,31.05-69.31,69.31c0,38.26,31.05,69.31,69.31,69.31C108.26,160.56,139.31,129.51,139.31,91.25"/>
		<path class="st13" d="M136.92,91.34L136.92,91.34c0,36.9-29.96,66.86-66.86,66.86c-36.91,0-66.86-29.96-66.86-66.86
			c0-36.91,29.95-66.86,66.86-66.86C106.96,24.48,136.92,54.43,136.92,91.34 M138.23,91.39c0-37.58-30.5-68.08-68.08-68.08
			c-37.59,0-68.09,30.5-68.09,68.08s30.5,68.08,68.09,68.08C107.73,159.48,138.23,128.98,138.23,91.39"/>
		<path class="st14" d="M135.69,91.34L135.69,91.34c0,36.23-29.4,65.63-65.63,65.63S4.44,127.56,4.44,91.34S33.83,25.7,70.06,25.7
			S135.69,55.11,135.69,91.34 M137,91.39c0-36.91-29.95-66.86-66.85-66.86c-36.91,0-66.86,29.95-66.86,66.86
			s29.95,66.86,66.86,66.86C107.05,158.25,137,128.3,137,91.39"/>
		<path class="st15" d="M134.46,91.33L134.46,91.33c0,35.55-28.85,64.4-64.4,64.4c-35.55,0-64.4-28.85-64.4-64.4
			s28.85-64.4,64.4-64.4C105.62,26.93,134.46,55.78,134.46,91.33 M135.63,91.25c0-36.23-29.4-65.63-65.63-65.63
			S4.37,55.02,4.37,91.25s29.4,65.63,65.63,65.63S135.63,127.48,135.63,91.25"/>
		<path class="st16" d="M133.24,91.33L133.24,91.33c0,34.87-28.31,63.17-63.18,63.17S6.89,126.21,6.89,91.33s28.3-63.18,63.17-63.18
			S133.24,56.46,133.24,91.33 M134.41,91.25c0-35.55-28.86-64.4-64.4-64.4c-35.55,0-64.4,28.85-64.4,64.4s28.85,64.4,64.4,64.4
			C105.55,155.66,134.41,126.8,134.41,91.25"/>
		<path class="st17" d="M132.02,91.34L132.02,91.34c0,34.19-27.76,61.95-61.95,61.95c-34.2,0-61.95-27.76-61.95-61.95
			c0-34.2,27.76-61.95,61.95-61.95C104.25,29.38,132.02,57.14,132.02,91.34 M133.32,91.39c0-34.87-28.3-63.17-63.18-63.17
			S6.97,56.52,6.97,91.39s28.3,63.17,63.18,63.17S133.32,126.27,133.32,91.39"/>
		<path class="st18" d="M130.79,91.34L130.79,91.34c0,33.52-27.21,60.72-60.73,60.72S9.34,124.85,9.34,91.34s27.2-60.73,60.72-60.73
			S130.79,57.82,130.79,91.34 M132.09,91.39c0-34.2-27.75-61.95-61.95-61.95C35.95,29.45,8.2,57.2,8.2,91.39
			c0,34.19,27.75,61.95,61.95,61.95C104.34,153.35,132.09,125.58,132.09,91.39"/>
		<path class="st19" d="M129.56,91.33L129.56,91.33c0,32.84-26.65,59.5-59.49,59.5s-59.5-26.66-59.5-59.5s26.66-59.49,59.5-59.49
			S129.56,58.49,129.56,91.33 M130.73,91.25c0-33.52-27.21-60.73-60.73-60.73c-33.51,0-60.71,27.21-60.71,60.73
			s27.2,60.73,60.71,60.73C103.52,151.98,130.73,124.77,130.73,91.25"/>
		<path class="st20" d="M128.33,91.33L128.33,91.33c0,32.17-26.11,58.27-58.27,58.27c-32.16,0-58.27-26.1-58.27-58.27
			c0-32.16,26.11-58.27,58.27-58.27C102.22,33.06,128.33,59.17,128.33,91.33 M129.5,91.25c0-32.85-26.66-59.5-59.5-59.5
			S10.51,58.4,10.51,91.25c0,32.84,26.65,59.5,59.49,59.5S129.5,124.09,129.5,91.25"/>
		<path class="st21" d="M127.11,91.34L127.11,91.34c0,31.49-25.56,57.04-57.05,57.04s-57.04-25.55-57.04-57.04
			c0-31.49,25.55-57.05,57.04-57.05S127.11,59.84,127.11,91.34 M128.42,91.39c0-32.16-26.11-58.27-58.27-58.27
			c-32.17,0-58.27,26.11-58.27,58.27s26.1,58.27,58.27,58.27C102.31,149.66,128.42,123.56,128.42,91.39"/>
		<path class="st22" d="M125.88,91.34L125.88,91.34c0,30.8-25.01,55.81-55.82,55.81c-30.81,0-55.81-25.01-55.81-55.81
			c0-30.82,25.01-55.81,55.81-55.81C100.88,35.52,125.88,60.52,125.88,91.34 M127.19,91.39c0-31.49-25.56-57.04-57.04-57.04
			c-31.49,0-57.04,25.55-57.04,57.04c0,31.49,25.55,57.04,57.04,57.04C101.63,148.43,127.19,122.88,127.19,91.39"/>
		<path class="st23" d="M124.66,91.33L124.66,91.33c0,30.13-24.46,54.59-54.59,54.59s-54.59-24.46-54.59-54.59
			c0-30.14,24.46-54.59,54.59-54.59S124.66,61.19,124.66,91.33 M125.82,91.25c0-30.82-25.01-55.82-55.81-55.82
			c-30.81,0-55.81,25.01-55.81,55.82c0,30.81,25.01,55.81,55.81,55.81C100.81,147.07,125.82,122.06,125.82,91.25"/>
		<path class="st24" d="M123.42,91.33L123.42,91.33c0,29.46-23.91,53.36-53.36,53.36S16.7,120.79,16.7,91.33
			c0-29.45,23.91-53.36,53.36-53.36S123.42,61.88,123.42,91.33 M124.59,91.25c0-30.14-24.46-54.59-54.59-54.59
			S15.41,61.11,15.41,91.25c0,30.13,24.46,54.59,54.59,54.59S124.59,121.38,124.59,91.25"/>
		<path class="st25" d="M122.2,91.34L122.2,91.34c0,28.78-23.36,52.14-52.14,52.14c-28.78,0-52.13-23.36-52.13-52.14
			c0-28.78,23.35-52.14,52.13-52.14C98.84,39.2,122.2,62.55,122.2,91.34 M123.51,91.39c0-29.46-23.91-53.36-53.36-53.36
			c-29.45,0-53.37,23.9-53.37,53.36s23.92,53.36,53.37,53.36C99.6,144.76,123.51,120.85,123.51,91.39"/>
		<path class="st26" d="M120.97,91.34L120.97,91.34c0,28.09-22.8,50.91-50.91,50.91c-28.1,0-50.9-22.82-50.9-50.91
			c0-28.11,22.8-50.91,50.9-50.91C98.16,40.43,120.97,63.23,120.97,91.34 M122.28,91.39c0-28.78-23.36-52.14-52.14-52.14
			S18,62.62,18,91.39s23.36,52.14,52.14,52.14S122.28,120.17,122.28,91.39"/>
		<path class="st27" d="M119.75,91.33L119.75,91.33c0,27.42-22.26,49.68-49.68,49.68s-49.68-22.26-49.68-49.68
			s22.26-49.68,49.68-49.68S119.75,63.91,119.75,91.33 M120.91,91.25c0-28.11-22.81-50.91-50.91-50.91
			c-28.11,0-50.92,22.8-50.92,50.91c0,28.1,22.81,50.91,50.92,50.91C98.1,142.16,120.91,119.35,120.91,91.25"/>
		<path class="st28" d="M118.52,91.33L118.52,91.33c0,26.75-21.71,48.46-48.46,48.46c-26.75,0-48.46-21.71-48.46-48.46
			s21.71-48.46,48.46-48.46C96.81,42.88,118.52,64.59,118.52,91.33 M119.68,91.25c0-27.43-22.25-49.68-49.68-49.68
			c-27.42,0-49.68,22.25-49.68,49.68c0,27.42,22.26,49.68,49.68,49.68C97.43,140.93,119.68,118.67,119.68,91.25"/>
		<path class="st29" d="M117.29,91.34L117.29,91.34c0,26.07-21.16,47.23-47.23,47.23S22.83,117.4,22.83,91.34
			c0-26.07,21.16-47.23,47.23-47.23S117.29,65.26,117.29,91.34 M118.6,91.39c0-26.75-21.71-48.46-48.46-48.46
			c-26.75,0-48.46,21.71-48.46,48.46c0,26.75,21.71,48.46,48.46,48.46C96.9,139.85,118.6,118.14,118.6,91.39"/>
		<path class="st30" d="M116.07,91.34L116.07,91.34c0,25.4-20.61,46-46,46s-46-20.6-46-46s20.61-46,46-46S116.07,65.94,116.07,91.34
			 M117.37,91.39c0-26.07-21.16-47.23-47.22-47.23c-26.07,0-47.23,21.16-47.23,47.23s21.16,47.22,47.23,47.22
			C96.22,138.62,117.37,117.46,117.37,91.39"/>
		<path class="st31" d="M114.84,91.33L114.84,91.33c0,24.71-20.06,44.78-44.78,44.78c-24.71,0-44.77-20.06-44.77-44.78
			s20.06-44.78,44.77-44.78C94.78,46.55,114.84,66.62,114.84,91.33 M116.01,91.25c0-25.4-20.61-46-46-46s-46,20.61-46,46
			c0,25.39,20.6,46,46,46S116.01,116.64,116.01,91.25"/>
		<path class="st32" d="M113.61,91.33L113.61,91.33c0,24.04-19.52,43.55-43.55,43.55c-24.04,0-43.55-19.52-43.55-43.55
			s19.51-43.55,43.55-43.55C94.1,47.79,113.61,67.3,113.61,91.33 M114.78,91.25c0-24.72-20.06-44.78-44.78-44.78
			S25.23,66.53,25.23,91.25c0,24.71,20.05,44.77,44.77,44.77S114.78,115.96,114.78,91.25"/>
		<path class="st33" d="M112.38,91.34L112.38,91.34c0,23.36-18.96,42.32-42.33,42.32c-23.36,0-42.32-18.96-42.32-42.32
			c0-23.36,18.96-42.33,42.32-42.33C93.42,49.01,112.38,67.97,112.38,91.34 M113.69,91.39c0-24.04-19.51-43.55-43.55-43.55
			c-24.04,0-43.55,19.52-43.55,43.55s19.51,43.55,43.55,43.55C94.18,134.94,113.69,115.43,113.69,91.39"/>
		<path class="st34" d="M111.16,91.34L111.16,91.34c0,22.69-18.41,41.09-41.1,41.09c-22.68,0-41.09-18.41-41.09-41.09
			s18.41-41.1,41.09-41.1C92.75,50.24,111.16,68.65,111.16,91.34 M112.47,91.39c0-23.36-18.96-42.32-42.32-42.32
			S27.82,68.03,27.82,91.39s18.96,42.32,42.33,42.32S112.47,114.76,112.47,91.39"/>
		<path class="st35" d="M109.93,91.33L109.93,91.33c0,22.01-17.86,39.87-39.87,39.87S30.2,113.34,30.2,91.33
			s17.86-39.87,39.87-39.87S109.93,69.32,109.93,91.33 M111.1,91.25c0-22.69-18.41-41.1-41.1-41.1c-22.68,0-41.09,18.41-41.09,41.1
			S47.32,132.34,70,132.34C92.69,132.34,111.1,113.94,111.1,91.25"/>
		<path class="st36" d="M108.7,91.33L108.7,91.33c0,21.33-17.31,38.65-38.64,38.65s-38.64-17.31-38.64-38.65
			s17.31-38.64,38.64-38.64S108.7,70,108.7,91.33 M109.87,91.25c0-22.01-17.86-39.87-39.87-39.87c-22,0-39.87,17.86-39.87,39.87
			S48,131.12,70,131.12C92.01,131.12,109.87,113.26,109.87,91.25"/>
		<path class="st37" d="M107.48,91.34L107.48,91.34c0,20.65-16.76,37.41-37.42,37.41c-20.65,0-37.41-16.77-37.41-37.41
			c0-20.65,16.77-37.42,37.41-37.42C90.72,53.92,107.48,70.68,107.48,91.34 M108.79,91.39c0-21.33-17.32-38.65-38.65-38.65
			c-21.33,0-38.64,17.31-38.64,38.65s17.31,38.65,38.64,38.65C91.47,130.04,108.79,112.73,108.79,91.39"/>
		<path class="st38" d="M106.25,91.34L106.25,91.34c0,19.98-16.2,36.18-36.19,36.18c-19.97,0-36.19-16.2-36.19-36.18
			s16.22-36.19,36.19-36.19C90.04,55.15,106.25,71.36,106.25,91.34 M107.42,91.39c0-20.65-16.77-37.41-37.42-37.41
			S32.59,70.74,32.59,91.39S49.35,128.81,70,128.81S107.42,112.05,107.42,91.39"/>
		<path class="st39" d="M105.03,91.33L105.03,91.33c0,19.3-15.67,34.96-34.97,34.96S35.1,110.63,35.1,91.33s15.66-34.96,34.96-34.96
			S105.03,72.03,105.03,91.33 M106.19,91.25c0-19.98-16.22-36.19-36.19-36.19c-19.97,0-36.19,16.22-36.19,36.19
			S50.03,127.44,70,127.44C89.98,127.44,106.19,111.23,106.19,91.25"/>
		<path class="st40" d="M103.8,91.34L103.8,91.34c0,18.62-15.11,33.74-33.74,33.74s-33.74-15.12-33.74-33.74
			c0-18.62,15.11-33.74,33.74-33.74S103.8,72.71,103.8,91.34 M104.96,91.39c0-19.29-15.66-34.96-34.96-34.96S35.04,72.1,35.04,91.39
			S50.7,126.36,70,126.36S104.96,110.69,104.96,91.39"/>
		<path class="st41" d="M102.57,91.34L102.57,91.34c0,17.94-14.56,32.51-32.51,32.51c-17.95,0-32.5-14.57-32.5-32.51
			c0-17.95,14.56-32.51,32.5-32.51C88.01,58.83,102.57,73.38,102.57,91.34 M103.88,91.39c0-18.62-15.11-33.74-33.74-33.74
			S36.41,72.77,36.41,91.39s15.11,33.74,33.74,33.74S103.88,110.02,103.88,91.39"/>
		<path class="st42" d="M101.34,91.34L101.34,91.34c0,17.26-14.01,31.28-31.28,31.28c-17.27,0-31.28-14.02-31.28-31.28
			c0-17.27,14.01-31.28,31.28-31.28C87.33,60.05,101.34,74.07,101.34,91.34 M102.51,91.39c0-17.95-14.56-32.51-32.51-32.51
			S37.5,73.45,37.5,91.39S52.05,123.9,70,123.9S102.51,109.34,102.51,91.39"/>
		<path class="st43" d="M100.12,91.33L100.12,91.33c0,16.59-13.47,30.06-30.06,30.06s-30.05-13.47-30.05-30.06
			s13.46-30.06,30.05-30.06S100.12,74.74,100.12,91.33 M101.28,91.25c0-17.27-14.02-31.28-31.28-31.28S38.72,73.98,38.72,91.25
			c0,17.27,14.02,31.28,31.28,31.28S101.28,108.52,101.28,91.25"/>
		<path class="st44" d="M98.89,91.34L98.89,91.34c0,15.91-12.91,28.83-28.83,28.83c-15.91,0-28.82-12.92-28.82-28.83
			c0-15.91,12.92-28.83,28.82-28.83C85.98,62.51,98.89,75.42,98.89,91.34 M100.06,91.39c0-16.59-13.47-30.06-30.06-30.06
			S39.95,74.8,39.95,91.39S53.41,121.45,70,121.45S100.06,107.98,100.06,91.39"/>
		<path class="st45" d="M97.66,91.34L97.66,91.34c0,15.24-12.36,27.6-27.6,27.6c-15.24,0-27.6-12.36-27.6-27.6
			c0-15.24,12.37-27.6,27.6-27.6C85.3,63.73,97.66,76.1,97.66,91.34 M98.98,91.39c0-15.91-12.92-28.83-28.83-28.83
			S41.32,75.48,41.32,91.39s12.92,28.83,28.83,28.83S98.98,107.31,98.98,91.39"/>
		<path class="st46" d="M96.44,91.34L96.44,91.34c0,14.56-11.82,26.37-26.38,26.37c-14.56,0-26.38-11.81-26.38-26.37
			S55.5,64.96,70.06,64.96C84.62,64.96,96.44,76.78,96.44,91.34 M97.6,91.39c0-15.24-12.36-27.6-27.6-27.6
			c-15.24,0-27.6,12.36-27.6,27.6S54.77,119,70,119C85.24,119,97.6,106.63,97.6,91.39"/>
		<path class="st47" d="M95.21,91.33L95.21,91.33c0,13.88-11.26,25.15-25.15,25.15c-13.88,0-25.15-11.27-25.15-25.15
			s11.27-25.15,25.15-25.15C83.95,66.18,95.21,77.45,95.21,91.33 M96.38,91.25c0-14.56-11.81-26.38-26.38-26.38
			c-14.56,0-26.37,11.82-26.37,26.38S55.44,117.63,70,117.63C84.57,117.63,96.38,105.81,96.38,91.25"/>
		<path class="st48" d="M93.98,91.34L93.98,91.34c0,13.2-10.72,23.92-23.92,23.92c-13.2,0-23.92-10.72-23.92-23.92
			c0-13.21,10.72-23.92,23.92-23.92C83.27,67.41,93.98,78.13,93.98,91.34 M95.15,91.39c0-13.88-11.27-25.15-25.15-25.15
			S44.86,77.51,44.86,91.39S56.12,116.54,70,116.54S95.15,105.27,95.15,91.39"/>
		<path class="st49" d="M92.76,91.34L92.76,91.34c0,12.53-10.17,22.69-22.7,22.69s-22.69-10.17-22.69-22.69
			c0-12.53,10.17-22.7,22.69-22.7S92.76,78.8,92.76,91.34 M94.06,91.39c0-13.21-10.71-23.92-23.91-23.92
			c-13.21,0-23.92,10.71-23.92,23.92c0,13.2,10.72,23.92,23.92,23.92C83.35,115.31,94.06,104.6,94.06,91.39"/>
		<path class="st50" d="M91.53,91.34L91.53,91.34c0,11.85-9.62,21.47-21.47,21.47c-11.85,0-21.47-9.61-21.47-21.47
			c0-11.85,9.62-21.47,21.47-21.47C81.91,69.86,91.53,79.48,91.53,91.34 M92.69,91.39C92.69,78.87,82.53,68.7,70,68.7
			c-12.53,0-22.69,10.17-22.69,22.69S57.48,114.09,70,114.09C82.53,114.09,92.69,103.92,92.69,91.39"/>
		<path class="st51" d="M90.31,91.33L90.31,91.33c0,11.17-9.07,20.24-20.25,20.24c-11.17,0-20.24-9.07-20.24-20.24
			c0-11.18,9.07-20.25,20.24-20.25C81.24,71.09,90.31,80.16,90.31,91.33 M91.47,91.25c0-11.85-9.61-21.47-21.47-21.47
			c-11.85,0-21.47,9.62-21.47,21.47c0,11.85,9.62,21.47,21.47,21.47C81.86,112.72,91.47,103.1,91.47,91.25"/>
		<path class="st52" d="M89.08,91.34L89.08,91.34c0,10.49-8.52,19.01-19.02,19.01c-10.49,0-19.01-8.52-19.01-19.01
			c0-10.49,8.52-19.01,19.01-19.01C80.56,72.32,89.08,80.84,89.08,91.34 M90.24,91.39c0-11.17-9.07-20.25-20.24-20.25
			s-20.25,9.07-20.25,20.25s9.07,20.25,20.25,20.25S90.24,102.56,90.24,91.39"/>
		<path class="st53" d="M87.85,91.34L87.85,91.34c0,9.82-7.97,17.79-17.79,17.79s-17.79-7.97-17.79-17.79
			c0-9.82,7.97-17.79,17.79-17.79S87.85,81.51,87.85,91.34 M89.16,91.39c0-10.5-8.53-19.02-19.01-19.02
			c-10.5,0-19.01,8.52-19.01,19.02s8.51,19.02,19.01,19.02C80.64,110.41,89.16,101.89,89.16,91.39"/>
		<path class="st54" d="M86.62,91.33L86.62,91.33c0,9.14-7.42,16.56-16.56,16.56c-9.13,0-16.56-7.42-16.56-16.56
			c0-9.14,7.43-16.56,16.56-16.56C79.21,74.77,86.62,82.19,86.62,91.33 M87.79,91.25c0-9.82-7.97-17.79-17.79-17.79
			c-9.82,0-17.79,7.97-17.79,17.79c0,9.82,7.97,17.79,17.79,17.79C79.82,109.04,87.79,101.07,87.79,91.25"/>
		<path class="st55" d="M85.4,91.33L85.4,91.33c0,8.46-6.87,15.34-15.34,15.34c-8.46,0-15.33-6.88-15.33-15.34
			C54.72,82.86,61.6,76,70.06,76C78.53,76,85.4,82.86,85.4,91.33 M86.57,91.25c0-9.14-7.43-16.57-16.57-16.57
			s-16.56,7.42-16.56,16.57c0,9.14,7.42,16.56,16.56,16.56S86.57,100.39,86.57,91.25"/>
		<path class="st56" d="M84.17,91.34L84.17,91.34c0,7.78-6.32,14.11-14.11,14.11s-14.1-6.32-14.1-14.11
			c0-7.79,6.31-14.11,14.1-14.11S84.17,83.55,84.17,91.34 M85.48,91.39c0-8.46-6.87-15.33-15.33-15.33s-15.33,6.87-15.33,15.33
			s6.87,15.33,15.33,15.33S85.48,99.86,85.48,91.39"/>
		<path class="st57" d="M82.94,91.34L82.94,91.34c0,7.11-5.78,12.88-12.88,12.88s-12.88-5.78-12.88-12.88
			c0-7.11,5.77-12.88,12.88-12.88S82.94,84.23,82.94,91.34 M84.25,91.39c0-7.79-6.32-14.11-14.1-14.11
			c-7.79,0-14.11,6.32-14.11,14.11s6.32,14.11,14.11,14.11C77.93,105.5,84.25,99.18,84.25,91.39"/>
		<path class="st58" d="M81.71,91.33L81.71,91.33c0,6.44-5.22,11.65-11.65,11.65c-6.44,0-11.66-5.21-11.66-11.65
			c0-6.43,5.22-11.66,11.66-11.66C76.49,79.68,81.71,84.9,81.71,91.33 M82.88,91.25c0-7.11-5.77-12.88-12.88-12.88
			s-12.88,5.78-12.88,12.88c0,7.11,5.76,12.88,12.88,12.88S82.88,98.36,82.88,91.25"/>
		<path class="st59" d="M80.49,91.33L80.49,91.33c0,5.76-4.67,10.42-10.43,10.42c-5.75,0-10.42-4.67-10.42-10.42
			c0-5.76,4.67-10.43,10.42-10.43C75.82,80.9,80.49,85.57,80.49,91.33 M81.66,91.25c0-6.44-5.23-11.66-11.66-11.66
			s-11.65,5.22-11.65,11.66c0,6.44,5.22,11.65,11.65,11.65S81.66,97.69,81.66,91.25"/>
		<path class="st60" d="M79.26,91.34L79.26,91.34c0,5.07-4.13,9.2-9.2,9.2c-5.08,0-9.2-4.12-9.2-9.2c0-5.08,4.12-9.2,9.2-9.2
			C75.14,82.13,79.26,86.25,79.26,91.34 M80.57,91.39c0-5.76-4.67-10.43-10.42-10.43c-5.76,0-10.44,4.67-10.44,10.43
			c0,5.75,4.68,10.43,10.44,10.43C75.9,101.82,80.57,97.15,80.57,91.39"/>
		<path class="st61" d="M78.04,91.34L78.04,91.34c0,4.4-3.57,7.97-7.98,7.97s-7.98-3.57-7.98-7.97c0-4.4,3.57-7.97,7.98-7.97
			S78.04,86.93,78.04,91.34 M79.35,91.39c0-5.08-4.12-9.2-9.2-9.2c-5.08,0-9.2,4.12-9.2,9.2c0,5.08,4.12,9.2,9.2,9.2
			C75.22,100.6,79.35,96.47,79.35,91.39"/>
		<path class="st62" d="M76.81,91.33L76.81,91.33c0,3.73-3.02,6.75-6.75,6.75c-3.72,0-6.74-3.02-6.74-6.75s3.02-6.74,6.74-6.74
			C73.79,84.59,76.81,87.61,76.81,91.33 M77.98,91.25c0-4.4-3.58-7.98-7.98-7.98c-4.4,0-7.98,3.58-7.98,7.98
			c0,4.4,3.57,7.97,7.98,7.97C74.4,99.22,77.98,95.65,77.98,91.25"/>
		<path class="st63" d="M75.58,91.33L75.58,91.33c0,3.05-2.48,5.52-5.52,5.52c-3.05,0-5.52-2.48-5.52-5.52
			c0-3.05,2.48-5.52,5.52-5.52C73.1,85.81,75.58,88.28,75.58,91.33 M76.75,91.25c0-3.73-3.02-6.75-6.74-6.75
			c-3.73,0-6.75,3.02-6.75,6.75c0,3.73,3.02,6.74,6.75,6.74C73.72,98,76.75,94.98,76.75,91.25"/>
		<path class="st64" d="M74.35,91.34L74.35,91.34c0,2.37-1.92,4.29-4.29,4.29s-4.3-1.92-4.3-4.29s1.93-4.3,4.3-4.3
			S74.35,88.96,74.35,91.34 M75.66,91.39c0-3.05-2.47-5.52-5.51-5.52c-3.05,0-5.52,2.48-5.52,5.52c0,3.05,2.47,5.52,5.52,5.52
			C73.19,96.91,75.66,94.44,75.66,91.39"/>
		<path class="st65" d="M73.13,91.34L73.13,91.34c0,1.69-1.37,3.07-3.07,3.07c-1.69,0-3.07-1.37-3.07-3.07
			c0-1.69,1.38-3.07,3.07-3.07C71.76,88.26,73.13,89.64,73.13,91.34 M74.44,91.39c0-2.37-1.92-4.29-4.29-4.29s-4.3,1.92-4.3,4.29
			c0,2.37,1.93,4.29,4.3,4.29S74.44,93.76,74.44,91.39"/>
		<path class="st66" d="M71.9,91.33L71.9,91.33c0,1.02-0.83,1.84-1.85,1.84c-1.02,0-1.83-0.82-1.83-1.84c0-1.02,0.82-1.84,1.83-1.84
			C71.08,89.49,71.9,90.32,71.9,91.33 M73.07,91.25c0-1.69-1.37-3.07-3.07-3.07s-3.07,1.38-3.07,3.07c0,1.69,1.37,3.07,3.07,3.07
			S73.07,92.94,73.07,91.25"/>
		<path class="st67" d="M70.68,91.33L70.68,91.33c0,0.34-0.28,0.61-0.62,0.61c-0.34,0-0.61-0.27-0.61-0.61
			c0-0.34,0.27-0.61,0.61-0.61C70.4,90.72,70.68,90.99,70.68,91.33 M71.84,91.25c0-1.02-0.82-1.85-1.84-1.85
			c-1.02,0-1.84,0.83-1.84,1.85c0,1.02,0.82,1.83,1.84,1.83C71.02,93.08,71.84,92.27,71.84,91.25"/>
		<path class="st68" d="M70.76,91.39c0-0.34-0.27-0.61-0.61-0.61s-0.61,0.27-0.61,0.61c0,0.34,0.27,0.61,0.61,0.61
			S70.76,91.73,70.76,91.39"/>
		<polygon class="st69" points="171.96,105.1 171.96,196.51 -35.01,196.51 -35.01,118.14 20.65,76.4 52.82,101.62 105,56.4 		"/>
	</g>
	<polygon class="st2" points="249.36,162.91 235.47,140.68 226.48,145.63 244.07,172.15 243.76,193.71 254.04,193.71 254.35,171.85 
		272.47,145.56 263.79,140.68 	"/>
	<polygon class="st2" points="294.74,141.73 294.2,193.71 323.15,193.71 323.15,185.44 304.25,185.44 304.33,171.18 322.84,171.18 
		322.84,163.36 304.41,163.36 304.56,149.99 323.15,149.99 323.15,141.73 	"/>
	<polygon class="st2" points="330.1,143.38 329.64,193.7 339.47,193.7 338.7,155.33 338.85,155.17 363.04,194.76 372.94,192.06 
		373.4,141.73 363.57,141.73 364.19,180.48 364.03,180.48 339.24,140.68 	"/>
	<polygon class="st2" points="382.66,141.73 382.12,193.71 411.06,193.71 411.06,185.44 392.18,185.44 392.25,171.18 410.75,171.18 
		410.75,163.36 392.33,163.36 392.49,149.99 411.06,149.99 411.06,141.73 	"/>
	<g>
		<path class="st2" d="M427.85,165.09l0.16-15.54h5.68c4.99,0,8.98,2.55,8.98,7.5c0,6.77-5.83,8.04-8.75,8.04H427.85z
			 M417.56,193.71h10.06l0.08-20.81h3.07c1.46,0,2.61,0.53,3.53,1.8l14.74,20.06l8.75-5.11l-15.12-19.38
			c6.23-2.18,10.29-6.91,10.29-13.52c0-8.26-5.22-15.03-18.04-15.03H418.1L417.56,193.71z"/>
		<path class="st2" d="M495.83,185.6c-2.08,0.82-4.68,1.35-7.52,1.35c-10.98,0-18.2-7.89-18.2-19.23c0-12.09,9.29-19.23,18.2-19.23
			c5.37,0,9.59,1.35,13.58,3.22l3.61-7.21c-4.45-2.4-10.37-3.82-17.19-3.82c-15.82,0-28.49,11.87-28.49,27.04
			c0,15.77,12.36,27.04,28.49,27.04c5.83,0,11.98-1.51,17.81-3.76l0.39-23.66h-10.29L495.83,185.6z"/>
	</g>
	<polygon class="st2" points="514.14,141.73 513.69,193.71 523.51,193.71 523.97,141.73 	"/>
	<path class="st2" d="M552.57,151.8h0.15l6.14,20.28h-12.97L552.57,151.8z M548.35,141.73l-20.43,50.33l9.14,2.71l5.99-14.87h18.5
		l5.22,14.87l9.6-2.71l-18.96-50.33H548.35z"/>
	<polygon class="st2" points="229.6,119.24 239.05,120.3 244.58,79.29 244.73,79.29 256.94,119.24 267.07,119.24 280.58,79.29 
		280.74,79.29 284.73,120.3 294.71,119.24 286.88,67.27 276.82,67.27 262.08,108.81 261.93,108.81 249.03,67.27 238.97,67.27 	"/>
	<polygon class="st2" points="300.56,119.24 310.38,119.24 310.84,67.27 301.02,67.27 	"/>
	<polygon class="st2" points="318.84,119.24 328.67,119.24 327.9,80.86 328.05,80.71 352.24,120.3 362.14,117.59 362.6,67.27 
		352.78,67.27 353.39,106.02 353.23,106.02 328.44,66.21 319.3,68.92 	"/>
	<polygon class="st2" points="370.9,119.24 399.85,119.24 399.85,110.98 380.96,110.98 381.04,96.71 399.54,96.71 399.54,88.89 
		381.12,88.89 381.27,75.53 399.85,75.53 399.85,67.27 371.44,67.27 	"/>
	<g>
		<path class="st2" d="M416.22,90.63l0.15-15.55h5.69c4.99,0,8.98,2.56,8.98,7.51c0,6.76-5.83,8.04-8.75,8.04H416.22z
			 M405.93,119.24h10.06l0.08-20.81h3.07c1.46,0,2.61,0.53,3.53,1.8l14.74,20.06l8.75-5.11l-15.12-19.38
			c6.23-2.18,10.29-6.91,10.29-13.52c0-8.26-5.21-15.02-18.04-15.02h-16.81L405.93,119.24z"/>
	</g>
	<polygon class="st2" points="449.17,119.24 459,119.24 459.46,67.27 449.63,67.27 	"/>
	<path class="st2" d="M493.94,97.62h-12.98l6.67-20.29h0.15L493.94,97.62z M478.12,105.42h18.5l5.23,14.87l9.59-2.71l-18.96-50.32
		h-9.06L463,117.59l9.14,2.71L478.12,105.42z"/>
	<g>
		<path class="st2" d="M543.16,91.08l0.15-16h5.23c7.14,0,8.98,4.81,8.98,7.96c0,4.88-4.06,8.04-9.36,8.04H543.16z M532.87,119.24
			h10.07L543,98.88h5.44c10.3,0,19.35-5.1,19.35-15.77c0-9.69-5.53-15.84-19.42-15.84h-14.97L532.87,119.24z"/>
	</g>
	<polygon class="st2" points="572.18,119.24 601.13,119.24 601.13,110.98 582.25,110.98 582.32,96.71 600.82,96.71 600.82,88.89 
		582.4,88.89 582.55,75.53 601.13,75.53 601.13,67.27 572.73,67.27 	"/>
	<polygon class="st2" points="617.51,119.24 627.34,119.24 627.72,75.53 642.38,75.53 642.46,67.27 603.07,67.27 602.99,75.53 
		617.89,75.53 	"/>
	<g>
		<path class="st2" d="M656.82,90.63l0.15-15.55h5.69c4.99,0,8.98,2.56,8.98,7.51c0,6.76-5.83,8.04-8.75,8.04H656.82z
			 M646.53,119.24h10.06l0.09-20.81h3.07c1.46,0,2.6,0.53,3.52,1.8l14.74,20.06l8.75-5.11l-15.12-19.38
			c6.22-2.18,10.28-6.91,10.28-13.52c0-8.26-5.22-15.02-18.04-15.02h-16.81L646.53,119.24z"/>
		<path class="st2" d="M687.7,93.25c0,15.78,12.36,27.05,28.49,27.05s28.49-11.87,28.49-27.05c0-15.17-11.29-27.04-28.49-27.04
			C700.37,66.22,687.7,78.08,687.7,93.25 M697.99,93.25c0-12.09,9.29-19.22,18.2-19.22c10.98,0,18.19,8.18,18.19,19.22
			c0,10.3-7.21,19.23-18.19,19.23C705.2,112.48,697.99,104.59,697.99,93.25"/>
	</g>
	<polygon class="st2" points="751.12,119.24 781.75,119.24 781.75,110.98 760.94,110.98 761.4,67.27 751.57,67.27 	"/>
	<polygon class="st2" points="785.61,119.24 814.55,119.24 814.55,110.98 795.67,110.98 795.75,96.71 814.25,96.71 814.25,88.89 
		795.82,88.89 795.97,75.53 814.55,75.53 814.55,67.27 786.15,67.27 	"/>
	<g>
		<path class="st2" d="M818.26,93.25c0,15.78,12.36,27.05,28.48,27.05c16.12,0,28.49-11.87,28.49-27.05
			c0-15.17-11.29-27.04-28.49-27.04C830.93,66.22,818.26,78.08,818.26,93.25 M828.56,93.25c0-12.09,9.28-19.22,18.18-19.22
			c10.98,0,18.2,8.18,18.2,19.22c0,10.3-7.22,19.23-18.2,19.23C835.77,112.48,828.56,104.59,828.56,93.25"/>
		<path class="st2" d="M231.18,40.57c3.3,1.89,6.88,2.95,10.69,2.95c7.61,0,13.02-5.06,13.02-11.63c0-12.29-16.49-9.9-16.49-17.46
			c0-3.46,3.13-5.17,6.42-5.17c2.84,0,5.06,1.28,7.45,2.56l3.08-5.12c-3.35-1.89-7.17-3.22-11.1-3.22c-7.9,0-13.13,4.89-13.13,11.17
			c0,13.13,16.09,9.85,16.15,17.52c0,3.06-2.28,5.57-6.31,5.57c-2.17,0-5.12-1.4-6.94-2.62L231.18,40.57z"/>
		<path class="st2" d="M270.2,28.94c0-3.9,1.59-9.57,6.76-9.57c4.67,0,6.77,3.73,6.77,9.57c0,3.9-1.77,9.12-6.77,9.12
			C271.79,38.06,270.2,32.33,270.2,28.94 M263.26,28.72c0,7.95,4.38,14.79,13.71,14.79c8.64,0,13.7-6.84,13.7-14.79
			c0-8.29-4.61-14.79-13.7-14.79C268.55,13.93,263.26,21.32,263.26,28.72"/>
		<path class="st2" d="M317.85,34.62c-1.59,1.61-3.29,3.11-5.85,3.11c-3.47,0-6.14-3.28-6.14-9.17c0-4.29,2.16-8.85,6.48-8.85
			c2.45,0,4.04,1.28,5.8,2.67l3.92-3.73c-2.56-2.77-5.8-4.72-10.01-4.72c-8.53,0-13.47,7.51-13.47,15.24
			c0,6.79,4.26,14.35,12.44,14.35c4.55,0,7.91-2,10.69-5.34L317.85,34.62z"/>
	</g>
	<path class="st2" d="M329.97,10.81h6.94l0.06-6.57h-6.94L329.97,10.81z M329.68,42.74h6.94l0.29-28.04h-6.94L329.68,42.74z"/>
	<g>
		<path class="st2" d="M354.31,24.77c0.28-2.79,2.67-6.07,5.79-6.07c3.64,0,5.07,3.06,5.23,6.07H354.31z M371.93,29.55
			c0-9.79-3.75-15.63-11.83-15.63c-8.35,0-13.07,7.45-13.07,14.91c0,8.79,5.23,14.68,12.51,14.68c4.65,0,8.64-2.22,11.65-5.51
			l-3.98-3.56c-1.77,1.83-3.92,3.61-6.65,3.61c-4.78,0-6.54-4.67-6.6-8.51H371.93z"/>
		<path class="st2" d="M397.98,33.22c-0.4,2.39-2.84,4.4-5,4.4c-3.98,0-6.88-3.68-6.88-8.85c0-5.45,3.3-8.96,7.06-8.96
			c2.38,0,3.97,1.4,4.82,2.56V33.22z M398.38,42.74h6.65l0.18-41.72h-6.94L398.1,16.7h-0.11c-1.59-2-4.15-2.67-6.37-2.67
			c-8.01,0-12.44,7.5-12.44,15.07c0,8.34,5,14.3,11.99,14.3c2.9,0,5.68-1.62,7.11-3.73h0.11V42.74z"/>
		<path class="st2" d="M429.32,35.79c-1.65,1.72-3.52,2.61-4.94,2.61c-2.16,0-3.64-1.22-3.64-3.28c0-2.84,2.1-4.4,8.7-5.85
			L429.32,35.79z M418.75,23.21c4.32-3.28,6.03-3.84,7.45-3.84c1.94,0,3.3,0.62,3.3,3.73v1.83c-12.39,2-15.35,5.9-15.35,10.4
			c0,5.01,3.47,8.18,8.58,8.18c2.73,0,5.3-1.39,7.34-3.72c0.51,2.33,2.5,3.72,4.94,3.72c1.31,0,2.96-0.33,5.97-2.28l-1.65-3.39
			c-1.19,0.55-1.71,0.72-2.04,0.72c-0.74,0-1.54-1.12-1.54-2.67c0-1.17,0.05-2.22,0.11-3.5l0.23-8.06c0.06-0.73,0.06-1.34,0.06-2.34
			c0-5.45-3.92-8.06-8.18-8.06c-3.07,0-6.26,0.66-12.51,5.68L418.75,23.21z"/>
		<path class="st2" d="M465.45,33.22c-0.4,2.39-2.85,4.4-5,4.4c-3.98,0-6.88-3.68-6.88-8.85c0-5.45,3.3-8.96,7.05-8.96
			c2.39,0,3.98,1.4,4.83,2.56V33.22z M465.84,42.74h6.65l0.18-41.72h-6.94l-0.17,15.69h-0.12c-1.59-2-4.15-2.67-6.37-2.67
			c-8.02,0-12.45,7.5-12.45,15.07c0,8.34,5,14.3,12,14.3c2.89,0,5.68-1.62,7.1-3.73h0.11V42.74z"/>
	</g>
	<polygon class="st2" points="504.01,5.47 503.67,42.74 510.95,42.74 510.37,14.32 510.49,14.2 528.4,43.51 535.73,41.51 
		536.06,4.24 528.79,4.24 529.24,32.95 529.14,32.95 510.77,3.47 	"/>
	<g>
		<path class="st2" d="M561.05,35.79c-1.65,1.72-3.52,2.61-4.95,2.61c-2.15,0-3.64-1.22-3.64-3.28c0-2.84,2.11-4.4,8.71-5.85
			L561.05,35.79z M550.47,23.21c4.33-3.28,6.03-3.84,7.46-3.84c1.93,0,3.29,0.62,3.29,3.73v1.83c-12.39,2-15.35,5.9-15.35,10.4
			c0,5.01,3.47,8.18,8.58,8.18c2.74,0,5.3-1.39,7.35-3.72c0.51,2.33,2.49,3.72,4.95,3.72c1.31,0,2.95-0.33,5.97-2.28l-1.65-3.39
			c-1.19,0.55-1.71,0.72-2.04,0.72c-0.75,0-1.54-1.12-1.54-2.67c0-1.17,0.06-2.22,0.12-3.5l0.22-8.06c0.06-0.73,0.06-1.34,0.06-2.34
			c0-5.45-3.92-8.06-8.19-8.06c-3.07,0-6.25,0.66-12.51,5.68L550.47,23.21z"/>
		<path class="st2" d="M597.62,34.62c-1.59,1.61-3.29,3.11-5.85,3.11c-3.47,0-6.14-3.28-6.14-9.17c0-4.29,2.15-8.85,6.48-8.85
			c2.44,0,4.04,1.28,5.79,2.67l3.93-3.73c-2.56-2.77-5.8-4.72-10-4.72c-8.53,0-13.48,7.51-13.48,15.24
			c0,6.79,4.26,14.35,12.46,14.35c4.55,0,7.9-2,10.69-5.34L597.62,34.62z"/>
	</g>
	<path class="st2" d="M609.75,10.81h6.93l0.06-6.57h-6.94L609.75,10.81z M609.47,42.74h6.93l0.28-28.04h-6.93L609.47,42.74z"/>
	<g>
		<path class="st2" d="M633.74,28.94c0-3.9,1.59-9.57,6.76-9.57c4.67,0,6.78,3.73,6.78,9.57c0,3.9-1.76,9.12-6.78,9.12
			C635.33,38.06,633.74,32.33,633.74,28.94 M626.8,28.72c0,7.95,4.38,14.79,13.69,14.79c8.65,0,13.71-6.84,13.71-14.79
			c0-8.29-4.61-14.79-13.71-14.79C632.08,13.93,626.8,21.32,626.8,28.72"/>
		<path class="st2" d="M663.77,42.74h6.93l0.12-19.02c1.76-1.67,4.15-3.68,6.31-3.68c2.9,0,3.75,1.23,3.75,4.67
			c0,3.35-0.05,6.68-0.11,11.01l-0.06,7.01h6.93l0.18-14.07c0-1.78,0.06-3.5,0.06-6.29c0-4.33-1.6-8.45-7.62-8.45
			c-3.81,0-7.05,1.72-9.27,4.17h-0.11V14.7h-6.83L663.77,42.74z"/>
		<path class="st2" d="M712.27,35.79c-1.65,1.72-3.52,2.61-4.94,2.61c-2.17,0-3.64-1.22-3.64-3.28c0-2.84,2.1-4.4,8.7-5.85
			L712.27,35.79z M701.7,23.21c4.31-3.28,6.02-3.84,7.44-3.84c1.94,0,3.29,0.62,3.29,3.73v1.83c-12.39,2-15.33,5.9-15.33,10.4
			c0,5.01,3.46,8.18,8.58,8.18c2.73,0,5.28-1.39,7.33-3.72c0.51,2.33,2.51,3.72,4.95,3.72c1.31,0,2.96-0.33,5.97-2.28l-1.64-3.39
			c-1.2,0.55-1.71,0.72-2.06,0.72c-0.74,0-1.54-1.12-1.54-2.67c0-1.17,0.06-2.22,0.12-3.5l0.23-8.06c0.06-0.73,0.06-1.34,0.06-2.34
			c0-5.45-3.92-8.06-8.19-8.06c-3.07,0-6.25,0.66-12.51,5.68L701.7,23.21z"/>
	</g>
	<polygon class="st2" points="732.08,1.02 731.74,42.74 738.68,42.74 739.02,1.02 	"/>
	<g>
		<path class="st2" d="M787.41,33.22c-0.41,2.39-2.84,4.4-5,4.4c-3.98,0-6.88-3.68-6.88-8.85c0-5.45,3.29-8.96,7.05-8.96
			c2.39,0,3.98,1.4,4.84,2.56V33.22z M787.79,42.74h6.66l0.16-41.72h-6.93l-0.18,15.69h-0.11c-1.61-2-4.15-2.67-6.38-2.67
			c-8.01,0-12.44,7.5-12.44,15.07c0,8.34,5,14.3,11.99,14.3c2.9,0,5.69-1.62,7.11-3.73h0.11V42.74z"/>
		<path class="st2" d="M811.18,24.77c0.29-2.79,2.66-6.07,5.8-6.07c3.64,0,5.06,3.06,5.23,6.07H811.18z M828.8,29.55
			c0-9.79-3.75-15.63-11.82-15.63c-8.36,0-13.07,7.45-13.07,14.91c0,8.79,5.22,14.68,12.5,14.68c4.67,0,8.64-2.22,11.66-5.51
			l-3.98-3.56c-1.76,1.83-3.92,3.61-6.66,3.61c-4.77,0-6.53-4.67-6.59-8.51H828.8z"/>
	</g>
</g>
</svg>
