<svg id="Layer_1" data-name="Layer 1" xmlns="http://www.w3.org/2000/svg" viewBox="0 0 67.53 112.3"><defs><style>.cls-1{fill:#fff;}</style></defs><path class="cls-1" d="M39.65,0c1.6.32,3.23.56,4.82,1C56.68,4.21,65.86,15.54,67.29,29.11a33.67,33.67,0,0,1,.2,3.48c0,15.86.1,31.72,0,47.58C67.31,95.69,56,109.54,41.81,111.56c-6.26.88-12.66,1.2-18.85-.36-11.42-2.89-18.54-10.92-21.74-23A34,34,0,0,1,.16,79.88C.06,63.8-.17,47.72.21,31.65.52,18.44,6.37,8.6,17.47,2.73A23.84,23.84,0,0,1,26.17.19,7.38,7.38,0,0,0,27,0ZM31.79,4.35c-1.24,0-2.34,0-3.44,0A22.85,22.85,0,0,0,12.8,11.12C6.75,17,4.06,24.59,4,33.33Q4,56,4,78.71A31.48,31.48,0,0,0,5.78,89.63c3.7,10.1,10.36,16.43,20.4,17.75,4.5.59,9.12.18,13.68.16a12.07,12.07,0,0,0,2.78-.47c12.43-3,20.84-14.32,20.91-28.25q.11-22.8,0-45.6c0-12.2-6.57-22.58-16.83-27A24.09,24.09,0,0,0,35.78,4.37Z"/><circle class="cls-1" cx="33.81" cy="27.97" r="6.18"/></svg>