<?xml version="1.0" standalone="no"?>
<!DOCTYPE svg PUBLIC "-//W3C//DTD SVG 1.1//EN" "http://www.w3.org/Graphics/SVG/1.1/DTD/svg11.dtd" >
<svg>
<metadata>
Created by FontForge 20090914 at Tue Jun 22 13:51:20 2021
 By www-data
&#194;&#169; 1999-2018 Typodermic Fonts Inc.
</metadata>
<defs>
<font id="KenyanCoffeeRg-Regular" horiz-adv-x="399" >
  <font-face 
    font-family="Kenyan Coffee Rg"
    font-weight="400"
    font-stretch="normal"
    units-per-em="1000"
    panose-1="2 0 6 8 2 2 0 1 1 4"
    ascent="796"
    descent="-204"
    x-height="599"
    cap-height="790"
    bbox="-333.002 -203.001 795 1070.05"
    underline-thickness="20"
    underline-position="-123"
    unicode-range="U+0020-U+FB02"
  />
<missing-glyph horiz-adv-x="636" 
d="M121 -185c-64 0 -96 27.667 -96 83v879c0 56.667 32 85 96 85h390c64.667 0 97 -28.333 97 -85v-879c0 -55.333 -32.333 -83 -97 -83h-390zM302 490l25.0029 96.001c2 8 4.16699 13 6.5 15s5.5 3 9.5 3c7.33301 0 13.166 -1.66699 17.499 -5s6.5 -6.66602 6.5 -9.99902
c0 -2 -0.666992 -6.33301 -2 -13l-27 -98c-3.33301 -12.667 -7 -21.834 -11 -27.501s-9 -11.167 -15 -16.5l-68 -60c-9.33301 -8.66699 -17.333 -17 -24 -25s-12.334 -16.667 -17.001 -26s-8.83398 -19.666 -12.501 -30.999s-7.5 -24.333 -11.5 -39l-22 -80l132 -36l16 62
c3.33301 11.333 6.66602 19.833 9.99902 25.5s8.33301 11.834 15 18.501l102 98c10.667 10 19.5 19 26.5 27s13 16.167 18 24.5s9.33301 17.666 13 27.999s7.5 22.833 11.5 37.5l21 77c5.33301 18.667 9.33301 35.5 12 50.5s4 28.5 4 40.5
c0 15.333 -2.66699 28.666 -8 39.999s-14 21.5 -26 30.5s-27.5 17.167 -46.5 24.5s-41.833 14.666 -68.5 21.999c-21.333 5.33301 -40.666 9.66602 -57.999 12.999s-32.666 5 -45.999 5c-14 0 -26.333 -2.16699 -37 -6.5s-20.334 -11.666 -29.001 -21.999
s-16.5 -24 -23.5 -41s-13.833 -38.167 -20.5 -63.5l-26 -97zM284.003 88.001l-141 38l-37 -136l141 -38z" />
    <glyph glyph-name=".notdef" horiz-adv-x="636" 
d="M121 -185c-64 0 -96 27.667 -96 83v879c0 56.667 32 85 96 85h390c64.667 0 97 -28.333 97 -85v-879c0 -55.333 -32.333 -83 -97 -83h-390zM302 490l25.0029 96.001c2 8 4.16699 13 6.5 15s5.5 3 9.5 3c7.33301 0 13.166 -1.66699 17.499 -5s6.5 -6.66602 6.5 -9.99902
c0 -2 -0.666992 -6.33301 -2 -13l-27 -98c-3.33301 -12.667 -7 -21.834 -11 -27.501s-9 -11.167 -15 -16.5l-68 -60c-9.33301 -8.66699 -17.333 -17 -24 -25s-12.334 -16.667 -17.001 -26s-8.83398 -19.666 -12.501 -30.999s-7.5 -24.333 -11.5 -39l-22 -80l132 -36l16 62
c3.33301 11.333 6.66602 19.833 9.99902 25.5s8.33301 11.834 15 18.501l102 98c10.667 10 19.5 19 26.5 27s13 16.167 18 24.5s9.33301 17.666 13 27.999s7.5 22.833 11.5 37.5l21 77c5.33301 18.667 9.33301 35.5 12 50.5s4 28.5 4 40.5
c0 15.333 -2.66699 28.666 -8 39.999s-14 21.5 -26 30.5s-27.5 17.167 -46.5 24.5s-41.833 14.666 -68.5 21.999c-21.333 5.33301 -40.666 9.66602 -57.999 12.999s-32.666 5 -45.999 5c-14 0 -26.333 -2.16699 -37 -6.5s-20.334 -11.666 -29.001 -21.999
s-16.5 -24 -23.5 -41s-13.833 -38.167 -20.5 -63.5l-26 -97zM284.003 88.001l-141 38l-37 -136l141 -38z" />
    <glyph glyph-name="space" unicode=" " horiz-adv-x="169" 
 />
    <glyph glyph-name="exclam" unicode="!" horiz-adv-x="178" 
d="M149 790l-19 -601h-79l-20 601h118zM143 0h-105v132h105v-132z" />
    <glyph glyph-name="quotedbl" unicode="&#x22;" horiz-adv-x="290" 
d="M119 790l-15 -284h-59l-15 284h89zM281 790l-15 -284h-59l-15 284h89z" />
    <glyph glyph-name="numbersign" unicode="#" horiz-adv-x="433" 
d="M94 324l15 140h-69l12 98h69l27 228h70l-27 -228h91l26 228h71l-27 -228h60l-13 -98h-58l-16 -140h68l-11 -99h-69l-26 -225h-71l26 225h-90l-26 -225h-70l26 225h-60l13 99h59zM164 324h90l16 140h-90z" />
    <glyph glyph-name="dollar" unicode="$" 
d="M245 862l0.00292969 -64c24 -1.33301 43.5 -4.66602 58.5 -9.99902s26.667 -14.166 35 -26.499s14.166 -28.833 17.499 -49.5s5 -47.334 5 -80.001v-98h-112v98c0 28 -3 45.833 -9 53.5s-19 11.5 -39 11.5c-21.333 0 -35 -4 -41 -12s-9 -25.667 -9 -53v-73
c0 -12 0.833008 -21.833 2.5 -29.5s4.66699 -14.167 9 -19.5s10.666 -10.333 18.999 -15s19.5 -10.334 33.5 -17.001c34 -16.667 61 -30.5 81 -41.5s35.167 -23 45.5 -36s16.833 -28.667 19.5 -47s4 -43.166 4 -74.499v-122c0 -32.667 -1.66699 -59.334 -5 -80.001
s-9.33301 -37 -18 -49s-20.834 -20.667 -36.501 -26s-35.834 -8.66602 -60.501 -9.99902v-64h-89v64c-23.333 1.33301 -42.5 4.66602 -57.5 9.99902s-26.833 14 -35.5 26s-14.667 28.333 -18 49s-5 47.334 -5 80.001v157h112v-157c0 -14 0.5 -25.167 1.5 -33.5
s3.33301 -14.833 7 -19.5s8.66699 -7.83398 15 -9.50098s14.833 -2.5 25.5 -2.5c20.667 0 33.834 4 39.501 12s8.5 25.667 8.5 53v108c0 16 -0.333008 29.167 -1 39.5s-2.83398 19 -6.50098 26s-9.16699 13.167 -16.5 18.5s-17.666 11 -30.999 17
c-36 16.667 -64.333 30.667 -85 42s-36.5 23.333 -47.5 36s-18 27.834 -21 45.501s-4.5 41.167 -4.5 70.5v72c0 32.667 1.66699 59.334 5 80.001s9.5 37.167 18.5 49.5s21.167 21.166 36.5 26.499s35.333 8.66602 60 9.99902v64h89z" />
    <glyph glyph-name="percent" unicode="%" horiz-adv-x="604" 
d="M508 790l-330 -790h-78l330 790h78zM235 445c0 -21.333 -1.5 -38.166 -4.5 -50.499s-8.5 -21.833 -16.5 -28.5s-19.167 -11 -33.5 -13s-32.833 -3 -55.5 -3s-41.167 1 -55.5 3s-25.5 6.33301 -33.5 13s-13.333 16.167 -16 28.5s-4 29.166 -4 50.499v259
c0 20.667 1.33301 37.167 4 49.5s8 21.833 16 28.5s19.167 11 33.5 13s32.833 3 55.5 3s41.167 -1 55.5 -3s25.5 -6.33301 33.5 -13s13.5 -16.167 16.5 -28.5s4.5 -28.833 4.5 -49.5v-259zM155 704c0 13.333 -1.66699 21.668 -5 25.001s-11.333 5 -24 5
c-13.333 0 -21.833 -1.83301 -25.5 -5.5s-5.5 -11.834 -5.5 -24.501v-259c0 -13.333 1.66699 -21.833 5 -25.5s11.333 -5.5 24 -5.5c14 0 22.667 1.83301 26 5.5s5 12.167 5 25.5v259zM591 89.002c0 -21.333 -1.5 -38.166 -4.5 -50.499s-8.5 -21.833 -16.5 -28.5
s-19.167 -11 -33.5 -13s-32.833 -3 -55.5 -3s-41.167 1 -55.5 3s-25.5 6.33301 -33.5 13s-13.333 16.167 -16 28.5s-4 29.166 -4 50.499v259c0 20.667 1.33301 37.167 4 49.5s8 21.833 16 28.5s19.167 11 33.5 13s32.833 3 55.5 3s41.167 -1 55.5 -3s25.5 -6.33301 33.5 -13
s13.5 -16.167 16.5 -28.5s4.5 -28.833 4.5 -49.5v-259zM511 348.002c0 13.333 -1.66699 21.668 -5 25.001s-11.333 5 -24 5c-13.333 0 -21.833 -1.83301 -25.5 -5.5s-5.5 -11.834 -5.5 -24.501v-259c0 -13.333 1.66699 -21.833 5 -25.5s11.333 -5.5 24 -5.5
c14 0 22.667 1.83301 26 5.5s5 12.167 5 25.5v259z" />
    <glyph glyph-name="ampersand" unicode="&#x26;" horiz-adv-x="395" 
d="M349 413v-413h-149c-34 -0 -61.667 1.83301 -83 5.5s-38 11.167 -50 22.5s-20.167 27.666 -24.5 48.999s-6.5 49.666 -6.5 84.999v174c0 22.667 1.83301 41.167 5.5 55.5s8.66699 25.833 15 34.5s13.833 15.334 22.5 20.001s18 9 28 13v4
c-8 1.33301 -16.167 3.83301 -24.5 7.5s-16 9.33398 -23 17.001s-12.667 18.167 -17 31.5s-6.5 30.333 -6.5 51v59c0 35.333 2.16699 63.5 6.5 84.5s12.5 37.167 24.5 48.5s28.667 18.833 50 22.5s49 5.5 83 5.5h17v-100h-17c-10.667 0 -19.167 -0.833008 -25.5 -2.5
s-11.333 -4.66699 -15 -9s-6 -10.5 -7 -18.5s-1.5 -18.333 -1.5 -31v-69c0 -20.667 2.83301 -35.167 8.5 -43.5s18.5 -12.5 38.5 -12.5h44v112h107v-112h37v-91h-37zM242 413l-44 -0.000976562c-20 0 -32.833 -4.16699 -38.5 -12.5s-8.5 -23.166 -8.5 -44.499v-194
c0 -14 0.5 -25 1.5 -33s3.33301 -14.333 7 -19s8.66699 -7.66699 15 -9s14.833 -2 25.5 -2h42v314z" />
    <glyph glyph-name="quotesingle" unicode="'" horiz-adv-x="150" 
d="M120 790l-15 -284h-59l-15 284h89z" />
    <glyph glyph-name="parenleft" unicode="(" horiz-adv-x="256" 
d="M232 845l-18 -0.00195312c-14 0 -25.5 -1.33301 -34.5 -4s-16 -8 -21 -16s-8.33301 -18.833 -10 -32.5s-2.5 -31.5 -2.5 -53.5v-744c0 -22.667 0.833008 -41 2.5 -55s5 -24.667 10 -32s12 -12.333 21 -15s20.5 -4 34.5 -4h18v-74h-18
c-30.667 0 -55.834 3.33301 -75.501 10s-35 17.167 -46 31.5s-18.5 32.833 -22.5 55.5s-6 50.334 -6 83.001v744c0 32.667 2.33301 60.334 7 83.001s12.834 41.167 24.501 55.5s27 24.833 46 31.5s43.167 10 72.5 10h18v-74z" />
    <glyph glyph-name="parenright" unicode=")" horiz-adv-x="256" 
d="M25 919l18 0.00195312c28.667 0 52.667 -3.33301 72 -10s34.833 -17.167 46.5 -31.5s19.834 -32.833 24.501 -55.5s7 -50.334 7 -83.001v-744c0 -32.667 -2 -60.334 -6 -83.001s-11.5 -41.167 -22.5 -55.5s-26.333 -24.833 -46 -31.5s-44.834 -10 -75.501 -10h-18v74h18
c14 0 25.333 1.33301 34 4s15.5 7.66699 20.5 15s8.5 18 10.5 32s3 32.333 3 55v744c0 22 -0.833008 39.833 -2.5 53.5s-5 24.5 -10 32.5s-12 13.333 -21 16s-20.5 4 -34.5 4h-18v74z" />
    <glyph glyph-name="asterisk" unicode="*" horiz-adv-x="437" 
d="M90 708l107 -78l-12 134l34 36l33 -36l-11 -134l107 78l46 -13l-13 -48l-118 -57l118 -56l13 -48l-46 -13l-107 78l11 -134l-33 -36l-34 36l12 134l-107 -78l-46 13l14 48l117 56l-117 57l-14 48z" />
    <glyph glyph-name="plus" unicode="+" horiz-adv-x="493" 
d="M202 354h-158v91h158v157h90v-157h159v-91h-159v-158h-90v158z" />
    <glyph glyph-name="comma" unicode="," horiz-adv-x="191" 
d="M149 -19c0 -28 -7 -49.5 -21 -64.5s-38.333 -22.5 -73 -22.5h-11v47h13c10.667 0 18.667 2.66699 24 8s8 15 8 29v22h-45v132h105v-151z" />
    <glyph glyph-name="hyphen" unicode="-" horiz-adv-x="205" 
d="M184 288h-163v90h163v-90z" />
    <glyph glyph-name="hyphen" unicode="&#xad;" horiz-adv-x="205" 
d="M184 288h-163v90h163v-90z" />
    <glyph glyph-name="period" unicode="." horiz-adv-x="191" 
d="M149 0h-105v132h105v-132z" />
    <glyph glyph-name="slash" unicode="/" horiz-adv-x="272" 
d="M269 864l-181 -936h-84l180 936h85z" />
    <glyph glyph-name="zero" unicode="0" 
d="M365 157c0 -36.667 -2.16699 -66 -6.5 -88s-12.666 -38.833 -24.999 -50.5s-29.166 -19.334 -50.499 -23.001s-49 -5.5 -83 -5.5s-61.667 1.83301 -83 5.5s-38 11.334 -50 23.001s-20.167 28.5 -24.5 50.5s-6.5 51.333 -6.5 88v477c0 36.667 2.16699 65.834 6.5 87.501
s12.5 38.334 24.5 50.001s28.667 19.334 50 23.001s49 5.5 83 5.5s61.667 -1.83301 83 -5.5s38.166 -11.334 50.499 -23.001s20.666 -28.334 24.999 -50.001s6.5 -50.834 6.5 -87.501v-477zM249 634c0 13.333 -0.501953 24.1699 -1.50195 32.5029s-3.33301 14.666 -7 18.999
s-8.66699 7.33301 -15 9s-14.5 2.5 -24.5 2.5c-21.333 0 -35 -4 -41 -12s-9 -25 -9 -51v-477c0 -14 0.5 -25.167 1.5 -33.5s3.33301 -14.833 7 -19.5s8.66699 -7.83398 15 -9.50098s14.5 -2.5 24.5 -2.5c10.667 0 19.334 0.833008 26.001 2.5s11.834 5 15.501 10
s6 11.667 7 20s1.5 19.166 1.5 32.499v477z" />
    <glyph glyph-name="one" unicode="1" horiz-adv-x="245" 
d="M18 790h185v-790h-116v691h-69v99z" />
    <glyph glyph-name="two" unicode="2" horiz-adv-x="413" 
d="M42 0v237.992c0 33.333 1 60.333 3 81s6 37.834 12 51.501s14.5 25.167 25.5 34.5s25.167 19.333 42.5 30l89 54c16.667 10.667 27.834 20.334 33.501 29.001s8.5 22.334 8.5 41.001v78c0 24.667 -2.83301 40.834 -8.5 48.501s-18.834 11.5 -39.501 11.5
c-10.667 0 -19.167 -0.833008 -25.5 -2.5s-11.333 -4.83398 -15 -9.50098s-6.16699 -11.167 -7.5 -19.5s-2 -18.833 -2 -31.5v-98h-112v98c0 36.667 2.16699 65.834 6.5 87.501s12.5 38.334 24.5 50.001s28.667 19.334 50 23.001s49 5.5 83 5.5s61.5 -1.83301 82.5 -5.5
s37.5 -11.167 49.5 -22.5s20 -27.666 24 -48.999s6 -50 6 -86v-83c0 -20.667 -1 -38.167 -3 -52.5s-6 -27 -12 -38s-14.167 -20.833 -24.5 -29.5s-23.5 -17.667 -39.5 -27l-96 -57c-8 -5.33301 -14.667 -10.166 -20 -14.499s-9.33301 -9.33301 -12 -15
s-4.5 -12.167 -5.5 -19.5s-1.5 -16.333 -1.5 -27v-172h97v191h117v-293h-330z" />
    <glyph glyph-name="three" unicode="3" horiz-adv-x="391" 
d="M143 308l-0.00195312 -153.001c0 -25.333 3.16699 -42 9.5 -50s18.833 -12 37.5 -12c21.333 0 35 4.5 41 13.5s9 25.167 9 48.5v135c0 16.667 -0.333008 30.5 -1 41.5s-2.5 19.833 -5.5 26.5s-7.66699 11.334 -14 14.001s-15.166 4 -26.499 4h-66v104h66
c20.667 0 33.667 3.83301 39 11.5s8 21.167 8 40.5v103c0 26 -3.16699 42.833 -9.5 50.5s-19.166 11.5 -38.499 11.5c-12 0 -21.333 -1 -28 -3s-11.5 -5.5 -14.5 -10.5s-4.83301 -11.333 -5.5 -19s-1 -17.5 -1 -29.5v-93h-110v93c0 36 2.16699 65 6.5 87
s12.5 38.667 24.5 50s28.333 18.833 49 22.5s47.334 5.5 80.001 5.5c33.333 0 60.666 -1.83301 81.999 -5.5s38 -11.334 50 -23.001s20.167 -28.167 24.5 -49.5s6.5 -49.666 6.5 -84.999v-99c0 -20.667 -2.16699 -37.5 -6.5 -50.5s-10 -23.5 -17 -31.5
s-14.667 -13.833 -23 -17.5s-16.5 -6.5 -24.5 -8.5v-4c10.667 -2 20.334 -5.33301 29.001 -10s16.167 -12 22.5 -22s11.166 -23.167 14.499 -39.5s5 -37.5 5 -63.5v-138c0 -35.333 -2.16699 -63.833 -6.5 -85.5s-12.5 -38.167 -24.5 -49.5s-28.667 -18.833 -50 -22.5
s-48.666 -5.5 -81.999 -5.5c-32.667 0 -59.334 1.83301 -80.001 5.5s-37 11.167 -49 22.5s-20.167 28 -24.5 50s-6.5 51 -6.5 87v153h110z" />
    <glyph glyph-name="four" unicode="4" horiz-adv-x="418" 
d="M397 324v-98h-47v-226h-117v226h-194l3 569h106l-3 -471h88v346h117v-346h47z" />
    <glyph glyph-name="five" unicode="5" horiz-adv-x="403" 
d="M249 537v167h-96l-1 -229h88c23.333 0 43 -2.66699 59 -8s28.833 -14.166 38.5 -26.499s16.667 -28.5 21 -48.5s6.5 -45 6.5 -75v-160c0 -36.667 -2.16699 -66 -6.5 -88s-12.666 -38.833 -24.999 -50.5s-29.166 -19.334 -50.499 -23.001s-49 -5.5 -83 -5.5
c-32 0 -58.333 1.83301 -79 5.5s-36.834 11.167 -48.501 22.5s-19.667 28 -24 50s-6.5 51.333 -6.5 88v142h110v-142c0 -14 0.5 -25.167 1.5 -33.5s3 -14.666 6 -18.999s7.66699 -7.33301 14 -9s15.166 -2.5 26.499 -2.5c10.667 0 19.167 0.833008 25.5 2.5
s11.333 4.66699 15 9s6 10.666 7 18.999s1.5 19.5 1.5 33.5v143c0 16.667 -0.5 31 -1.5 43s-3.5 21.5 -7.5 28.5s-9.83301 12.167 -17.5 15.5s-18.167 5 -31.5 5h-149l3 399h320v-253h-116z" />
    <glyph glyph-name="six" unicode="6" 
d="M365 157c0 -36.667 -2.16895 -66.001 -6.50195 -88.001s-12.666 -38.833 -24.999 -50.5s-29.166 -19.334 -50.499 -23.001s-49 -5.5 -83 -5.5s-61.667 1.83301 -83 5.5s-38 11.334 -50 23.001s-20.167 28.5 -24.5 50.5s-6.5 51.333 -6.5 88v477c0 36 2.16699 65 6.5 87
s12.5 38.833 24.5 50.5s28.667 19.334 50 23.001s49 5.5 83 5.5c32 0 58.333 -1.83301 79 -5.5s37 -11.167 49 -22.5s20.167 -28 24.5 -50s6.5 -51.333 6.5 -88v-79h-111v79c0 26 -2.83301 43 -8.5 51s-18.5 12 -38.5 12c-10.667 0 -19.167 -0.833008 -25.5 -2.5
s-11.333 -4.83398 -15 -9.50098s-6.16699 -11.167 -7.5 -19.5s-2 -18.833 -2 -31.5v-210c7.33301 15.333 19 26.5 35 33.5s38 10.5 66 10.5c24 0 43.333 -2.83301 58 -8.5s26.167 -15.167 34.5 -28.5s13.833 -30.666 16.5 -51.999s4 -47.333 4 -78v-144zM248.998 298.999
c0 17.333 -0.670898 31.166 -2.00391 41.499s-3.66602 18.333 -6.99902 24s-7.66602 9.33398 -12.999 11.001s-12 2.5 -20 2.5c-19.333 0 -32.666 -3.66699 -39.999 -11s-12.666 -19 -15.999 -35v-166c0 -16 0.666992 -29 2 -39s3.83301 -17.5 7.5 -22.5
s8.66699 -8.33301 15 -10s14.5 -2.5 24.5 -2.5c20 0 33.167 3.83301 39.5 11.5s9.5 25.5 9.5 53.5v142z" />
    <glyph glyph-name="seven" unicode="7" horiz-adv-x="329" 
d="M301 702l-148 -702h-119l153 694h-161v96h275v-88z" />
    <glyph glyph-name="eight" unicode="8" horiz-adv-x="401" 
d="M201 800c34 0 61.6699 -1.83301 83.0029 -5.5s38.166 -11.167 50.499 -22.5s20.666 -27.666 24.999 -48.999s6.5 -49.333 6.5 -84v-101c0 -20.667 -2.16699 -37.5 -6.5 -50.5s-10 -23.5 -17 -31.5s-15 -13.833 -24 -17.5s-17.833 -6.5 -26.5 -8.5v-4
c11.333 -2 21.666 -5.33301 30.999 -10s17.166 -12 23.499 -22s11.166 -23.167 14.499 -39.5s5 -37.5 5 -63.5v-139c0 -35.333 -2.16699 -63.666 -6.5 -84.999s-12.666 -37.666 -24.999 -48.999s-29.166 -18.833 -50.499 -22.5s-49 -5.5 -83 -5.5s-61.667 1.83301 -83 5.5
s-38.166 11.167 -50.499 22.5s-20.666 27.666 -24.999 48.999s-6.5 49.666 -6.5 84.999v139c0 26 1.66699 47.167 5 63.5s8.33301 29.5 15 39.5s14.5 17.333 23.5 22s19.167 8 30.5 10v4c-8.66699 2 -17.5 4.83301 -26.5 8.5s-17 9.5 -24 17.5s-12.667 18.5 -17 31.5
s-6.5 29.833 -6.5 50.5v101c0 34.667 2.16699 62.667 6.5 84s12.666 37.666 24.999 48.999s29.166 18.833 50.499 22.5s49 5.5 83 5.5zM250.003 313c0 14.667 -0.664062 26.5 -1.99707 35.5s-3.83301 16 -7.5 21s-8.83398 8.33301 -15.501 10s-15.334 2.5 -26.001 2.5
c-10 0 -18 -0.833008 -24 -2.5s-10.833 -5.5 -14.5 -11.5s-6 -14.5 -7 -25.5s-1.5 -25.833 -1.5 -44.5v-145c0 -12.667 0.666992 -23 2 -31s3.66602 -14.167 6.99902 -18.5s8.33301 -7.33301 15 -9s15 -2.5 25 -2.5c20.667 0 34 3.83301 40 11.5s9 24.167 9 49.5v160z
M202.006 697c-11.333 0 -20.334 -1 -27.001 -3s-11.667 -5.5 -15 -10.5s-5.5 -12 -6.5 -21s-1.5 -20.833 -1.5 -35.5v-98c0 -21.333 2.83301 -35.833 8.5 -43.5s19.167 -11.5 40.5 -11.5c22 0 35.667 4 41 12s8 22.333 8 43v98c0 14.667 -0.5 26.667 -1.5 36
s-3.16699 16.5 -6.5 21.5s-8.16602 8.33301 -14.499 10s-14.833 2.5 -25.5 2.5z" />
    <glyph glyph-name="nine" unicode="9" 
d="M36 633c0 36.667 2.16797 66.001 6.50098 88.001s12.5 38.833 24.5 50.5s28.667 19.334 50 23.001s49 5.5 83 5.5s61.667 -1.83301 83 -5.5s38.166 -11.334 50.499 -23.001s20.666 -28.5 24.999 -50.5s6.5 -51.333 6.5 -88v-477c0 -36 -2.16699 -65 -6.5 -87
s-12.666 -38.833 -24.999 -50.5s-29.166 -19.334 -50.499 -23.001s-49 -5.5 -83 -5.5c-32 0 -58.333 1.83301 -79 5.5s-36.834 11.167 -48.501 22.5s-19.667 28 -24 50s-6.5 51.333 -6.5 88v61h110v-61c0 -13.333 0.666992 -24.166 2 -32.499s3.83301 -14.833 7.5 -19.5
s8.5 -7.83398 14.5 -9.50098s14 -2.5 24 -2.5c21.333 0 34.833 4.33301 40.5 13s8.5 25.667 8.5 51v186c-7.33301 -14.667 -19 -25.5 -35 -32.5s-37.667 -10.5 -65 -10.5c-24 0 -43.333 2.83301 -58 8.5s-26 15.167 -34 28.5s-13.5 30.5 -16.5 51.5s-4.5 47.167 -4.5 78.5
v167zM151.001 489.001c0 -20.667 0.166992 -37.499 0.5 -50.499s2 -23.333 5 -31s7.33301 -12.834 13 -15.501s14.167 -4 25.5 -4c17.333 0 30 3.33301 38 10s13.333 18.667 16 36v199c0 14 -0.5 25.167 -1.5 33.5s-3.33301 14.833 -7 19.5s-8.66699 7.66699 -15 9
s-14.833 2 -25.5 2s-19.167 -0.666992 -25.5 -2s-11.333 -4.33301 -15 -9s-6 -11.167 -7 -19.5s-1.5 -19.5 -1.5 -33.5v-144z" />
    <glyph glyph-name="colon" unicode=":" horiz-adv-x="191" 
d="M149 0h-105v132h105v-132zM149 397h-105v132h105v-132z" />
    <glyph glyph-name="semicolon" unicode=";" horiz-adv-x="191" 
d="M149 -19c0 -28 -7 -49.5 -21 -64.5s-38.333 -22.5 -73 -22.5h-11v47h13c10.667 0 18.667 2.66699 24 8s8 15 8 29v22h-45v132h105v-151zM149 397h-105v132h105v-132z" />
    <glyph glyph-name="less" unicode="&#x3c;" horiz-adv-x="493" 
d="M451 613v-91l-308 -122l308 -123v-91l-407 165v97z" />
    <glyph glyph-name="equal" unicode="=" horiz-adv-x="493" 
d="M44 247v90h408v-90h-408zM44 465v90h408v-90h-408z" />
    <glyph glyph-name="greater" unicode="&#x3e;" horiz-adv-x="493" 
d="M452 448v-97l-407 -165v91l308 123l-308 122v91z" />
    <glyph glyph-name="question" unicode="?" horiz-adv-x="385" 
d="M236 0h-105v131h105v-131zM133 253c0 16.667 0.495117 31.0049 1.49512 43.0049s2.83301 23 5.5 33s6 19.167 10 27.5s9 17.5 15 27.5l55 87c8 12.667 13.167 24.5 15.5 35.5s3.5 26.833 3.5 47.5v80c0 13.333 -0.666992 24.166 -2 32.499
s-3.66602 14.666 -6.99902 18.999s-8.16602 7.33301 -14.499 9s-14.833 2.5 -25.5 2.5c-11.333 0 -20.166 -0.833008 -26.499 -2.5s-11.166 -4.83398 -14.499 -9.50098s-5.5 -11.167 -6.5 -19.5s-1.5 -18.833 -1.5 -31.5v-100h-112v100c0 36.667 2.33301 65.834 7 87.501
s13 38.334 25 50.001s28.5 19.334 49.5 23.001s48.167 5.5 81.5 5.5s60.5 -1.83301 81.5 -5.5s37.5 -11.334 49.5 -23.001s20.333 -28.334 25 -50.001s7 -50.834 7 -87.501v-71c0 -17.333 -0.5 -32 -1.5 -44s-2.83301 -23 -5.5 -33s-6.33398 -19.833 -11.001 -29.5
s-11 -20.5 -19 -32.5l-69 -110c-4 -6 -7.16699 -11.333 -9.5 -16s-4.16602 -9.33398 -5.49902 -14.001s-2.16602 -9.83398 -2.49902 -15.501s-0.5 -12.5 -0.5 -20.5v-59h-98v64z" />
    <glyph glyph-name="at" unicode="@" horiz-adv-x="421" 
d="M251 453c32.667 0 54.334 -8.00098 65.001 -24.001v100c0 18 -1 32.833 -3 44.5s-6.5 20.834 -13.5 27.501s-17.667 11.167 -32 13.5s-33.5 3.5 -57.5 3.5c-22.667 0 -40.834 -1.16699 -54.501 -3.5s-24 -6.66602 -31 -12.999s-11.5 -15.333 -13.5 -27
s-3 -26.834 -3 -45.501v-495c0 -17.333 1 -31.333 3 -42s6.66699 -19 14 -25s18 -10 32 -12s32.667 -3 56 -3s41.833 1 55.5 3s24 6 31 12s11.5 14.333 13.5 25s3 24.667 3 42v28h71v-21c0 -35.333 -2.33301 -63.666 -7 -84.999s-13.5 -37.666 -26.5 -48.999
s-31 -18.833 -54 -22.5s-52.5 -5.5 -88.5 -5.5s-65.5 1.83301 -88.5 5.5s-40.833 11.167 -53.5 22.5s-21.334 27.666 -26.001 48.999s-7 49.666 -7 84.999v482c0 36.667 2.33301 65.834 7 87.501s13.334 38.334 26.001 50.001s30.5 19.334 53.5 23.001s52.5 5.5 88.5 5.5
s65.5 -1.83301 88.5 -5.5s41 -11.334 54 -23.001s21.833 -28.334 26.5 -50.001s7 -50.834 7 -87.501v-390h-66v24c-6 -9.33301 -14.333 -16.333 -25 -21s-26 -7 -46 -7c-14 0 -25.667 1.5 -35 4.5s-16.5 7.83301 -21.5 14.5s-8.5 15.5 -10.5 26.5s-3 24.833 -3 41.5v146
c0 17.333 1 31.833 3 43.5s5.66699 21 11 28s12.5 12 21.5 15s20.833 4.5 35.5 4.5zM246 222.999c0 -13.333 2 -22.999 6 -28.999s12 -9 24 -9c11.333 0 19.833 2.16699 25.5 6.5s10.5 11.166 14.5 20.499v156c-6 15.333 -18.667 23 -38 23c-12 0 -20.333 -3 -25 -9
s-7 -15.667 -7 -29v-130z" />
    <glyph glyph-name="A" unicode="A" 
d="M247 0v176h-97v-176h-112v634c0 36 2.16699 65 6.5 87s12.5 38.833 24.5 50.5s28.167 19.334 48.5 23.001s46.5 5.5 78.5 5.5c33.333 0 60.833 -2 82.5 -6s38.667 -11.833 51 -23.5s20.833 -28.334 25.5 -50.001s7 -50.5 7 -86.5v-634h-115zM198 697
c-10 0 -18.168 -0.833008 -24.501 -2.5s-11.333 -4.66699 -15 -9s-6 -10.666 -7 -18.999s-1.5 -19.166 -1.5 -32.499v-364h97v364c0 13.333 -0.666992 24.166 -2 32.499s-3.66602 14.666 -6.99902 18.999s-8.33301 7.33301 -15 9s-15 2.5 -25 2.5z" />
    <glyph glyph-name="A" unicode="&#x410;" 
d="M247 0v176h-97v-176h-112v634c0 36 2.16699 65 6.5 87s12.5 38.833 24.5 50.5s28.167 19.334 48.5 23.001s46.5 5.5 78.5 5.5c33.333 0 60.833 -2 82.5 -6s38.667 -11.833 51 -23.5s20.833 -28.334 25.5 -50.001s7 -50.5 7 -86.5v-634h-115zM198 697
c-10 0 -18.168 -0.833008 -24.501 -2.5s-11.333 -4.66699 -15 -9s-6 -10.666 -7 -18.999s-1.5 -19.166 -1.5 -32.499v-364h97v364c0 13.333 -0.666992 24.166 -2 32.499s-3.66602 14.666 -6.99902 18.999s-8.33301 7.33301 -15 9s-15 2.5 -25 2.5z" />
    <glyph glyph-name="A" unicode="&#x391;" 
d="M247 0v176h-97v-176h-112v634c0 36 2.16699 65 6.5 87s12.5 38.833 24.5 50.5s28.167 19.334 48.5 23.001s46.5 5.5 78.5 5.5c33.333 0 60.833 -2 82.5 -6s38.667 -11.833 51 -23.5s20.833 -28.334 25.5 -50.001s7 -50.5 7 -86.5v-634h-115zM198 697
c-10 0 -18.168 -0.833008 -24.501 -2.5s-11.333 -4.66699 -15 -9s-6 -10.666 -7 -18.999s-1.5 -19.166 -1.5 -32.499v-364h97v364c0 13.333 -0.666992 24.166 -2 32.499s-3.66602 14.666 -6.99902 18.999s-8.33301 7.33301 -15 9s-15 2.5 -25 2.5z" />
    <glyph glyph-name="B" unicode="B" horiz-adv-x="405" 
d="M302 458c10.667 -2.66699 20.334 -6.33398 29.001 -11.001s16.167 -11.834 22.5 -21.501s11.166 -22.167 14.499 -37.5s5 -35 5 -59v-167c0 -35.333 -2.16699 -63.666 -6.5 -84.999s-12.666 -37.666 -24.999 -48.999s-29.166 -18.833 -50.499 -22.5s-49 -5.5 -83 -5.5
h-164v790h164c34 0 61.667 -1.83301 83 -5.5s38.166 -11.167 50.499 -22.5s20.666 -27.5 24.999 -48.5s6.5 -49.167 6.5 -84.5v-59c0 -20.667 -2.5 -37.667 -7.5 -51s-11 -24 -18 -32s-14.667 -14 -23 -18s-15.833 -6.33301 -22.5 -7v-4zM159 99l49.002 0.00195312
c10.667 0 19.167 0.833008 25.5 2.5s11.166 4.66699 14.499 9s5.66602 10.666 6.99902 18.999s2 19.166 2 32.499v193c0 22 -2.66699 37.167 -8 45.5s-18 12.5 -38 12.5h-52v-314zM159.002 504.002h52.001c18.667 0 31 3.66699 37 11s9 20.666 9 39.999v74
c0 12 -0.5 22 -1.5 30s-3.16699 14.333 -6.5 19s-8.33301 7.83398 -15 9.50098s-15.334 2.5 -26.001 2.5h-49v-186z" />
    <glyph glyph-name="B" unicode="&#x412;" horiz-adv-x="405" 
d="M302 458c10.667 -2.66699 20.334 -6.33398 29.001 -11.001s16.167 -11.834 22.5 -21.501s11.166 -22.167 14.499 -37.5s5 -35 5 -59v-167c0 -35.333 -2.16699 -63.666 -6.5 -84.999s-12.666 -37.666 -24.999 -48.999s-29.166 -18.833 -50.499 -22.5s-49 -5.5 -83 -5.5
h-164v790h164c34 0 61.667 -1.83301 83 -5.5s38.166 -11.167 50.499 -22.5s20.666 -27.5 24.999 -48.5s6.5 -49.167 6.5 -84.5v-59c0 -20.667 -2.5 -37.667 -7.5 -51s-11 -24 -18 -32s-14.667 -14 -23 -18s-15.833 -6.33301 -22.5 -7v-4zM159 99l49.002 0.00195312
c10.667 0 19.167 0.833008 25.5 2.5s11.166 4.66699 14.499 9s5.66602 10.666 6.99902 18.999s2 19.166 2 32.499v193c0 22 -2.66699 37.167 -8 45.5s-18 12.5 -38 12.5h-52v-314zM159.002 504.002h52.001c18.667 0 31 3.66699 37 11s9 20.666 9 39.999v74
c0 12 -0.5 22 -1.5 30s-3.16699 14.333 -6.5 19s-8.33301 7.83398 -15 9.50098s-15.334 2.5 -26.001 2.5h-49v-186z" />
    <glyph glyph-name="B" unicode="&#x392;" horiz-adv-x="405" 
d="M302 458c10.667 -2.66699 20.334 -6.33398 29.001 -11.001s16.167 -11.834 22.5 -21.501s11.166 -22.167 14.499 -37.5s5 -35 5 -59v-167c0 -35.333 -2.16699 -63.666 -6.5 -84.999s-12.666 -37.666 -24.999 -48.999s-29.166 -18.833 -50.499 -22.5s-49 -5.5 -83 -5.5
h-164v790h164c34 0 61.667 -1.83301 83 -5.5s38.166 -11.167 50.499 -22.5s20.666 -27.5 24.999 -48.5s6.5 -49.167 6.5 -84.5v-59c0 -20.667 -2.5 -37.667 -7.5 -51s-11 -24 -18 -32s-14.667 -14 -23 -18s-15.833 -6.33301 -22.5 -7v-4zM159 99l49.002 0.00195312
c10.667 0 19.167 0.833008 25.5 2.5s11.166 4.66699 14.499 9s5.66602 10.666 6.99902 18.999s2 19.166 2 32.499v193c0 22 -2.66699 37.167 -8 45.5s-18 12.5 -38 12.5h-52v-314zM159.002 504.002h52.001c18.667 0 31 3.66699 37 11s9 20.666 9 39.999v74
c0 12 -0.5 22 -1.5 30s-3.16699 14.333 -6.5 19s-8.33301 7.83398 -15 9.50098s-15.334 2.5 -26.001 2.5h-49v-186z" />
    <glyph glyph-name="C" unicode="C" horiz-adv-x="394" 
d="M248 455l0.000976562 179.004c0 13.333 -0.5 24.166 -1.5 32.499s-3.33301 14.666 -7 18.999s-8.66699 7.33301 -15 9s-14.5 2.5 -24.5 2.5c-10.667 0 -19.167 -0.833008 -25.5 -2.5s-11.333 -4.83398 -15 -9.50098s-6 -11.167 -7 -19.5s-1.5 -18.833 -1.5 -31.5v-477
c0 -14 0.5 -25.167 1.5 -33.5s3.33301 -14.833 7 -19.5s8.66699 -7.83398 15 -9.50098s14.833 -2.5 25.5 -2.5c10 0 18.167 0.833008 24.5 2.5s11.333 4.83398 15 9.50098s6 11.167 7 19.5s1.5 19.5 1.5 33.5v183h111v-183c0 -37.333 -2.16699 -67 -6.5 -89
s-12.5 -38.667 -24.5 -50s-28.333 -18.833 -49 -22.5s-47 -5.5 -79 -5.5c-34 0 -61.667 1.83301 -83 5.5s-38 11.334 -50 23.001s-20.167 28.5 -24.5 50.5s-6.5 51.333 -6.5 88v477c0 36 2.33301 65 7 87s13.167 38.833 25.5 50.5s29.166 19.334 50.499 23.001
s48.333 5.5 81 5.5c32 0 58.333 -1.83301 79 -5.5s37 -11.334 49 -23.001s20.167 -28.334 24.5 -50.001s6.5 -50.834 6.5 -87.501v-179h-111z" />
    <glyph glyph-name="C" unicode="&#x421;" horiz-adv-x="394" 
d="M248 455l0.000976562 179.004c0 13.333 -0.5 24.166 -1.5 32.499s-3.33301 14.666 -7 18.999s-8.66699 7.33301 -15 9s-14.5 2.5 -24.5 2.5c-10.667 0 -19.167 -0.833008 -25.5 -2.5s-11.333 -4.83398 -15 -9.50098s-6 -11.167 -7 -19.5s-1.5 -18.833 -1.5 -31.5v-477
c0 -14 0.5 -25.167 1.5 -33.5s3.33301 -14.833 7 -19.5s8.66699 -7.83398 15 -9.50098s14.833 -2.5 25.5 -2.5c10 0 18.167 0.833008 24.5 2.5s11.333 4.83398 15 9.50098s6 11.167 7 19.5s1.5 19.5 1.5 33.5v183h111v-183c0 -37.333 -2.16699 -67 -6.5 -89
s-12.5 -38.667 -24.5 -50s-28.333 -18.833 -49 -22.5s-47 -5.5 -79 -5.5c-34 0 -61.667 1.83301 -83 5.5s-38 11.334 -50 23.001s-20.167 28.5 -24.5 50.5s-6.5 51.333 -6.5 88v477c0 36 2.33301 65 7 87s13.167 38.833 25.5 50.5s29.166 19.334 50.499 23.001
s48.333 5.5 81 5.5c32 0 58.333 -1.83301 79 -5.5s37 -11.334 49 -23.001s20.167 -28.334 24.5 -50.001s6.5 -50.834 6.5 -87.501v-179h-111z" />
    <glyph glyph-name="D" unicode="D" horiz-adv-x="407" 
d="M373 162c0 -35.333 -2.16699 -63.668 -6.5 -85.001s-12.666 -37.666 -24.999 -48.999s-29.166 -18.833 -50.499 -22.5s-49 -5.5 -83 -5.5h-164v790h164c34 0 61.667 -1.83301 83 -5.5s38.166 -11.167 50.499 -22.5s20.666 -27.5 24.999 -48.5s6.5 -49.167 6.5 -84.5v-467
zM257 628.998c0 12.667 -0.666992 23.002 -2 31.002s-3.66602 14.333 -6.99902 19s-8.16602 7.66699 -14.499 9s-14.833 2 -25.5 2h-49v-591h49c10.667 0 19.167 0.833008 25.5 2.5s11.166 4.66699 14.499 9s5.66602 10.666 6.99902 18.999s2 19.166 2 32.499v467z" />
    <glyph glyph-name="E" unicode="E" horiz-adv-x="293" 
d="M270 0h-226v790h225v-95h-110v-115h107v-91h-107v-390h111v-99z" />
    <glyph glyph-name="E" unicode="&#x415;" horiz-adv-x="293" 
d="M270 0h-226v790h225v-95h-110v-115h107v-91h-107v-390h111v-99z" />
    <glyph glyph-name="E" unicode="&#x395;" horiz-adv-x="293" 
d="M270 0h-226v790h225v-95h-110v-115h107v-91h-107v-390h111v-99z" />
    <glyph glyph-name="F" unicode="F" horiz-adv-x="287" 
d="M44 0v790h230v-95h-115v-117h111v-95h-111v-483h-115z" />
    <glyph glyph-name="G" unicode="G" horiz-adv-x="398" 
d="M248 562l0.000976562 72.0068c0 13.333 -0.5 24.166 -1.5 32.499s-3.33301 14.666 -7 18.999s-8.66699 7.33301 -15 9s-14.5 2.5 -24.5 2.5c-10.667 0 -19.167 -0.833008 -25.5 -2.5s-11.333 -4.83398 -15 -9.50098s-6 -11.167 -7 -19.5s-1.5 -18.833 -1.5 -31.5v-477
c0 -13.333 0.666992 -24.333 2 -33s3.83301 -15.334 7.5 -20.001s9 -7.83398 16 -9.50098s16.5 -2.5 28.5 -2.5c10 0 19.167 0.333008 27.5 1s14.5 1.66699 18.5 3v363h108v-459c-9.33301 -2 -27.333 -4.16699 -54 -6.5s-58 -3.5 -94 -3.5c-36.667 0 -66.5 2 -89.5 6
s-40.833 12 -53.5 24s-21.167 29 -25.5 51s-6.5 50.667 -6.5 86v477c0 36 2.33301 65 7 87s13.167 38.833 25.5 50.5s29.166 19.334 50.499 23.001s48.333 5.5 81 5.5c32 0 58.333 -1.83301 79 -5.5s37 -11.334 49 -23.001s20.167 -28.334 24.5 -50.001
s6.5 -50.834 6.5 -87.501v-72h-111z" />
    <glyph glyph-name="H" unicode="H" horiz-adv-x="417" 
d="M375 0h-116v432h-100v-432h-115v790h115v-261h100v261h116v-790z" />
    <glyph glyph-name="H" unicode="&#x41d;" horiz-adv-x="417" 
d="M375 0h-116v432h-100v-432h-115v790h115v-261h100v261h116v-790z" />
    <glyph glyph-name="H" unicode="&#x397;" horiz-adv-x="417" 
d="M375 0h-116v432h-100v-432h-115v790h115v-261h100v261h116v-790z" />
    <glyph glyph-name="I" unicode="I" horiz-adv-x="205" 
d="M161 0h-115v790h115v-790z" />
    <glyph glyph-name="I" unicode="&#x4cf;" horiz-adv-x="205" 
d="M161 0h-115v790h115v-790z" />
    <glyph glyph-name="I" unicode="&#x4c0;" horiz-adv-x="205" 
d="M161 0h-115v790h115v-790z" />
    <glyph glyph-name="I" unicode="&#x406;" horiz-adv-x="205" 
d="M161 0h-115v790h115v-790z" />
    <glyph glyph-name="I" unicode="&#x399;" horiz-adv-x="205" 
d="M161 0h-115v790h115v-790z" />
    <glyph glyph-name="J" unicode="J" horiz-adv-x="372" 
d="M14 340l104.997 0.00195312v-183c0 -14 0.666992 -25.167 2 -33.5s3.66602 -14.833 6.99902 -19.5s8 -7.83398 14 -9.50098s13.667 -2.5 23 -2.5c20.667 0 33.834 4.16699 39.501 12.5s8.5 25.833 8.5 52.5v633h116v-633c0 -36.667 -2.16699 -66 -6.5 -88
s-12.333 -38.833 -24 -50.5s-28 -19.334 -49 -23.001s-47.833 -5.5 -80.5 -5.5c-31.333 0 -57.166 1.83301 -77.499 5.5s-36.166 11.167 -47.499 22.5s-19.166 28 -23.499 50s-6.5 51.667 -6.5 89v183z" />
    <glyph glyph-name="J" unicode="&#x408;" horiz-adv-x="372" 
d="M14 340l104.997 0.00195312v-183c0 -14 0.666992 -25.167 2 -33.5s3.66602 -14.833 6.99902 -19.5s8 -7.83398 14 -9.50098s13.667 -2.5 23 -2.5c20.667 0 33.834 4.16699 39.501 12.5s8.5 25.833 8.5 52.5v633h116v-633c0 -36.667 -2.16699 -66 -6.5 -88
s-12.333 -38.833 -24 -50.5s-28 -19.334 -49 -23.001s-47.833 -5.5 -80.5 -5.5c-31.333 0 -57.166 1.83301 -77.499 5.5s-36.166 11.167 -47.499 22.5s-19.166 28 -23.499 50s-6.5 51.667 -6.5 89v183z" />
    <glyph glyph-name="K" unicode="K" horiz-adv-x="404" 
d="M383 790l-118 -328l134 -462h-125l-109 415h-5v-415h-116v790h116v-299h5l97 299h121z" />
    <glyph glyph-name="K" unicode="&#x41a;" horiz-adv-x="404" 
d="M383 790l-118 -328l134 -462h-125l-109 415h-5v-415h-116v790h116v-299h5l97 299h121z" />
    <glyph glyph-name="K" unicode="&#x39a;" horiz-adv-x="404" 
d="M383 790l-118 -328l134 -462h-125l-109 415h-5v-415h-116v790h116v-299h5l97 299h121z" />
    <glyph glyph-name="L" unicode="L" horiz-adv-x="289" 
d="M277 0h-233v790h115v-690h118v-100z" />
    <glyph glyph-name="M" unicode="M" horiz-adv-x="531" 
d="M490 790v-790h-94v558h-4l-73 -558h-103l-73 562h-4v-562h-95v790h161l60 -531h4l61 531h160z" />
    <glyph glyph-name="M" unicode="&#x41c;" horiz-adv-x="531" 
d="M490 790v-790h-94v558h-4l-73 -558h-103l-73 562h-4v-562h-95v790h161l60 -531h4l61 531h160z" />
    <glyph glyph-name="M" unicode="&#x39c;" horiz-adv-x="531" 
d="M490 790v-790h-94v558h-4l-73 -558h-103l-73 562h-4v-562h-95v790h161l60 -531h4l61 531h160z" />
    <glyph glyph-name="N" unicode="N" horiz-adv-x="432" 
d="M266 0l-119 493h-4v-493h-99v790h127l114 -507h4v507h100v-790h-123z" />
    <glyph glyph-name="N" unicode="&#x39d;" horiz-adv-x="432" 
d="M266 0l-119 493h-4v-493h-99v790h127l114 -507h4v507h100v-790h-123z" />
    <glyph glyph-name="O" unicode="O" 
d="M365 157c0 -36.667 -2.16699 -66 -6.5 -88s-12.666 -38.833 -24.999 -50.5s-29.166 -19.334 -50.499 -23.001s-49 -5.5 -83 -5.5s-61.667 1.83301 -83 5.5s-38 11.334 -50 23.001s-20.167 28.5 -24.5 50.5s-6.5 51.333 -6.5 88v477c0 36.667 2.16699 65.834 6.5 87.501
s12.5 38.334 24.5 50.001s28.667 19.334 50 23.001s49 5.5 83 5.5s61.667 -1.83301 83 -5.5s38.166 -11.334 50.499 -23.001s20.666 -28.334 24.999 -50.001s6.5 -50.834 6.5 -87.501v-477zM249 634c0 13.333 -0.501953 24.1699 -1.50195 32.5029s-3.33301 14.666 -7 18.999
s-8.66699 7.33301 -15 9s-14.5 2.5 -24.5 2.5c-21.333 0 -35 -4 -41 -12s-9 -25 -9 -51v-477c0 -14 0.5 -25.167 1.5 -33.5s3.33301 -14.833 7 -19.5s8.66699 -7.83398 15 -9.50098s14.5 -2.5 24.5 -2.5c10.667 0 19.334 0.833008 26.001 2.5s11.834 5 15.501 10
s6 11.667 7 20s1.5 19.166 1.5 32.499v477z" />
    <glyph glyph-name="O" unicode="&#x41e;" 
d="M365 157c0 -36.667 -2.16699 -66 -6.5 -88s-12.666 -38.833 -24.999 -50.5s-29.166 -19.334 -50.499 -23.001s-49 -5.5 -83 -5.5s-61.667 1.83301 -83 5.5s-38 11.334 -50 23.001s-20.167 28.5 -24.5 50.5s-6.5 51.333 -6.5 88v477c0 36.667 2.16699 65.834 6.5 87.501
s12.5 38.334 24.5 50.001s28.667 19.334 50 23.001s49 5.5 83 5.5s61.667 -1.83301 83 -5.5s38.166 -11.334 50.499 -23.001s20.666 -28.334 24.999 -50.001s6.5 -50.834 6.5 -87.501v-477zM249 634c0 13.333 -0.501953 24.1699 -1.50195 32.5029s-3.33301 14.666 -7 18.999
s-8.66699 7.33301 -15 9s-14.5 2.5 -24.5 2.5c-21.333 0 -35 -4 -41 -12s-9 -25 -9 -51v-477c0 -14 0.5 -25.167 1.5 -33.5s3.33301 -14.833 7 -19.5s8.66699 -7.83398 15 -9.50098s14.5 -2.5 24.5 -2.5c10.667 0 19.334 0.833008 26.001 2.5s11.834 5 15.501 10
s6 11.667 7 20s1.5 19.166 1.5 32.499v477z" />
    <glyph glyph-name="O" unicode="&#x39f;" 
d="M365 157c0 -36.667 -2.16699 -66 -6.5 -88s-12.666 -38.833 -24.999 -50.5s-29.166 -19.334 -50.499 -23.001s-49 -5.5 -83 -5.5s-61.667 1.83301 -83 5.5s-38 11.334 -50 23.001s-20.167 28.5 -24.5 50.5s-6.5 51.333 -6.5 88v477c0 36.667 2.16699 65.834 6.5 87.501
s12.5 38.334 24.5 50.001s28.667 19.334 50 23.001s49 5.5 83 5.5s61.667 -1.83301 83 -5.5s38.166 -11.334 50.499 -23.001s20.666 -28.334 24.999 -50.001s6.5 -50.834 6.5 -87.501v-477zM249 634c0 13.333 -0.501953 24.1699 -1.50195 32.5029s-3.33301 14.666 -7 18.999
s-8.66699 7.33301 -15 9s-14.5 2.5 -24.5 2.5c-21.333 0 -35 -4 -41 -12s-9 -25 -9 -51v-477c0 -14 0.5 -25.167 1.5 -33.5s3.33301 -14.833 7 -19.5s8.66699 -7.83398 15 -9.50098s14.5 -2.5 24.5 -2.5c10.667 0 19.334 0.833008 26.001 2.5s11.834 5 15.501 10
s6 11.667 7 20s1.5 19.166 1.5 32.499v477z" />
    <glyph glyph-name="P" unicode="P" horiz-adv-x="395" 
d="M159 299v-299.003h-115v790h164c34 0 61.667 -1.83301 83 -5.5s38.166 -11.167 50.499 -22.5s20.666 -27.5 24.999 -48.5s6.5 -49.167 6.5 -84.5v-169c0 -35.333 -2.33301 -63.666 -7 -84.999s-13.167 -37.666 -25.5 -48.999s-29.166 -18.666 -50.499 -21.999
s-48.666 -5 -81.999 -5h-49zM159 689.997l-0.000976562 -298h49c10 0 18.333 0.833008 25 2.5s11.667 4.83398 15 9.50098s5.66602 11.167 6.99902 19.5s2 19.166 2 32.499v173c0 12.667 -0.5 23 -1.5 31s-3.16699 14.167 -6.5 18.5s-8.16602 7.33301 -14.499 9
s-15.166 2.5 -26.499 2.5h-49z" />
    <glyph glyph-name="P" unicode="&#x420;" horiz-adv-x="395" 
d="M159 299v-299.003h-115v790h164c34 0 61.667 -1.83301 83 -5.5s38.166 -11.167 50.499 -22.5s20.666 -27.5 24.999 -48.5s6.5 -49.167 6.5 -84.5v-169c0 -35.333 -2.33301 -63.666 -7 -84.999s-13.167 -37.666 -25.5 -48.999s-29.166 -18.666 -50.499 -21.999
s-48.666 -5 -81.999 -5h-49zM159 689.997l-0.000976562 -298h49c10 0 18.333 0.833008 25 2.5s11.667 4.83398 15 9.50098s5.66602 11.167 6.99902 19.5s2 19.166 2 32.499v173c0 12.667 -0.5 23 -1.5 31s-3.16699 14.167 -6.5 18.5s-8.16602 7.33301 -14.499 9
s-15.166 2.5 -26.499 2.5h-49z" />
    <glyph glyph-name="P" unicode="&#x3a1;" horiz-adv-x="395" 
d="M159 299v-299.003h-115v790h164c34 0 61.667 -1.83301 83 -5.5s38.166 -11.167 50.499 -22.5s20.666 -27.5 24.999 -48.5s6.5 -49.167 6.5 -84.5v-169c0 -35.333 -2.33301 -63.666 -7 -84.999s-13.167 -37.666 -25.5 -48.999s-29.166 -18.666 -50.499 -21.999
s-48.666 -5 -81.999 -5h-49zM159 689.997l-0.000976562 -298h49c10 0 18.333 0.833008 25 2.5s11.667 4.83398 15 9.50098s5.66602 11.167 6.99902 19.5s2 19.166 2 32.499v173c0 12.667 -0.5 23 -1.5 31s-3.16699 14.167 -6.5 18.5s-8.16602 7.33301 -14.499 9
s-15.166 2.5 -26.499 2.5h-49z" />
    <glyph glyph-name="Q" unicode="Q" 
d="M265 -76l-52.999 85c-38 0 -68.667 1.66699 -92 5s-41.166 10.333 -53.499 21s-20.5 26.167 -24.5 46.5s-6 47.5 -6 81.5v471c0 36.667 2.16699 65.834 6.5 87.501s12.5 38.334 24.5 50.001s28.667 19.334 50 23.001s49 5.5 83 5.5s61.667 -1.83301 83 -5.5
s38.166 -11.334 50.499 -23.001s20.666 -28.334 24.999 -50.001s6.5 -50.834 6.5 -87.501v-471c0 -45.333 -4 -79 -12 -101s-23.667 -36.667 -47 -44l59 -94h-100zM249.001 634c0 13.333 -0.500977 24.1699 -1.50098 32.5029s-3.33301 14.666 -7 18.999
s-8.66699 7.33301 -15 9s-14.5 2.5 -24.5 2.5c-21.333 0 -35 -4 -41 -12s-9 -25 -9 -51v-471c0 -14 0.5 -25 1.5 -33s3.33301 -14.333 7 -19s8.5 -7.66699 14.5 -9s14 -2 24 -2c11.333 0 20.333 0.833008 27 2.5s11.834 4.66699 15.501 9s6 10.666 7 18.999
s1.5 19.166 1.5 32.499v471z" />
    <glyph glyph-name="R" unicode="R" horiz-adv-x="409" 
d="M159 0l-114.998 0.00195312v790h164c34 0 61.667 -1.83301 83 -5.5s38.166 -11.334 50.499 -23.001s20.666 -28 24.999 -49s6.5 -48.833 6.5 -83.5v-83c0 -20.667 -2.16699 -37.5 -6.5 -50.5s-10 -23.5 -17 -31.5s-14.667 -13.833 -23 -17.5s-16.5 -6.5 -24.5 -8.5v-4
c10.667 -2.66699 20.334 -6.16699 29.001 -10.5s16.167 -11 22.5 -20s11.166 -20.5 14.499 -34.5s5 -32 5 -54v-315h-116v333c0 21.333 -2.66699 36.166 -8 44.499s-18 12.5 -38 12.5h-52v-390zM159.002 481.002l52.001 -0.00195312c18.667 0 31 3.66699 37 11
s9 20.666 9 39.999v97c0 12.667 -0.5 22.834 -1.5 30.501s-3.16699 13.834 -6.5 18.501s-8.33301 7.83398 -15 9.50098s-15.334 2.5 -26.001 2.5h-49v-209z" />
    <glyph glyph-name="S" unicode="S" horiz-adv-x="395" 
d="M247 534l0.000976562 98.0039c0 14 -0.5 25.333 -1.5 34s-3.16699 15.167 -6.5 19.5s-8.33301 7.33301 -15 9s-15.334 2.5 -26.001 2.5c-11.333 0 -20.166 -0.833008 -26.499 -2.5s-11.166 -4.66699 -14.499 -9s-5.5 -10.833 -6.5 -19.5s-1.5 -20 -1.5 -34v-78
c0 -16 1.66699 -27.833 5 -35.5s11.666 -15.5 24.999 -23.5c11.333 -7.33301 26.5 -15.666 45.5 -24.999s39.833 -21 62.5 -35c16.667 -10.667 30.167 -20.334 40.5 -29.001s18 -18.334 23 -29.001s8.33301 -23.334 10 -38.001s2.5 -33 2.5 -55v-127
c0 -36.667 -2.16699 -66 -6.5 -88s-12.5 -38.833 -24.5 -50.5s-28.667 -19.334 -50 -23.001s-49 -5.5 -83 -5.5c-32.667 0 -59.334 1.83301 -80.001 5.5s-37 11.167 -49 22.5s-20.333 28 -25 50s-7 51.667 -7 89v157h112v-157c0 -14 0.5 -25.167 1.5 -33.5
s3.16699 -14.833 6.5 -19.5s8.16602 -7.83398 14.499 -9.50098s14.833 -2.5 25.5 -2.5c21.333 0 34.833 4 40.5 12s8.5 25.667 8.5 53v119c0 21.333 -1.33301 36.666 -4 45.999s-10.334 18.333 -23.001 27c-6.66699 4.66699 -15 9.83398 -25 15.501l-32 18l-34.5 19.5
c-11.667 6.66699 -22.167 13 -31.5 19c-14 9.33301 -25.167 18.166 -33.5 26.499s-14.666 17.5 -18.999 27.5s-7.16602 21.333 -8.49902 34s-2 28.334 -2 47.001v76c0 36.667 2.16699 66 6.5 88s12.333 39 24 51s28 19.833 49 23.5s48.5 5.5 82.5 5.5
s61.5 -1.83301 82.5 -5.5s37.5 -11.5 49.5 -23.5s20.167 -29 24.5 -51s6.5 -51.333 6.5 -88v-98h-112z" />
    <glyph glyph-name="S" unicode="&#x405;" horiz-adv-x="395" 
d="M247 534l0.000976562 98.0039c0 14 -0.5 25.333 -1.5 34s-3.16699 15.167 -6.5 19.5s-8.33301 7.33301 -15 9s-15.334 2.5 -26.001 2.5c-11.333 0 -20.166 -0.833008 -26.499 -2.5s-11.166 -4.66699 -14.499 -9s-5.5 -10.833 -6.5 -19.5s-1.5 -20 -1.5 -34v-78
c0 -16 1.66699 -27.833 5 -35.5s11.666 -15.5 24.999 -23.5c11.333 -7.33301 26.5 -15.666 45.5 -24.999s39.833 -21 62.5 -35c16.667 -10.667 30.167 -20.334 40.5 -29.001s18 -18.334 23 -29.001s8.33301 -23.334 10 -38.001s2.5 -33 2.5 -55v-127
c0 -36.667 -2.16699 -66 -6.5 -88s-12.5 -38.833 -24.5 -50.5s-28.667 -19.334 -50 -23.001s-49 -5.5 -83 -5.5c-32.667 0 -59.334 1.83301 -80.001 5.5s-37 11.167 -49 22.5s-20.333 28 -25 50s-7 51.667 -7 89v157h112v-157c0 -14 0.5 -25.167 1.5 -33.5
s3.16699 -14.833 6.5 -19.5s8.16602 -7.83398 14.499 -9.50098s14.833 -2.5 25.5 -2.5c21.333 0 34.833 4 40.5 12s8.5 25.667 8.5 53v119c0 21.333 -1.33301 36.666 -4 45.999s-10.334 18.333 -23.001 27c-6.66699 4.66699 -15 9.83398 -25 15.501l-32 18l-34.5 19.5
c-11.667 6.66699 -22.167 13 -31.5 19c-14 9.33301 -25.167 18.166 -33.5 26.499s-14.666 17.5 -18.999 27.5s-7.16602 21.333 -8.49902 34s-2 28.334 -2 47.001v76c0 36.667 2.16699 66 6.5 88s12.333 39 24 51s28 19.833 49 23.5s48.5 5.5 82.5 5.5
s61.5 -1.83301 82.5 -5.5s37.5 -11.5 49.5 -23.5s20.167 -29 24.5 -51s6.5 -51.333 6.5 -88v-98h-112z" />
    <glyph glyph-name="T" unicode="T" horiz-adv-x="311" 
d="M300 694h-86v-694h-115v694h-87v96h288v-96z" />
    <glyph glyph-name="T" unicode="&#x422;" horiz-adv-x="311" 
d="M300 694h-86v-694h-115v694h-87v96h288v-96z" />
    <glyph glyph-name="T" unicode="&#x3a4;" horiz-adv-x="311" 
d="M300 694h-86v-694h-115v694h-87v96h288v-96z" />
    <glyph glyph-name="U" unicode="U" horiz-adv-x="403" 
d="M203 -10c-33.333 0 -60.498 1.83301 -81.498 5.5s-37.5 11.334 -49.5 23.001s-20.333 28.5 -25 50.5s-7 51.333 -7 88v633h115v-633c0 -14 0.666992 -25.167 2 -33.5s3.66602 -14.666 6.99902 -18.999s8.33301 -7.33301 15 -9s15 -2.5 25 -2.5s18.333 0.833008 25 2.5
s11.667 4.66699 15 9s5.66602 10.666 6.99902 18.999s2 19.5 2 33.5v633h112v-633c0 -36.667 -2.33301 -66 -7 -88s-13 -38.833 -25 -50.5s-28.5 -19.334 -49.5 -23.001s-47.833 -5.5 -80.5 -5.5z" />
    <glyph glyph-name="V" unicode="V" horiz-adv-x="371" 
d="M97 0l-89 790h118l55 -647h4l61 647h119l-100 -790h-168z" />
    <glyph glyph-name="W" unicode="W" horiz-adv-x="574" 
d="M124 790l33 -621h4l53 621h147l45 -621h4l43 621h116l-92 -790h-146l-42 627h-4l-55 -627h-148l-73 790h115z" />
    <glyph glyph-name="X" unicode="X" horiz-adv-x="375" 
d="M356 790l-80 -376l94 -414h-119l-66 353l-64 -353h-115l90 414l-84 376h118l63 -303l56 303h107z" />
    <glyph glyph-name="X" unicode="&#x425;" horiz-adv-x="375" 
d="M356 790l-80 -376l94 -414h-119l-66 353l-64 -353h-115l90 414l-84 376h118l63 -303l56 303h107z" />
    <glyph glyph-name="X" unicode="&#x3a7;" horiz-adv-x="375" 
d="M356 790l-80 -376l94 -414h-119l-66 353l-64 -353h-115l90 414l-84 376h118l63 -303l56 303h107z" />
    <glyph glyph-name="Y" unicode="Y" horiz-adv-x="352" 
d="M350 790l-118 -511v-279h-115v279l-114 511h114l57 -357h4l60 357h112z" />
    <glyph glyph-name="Y" unicode="&#x4ae;" horiz-adv-x="352" 
d="M350 790l-118 -511v-279h-115v279l-114 511h114l57 -357h4l60 357h112z" />
    <glyph glyph-name="Y" unicode="&#x3a5;" horiz-adv-x="352" 
d="M350 790l-118 -511v-279h-115v279l-114 511h114l57 -357h4l60 357h112z" />
    <glyph glyph-name="Z" unicode="Z" horiz-adv-x="313" 
d="M295 0h-277v100l159 594h-143v96h259v-78l-155 -613h157v-99z" />
    <glyph glyph-name="Z" unicode="&#x396;" horiz-adv-x="313" 
d="M295 0h-277v100l159 594h-143v96h259v-78l-155 -613h157v-99z" />
    <glyph glyph-name="bracketleft" unicode="[" horiz-adv-x="256" 
d="M242 845h-87v-956h87v-74h-169v1104h169v-74z" />
    <glyph glyph-name="backslash" unicode="\" horiz-adv-x="272" 
d="M88 864l181 -936h-85l-180 936h84z" />
    <glyph glyph-name="bracketright" unicode="]" horiz-adv-x="256" 
d="M15 919h169v-1104h-169v74h87v956h-87v74z" />
    <glyph glyph-name="asciicircum" unicode="^" horiz-adv-x="452" 
d="M428 341h-90l-112 342l-110 -342h-90l153 449h96z" />
    <glyph glyph-name="underscore" unicode="_" horiz-adv-x="402" 
d="M398 -136h-399v90h399v-90z" />
    <glyph glyph-name="grave" unicode="`" horiz-adv-x="201" 
d="M187 639h-77l-96 166h110z" />
    <glyph glyph-name="a" unicode="a" horiz-adv-x="353" 
d="M172 -10c-28 0 -50.834 1.16699 -68.501 3.5s-31.5 7.5 -41.5 15.5s-16.833 19.667 -20.5 35s-5.5 36 -5.5 62v145c0 36 6.83301 62.333 20.5 79s37.167 25 70.5 25h19c22.667 0 38.667 -0.833008 48 -2.5s16.333 -3.83398 21 -6.50098v124
c0 21.333 -2.66699 35.333 -8 42s-16.666 10 -33.999 10c-19.333 0 -31.5 -3.5 -36.5 -10.5s-7.5 -20.833 -7.5 -41.5v-59h-93v71c0 28 1.83301 50.5 5.5 67.5s10.5 29.833 20.5 38.5s23.667 14.334 41 17.001s40 4 68 4c29.333 0 53.333 -1.33301 72 -4
s33.167 -8.5 43.5 -17.5s17.5 -21.833 21.5 -38.5s6 -39 6 -67v-482c-12 -3.33301 -30.5 -5.83301 -55.5 -7.5s-53.833 -2.5 -86.5 -2.5zM177.999 74c19.333 0 31.666 0.666016 36.999 1.99902v196c-4.66699 2.66699 -10.334 4.33398 -17.001 5.00098s-13.667 1 -21 1
c-11.333 0 -20.166 -0.666992 -26.499 -2s-11.166 -4 -14.499 -8s-5.33301 -9.5 -6 -16.5s-1 -15.833 -1 -26.5v-94c0 -12.667 0.333008 -22.667 1 -30s2.66699 -13 6 -17s8.33301 -6.66699 15 -8s15.667 -2 27 -2z" />
    <glyph glyph-name="a" unicode="&#x430;" horiz-adv-x="353" 
d="M172 -10c-28 0 -50.834 1.16699 -68.501 3.5s-31.5 7.5 -41.5 15.5s-16.833 19.667 -20.5 35s-5.5 36 -5.5 62v145c0 36 6.83301 62.333 20.5 79s37.167 25 70.5 25h19c22.667 0 38.667 -0.833008 48 -2.5s16.333 -3.83398 21 -6.50098v124
c0 21.333 -2.66699 35.333 -8 42s-16.666 10 -33.999 10c-19.333 0 -31.5 -3.5 -36.5 -10.5s-7.5 -20.833 -7.5 -41.5v-59h-93v71c0 28 1.83301 50.5 5.5 67.5s10.5 29.833 20.5 38.5s23.667 14.334 41 17.001s40 4 68 4c29.333 0 53.333 -1.33301 72 -4
s33.167 -8.5 43.5 -17.5s17.5 -21.833 21.5 -38.5s6 -39 6 -67v-482c-12 -3.33301 -30.5 -5.83301 -55.5 -7.5s-53.833 -2.5 -86.5 -2.5zM177.999 74c19.333 0 31.666 0.666016 36.999 1.99902v196c-4.66699 2.66699 -10.334 4.33398 -17.001 5.00098s-13.667 1 -21 1
c-11.333 0 -20.166 -0.666992 -26.499 -2s-11.166 -4 -14.499 -8s-5.33301 -9.5 -6 -16.5s-1 -15.833 -1 -26.5v-94c0 -12.667 0.333008 -22.667 1 -30s2.66699 -13 6 -17s8.33301 -6.66699 15 -8s15.667 -2 27 -2z" />
    <glyph glyph-name="b" unicode="b" horiz-adv-x="366" 
d="M330 117c0 -23.333 -1.33203 -42.8311 -3.99902 -58.498s-7.5 -28.167 -14.5 -37.5s-16.667 -16 -29 -20s-28.166 -6 -47.499 -6c-26 0 -46.333 3.66699 -61 11s-26.334 19.666 -35.001 36.999v-43h-95v790h102v-228c8 13.333 18.667 23.666 32 30.999
s32.666 11 57.999 11c37.333 0 62.333 -9.33301 75 -28s19 -50 19 -94v-365zM143.001 117.002c5.33301 -11.333 11.5 -19.333 18.5 -24s17.167 -7 30.5 -7c15.333 0 25.666 3.5 30.999 10.5s8 20.167 8 39.5v326c0 19.333 -2.66699 32.5 -8 39.5s-15.666 10.5 -30.999 10.5
c-13.333 0 -23.5 -2.33301 -30.5 -7s-13.167 -12.667 -18.5 -24v-364z" />
    <glyph glyph-name="c" unicode="c" horiz-adv-x="347" 
d="M221 377v94.002c0 17.333 -2.66699 28.666 -8 33.999s-16.666 8 -33.999 8c-19.333 0 -31.5 -2.66699 -36.5 -8s-7.5 -16.666 -7.5 -33.999v-344c0 -17.333 2.66699 -28.833 8 -34.5s16.666 -8.5 33.999 -8.5c18.667 0 30.667 3 36 9s8 17.333 8 34v155h93v-165
c0 -28 -2 -50.5 -6 -67.5s-11.167 -29.833 -21.5 -38.5s-24.166 -14.334 -41.499 -17.001s-39.333 -4 -66 -4c-30 0 -54.167 1.5 -72.5 4.5s-32.833 9 -43.5 18s-17.834 21.833 -21.501 38.5s-5.5 38.667 -5.5 66v365c0 27.333 2 49.333 6 66s11 29.5 21 38.5s24 15 42 18
s41 4.5 69 4.5c30 0 54.167 -1.5 72.5 -4.5s32.5 -9.16699 42.5 -18.5s16.667 -22.333 20 -39s5 -38.334 5 -65.001v-105h-93z" />
    <glyph glyph-name="c" unicode="&#x441;" horiz-adv-x="347" 
d="M221 377v94.002c0 17.333 -2.66699 28.666 -8 33.999s-16.666 8 -33.999 8c-19.333 0 -31.5 -2.66699 -36.5 -8s-7.5 -16.666 -7.5 -33.999v-344c0 -17.333 2.66699 -28.833 8 -34.5s16.666 -8.5 33.999 -8.5c18.667 0 30.667 3 36 9s8 17.333 8 34v155h93v-165
c0 -28 -2 -50.5 -6 -67.5s-11.167 -29.833 -21.5 -38.5s-24.166 -14.334 -41.499 -17.001s-39.333 -4 -66 -4c-30 0 -54.167 1.5 -72.5 4.5s-32.833 9 -43.5 18s-17.834 21.833 -21.501 38.5s-5.5 38.667 -5.5 66v365c0 27.333 2 49.333 6 66s11 29.5 21 38.5s24 15 42 18
s41 4.5 69 4.5c30 0 54.167 -1.5 72.5 -4.5s32.5 -9.16699 42.5 -18.5s16.667 -22.333 20 -39s5 -38.334 5 -65.001v-105h-93z" />
    <glyph glyph-name="d" unicode="d" horiz-adv-x="366" 
d="M36 482c0 22.667 1.33008 41.832 3.99707 57.499s7.5 28.167 14.5 37.5s16.333 16.166 28 20.499s26.834 6.5 45.501 6.5c27.333 0 47.333 -3.66699 60 -11s23 -17.666 31 -30.999v228h103v-790h-95v43c-9.33301 -17.333 -21.166 -29.666 -35.499 -36.999
s-34.5 -11 -60.5 -11c-19.333 0 -35.166 2 -47.499 6s-22 10.667 -29 20s-11.833 21.833 -14.5 37.5s-4 35.167 -4 58.5v365zM221.997 480.998c-5.33301 11.333 -11.5 19.333 -18.5 24s-17.167 7 -30.5 7c-15.333 0 -25.5 -3.5 -30.5 -10.5s-7.5 -20.167 -7.5 -39.5v-326
c0 -19.333 2.5 -32.5 7.5 -39.5s15.167 -10.5 30.5 -10.5c13.333 0 23.5 2.33301 30.5 7s13.167 12.667 18.5 24v364z" />
    <glyph glyph-name="e" unicode="e" horiz-adv-x="349" 
d="M136 264v-140.998c0 -19.333 2.5 -31.833 7.5 -37.5s16.833 -8.5 35.5 -8.5c18 0 29.667 2.83301 35 8.5s8 18.167 8 37.5v81h92v-87c0 -28 -1.83301 -50.5 -5.5 -67.5s-10.5 -29.833 -20.5 -38.5s-23.833 -14.334 -41.5 -17.001s-40.5 -4 -68.5 -4
c-29.333 0 -53.333 1.33301 -72 4s-33.167 8.5 -43.5 17.5s-17.333 21.833 -21 38.5s-5.5 39 -5.5 67v365c0 28 1.83301 50.333 5.5 67s10.667 29.5 21 38.5s24.833 14.833 43.5 17.5s42.667 4 72 4c28 0 50.833 -1.33301 68.5 -4s31.5 -8.33398 41.5 -17.001
s16.833 -21.5 20.5 -38.5s5.5 -39.5 5.5 -67.5v-218h-178zM136 346.002h86v128c0 19.333 -2.66699 31.666 -8 36.999s-17 8 -35 8c-18.667 0 -30.5 -2.66699 -35.5 -8s-7.5 -17.666 -7.5 -36.999v-128z" />
    <glyph glyph-name="e" unicode="&#x435;" horiz-adv-x="349" 
d="M136 264v-140.998c0 -19.333 2.5 -31.833 7.5 -37.5s16.833 -8.5 35.5 -8.5c18 0 29.667 2.83301 35 8.5s8 18.167 8 37.5v81h92v-87c0 -28 -1.83301 -50.5 -5.5 -67.5s-10.5 -29.833 -20.5 -38.5s-23.833 -14.334 -41.5 -17.001s-40.5 -4 -68.5 -4
c-29.333 0 -53.333 1.33301 -72 4s-33.167 8.5 -43.5 17.5s-17.333 21.833 -21 38.5s-5.5 39 -5.5 67v365c0 28 1.83301 50.333 5.5 67s10.667 29.5 21 38.5s24.833 14.833 43.5 17.5s42.667 4 72 4c28 0 50.833 -1.33301 68.5 -4s31.5 -8.33398 41.5 -17.001
s16.833 -21.5 20.5 -38.5s5.5 -39.5 5.5 -67.5v-218h-178zM136 346.002h86v128c0 19.333 -2.66699 31.666 -8 36.999s-17 8 -35 8c-18.667 0 -30.5 -2.66699 -35.5 -8s-7.5 -17.666 -7.5 -36.999v-128z" />
    <glyph glyph-name="f" unicode="f" horiz-adv-x="241" 
d="M228 516h-76v-516h-102v516h-37v83h37v64c0 44 11 76.167 33 96.5s59.333 30.5 112 30.5h32v-76h-25c-33.333 0 -50 -18.667 -50 -56v-59h76v-83z" />
    <glyph glyph-name="g" unicode="g" horiz-adv-x="366" 
d="M159 -67c22.667 0 38.332 3.8291 46.999 11.4961s13 22.834 13 45.501v77c-8 -13.333 -18.667 -23.5 -32 -30.5s-32.666 -10.5 -57.999 -10.5c-19.333 0 -35 2.16699 -47 6.5s-21.5 11.333 -28.5 21s-11.667 22.334 -14 38.001s-3.5 34.5 -3.5 56.5v334
c0 22.667 1.33301 41.834 4 57.501s7.5 28.334 14.5 38.001s16.833 16.5 29.5 20.5s28.667 6 48 6c22.667 0 41.667 -3.33301 57 -10s28 -19.667 38 -39v44h95v-609c0 -48.667 -10.5 -84.667 -31.5 -108s-56.833 -35 -107.5 -35h-131v86h107zM221.998 480.996
c-5.33301 11.333 -11.5 19.333 -18.5 24s-17.167 7 -30.5 7c-15.333 0 -25.5 -3.5 -30.5 -10.5s-7.5 -20.167 -7.5 -39.5v-295c0 -19.333 2.5 -32.5 7.5 -39.5s15.167 -10.5 30.5 -10.5c13.333 0 23.5 2.33301 30.5 7s13.167 12.667 18.5 24v333z" />
    <glyph glyph-name="h" unicode="h" horiz-adv-x="375" 
d="M146 0h-101.999v790h102v-229c8 15.333 19 26.333 33 33s33.667 10 59 10c38 0 64.333 -8.83301 79 -26.5s22 -49.5 22 -95.5v-482h-102v471c0 15.333 -2.83301 26 -8.5 32s-16.167 9 -31.5 9c-16.667 0 -28.334 -2.83301 -35.001 -8.5s-12 -13.167 -16 -22.5v-481z" />
    <glyph glyph-name="h" unicode="&#x4bb;" horiz-adv-x="375" 
d="M146 0h-101.999v790h102v-229c8 15.333 19 26.333 33 33s33.667 10 59 10c38 0 64.333 -8.83301 79 -26.5s22 -49.5 22 -95.5v-482h-102v471c0 15.333 -2.83301 26 -8.5 32s-16.167 9 -31.5 9c-16.667 0 -28.334 -2.83301 -35.001 -8.5s-12 -13.167 -16 -22.5v-481z" />
    <glyph glyph-name="i" unicode="i" horiz-adv-x="192" 
d="M147 686h-101v104h101v-104zM147 0h-101v599h101v-599z" />
    <glyph glyph-name="i" unicode="&#x456;" horiz-adv-x="192" 
d="M147 686h-101v104h101v-104zM147 0h-101v599h101v-599z" />
    <glyph glyph-name="j" unicode="j" horiz-adv-x="192" 
d="M48 599l102.001 0.000976562v-609c0 -48 -10.833 -83.833 -32.5 -107.5s-58.167 -35.5 -109.5 -35.5h-56v86h48c17.333 0 29.666 4.16699 36.999 12.5s11 23.166 11 44.499v609zM150.001 686.001h-102v104h102v-104z" />
    <glyph glyph-name="j" unicode="&#x458;" horiz-adv-x="192" 
d="M48 599l102.001 0.000976562v-609c0 -48 -10.833 -83.833 -32.5 -107.5s-58.167 -35.5 -109.5 -35.5h-56v86h48c17.333 0 29.666 4.16699 36.999 12.5s11 23.166 11 44.499v609zM150.001 686.001h-102v104h102v-104z" />
    <glyph glyph-name="k" unicode="k" horiz-adv-x="364" 
d="M243 0l-94 308h-4v-308h-101v790h101v-412h4l84 221h111l-109 -250l122 -349h-114z" />
    <glyph glyph-name="l" unicode="l" horiz-adv-x="188" 
d="M146 0h-102v790h102v-790z" />
    <glyph glyph-name="m" unicode="m" horiz-adv-x="572" 
d="M146 0h-101.999v599h95v-40c7.33301 14.667 18.5 25.834 33.5 33.501s36.167 11.5 63.5 11.5c24.667 0 44.5 -3.66699 59.5 -11s26.167 -20 33.5 -38c10 18.667 23 31.5 39 38.5s36.333 10.5 61 10.5c19.333 0 35.5 -2 48.5 -6s23.5 -10.833 31.5 -20.5
s13.667 -22.334 17 -38.001s5 -34.834 5 -57.501v-482h-102v471c0 15.333 -2.83301 26 -8.5 32s-16.167 9 -31.5 9c-16 0 -27.167 -2.66699 -33.5 -8s-11.833 -12.666 -16.5 -21.999v-482h-102v471c0 15.333 -2.83301 26 -8.5 32s-16.167 9 -31.5 9
c-16.667 0 -28.334 -2.83301 -35.001 -8.5s-12 -13.167 -16 -22.5v-481z" />
    <glyph glyph-name="n" unicode="n" horiz-adv-x="378" 
d="M146 0l-101.999 0.00292969v599h95v-40c8 15.333 19.333 26.666 34 33.999s36 11 64 11c19.333 0 35.5 -2 48.5 -6s23.5 -10.833 31.5 -20.5s13.667 -22.334 17 -38.001s5 -34.834 5 -57.501v-482h-102v471c0 15.333 -2.83301 26 -8.5 32s-16.167 9 -31.5 9
c-16.667 0 -28.334 -2.83301 -35.001 -8.5s-12 -13.167 -16 -22.5v-481z" />
    <glyph glyph-name="o" unicode="o" horiz-adv-x="358" 
d="M322 117c0 -28 -2 -50.333 -6 -67s-11.167 -29.5 -21.5 -38.5s-24.833 -14.833 -43.5 -17.5s-42.667 -4 -72 -4s-53.333 1.33301 -72 4s-33.334 8.5 -44.001 17.5s-17.834 21.833 -21.501 38.5s-5.5 39 -5.5 67v365c0 28 1.83301 50.333 5.5 67s10.834 29.5 21.501 38.5
s25.334 14.833 44.001 17.5s42.667 4 72 4s53.333 -1.33301 72 -4s33.167 -8.5 43.5 -17.5s17.5 -21.833 21.5 -38.5s6 -39 6 -67v-365zM223 471c0 17.333 -2.66797 28.666 -8.00098 33.999s-16.666 8 -33.999 8c-19.333 0 -31.833 -2.66699 -37.5 -8
s-8.5 -16.666 -8.5 -33.999v-344c0 -17.333 2.66699 -28.833 8 -34.5s17.333 -8.5 36 -8.5c19.333 0 31.5 3 36.5 9s7.5 17.333 7.5 34v344z" />
    <glyph glyph-name="o" unicode="&#x43e;" horiz-adv-x="358" 
d="M322 117c0 -28 -2 -50.333 -6 -67s-11.167 -29.5 -21.5 -38.5s-24.833 -14.833 -43.5 -17.5s-42.667 -4 -72 -4s-53.333 1.33301 -72 4s-33.334 8.5 -44.001 17.5s-17.834 21.833 -21.501 38.5s-5.5 39 -5.5 67v365c0 28 1.83301 50.333 5.5 67s10.834 29.5 21.501 38.5
s25.334 14.833 44.001 17.5s42.667 4 72 4s53.333 -1.33301 72 -4s33.167 -8.5 43.5 -17.5s17.5 -21.833 21.5 -38.5s6 -39 6 -67v-365zM223 471c0 17.333 -2.66797 28.666 -8.00098 33.999s-16.666 8 -33.999 8c-19.333 0 -31.833 -2.66699 -37.5 -8
s-8.5 -16.666 -8.5 -33.999v-344c0 -17.333 2.66699 -28.833 8 -34.5s17.333 -8.5 36 -8.5c19.333 0 31.5 3 36.5 9s7.5 17.333 7.5 34v344z" />
    <glyph glyph-name="o" unicode="&#x3bf;" horiz-adv-x="358" 
d="M322 117c0 -28 -2 -50.333 -6 -67s-11.167 -29.5 -21.5 -38.5s-24.833 -14.833 -43.5 -17.5s-42.667 -4 -72 -4s-53.333 1.33301 -72 4s-33.334 8.5 -44.001 17.5s-17.834 21.833 -21.501 38.5s-5.5 39 -5.5 67v365c0 28 1.83301 50.333 5.5 67s10.834 29.5 21.501 38.5
s25.334 14.833 44.001 17.5s42.667 4 72 4s53.333 -1.33301 72 -4s33.167 -8.5 43.5 -17.5s17.5 -21.833 21.5 -38.5s6 -39 6 -67v-365zM223 471c0 17.333 -2.66797 28.666 -8.00098 33.999s-16.666 8 -33.999 8c-19.333 0 -31.833 -2.66699 -37.5 -8
s-8.5 -16.666 -8.5 -33.999v-344c0 -17.333 2.66699 -28.833 8 -34.5s17.333 -8.5 36 -8.5c19.333 0 31.5 3 36.5 9s7.5 17.333 7.5 34v344z" />
    <glyph glyph-name="p" unicode="p" horiz-adv-x="366" 
d="M330 117c0 -23.333 -1.33398 -42.8311 -4.00098 -58.498s-7.5 -28.167 -14.5 -37.5s-16.5 -16 -28.5 -20s-27.333 -6 -46 -6c-22 0 -40.333 3 -55 9s-26.667 16.667 -36 32v-189h-102v752h95v-44c9.33301 19.333 21.833 32.333 37.5 39s34.834 10 57.501 10
c19.333 0 35.333 -2 48 -6s22.5 -10.833 29.5 -20.5s11.833 -22.334 14.5 -38.001s4 -34.834 4 -57.501v-365zM142.999 117.002c5.33301 -11.333 11.5 -19.333 18.5 -24s17.167 -7 30.5 -7c15.333 0 25.666 3.5 30.999 10.5s8 20.167 8 39.5v326
c0 19.333 -2.66699 32.5 -8 39.5s-15.666 10.5 -30.999 10.5c-13.333 0 -23.5 -2.33301 -30.5 -7s-13.167 -12.667 -18.5 -24v-364z" />
    <glyph glyph-name="p" unicode="&#x440;" horiz-adv-x="366" 
d="M330 117c0 -23.333 -1.33398 -42.8311 -4.00098 -58.498s-7.5 -28.167 -14.5 -37.5s-16.5 -16 -28.5 -20s-27.333 -6 -46 -6c-22 0 -40.333 3 -55 9s-26.667 16.667 -36 32v-189h-102v752h95v-44c9.33301 19.333 21.833 32.333 37.5 39s34.834 10 57.501 10
c19.333 0 35.333 -2 48 -6s22.5 -10.833 29.5 -20.5s11.833 -22.334 14.5 -38.001s4 -34.834 4 -57.501v-365zM142.999 117.002c5.33301 -11.333 11.5 -19.333 18.5 -24s17.167 -7 30.5 -7c15.333 0 25.666 3.5 30.999 10.5s8 20.167 8 39.5v326
c0 19.333 -2.66699 32.5 -8 39.5s-15.666 10.5 -30.999 10.5c-13.333 0 -23.5 -2.33301 -30.5 -7s-13.167 -12.667 -18.5 -24v-364z" />
    <glyph glyph-name="q" unicode="q" horiz-adv-x="366" 
d="M36 482c0 22.667 1.33203 41.832 3.99902 57.499s7.5 28.334 14.5 38.001s16.833 16.5 29.5 20.5s28.667 6 48 6c22.667 0 41.667 -3.33301 57 -10s28 -19.667 38 -39v44h95v-752h-103v189c-8 -13.333 -18.667 -23.5 -32 -30.5s-32.666 -10.5 -57.999 -10.5
c-18.667 0 -34 2.16699 -46 6.5s-21.5 11.333 -28.5 21s-11.833 22.167 -14.5 37.5s-4 34.333 -4 57v365zM221.999 480.998c-5.33301 11.333 -11.5 19.333 -18.5 24s-17.167 7 -30.5 7c-15.333 0 -25.5 -3.5 -30.5 -10.5s-7.5 -20.167 -7.5 -39.5v-326
c0 -19.333 2.5 -32.5 7.5 -39.5s15.167 -10.5 30.5 -10.5c13.333 0 23.5 2.33301 30.5 7s13.167 12.667 18.5 24v364z" />
    <glyph glyph-name="r" unicode="r" horiz-adv-x="337" 
d="M146 0l-102.001 -0.000976562v599h95v-40c7.33301 13.333 18.5 24.166 33.5 32.499s35.833 12.5 62.5 12.5c16.667 0 30.834 -2 42.501 -6s21 -10.667 28 -20s12 -21.833 15 -37.5s4.5 -35.167 4.5 -58.5v-149h-92v137c0 14.667 -2.33301 25.334 -7 32.001
s-14.667 10 -30 10c-14 0 -24.833 -2.66699 -32.5 -8s-13.5 -13.666 -17.5 -24.999v-479z" />
    <glyph glyph-name="s" unicode="s" horiz-adv-x="354" 
d="M221 426v45c0 17.333 -2.5 28.833 -7.5 34.5s-17.167 8.5 -36.5 8.5s-31.333 -2.83301 -36 -8.5s-7 -17.167 -7 -34.5v-48c0 -9.33301 0.666992 -16.666 2 -21.999s3.66602 -10.166 6.99902 -14.499s8.33301 -8.33301 15 -12s15.667 -7.83398 27 -12.501
c2 -1.33301 6.16699 -3.33301 12.5 -6s13.333 -5.83398 21 -9.50098l23 -10.5c7.66699 -3.33301 13.834 -6.33301 18.501 -9c13.333 -7.33301 24 -14.333 32 -21s14 -13.834 18 -21.501s6.66699 -16 8 -25s2 -19.167 2 -30.5v-111c0 -28 -1.83301 -50.5 -5.5 -67.5
s-10.667 -30 -21 -39s-24.666 -14.833 -42.999 -17.5s-42.5 -4 -72.5 -4c-29.333 0 -53.333 1.33301 -72 4s-33.334 8.5 -44.001 17.5s-18 22 -22 39s-6 39.5 -6 67.5v92h100v-81c0 -18 2.66699 -29.833 8 -35.5s17.333 -8.5 36 -8.5c19.333 0 31.333 3 36 9s7 17.667 7 35
v73c0 8 -0.5 14.667 -1.5 20s-3 10 -6 14s-7.16699 7.83301 -12.5 11.5s-12.666 7.5 -21.999 11.5c-8 4 -15.333 7.33301 -22 10l-19.5 7.5c-6.33301 2.33301 -12.833 5 -19.5 8s-14 6.83301 -22 11.5c-12.667 6.66699 -23 13.334 -31 20.001s-14.333 14.167 -19 22.5
s-7.83398 18 -9.50098 29s-2.5 24.5 -2.5 40.5v73c0 28 2 50.5 6 67.5s11.167 30 21.5 39s24.833 14.833 43.5 17.5s43 4 73 4c29.333 0 53.333 -1.33301 72 -4s33.167 -8.5 43.5 -17.5s17.333 -22 21 -39s5.5 -39.5 5.5 -67.5v-55h-99z" />
    <glyph glyph-name="s" unicode="&#x455;" horiz-adv-x="354" 
d="M221 426v45c0 17.333 -2.5 28.833 -7.5 34.5s-17.167 8.5 -36.5 8.5s-31.333 -2.83301 -36 -8.5s-7 -17.167 -7 -34.5v-48c0 -9.33301 0.666992 -16.666 2 -21.999s3.66602 -10.166 6.99902 -14.499s8.33301 -8.33301 15 -12s15.667 -7.83398 27 -12.501
c2 -1.33301 6.16699 -3.33301 12.5 -6s13.333 -5.83398 21 -9.50098l23 -10.5c7.66699 -3.33301 13.834 -6.33301 18.501 -9c13.333 -7.33301 24 -14.333 32 -21s14 -13.834 18 -21.501s6.66699 -16 8 -25s2 -19.167 2 -30.5v-111c0 -28 -1.83301 -50.5 -5.5 -67.5
s-10.667 -30 -21 -39s-24.666 -14.833 -42.999 -17.5s-42.5 -4 -72.5 -4c-29.333 0 -53.333 1.33301 -72 4s-33.334 8.5 -44.001 17.5s-18 22 -22 39s-6 39.5 -6 67.5v92h100v-81c0 -18 2.66699 -29.833 8 -35.5s17.333 -8.5 36 -8.5c19.333 0 31.333 3 36 9s7 17.667 7 35
v73c0 8 -0.5 14.667 -1.5 20s-3 10 -6 14s-7.16699 7.83301 -12.5 11.5s-12.666 7.5 -21.999 11.5c-8 4 -15.333 7.33301 -22 10l-19.5 7.5c-6.33301 2.33301 -12.833 5 -19.5 8s-14 6.83301 -22 11.5c-12.667 6.66699 -23 13.334 -31 20.001s-14.333 14.167 -19 22.5
s-7.83398 18 -9.50098 29s-2.5 24.5 -2.5 40.5v73c0 28 2 50.5 6 67.5s11.167 30 21.5 39s24.833 14.833 43.5 17.5s43 4 73 4c29.333 0 53.333 -1.33301 72 -4s33.167 -8.5 43.5 -17.5s17.333 -22 21 -39s5.5 -39.5 5.5 -67.5v-55h-99z" />
    <glyph glyph-name="t" unicode="t" horiz-adv-x="240" 
d="M218 516h-70v-376c0 -20.667 3.33301 -34.667 10 -42s20 -11 40 -11h19v-87h-26c-27.333 0 -50.333 2.5 -69 7.5s-33.667 12.667 -45 23s-19.333 23.5 -24 39.5s-7 35 -7 57v389h-37v83h37v182h102v-182h70v-83z" />
    <glyph glyph-name="u" unicode="u" horiz-adv-x="376" 
d="M230 599h103v-599h-96v39c-8 -15.333 -19.167 -26.5 -33.5 -33.5s-35.166 -10.5 -62.499 -10.5c-19.333 0 -35.5 2 -48.5 6s-23.333 10.667 -31 20s-13.167 21.833 -16.5 37.5s-5 35.167 -5 58.5v482h102v-472c0 -14 2.66699 -24.333 8 -31s15.666 -10 30.999 -10
s26.333 2.83301 33 8.5s12 13.167 16 22.5v482z" />
    <glyph glyph-name="v" unicode="v" horiz-adv-x="324" 
d="M78 0l-72 599h107l46 -455h4l50 455h106l-81 -599h-160z" />
    <glyph glyph-name="v" unicode="&#x3bd;" horiz-adv-x="324" 
d="M78 0l-72 599h107l46 -455h4l50 455h106l-81 -599h-160z" />
    <glyph glyph-name="w" unicode="w" horiz-adv-x="532" 
d="M114 599l31 -448h4l51 448h133l46 -448h4l37 448h109l-83 -599h-138l-40 455h-4l-51 -455h-139l-69 599h109z" />
    <glyph glyph-name="x" unicode="x" horiz-adv-x="337" 
d="M319 599l-71 -285l83 -314h-107l-58 266l-57 -266h-103l83 316l-78 283h106l55 -229l51 229h96z" />
    <glyph glyph-name="x" unicode="&#x445;" horiz-adv-x="337" 
d="M319 599l-71 -285l83 -314h-107l-58 266l-57 -266h-103l83 316l-78 283h106l55 -229l51 229h96z" />
    <glyph glyph-name="y" unicode="y" horiz-adv-x="378" 
d="M233 599l102 -0.000976562v-609c0 -48.667 -10.667 -84.667 -32 -108s-57.333 -35 -108 -35h-134v86h109c22.667 0 38.5 3.83301 47.5 11.5s13.5 22.834 13.5 45.501v77c-9.33301 -15.333 -21.166 -26 -35.499 -32s-33.166 -9 -56.499 -9c-18.667 0 -34.334 2 -47.001 6
s-22.834 10.667 -30.501 20s-13.167 21.833 -16.5 37.5s-5 35.167 -5 58.5v451h102v-432c0 -19.333 3.33301 -32.5 10 -39.5s17.667 -10.5 33 -10.5c13.333 0 23.333 2.33301 30 7s12.667 12.667 18 24v451z" />
    <glyph glyph-name="y" unicode="&#x443;" horiz-adv-x="378" 
d="M233 599l102 -0.000976562v-609c0 -48.667 -10.667 -84.667 -32 -108s-57.333 -35 -108 -35h-134v86h109c22.667 0 38.5 3.83301 47.5 11.5s13.5 22.834 13.5 45.501v77c-9.33301 -15.333 -21.166 -26 -35.499 -32s-33.166 -9 -56.499 -9c-18.667 0 -34.334 2 -47.001 6
s-22.834 10.667 -30.501 20s-13.167 21.833 -16.5 37.5s-5 35.167 -5 58.5v451h102v-432c0 -19.333 3.33301 -32.5 10 -39.5s17.667 -10.5 33 -10.5c13.333 0 23.333 2.33301 30 7s12.667 12.667 18 24v451z" />
    <glyph glyph-name="z" unicode="z" horiz-adv-x="299" 
d="M284 0h-269v87l165 429h-147v83h248v-77l-160 -436h163v-86z" />
    <glyph glyph-name="braceleft" unicode="{" horiz-adv-x="265" 
d="M174 452c0 -24.667 -3.66699 -44.6689 -11 -60.002s-16.666 -26.666 -27.999 -33.999c11.333 -7.33301 20.666 -18.833 27.999 -34.5s11 -35.5 11 -59.5v-303c0 -18 1 -32.833 3 -44.5s5.5 -21 10.5 -28s11.833 -12 20.5 -15s19.667 -4.5 33 -4.5h11v-72h-11
c-30 0 -54.5 2.83301 -73.5 8.5s-34 15 -45 28s-18.667 29.833 -23 50.5s-6.5 46.334 -6.5 77.001v308c0 36.667 -17 55 -51 55h-15v68h15c34 0 51 18.333 51 55v307c0 30.667 2.16699 56.5 6.5 77.5s12 38 23 51s26 22.333 45 28s43.5 8.5 73.5 8.5h11v-73h-11
c-13.333 0 -24.333 -1.5 -33 -4.5s-15.5 -8 -20.5 -15s-8.5 -16.333 -10.5 -28s-3 -26.5 -3 -44.5v-302v0z" />
    <glyph glyph-name="bar" unicode="|" horiz-adv-x="226" 
d="M154 -185h-82v1104h82v-1104z" />
    <glyph glyph-name="braceright" unicode="}" horiz-adv-x="265" 
d="M93 754c0 35.333 -4.5 59.502 -13.5 72.502s-26.833 19.5 -53.5 19.5h-11v73h11c30 0 54.5 -2.83301 73.5 -8.5s34 -15 45 -28s18.667 -30 23 -51s6.5 -46.833 6.5 -77.5v-307c0 -36.667 17 -55 51 -55h15v-68h-15c-34 0 -51 -18.333 -51 -55v-308
c0 -30.667 -2.16699 -56.334 -6.5 -77.001s-12 -37.5 -23 -50.5s-26 -22.333 -45 -28s-43.5 -8.5 -73.5 -8.5h-11v72h11c26.667 0 44.5 6.5 53.5 19.5s13.5 37.167 13.5 72.5v303c0 24 3.66699 43.833 11 59.5s16.666 27.167 27.999 34.5
c-11.333 7.33301 -20.666 18.666 -27.999 33.999s-11 35.333 -11 60v302z" />
    <glyph glyph-name="asciitilde" unicode="~" horiz-adv-x="509" 
d="M44 403c5.33301 18 17.499 32.834 36.499 44.501s40.833 17.5 65.5 17.5c18.667 0 36.5 -3 53.5 -9s33.667 -12.833 50 -20.5s33 -14.5 50 -20.5s34.5 -9 52.5 -9c25.333 0 46 6.33301 62 19s28.333 29.667 37 51v-86c-4.66699 -17.333 -16.834 -31.833 -36.501 -43.5
s-42.5 -17.5 -68.5 -17.5c-19.333 0 -37.5 3 -54.5 9s-33.667 12.667 -50 20s-32.666 14 -48.999 20s-33.166 9 -50.499 9c-27.333 0 -48.5 -7.33301 -63.5 -22s-26.5 -30.334 -34.5 -47.001v85z" />
    <glyph glyph-name="nonbreakingspace" unicode="&#xa0;" horiz-adv-x="169" 
 />
    <glyph glyph-name="exclamdown" unicode="&#xa1;" horiz-adv-x="178" 
d="M28.0088 0.0478516l18.999 600.964h78.9951l19.999 -600.964h-117.993zM34.0088 790h104.993v-131.992h-104.993v131.992z" />
    <glyph glyph-name="cent" unicode="&#xa2;" horiz-adv-x="354" 
d="M221 810v-96.9961c18.667 -1.33301 34.167 -4 46.5 -8s22.166 -10.667 29.499 -20s12.333 -21.833 15 -37.5s4 -35.5 4 -59.5v-121h-93v110c0 18 -2.5 29.667 -7.5 35s-16.833 8 -35.5 8c-9.33301 0 -16.833 -0.5 -22.5 -1.5s-10 -3.16699 -13 -6.5s-5 -7.83301 -6 -13.5
s-1.5 -12.834 -1.5 -21.501v-365c0 -17.333 2.66699 -28.666 8 -33.999s17.333 -8 36 -8c18 0 29.5 2.66699 34.5 8s7.5 16.666 7.5 33.999v160h93v-170c0 -24.667 -1.33301 -44.834 -4 -60.501s-7.66699 -28.167 -15 -37.5s-17.166 -16.166 -29.499 -20.499
s-27.833 -6.83301 -46.5 -7.5v-96h-89v96c-19.333 1.33301 -35 4.16602 -47 8.49902s-21.5 11.333 -28.5 21s-11.833 22.167 -14.5 37.5s-4 35 -4 59v386c0 23.333 1.33301 42.833 4 58.5s7.5 28.167 14.5 37.5s16.5 16.166 28.5 20.499s27.667 7.16602 47 8.49902v97h89z
" />
    <glyph glyph-name="sterling" unicode="&#xa3;" horiz-adv-x="398" 
d="M21 0l-0.000976562 95.999h34v190h-34v83h34v265c0 36 2.16699 65 6.5 87s12.333 38.833 24 50.5s27.834 19.334 48.501 23.001s47.667 5.5 81 5.5c31.333 0 57 -1.83301 77 -5.5s35.833 -11.167 47.5 -22.5s19.667 -28 24 -50s6.5 -51.333 6.5 -88v-196h-105v196
c0 13.333 -0.5 24.166 -1.5 32.499s-3.33301 14.833 -7 19.5s-8.5 7.83398 -14.5 9.50098s-14 2.5 -24 2.5s-18.167 -0.833008 -24.5 -2.5s-11.333 -4.83398 -15 -9.50098s-6 -11.167 -7 -19.5s-1.5 -19.166 -1.5 -32.499v-265h178v-83h-178v-190h202v-96h-351z" />
    <glyph glyph-name="currency" unicode="&#xa4;" horiz-adv-x="515" 
d="M347 255c-9.33301 -4.66699 -21.001 -7.66602 -35.001 -8.99902s-31.667 -2 -53 -2s-39 0.666992 -53 2s-25.667 4.66602 -35 9.99902l-95 -95l-51 51l85 85c-2.66699 7.33301 -4.33398 16.333 -5.00098 27s-1 22.667 -1 36v69c0 12.667 0.333008 24.5 1 35.5
s2.33398 20.5 5.00098 28.5l-84 84l51 51l94 -95c10 4.66699 22 7.83398 36 9.50098s31.667 2.5 53 2.5c20.667 0 37.834 -0.833008 51.501 -2.5s25.167 -4.83398 34.5 -9.50098l95 95l51 -51l-83 -82c2.66699 -8 4.5 -17.667 5.5 -29s1.5 -23.666 1.5 -36.999v-69
c0 -28.667 -2.33301 -50.334 -7 -65.001l83 -83l-51 -51zM171.999 360.001c0 -11.333 0.833008 -20.5 2.5 -27.5s5.5 -12.5 11.5 -16.5s14.833 -6.83301 26.5 -8.5s27.5 -2.5 47.5 -2.5s35.833 0.833008 47.5 2.5s20.5 4.5 26.5 8.5s9.83301 9.5 11.5 16.5
s2.5 16.167 2.5 27.5v70c0 10.667 -0.833008 19.5 -2.5 26.5s-5.5 12.667 -11.5 17s-14.833 7.33301 -26.5 9s-27.5 2.5 -47.5 2.5s-35.833 -0.833008 -47.5 -2.5s-20.5 -4.66699 -26.5 -9s-9.83301 -10 -11.5 -17s-2.5 -15.833 -2.5 -26.5v-70z" />
    <glyph glyph-name="yen" unicode="&#xa5;" horiz-adv-x="394" 
d="M33 352h99l-108 438h112l59 -327h4l59 327h113l-106 -438h88v-70h-94v-83h94v-71h-94v-128h-121v128h-105v71h105v83h-105v70z" />
    <glyph glyph-name="brokenbar" unicode="&#xa6;" horiz-adv-x="226" 
d="M72 -185v444h82v-444h-82zM154 501h-82v418h82v-418z" />
    <glyph glyph-name="section" unicode="&#xa7;" horiz-adv-x="354" 
d="M221 624l-0.00195312 40.002c0 17.333 -2.5 28.833 -7.5 34.5s-16.833 8.5 -35.5 8.5c-19.333 0 -31.666 -2.83301 -36.999 -8.5s-8 -17.167 -8 -34.5v-38c0 -10 0.666992 -18 2 -24s4 -11.333 8 -16s9.5 -9 16.5 -13s16.167 -8.66699 27.5 -14
c28.667 -14 51.667 -25.667 69 -35s30.666 -19.166 39.999 -29.499s15.666 -22.333 18.999 -36s5 -31.5 5 -53.5v-75c0 -27.333 -2.66699 -48 -8 -62s-13.666 -25 -24.999 -33c14.667 -10.667 23.834 -24.834 27.501 -42.501s5.5 -40.167 5.5 -67.5v-62
c0 -28.667 -1.83301 -51.5 -5.5 -68.5s-10.667 -30 -21 -39s-24.666 -14.833 -42.999 -17.5s-42.166 -4 -71.499 -4c-30 0 -54.333 1.33301 -73 4s-33.334 8.5 -44.001 17.5s-18 22 -22 39s-6 39.833 -6 68.5v75h99v-64c0 -19.333 2.83301 -31.833 8.5 -37.5
s17.167 -8.5 34.5 -8.5c19.333 0 31.666 3 36.999 9s8 18.333 8 37v52c0 10.667 -0.666992 19.334 -2 26.001s-4.33301 12.5 -9 17.5s-11.334 9.66699 -20.001 14s-20 9.5 -34 15.5c-24 10 -43.833 18.833 -59.5 26.5s-28.167 16 -37.5 25s-15.833 19.667 -19.5 32
s-5.5 28.166 -5.5 47.499v75c0 33.333 2.83301 57.666 8.5 72.999s17.5 26.666 35.5 33.999c-18 10 -29.833 21.5 -35.5 34.5s-8.5 33.5 -8.5 61.5v66c0 28 1.83301 50.5 5.5 67.5s10.834 30 21.501 39s25.334 14.833 44.001 17.5s42.667 4 72 4s53.333 -1.33301 72 -4
s33.167 -8.5 43.5 -17.5s17.5 -22 21.5 -39s6 -39.5 6 -67.5v-50h-99zM220.998 392.002c0 19.333 -2.99805 33.832 -8.99805 43.499s-17.667 16.167 -35 19.5c-10.667 -1.33301 -18.834 -3.33301 -24.501 -6s-10 -7 -13 -13s-4.83301 -13.833 -5.5 -23.5
s-1 -22.167 -1 -37.5v-30c0 -9.33301 0.666992 -16.833 2 -22.5s4.33301 -10.5 9 -14.5s11.167 -7.66699 19.5 -11s19.5 -6.66602 33.5 -9.99902c11.333 2 18.166 8.33301 20.499 19s3.5 24.667 3.5 42v44z" />
    <glyph glyph-name="dieresis" unicode="&#xa8;" horiz-adv-x="370" 
d="M328 686h-102v104h102v-104zM147 686h-101v104h101v-104z" />
    <glyph glyph-name="copyright" unicode="&#xa9;" horiz-adv-x="594" 
d="M298 800c53.333 0 96.999 -2 130.999 -6s60.833 -12.833 80.5 -26.5s33.167 -33.167 40.5 -58.5s11 -59 11 -101v-426c0 -42 -3.66699 -75.667 -11 -101s-20.666 -44.833 -39.999 -58.5s-46.166 -22.5 -80.499 -26.5s-78.5 -6 -132.5 -6s-97.833 2 -131.5 6
s-60.167 12.833 -79.5 26.5s-32.5 33.167 -39.5 58.5s-10.5 59 -10.5 101v426c0 42 3.66699 75.667 11 101s20.666 44.833 39.999 58.5s46 22.5 80 26.5s77.667 6 131 6zM295.999 730c-38.667 0 -69.667 -1.66699 -93 -5s-41.166 -9.5 -53.499 -18.5
s-20.5 -21.5 -24.5 -37.5s-6 -36.333 -6 -61v-425c0 -25.333 1.83301 -45.833 5.5 -61.5s11.667 -28 24 -37s30.5 -15.167 54.5 -18.5s56 -5 96 -5c39.333 0 70.666 1.66699 93.999 5s41.333 9.5 54 18.5s20.834 21.333 24.501 37s5.5 36.167 5.5 61.5v425
c0 24 -1.83301 44 -5.5 60s-11.834 28.5 -24.501 37.5s-31 15.333 -55 19s-56 5.5 -96 5.5zM329.999 452l-0.00292969 60.002c0 10.667 -2 17.834 -6 21.501s-11.667 5.5 -23 5.5s-19.166 -1.83301 -23.499 -5.5s-6.5 -10.834 -6.5 -21.501v-222
c0 -11.333 1.83301 -18.833 5.5 -22.5s11.834 -5.5 24.501 -5.5c12 0 19.833 1.83301 23.5 5.5s5.5 11.167 5.5 22.5v95h59v-102c0 -19.333 -1.33301 -34.5 -4 -45.5s-7.33398 -19.333 -14.001 -25s-15.667 -9.33398 -27 -11.001s-25.333 -2.5 -42 -2.5
c-19.333 0 -35 0.833008 -47 2.5s-21.5 5.5 -28.5 11.5s-11.833 14.5 -14.5 25.5s-4 25.833 -4 44.5v237c0 18 1.33301 32.333 4 43s7.33398 19 14.001 25s15.834 9.83301 27.501 11.5s26.5 2.5 44.5 2.5c18.667 0 34 -1 46 -3s21.333 -5.83301 28 -11.5
s11.167 -13.834 13.5 -24.501s3.5 -25 3.5 -43v-68h-59z" />
    <glyph glyph-name="ordfeminine" unicode="&#xaa;" horiz-adv-x="269" 
d="M130 389c-18.667 0 -33.834 0.666992 -45.501 2s-20.834 4.33301 -27.501 9s-11.167 11.5 -13.5 20.5s-3.5 20.833 -3.5 35.5v79c0 21.333 4.83301 36.666 14.5 45.999s25.5 14 47.5 14h11c14 0 24 -0.333008 30 -1s10.667 -1.66699 14 -3v62
c0 10.667 -1.66699 17.5 -5 20.5s-10.333 4.5 -21 4.5c-11.333 0 -18.666 -1.66699 -21.999 -5s-5 -10 -5 -20v-35h-64v42c0 16 1.16699 28.833 3.5 38.5s7 17 14 22s16.5 8.33301 28.5 10s27.667 2.5 47 2.5c18.667 0 34.167 -0.833008 46.5 -2.5s21.833 -5 28.5 -10
s11.334 -12.333 14.001 -22s4 -22.5 4 -38.5v-265c-8.66699 -1.33301 -21 -2.66602 -37 -3.99902s-35.667 -2 -59 -2zM130 443c15.333 0 24.333 0.332031 27 0.999023v99c-6 2 -14.667 3 -26 3c-12 0 -19.5 -1.66699 -22.5 -5s-4.5 -10 -4.5 -20v-51
c0 -11.333 1.5 -18.666 4.5 -21.999s10.167 -5 21.5 -5z" />
    <glyph glyph-name="guillemotleft" unicode="&#xab;" horiz-adv-x="378" 
d="M23 299l114 300h64l-98 -300l98 -299h-64zM174 299l114 300h64l-98 -300l98 -299h-64z" />
    <glyph glyph-name="logicalnot" unicode="&#xac;" horiz-adv-x="493" 
d="M362 22v339h-318v90h408v-429h-90z" />
    <glyph glyph-name="registered" unicode="&#xae;" horiz-adv-x="594" 
d="M298 800c53.333 0 96.999 -2 130.999 -6s60.833 -12.833 80.5 -26.5s33.167 -33.167 40.5 -58.5s11 -59 11 -101v-426c0 -42 -3.66699 -75.667 -11 -101s-20.666 -44.833 -39.999 -58.5s-46.166 -22.5 -80.499 -26.5s-78.5 -6 -132.5 -6s-97.833 2 -131.5 6
s-60.167 12.833 -79.5 26.5s-32.5 33.167 -39.5 58.5s-10.5 59 -10.5 101v426c0 42 3.66699 75.667 11 101s20.666 44.833 39.999 58.5s46 22.5 80 26.5s77.667 6 131 6zM295.999 730c-38.667 0 -69.667 -1.66699 -93 -5s-41.166 -9.5 -53.499 -18.5
s-20.5 -21.5 -24.5 -37.5s-6 -36.333 -6 -61v-425c0 -25.333 1.83301 -45.833 5.5 -61.5s11.667 -28 24 -37s30.5 -15.167 54.5 -18.5s56 -5 96 -5c39.333 0 70.666 1.66699 93.999 5s41.333 9.5 54 18.5s20.834 21.333 24.501 37s5.5 36.167 5.5 61.5v425
c0 24 -1.83301 44 -5.5 60s-11.834 28.5 -24.501 37.5s-31 15.333 -55 19s-56 5.5 -96 5.5zM330.999 191l0.00292969 148.001c0 17.333 -1.33301 28.166 -4 32.499s-8.33398 6.5 -17.001 6.5h-42v-187h-69v431h100c21.333 0 38.666 -1.16699 51.999 -3.5
s23.666 -7 30.999 -14s12.333 -17 15 -30s4 -30.167 4 -51.5v-56c0 -22 -4.66699 -36.667 -14 -44s-18 -12 -26 -14v-4c12.667 -2.66699 22.5 -9 29.5 -19s10.5 -27.667 10.5 -53v-142h-70zM268.002 434.001l42.001 0.00195312c9.33301 0 15.166 2.16699 17.499 6.5
s3.5 11.166 3.5 20.499v62c0 15.333 -1.66699 25.166 -5 29.499s-11.333 6.5 -24 6.5h-34v-125z" />
    <glyph glyph-name="macron" unicode="&#xaf;" horiz-adv-x="383" 
d="M338 708h-292v61h292v-61z" />
    <glyph glyph-name="degree" unicode="&#xb0;" horiz-adv-x="336" 
d="M315 644c0 -21.333 -3.83301 -41.333 -11.5 -60s-18 -35 -31 -49s-28.333 -25 -46 -33s-36.834 -12 -57.501 -12s-40 4 -58 12s-33.5 19 -46.5 33s-23.333 30.333 -31 49s-11.5 38.667 -11.5 60s3.83301 41.5 11.5 60.5s18.167 35.5 31.5 49.5s28.833 25.167 46.5 33.5
s36.834 12.5 57.501 12.5c20 0 39 -4.16699 57 -12.5s33.5 -19.5 46.5 -33.5s23.333 -30.5 31 -49.5s11.5 -39.167 11.5 -60.5zM260 644c0 27.333 -8.83496 50.5 -26.502 69.5s-39.167 28.5 -64.5 28.5c-12.667 0 -24.667 -2.5 -36 -7.5s-21.166 -12 -29.499 -21
s-15 -19.5 -20 -31.5s-7.5 -24.667 -7.5 -38s2.33301 -25.833 7 -37.5s11.334 -22 20.001 -31s18.5 -16 29.5 -21s23.167 -7.5 36.5 -7.5c12.667 0 24.5 2.5 35.5 7.5s20.667 12 29 21s14.833 19.333 19.5 31s7 24.167 7 37.5z" />
    <glyph glyph-name="plusminus" unicode="&#xb1;" horiz-adv-x="493" 
d="M202 354h-158v91h158v157h90v-157h159v-91h-159v-158h-90v158zM44 -2v91h407v-91h-407z" />
    <glyph glyph-name="twosuperior" unicode="&#xb2;" horiz-adv-x="309" 
d="M44 354v152.001c0 14 0.666992 25.5 2 34.5s4 16.667 8 23s9.66699 12.166 17 17.499s17 11 29 17l58 29c10 5.33301 16.833 10.333 20.5 15s5.5 11 5.5 19v42c0 12.667 -1.83301 20.667 -5.5 24s-11.167 5 -22.5 5c-14 0 -23 -2 -27 -6s-6 -12 -6 -24v-57h-77v57
c0 20.667 1.5 37.167 4.5 49.5s8.5 21.833 16.5 28.5s19 11 33 13s32.333 3 55 3s41.167 -1 55.5 -3s25.5 -6.33301 33.5 -13s13.333 -16 16 -28s4 -28.333 4 -49v-44c0 -12 -0.833008 -22.167 -2.5 -30.5s-4.5 -15.5 -8.5 -21.5s-9.5 -11.5 -16.5 -16.5
s-15.833 -10.167 -26.5 -15.5l-62 -31c-10 -5.33301 -16.667 -10.333 -20 -15s-5 -12 -5 -22v-90h60v104h81v-167h-220z" />
    <glyph glyph-name="threesuperior" unicode="&#xb3;" horiz-adv-x="294" 
d="M114 529l-0.000976562 -87.0039c0 -12 2 -20 6 -24s12 -6 24 -6c12.667 0 20.667 2.16699 24 6.5s5 12.166 5 23.499v73c0 16.667 -1.33301 28 -4 34s-11 9 -25 9h-44v64h44c13.333 0 21.5 1.83301 24.5 5.5s4.5 10.167 4.5 19.5v55c0 13.333 -2 21.666 -6 24.999
s-11.667 5 -23 5c-15.333 0 -24.166 -2.16699 -26.499 -6.5s-3.5 -12.166 -3.5 -23.499v-54h-76v54c0 20.667 1.5 37.167 4.5 49.5s8.33301 21.833 16 28.5s18.167 11 31.5 13s30.666 3 51.999 3c22.667 0 41.334 -1.16699 56.001 -3.5s26 -6.66602 34 -12.999
s13.5 -15.666 16.5 -27.999s4.5 -28.5 4.5 -48.5v-53c0 -20 -3.33301 -34.333 -10 -43s-14.667 -14.667 -24 -18c11.333 -3.33301 19.833 -10.166 25.5 -20.499s8.5 -27.833 8.5 -52.5v-75c0 -20 -1.5 -36.167 -4.5 -48.5s-8.5 -21.666 -16.5 -27.999
s-19.333 -10.666 -34 -12.999s-33.334 -3.5 -56.001 -3.5c-21.333 0 -38.666 1 -51.999 3s-23.833 6.33301 -31.5 13s-13 16.167 -16 28.5s-4.5 28.833 -4.5 49.5v87h76z" />
    <glyph glyph-name="acute" unicode="&#xb4;" horiz-adv-x="201" 
d="M77 805h110l-95 -166h-78z" />
    <glyph glyph-name="paragraph" unicode="&#xb6;" horiz-adv-x="584" 
d="M232 -153v473h-35c-34 0 -61.667 1.83301 -83 5.5s-38 11.167 -50 22.5s-20.167 27.5 -24.5 48.5s-6.5 49.167 -6.5 84.5v148c0 35.333 2.16699 63.5 6.5 84.5s12.5 37.167 24.5 48.5s28.667 18.833 50 22.5s49 5.5 83 5.5h344v-943h-115v847h-79v-847h-115zM148 476
c0 -13.333 0.5 -24.167 1.5 -32.5s3.33301 -14.666 7 -18.999s8.66699 -7.33301 15 -9s14.833 -2.5 25.5 -2.5h35v277h-35c-10.667 0 -19.167 -0.833008 -25.5 -2.5s-11.333 -4.83398 -15 -9.50098s-6 -11 -7 -19s-1.5 -18.333 -1.5 -31v-152z" />
    <glyph glyph-name="periodcentered" unicode="&#xb7;" horiz-adv-x="191" 
d="M149 330h-105v132h105v-132z" />
    <glyph glyph-name="cedilla" unicode="&#xb8;" horiz-adv-x="178" 
d="M63 -20h102l-82 -165h-71z" />
    <glyph glyph-name="onesuperior" unicode="&#xb9;" horiz-adv-x="197" 
d="M28 791h125v-437h-79v375h-46v62z" />
    <glyph glyph-name="ordmasculine" unicode="&#xba;" horiz-adv-x="272" 
d="M230 462c0 -16 -1.16699 -28.667 -3.5 -38s-7 -16.666 -14 -21.999s-16.667 -8.83301 -29 -10.5s-28.5 -2.5 -48.5 -2.5c-19.333 0 -35.166 0.833008 -47.499 2.5s-22 5.16699 -29 10.5s-11.833 12.666 -14.5 21.999s-4 22 -4 38v198c0 16 1.33301 28.833 4 38.5
s7.5 17 14.5 22s16.667 8.33301 29 10s28.166 2.5 47.499 2.5c20 0 36.167 -0.833008 48.5 -2.5s22 -5 29 -10s11.667 -12.333 14 -22s3.5 -22.5 3.5 -38.5v-198zM163 654c0 8 -1.66602 13.167 -4.99902 15.5s-10.333 3.5 -21 3.5c-12 0 -19.833 -1.33301 -23.5 -4
s-5.5 -7.66699 -5.5 -15v-186c0 -8 1.66699 -13.333 5 -16s10.666 -4 21.999 -4s18.833 1.5 22.5 4.5s5.5 8.16699 5.5 15.5v186z" />
    <glyph glyph-name="guillemotright" unicode="&#xbb;" horiz-adv-x="378" 
d="M83 0h-65l99 299l-99 300h65l114 -300zM241 0h-65l99 299l-99 300h65l114 -300z" />
    <glyph glyph-name="onequarter" unicode="&#xbc;" horiz-adv-x="622" 
d="M459 790l-330 -790h-78l330 790h78zM28 791h125v-437h-79v375h-46v62zM589 184v-62h-29v-122h-81v122h-125v317h72v-255h53v188h81v-188h29z" />
    <glyph glyph-name="onehalf" unicode="&#xbd;" horiz-adv-x="619" 
d="M459 790l-330 -790h-78l330 790h78zM28 791h125v-437h-79v375h-46v62zM354 0v152.001c0 14 0.666992 25.5 2 34.5s4 16.667 8 23s9.66699 12.166 17 17.499s17 11 29 17l58 29c10 5.33301 16.833 10.333 20.5 15s5.5 11 5.5 19v42c0 12.667 -1.83301 20.667 -5.5 24
s-11.167 5 -22.5 5c-14 0 -23 -2 -27 -6s-6 -12 -6 -24v-57h-77v57c0 20.667 1.5 37.167 4.5 49.5s8.5 21.833 16.5 28.5s19 11 33 13s32.333 3 55 3s41.167 -1 55.5 -3s25.5 -6.33301 33.5 -13s13.333 -16 16 -28s4 -28.333 4 -49v-44c0 -12 -0.833008 -22.167 -2.5 -30.5
s-4.5 -15.5 -8.5 -21.5s-9.5 -11.5 -16.5 -16.5s-15.833 -10.167 -26.5 -15.5l-62 -31c-10 -5.33301 -16.667 -10.333 -20 -15s-5 -12 -5 -22v-90h60v104h81v-167h-220z" />
    <glyph glyph-name="threequarters" unicode="&#xbe;" horiz-adv-x="719" 
d="M556 790l-330 -790h-78l330 790h78zM686 184v-62h-29v-122h-81v122h-125v317h72v-255h53v188h81v-188h29zM114 529l-0.000976562 -87.0039c0 -12 2 -20 6 -24s12 -6 24 -6c12.667 0 20.667 2.16699 24 6.5s5 12.166 5 23.499v73c0 16.667 -1.33301 28 -4 34s-11 9 -25 9
h-44v64h44c13.333 0 21.5 1.83301 24.5 5.5s4.5 10.167 4.5 19.5v55c0 13.333 -2 21.666 -6 24.999s-11.667 5 -23 5c-15.333 0 -24.166 -2.16699 -26.499 -6.5s-3.5 -12.166 -3.5 -23.499v-54h-76v54c0 20.667 1.5 37.167 4.5 49.5s8.33301 21.833 16 28.5
s18.167 11 31.5 13s30.666 3 51.999 3c22.667 0 41.334 -1.16699 56.001 -3.5s26 -6.66602 34 -12.999s13.5 -15.666 16.5 -27.999s4.5 -28.5 4.5 -48.5v-53c0 -20 -3.33301 -34.333 -10 -43s-14.667 -14.667 -24 -18c11.333 -3.33301 19.833 -10.166 25.5 -20.499
s8.5 -27.833 8.5 -52.5v-75c0 -20 -1.5 -36.167 -4.5 -48.5s-8.5 -21.666 -16.5 -27.999s-19.333 -10.666 -34 -12.999s-33.334 -3.5 -56.001 -3.5c-21.333 0 -38.666 1 -51.999 3s-23.833 6.33301 -31.5 13s-13 16.167 -16 28.5s-4.5 28.833 -4.5 49.5v87h76z" />
    <glyph glyph-name="questiondown" unicode="&#xbf;" horiz-adv-x="385" 
d="M147.015 790h104.993v-130.992h-104.993v130.992zM250.008 537.016c0 -16.666 -0.499023 -31.002 -1.49902 -43.001s-2.83301 -22.998 -5.49902 -32.9971c-2.66699 -9.99902 -6 -19.165 -10 -27.498c-3.99902 -8.33301 -8.99902 -17.499 -14.999 -27.498
l-54.9961 -86.9951c-8 -12.665 -13.166 -24.4971 -15.499 -35.4961s-3.5 -26.8311 -3.5 -47.4961v-79.9951c0 -13.333 0.666992 -24.166 2 -32.499s3.66602 -14.666 6.99902 -18.999s8.16602 -7.33301 14.499 -9c6.33301 -1.66602 14.833 -2.49902 25.499 -2.49902
c11.333 0 20.166 0.833008 26.499 2.49902c6.33301 1.66699 11.166 4.83398 14.499 9.50098c3.33301 4.66602 5.5 11.166 6.5 19.499s1.5 18.832 1.5 31.498v99.9932h111.993v-99.9932c0 -36.665 -2.33301 -65.8301 -7 -87.4951
c-4.66602 -21.665 -12.999 -38.3311 -24.998 -49.9971s-28.498 -19.332 -49.4971 -22.998c-20.999 -3.66699 -48.1641 -5.5 -81.4951 -5.5s-60.4961 1.83301 -81.4951 5.5c-20.999 3.66602 -37.498 11.332 -49.4971 22.998s-20.332 28.332 -24.998 49.9971
c-4.66699 21.665 -7 50.8301 -7 87.4951v70.9951c0 17.333 0.5 31.999 1.5 43.998s2.83301 22.998 5.5 32.9971s6.33301 19.832 10.999 29.499c4.66699 9.66602 11 20.498 18.999 32.4971l68.9961 109.994c3.99902 5.99902 7.16504 11.332 9.49805 15.999
c2.33301 4.66602 4.16602 9.33203 5.49902 13.999c1.33301 4.66602 2.16602 9.83203 2.49902 15.499c0.333008 5.66602 0.5 12.499 0.5 20.499v58.9961h97.9941v-63.9961z" />
    <glyph glyph-name="Agrave" unicode="&#xc0;" 
d="M247 0v176h-97v-176h-112v634c0 36 2.16699 65 6.5 87s12.5 38.833 24.5 50.5s28.167 19.334 48.5 23.001s46.5 5.5 78.5 5.5c33.333 0 60.833 -2 82.5 -6s38.667 -11.833 51 -23.5s20.833 -28.334 25.5 -50.001s7 -50.5 7 -86.5v-634h-115zM198 697
c-10 0 -18.168 -0.833008 -24.501 -2.5s-11.333 -4.66699 -15 -9s-6 -10.666 -7 -18.999s-1.5 -19.166 -1.5 -32.499v-364h97v364c0 13.333 -0.666992 24.166 -2 32.499s-3.66602 14.666 -6.99902 18.999s-8.33301 7.33301 -15 9s-15 2.5 -25 2.5zM254.999 830h-77l-96 166
h110z" />
    <glyph glyph-name="Aacute" unicode="&#xc1;" 
d="M247 0v176h-97v-176h-112v634c0 36 2.16699 65 6.5 87s12.5 38.833 24.5 50.5s28.167 19.334 48.5 23.001s46.5 5.5 78.5 5.5c33.333 0 60.833 -2 82.5 -6s38.667 -11.833 51 -23.5s20.833 -28.334 25.5 -50.001s7 -50.5 7 -86.5v-634h-115zM198 697
c-10 0 -18.168 -0.833008 -24.501 -2.5s-11.333 -4.66699 -15 -9s-6 -10.666 -7 -18.999s-1.5 -19.166 -1.5 -32.499v-364h97v364c0 13.333 -0.666992 24.166 -2 32.499s-3.66602 14.666 -6.99902 18.999s-8.33301 7.33301 -15 9s-15 2.5 -25 2.5zM204.999 996h110l-95 -166
h-78z" />
    <glyph glyph-name="Acircumflex" unicode="&#xc2;" 
d="M247 0v176h-97v-176h-112v634c0 36 2.16699 65 6.5 87s12.5 38.833 24.5 50.5s28.167 19.334 48.5 23.001s46.5 5.5 78.5 5.5c33.333 0 60.833 -2 82.5 -6s38.667 -11.833 51 -23.5s20.833 -28.334 25.5 -50.001s7 -50.5 7 -86.5v-634h-115zM198 697
c-10 0 -18.168 -0.833008 -24.501 -2.5s-11.333 -4.66699 -15 -9s-6 -10.666 -7 -18.999s-1.5 -19.166 -1.5 -32.499v-364h97v364c0 13.333 -0.666992 24.166 -2 32.499s-3.66602 14.666 -6.99902 18.999s-8.33301 7.33301 -15 9s-15 2.5 -25 2.5zM344.999 830h-72l-73 109
l-73 -109h-72l102 166h87z" />
    <glyph glyph-name="Atilde" unicode="&#xc3;" 
d="M247 0v176h-97v-176h-112v634c0 36 2.16699 65 6.5 87s12.5 38.833 24.5 50.5s28.167 19.334 48.5 23.001s46.5 5.5 78.5 5.5c33.333 0 60.833 -2 82.5 -6s38.667 -11.833 51 -23.5s20.833 -28.334 25.5 -50.001s7 -50.5 7 -86.5v-634h-115zM198 697
c-10 0 -18.168 -0.833008 -24.501 -2.5s-11.333 -4.66699 -15 -9s-6 -10.666 -7 -18.999s-1.5 -19.166 -1.5 -32.499v-364h97v364c0 13.333 -0.666992 24.166 -2 32.499s-3.66602 14.666 -6.99902 18.999s-8.33301 7.33301 -15 9s-15 2.5 -25 2.5zM122.999 914
c-18 0 -32.1699 -3.3291 -42.5029 -9.99609s-19.166 -15.334 -26.499 -26.001v73c7.33301 7.33301 17 13.5 29 18.5s25.667 7.5 41 7.5c12.667 0 25.167 -1.66699 37.5 -5l37.5 -10.5l38 -10.5c12.667 -3.33301 25.667 -5 39 -5c17.333 0 31.5 3.16699 42.5 9.5
s20.167 15.166 27.5 26.499v-72c-7.33301 -8.66699 -17 -15.667 -29 -21s-26 -8 -42 -8c-13.333 0 -26.333 1.66699 -39 5s-25.167 7.16602 -37.5 11.499s-24.666 8.16602 -36.999 11.499s-25.166 5 -38.499 5z" />
    <glyph glyph-name="Adieresis" unicode="&#xc4;" 
d="M247 0v176h-97v-176h-112v634c0 36 2.16699 65 6.5 87s12.5 38.833 24.5 50.5s28.167 19.334 48.5 23.001s46.5 5.5 78.5 5.5c33.333 0 60.833 -2 82.5 -6s38.667 -11.833 51 -23.5s20.833 -28.334 25.5 -50.001s7 -50.5 7 -86.5v-634h-115zM198 697
c-10 0 -18.168 -0.833008 -24.501 -2.5s-11.333 -4.66699 -15 -9s-6 -10.666 -7 -18.999s-1.5 -19.166 -1.5 -32.499v-364h97v364c0 13.333 -0.666992 24.166 -2 32.499s-3.66602 14.666 -6.99902 18.999s-8.33301 7.33301 -15 9s-15 2.5 -25 2.5zM341.999 877h-102v104h102
v-104zM160.999 877h-101v104h101v-104z" />
    <glyph glyph-name="Aring" unicode="&#xc5;" 
d="M247 0v176h-97v-176h-112v634c0 36 2.16699 65 6.5 87s12.5 38.833 24.5 50.5s28.167 19.334 48.5 23.001s46.5 5.5 78.5 5.5c33.333 0 60.833 -2 82.5 -6s38.667 -11.833 51 -23.5s20.833 -28.334 25.5 -50.001s7 -50.5 7 -86.5v-634h-115zM198 697
c-10 0 -18.168 -0.833008 -24.501 -2.5s-11.333 -4.66699 -15 -9s-6 -10.666 -7 -18.999s-1.5 -19.166 -1.5 -32.499v-364h97v364c0 13.333 -0.666992 24.166 -2 32.499s-3.66602 14.666 -6.99902 18.999s-8.33301 7.33301 -15 9s-15 2.5 -25 2.5zM279.999 888
c0 -15.333 -1.16699 -27.333 -3.5 -36s-6.5 -15.5 -12.5 -20.5s-14.333 -8.16699 -25 -9.5s-24.334 -2 -41.001 -2s-30.167 0.666992 -40.5 2s-18.5 4.5 -24.5 9.5s-10.167 11.833 -12.5 20.5s-3.5 20.667 -3.5 36v40c0 14.667 1.16699 26.5 3.5 35.5s6.5 16 12.5 21
s14.167 8.16699 24.5 9.5s23.833 2 40.5 2s30.334 -0.666992 41.001 -2s19 -4.5 25 -9.5s10.167 -12 12.5 -21s3.5 -20.833 3.5 -35.5v-40zM237.999 924c0 13.333 -2.5 21.5 -7.5 24.5s-15.833 4.5 -32.5 4.5c-16 0 -26.5 -1.5 -31.5 -4.5s-7.5 -11.167 -7.5 -24.5v-32
c0 -13.333 2.5 -21.5 7.5 -24.5s15.5 -4.5 31.5 -4.5c16.667 0 27.5 1.5 32.5 4.5s7.5 11.167 7.5 24.5v32z" />
    <glyph glyph-name="AE" unicode="&#xc6;" horiz-adv-x="486" 
d="M222 0v176h-72v-176h-112v629c0 36.667 2.16699 65.667 6.5 87s12.5 37.5 24.5 48.5s28.5 18 49.5 21s47.833 4.5 80.5 4.5h242v-96h-107v-114h104v-92h-104v-390h108v-98h-220zM150 270l72 -0.000976562v424h-24c-10 0 -18.167 -0.666992 -24.5 -2
s-11.333 -4.16602 -15 -8.49902s-6 -10.5 -7 -18.5s-1.5 -18.667 -1.5 -32v-363z" />
    <glyph glyph-name="Ccedilla" unicode="&#xc7;" horiz-adv-x="394" 
d="M248 455l0.000976562 179.004c0 13.333 -0.5 24.166 -1.5 32.499s-3.33301 14.666 -7 18.999s-8.66699 7.33301 -15 9s-14.5 2.5 -24.5 2.5c-10.667 0 -19.167 -0.833008 -25.5 -2.5s-11.333 -4.83398 -15 -9.50098s-6 -11.167 -7 -19.5s-1.5 -18.833 -1.5 -31.5v-477
c0 -14 0.5 -25.167 1.5 -33.5s3.33301 -14.833 7 -19.5s8.66699 -7.83398 15 -9.50098s14.833 -2.5 25.5 -2.5c10 0 18.167 0.833008 24.5 2.5s11.333 4.83398 15 9.50098s6 11.167 7 19.5s1.5 19.5 1.5 33.5v183h111v-183c0 -37.333 -2.16699 -67 -6.5 -89
s-12.5 -38.667 -24.5 -50s-28.333 -18.833 -49 -22.5s-47 -5.5 -79 -5.5c-34 0 -61.667 1.83301 -83 5.5s-38 11.334 -50 23.001s-20.167 28.5 -24.5 50.5s-6.5 51.333 -6.5 88v477c0 36 2.33301 65 7 87s13.167 38.833 25.5 50.5s29.166 19.334 50.499 23.001
s48.333 5.5 81 5.5c32 0 58.333 -1.83301 79 -5.5s37 -11.334 49 -23.001s20.167 -28.334 24.5 -50.001s6.5 -50.834 6.5 -87.501v-179h-111zM143.001 -19.9961h102l-82 -165h-71z" />
    <glyph glyph-name="Egrave" unicode="&#xc8;" horiz-adv-x="293" 
d="M270 0h-226v790h225v-95h-110v-115h107v-91h-107v-390h111v-99zM213 830h-77l-96 166h110z" />
    <glyph glyph-name="Egrave" unicode="&#x400;" horiz-adv-x="293" 
d="M270 0h-226v790h225v-95h-110v-115h107v-91h-107v-390h111v-99zM213 830h-77l-96 166h110z" />
    <glyph glyph-name="Eacute" unicode="&#xc9;" horiz-adv-x="293" 
d="M270 0h-226v790h225v-95h-110v-115h107v-91h-107v-390h111v-99zM163 996h110l-95 -166h-78z" />
    <glyph glyph-name="Ecircumflex" unicode="&#xca;" horiz-adv-x="293" 
d="M270 0h-226v790h225v-95h-110v-115h107v-91h-107v-390h111v-99zM302 830h-72l-73 109l-73 -109h-72l102 166h87z" />
    <glyph glyph-name="Edieresis" unicode="&#xcb;" horiz-adv-x="293" 
d="M270 0h-226v790h225v-95h-110v-115h107v-91h-107v-390h111v-99zM299 877h-102v104h102v-104zM118 877h-101v104h101v-104z" />
    <glyph glyph-name="Edieresis" unicode="&#x401;" horiz-adv-x="293" 
d="M270 0h-226v790h225v-95h-110v-115h107v-91h-107v-390h111v-99zM299 877h-102v104h102v-104zM118 877h-101v104h101v-104z" />
    <glyph glyph-name="Igrave" unicode="&#xcc;" horiz-adv-x="205" 
d="M161 0h-115v790h115v-790zM159 830h-77l-96 166h110z" />
    <glyph glyph-name="Iacute" unicode="&#xcd;" horiz-adv-x="205" 
d="M161 0h-115v790h115v-790zM109 996h110l-95 -166h-78z" />
    <glyph glyph-name="Icircumflex" unicode="&#xce;" horiz-adv-x="205" 
d="M161 0h-115v790h115v-790zM249 830h-72l-73 109l-73 -109h-72l102 166h87z" />
    <glyph glyph-name="Idieresis" unicode="&#xcf;" horiz-adv-x="205" 
d="M161 0h-115v790h115v-790zM246 877h-102v104h102v-104zM65 877h-101v104h101v-104z" />
    <glyph glyph-name="Idieresis" unicode="&#x407;" horiz-adv-x="205" 
d="M161 0h-115v790h115v-790zM246 877h-102v104h102v-104zM65 877h-101v104h101v-104z" />
    <glyph glyph-name="Idieresis" unicode="&#x3aa;" horiz-adv-x="205" 
d="M161 0h-115v790h115v-790zM246 877h-102v104h102v-104zM65 877h-101v104h101v-104z" />
    <glyph glyph-name="Eth" unicode="&#xd0;" horiz-adv-x="428" 
d="M38 580l27 -0.00195312v210h165c34 0 61.667 -1.83301 83 -5.5s38 -11.167 50 -22.5s20.167 -27.5 24.5 -48.5s6.5 -49.167 6.5 -84.5v-467c0 -35.333 -2.16699 -63.666 -6.5 -84.999s-12.5 -37.666 -24.5 -48.999s-28.667 -18.833 -50 -22.5s-49 -5.5 -83 -5.5h-165v489
h-27v91zM177 579.998h54v-91h-54v-389h56c10.667 0 19.167 0.666992 25.5 2s11.333 4.33301 15 9s6.16699 11 7.5 19s2 18.667 2 32v467c0 26 -3.16699 42.833 -9.5 50.5s-19.833 11.5 -40.5 11.5h-56v-111z" />
    <glyph glyph-name="Eth" unicode="&#x110;" horiz-adv-x="428" 
d="M38 580l27 -0.00195312v210h165c34 0 61.667 -1.83301 83 -5.5s38 -11.167 50 -22.5s20.167 -27.5 24.5 -48.5s6.5 -49.167 6.5 -84.5v-467c0 -35.333 -2.16699 -63.666 -6.5 -84.999s-12.5 -37.666 -24.5 -48.999s-28.667 -18.833 -50 -22.5s-49 -5.5 -83 -5.5h-165v489
h-27v91zM177 579.998h54v-91h-54v-389h56c10.667 0 19.167 0.666992 25.5 2s11.333 4.33301 15 9s6.16699 11 7.5 19s2 18.667 2 32v467c0 26 -3.16699 42.833 -9.5 50.5s-19.833 11.5 -40.5 11.5h-56v-111z" />
    <glyph glyph-name="Ntilde" unicode="&#xd1;" horiz-adv-x="432" 
d="M266 0l-119 493h-4v-493h-99v790h127l114 -507h4v507h100v-790h-123zM139 914c-18 0 -32.1699 -3.3291 -42.5029 -9.99609s-19.166 -15.334 -26.499 -26.001v73c7.33301 7.33301 17 13.5 29 18.5s25.667 7.5 41 7.5c12.667 0 25.167 -1.66699 37.5 -5l37.5 -10.5
l38 -10.5c12.667 -3.33301 25.667 -5 39 -5c17.333 0 31.5 3.16699 42.5 9.5s20.167 15.166 27.5 26.499v-72c-7.33301 -8.66699 -17 -15.667 -29 -21s-26 -8 -42 -8c-13.333 0 -26.333 1.66699 -39 5s-25.167 7.16602 -37.5 11.499s-24.666 8.16602 -36.999 11.499
s-25.166 5 -38.499 5z" />
    <glyph glyph-name="Ograve" unicode="&#xd2;" 
d="M365 157c0 -36.667 -2.16699 -66 -6.5 -88s-12.666 -38.833 -24.999 -50.5s-29.166 -19.334 -50.499 -23.001s-49 -5.5 -83 -5.5s-61.667 1.83301 -83 5.5s-38 11.334 -50 23.001s-20.167 28.5 -24.5 50.5s-6.5 51.333 -6.5 88v477c0 36.667 2.16699 65.834 6.5 87.501
s12.5 38.334 24.5 50.001s28.667 19.334 50 23.001s49 5.5 83 5.5s61.667 -1.83301 83 -5.5s38.166 -11.334 50.499 -23.001s20.666 -28.334 24.999 -50.001s6.5 -50.834 6.5 -87.501v-477zM249 634c0 13.333 -0.501953 24.1699 -1.50195 32.5029s-3.33301 14.666 -7 18.999
s-8.66699 7.33301 -15 9s-14.5 2.5 -24.5 2.5c-21.333 0 -35 -4 -41 -12s-9 -25 -9 -51v-477c0 -14 0.5 -25.167 1.5 -33.5s3.33301 -14.833 7 -19.5s8.66699 -7.83398 15 -9.50098s14.5 -2.5 24.5 -2.5c10.667 0 19.334 0.833008 26.001 2.5s11.834 5 15.501 10
s6 11.667 7 20s1.5 19.166 1.5 32.499v477zM255.998 830.004h-77l-96 166h110z" />
    <glyph glyph-name="Oacute" unicode="&#xd3;" 
d="M365 157c0 -36.667 -2.16699 -66 -6.5 -88s-12.666 -38.833 -24.999 -50.5s-29.166 -19.334 -50.499 -23.001s-49 -5.5 -83 -5.5s-61.667 1.83301 -83 5.5s-38 11.334 -50 23.001s-20.167 28.5 -24.5 50.5s-6.5 51.333 -6.5 88v477c0 36.667 2.16699 65.834 6.5 87.501
s12.5 38.334 24.5 50.001s28.667 19.334 50 23.001s49 5.5 83 5.5s61.667 -1.83301 83 -5.5s38.166 -11.334 50.499 -23.001s20.666 -28.334 24.999 -50.001s6.5 -50.834 6.5 -87.501v-477zM249 634c0 13.333 -0.501953 24.1699 -1.50195 32.5029s-3.33301 14.666 -7 18.999
s-8.66699 7.33301 -15 9s-14.5 2.5 -24.5 2.5c-21.333 0 -35 -4 -41 -12s-9 -25 -9 -51v-477c0 -14 0.5 -25.167 1.5 -33.5s3.33301 -14.833 7 -19.5s8.66699 -7.83398 15 -9.50098s14.5 -2.5 24.5 -2.5c10.667 0 19.334 0.833008 26.001 2.5s11.834 5 15.501 10
s6 11.667 7 20s1.5 19.166 1.5 32.499v477zM205.998 996.004h110l-95 -166h-78z" />
    <glyph glyph-name="Ocircumflex" unicode="&#xd4;" 
d="M365 157c0 -36.667 -2.16699 -66 -6.5 -88s-12.666 -38.833 -24.999 -50.5s-29.166 -19.334 -50.499 -23.001s-49 -5.5 -83 -5.5s-61.667 1.83301 -83 5.5s-38 11.334 -50 23.001s-20.167 28.5 -24.5 50.5s-6.5 51.333 -6.5 88v477c0 36.667 2.16699 65.834 6.5 87.501
s12.5 38.334 24.5 50.001s28.667 19.334 50 23.001s49 5.5 83 5.5s61.667 -1.83301 83 -5.5s38.166 -11.334 50.499 -23.001s20.666 -28.334 24.999 -50.001s6.5 -50.834 6.5 -87.501v-477zM249 634c0 13.333 -0.501953 24.1699 -1.50195 32.5029s-3.33301 14.666 -7 18.999
s-8.66699 7.33301 -15 9s-14.5 2.5 -24.5 2.5c-21.333 0 -35 -4 -41 -12s-9 -25 -9 -51v-477c0 -14 0.5 -25.167 1.5 -33.5s3.33301 -14.833 7 -19.5s8.66699 -7.83398 15 -9.50098s14.5 -2.5 24.5 -2.5c10.667 0 19.334 0.833008 26.001 2.5s11.834 5 15.501 10
s6 11.667 7 20s1.5 19.166 1.5 32.499v477zM344.998 830.004h-72l-73 109l-73 -109h-72l102 166h87z" />
    <glyph glyph-name="Otilde" unicode="&#xd5;" 
d="M365 157c0 -36.667 -2.16699 -66 -6.5 -88s-12.666 -38.833 -24.999 -50.5s-29.166 -19.334 -50.499 -23.001s-49 -5.5 -83 -5.5s-61.667 1.83301 -83 5.5s-38 11.334 -50 23.001s-20.167 28.5 -24.5 50.5s-6.5 51.333 -6.5 88v477c0 36.667 2.16699 65.834 6.5 87.501
s12.5 38.334 24.5 50.001s28.667 19.334 50 23.001s49 5.5 83 5.5s61.667 -1.83301 83 -5.5s38.166 -11.334 50.499 -23.001s20.666 -28.334 24.999 -50.001s6.5 -50.834 6.5 -87.501v-477zM249 634c0 13.333 -0.501953 24.1699 -1.50195 32.5029s-3.33301 14.666 -7 18.999
s-8.66699 7.33301 -15 9s-14.5 2.5 -24.5 2.5c-21.333 0 -35 -4 -41 -12s-9 -25 -9 -51v-477c0 -14 0.5 -25.167 1.5 -33.5s3.33301 -14.833 7 -19.5s8.66699 -7.83398 15 -9.50098s14.5 -2.5 24.5 -2.5c10.667 0 19.334 0.833008 26.001 2.5s11.834 5 15.501 10
s6 11.667 7 20s1.5 19.166 1.5 32.499v477zM122.998 914.004c-18 0 -32.1699 -3.3291 -42.5029 -9.99609s-19.166 -15.334 -26.499 -26.001v73c7.33301 7.33301 17 13.5 29 18.5s25.667 7.5 41 7.5c12.667 0 25.167 -1.66699 37.5 -5l37.5 -10.5l38 -10.5
c12.667 -3.33301 25.667 -5 39 -5c17.333 0 31.5 3.16699 42.5 9.5s20.167 15.166 27.5 26.499v-72c-7.33301 -8.66699 -17 -15.667 -29 -21s-26 -8 -42 -8c-13.333 0 -26.333 1.66699 -39 5s-25.167 7.16602 -37.5 11.499s-24.666 8.16602 -36.999 11.499
s-25.166 5 -38.499 5z" />
    <glyph glyph-name="Odieresis" unicode="&#xd6;" 
d="M365 157c0 -36.667 -2.16699 -66 -6.5 -88s-12.666 -38.833 -24.999 -50.5s-29.166 -19.334 -50.499 -23.001s-49 -5.5 -83 -5.5s-61.667 1.83301 -83 5.5s-38 11.334 -50 23.001s-20.167 28.5 -24.5 50.5s-6.5 51.333 -6.5 88v477c0 36.667 2.16699 65.834 6.5 87.501
s12.5 38.334 24.5 50.001s28.667 19.334 50 23.001s49 5.5 83 5.5s61.667 -1.83301 83 -5.5s38.166 -11.334 50.499 -23.001s20.666 -28.334 24.999 -50.001s6.5 -50.834 6.5 -87.501v-477zM249 634c0 13.333 -0.501953 24.1699 -1.50195 32.5029s-3.33301 14.666 -7 18.999
s-8.66699 7.33301 -15 9s-14.5 2.5 -24.5 2.5c-21.333 0 -35 -4 -41 -12s-9 -25 -9 -51v-477c0 -14 0.5 -25.167 1.5 -33.5s3.33301 -14.833 7 -19.5s8.66699 -7.83398 15 -9.50098s14.5 -2.5 24.5 -2.5c10.667 0 19.334 0.833008 26.001 2.5s11.834 5 15.501 10
s6 11.667 7 20s1.5 19.166 1.5 32.499v477zM341.998 877.004h-102v104h102v-104zM160.998 877.004h-101v104h101v-104z" />
    <glyph glyph-name="multiply" unicode="&#xd7;" horiz-adv-x="479" 
d="M242 336l-113 -113l-64 64l113 113l-112 111l63 64l113 -112l111 112l64 -64l-112 -111l112 -113l-64 -64z" />
    <glyph glyph-name="Oslash" unicode="&#xd8;" 
d="M365 157c0 -36 -2.16504 -65.0029 -6.49805 -87.0029s-12.333 -39 -24 -51s-27.834 -19.833 -48.501 -23.5s-47.334 -5.5 -80.001 -5.5c-19.333 0 -35.333 0.5 -48 1.5s-24.334 2.16699 -35.001 3.5l-17 -64h-70l26 93c-10 12 -16.833 28.667 -20.5 50s-5.5 49 -5.5 83
v477c0 36.667 2.16699 65.834 6.5 87.501s12.5 38.334 24.5 50.001s28.667 19.334 50 23.001s49 5.5 83 5.5c15.333 0 29.333 -0.333008 42 -1s24.334 -1.66699 35.001 -3l18 64h70l-26 -94c10 -12 16.833 -28.5 20.5 -49.5s5.5 -48.5 5.5 -82.5v-477zM151.002 342.997
l92.999 334.999c-3.33301 7.33301 -8.16602 12.333 -14.499 15s-15.833 4 -28.5 4c-21.333 0 -35 -4.16699 -41 -12.5s-9 -25.166 -9 -50.499v-291zM249.001 443.996l-93.001 -334.003c3.33301 -7.33301 8.33301 -12.166 15 -14.499s15.667 -3.5 27 -3.5
s20.333 0.833008 27 2.5s11.834 4.83398 15.501 9.50098s6 11.334 7 20.001s1.5 19.667 1.5 33v287z" />
    <glyph glyph-name="Ugrave" unicode="&#xd9;" horiz-adv-x="403" 
d="M203 -10c-33.333 0 -60.498 1.83301 -81.498 5.5s-37.5 11.334 -49.5 23.001s-20.333 28.5 -25 50.5s-7 51.333 -7 88v633h115v-633c0 -14 0.666992 -25.167 2 -33.5s3.66602 -14.666 6.99902 -18.999s8.33301 -7.33301 15 -9s15 -2.5 25 -2.5s18.333 0.833008 25 2.5
s11.667 4.66699 15 9s5.66602 10.666 6.99902 18.999s2 19.5 2 33.5v633h112v-633c0 -36.667 -2.33301 -66 -7 -88s-13 -38.833 -25 -50.5s-28.5 -19.334 -49.5 -23.001s-47.833 -5.5 -80.5 -5.5zM258.002 830h-77l-96 166h110z" />
    <glyph glyph-name="Uacute" unicode="&#xda;" horiz-adv-x="403" 
d="M203 -10c-33.333 0 -60.498 1.83301 -81.498 5.5s-37.5 11.334 -49.5 23.001s-20.333 28.5 -25 50.5s-7 51.333 -7 88v633h115v-633c0 -14 0.666992 -25.167 2 -33.5s3.66602 -14.666 6.99902 -18.999s8.33301 -7.33301 15 -9s15 -2.5 25 -2.5s18.333 0.833008 25 2.5
s11.667 4.66699 15 9s5.66602 10.666 6.99902 18.999s2 19.5 2 33.5v633h112v-633c0 -36.667 -2.33301 -66 -7 -88s-13 -38.833 -25 -50.5s-28.5 -19.334 -49.5 -23.001s-47.833 -5.5 -80.5 -5.5zM208.002 996h110l-95 -166h-78z" />
    <glyph glyph-name="Ucircumflex" unicode="&#xdb;" horiz-adv-x="403" 
d="M203 -10c-33.333 0 -60.498 1.83301 -81.498 5.5s-37.5 11.334 -49.5 23.001s-20.333 28.5 -25 50.5s-7 51.333 -7 88v633h115v-633c0 -14 0.666992 -25.167 2 -33.5s3.66602 -14.666 6.99902 -18.999s8.33301 -7.33301 15 -9s15 -2.5 25 -2.5s18.333 0.833008 25 2.5
s11.667 4.66699 15 9s5.66602 10.666 6.99902 18.999s2 19.5 2 33.5v633h112v-633c0 -36.667 -2.33301 -66 -7 -88s-13 -38.833 -25 -50.5s-28.5 -19.334 -49.5 -23.001s-47.833 -5.5 -80.5 -5.5zM347.002 830h-72l-73 109l-73 -109h-72l102 166h87z" />
    <glyph glyph-name="Udieresis" unicode="&#xdc;" horiz-adv-x="403" 
d="M203 -10c-33.333 0 -60.498 1.83301 -81.498 5.5s-37.5 11.334 -49.5 23.001s-20.333 28.5 -25 50.5s-7 51.333 -7 88v633h115v-633c0 -14 0.666992 -25.167 2 -33.5s3.66602 -14.666 6.99902 -18.999s8.33301 -7.33301 15 -9s15 -2.5 25 -2.5s18.333 0.833008 25 2.5
s11.667 4.66699 15 9s5.66602 10.666 6.99902 18.999s2 19.5 2 33.5v633h112v-633c0 -36.667 -2.33301 -66 -7 -88s-13 -38.833 -25 -50.5s-28.5 -19.334 -49.5 -23.001s-47.833 -5.5 -80.5 -5.5zM344.002 877h-102v104h102v-104zM163.002 877h-101v104h101v-104z" />
    <glyph glyph-name="Yacute" unicode="&#xdd;" horiz-adv-x="352" 
d="M350 790l-118 -511v-279h-115v279l-114 511h114l57 -357h4l60 357h112zM182 996h110l-95 -166h-78z" />
    <glyph glyph-name="Thorn" unicode="&#xde;" horiz-adv-x="395" 
d="M44 790h115v-115h49c34 0 61.667 -1.83301 83 -5.5s38.166 -11.167 50.499 -22.5s20.666 -27.5 24.999 -48.5s6.5 -49.167 6.5 -84.5v-169c0 -35.333 -2.16699 -63.5 -6.5 -84.5s-12.666 -37.167 -24.999 -48.5s-29.166 -18.833 -50.499 -22.5s-49 -5.5 -83 -5.5h-49
v-184h-115v790zM159 575l0.000976562 -297.999h49c10.667 0 19.167 0.666992 25.5 2s11.166 4.33301 14.499 9s5.66602 11.167 6.99902 19.5s2 19.5 2 33.5v173c0 13.333 -0.666992 24 -2 32s-3.66602 14.167 -6.99902 18.5s-8.33301 7.16602 -15 8.49902s-15 2 -25 2h-49z
" />
    <glyph glyph-name="germandbls" unicode="&#xdf;" horiz-adv-x="393" 
d="M350 538c0 -20.667 -1.83105 -37.501 -5.49805 -50.501s-8.66699 -23.5 -15 -31.5s-13.333 -13.833 -21 -17.5s-15.5 -6.5 -23.5 -8.5v-4c10.667 -2 20.667 -5.33301 30 -10s17.333 -11.5 24 -20.5s12 -21 16 -36s6 -33.833 6 -56.5v-148c0 -32 -2 -58 -6 -78
s-11.333 -35.667 -22 -47s-25.334 -19.166 -44.001 -23.499s-42.667 -6.5 -72 -6.5h-52v102h39c16 0 27.5 3.66699 34.5 11s10.5 21.333 10.5 42v168c0 22 -3.5 36.5 -10.5 43.5s-20.5 10.5 -40.5 10.5h-37v102h29c20 0 33 3.83301 39 11.5s9 20.167 9 37.5v136
c0 20 -2.83301 33.333 -8.5 40s-18.834 10 -39.501 10c-21.333 0 -35 -3.33301 -41 -10s-9 -20 -9 -40v-664h-102v669c0 26.667 3 48.5 9 65.5s15.333 30.333 28 40s28.667 16.334 48 20.001s42.666 5.5 69.999 5.5c28 0 51.833 -1.83301 71.5 -5.5
s35.834 -10.334 48.501 -20.001s22 -23 28 -40s9 -38.833 9 -65.5v-131z" />
    <glyph glyph-name="agrave" unicode="&#xe0;" horiz-adv-x="353" 
d="M172 -10c-28 0 -50.834 1.16699 -68.501 3.5s-31.5 7.5 -41.5 15.5s-16.833 19.667 -20.5 35s-5.5 36 -5.5 62v145c0 36 6.83301 62.333 20.5 79s37.167 25 70.5 25h19c22.667 0 38.667 -0.833008 48 -2.5s16.333 -3.83398 21 -6.50098v124
c0 21.333 -2.66699 35.333 -8 42s-16.666 10 -33.999 10c-19.333 0 -31.5 -3.5 -36.5 -10.5s-7.5 -20.833 -7.5 -41.5v-59h-93v71c0 28 1.83301 50.5 5.5 67.5s10.5 29.833 20.5 38.5s23.667 14.334 41 17.001s40 4 68 4c29.333 0 53.333 -1.33301 72 -4
s33.167 -8.5 43.5 -17.5s17.5 -21.833 21.5 -38.5s6 -39 6 -67v-482c-12 -3.33301 -30.5 -5.83301 -55.5 -7.5s-53.833 -2.5 -86.5 -2.5zM177.999 74c19.333 0 31.666 0.666016 36.999 1.99902v196c-4.66699 2.66699 -10.334 4.33398 -17.001 5.00098s-13.667 1 -21 1
c-11.333 0 -20.166 -0.666992 -26.499 -2s-11.166 -4 -14.499 -8s-5.33301 -9.5 -6 -16.5s-1 -15.833 -1 -26.5v-94c0 -12.667 0.333008 -22.667 1 -30s2.66699 -13 6 -17s8.33301 -6.66699 15 -8s15.667 -2 27 -2zM232.999 638.999h-77l-96 166h110z" />
    <glyph glyph-name="aacute" unicode="&#xe1;" horiz-adv-x="353" 
d="M172 -10c-28 0 -50.834 1.16699 -68.501 3.5s-31.5 7.5 -41.5 15.5s-16.833 19.667 -20.5 35s-5.5 36 -5.5 62v145c0 36 6.83301 62.333 20.5 79s37.167 25 70.5 25h19c22.667 0 38.667 -0.833008 48 -2.5s16.333 -3.83398 21 -6.50098v124
c0 21.333 -2.66699 35.333 -8 42s-16.666 10 -33.999 10c-19.333 0 -31.5 -3.5 -36.5 -10.5s-7.5 -20.833 -7.5 -41.5v-59h-93v71c0 28 1.83301 50.5 5.5 67.5s10.5 29.833 20.5 38.5s23.667 14.334 41 17.001s40 4 68 4c29.333 0 53.333 -1.33301 72 -4
s33.167 -8.5 43.5 -17.5s17.5 -21.833 21.5 -38.5s6 -39 6 -67v-482c-12 -3.33301 -30.5 -5.83301 -55.5 -7.5s-53.833 -2.5 -86.5 -2.5zM177.999 74c19.333 0 31.666 0.666016 36.999 1.99902v196c-4.66699 2.66699 -10.334 4.33398 -17.001 5.00098s-13.667 1 -21 1
c-11.333 0 -20.166 -0.666992 -26.499 -2s-11.166 -4 -14.499 -8s-5.33301 -9.5 -6 -16.5s-1 -15.833 -1 -26.5v-94c0 -12.667 0.333008 -22.667 1 -30s2.66699 -13 6 -17s8.33301 -6.66699 15 -8s15.667 -2 27 -2zM182.999 804.999h110l-95 -166h-78z" />
    <glyph glyph-name="acircumflex" unicode="&#xe2;" horiz-adv-x="353" 
d="M172 -10c-28 0 -50.834 1.16699 -68.501 3.5s-31.5 7.5 -41.5 15.5s-16.833 19.667 -20.5 35s-5.5 36 -5.5 62v145c0 36 6.83301 62.333 20.5 79s37.167 25 70.5 25h19c22.667 0 38.667 -0.833008 48 -2.5s16.333 -3.83398 21 -6.50098v124
c0 21.333 -2.66699 35.333 -8 42s-16.666 10 -33.999 10c-19.333 0 -31.5 -3.5 -36.5 -10.5s-7.5 -20.833 -7.5 -41.5v-59h-93v71c0 28 1.83301 50.5 5.5 67.5s10.5 29.833 20.5 38.5s23.667 14.334 41 17.001s40 4 68 4c29.333 0 53.333 -1.33301 72 -4
s33.167 -8.5 43.5 -17.5s17.5 -21.833 21.5 -38.5s6 -39 6 -67v-482c-12 -3.33301 -30.5 -5.83301 -55.5 -7.5s-53.833 -2.5 -86.5 -2.5zM177.999 74c19.333 0 31.666 0.666016 36.999 1.99902v196c-4.66699 2.66699 -10.334 4.33398 -17.001 5.00098s-13.667 1 -21 1
c-11.333 0 -20.166 -0.666992 -26.499 -2s-11.166 -4 -14.499 -8s-5.33301 -9.5 -6 -16.5s-1 -15.833 -1 -26.5v-94c0 -12.667 0.333008 -22.667 1 -30s2.66699 -13 6 -17s8.33301 -6.66699 15 -8s15.667 -2 27 -2zM321.999 638.999h-72l-73 109l-73 -109h-72l102 166h87z
" />
    <glyph glyph-name="atilde" unicode="&#xe3;" horiz-adv-x="353" 
d="M172 -10c-28 0 -50.834 1.16699 -68.501 3.5s-31.5 7.5 -41.5 15.5s-16.833 19.667 -20.5 35s-5.5 36 -5.5 62v145c0 36 6.83301 62.333 20.5 79s37.167 25 70.5 25h19c22.667 0 38.667 -0.833008 48 -2.5s16.333 -3.83398 21 -6.50098v124
c0 21.333 -2.66699 35.333 -8 42s-16.666 10 -33.999 10c-19.333 0 -31.5 -3.5 -36.5 -10.5s-7.5 -20.833 -7.5 -41.5v-59h-93v71c0 28 1.83301 50.5 5.5 67.5s10.5 29.833 20.5 38.5s23.667 14.334 41 17.001s40 4 68 4c29.333 0 53.333 -1.33301 72 -4
s33.167 -8.5 43.5 -17.5s17.5 -21.833 21.5 -38.5s6 -39 6 -67v-482c-12 -3.33301 -30.5 -5.83301 -55.5 -7.5s-53.833 -2.5 -86.5 -2.5zM177.999 74c19.333 0 31.666 0.666016 36.999 1.99902v196c-4.66699 2.66699 -10.334 4.33398 -17.001 5.00098s-13.667 1 -21 1
c-11.333 0 -20.166 -0.666992 -26.499 -2s-11.166 -4 -14.499 -8s-5.33301 -9.5 -6 -16.5s-1 -15.833 -1 -26.5v-94c0 -12.667 0.333008 -22.667 1 -30s2.66699 -13 6 -17s8.33301 -6.66699 15 -8s15.667 -2 27 -2zM100.999 722.999
c-18 0 -32.1699 -3.3291 -42.5029 -9.99609s-19.166 -15.334 -26.499 -26.001v73c7.33301 7.33301 17 13.5 29 18.5s25.667 7.5 41 7.5c12.667 0 25.167 -1.66699 37.5 -5l37.5 -10.5l38 -10.5c12.667 -3.33301 25.667 -5 39 -5c17.333 0 31.5 3.16699 42.5 9.5
s20.167 15.166 27.5 26.499v-72c-7.33301 -8.66699 -17 -15.667 -29 -21s-26 -8 -42 -8c-13.333 0 -26.333 1.66699 -39 5s-25.167 7.16602 -37.5 11.499s-24.666 8.16602 -36.999 11.499s-25.166 5 -38.499 5z" />
    <glyph glyph-name="adieresis" unicode="&#xe4;" horiz-adv-x="353" 
d="M172 -10c-28 0 -50.834 1.16699 -68.501 3.5s-31.5 7.5 -41.5 15.5s-16.833 19.667 -20.5 35s-5.5 36 -5.5 62v145c0 36 6.83301 62.333 20.5 79s37.167 25 70.5 25h19c22.667 0 38.667 -0.833008 48 -2.5s16.333 -3.83398 21 -6.50098v124
c0 21.333 -2.66699 35.333 -8 42s-16.666 10 -33.999 10c-19.333 0 -31.5 -3.5 -36.5 -10.5s-7.5 -20.833 -7.5 -41.5v-59h-93v71c0 28 1.83301 50.5 5.5 67.5s10.5 29.833 20.5 38.5s23.667 14.334 41 17.001s40 4 68 4c29.333 0 53.333 -1.33301 72 -4
s33.167 -8.5 43.5 -17.5s17.5 -21.833 21.5 -38.5s6 -39 6 -67v-482c-12 -3.33301 -30.5 -5.83301 -55.5 -7.5s-53.833 -2.5 -86.5 -2.5zM177.999 74c19.333 0 31.666 0.666016 36.999 1.99902v196c-4.66699 2.66699 -10.334 4.33398 -17.001 5.00098s-13.667 1 -21 1
c-11.333 0 -20.166 -0.666992 -26.499 -2s-11.166 -4 -14.499 -8s-5.33301 -9.5 -6 -16.5s-1 -15.833 -1 -26.5v-94c0 -12.667 0.333008 -22.667 1 -30s2.66699 -13 6 -17s8.33301 -6.66699 15 -8s15.667 -2 27 -2zM319.999 685.999h-102v104h102v-104zM138.999 685.999
h-101v104h101v-104z" />
    <glyph glyph-name="aring" unicode="&#xe5;" horiz-adv-x="353" 
d="M172 -10c-28 0 -50.834 1.16699 -68.501 3.5s-31.5 7.5 -41.5 15.5s-16.833 19.667 -20.5 35s-5.5 36 -5.5 62v145c0 36 6.83301 62.333 20.5 79s37.167 25 70.5 25h19c22.667 0 38.667 -0.833008 48 -2.5s16.333 -3.83398 21 -6.50098v124
c0 21.333 -2.66699 35.333 -8 42s-16.666 10 -33.999 10c-19.333 0 -31.5 -3.5 -36.5 -10.5s-7.5 -20.833 -7.5 -41.5v-59h-93v71c0 28 1.83301 50.5 5.5 67.5s10.5 29.833 20.5 38.5s23.667 14.334 41 17.001s40 4 68 4c29.333 0 53.333 -1.33301 72 -4
s33.167 -8.5 43.5 -17.5s17.5 -21.833 21.5 -38.5s6 -39 6 -67v-482c-12 -3.33301 -30.5 -5.83301 -55.5 -7.5s-53.833 -2.5 -86.5 -2.5zM177.999 74c19.333 0 31.666 0.666016 36.999 1.99902v196c-4.66699 2.66699 -10.334 4.33398 -17.001 5.00098s-13.667 1 -21 1
c-11.333 0 -20.166 -0.666992 -26.499 -2s-11.166 -4 -14.499 -8s-5.33301 -9.5 -6 -16.5s-1 -15.833 -1 -26.5v-94c0 -12.667 0.333008 -22.667 1 -30s2.66699 -13 6 -17s8.33301 -6.66699 15 -8s15.667 -2 27 -2zM256.999 696.999c0 -15.333 -1.16699 -27.333 -3.5 -36
s-6.5 -15.5 -12.5 -20.5s-14.333 -8.16699 -25 -9.5s-24.334 -2 -41.001 -2s-30.167 0.666992 -40.5 2s-18.5 4.5 -24.5 9.5s-10.167 11.833 -12.5 20.5s-3.5 20.667 -3.5 36v40c0 14.667 1.16699 26.5 3.5 35.5s6.5 16 12.5 21s14.167 8.16699 24.5 9.5s23.833 2 40.5 2
s30.334 -0.666992 41.001 -2s19 -4.5 25 -9.5s10.167 -12 12.5 -21s3.5 -20.833 3.5 -35.5v-40zM214.999 732.999c0 13.333 -2.5 21.5 -7.5 24.5s-15.833 4.5 -32.5 4.5c-16 0 -26.5 -1.5 -31.5 -4.5s-7.5 -11.167 -7.5 -24.5v-32c0 -13.333 2.5 -21.5 7.5 -24.5
s15.5 -4.5 31.5 -4.5c16.667 0 27.5 1.5 32.5 4.5s7.5 11.167 7.5 24.5v32z" />
    <glyph glyph-name="ae" unicode="&#xe6;" horiz-adv-x="530" 
d="M358 -10c-28 1.33301 -49.167 4.49902 -63.5 9.49902s-24.833 11.833 -31.5 20.5c-10 -11.333 -23 -19.166 -39 -23.499s-39 -6.5 -69 -6.5c-24 0 -43.667 1.5 -59 4.5s-27.5 8.66699 -36.5 17s-15.167 20 -18.5 35s-5 34.833 -5 59.5v145c0 36 6.83301 62.333 20.5 79
s37.167 25 70.5 25h19c22.667 0 38.667 -0.833008 48 -2.5s16.333 -3.83398 21 -6.50098v124c0 21.333 -2.66699 35.333 -8 42s-16.666 10 -33.999 10c-19.333 0 -31.5 -3.5 -36.5 -10.5s-7.5 -20.833 -7.5 -41.5v-59h-93v71c0 26.667 1.83301 48.334 5.5 65.001
s10 29.5 19 38.5s21.5 15.167 37.5 18.5s36.333 5 61 5c29.333 0 51.5 -2.16699 66.5 -6.5s27.833 -12.5 38.5 -24.5c5.33301 6 10.833 10.833 16.5 14.5s12.5 6.83398 20.5 9.50098s17.5 4.5 28.5 5.5s24.5 1.5 40.5 1.5c24.667 0 45 -1.66699 61 -5s28.5 -9.5 37.5 -18.5
s15.333 -21.833 19 -38.5s5.5 -38.334 5.5 -65.001v-218h-179v-144c0 -15.333 2.66699 -26.333 8 -33s17.666 -10 36.999 -10c18 0 29.333 3.16699 34 9.5s7 18.5 7 36.5v81h93v-87c0 -28 -1.83301 -50.333 -5.5 -67s-10.5 -29.5 -20.5 -38.5s-23.667 -14.833 -41 -17.5
s-40 -4 -68 -4zM215 271.999c-4.66699 2.66699 -10.335 4.33105 -17.002 4.99805s-13.667 1 -21 1c-11.333 0 -20.166 -0.666992 -26.499 -2s-11.166 -4 -14.499 -8s-5.33301 -9.5 -6 -16.5s-1 -15.833 -1 -26.5v-94c0 -11.333 0.333008 -20.666 1 -27.999
s2.5 -13.166 5.5 -17.499s7.16699 -7.33301 12.5 -9s13 -2.5 23 -2.5c19.333 0 31.5 3.16699 36.5 9.5s7.5 17.5 7.5 33.5v155zM313.999 344.996h86v129c0 18.667 -2.66699 30.834 -8 36.501s-17 8.5 -35 8.5c-18.667 0 -30.5 -2.83301 -35.5 -8.5
s-7.5 -17.834 -7.5 -36.501v-129z" />
    <glyph glyph-name="ccedilla" unicode="&#xe7;" horiz-adv-x="347" 
d="M221 377v94.002c0 17.333 -2.66699 28.666 -8 33.999s-16.666 8 -33.999 8c-19.333 0 -31.5 -2.66699 -36.5 -8s-7.5 -16.666 -7.5 -33.999v-344c0 -17.333 2.66699 -28.833 8 -34.5s16.666 -8.5 33.999 -8.5c18.667 0 30.667 3 36 9s8 17.333 8 34v155h93v-165
c0 -28 -2 -50.5 -6 -67.5s-11.167 -29.833 -21.5 -38.5s-24.166 -14.334 -41.499 -17.001s-39.333 -4 -66 -4c-30 0 -54.167 1.5 -72.5 4.5s-32.833 9 -43.5 18s-17.834 21.833 -21.501 38.5s-5.5 38.667 -5.5 66v365c0 27.333 2 49.333 6 66s11 29.5 21 38.5s24 15 42 18
s41 4.5 69 4.5c30 0 54.167 -1.5 72.5 -4.5s32.5 -9.16699 42.5 -18.5s16.667 -22.333 20 -39s5 -38.334 5 -65.001v-105h-93zM122 -19.998h102l-82 -165h-71z" />
    <glyph glyph-name="egrave" unicode="&#xe8;" horiz-adv-x="349" 
d="M136 264v-140.998c0 -19.333 2.5 -31.833 7.5 -37.5s16.833 -8.5 35.5 -8.5c18 0 29.667 2.83301 35 8.5s8 18.167 8 37.5v81h92v-87c0 -28 -1.83301 -50.5 -5.5 -67.5s-10.5 -29.833 -20.5 -38.5s-23.833 -14.334 -41.5 -17.001s-40.5 -4 -68.5 -4
c-29.333 0 -53.333 1.33301 -72 4s-33.167 8.5 -43.5 17.5s-17.333 21.833 -21 38.5s-5.5 39 -5.5 67v365c0 28 1.83301 50.333 5.5 67s10.667 29.5 21 38.5s24.833 14.833 43.5 17.5s42.667 4 72 4c28 0 50.833 -1.33301 68.5 -4s31.5 -8.33398 41.5 -17.001
s16.833 -21.5 20.5 -38.5s5.5 -39.5 5.5 -67.5v-218h-178zM136 346.002h86v128c0 19.333 -2.66699 31.666 -8 36.999s-17 8 -35 8c-18.667 0 -30.5 -2.66699 -35.5 -8s-7.5 -17.666 -7.5 -36.999v-128zM231 639.002h-77l-96 166h110z" />
    <glyph glyph-name="egrave" unicode="&#x450;" horiz-adv-x="349" 
d="M136 264v-140.998c0 -19.333 2.5 -31.833 7.5 -37.5s16.833 -8.5 35.5 -8.5c18 0 29.667 2.83301 35 8.5s8 18.167 8 37.5v81h92v-87c0 -28 -1.83301 -50.5 -5.5 -67.5s-10.5 -29.833 -20.5 -38.5s-23.833 -14.334 -41.5 -17.001s-40.5 -4 -68.5 -4
c-29.333 0 -53.333 1.33301 -72 4s-33.167 8.5 -43.5 17.5s-17.333 21.833 -21 38.5s-5.5 39 -5.5 67v365c0 28 1.83301 50.333 5.5 67s10.667 29.5 21 38.5s24.833 14.833 43.5 17.5s42.667 4 72 4c28 0 50.833 -1.33301 68.5 -4s31.5 -8.33398 41.5 -17.001
s16.833 -21.5 20.5 -38.5s5.5 -39.5 5.5 -67.5v-218h-178zM136 346.002h86v128c0 19.333 -2.66699 31.666 -8 36.999s-17 8 -35 8c-18.667 0 -30.5 -2.66699 -35.5 -8s-7.5 -17.666 -7.5 -36.999v-128zM231 639.002h-77l-96 166h110z" />
    <glyph glyph-name="eacute" unicode="&#xe9;" horiz-adv-x="349" 
d="M136 264v-140.998c0 -19.333 2.5 -31.833 7.5 -37.5s16.833 -8.5 35.5 -8.5c18 0 29.667 2.83301 35 8.5s8 18.167 8 37.5v81h92v-87c0 -28 -1.83301 -50.5 -5.5 -67.5s-10.5 -29.833 -20.5 -38.5s-23.833 -14.334 -41.5 -17.001s-40.5 -4 -68.5 -4
c-29.333 0 -53.333 1.33301 -72 4s-33.167 8.5 -43.5 17.5s-17.333 21.833 -21 38.5s-5.5 39 -5.5 67v365c0 28 1.83301 50.333 5.5 67s10.667 29.5 21 38.5s24.833 14.833 43.5 17.5s42.667 4 72 4c28 0 50.833 -1.33301 68.5 -4s31.5 -8.33398 41.5 -17.001
s16.833 -21.5 20.5 -38.5s5.5 -39.5 5.5 -67.5v-218h-178zM136 346.002h86v128c0 19.333 -2.66699 31.666 -8 36.999s-17 8 -35 8c-18.667 0 -30.5 -2.66699 -35.5 -8s-7.5 -17.666 -7.5 -36.999v-128zM181 805.002h110l-95 -166h-78z" />
    <glyph glyph-name="ecircumflex" unicode="&#xea;" horiz-adv-x="349" 
d="M136 264v-140.998c0 -19.333 2.5 -31.833 7.5 -37.5s16.833 -8.5 35.5 -8.5c18 0 29.667 2.83301 35 8.5s8 18.167 8 37.5v81h92v-87c0 -28 -1.83301 -50.5 -5.5 -67.5s-10.5 -29.833 -20.5 -38.5s-23.833 -14.334 -41.5 -17.001s-40.5 -4 -68.5 -4
c-29.333 0 -53.333 1.33301 -72 4s-33.167 8.5 -43.5 17.5s-17.333 21.833 -21 38.5s-5.5 39 -5.5 67v365c0 28 1.83301 50.333 5.5 67s10.667 29.5 21 38.5s24.833 14.833 43.5 17.5s42.667 4 72 4c28 0 50.833 -1.33301 68.5 -4s31.5 -8.33398 41.5 -17.001
s16.833 -21.5 20.5 -38.5s5.5 -39.5 5.5 -67.5v-218h-178zM136 346.002h86v128c0 19.333 -2.66699 31.666 -8 36.999s-17 8 -35 8c-18.667 0 -30.5 -2.66699 -35.5 -8s-7.5 -17.666 -7.5 -36.999v-128zM320 639.002h-72l-73 109l-73 -109h-72l102 166h87z" />
    <glyph glyph-name="edieresis" unicode="&#xeb;" horiz-adv-x="349" 
d="M136 264v-140.998c0 -19.333 2.5 -31.833 7.5 -37.5s16.833 -8.5 35.5 -8.5c18 0 29.667 2.83301 35 8.5s8 18.167 8 37.5v81h92v-87c0 -28 -1.83301 -50.5 -5.5 -67.5s-10.5 -29.833 -20.5 -38.5s-23.833 -14.334 -41.5 -17.001s-40.5 -4 -68.5 -4
c-29.333 0 -53.333 1.33301 -72 4s-33.167 8.5 -43.5 17.5s-17.333 21.833 -21 38.5s-5.5 39 -5.5 67v365c0 28 1.83301 50.333 5.5 67s10.667 29.5 21 38.5s24.833 14.833 43.5 17.5s42.667 4 72 4c28 0 50.833 -1.33301 68.5 -4s31.5 -8.33398 41.5 -17.001
s16.833 -21.5 20.5 -38.5s5.5 -39.5 5.5 -67.5v-218h-178zM136 346.002h86v128c0 19.333 -2.66699 31.666 -8 36.999s-17 8 -35 8c-18.667 0 -30.5 -2.66699 -35.5 -8s-7.5 -17.666 -7.5 -36.999v-128zM318 686.002h-102v104h102v-104zM137 686.002h-101v104h101v-104z" />
    <glyph glyph-name="edieresis" unicode="&#x451;" horiz-adv-x="349" 
d="M136 264v-140.998c0 -19.333 2.5 -31.833 7.5 -37.5s16.833 -8.5 35.5 -8.5c18 0 29.667 2.83301 35 8.5s8 18.167 8 37.5v81h92v-87c0 -28 -1.83301 -50.5 -5.5 -67.5s-10.5 -29.833 -20.5 -38.5s-23.833 -14.334 -41.5 -17.001s-40.5 -4 -68.5 -4
c-29.333 0 -53.333 1.33301 -72 4s-33.167 8.5 -43.5 17.5s-17.333 21.833 -21 38.5s-5.5 39 -5.5 67v365c0 28 1.83301 50.333 5.5 67s10.667 29.5 21 38.5s24.833 14.833 43.5 17.5s42.667 4 72 4c28 0 50.833 -1.33301 68.5 -4s31.5 -8.33398 41.5 -17.001
s16.833 -21.5 20.5 -38.5s5.5 -39.5 5.5 -67.5v-218h-178zM136 346.002h86v128c0 19.333 -2.66699 31.666 -8 36.999s-17 8 -35 8c-18.667 0 -30.5 -2.66699 -35.5 -8s-7.5 -17.666 -7.5 -36.999v-128zM318 686.002h-102v104h102v-104zM137 686.002h-101v104h101v-104z" />
    <glyph glyph-name="igrave" unicode="&#xec;" horiz-adv-x="205" 
d="M166 639h-77l-96 166h110zM161 0h-101v599h101v-599z" />
    <glyph glyph-name="iacute" unicode="&#xed;" horiz-adv-x="213" 
d="M102 805h110l-95 -166h-78zM147 0h-101v599h101v-599z" />
    <glyph glyph-name="icircumflex" unicode="&#xee;" horiz-adv-x="255" 
d="M178 0h-101v599h101v-599zM273 639h-72l-73 109l-73 -109h-72l102 166h87z" />
    <glyph glyph-name="idieresis" unicode="&#xef;" horiz-adv-x="271" 
d="M278 686h-102v104h102v-104zM97 686h-101v104h101v-104zM186 0h-101v599h101v-599z" />
    <glyph glyph-name="idieresis" unicode="&#x457;" horiz-adv-x="271" 
d="M278 686h-102v104h102v-104zM97 686h-101v104h101v-104zM186 0h-101v599h101v-599z" />
    <glyph glyph-name="eth" unicode="&#xf0;" horiz-adv-x="358" 
d="M42 623l71.0029 38.9971l-73 128h112l45 -81l68 38l25 -47l-67 -37l36 -63c14 -25.333 25.333 -47.166 34 -65.499s15.167 -35.666 19.5 -51.999s7.16602 -32.333 8.49902 -48s2 -32.834 2 -51.501v-266c0 -28 -2 -50.333 -6 -67s-11.167 -29.5 -21.5 -38.5
s-24.833 -14.833 -43.5 -17.5s-42.667 -4 -72 -4s-53.333 1.33301 -72 4s-33.334 8.5 -44.001 17.5s-17.834 21.833 -21.501 38.5s-5.5 39 -5.5 67v301c0 41.333 5.83301 70.833 17.5 88.5s33.5 26.5 65.5 26.5c16.667 0 31 -2.66699 43 -8s25.667 -14.666 41 -27.999
c-1.33301 4 -2.83301 7.66699 -4.5 11l-6 12c-2.33301 4.66699 -5.33301 10.334 -9 17.001l-14.5 26l-30 53l-73 -41zM174.003 456.997c-18.667 0 -29.5 -5.50098 -32.5 -16.501s-4.5 -28.167 -4.5 -51.5v-233c0 -14.667 0.166992 -26.667 0.5 -36
s1.83301 -16.666 4.5 -21.999s6.83398 -9 12.501 -11s13.5 -3 23.5 -3s18 1 24 3s10.667 5.66699 14 11s5.5 12.5 6.5 21.5s1.5 20.833 1.5 35.5v249c-4.66699 17.333 -9.83398 30.5 -15.501 39.5s-17.167 13.5 -34.5 13.5z" />
    <glyph glyph-name="ntilde" unicode="&#xf1;" horiz-adv-x="378" 
d="M146 0l-101.999 0.00292969v599h95v-40c8 15.333 19.333 26.666 34 33.999s36 11 64 11c19.333 0 35.5 -2 48.5 -6s23.5 -10.833 31.5 -20.5s13.667 -22.334 17 -38.001s5 -34.834 5 -57.501v-482h-102v471c0 15.333 -2.83301 26 -8.5 32s-16.167 9 -31.5 9
c-16.667 0 -28.334 -2.83301 -35.001 -8.5s-12 -13.167 -16 -22.5v-481zM113.001 723.003c-18 0 -32.1699 -3.3291 -42.5029 -9.99609s-19.166 -15.334 -26.499 -26.001v73c7.33301 7.33301 17 13.5 29 18.5s25.667 7.5 41 7.5c12.667 0 25.167 -1.66699 37.5 -5l37.5 -10.5
l38 -10.5c12.667 -3.33301 25.667 -5 39 -5c17.333 0 31.5 3.16699 42.5 9.5s20.167 15.166 27.5 26.499v-72c-7.33301 -8.66699 -17 -15.667 -29 -21s-26 -8 -42 -8c-13.333 0 -26.333 1.66699 -39 5s-25.167 7.16602 -37.5 11.499s-24.666 8.16602 -36.999 11.499
s-25.166 5 -38.499 5z" />
    <glyph glyph-name="ograve" unicode="&#xf2;" horiz-adv-x="358" 
d="M322 117c0 -28 -2 -50.333 -6 -67s-11.167 -29.5 -21.5 -38.5s-24.833 -14.833 -43.5 -17.5s-42.667 -4 -72 -4s-53.333 1.33301 -72 4s-33.334 8.5 -44.001 17.5s-17.834 21.833 -21.501 38.5s-5.5 39 -5.5 67v365c0 28 1.83301 50.333 5.5 67s10.834 29.5 21.501 38.5
s25.334 14.833 44.001 17.5s42.667 4 72 4s53.333 -1.33301 72 -4s33.167 -8.5 43.5 -17.5s17.5 -21.833 21.5 -38.5s6 -39 6 -67v-365zM223 471c0 17.333 -2.66797 28.666 -8.00098 33.999s-16.666 8 -33.999 8c-19.333 0 -31.833 -2.66699 -37.5 -8
s-8.5 -16.666 -8.5 -33.999v-344c0 -17.333 2.66699 -28.833 8 -34.5s17.333 -8.5 36 -8.5c19.333 0 31.5 3 36.5 9s7.5 17.333 7.5 34v344zM234.999 639h-77l-96 166h110z" />
    <glyph glyph-name="oacute" unicode="&#xf3;" horiz-adv-x="358" 
d="M322 117c0 -28 -2 -50.333 -6 -67s-11.167 -29.5 -21.5 -38.5s-24.833 -14.833 -43.5 -17.5s-42.667 -4 -72 -4s-53.333 1.33301 -72 4s-33.334 8.5 -44.001 17.5s-17.834 21.833 -21.501 38.5s-5.5 39 -5.5 67v365c0 28 1.83301 50.333 5.5 67s10.834 29.5 21.501 38.5
s25.334 14.833 44.001 17.5s42.667 4 72 4s53.333 -1.33301 72 -4s33.167 -8.5 43.5 -17.5s17.5 -21.833 21.5 -38.5s6 -39 6 -67v-365zM223 471c0 17.333 -2.66797 28.666 -8.00098 33.999s-16.666 8 -33.999 8c-19.333 0 -31.833 -2.66699 -37.5 -8
s-8.5 -16.666 -8.5 -33.999v-344c0 -17.333 2.66699 -28.833 8 -34.5s17.333 -8.5 36 -8.5c19.333 0 31.5 3 36.5 9s7.5 17.333 7.5 34v344zM184.999 805h110l-95 -166h-78z" />
    <glyph glyph-name="ocircumflex" unicode="&#xf4;" horiz-adv-x="358" 
d="M322 117c0 -28 -2 -50.333 -6 -67s-11.167 -29.5 -21.5 -38.5s-24.833 -14.833 -43.5 -17.5s-42.667 -4 -72 -4s-53.333 1.33301 -72 4s-33.334 8.5 -44.001 17.5s-17.834 21.833 -21.501 38.5s-5.5 39 -5.5 67v365c0 28 1.83301 50.333 5.5 67s10.834 29.5 21.501 38.5
s25.334 14.833 44.001 17.5s42.667 4 72 4s53.333 -1.33301 72 -4s33.167 -8.5 43.5 -17.5s17.5 -21.833 21.5 -38.5s6 -39 6 -67v-365zM223 471c0 17.333 -2.66797 28.666 -8.00098 33.999s-16.666 8 -33.999 8c-19.333 0 -31.833 -2.66699 -37.5 -8
s-8.5 -16.666 -8.5 -33.999v-344c0 -17.333 2.66699 -28.833 8 -34.5s17.333 -8.5 36 -8.5c19.333 0 31.5 3 36.5 9s7.5 17.333 7.5 34v344zM323.999 639h-72l-73 109l-73 -109h-72l102 166h87z" />
    <glyph glyph-name="otilde" unicode="&#xf5;" horiz-adv-x="358" 
d="M322 117c0 -28 -2 -50.333 -6 -67s-11.167 -29.5 -21.5 -38.5s-24.833 -14.833 -43.5 -17.5s-42.667 -4 -72 -4s-53.333 1.33301 -72 4s-33.334 8.5 -44.001 17.5s-17.834 21.833 -21.501 38.5s-5.5 39 -5.5 67v365c0 28 1.83301 50.333 5.5 67s10.834 29.5 21.501 38.5
s25.334 14.833 44.001 17.5s42.667 4 72 4s53.333 -1.33301 72 -4s33.167 -8.5 43.5 -17.5s17.5 -21.833 21.5 -38.5s6 -39 6 -67v-365zM223 471c0 17.333 -2.66797 28.666 -8.00098 33.999s-16.666 8 -33.999 8c-19.333 0 -31.833 -2.66699 -37.5 -8
s-8.5 -16.666 -8.5 -33.999v-344c0 -17.333 2.66699 -28.833 8 -34.5s17.333 -8.5 36 -8.5c19.333 0 31.5 3 36.5 9s7.5 17.333 7.5 34v344zM101.999 723c-18 0 -32.1699 -3.3291 -42.5029 -9.99609s-19.166 -15.334 -26.499 -26.001v73c7.33301 7.33301 17 13.5 29 18.5
s25.667 7.5 41 7.5c12.667 0 25.167 -1.66699 37.5 -5l37.5 -10.5l38 -10.5c12.667 -3.33301 25.667 -5 39 -5c17.333 0 31.5 3.16699 42.5 9.5s20.167 15.166 27.5 26.499v-72c-7.33301 -8.66699 -17 -15.667 -29 -21s-26 -8 -42 -8c-13.333 0 -26.333 1.66699 -39 5
s-25.167 7.16602 -37.5 11.499s-24.666 8.16602 -36.999 11.499s-25.166 5 -38.499 5z" />
    <glyph glyph-name="odieresis" unicode="&#xf6;" horiz-adv-x="358" 
d="M322 117c0 -28 -2 -50.333 -6 -67s-11.167 -29.5 -21.5 -38.5s-24.833 -14.833 -43.5 -17.5s-42.667 -4 -72 -4s-53.333 1.33301 -72 4s-33.334 8.5 -44.001 17.5s-17.834 21.833 -21.501 38.5s-5.5 39 -5.5 67v365c0 28 1.83301 50.333 5.5 67s10.834 29.5 21.501 38.5
s25.334 14.833 44.001 17.5s42.667 4 72 4s53.333 -1.33301 72 -4s33.167 -8.5 43.5 -17.5s17.5 -21.833 21.5 -38.5s6 -39 6 -67v-365zM223 471c0 17.333 -2.66797 28.666 -8.00098 33.999s-16.666 8 -33.999 8c-19.333 0 -31.833 -2.66699 -37.5 -8
s-8.5 -16.666 -8.5 -33.999v-344c0 -17.333 2.66699 -28.833 8 -34.5s17.333 -8.5 36 -8.5c19.333 0 31.5 3 36.5 9s7.5 17.333 7.5 34v344zM320.999 686h-102v104h102v-104zM139.999 686h-101v104h101v-104z" />
    <glyph glyph-name="divide" unicode="&#xf7;" horiz-adv-x="493" 
d="M44 354v91h407v-91h-407zM300 544h-105v132h105v-132zM300 125h-105v132h105v-132z" />
    <glyph glyph-name="oslash" unicode="&#xf8;" horiz-adv-x="358" 
d="M322 117c0 -27.333 -1.83301 -49.332 -5.5 -65.999s-10.334 -29.5 -20.001 -38.5s-22.667 -15 -39 -18s-36.833 -4.5 -61.5 -4.5h-21c-8 0 -15.667 0.166992 -23 0.5s-13.5 0.666016 -18.5 0.999023s-7.83301 0.5 -8.5 0.5l-18 -61h-71l24 83
c-9.33301 9.33301 -15.666 22 -18.999 38s-5 37.667 -5 65v365c0 28 1.83301 50.333 5.5 67s10.667 29.5 21 38.5s24.333 14.833 42 17.5s40.5 4 68.5 4c14 0 25.5 -0.166992 34.5 -0.5s17.5 -0.833008 25.5 -1.5l18 61h71l-25 -84c9.33301 -9.33301 15.833 -22 19.5 -38
s5.5 -37.333 5.5 -64v-365zM223 328.001l-70.999 -242c3.33301 -1.33301 7.16602 -2 11.499 -2h15.5c19.333 0 31.5 3.16699 36.5 9.5s7.5 17.5 7.5 33.5v201zM135.001 270.001l70 240.001c-7.33301 2 -16.333 3 -27 3c-18 0 -29.667 -2.83301 -35 -8.5
s-8 -16.834 -8 -33.501v-201z" />
    <glyph glyph-name="ugrave" unicode="&#xf9;" horiz-adv-x="376" 
d="M230 599h103v-599h-96v39c-8 -15.333 -19.167 -26.5 -33.5 -33.5s-35.166 -10.5 -62.499 -10.5c-19.333 0 -35.5 2 -48.5 6s-23.333 10.667 -31 20s-13.167 21.833 -16.5 37.5s-5 35.167 -5 58.5v482h102v-472c0 -14 2.66699 -24.333 8 -31s15.666 -10 30.999 -10
s26.333 2.83301 33 8.5s12 13.167 16 22.5v482zM244 639h-77l-96 166h110z" />
    <glyph glyph-name="uacute" unicode="&#xfa;" horiz-adv-x="376" 
d="M230 599h103v-599h-96v39c-8 -15.333 -19.167 -26.5 -33.5 -33.5s-35.166 -10.5 -62.499 -10.5c-19.333 0 -35.5 2 -48.5 6s-23.333 10.667 -31 20s-13.167 21.833 -16.5 37.5s-5 35.167 -5 58.5v482h102v-472c0 -14 2.66699 -24.333 8 -31s15.666 -10 30.999 -10
s26.333 2.83301 33 8.5s12 13.167 16 22.5v482zM194 805h110l-95 -166h-78z" />
    <glyph glyph-name="ucircumflex" unicode="&#xfb;" horiz-adv-x="376" 
d="M230 599h103v-599h-96v39c-8 -15.333 -19.167 -26.5 -33.5 -33.5s-35.166 -10.5 -62.499 -10.5c-19.333 0 -35.5 2 -48.5 6s-23.333 10.667 -31 20s-13.167 21.833 -16.5 37.5s-5 35.167 -5 58.5v482h102v-472c0 -14 2.66699 -24.333 8 -31s15.666 -10 30.999 -10
s26.333 2.83301 33 8.5s12 13.167 16 22.5v482zM333 639h-72l-73 109l-73 -109h-72l102 166h87z" />
    <glyph glyph-name="udieresis" unicode="&#xfc;" horiz-adv-x="376" 
d="M230 599h103v-599h-96v39c-8 -15.333 -19.167 -26.5 -33.5 -33.5s-35.166 -10.5 -62.499 -10.5c-19.333 0 -35.5 2 -48.5 6s-23.333 10.667 -31 20s-13.167 21.833 -16.5 37.5s-5 35.167 -5 58.5v482h102v-472c0 -14 2.66699 -24.333 8 -31s15.666 -10 30.999 -10
s26.333 2.83301 33 8.5s12 13.167 16 22.5v482zM330 686h-102v104h102v-104zM149 686h-101v104h101v-104z" />
    <glyph glyph-name="yacute" unicode="&#xfd;" horiz-adv-x="378" 
d="M233 599l102 -0.000976562v-609c0 -48.667 -10.667 -84.667 -32 -108s-57.333 -35 -108 -35h-134v86h109c22.667 0 38.5 3.83301 47.5 11.5s13.5 22.834 13.5 45.501v77c-9.33301 -15.333 -21.166 -26 -35.499 -32s-33.166 -9 -56.499 -9c-18.667 0 -34.334 2 -47.001 6
s-22.834 10.667 -30.501 20s-13.167 21.833 -16.5 37.5s-5 35.167 -5 58.5v451h102v-432c0 -19.333 3.33301 -32.5 10 -39.5s17.667 -10.5 33 -10.5c13.333 0 23.333 2.33301 30 7s12.667 12.667 18 24v451zM195 804.999h110l-95 -166h-78z" />
    <glyph glyph-name="thorn" unicode="&#xfe;" horiz-adv-x="366" 
d="M330 117c0 -23.333 -1.33301 -42.832 -4 -58.499s-7.5 -28.167 -14.5 -37.5s-16.5 -16 -28.5 -20s-27.333 -6 -46 -6c-22 0 -40.333 3 -55 9s-26.667 16.667 -36 32v-189h-102v943h102v-228c9.33301 15.333 21 26.166 35 32.499s32.667 9.5 56 9.5
c18.667 0 34 -2.16699 46 -6.5s21.5 -11.166 28.5 -20.499s11.833 -21.833 14.5 -37.5s4 -34.834 4 -57.501v-365zM143 117.001c5.33301 -11.333 11.5 -19.333 18.5 -24s17.167 -7 30.5 -7c15.333 0 25.666 3.5 30.999 10.5s8 20.167 8 39.5v326
c0 19.333 -2.66699 32.5 -8 39.5s-15.666 10.5 -30.999 10.5c-13.333 0 -23.5 -2.33301 -30.5 -7s-13.167 -12.667 -18.5 -24v-364z" />
    <glyph glyph-name="ydieresis" unicode="&#xff;" horiz-adv-x="378" 
d="M233 599l102 -0.000976562v-609c0 -48.667 -10.667 -84.667 -32 -108s-57.333 -35 -108 -35h-134v86h109c22.667 0 38.5 3.83301 47.5 11.5s13.5 22.834 13.5 45.501v77c-9.33301 -15.333 -21.166 -26 -35.499 -32s-33.166 -9 -56.499 -9c-18.667 0 -34.334 2 -47.001 6
s-22.834 10.667 -30.501 20s-13.167 21.833 -16.5 37.5s-5 35.167 -5 58.5v451h102v-432c0 -19.333 3.33301 -32.5 10 -39.5s17.667 -10.5 33 -10.5c13.333 0 23.333 2.33301 30 7s12.667 12.667 18 24v451zM331 685.999h-102v104h102v-104zM150 685.999h-101v104h101v-104z
" />
    <glyph glyph-name="Amacron" unicode="&#x100;" 
d="M247 0v176h-97v-176h-112v634c0 36 2.16699 65 6.5 87s12.5 38.833 24.5 50.5s28.167 19.334 48.5 23.001s46.5 5.5 78.5 5.5c33.333 0 60.833 -2 82.5 -6s38.667 -11.833 51 -23.5s20.833 -28.334 25.5 -50.001s7 -50.5 7 -86.5v-634h-115zM198 697
c-10 0 -18.168 -0.833008 -24.501 -2.5s-11.333 -4.66699 -15 -9s-6 -10.666 -7 -18.999s-1.5 -19.166 -1.5 -32.499v-364h97v364c0 13.333 -0.666992 24.166 -2 32.499s-3.66602 14.666 -6.99902 18.999s-8.33301 7.33301 -15 9s-15 2.5 -25 2.5zM345.999 899h-292v61h292
v-61z" />
    <glyph glyph-name="amacron" unicode="&#x101;" horiz-adv-x="353" 
d="M172 -10c-28 0 -50.834 1.16699 -68.501 3.5s-31.5 7.5 -41.5 15.5s-16.833 19.667 -20.5 35s-5.5 36 -5.5 62v145c0 36 6.83301 62.333 20.5 79s37.167 25 70.5 25h19c22.667 0 38.667 -0.833008 48 -2.5s16.333 -3.83398 21 -6.50098v124
c0 21.333 -2.66699 35.333 -8 42s-16.666 10 -33.999 10c-19.333 0 -31.5 -3.5 -36.5 -10.5s-7.5 -20.833 -7.5 -41.5v-59h-93v71c0 28 1.83301 50.5 5.5 67.5s10.5 29.833 20.5 38.5s23.667 14.334 41 17.001s40 4 68 4c29.333 0 53.333 -1.33301 72 -4
s33.167 -8.5 43.5 -17.5s17.5 -21.833 21.5 -38.5s6 -39 6 -67v-482c-12 -3.33301 -30.5 -5.83301 -55.5 -7.5s-53.833 -2.5 -86.5 -2.5zM177.999 74c19.333 0 31.666 0.666016 36.999 1.99902v196c-4.66699 2.66699 -10.334 4.33398 -17.001 5.00098s-13.667 1 -21 1
c-11.333 0 -20.166 -0.666992 -26.499 -2s-11.166 -4 -14.499 -8s-5.33301 -9.5 -6 -16.5s-1 -15.833 -1 -26.5v-94c0 -12.667 0.333008 -22.667 1 -30s2.66699 -13 6 -17s8.33301 -6.66699 15 -8s15.667 -2 27 -2zM323.999 707.999h-292v61h292v-61z" />
    <glyph glyph-name="Abreve" unicode="&#x102;" 
d="M247 0v176h-97v-176h-112v634c0 36 2.16699 65 6.5 87s12.5 38.833 24.5 50.5s28.167 19.334 48.5 23.001s46.5 5.5 78.5 5.5c33.333 0 60.833 -2 82.5 -6s38.667 -11.833 51 -23.5s20.833 -28.334 25.5 -50.001s7 -50.5 7 -86.5v-634h-115zM198 697
c-10 0 -18.168 -0.833008 -24.501 -2.5s-11.333 -4.66699 -15 -9s-6 -10.666 -7 -18.999s-1.5 -19.166 -1.5 -32.499v-364h97v364c0 13.333 -0.666992 24.166 -2 32.499s-3.66602 14.666 -6.99902 18.999s-8.33301 7.33301 -15 9s-15 2.5 -25 2.5zM199.999 833
c-43.333 0 -78.667 12.667 -106 38s-41 67 -41 125h64c0.666992 -21.333 3.16699 -38.666 7.5 -51.999s10.166 -23.833 17.499 -31.5s15.833 -12.834 25.5 -15.501s20.5 -4 32.5 -4s23 1.33301 33 4s18.5 7.83398 25.5 15.501s12.667 18.167 17 31.5
s6.83301 30.666 7.5 51.999h64c0 -58 -13.667 -99.667 -41 -125s-62.666 -38 -105.999 -38z" />
    <glyph glyph-name="abreve" unicode="&#x103;" horiz-adv-x="353" 
d="M172 -10c-28 0 -50.834 1.16699 -68.501 3.5s-31.5 7.5 -41.5 15.5s-16.833 19.667 -20.5 35s-5.5 36 -5.5 62v145c0 36 6.83301 62.333 20.5 79s37.167 25 70.5 25h19c22.667 0 38.667 -0.833008 48 -2.5s16.333 -3.83398 21 -6.50098v124
c0 21.333 -2.66699 35.333 -8 42s-16.666 10 -33.999 10c-19.333 0 -31.5 -3.5 -36.5 -10.5s-7.5 -20.833 -7.5 -41.5v-59h-93v71c0 28 1.83301 50.5 5.5 67.5s10.5 29.833 20.5 38.5s23.667 14.334 41 17.001s40 4 68 4c29.333 0 53.333 -1.33301 72 -4
s33.167 -8.5 43.5 -17.5s17.5 -21.833 21.5 -38.5s6 -39 6 -67v-482c-12 -3.33301 -30.5 -5.83301 -55.5 -7.5s-53.833 -2.5 -86.5 -2.5zM177.999 74c19.333 0 31.666 0.666016 36.999 1.99902v196c-4.66699 2.66699 -10.334 4.33398 -17.001 5.00098s-13.667 1 -21 1
c-11.333 0 -20.166 -0.666992 -26.499 -2s-11.166 -4 -14.499 -8s-5.33301 -9.5 -6 -16.5s-1 -15.833 -1 -26.5v-94c0 -12.667 0.333008 -22.667 1 -30s2.66699 -13 6 -17s8.33301 -6.66699 15 -8s15.667 -2 27 -2zM176.999 641.999c-43.333 0 -78.667 12.667 -106 38
s-41 67 -41 125h64c0.666992 -21.333 3.16699 -38.666 7.5 -51.999s10.166 -23.833 17.499 -31.5s15.833 -12.834 25.5 -15.501s20.5 -4 32.5 -4s23 1.33301 33 4s18.5 7.83398 25.5 15.501s12.667 18.167 17 31.5s6.83301 30.666 7.5 51.999h64
c0 -58 -13.667 -99.667 -41 -125s-62.666 -38 -105.999 -38z" />
    <glyph glyph-name="Aogonek" unicode="&#x104;" 
d="M362 0c-22.667 -10.667 -38.5 -21.001 -47.5 -31.001s-13.5 -23 -13.5 -39c0 -12.667 2.83301 -21.5 8.5 -26.5s15.834 -7.5 30.501 -7.5h36v-81h-78c-17.333 0 -31.333 2.16699 -42 6.5s-19.334 10.333 -26.001 18s-11.167 16.334 -13.5 26.001s-3.5 20.167 -3.5 31.5
c0 33.333 11.333 58 34 74v205h-97v-176h-112v634c0 36 2.16699 65 6.5 87s12.5 38.833 24.5 50.5s28.167 19.334 48.5 23.001s46.5 5.5 78.5 5.5c33.333 0 60.833 -2 82.5 -6s38.667 -11.833 51 -23.5s20.833 -28.334 25.5 -50.001s7 -50.5 7 -86.5v-634zM198 696.999
c-10 0 -18.168 -0.833008 -24.501 -2.5s-11.333 -4.66699 -15 -9s-6 -10.666 -7 -18.999s-1.5 -19.166 -1.5 -32.499v-364h97v364c0 13.333 -0.666992 24.166 -2 32.499s-3.66602 14.666 -6.99902 18.999s-8.33301 7.33301 -15 9s-15 2.5 -25 2.5z" />
    <glyph glyph-name="aogonek" unicode="&#x105;" horiz-adv-x="353" 
d="M164 -10c-26 0 -47.168 1.33203 -63.501 3.99902s-29.333 8 -39 16s-16.334 19.667 -20.001 35s-5.5 35.666 -5.5 60.999v145c0 36 6.83301 62.333 20.5 79s37.167 25 70.5 25h19c22.667 0 38.667 -0.833008 48 -2.5s16.333 -3.83398 21 -6.50098v124
c0 21.333 -2.66699 35.333 -8 42s-16.666 10 -33.999 10c-19.333 0 -31.5 -3.5 -36.5 -10.5s-7.5 -20.833 -7.5 -41.5v-59h-93v71c0 28 1.83301 50.5 5.5 67.5s10.5 29.833 20.5 38.5s23.667 14.334 41 17.001s40 4 68 4c29.333 0 53.333 -1.33301 72 -4
s33.167 -8.5 43.5 -17.5s17.5 -21.833 21.5 -38.5s6 -39 6 -67v-482c-22.667 -10.667 -38.5 -21 -47.5 -31s-13.5 -23 -13.5 -39c0 -12.667 2.83301 -21.5 8.5 -26.5s15.834 -7.5 30.501 -7.5h36v-81h-78c-17.333 0 -31.333 2.16699 -42 6.5s-19.334 10.333 -26.001 18
s-11.167 16.334 -13.5 26.001s-3.5 20.167 -3.5 31.5c0 25.333 5.83301 44.833 17.5 58.5s30.834 25.834 57.501 36.501c-11.333 -0.666992 -23.5 -1.16699 -36.5 -1.5s-26.167 -0.5 -39.5 -0.5zM177.999 73.999c19.333 0 31.666 0.666016 36.999 1.99902v196
c-4.66699 2.66699 -10.334 4.33398 -17.001 5.00098s-13.667 1 -21 1c-11.333 0 -20.166 -0.666992 -26.499 -2s-11.166 -4 -14.499 -8s-5.33301 -9.5 -6 -16.5s-1 -15.833 -1 -26.5v-94c0 -12.667 0.333008 -22.667 1 -30s2.66699 -13 6 -17s8.33301 -6.66699 15 -8
s15.667 -2 27 -2z" />
    <glyph glyph-name="Cacute" unicode="&#x106;" horiz-adv-x="394" 
d="M248 455l0.000976562 179.004c0 13.333 -0.5 24.166 -1.5 32.499s-3.33301 14.666 -7 18.999s-8.66699 7.33301 -15 9s-14.5 2.5 -24.5 2.5c-10.667 0 -19.167 -0.833008 -25.5 -2.5s-11.333 -4.83398 -15 -9.50098s-6 -11.167 -7 -19.5s-1.5 -18.833 -1.5 -31.5v-477
c0 -14 0.5 -25.167 1.5 -33.5s3.33301 -14.833 7 -19.5s8.66699 -7.83398 15 -9.50098s14.833 -2.5 25.5 -2.5c10 0 18.167 0.833008 24.5 2.5s11.333 4.83398 15 9.50098s6 11.167 7 19.5s1.5 19.5 1.5 33.5v183h111v-183c0 -37.333 -2.16699 -67 -6.5 -89
s-12.5 -38.667 -24.5 -50s-28.333 -18.833 -49 -22.5s-47 -5.5 -79 -5.5c-34 0 -61.667 1.83301 -83 5.5s-38 11.334 -50 23.001s-20.167 28.5 -24.5 50.5s-6.5 51.333 -6.5 88v477c0 36 2.33301 65 7 87s13.167 38.833 25.5 50.5s29.166 19.334 50.499 23.001
s48.333 5.5 81 5.5c32 0 58.333 -1.83301 79 -5.5s37 -11.334 49 -23.001s20.167 -28.334 24.5 -50.001s6.5 -50.834 6.5 -87.501v-179h-111zM203.001 996.004h110l-95 -166h-78z" />
    <glyph glyph-name="cacute" unicode="&#x107;" horiz-adv-x="347" 
d="M221 377v94.002c0 17.333 -2.66699 28.666 -8 33.999s-16.666 8 -33.999 8c-19.333 0 -31.5 -2.66699 -36.5 -8s-7.5 -16.666 -7.5 -33.999v-344c0 -17.333 2.66699 -28.833 8 -34.5s16.666 -8.5 33.999 -8.5c18.667 0 30.667 3 36 9s8 17.333 8 34v155h93v-165
c0 -28 -2 -50.5 -6 -67.5s-11.167 -29.833 -21.5 -38.5s-24.166 -14.334 -41.499 -17.001s-39.333 -4 -66 -4c-30 0 -54.167 1.5 -72.5 4.5s-32.833 9 -43.5 18s-17.834 21.833 -21.501 38.5s-5.5 38.667 -5.5 66v365c0 27.333 2 49.333 6 66s11 29.5 21 38.5s24 15 42 18
s41 4.5 69 4.5c30 0 54.167 -1.5 72.5 -4.5s32.5 -9.16699 42.5 -18.5s16.667 -22.333 20 -39s5 -38.334 5 -65.001v-105h-93zM180 805.002h110l-95 -166h-78z" />
    <glyph glyph-name="Cdotaccent" unicode="&#x10a;" horiz-adv-x="394" 
d="M248 455l0.000976562 179.004c0 13.333 -0.5 24.166 -1.5 32.499s-3.33301 14.666 -7 18.999s-8.66699 7.33301 -15 9s-14.5 2.5 -24.5 2.5c-10.667 0 -19.167 -0.833008 -25.5 -2.5s-11.333 -4.83398 -15 -9.50098s-6 -11.167 -7 -19.5s-1.5 -18.833 -1.5 -31.5v-477
c0 -14 0.5 -25.167 1.5 -33.5s3.33301 -14.833 7 -19.5s8.66699 -7.83398 15 -9.50098s14.833 -2.5 25.5 -2.5c10 0 18.167 0.833008 24.5 2.5s11.333 4.83398 15 9.50098s6 11.167 7 19.5s1.5 19.5 1.5 33.5v183h111v-183c0 -37.333 -2.16699 -67 -6.5 -89
s-12.5 -38.667 -24.5 -50s-28.333 -18.833 -49 -22.5s-47 -5.5 -79 -5.5c-34 0 -61.667 1.83301 -83 5.5s-38 11.334 -50 23.001s-20.167 28.5 -24.5 50.5s-6.5 51.333 -6.5 88v477c0 36 2.33301 65 7 87s13.167 38.833 25.5 50.5s29.166 19.334 50.499 23.001
s48.333 5.5 81 5.5c32 0 58.333 -1.83301 79 -5.5s37 -11.334 49 -23.001s20.167 -28.334 24.5 -50.001s6.5 -50.834 6.5 -87.501v-179h-111zM247.001 877.004h-101v104h101v-104z" />
    <glyph glyph-name="cdotaccent" unicode="&#x10b;" horiz-adv-x="347" 
d="M221 377v94.002c0 17.333 -2.66699 28.666 -8 33.999s-16.666 8 -33.999 8c-19.333 0 -31.5 -2.66699 -36.5 -8s-7.5 -16.666 -7.5 -33.999v-344c0 -17.333 2.66699 -28.833 8 -34.5s16.666 -8.5 33.999 -8.5c18.667 0 30.667 3 36 9s8 17.333 8 34v155h93v-165
c0 -28 -2 -50.5 -6 -67.5s-11.167 -29.833 -21.5 -38.5s-24.166 -14.334 -41.499 -17.001s-39.333 -4 -66 -4c-30 0 -54.167 1.5 -72.5 4.5s-32.833 9 -43.5 18s-17.834 21.833 -21.501 38.5s-5.5 38.667 -5.5 66v365c0 27.333 2 49.333 6 66s11 29.5 21 38.5s24 15 42 18
s41 4.5 69 4.5c30 0 54.167 -1.5 72.5 -4.5s32.5 -9.16699 42.5 -18.5s16.667 -22.333 20 -39s5 -38.334 5 -65.001v-105h-93zM225 686.002h-101v104h101v-104z" />
    <glyph glyph-name="Ccaron" unicode="&#x10c;" horiz-adv-x="394" 
d="M248 455l0.000976562 179.004c0 13.333 -0.5 24.166 -1.5 32.499s-3.33301 14.666 -7 18.999s-8.66699 7.33301 -15 9s-14.5 2.5 -24.5 2.5c-10.667 0 -19.167 -0.833008 -25.5 -2.5s-11.333 -4.83398 -15 -9.50098s-6 -11.167 -7 -19.5s-1.5 -18.833 -1.5 -31.5v-477
c0 -14 0.5 -25.167 1.5 -33.5s3.33301 -14.833 7 -19.5s8.66699 -7.83398 15 -9.50098s14.833 -2.5 25.5 -2.5c10 0 18.167 0.833008 24.5 2.5s11.333 4.83398 15 9.50098s6 11.167 7 19.5s1.5 19.5 1.5 33.5v183h111v-183c0 -37.333 -2.16699 -67 -6.5 -89
s-12.5 -38.667 -24.5 -50s-28.333 -18.833 -49 -22.5s-47 -5.5 -79 -5.5c-34 0 -61.667 1.83301 -83 5.5s-38 11.334 -50 23.001s-20.167 28.5 -24.5 50.5s-6.5 51.333 -6.5 88v477c0 36 2.33301 65 7 87s13.167 38.833 25.5 50.5s29.166 19.334 50.499 23.001
s48.333 5.5 81 5.5c32 0 58.333 -1.83301 79 -5.5s37 -11.334 49 -23.001s20.167 -28.334 24.5 -50.001s6.5 -50.834 6.5 -87.501v-179h-111zM52.001 996.004h72l73 -109l73 109h72l-102 -166h-86z" />
    <glyph glyph-name="ccaron" unicode="&#x10d;" horiz-adv-x="347" 
d="M221 377v94.002c0 17.333 -2.66699 28.666 -8 33.999s-16.666 8 -33.999 8c-19.333 0 -31.5 -2.66699 -36.5 -8s-7.5 -16.666 -7.5 -33.999v-344c0 -17.333 2.66699 -28.833 8 -34.5s16.666 -8.5 33.999 -8.5c18.667 0 30.667 3 36 9s8 17.333 8 34v155h93v-165
c0 -28 -2 -50.5 -6 -67.5s-11.167 -29.833 -21.5 -38.5s-24.166 -14.334 -41.499 -17.001s-39.333 -4 -66 -4c-30 0 -54.167 1.5 -72.5 4.5s-32.833 9 -43.5 18s-17.834 21.833 -21.501 38.5s-5.5 38.667 -5.5 66v365c0 27.333 2 49.333 6 66s11 29.5 21 38.5s24 15 42 18
s41 4.5 69 4.5c30 0 54.167 -1.5 72.5 -4.5s32.5 -9.16699 42.5 -18.5s16.667 -22.333 20 -39s5 -38.334 5 -65.001v-105h-93zM29 805.002h72l73 -109l73 109h72l-102 -166h-86z" />
    <glyph glyph-name="Dcaron" unicode="&#x10e;" horiz-adv-x="407" 
d="M373 162c0 -35.333 -2.16699 -63.668 -6.5 -85.001s-12.666 -37.666 -24.999 -48.999s-29.166 -18.833 -50.499 -22.5s-49 -5.5 -83 -5.5h-164v790h164c34 0 61.667 -1.83301 83 -5.5s38.166 -11.167 50.499 -22.5s20.666 -27.5 24.999 -48.5s6.5 -49.167 6.5 -84.5v-467
zM257 628.998c0 12.667 -0.666992 23.002 -2 31.002s-3.66602 14.333 -6.99902 19s-8.16602 7.66699 -14.499 9s-14.833 2 -25.5 2h-49v-591h49c10.667 0 19.167 0.833008 25.5 2.5s11.166 4.66699 14.499 9s5.66602 10.666 6.99902 18.999s2 19.166 2 32.499v467zM52 996
h72l73 -109l73 109h72l-102 -166h-86z" />
    <glyph glyph-name="dcaron" unicode="&#x10f;" horiz-adv-x="483" 
d="M36 482c0 22.667 1.33008 41.832 3.99707 57.499s7.5 28.167 14.5 37.5s16.333 16.166 28 20.499s26.834 6.5 45.501 6.5c27.333 0 47.333 -3.66699 60 -11s23 -17.666 31 -30.999v228h103v-790h-95v43c-9.33301 -17.333 -21.166 -29.666 -35.499 -36.999
s-34.5 -11 -60.5 -11c-19.333 0 -35.166 2 -47.499 6s-22 10.667 -29 20s-11.833 21.833 -14.5 37.5s-4 35.167 -4 58.5v365zM221.997 480.998c-5.33301 11.333 -11.5 19.333 -18.5 24s-17.167 7 -30.5 7c-15.333 0 -25.5 -3.5 -30.5 -10.5s-7.5 -20.167 -7.5 -39.5v-326
c0 -19.333 2.5 -32.5 7.5 -39.5s15.167 -10.5 30.5 -10.5c13.333 0 23.5 2.33301 30.5 7s13.167 12.667 18.5 24v364zM406.997 789.998h102l-82 -165h-71z" />
    <glyph glyph-name="dmacron" unicode="&#x111;" horiz-adv-x="366" 
d="M367 688l-45.0029 -0.00195312v-688h-95v43c-9.33301 -17.333 -21.166 -29.666 -35.499 -36.999s-34.5 -11 -60.5 -11c-19.333 0 -35.166 2 -47.499 6s-22 10.667 -29 20s-11.833 21.833 -14.5 37.5s-4 35.167 -4 58.5v365c0 22.667 1.33301 41.834 4 57.501
s7.5 28.167 14.5 37.5s16.333 16.166 28 20.499s26.834 6.5 45.501 6.5c27.333 0 47.333 -3.66699 60 -11s23 -17.666 31 -30.999v126h-144v61h144v41h103v-41h45v-61zM221.997 480.998c-5.33301 11.333 -11.5 19.333 -18.5 24s-17.167 7 -30.5 7
c-15.333 0 -25.5 -3.5 -30.5 -10.5s-7.5 -20.167 -7.5 -39.5v-326c0 -19.333 2.5 -32.5 7.5 -39.5s15.167 -10.5 30.5 -10.5c13.333 0 23.5 2.33301 30.5 7s13.167 12.667 18.5 24v364z" />
    <glyph glyph-name="Emacron" unicode="&#x112;" horiz-adv-x="293" 
d="M270 0h-226v790h225v-95h-110v-115h107v-91h-107v-390h111v-99zM303 899h-292v61h292v-61z" />
    <glyph glyph-name="emacron" unicode="&#x113;" horiz-adv-x="349" 
d="M136 264v-140.998c0 -19.333 2.5 -31.833 7.5 -37.5s16.833 -8.5 35.5 -8.5c18 0 29.667 2.83301 35 8.5s8 18.167 8 37.5v81h92v-87c0 -28 -1.83301 -50.5 -5.5 -67.5s-10.5 -29.833 -20.5 -38.5s-23.833 -14.334 -41.5 -17.001s-40.5 -4 -68.5 -4
c-29.333 0 -53.333 1.33301 -72 4s-33.167 8.5 -43.5 17.5s-17.333 21.833 -21 38.5s-5.5 39 -5.5 67v365c0 28 1.83301 50.333 5.5 67s10.667 29.5 21 38.5s24.833 14.833 43.5 17.5s42.667 4 72 4c28 0 50.833 -1.33301 68.5 -4s31.5 -8.33398 41.5 -17.001
s16.833 -21.5 20.5 -38.5s5.5 -39.5 5.5 -67.5v-218h-178zM136 346.002h86v128c0 19.333 -2.66699 31.666 -8 36.999s-17 8 -35 8c-18.667 0 -30.5 -2.66699 -35.5 -8s-7.5 -17.666 -7.5 -36.999v-128zM322 708.002h-292v61h292v-61z" />
    <glyph glyph-name="Ebreve" unicode="&#x114;" horiz-adv-x="293" 
d="M270 0h-226v790h225v-95h-110v-115h107v-91h-107v-390h111v-99zM157 833c-43.333 0 -78.667 12.667 -106 38s-41 67 -41 125h64c0.666992 -21.333 3.16699 -38.666 7.5 -51.999s10.166 -23.833 17.499 -31.5s15.833 -12.834 25.5 -15.501s20.5 -4 32.5 -4
s23 1.33301 33 4s18.5 7.83398 25.5 15.501s12.667 18.167 17 31.5s6.83301 30.666 7.5 51.999h64c0 -58 -13.667 -99.667 -41 -125s-62.666 -38 -105.999 -38z" />
    <glyph glyph-name="ebreve" unicode="&#x115;" horiz-adv-x="349" 
d="M136 264v-140.998c0 -19.333 2.5 -31.833 7.5 -37.5s16.833 -8.5 35.5 -8.5c18 0 29.667 2.83301 35 8.5s8 18.167 8 37.5v81h92v-87c0 -28 -1.83301 -50.5 -5.5 -67.5s-10.5 -29.833 -20.5 -38.5s-23.833 -14.334 -41.5 -17.001s-40.5 -4 -68.5 -4
c-29.333 0 -53.333 1.33301 -72 4s-33.167 8.5 -43.5 17.5s-17.333 21.833 -21 38.5s-5.5 39 -5.5 67v365c0 28 1.83301 50.333 5.5 67s10.667 29.5 21 38.5s24.833 14.833 43.5 17.5s42.667 4 72 4c28 0 50.833 -1.33301 68.5 -4s31.5 -8.33398 41.5 -17.001
s16.833 -21.5 20.5 -38.5s5.5 -39.5 5.5 -67.5v-218h-178zM136 346.002h86v128c0 19.333 -2.66699 31.666 -8 36.999s-17 8 -35 8c-18.667 0 -30.5 -2.66699 -35.5 -8s-7.5 -17.666 -7.5 -36.999v-128zM175 642.002c-43.333 0 -78.667 12.667 -106 38s-41 67 -41 125h64
c0.666992 -21.333 3.16699 -38.666 7.5 -51.999s10.166 -23.833 17.499 -31.5s15.833 -12.834 25.5 -15.501s20.5 -4 32.5 -4s23 1.33301 33 4s18.5 7.83398 25.5 15.501s12.667 18.167 17 31.5s6.83301 30.666 7.5 51.999h64c0 -58 -13.667 -99.667 -41 -125
s-62.666 -38 -105.999 -38z" />
    <glyph glyph-name="Edotaccent" unicode="&#x116;" horiz-adv-x="293" 
d="M270 0h-226v790h225v-95h-110v-115h107v-91h-107v-390h111v-99zM207 877h-101v104h101v-104z" />
    <glyph glyph-name="edotaccent" unicode="&#x117;" horiz-adv-x="349" 
d="M136 264v-140.998c0 -19.333 2.5 -31.833 7.5 -37.5s16.833 -8.5 35.5 -8.5c18 0 29.667 2.83301 35 8.5s8 18.167 8 37.5v81h92v-87c0 -28 -1.83301 -50.5 -5.5 -67.5s-10.5 -29.833 -20.5 -38.5s-23.833 -14.334 -41.5 -17.001s-40.5 -4 -68.5 -4
c-29.333 0 -53.333 1.33301 -72 4s-33.167 8.5 -43.5 17.5s-17.333 21.833 -21 38.5s-5.5 39 -5.5 67v365c0 28 1.83301 50.333 5.5 67s10.667 29.5 21 38.5s24.833 14.833 43.5 17.5s42.667 4 72 4c28 0 50.833 -1.33301 68.5 -4s31.5 -8.33398 41.5 -17.001
s16.833 -21.5 20.5 -38.5s5.5 -39.5 5.5 -67.5v-218h-178zM136 346.002h86v128c0 19.333 -2.66699 31.666 -8 36.999s-17 8 -35 8c-18.667 0 -30.5 -2.66699 -35.5 -8s-7.5 -17.666 -7.5 -36.999v-128zM226 686.002h-101v104h101v-104z" />
    <glyph glyph-name="Eogonek" unicode="&#x118;" horiz-adv-x="293" 
d="M44 0v790h225v-95h-110v-115h107v-91h-107v-390h111v-99c-22.667 -10.667 -38.5 -21 -47.5 -31s-13.5 -23 -13.5 -39c0 -12.667 2.83301 -21.5 8.5 -26.5s15.834 -7.5 30.501 -7.5h36v-81h-78c-17.333 0 -31.333 2.16699 -42 6.5s-19.334 10.333 -26.001 18
s-11.167 16.334 -13.5 26.001s-3.5 20.167 -3.5 31.5c0 28.667 7.66699 50.167 23 64.5s41 27.166 77 38.499h-177z" />
    <glyph glyph-name="eogonek" unicode="&#x119;" horiz-adv-x="349" 
d="M136 264l0.00292969 -141.002c0 -19.333 2.5 -31.833 7.5 -37.5s16.833 -8.5 35.5 -8.5c18 0 29.667 2.83301 35 8.5s8 18.167 8 37.5v81h92v-87c0 -20 -0.833008 -36.5 -2.5 -49.5s-4.16699 -23.833 -7.5 -32.5s-8 -15.667 -14 -21s-13 -10 -21 -14
c-20.667 -10 -36 -19.167 -46 -27.5s-15 -21.833 -15 -40.5c0 -13.333 2.83301 -22.666 8.5 -27.999s15.834 -8 30.501 -8h36v-81h-78c-17.333 0 -31.333 2.16699 -42 6.5s-19.334 10.333 -26.001 18s-11.167 16.334 -13.5 26.001s-3.5 20.167 -3.5 31.5
c0 24.667 5.66699 43.834 17 57.501s29.666 25.5 54.999 35.5h-13c-29.333 0 -53.333 1.33301 -72 4s-33.334 8.5 -44.001 17.5s-17.834 21.833 -21.501 38.5s-5.5 39 -5.5 67v365c0 28 1.83301 50.333 5.5 67s10.667 29.5 21 38.5s24.833 14.833 43.5 17.5s42.667 4 72 4
c28 0 50.833 -1.33301 68.5 -4s31.5 -8.33398 41.5 -17.001s16.833 -21.5 20.5 -38.5s5.5 -39.5 5.5 -67.5v-218h-178zM136.003 345.998h86v128c0 19.333 -2.66699 31.666 -8 36.999s-17 8 -35 8c-18.667 0 -30.5 -2.66699 -35.5 -8s-7.5 -17.666 -7.5 -36.999v-128z" />
    <glyph glyph-name="Ecaron" unicode="&#x11a;" horiz-adv-x="293" 
d="M270 0h-226v790h225v-95h-110v-115h107v-91h-107v-390h111v-99zM12 996h72l73 -109l73 109h72l-102 -166h-86z" />
    <glyph glyph-name="ecaron" unicode="&#x11b;" horiz-adv-x="349" 
d="M136 264v-140.998c0 -19.333 2.5 -31.833 7.5 -37.5s16.833 -8.5 35.5 -8.5c18 0 29.667 2.83301 35 8.5s8 18.167 8 37.5v81h92v-87c0 -28 -1.83301 -50.5 -5.5 -67.5s-10.5 -29.833 -20.5 -38.5s-23.833 -14.334 -41.5 -17.001s-40.5 -4 -68.5 -4
c-29.333 0 -53.333 1.33301 -72 4s-33.167 8.5 -43.5 17.5s-17.333 21.833 -21 38.5s-5.5 39 -5.5 67v365c0 28 1.83301 50.333 5.5 67s10.667 29.5 21 38.5s24.833 14.833 43.5 17.5s42.667 4 72 4c28 0 50.833 -1.33301 68.5 -4s31.5 -8.33398 41.5 -17.001
s16.833 -21.5 20.5 -38.5s5.5 -39.5 5.5 -67.5v-218h-178zM136 346.002h86v128c0 19.333 -2.66699 31.666 -8 36.999s-17 8 -35 8c-18.667 0 -30.5 -2.66699 -35.5 -8s-7.5 -17.666 -7.5 -36.999v-128zM30 805.002h72l73 -109l73 109h72l-102 -166h-86z" />
    <glyph glyph-name="Gbreve" unicode="&#x11e;" horiz-adv-x="398" 
d="M248 562l0.000976562 72.0068c0 13.333 -0.5 24.166 -1.5 32.499s-3.33301 14.666 -7 18.999s-8.66699 7.33301 -15 9s-14.5 2.5 -24.5 2.5c-10.667 0 -19.167 -0.833008 -25.5 -2.5s-11.333 -4.83398 -15 -9.50098s-6 -11.167 -7 -19.5s-1.5 -18.833 -1.5 -31.5v-477
c0 -13.333 0.666992 -24.333 2 -33s3.83301 -15.334 7.5 -20.001s9 -7.83398 16 -9.50098s16.5 -2.5 28.5 -2.5c10 0 19.167 0.333008 27.5 1s14.5 1.66699 18.5 3v363h108v-459c-9.33301 -2 -27.333 -4.16699 -54 -6.5s-58 -3.5 -94 -3.5c-36.667 0 -66.5 2 -89.5 6
s-40.833 12 -53.5 24s-21.167 29 -25.5 51s-6.5 50.667 -6.5 86v477c0 36 2.33301 65 7 87s13.167 38.833 25.5 50.5s29.166 19.334 50.499 23.001s48.333 5.5 81 5.5c32 0 58.333 -1.83301 79 -5.5s37 -11.334 49 -23.001s20.167 -28.334 24.5 -50.001
s6.5 -50.834 6.5 -87.501v-72h-111zM198.001 833.007c-43.333 0 -78.667 12.667 -106 38s-41 67 -41 125h64c0.666992 -21.333 3.16699 -38.666 7.5 -51.999s10.166 -23.833 17.499 -31.5s15.833 -12.834 25.5 -15.501s20.5 -4 32.5 -4s23 1.33301 33 4
s18.5 7.83398 25.5 15.501s12.667 18.167 17 31.5s6.83301 30.666 7.5 51.999h64c0 -58 -13.667 -99.667 -41 -125s-62.666 -38 -105.999 -38z" />
    <glyph glyph-name="gbreve" unicode="&#x11f;" horiz-adv-x="366" 
d="M159 -67c22.667 0 38.332 3.8291 46.999 11.4961s13 22.834 13 45.501v77c-8 -13.333 -18.667 -23.5 -32 -30.5s-32.666 -10.5 -57.999 -10.5c-19.333 0 -35 2.16699 -47 6.5s-21.5 11.333 -28.5 21s-11.667 22.334 -14 38.001s-3.5 34.5 -3.5 56.5v334
c0 22.667 1.33301 41.834 4 57.501s7.5 28.334 14.5 38.001s16.833 16.5 29.5 20.5s28.667 6 48 6c22.667 0 41.667 -3.33301 57 -10s28 -19.667 38 -39v44h95v-609c0 -48.667 -10.5 -84.667 -31.5 -108s-56.833 -35 -107.5 -35h-131v86h107zM221.998 480.996
c-5.33301 11.333 -11.5 19.333 -18.5 24s-17.167 7 -30.5 7c-15.333 0 -25.5 -3.5 -30.5 -10.5s-7.5 -20.167 -7.5 -39.5v-295c0 -19.333 2.5 -32.5 7.5 -39.5s15.167 -10.5 30.5 -10.5c13.333 0 23.5 2.33301 30.5 7s13.167 12.667 18.5 24v333zM182.998 641.996
c-43.333 0 -78.667 12.667 -106 38s-41 67 -41 125h64c0.666992 -21.333 3.16699 -38.666 7.5 -51.999s10.166 -23.833 17.499 -31.5s15.833 -12.834 25.5 -15.501s20.5 -4 32.5 -4s23 1.33301 33 4s18.5 7.83398 25.5 15.501s12.667 18.167 17 31.5
s6.83301 30.666 7.5 51.999h64c0 -58 -13.667 -99.667 -41 -125s-62.666 -38 -105.999 -38z" />
    <glyph glyph-name="Gdotaccent" unicode="&#x120;" horiz-adv-x="398" 
d="M248 562l0.000976562 72.0068c0 13.333 -0.5 24.166 -1.5 32.499s-3.33301 14.666 -7 18.999s-8.66699 7.33301 -15 9s-14.5 2.5 -24.5 2.5c-10.667 0 -19.167 -0.833008 -25.5 -2.5s-11.333 -4.83398 -15 -9.50098s-6 -11.167 -7 -19.5s-1.5 -18.833 -1.5 -31.5v-477
c0 -13.333 0.666992 -24.333 2 -33s3.83301 -15.334 7.5 -20.001s9 -7.83398 16 -9.50098s16.5 -2.5 28.5 -2.5c10 0 19.167 0.333008 27.5 1s14.5 1.66699 18.5 3v363h108v-459c-9.33301 -2 -27.333 -4.16699 -54 -6.5s-58 -3.5 -94 -3.5c-36.667 0 -66.5 2 -89.5 6
s-40.833 12 -53.5 24s-21.167 29 -25.5 51s-6.5 50.667 -6.5 86v477c0 36 2.33301 65 7 87s13.167 38.833 25.5 50.5s29.166 19.334 50.499 23.001s48.333 5.5 81 5.5c32 0 58.333 -1.83301 79 -5.5s37 -11.334 49 -23.001s20.167 -28.334 24.5 -50.001
s6.5 -50.834 6.5 -87.501v-72h-111zM248.001 877.007h-101v104h101v-104z" />
    <glyph glyph-name="gdotaccent" unicode="&#x121;" horiz-adv-x="366" 
d="M159 -67c22.667 0 38.332 3.8291 46.999 11.4961s13 22.834 13 45.501v77c-8 -13.333 -18.667 -23.5 -32 -30.5s-32.666 -10.5 -57.999 -10.5c-19.333 0 -35 2.16699 -47 6.5s-21.5 11.333 -28.5 21s-11.667 22.334 -14 38.001s-3.5 34.5 -3.5 56.5v334
c0 22.667 1.33301 41.834 4 57.501s7.5 28.334 14.5 38.001s16.833 16.5 29.5 20.5s28.667 6 48 6c22.667 0 41.667 -3.33301 57 -10s28 -19.667 38 -39v44h95v-609c0 -48.667 -10.5 -84.667 -31.5 -108s-56.833 -35 -107.5 -35h-131v86h107zM221.998 480.996
c-5.33301 11.333 -11.5 19.333 -18.5 24s-17.167 7 -30.5 7c-15.333 0 -25.5 -3.5 -30.5 -10.5s-7.5 -20.167 -7.5 -39.5v-295c0 -19.333 2.5 -32.5 7.5 -39.5s15.167 -10.5 30.5 -10.5c13.333 0 23.5 2.33301 30.5 7s13.167 12.667 18.5 24v333zM232.998 685.996h-101v104
h101v-104z" />
    <glyph glyph-name="Gcommaaccent" unicode="&#x122;" horiz-adv-x="398" 
d="M248 562l0.000976562 72.0068c0 13.333 -0.5 24.166 -1.5 32.499s-3.33301 14.666 -7 18.999s-8.66699 7.33301 -15 9s-14.5 2.5 -24.5 2.5c-10.667 0 -19.167 -0.833008 -25.5 -2.5s-11.333 -4.83398 -15 -9.50098s-6 -11.167 -7 -19.5s-1.5 -18.833 -1.5 -31.5v-477
c0 -13.333 0.666992 -24.333 2 -33s3.83301 -15.334 7.5 -20.001s9 -7.83398 16 -9.50098s16.5 -2.5 28.5 -2.5c10 0 19.167 0.333008 27.5 1s14.5 1.66699 18.5 3v363h108v-459c-9.33301 -2 -27.333 -4.16699 -54 -6.5s-58 -3.5 -94 -3.5c-36.667 0 -66.5 2 -89.5 6
s-40.833 12 -53.5 24s-21.167 29 -25.5 51s-6.5 50.667 -6.5 86v477c0 36 2.33301 65 7 87s13.167 38.833 25.5 50.5s29.166 19.334 50.499 23.001s48.333 5.5 81 5.5c32 0 58.333 -1.83301 79 -5.5s37 -11.334 49 -23.001s20.167 -28.334 24.5 -50.001
s6.5 -50.834 6.5 -87.501v-72h-111zM150.001 -19.9932h102l-82 -165h-71z" />
    <glyph glyph-name="gcommaaccent" unicode="&#x123;" horiz-adv-x="366" 
d="M159 -67c22.667 0 38.332 3.8291 46.999 11.4961s13 22.834 13 45.501v77c-8 -13.333 -18.667 -23.5 -32 -30.5s-32.666 -10.5 -57.999 -10.5c-19.333 0 -35 2.16699 -47 6.5s-21.5 11.333 -28.5 21s-11.667 22.334 -14 38.001s-3.5 34.5 -3.5 56.5v334
c0 22.667 1.33301 41.834 4 57.501s7.5 28.334 14.5 38.001s16.833 16.5 29.5 20.5s28.667 6 48 6c22.667 0 41.667 -3.33301 57 -10s28 -19.667 38 -39v44h95v-609c0 -48.667 -10.5 -84.667 -31.5 -108s-56.833 -35 -107.5 -35h-131v86h107zM221.998 480.996
c-5.33301 11.333 -11.5 19.333 -18.5 24s-17.167 7 -30.5 7c-15.333 0 -25.5 -3.5 -30.5 -10.5s-7.5 -20.167 -7.5 -39.5v-295c0 -19.333 2.5 -32.5 7.5 -39.5s15.167 -10.5 30.5 -10.5c13.333 0 23.5 2.33301 30.5 7s13.167 12.667 18.5 24v333zM227.002 624.995h-101.994
l81.9951 164.989h70.9961z" />
    <glyph glyph-name="Hbar" unicode="&#x126;" horiz-adv-x="417" 
d="M375 0h-116v432h-100v-432h-115v790h115v-95h100v95h116v-790zM259 529v105h-100v-105h100z" />
    <glyph glyph-name="hbar" unicode="&#x127;" horiz-adv-x="378" 
d="M292 688h-145.999v-127c8 15.333 19 26.333 33 33s33.667 10 59 10c38 0 64.333 -8.83301 79 -26.5s22 -49.5 22 -95.5v-482h-102v471c0 15.333 -2.83301 26 -8.5 32s-16.167 9 -31.5 9c-16.667 0 -28.334 -2.83301 -35.001 -8.5s-12 -13.167 -16 -22.5v-481h-102v688
h-44v61h44v41h102v-41h146v-61z" />
    <glyph glyph-name="hbar" unicode="&#x45b;" horiz-adv-x="378" 
d="M292 688h-145.999v-127c8 15.333 19 26.333 33 33s33.667 10 59 10c38 0 64.333 -8.83301 79 -26.5s22 -49.5 22 -95.5v-482h-102v471c0 15.333 -2.83301 26 -8.5 32s-16.167 9 -31.5 9c-16.667 0 -28.334 -2.83301 -35.001 -8.5s-12 -13.167 -16 -22.5v-481h-102v688
h-44v61h44v41h102v-41h146v-61z" />
    <glyph glyph-name="Itilde" unicode="&#x128;" horiz-adv-x="267" 
d="M191 0h-115v790h115v-790zM57 914c-18 0 -32.1699 -3.3291 -42.5029 -9.99609s-19.166 -15.334 -26.499 -26.001v73c7.33301 7.33301 17 13.5 29 18.5s25.667 7.5 41 7.5c12.667 0 25.167 -1.66699 37.5 -5l37.5 -10.5l38 -10.5c12.667 -3.33301 25.667 -5 39 -5
c17.333 0 31.5 3.16699 42.5 9.5s20.167 15.166 27.5 26.499v-72c-7.33301 -8.66699 -17 -15.667 -29 -21s-26 -8 -42 -8c-13.333 0 -26.333 1.66699 -39 5s-25.167 7.16602 -37.5 11.499s-24.666 8.16602 -36.999 11.499s-25.166 5 -38.499 5z" />
    <glyph glyph-name="itilde" unicode="&#x129;" horiz-adv-x="262" 
d="M55 723c-18 0 -32.1699 -3.3291 -42.5029 -9.99609s-19.166 -15.334 -26.499 -26.001v73c7.33301 7.33301 17 13.5 29 18.5s25.667 7.5 41 7.5c12.667 0 25.167 -1.66699 37.5 -5l37.5 -10.5l38 -10.5c12.667 -3.33301 25.667 -5 39 -5c17.333 0 31.5 3.16699 42.5 9.5
s20.167 15.166 27.5 26.499v-72c-7.33301 -8.66699 -17 -15.667 -29 -21s-26 -8 -42 -8c-13.333 0 -26.333 1.66699 -39 5s-25.167 7.16602 -37.5 11.499s-24.666 8.16602 -36.999 11.499s-25.166 5 -38.499 5zM181.997 0.00390625h-101v599h101v-599z" />
    <glyph glyph-name="Imacron" unicode="&#x12a;" horiz-adv-x="205" 
d="M161 0h-115v790h115v-790zM250 899h-292v61h292v-61z" />
    <glyph glyph-name="imacron" unicode="&#x12b;" horiz-adv-x="264" 
d="M279 708h-292v61h292v-61zM183 0h-101v599h101v-599z" />
    <glyph glyph-name="Ibreve" unicode="&#x12c;" horiz-adv-x="205" 
d="M161 0h-115v790h115v-790zM104 833c-43.333 0 -78.667 12.667 -106 38s-41 67 -41 125h64c0.666992 -21.333 3.16699 -38.666 7.5 -51.999s10.166 -23.833 17.499 -31.5s15.833 -12.834 25.5 -15.501s20.5 -4 32.5 -4s23 1.33301 33 4s18.5 7.83398 25.5 15.501
s12.667 18.167 17 31.5s6.83301 30.666 7.5 51.999h64c0 -58 -13.667 -99.667 -41 -125s-62.666 -38 -105.999 -38z" />
    <glyph glyph-name="ibreve" unicode="&#x12d;" horiz-adv-x="261" 
d="M131 642c-43.333 0 -78.667 12.667 -106 38s-41 67 -41 125h64c0.666992 -21.333 3.16699 -38.666 7.5 -51.999s10.166 -23.833 17.499 -31.5s15.833 -12.834 25.5 -15.501s20.5 -4 32.5 -4s23 1.33301 33 4s18.5 7.83398 25.5 15.501s12.667 18.167 17 31.5
s6.83301 30.666 7.5 51.999h64c0 -58 -13.667 -99.667 -41 -125s-62.666 -38 -105.999 -38zM180.999 0h-101v599h101v-599z" />
    <glyph glyph-name="Iogonek" unicode="&#x12e;" horiz-adv-x="205" 
d="M12 -103c0 32.667 11.333 56.999 34 72.999v820h115v-790c-22.667 -10.667 -38.5 -21 -47.5 -31s-13.5 -23 -13.5 -39c0 -12.667 2.83301 -21.5 8.5 -26.5s15.834 -7.5 30.501 -7.5h36v-81h-78c-17.333 0 -31.333 2.16699 -42 6.5s-19.334 10.333 -26.001 18
s-11.167 16.334 -13.5 26.001s-3.5 20.167 -3.5 31.5z" />
    <glyph glyph-name="iogonek" unicode="&#x12f;" horiz-adv-x="192" 
d="M147 0c-22.667 -10.667 -38.499 -21 -47.499 -31s-13.5 -23 -13.5 -39c0 -12.667 2.83301 -21.5 8.5 -26.5s15.834 -7.5 30.501 -7.5h36v-81h-78c-17.333 0 -31.333 2.16699 -42 6.5s-19.334 10.333 -26.001 18s-11.167 16.334 -13.5 26.001s-3.5 20.167 -3.5 31.5
c0 20.667 3.66699 37.167 11 49.5s19.666 23.166 36.999 32.499v620h101v-599zM147.001 686h-101v104h101v-104z" />
    <glyph glyph-name="Idotaccent" unicode="&#x130;" horiz-adv-x="205" 
d="M161 0h-115v790h115v-790zM154 877h-101v104h101v-104z" />
    <glyph glyph-name="dotlessi" unicode="&#x131;" horiz-adv-x="192" 
d="M147 0h-101v599h101v-599z" />
    <glyph glyph-name="IJ" unicode="&#x132;" horiz-adv-x="577" 
d="M161 0h-115v790h115v-790zM219 340l104.997 0.00195312v-183c0 -14 0.666992 -25.167 2 -33.5s3.66602 -14.833 6.99902 -19.5s8 -7.83398 14 -9.50098s13.667 -2.5 23 -2.5c20.667 0 33.834 4.16699 39.501 12.5s8.5 25.833 8.5 52.5v633h116v-633
c0 -36.667 -2.16699 -66 -6.5 -88s-12.333 -38.833 -24 -50.5s-28 -19.334 -49 -23.001s-47.833 -5.5 -80.5 -5.5c-31.333 0 -57.166 1.83301 -77.499 5.5s-36.166 11.167 -47.499 22.5s-19.166 28 -23.499 50s-6.5 51.667 -6.5 89v183z" />
    <glyph glyph-name="ij" unicode="&#x133;" horiz-adv-x="384" 
d="M147 686h-101v104h101v-104zM147 0h-101v599h101v-599zM240 599l102.001 0.000976562v-609c0 -48 -10.833 -83.833 -32.5 -107.5s-58.167 -35.5 -109.5 -35.5h-56v86h48c17.333 0 29.666 4.16699 36.999 12.5s11 23.166 11 44.499v609zM342.001 686.001h-102v104h102
v-104z" />
    <glyph glyph-name="Kcommaaccent" unicode="&#x136;" horiz-adv-x="404" 
d="M383 790l-118 -328l134 -462h-125l-109 415h-5v-415h-116v790h116v-299h5l97 299h121zM165 -20h102l-82 -165h-71z" />
    <glyph glyph-name="kcommaaccent" unicode="&#x137;" horiz-adv-x="364" 
d="M243 0l-94 308h-4v-308h-101v790h101v-412h4l84 221h111l-109 -250l122 -349h-114zM146 -20h102l-82 -165h-71z" />
    <glyph glyph-name="Lacute" unicode="&#x139;" horiz-adv-x="289" 
d="M277 0h-233v790h115v-690h118v-100zM116 996h110l-95 -166h-78z" />
    <glyph glyph-name="lacute" unicode="&#x13a;" horiz-adv-x="188" 
d="M146 0h-102v790h102v-790zM100 996h110l-95 -166h-78z" />
    <glyph glyph-name="Lcommaaccent" unicode="&#x13b;" horiz-adv-x="289" 
d="M277 0h-233v790h115v-690h118v-100zM108 -20h102l-82 -165h-71z" />
    <glyph glyph-name="lcommaaccent" unicode="&#x13c;" horiz-adv-x="188" 
d="M146 0h-102v790h102v-790zM44 -20h102l-82 -165h-71z" />
    <glyph glyph-name="Lcaron" unicode="&#x13d;" horiz-adv-x="348" 
d="M277 0h-233v790h115v-690h118v-100zM241 790h102l-82 -165h-71z" />
    <glyph glyph-name="lcaron" unicode="&#x13e;" horiz-adv-x="313" 
d="M146 0h-102v790h102v-790zM231 790h102l-82 -165h-71z" />
    <glyph glyph-name="Lslash" unicode="&#x141;" horiz-adv-x="288" 
d="M241 538l-83 -38v-400h118v-100h-232v454l-37 -15v91l37 15v245h114v-199l83 38v-91z" />
    <glyph glyph-name="lslash" unicode="&#x142;" horiz-adv-x="228" 
d="M225 527l-59 -26v-501h-102v463l-60 -25v91l60 25v236h102v-198l59 26v-91z" />
    <glyph glyph-name="Nacute" unicode="&#x143;" horiz-adv-x="432" 
d="M266 0l-119 493h-4v-493h-99v790h127l114 -507h4v507h100v-790h-123zM223 996h110l-95 -166h-78z" />
    <glyph glyph-name="nacute" unicode="&#x144;" horiz-adv-x="378" 
d="M146 0l-101.999 0.00292969v599h95v-40c8 15.333 19.333 26.666 34 33.999s36 11 64 11c19.333 0 35.5 -2 48.5 -6s23.5 -10.833 31.5 -20.5s13.667 -22.334 17 -38.001s5 -34.834 5 -57.501v-482h-102v471c0 15.333 -2.83301 26 -8.5 32s-16.167 9 -31.5 9
c-16.667 0 -28.334 -2.83301 -35.001 -8.5s-12 -13.167 -16 -22.5v-481zM195.001 805.003h110l-95 -166h-78z" />
    <glyph glyph-name="Ncommaaccent" unicode="&#x145;" horiz-adv-x="432" 
d="M266 0l-119 493h-4v-493h-99v790h127l114 -507h4v507h100v-790h-123zM160 -20h102l-82 -165h-71z" />
    <glyph glyph-name="ncommaaccent" unicode="&#x146;" horiz-adv-x="378" 
d="M146 0l-101.999 0.00292969v599h95v-40c8 15.333 19.333 26.666 34 33.999s36 11 64 11c19.333 0 35.5 -2 48.5 -6s23.5 -10.833 31.5 -20.5s13.667 -22.334 17 -38.001s5 -34.834 5 -57.501v-482h-102v471c0 15.333 -2.83301 26 -8.5 32s-16.167 9 -31.5 9
c-16.667 0 -28.334 -2.83301 -35.001 -8.5s-12 -13.167 -16 -22.5v-481zM142.001 -19.9971h102l-82 -165h-71z" />
    <glyph glyph-name="Ncaron" unicode="&#x147;" horiz-adv-x="432" 
d="M266 0l-119 493h-4v-493h-99v790h127l114 -507h4v507h100v-790h-123zM71 996h72l73 -109l73 109h72l-102 -166h-86z" />
    <glyph glyph-name="ncaron" unicode="&#x148;" horiz-adv-x="378" 
d="M146 0l-101.999 0.00292969v599h95v-40c8 15.333 19.333 26.666 34 33.999s36 11 64 11c19.333 0 35.5 -2 48.5 -6s23.5 -10.833 31.5 -20.5s13.667 -22.334 17 -38.001s5 -34.834 5 -57.501v-482h-102v471c0 15.333 -2.83301 26 -8.5 32s-16.167 9 -31.5 9
c-16.667 0 -28.334 -2.83301 -35.001 -8.5s-12 -13.167 -16 -22.5v-481zM44.001 805.003h72l73 -109l73 109h72l-102 -166h-86z" />
    <glyph glyph-name="Eng" unicode="&#x14a;" horiz-adv-x="432" 
d="M389 -10c0 -48 -10.834 -83.833 -32.501 -107.5s-58.167 -35.5 -109.5 -35.5h-56v86h48c14 0 24.833 2.83301 32.5 8.5s12.834 15.167 15.501 28.5l-140 523h-4v-493h-99v790h127l114 -507h4v507h100v-800z" />
    <glyph glyph-name="eng" unicode="&#x14b;" horiz-adv-x="378" 
d="M237 471c0 15.333 -2.83105 26.0039 -8.49805 32.0039s-16.167 9 -31.5 9c-16.667 0 -28.334 -2.83301 -35.001 -8.5s-12 -13.167 -16 -22.5v-481h-102v599h95v-40c8 15.333 19.333 26.666 34 33.999s36 11 64 11c19.333 0 35.5 -2 48.5 -6s23.5 -10.833 31.5 -20.5
s13.667 -22.334 17 -38.001s5 -34.834 5 -57.501v-492c0 -48 -10.833 -83.833 -32.5 -107.5s-58.167 -35.5 -109.5 -35.5h-56v86h48c17.333 0 29.666 4.16699 36.999 12.5s11 23.166 11 44.499v481z" />
    <glyph glyph-name="Omacron" unicode="&#x14c;" 
d="M365 157c0 -36.667 -2.16699 -66 -6.5 -88s-12.666 -38.833 -24.999 -50.5s-29.166 -19.334 -50.499 -23.001s-49 -5.5 -83 -5.5s-61.667 1.83301 -83 5.5s-38 11.334 -50 23.001s-20.167 28.5 -24.5 50.5s-6.5 51.333 -6.5 88v477c0 36.667 2.16699 65.834 6.5 87.501
s12.5 38.334 24.5 50.001s28.667 19.334 50 23.001s49 5.5 83 5.5s61.667 -1.83301 83 -5.5s38.166 -11.334 50.499 -23.001s20.666 -28.334 24.999 -50.001s6.5 -50.834 6.5 -87.501v-477zM249 634c0 13.333 -0.501953 24.1699 -1.50195 32.5029s-3.33301 14.666 -7 18.999
s-8.66699 7.33301 -15 9s-14.5 2.5 -24.5 2.5c-21.333 0 -35 -4 -41 -12s-9 -25 -9 -51v-477c0 -14 0.5 -25.167 1.5 -33.5s3.33301 -14.833 7 -19.5s8.66699 -7.83398 15 -9.50098s14.5 -2.5 24.5 -2.5c10.667 0 19.334 0.833008 26.001 2.5s11.834 5 15.501 10
s6 11.667 7 20s1.5 19.166 1.5 32.499v477zM345.998 899.004h-292v61h292v-61z" />
    <glyph glyph-name="omacron" unicode="&#x14d;" horiz-adv-x="358" 
d="M322 117c0 -28 -2 -50.333 -6 -67s-11.167 -29.5 -21.5 -38.5s-24.833 -14.833 -43.5 -17.5s-42.667 -4 -72 -4s-53.333 1.33301 -72 4s-33.334 8.5 -44.001 17.5s-17.834 21.833 -21.501 38.5s-5.5 39 -5.5 67v365c0 28 1.83301 50.333 5.5 67s10.834 29.5 21.501 38.5
s25.334 14.833 44.001 17.5s42.667 4 72 4s53.333 -1.33301 72 -4s33.167 -8.5 43.5 -17.5s17.5 -21.833 21.5 -38.5s6 -39 6 -67v-365zM223 471c0 17.333 -2.66797 28.666 -8.00098 33.999s-16.666 8 -33.999 8c-19.333 0 -31.833 -2.66699 -37.5 -8
s-8.5 -16.666 -8.5 -33.999v-344c0 -17.333 2.66699 -28.833 8 -34.5s17.333 -8.5 36 -8.5c19.333 0 31.5 3 36.5 9s7.5 17.333 7.5 34v344zM324.999 708h-292v61h292v-61z" />
    <glyph glyph-name="Obreve" unicode="&#x14e;" 
d="M365 157c0 -36.667 -2.16699 -66 -6.5 -88s-12.666 -38.833 -24.999 -50.5s-29.166 -19.334 -50.499 -23.001s-49 -5.5 -83 -5.5s-61.667 1.83301 -83 5.5s-38 11.334 -50 23.001s-20.167 28.5 -24.5 50.5s-6.5 51.333 -6.5 88v477c0 36.667 2.16699 65.834 6.5 87.501
s12.5 38.334 24.5 50.001s28.667 19.334 50 23.001s49 5.5 83 5.5s61.667 -1.83301 83 -5.5s38.166 -11.334 50.499 -23.001s20.666 -28.334 24.999 -50.001s6.5 -50.834 6.5 -87.501v-477zM249 634c0 13.333 -0.501953 24.1699 -1.50195 32.5029s-3.33301 14.666 -7 18.999
s-8.66699 7.33301 -15 9s-14.5 2.5 -24.5 2.5c-21.333 0 -35 -4 -41 -12s-9 -25 -9 -51v-477c0 -14 0.5 -25.167 1.5 -33.5s3.33301 -14.833 7 -19.5s8.66699 -7.83398 15 -9.50098s14.5 -2.5 24.5 -2.5c10.667 0 19.334 0.833008 26.001 2.5s11.834 5 15.501 10
s6 11.667 7 20s1.5 19.166 1.5 32.499v477zM199.998 833.004c-43.333 0 -78.667 12.667 -106 38s-41 67 -41 125h64c0.666992 -21.333 3.16699 -38.666 7.5 -51.999s10.166 -23.833 17.499 -31.5s15.833 -12.834 25.5 -15.501s20.5 -4 32.5 -4s23 1.33301 33 4
s18.5 7.83398 25.5 15.501s12.667 18.167 17 31.5s6.83301 30.666 7.5 51.999h64c0 -58 -13.667 -99.667 -41 -125s-62.666 -38 -105.999 -38z" />
    <glyph glyph-name="obreve" unicode="&#x14f;" horiz-adv-x="358" 
d="M322 117c0 -28 -2 -50.333 -6 -67s-11.167 -29.5 -21.5 -38.5s-24.833 -14.833 -43.5 -17.5s-42.667 -4 -72 -4s-53.333 1.33301 -72 4s-33.334 8.5 -44.001 17.5s-17.834 21.833 -21.501 38.5s-5.5 39 -5.5 67v365c0 28 1.83301 50.333 5.5 67s10.834 29.5 21.501 38.5
s25.334 14.833 44.001 17.5s42.667 4 72 4s53.333 -1.33301 72 -4s33.167 -8.5 43.5 -17.5s17.5 -21.833 21.5 -38.5s6 -39 6 -67v-365zM223 471c0 17.333 -2.66797 28.666 -8.00098 33.999s-16.666 8 -33.999 8c-19.333 0 -31.833 -2.66699 -37.5 -8
s-8.5 -16.666 -8.5 -33.999v-344c0 -17.333 2.66699 -28.833 8 -34.5s17.333 -8.5 36 -8.5c19.333 0 31.5 3 36.5 9s7.5 17.333 7.5 34v344zM178.999 642c-43.333 0 -78.667 12.667 -106 38s-41 67 -41 125h64c0.666992 -21.333 3.16699 -38.666 7.5 -51.999
s10.166 -23.833 17.499 -31.5s15.833 -12.834 25.5 -15.501s20.5 -4 32.5 -4s23 1.33301 33 4s18.5 7.83398 25.5 15.501s12.667 18.167 17 31.5s6.83301 30.666 7.5 51.999h64c0 -58 -13.667 -99.667 -41 -125s-62.666 -38 -105.999 -38z" />
    <glyph glyph-name="Ohungarumlaut" unicode="&#x150;" 
d="M365 157c0 -36.667 -2.16699 -66 -6.5 -88s-12.666 -38.833 -24.999 -50.5s-29.166 -19.334 -50.499 -23.001s-49 -5.5 -83 -5.5s-61.667 1.83301 -83 5.5s-38 11.334 -50 23.001s-20.167 28.5 -24.5 50.5s-6.5 51.333 -6.5 88v477c0 36.667 2.16699 65.834 6.5 87.501
s12.5 38.334 24.5 50.001s28.667 19.334 50 23.001s49 5.5 83 5.5s61.667 -1.83301 83 -5.5s38.166 -11.334 50.499 -23.001s20.666 -28.334 24.999 -50.001s6.5 -50.834 6.5 -87.501v-477zM249 634c0 13.333 -0.501953 24.1699 -1.50195 32.5029s-3.33301 14.666 -7 18.999
s-8.66699 7.33301 -15 9s-14.5 2.5 -24.5 2.5c-21.333 0 -35 -4 -41 -12s-9 -25 -9 -51v-477c0 -14 0.5 -25.167 1.5 -33.5s3.33301 -14.833 7 -19.5s8.66699 -7.83398 15 -9.50098s14.5 -2.5 24.5 -2.5c10.667 0 19.334 0.833008 26.001 2.5s11.834 5 15.501 10
s6 11.667 7 20s1.5 19.166 1.5 32.499v477zM305.998 996.004h110l-97 -166h-77zM125.998 996.004h110l-95 -166h-78z" />
    <glyph glyph-name="ohungarumlaut" unicode="&#x151;" horiz-adv-x="358" 
d="M322 117c0 -28 -2 -50.333 -6 -67s-11.167 -29.5 -21.5 -38.5s-24.833 -14.833 -43.5 -17.5s-42.667 -4 -72 -4s-53.333 1.33301 -72 4s-33.334 8.5 -44.001 17.5s-17.834 21.833 -21.501 38.5s-5.5 39 -5.5 67v365c0 28 1.83301 50.333 5.5 67s10.834 29.5 21.501 38.5
s25.334 14.833 44.001 17.5s42.667 4 72 4s53.333 -1.33301 72 -4s33.167 -8.5 43.5 -17.5s17.5 -21.833 21.5 -38.5s6 -39 6 -67v-365zM223 471c0 17.333 -2.66797 28.666 -8.00098 33.999s-16.666 8 -33.999 8c-19.333 0 -31.833 -2.66699 -37.5 -8
s-8.5 -16.666 -8.5 -33.999v-344c0 -17.333 2.66699 -28.833 8 -34.5s17.333 -8.5 36 -8.5c19.333 0 31.5 3 36.5 9s7.5 17.333 7.5 34v344zM284.999 805h110l-97 -166h-77zM104.999 805h110l-95 -166h-78z" />
    <glyph glyph-name="OE" unicode="&#x152;" horiz-adv-x="504" 
d="M459 0l-259 0.00195312c-34 0 -61.667 1.83301 -83 5.5s-38 11.167 -50 22.5s-20.167 27.666 -24.5 48.999s-6.5 49.666 -6.5 84.999v467c0 35.333 2.16699 63.5 6.5 84.5s12.5 37.167 24.5 48.5s28.667 18.833 50 22.5s49 5.5 83 5.5h259v-96h-110v-114h106v-92h-106
v-390h110v-98zM151 162.002c0 -13.333 0.5 -24.168 1.5 -32.501s3.33301 -14.666 7 -18.999s8.66699 -7.33301 15 -9s14.833 -2.5 25.5 -2.5h37v591h-37c-10.667 0 -19.167 -0.666992 -25.5 -2s-11.333 -4.33301 -15 -9s-6 -11 -7 -19s-1.5 -18.333 -1.5 -31v-467z" />
    <glyph glyph-name="oe" unicode="&#x153;" horiz-adv-x="537" 
d="M322 264l0.00390625 -143.998c0 -18 2.83301 -29.667 8.5 -35s17.5 -8 35.5 -8s29.667 2.83301 35 8.5s8 18.167 8 37.5v81h92v-87c0 -26.667 -1.83301 -48.334 -5.5 -65.001s-10 -29.5 -19 -38.5s-21.5 -15.167 -37.5 -18.5s-36.333 -5 -61 -5
c-16.667 0 -30.667 0.5 -42 1.5s-21 2.83301 -29 5.5s-14.833 5.83398 -20.5 9.50098s-10.834 8.16699 -15.501 13.5c-11.333 -12 -24.333 -20 -39 -24s-36.667 -6 -66 -6c-26 0 -47.5 1.66699 -64.5 5s-30.333 9.5 -40 18.5s-16.334 21.833 -20.001 38.5
s-5.5 38.334 -5.5 65.001v365c0 26.667 1.83301 48.167 5.5 64.5s10.167 29.166 19.5 38.499s22.166 15.666 38.499 18.999s37.166 5 62.499 5c16.667 0 30.667 -0.666992 42 -2s21.166 -3.16602 29.499 -5.49902s15.5 -5.5 21.5 -9.5s11.667 -9 17 -15
c5.33301 6 10.833 11 16.5 15s12.5 7.16699 20.5 9.5s17.667 4.16602 29 5.49902s25 2 41 2c24.667 0 44.834 -1.66699 60.501 -5s28 -9.5 37 -18.5s15.333 -21.833 19 -38.5s5.5 -38.334 5.5 -65.001v-218h-179zM322.004 345.002h87v129c0 18.667 -2.5 30.834 -7.5 36.501
s-16.167 8.5 -33.5 8.5c-18.667 0 -31 -2.83301 -37 -8.5s-9 -16.834 -9 -33.501v-132zM223.004 471.002c0 17.333 -2.66797 28.666 -8.00098 33.999s-16.666 8 -33.999 8c-19.333 0 -31.833 -2.66699 -37.5 -8s-8.5 -16.666 -8.5 -33.999v-344
c0 -17.333 2.66699 -28.833 8 -34.5s17.333 -8.5 36 -8.5c19.333 0 31.5 3 36.5 9s7.5 17.333 7.5 34v344z" />
    <glyph glyph-name="Racute" unicode="&#x154;" horiz-adv-x="409" 
d="M159 0l-114.998 0.00195312v790h164c34 0 61.667 -1.83301 83 -5.5s38.166 -11.334 50.499 -23.001s20.666 -28 24.999 -49s6.5 -48.833 6.5 -83.5v-83c0 -20.667 -2.16699 -37.5 -6.5 -50.5s-10 -23.5 -17 -31.5s-14.667 -13.833 -23 -17.5s-16.5 -6.5 -24.5 -8.5v-4
c10.667 -2.66699 20.334 -6.16699 29.001 -10.5s16.167 -11 22.5 -20s11.166 -20.5 14.499 -34.5s5 -32 5 -54v-315h-116v333c0 21.333 -2.66699 36.166 -8 44.499s-18 12.5 -38 12.5h-52v-390zM159.002 481.002l52.001 -0.00195312c18.667 0 31 3.66699 37 11
s9 20.666 9 39.999v97c0 12.667 -0.5 22.834 -1.5 30.501s-3.16699 13.834 -6.5 18.501s-8.33301 7.83398 -15 9.50098s-15.334 2.5 -26.001 2.5h-49v-209zM201.003 996h110l-95 -166h-78z" />
    <glyph glyph-name="racute" unicode="&#x155;" horiz-adv-x="337" 
d="M146 0l-102.001 -0.000976562v599h95v-40c7.33301 13.333 18.5 24.166 33.5 32.499s35.833 12.5 62.5 12.5c16.667 0 30.834 -2 42.501 -6s21 -10.667 28 -20s12 -21.833 15 -37.5s4.5 -35.167 4.5 -58.5v-149h-92v137c0 14.667 -2.33301 25.334 -7 32.001
s-14.667 10 -30 10c-14 0 -24.833 -2.66699 -32.5 -8s-13.5 -13.666 -17.5 -24.999v-479zM194.999 804.999h110l-95 -166h-78z" />
    <glyph glyph-name="Rcommaaccent" unicode="&#x156;" horiz-adv-x="409" 
d="M159 0l-114.998 0.00195312v790h164c34 0 61.667 -1.83301 83 -5.5s38.166 -11.334 50.499 -23.001s20.666 -28 24.999 -49s6.5 -48.833 6.5 -83.5v-83c0 -20.667 -2.16699 -37.5 -6.5 -50.5s-10 -23.5 -17 -31.5s-14.667 -13.833 -23 -17.5s-16.5 -6.5 -24.5 -8.5v-4
c10.667 -2.66699 20.334 -6.16699 29.001 -10.5s16.167 -11 22.5 -20s11.166 -20.5 14.499 -34.5s5 -32 5 -54v-315h-116v333c0 21.333 -2.66699 36.166 -8 44.499s-18 12.5 -38 12.5h-52v-390zM159.002 481.002l52.001 -0.00195312c18.667 0 31 3.66699 37 11
s9 20.666 9 39.999v97c0 12.667 -0.5 22.834 -1.5 30.501s-3.16699 13.834 -6.5 18.501s-8.33301 7.83398 -15 9.50098s-15.334 2.5 -26.001 2.5h-49v-209zM156.003 -20h102l-82 -165h-71z" />
    <glyph glyph-name="rcommaaccent" unicode="&#x157;" horiz-adv-x="337" 
d="M146 0l-102.001 -0.000976562v599h95v-40c7.33301 13.333 18.5 24.166 33.5 32.499s35.833 12.5 62.5 12.5c16.667 0 30.834 -2 42.501 -6s21 -10.667 28 -20s12 -21.833 15 -37.5s4.5 -35.167 4.5 -58.5v-149h-92v137c0 14.667 -2.33301 25.334 -7 32.001
s-14.667 10 -30 10c-14 0 -24.833 -2.66699 -32.5 -8s-13.5 -13.666 -17.5 -24.999v-479zM41.999 -20.001h102l-82 -165h-71z" />
    <glyph glyph-name="Rcaron" unicode="&#x158;" horiz-adv-x="409" 
d="M159 0l-114.998 0.00195312v790h164c34 0 61.667 -1.83301 83 -5.5s38.166 -11.334 50.499 -23.001s20.666 -28 24.999 -49s6.5 -48.833 6.5 -83.5v-83c0 -20.667 -2.16699 -37.5 -6.5 -50.5s-10 -23.5 -17 -31.5s-14.667 -13.833 -23 -17.5s-16.5 -6.5 -24.5 -8.5v-4
c10.667 -2.66699 20.334 -6.16699 29.001 -10.5s16.167 -11 22.5 -20s11.166 -20.5 14.499 -34.5s5 -32 5 -54v-315h-116v333c0 21.333 -2.66699 36.166 -8 44.499s-18 12.5 -38 12.5h-52v-390zM159.002 481.002l52.001 -0.00195312c18.667 0 31 3.66699 37 11
s9 20.666 9 39.999v97c0 12.667 -0.5 22.834 -1.5 30.501s-3.16699 13.834 -6.5 18.501s-8.33301 7.83398 -15 9.50098s-15.334 2.5 -26.001 2.5h-49v-209zM50.0029 996h72l73 -109l73 109h72l-102 -166h-86z" />
    <glyph glyph-name="rcaron" unicode="&#x159;" horiz-adv-x="337" 
d="M146 0l-102.001 -0.000976562v599h95v-40c7.33301 13.333 18.5 24.166 33.5 32.499s35.833 12.5 62.5 12.5c16.667 0 30.834 -2 42.501 -6s21 -10.667 28 -20s12 -21.833 15 -37.5s4.5 -35.167 4.5 -58.5v-149h-92v137c0 14.667 -2.33301 25.334 -7 32.001
s-14.667 10 -30 10c-14 0 -24.833 -2.66699 -32.5 -8s-13.5 -13.666 -17.5 -24.999v-479zM42.999 804.999h72l73 -109l73 109h72l-102 -166h-86z" />
    <glyph glyph-name="Sacute" unicode="&#x15a;" horiz-adv-x="395" 
d="M247 534l0.000976562 98.0039c0 14 -0.5 25.333 -1.5 34s-3.16699 15.167 -6.5 19.5s-8.33301 7.33301 -15 9s-15.334 2.5 -26.001 2.5c-11.333 0 -20.166 -0.833008 -26.499 -2.5s-11.166 -4.66699 -14.499 -9s-5.5 -10.833 -6.5 -19.5s-1.5 -20 -1.5 -34v-78
c0 -16 1.66699 -27.833 5 -35.5s11.666 -15.5 24.999 -23.5c11.333 -7.33301 26.5 -15.666 45.5 -24.999s39.833 -21 62.5 -35c16.667 -10.667 30.167 -20.334 40.5 -29.001s18 -18.334 23 -29.001s8.33301 -23.334 10 -38.001s2.5 -33 2.5 -55v-127
c0 -36.667 -2.16699 -66 -6.5 -88s-12.5 -38.833 -24.5 -50.5s-28.667 -19.334 -50 -23.001s-49 -5.5 -83 -5.5c-32.667 0 -59.334 1.83301 -80.001 5.5s-37 11.167 -49 22.5s-20.333 28 -25 50s-7 51.667 -7 89v157h112v-157c0 -14 0.5 -25.167 1.5 -33.5
s3.16699 -14.833 6.5 -19.5s8.16602 -7.83398 14.499 -9.50098s14.833 -2.5 25.5 -2.5c21.333 0 34.833 4 40.5 12s8.5 25.667 8.5 53v119c0 21.333 -1.33301 36.666 -4 45.999s-10.334 18.333 -23.001 27c-6.66699 4.66699 -15 9.83398 -25 15.501l-32 18l-34.5 19.5
c-11.667 6.66699 -22.167 13 -31.5 19c-14 9.33301 -25.167 18.166 -33.5 26.499s-14.666 17.5 -18.999 27.5s-7.16602 21.333 -8.49902 34s-2 28.334 -2 47.001v76c0 36.667 2.16699 66 6.5 88s12.333 39 24 51s28 19.833 49 23.5s48.5 5.5 82.5 5.5
s61.5 -1.83301 82.5 -5.5s37.5 -11.5 49.5 -23.5s20.167 -29 24.5 -51s6.5 -51.333 6.5 -88v-98h-112zM204.001 996.004h110l-95 -166h-78z" />
    <glyph glyph-name="sacute" unicode="&#x15b;" horiz-adv-x="354" 
d="M221 426v45c0 17.333 -2.5 28.833 -7.5 34.5s-17.167 8.5 -36.5 8.5s-31.333 -2.83301 -36 -8.5s-7 -17.167 -7 -34.5v-48c0 -9.33301 0.666992 -16.666 2 -21.999s3.66602 -10.166 6.99902 -14.499s8.33301 -8.33301 15 -12s15.667 -7.83398 27 -12.501
c2 -1.33301 6.16699 -3.33301 12.5 -6s13.333 -5.83398 21 -9.50098l23 -10.5c7.66699 -3.33301 13.834 -6.33301 18.501 -9c13.333 -7.33301 24 -14.333 32 -21s14 -13.834 18 -21.501s6.66699 -16 8 -25s2 -19.167 2 -30.5v-111c0 -28 -1.83301 -50.5 -5.5 -67.5
s-10.667 -30 -21 -39s-24.666 -14.833 -42.999 -17.5s-42.5 -4 -72.5 -4c-29.333 0 -53.333 1.33301 -72 4s-33.334 8.5 -44.001 17.5s-18 22 -22 39s-6 39.5 -6 67.5v92h100v-81c0 -18 2.66699 -29.833 8 -35.5s17.333 -8.5 36 -8.5c19.333 0 31.333 3 36 9s7 17.667 7 35
v73c0 8 -0.5 14.667 -1.5 20s-3 10 -6 14s-7.16699 7.83301 -12.5 11.5s-12.666 7.5 -21.999 11.5c-8 4 -15.333 7.33301 -22 10l-19.5 7.5c-6.33301 2.33301 -12.833 5 -19.5 8s-14 6.83301 -22 11.5c-12.667 6.66699 -23 13.334 -31 20.001s-14.333 14.167 -19 22.5
s-7.83398 18 -9.50098 29s-2.5 24.5 -2.5 40.5v73c0 28 2 50.5 6 67.5s11.167 30 21.5 39s24.833 14.833 43.5 17.5s43 4 73 4c29.333 0 53.333 -1.33301 72 -4s33.167 -8.5 43.5 -17.5s17.333 -22 21 -39s5.5 -39.5 5.5 -67.5v-55h-99zM183 805h110l-95 -166h-78z" />
    <glyph glyph-name="Scedilla" unicode="&#x15e;" horiz-adv-x="395" 
d="M247 534l0.000976562 98.0039c0 14 -0.5 25.333 -1.5 34s-3.16699 15.167 -6.5 19.5s-8.33301 7.33301 -15 9s-15.334 2.5 -26.001 2.5c-11.333 0 -20.166 -0.833008 -26.499 -2.5s-11.166 -4.66699 -14.499 -9s-5.5 -10.833 -6.5 -19.5s-1.5 -20 -1.5 -34v-78
c0 -16 1.66699 -27.833 5 -35.5s11.666 -15.5 24.999 -23.5c11.333 -7.33301 26.5 -15.666 45.5 -24.999s39.833 -21 62.5 -35c16.667 -10.667 30.167 -20.334 40.5 -29.001s18 -18.334 23 -29.001s8.33301 -23.334 10 -38.001s2.5 -33 2.5 -55v-127
c0 -36.667 -2.16699 -66 -6.5 -88s-12.5 -38.833 -24.5 -50.5s-28.667 -19.334 -50 -23.001s-49 -5.5 -83 -5.5c-32.667 0 -59.334 1.83301 -80.001 5.5s-37 11.167 -49 22.5s-20.333 28 -25 50s-7 51.667 -7 89v157h112v-157c0 -14 0.5 -25.167 1.5 -33.5
s3.16699 -14.833 6.5 -19.5s8.16602 -7.83398 14.499 -9.50098s14.833 -2.5 25.5 -2.5c21.333 0 34.833 4 40.5 12s8.5 25.667 8.5 53v119c0 21.333 -1.33301 36.666 -4 45.999s-10.334 18.333 -23.001 27c-6.66699 4.66699 -15 9.83398 -25 15.501l-32 18l-34.5 19.5
c-11.667 6.66699 -22.167 13 -31.5 19c-14 9.33301 -25.167 18.166 -33.5 26.499s-14.666 17.5 -18.999 27.5s-7.16602 21.333 -8.49902 34s-2 28.334 -2 47.001v76c0 36.667 2.16699 66 6.5 88s12.333 39 24 51s28 19.833 49 23.5s48.5 5.5 82.5 5.5
s61.5 -1.83301 82.5 -5.5s37.5 -11.5 49.5 -23.5s20.167 -29 24.5 -51s6.5 -51.333 6.5 -88v-98h-112zM147.001 -19.9961h102l-82 -165h-71z" />
    <glyph glyph-name="Scedilla" unicode="&#x218;" horiz-adv-x="395" 
d="M247 534l0.000976562 98.0039c0 14 -0.5 25.333 -1.5 34s-3.16699 15.167 -6.5 19.5s-8.33301 7.33301 -15 9s-15.334 2.5 -26.001 2.5c-11.333 0 -20.166 -0.833008 -26.499 -2.5s-11.166 -4.66699 -14.499 -9s-5.5 -10.833 -6.5 -19.5s-1.5 -20 -1.5 -34v-78
c0 -16 1.66699 -27.833 5 -35.5s11.666 -15.5 24.999 -23.5c11.333 -7.33301 26.5 -15.666 45.5 -24.999s39.833 -21 62.5 -35c16.667 -10.667 30.167 -20.334 40.5 -29.001s18 -18.334 23 -29.001s8.33301 -23.334 10 -38.001s2.5 -33 2.5 -55v-127
c0 -36.667 -2.16699 -66 -6.5 -88s-12.5 -38.833 -24.5 -50.5s-28.667 -19.334 -50 -23.001s-49 -5.5 -83 -5.5c-32.667 0 -59.334 1.83301 -80.001 5.5s-37 11.167 -49 22.5s-20.333 28 -25 50s-7 51.667 -7 89v157h112v-157c0 -14 0.5 -25.167 1.5 -33.5
s3.16699 -14.833 6.5 -19.5s8.16602 -7.83398 14.499 -9.50098s14.833 -2.5 25.5 -2.5c21.333 0 34.833 4 40.5 12s8.5 25.667 8.5 53v119c0 21.333 -1.33301 36.666 -4 45.999s-10.334 18.333 -23.001 27c-6.66699 4.66699 -15 9.83398 -25 15.501l-32 18l-34.5 19.5
c-11.667 6.66699 -22.167 13 -31.5 19c-14 9.33301 -25.167 18.166 -33.5 26.499s-14.666 17.5 -18.999 27.5s-7.16602 21.333 -8.49902 34s-2 28.334 -2 47.001v76c0 36.667 2.16699 66 6.5 88s12.333 39 24 51s28 19.833 49 23.5s48.5 5.5 82.5 5.5
s61.5 -1.83301 82.5 -5.5s37.5 -11.5 49.5 -23.5s20.167 -29 24.5 -51s6.5 -51.333 6.5 -88v-98h-112zM147.001 -19.9961h102l-82 -165h-71z" />
    <glyph glyph-name="scedilla" unicode="&#x15f;" horiz-adv-x="354" 
d="M221 426v45c0 17.333 -2.5 28.833 -7.5 34.5s-17.167 8.5 -36.5 8.5s-31.333 -2.83301 -36 -8.5s-7 -17.167 -7 -34.5v-48c0 -9.33301 0.666992 -16.666 2 -21.999s3.66602 -10.166 6.99902 -14.499s8.33301 -8.33301 15 -12s15.667 -7.83398 27 -12.501
c2 -1.33301 6.16699 -3.33301 12.5 -6s13.333 -5.83398 21 -9.50098l23 -10.5c7.66699 -3.33301 13.834 -6.33301 18.501 -9c13.333 -7.33301 24 -14.333 32 -21s14 -13.834 18 -21.501s6.66699 -16 8 -25s2 -19.167 2 -30.5v-111c0 -28 -1.83301 -50.5 -5.5 -67.5
s-10.667 -30 -21 -39s-24.666 -14.833 -42.999 -17.5s-42.5 -4 -72.5 -4c-29.333 0 -53.333 1.33301 -72 4s-33.334 8.5 -44.001 17.5s-18 22 -22 39s-6 39.5 -6 67.5v92h100v-81c0 -18 2.66699 -29.833 8 -35.5s17.333 -8.5 36 -8.5c19.333 0 31.333 3 36 9s7 17.667 7 35
v73c0 8 -0.5 14.667 -1.5 20s-3 10 -6 14s-7.16699 7.83301 -12.5 11.5s-12.666 7.5 -21.999 11.5c-8 4 -15.333 7.33301 -22 10l-19.5 7.5c-6.33301 2.33301 -12.833 5 -19.5 8s-14 6.83301 -22 11.5c-12.667 6.66699 -23 13.334 -31 20.001s-14.333 14.167 -19 22.5
s-7.83398 18 -9.50098 29s-2.5 24.5 -2.5 40.5v73c0 28 2 50.5 6 67.5s11.167 30 21.5 39s24.833 14.833 43.5 17.5s43 4 73 4c29.333 0 53.333 -1.33301 72 -4s33.167 -8.5 43.5 -17.5s17.333 -22 21 -39s5.5 -39.5 5.5 -67.5v-55h-99zM122 -20h102l-82 -165h-71z" />
    <glyph glyph-name="scedilla" unicode="&#x219;" horiz-adv-x="354" 
d="M221 426v45c0 17.333 -2.5 28.833 -7.5 34.5s-17.167 8.5 -36.5 8.5s-31.333 -2.83301 -36 -8.5s-7 -17.167 -7 -34.5v-48c0 -9.33301 0.666992 -16.666 2 -21.999s3.66602 -10.166 6.99902 -14.499s8.33301 -8.33301 15 -12s15.667 -7.83398 27 -12.501
c2 -1.33301 6.16699 -3.33301 12.5 -6s13.333 -5.83398 21 -9.50098l23 -10.5c7.66699 -3.33301 13.834 -6.33301 18.501 -9c13.333 -7.33301 24 -14.333 32 -21s14 -13.834 18 -21.501s6.66699 -16 8 -25s2 -19.167 2 -30.5v-111c0 -28 -1.83301 -50.5 -5.5 -67.5
s-10.667 -30 -21 -39s-24.666 -14.833 -42.999 -17.5s-42.5 -4 -72.5 -4c-29.333 0 -53.333 1.33301 -72 4s-33.334 8.5 -44.001 17.5s-18 22 -22 39s-6 39.5 -6 67.5v92h100v-81c0 -18 2.66699 -29.833 8 -35.5s17.333 -8.5 36 -8.5c19.333 0 31.333 3 36 9s7 17.667 7 35
v73c0 8 -0.5 14.667 -1.5 20s-3 10 -6 14s-7.16699 7.83301 -12.5 11.5s-12.666 7.5 -21.999 11.5c-8 4 -15.333 7.33301 -22 10l-19.5 7.5c-6.33301 2.33301 -12.833 5 -19.5 8s-14 6.83301 -22 11.5c-12.667 6.66699 -23 13.334 -31 20.001s-14.333 14.167 -19 22.5
s-7.83398 18 -9.50098 29s-2.5 24.5 -2.5 40.5v73c0 28 2 50.5 6 67.5s11.167 30 21.5 39s24.833 14.833 43.5 17.5s43 4 73 4c29.333 0 53.333 -1.33301 72 -4s33.167 -8.5 43.5 -17.5s17.333 -22 21 -39s5.5 -39.5 5.5 -67.5v-55h-99zM122 -20h102l-82 -165h-71z" />
    <glyph glyph-name="Scaron" unicode="&#x160;" horiz-adv-x="395" 
d="M247 534l0.000976562 98.0039c0 14 -0.5 25.333 -1.5 34s-3.16699 15.167 -6.5 19.5s-8.33301 7.33301 -15 9s-15.334 2.5 -26.001 2.5c-11.333 0 -20.166 -0.833008 -26.499 -2.5s-11.166 -4.66699 -14.499 -9s-5.5 -10.833 -6.5 -19.5s-1.5 -20 -1.5 -34v-78
c0 -16 1.66699 -27.833 5 -35.5s11.666 -15.5 24.999 -23.5c11.333 -7.33301 26.5 -15.666 45.5 -24.999s39.833 -21 62.5 -35c16.667 -10.667 30.167 -20.334 40.5 -29.001s18 -18.334 23 -29.001s8.33301 -23.334 10 -38.001s2.5 -33 2.5 -55v-127
c0 -36.667 -2.16699 -66 -6.5 -88s-12.5 -38.833 -24.5 -50.5s-28.667 -19.334 -50 -23.001s-49 -5.5 -83 -5.5c-32.667 0 -59.334 1.83301 -80.001 5.5s-37 11.167 -49 22.5s-20.333 28 -25 50s-7 51.667 -7 89v157h112v-157c0 -14 0.5 -25.167 1.5 -33.5
s3.16699 -14.833 6.5 -19.5s8.16602 -7.83398 14.499 -9.50098s14.833 -2.5 25.5 -2.5c21.333 0 34.833 4 40.5 12s8.5 25.667 8.5 53v119c0 21.333 -1.33301 36.666 -4 45.999s-10.334 18.333 -23.001 27c-6.66699 4.66699 -15 9.83398 -25 15.501l-32 18l-34.5 19.5
c-11.667 6.66699 -22.167 13 -31.5 19c-14 9.33301 -25.167 18.166 -33.5 26.499s-14.666 17.5 -18.999 27.5s-7.16602 21.333 -8.49902 34s-2 28.334 -2 47.001v76c0 36.667 2.16699 66 6.5 88s12.333 39 24 51s28 19.833 49 23.5s48.5 5.5 82.5 5.5
s61.5 -1.83301 82.5 -5.5s37.5 -11.5 49.5 -23.5s20.167 -29 24.5 -51s6.5 -51.333 6.5 -88v-98h-112zM53.001 996.004h72l73 -109l73 109h72l-102 -166h-86z" />
    <glyph glyph-name="scaron" unicode="&#x161;" horiz-adv-x="354" 
d="M221 426v45c0 17.333 -2.5 28.833 -7.5 34.5s-17.167 8.5 -36.5 8.5s-31.333 -2.83301 -36 -8.5s-7 -17.167 -7 -34.5v-48c0 -9.33301 0.666992 -16.666 2 -21.999s3.66602 -10.166 6.99902 -14.499s8.33301 -8.33301 15 -12s15.667 -7.83398 27 -12.501
c2 -1.33301 6.16699 -3.33301 12.5 -6s13.333 -5.83398 21 -9.50098l23 -10.5c7.66699 -3.33301 13.834 -6.33301 18.501 -9c13.333 -7.33301 24 -14.333 32 -21s14 -13.834 18 -21.501s6.66699 -16 8 -25s2 -19.167 2 -30.5v-111c0 -28 -1.83301 -50.5 -5.5 -67.5
s-10.667 -30 -21 -39s-24.666 -14.833 -42.999 -17.5s-42.5 -4 -72.5 -4c-29.333 0 -53.333 1.33301 -72 4s-33.334 8.5 -44.001 17.5s-18 22 -22 39s-6 39.5 -6 67.5v92h100v-81c0 -18 2.66699 -29.833 8 -35.5s17.333 -8.5 36 -8.5c19.333 0 31.333 3 36 9s7 17.667 7 35
v73c0 8 -0.5 14.667 -1.5 20s-3 10 -6 14s-7.16699 7.83301 -12.5 11.5s-12.666 7.5 -21.999 11.5c-8 4 -15.333 7.33301 -22 10l-19.5 7.5c-6.33301 2.33301 -12.833 5 -19.5 8s-14 6.83301 -22 11.5c-12.667 6.66699 -23 13.334 -31 20.001s-14.333 14.167 -19 22.5
s-7.83398 18 -9.50098 29s-2.5 24.5 -2.5 40.5v73c0 28 2 50.5 6 67.5s11.167 30 21.5 39s24.833 14.833 43.5 17.5s43 4 73 4c29.333 0 53.333 -1.33301 72 -4s33.167 -8.5 43.5 -17.5s17.333 -22 21 -39s5.5 -39.5 5.5 -67.5v-55h-99zM32 805h72l73 -109l73 109h72
l-102 -166h-86z" />
    <glyph glyph-name="Tcaron" unicode="&#x164;" horiz-adv-x="311" 
d="M300 694h-86v-694h-115v694h-87v96h288v-96zM11 996h72l73 -109l73 109h72l-102 -166h-86z" />
    <glyph glyph-name="tcaron" unicode="&#x165;" horiz-adv-x="329" 
d="M218 516h-70v-376c0 -20.667 3.33301 -34.667 10 -42s20 -11 40 -11h19v-87h-26c-27.333 0 -50.333 2.5 -69 7.5s-33.667 12.667 -45 23s-19.333 23.5 -24 39.5s-7 35 -7 57v389h-37v83h37v182h102v-182h70v-83zM224 790h102l-82 -165h-71z" />
    <glyph glyph-name="Tbar" unicode="&#x166;" horiz-adv-x="311" 
d="M263 468h-49v-468h-115v468h-49v90h49v136h-87v96h288v-96h-86v-136h49v-90z" />
    <glyph glyph-name="tbar" unicode="&#x167;" horiz-adv-x="240" 
d="M213 288h-65v-148c0 -20.667 3.33301 -34.667 10 -42s20 -11 40 -11h19v-87h-26c-27.333 0 -50.333 2.5 -69 7.5s-33.667 12.667 -45 23s-19.333 23.5 -24 39.5s-7 35 -7 57v161h-31v90h31v138h-37v83h37v182h102v-182h70v-83h-70v-138h65v-90z" />
    <glyph glyph-name="Utilde" unicode="&#x168;" horiz-adv-x="403" 
d="M203 -10c-33.333 0 -60.498 1.83301 -81.498 5.5s-37.5 11.334 -49.5 23.001s-20.333 28.5 -25 50.5s-7 51.333 -7 88v633h115v-633c0 -14 0.666992 -25.167 2 -33.5s3.66602 -14.666 6.99902 -18.999s8.33301 -7.33301 15 -9s15 -2.5 25 -2.5s18.333 0.833008 25 2.5
s11.667 4.66699 15 9s5.66602 10.666 6.99902 18.999s2 19.5 2 33.5v633h112v-633c0 -36.667 -2.33301 -66 -7 -88s-13 -38.833 -25 -50.5s-28.5 -19.334 -49.5 -23.001s-47.833 -5.5 -80.5 -5.5zM125.002 914c-18 0 -32.1699 -3.3291 -42.5029 -9.99609
s-19.166 -15.334 -26.499 -26.001v73c7.33301 7.33301 17 13.5 29 18.5s25.667 7.5 41 7.5c12.667 0 25.167 -1.66699 37.5 -5l37.5 -10.5l38 -10.5c12.667 -3.33301 25.667 -5 39 -5c17.333 0 31.5 3.16699 42.5 9.5s20.167 15.166 27.5 26.499v-72
c-7.33301 -8.66699 -17 -15.667 -29 -21s-26 -8 -42 -8c-13.333 0 -26.333 1.66699 -39 5s-25.167 7.16602 -37.5 11.499s-24.666 8.16602 -36.999 11.499s-25.166 5 -38.499 5z" />
    <glyph glyph-name="utilde" unicode="&#x169;" horiz-adv-x="376" 
d="M230 599h103v-599h-96v39c-8 -15.333 -19.167 -26.5 -33.5 -33.5s-35.166 -10.5 -62.499 -10.5c-19.333 0 -35.5 2 -48.5 6s-23.333 10.667 -31 20s-13.167 21.833 -16.5 37.5s-5 35.167 -5 58.5v482h102v-472c0 -14 2.66699 -24.333 8 -31s15.666 -10 30.999 -10
s26.333 2.83301 33 8.5s12 13.167 16 22.5v482zM112 723c-18 0 -32.1699 -3.3291 -42.5029 -9.99609s-19.166 -15.334 -26.499 -26.001v73c7.33301 7.33301 17 13.5 29 18.5s25.667 7.5 41 7.5c12.667 0 25.167 -1.66699 37.5 -5l37.5 -10.5l38 -10.5
c12.667 -3.33301 25.667 -5 39 -5c17.333 0 31.5 3.16699 42.5 9.5s20.167 15.166 27.5 26.499v-72c-7.33301 -8.66699 -17 -15.667 -29 -21s-26 -8 -42 -8c-13.333 0 -26.333 1.66699 -39 5s-25.167 7.16602 -37.5 11.499s-24.666 8.16602 -36.999 11.499
s-25.166 5 -38.499 5z" />
    <glyph glyph-name="Umacron" unicode="&#x16a;" horiz-adv-x="403" 
d="M203 -10c-33.333 0 -60.498 1.83301 -81.498 5.5s-37.5 11.334 -49.5 23.001s-20.333 28.5 -25 50.5s-7 51.333 -7 88v633h115v-633c0 -14 0.666992 -25.167 2 -33.5s3.66602 -14.666 6.99902 -18.999s8.33301 -7.33301 15 -9s15 -2.5 25 -2.5s18.333 0.833008 25 2.5
s11.667 4.66699 15 9s5.66602 10.666 6.99902 18.999s2 19.5 2 33.5v633h112v-633c0 -36.667 -2.33301 -66 -7 -88s-13 -38.833 -25 -50.5s-28.5 -19.334 -49.5 -23.001s-47.833 -5.5 -80.5 -5.5zM348.002 899h-292v61h292v-61z" />
    <glyph glyph-name="umacron" unicode="&#x16b;" horiz-adv-x="376" 
d="M230 599h103v-599h-96v39c-8 -15.333 -19.167 -26.5 -33.5 -33.5s-35.166 -10.5 -62.499 -10.5c-19.333 0 -35.5 2 -48.5 6s-23.333 10.667 -31 20s-13.167 21.833 -16.5 37.5s-5 35.167 -5 58.5v482h102v-472c0 -14 2.66699 -24.333 8 -31s15.666 -10 30.999 -10
s26.333 2.83301 33 8.5s12 13.167 16 22.5v482zM335 708h-292v61h292v-61z" />
    <glyph glyph-name="Ubreve" unicode="&#x16c;" horiz-adv-x="403" 
d="M203 -10c-33.333 0 -60.498 1.83301 -81.498 5.5s-37.5 11.334 -49.5 23.001s-20.333 28.5 -25 50.5s-7 51.333 -7 88v633h115v-633c0 -14 0.666992 -25.167 2 -33.5s3.66602 -14.666 6.99902 -18.999s8.33301 -7.33301 15 -9s15 -2.5 25 -2.5s18.333 0.833008 25 2.5
s11.667 4.66699 15 9s5.66602 10.666 6.99902 18.999s2 19.5 2 33.5v633h112v-633c0 -36.667 -2.33301 -66 -7 -88s-13 -38.833 -25 -50.5s-28.5 -19.334 -49.5 -23.001s-47.833 -5.5 -80.5 -5.5zM202.002 833c-43.333 0 -78.667 12.667 -106 38s-41 67 -41 125h64
c0.666992 -21.333 3.16699 -38.666 7.5 -51.999s10.166 -23.833 17.499 -31.5s15.833 -12.834 25.5 -15.501s20.5 -4 32.5 -4s23 1.33301 33 4s18.5 7.83398 25.5 15.501s12.667 18.167 17 31.5s6.83301 30.666 7.5 51.999h64c0 -58 -13.667 -99.667 -41 -125
s-62.666 -38 -105.999 -38z" />
    <glyph glyph-name="ubreve" unicode="&#x16d;" horiz-adv-x="376" 
d="M230 599h103v-599h-96v39c-8 -15.333 -19.167 -26.5 -33.5 -33.5s-35.166 -10.5 -62.499 -10.5c-19.333 0 -35.5 2 -48.5 6s-23.333 10.667 -31 20s-13.167 21.833 -16.5 37.5s-5 35.167 -5 58.5v482h102v-472c0 -14 2.66699 -24.333 8 -31s15.666 -10 30.999 -10
s26.333 2.83301 33 8.5s12 13.167 16 22.5v482zM189 642c-43.333 0 -78.667 12.667 -106 38s-41 67 -41 125h64c0.666992 -21.333 3.16699 -38.666 7.5 -51.999s10.166 -23.833 17.499 -31.5s15.833 -12.834 25.5 -15.501s20.5 -4 32.5 -4s23 1.33301 33 4
s18.5 7.83398 25.5 15.501s12.667 18.167 17 31.5s6.83301 30.666 7.5 51.999h64c0 -58 -13.667 -99.667 -41 -125s-62.666 -38 -105.999 -38z" />
    <glyph glyph-name="Uring" unicode="&#x16e;" horiz-adv-x="403" 
d="M203 -10c-33.333 0 -60.498 1.83301 -81.498 5.5s-37.5 11.334 -49.5 23.001s-20.333 28.5 -25 50.5s-7 51.333 -7 88v633h115v-633c0 -14 0.666992 -25.167 2 -33.5s3.66602 -14.666 6.99902 -18.999s8.33301 -7.33301 15 -9s15 -2.5 25 -2.5s18.333 0.833008 25 2.5
s11.667 4.66699 15 9s5.66602 10.666 6.99902 18.999s2 19.5 2 33.5v633h112v-633c0 -36.667 -2.33301 -66 -7 -88s-13 -38.833 -25 -50.5s-28.5 -19.334 -49.5 -23.001s-47.833 -5.5 -80.5 -5.5zM282.002 888c0 -15.333 -1.16699 -27.333 -3.5 -36s-6.5 -15.5 -12.5 -20.5
s-14.333 -8.16699 -25 -9.5s-24.334 -2 -41.001 -2s-30.167 0.666992 -40.5 2s-18.5 4.5 -24.5 9.5s-10.167 11.833 -12.5 20.5s-3.5 20.667 -3.5 36v40c0 14.667 1.16699 26.5 3.5 35.5s6.5 16 12.5 21s14.167 8.16699 24.5 9.5s23.833 2 40.5 2
s30.334 -0.666992 41.001 -2s19 -4.5 25 -9.5s10.167 -12 12.5 -21s3.5 -20.833 3.5 -35.5v-40zM240.002 924c0 13.333 -2.5 21.5 -7.5 24.5s-15.833 4.5 -32.5 4.5c-16 0 -26.5 -1.5 -31.5 -4.5s-7.5 -11.167 -7.5 -24.5v-32c0 -13.333 2.5 -21.5 7.5 -24.5
s15.5 -4.5 31.5 -4.5c16.667 0 27.5 1.5 32.5 4.5s7.5 11.167 7.5 24.5v32z" />
    <glyph glyph-name="uring" unicode="&#x16f;" horiz-adv-x="376" 
d="M230 599h103v-599h-96v39c-8 -15.333 -19.167 -26.5 -33.5 -33.5s-35.166 -10.5 -62.499 -10.5c-19.333 0 -35.5 2 -48.5 6s-23.333 10.667 -31 20s-13.167 21.833 -16.5 37.5s-5 35.167 -5 58.5v482h102v-472c0 -14 2.66699 -24.333 8 -31s15.666 -10 30.999 -10
s26.333 2.83301 33 8.5s12 13.167 16 22.5v482zM269 697c0 -15.333 -1.16699 -27.333 -3.5 -36s-6.5 -15.5 -12.5 -20.5s-14.333 -8.16699 -25 -9.5s-24.334 -2 -41.001 -2s-30.167 0.666992 -40.5 2s-18.5 4.5 -24.5 9.5s-10.167 11.833 -12.5 20.5s-3.5 20.667 -3.5 36v40
c0 14.667 1.16699 26.5 3.5 35.5s6.5 16 12.5 21s14.167 8.16699 24.5 9.5s23.833 2 40.5 2s30.334 -0.666992 41.001 -2s19 -4.5 25 -9.5s10.167 -12 12.5 -21s3.5 -20.833 3.5 -35.5v-40zM227 733c0 13.333 -2.5 21.5 -7.5 24.5s-15.833 4.5 -32.5 4.5
c-16 0 -26.5 -1.5 -31.5 -4.5s-7.5 -11.167 -7.5 -24.5v-32c0 -13.333 2.5 -21.5 7.5 -24.5s15.5 -4.5 31.5 -4.5c16.667 0 27.5 1.5 32.5 4.5s7.5 11.167 7.5 24.5v32z" />
    <glyph glyph-name="Uhungarumlaut" unicode="&#x170;" horiz-adv-x="403" 
d="M203 -10c-33.333 0 -60.498 1.83301 -81.498 5.5s-37.5 11.334 -49.5 23.001s-20.333 28.5 -25 50.5s-7 51.333 -7 88v633h115v-633c0 -14 0.666992 -25.167 2 -33.5s3.66602 -14.666 6.99902 -18.999s8.33301 -7.33301 15 -9s15 -2.5 25 -2.5s18.333 0.833008 25 2.5
s11.667 4.66699 15 9s5.66602 10.666 6.99902 18.999s2 19.5 2 33.5v633h112v-633c0 -36.667 -2.33301 -66 -7 -88s-13 -38.833 -25 -50.5s-28.5 -19.334 -49.5 -23.001s-47.833 -5.5 -80.5 -5.5zM309.002 996h110l-97 -166h-77zM129.002 996h110l-95 -166h-78z" />
    <glyph glyph-name="uhungarumlaut" unicode="&#x171;" horiz-adv-x="376" 
d="M230 599h103v-599h-96v39c-8 -15.333 -19.167 -26.5 -33.5 -33.5s-35.166 -10.5 -62.499 -10.5c-19.333 0 -35.5 2 -48.5 6s-23.333 10.667 -31 20s-13.167 21.833 -16.5 37.5s-5 35.167 -5 58.5v482h102v-472c0 -14 2.66699 -24.333 8 -31s15.666 -10 30.999 -10
s26.333 2.83301 33 8.5s12 13.167 16 22.5v482zM293 805h110l-97 -166h-77zM113 805h110l-95 -166h-78z" />
    <glyph glyph-name="Uogonek" unicode="&#x172;" horiz-adv-x="403" 
d="M203 -10c-33.333 0 -60.4971 1.8291 -81.4971 5.49609s-37.5 11.334 -49.5 23.001s-20.333 28.5 -25 50.5s-7 51.333 -7 88v633h115v-633c0 -14 0.666992 -25.167 2 -33.5s3.66602 -14.666 6.99902 -18.999s8.33301 -7.33301 15 -9s15 -2.5 25 -2.5
s18.333 0.833008 25 2.5s11.667 4.66699 15 9s5.66602 10.666 6.99902 18.999s2 19.5 2 33.5v633h112v-633c0 -26.667 -1 -48.834 -3 -66.501s-5.5 -32.167 -10.5 -43.5s-11.833 -20.666 -20.5 -27.999s-19.334 -13.666 -32.001 -18.999
c-8 -3.33301 -15.5 -6.66602 -22.5 -9.99902s-13.167 -7.5 -18.5 -12.5s-9.66602 -11.333 -12.999 -19s-5 -16.834 -5 -27.501c0 -13.333 2.83301 -22.5 8.5 -27.5s15.834 -7.5 30.501 -7.5h36v-81h-78c-17.333 0 -31.333 2.16699 -42 6.5s-19.334 10.333 -26.001 18
s-11.167 16.334 -13.5 26.001s-3.5 20.167 -3.5 31.5c0 24.667 5.66699 43.834 17 57.501s29.666 25.5 54.999 35.5h-21v0z" />
    <glyph glyph-name="uogonek" unicode="&#x173;" horiz-adv-x="376" 
d="M230 599l103 -0.000976562v-599c-22.667 -10.667 -38.5 -21 -47.5 -31s-13.5 -23 -13.5 -39c0 -12.667 2.83301 -21.5 8.5 -26.5s15.834 -7.5 30.501 -7.5h36v-81h-78c-17.333 0 -31.333 2.16699 -42 6.5s-19.334 10.333 -26.001 18s-11.167 16.334 -13.5 26.001
s-3.5 20.167 -3.5 31.5c0 21.333 4.16699 38.5 12.5 51.5s21.833 24.167 40.5 33.5v57c-8 -15.333 -19.167 -26.5 -33.5 -33.5s-35.166 -10.5 -62.499 -10.5c-19.333 0 -35.5 2 -48.5 6s-23.333 10.667 -31 20s-13.167 21.833 -16.5 37.5s-5 35.167 -5 58.5v482h102v-472
c0 -14 2.66699 -24.333 8 -31s15.666 -10 30.999 -10s26.333 2.83301 33 8.5s12 13.167 16 22.5v482z" />
    <glyph glyph-name="Wcircumflex" unicode="&#x174;" horiz-adv-x="574" 
d="M124 790l33 -621h4l53 621h147l45 -621h4l43 621h116l-92 -790h-146l-42 627h-4l-55 -627h-148l-73 790h115zM432 830h-72l-73 109l-73 -109h-72l102 166h87z" />
    <glyph glyph-name="wcircumflex" unicode="&#x175;" horiz-adv-x="532" 
d="M114 599l31 -448h4l51 448h133l46 -448h4l37 448h109l-83 -599h-138l-40 455h-4l-51 -455h-139l-69 599h109zM411 639h-72l-73 109l-73 -109h-72l102 166h87z" />
    <glyph glyph-name="Ycircumflex" unicode="&#x176;" horiz-adv-x="352" 
d="M350 790l-118 -511v-279h-115v279l-114 511h114l57 -357h4l60 357h112zM321 830h-72l-73 109l-73 -109h-72l102 166h87z" />
    <glyph glyph-name="ycircumflex" unicode="&#x177;" horiz-adv-x="378" 
d="M233 599l102 -0.000976562v-609c0 -48.667 -10.667 -84.667 -32 -108s-57.333 -35 -108 -35h-134v86h109c22.667 0 38.5 3.83301 47.5 11.5s13.5 22.834 13.5 45.501v77c-9.33301 -15.333 -21.166 -26 -35.499 -32s-33.166 -9 -56.499 -9c-18.667 0 -34.334 2 -47.001 6
s-22.834 10.667 -30.501 20s-13.167 21.833 -16.5 37.5s-5 35.167 -5 58.5v451h102v-432c0 -19.333 3.33301 -32.5 10 -39.5s17.667 -10.5 33 -10.5c13.333 0 23.333 2.33301 30 7s12.667 12.667 18 24v451zM334 638.999h-72l-73 109l-73 -109h-72l102 166h87z" />
    <glyph glyph-name="Ydieresis" unicode="&#x178;" horiz-adv-x="352" 
d="M350 790l-118 -511v-279h-115v279l-114 511h114l57 -357h4l60 357h112zM318 877h-102v104h102v-104zM137 877h-101v104h101v-104z" />
    <glyph glyph-name="Ydieresis" unicode="&#x3ab;" horiz-adv-x="352" 
d="M350 790l-118 -511v-279h-115v279l-114 511h114l57 -357h4l60 357h112zM318 877h-102v104h102v-104zM137 877h-101v104h101v-104z" />
    <glyph glyph-name="Zacute" unicode="&#x179;" horiz-adv-x="313" 
d="M295 0h-277v100l159 594h-143v96h259v-78l-155 -613h157v-99zM173 996h110l-95 -166h-78z" />
    <glyph glyph-name="zacute" unicode="&#x17a;" horiz-adv-x="299" 
d="M284 0h-269v87l165 429h-147v83h248v-77l-160 -436h163v-86zM166 805h110l-95 -166h-78z" />
    <glyph glyph-name="Zdotaccent" unicode="&#x17b;" horiz-adv-x="313" 
d="M295 0h-277v100l159 594h-143v96h259v-78l-155 -613h157v-99zM217 877h-101v104h101v-104z" />
    <glyph glyph-name="zdotaccent" unicode="&#x17c;" horiz-adv-x="299" 
d="M284 0h-269v87l165 429h-147v83h248v-77l-160 -436h163v-86zM211 686h-101v104h101v-104z" />
    <glyph glyph-name="Zcaron" unicode="&#x17d;" horiz-adv-x="313" 
d="M295 0h-277v100l159 594h-143v96h259v-78l-155 -613h157v-99zM22 996h72l73 -109l73 109h72l-102 -166h-86z" />
    <glyph glyph-name="zcaron" unicode="&#x17e;" horiz-adv-x="299" 
d="M284 0h-269v87l165 429h-147v83h248v-77l-160 -436h163v-86zM16 805h72l73 -109l73 109h72l-102 -166h-86z" />
    <glyph glyph-name="uni018E" unicode="&#x18e;" horiz-adv-x="293" 
d="M24 790h224v-790h-223v91h112v120h-109v89h109v394h-113v96z" />
    <glyph glyph-name="uni018F" unicode="&#x18f;" 
d="M39 503l0.00390625 131.001c0 36.667 2.16699 66 6.5 88s12.333 38.667 24 50s27.667 18.833 48 22.5s46.166 5.5 77.499 5.5c34 0 61.667 -1.83301 83 -5.5s38.166 -11.5 50.499 -23.5s20.666 -28.833 24.999 -50.5s6.5 -50.5 6.5 -86.5v-477
c0 -36.667 -2.16699 -66 -6.5 -88s-12.5 -38.833 -24.5 -50.5s-28.667 -19.334 -50 -23.001s-48.666 -5.5 -81.999 -5.5c-32 0 -58.167 1.83301 -78.5 5.5s-36.5 11.167 -48.5 22.5s-20.167 28 -24.5 50s-6.5 51.667 -6.5 89v268h210v209c0 14 -0.666992 25.333 -2 34
s-3.83301 15.334 -7.5 20.001s-9 7.83398 -16 9.50098s-15.833 2.5 -26.5 2.5s-19.334 -0.833008 -26.001 -2.5s-11.834 -4.83398 -15.501 -9.50098s-6.16699 -11.334 -7.5 -20.001s-2 -20 -2 -34v-131h-107zM195.004 89.001c13.333 0 23.668 1.50195 31.001 4.50195
s12.666 8.16699 15.999 15.5s5.33301 17.166 6 29.499s1 28.166 1 47.499v152h-103v-152c0 -20 0.333008 -36.333 1 -49s2.5 -22.5 5.5 -29.5s7.83301 -11.833 14.5 -14.5s16 -4 28 -4z" />
    <glyph glyph-name="uni018F" unicode="&#x4d8;" 
d="M39 503l0.00390625 131.001c0 36.667 2.16699 66 6.5 88s12.333 38.667 24 50s27.667 18.833 48 22.5s46.166 5.5 77.499 5.5c34 0 61.667 -1.83301 83 -5.5s38.166 -11.5 50.499 -23.5s20.666 -28.833 24.999 -50.5s6.5 -50.5 6.5 -86.5v-477
c0 -36.667 -2.16699 -66 -6.5 -88s-12.5 -38.833 -24.5 -50.5s-28.667 -19.334 -50 -23.001s-48.666 -5.5 -81.999 -5.5c-32 0 -58.167 1.83301 -78.5 5.5s-36.5 11.167 -48.5 22.5s-20.167 28 -24.5 50s-6.5 51.667 -6.5 89v268h210v209c0 14 -0.666992 25.333 -2 34
s-3.83301 15.334 -7.5 20.001s-9 7.83398 -16 9.50098s-15.833 2.5 -26.5 2.5s-19.334 -0.833008 -26.001 -2.5s-11.834 -4.83398 -15.501 -9.50098s-6.16699 -11.334 -7.5 -20.001s-2 -20 -2 -34v-131h-107zM195.004 89.001c13.333 0 23.668 1.50195 31.001 4.50195
s12.666 8.16699 15.999 15.5s5.33301 17.166 6 29.499s1 28.166 1 47.499v152h-103v-152c0 -20 0.333008 -36.333 1 -49s2.5 -22.5 5.5 -29.5s7.83301 -11.833 14.5 -14.5s16 -4 28 -4z" />
    <glyph glyph-name="florin" unicode="&#x192;" horiz-adv-x="270" 
d="M78 516l-33 0.000976562v83h33v64c0 44 10.833 76.167 32.5 96.5s59.5 30.5 113.5 30.5h32v-76h-20c-20.667 0 -35 -4 -43 -12s-12 -22.667 -12 -44v-59h75v-83h-75v-542c0 -44 -10.833 -76.167 -32.5 -96.5s-59.5 -30.5 -113.5 -30.5h-32v76h20
c22 0 36.667 4.16699 44 12.5s11 24.166 11 47.499v533z" />
    <glyph glyph-name="uni0194" unicode="&#x194;" horiz-adv-x="371" 
d="M185 -185c-23.333 0 -42.667 0.666992 -58 2s-27.666 4.33301 -36.999 9s-15.833 11.5 -19.5 20.5s-5.5 20.833 -5.5 35.5v18c0 16 0.333008 28.5 1 37.5s2.66699 20.167 6 33.5l64 299l-127 520h113l62 -293l63 293h114l-128 -522l64 -297
c3.33301 -13.333 5.5 -24.5 6.5 -33.5s1.5 -21.5 1.5 -37.5v-18c0 -14.667 -2 -26.5 -6 -35.5s-10.5 -15.833 -19.5 -20.5s-21.333 -7.66699 -37 -9s-34.834 -2 -57.501 -2zM184.999 70l-26.002 -106c-1.33301 -6.66699 -2.33301 -12.334 -3 -17.001s-1 -10.667 -1 -18v-16
c0 -9.33301 1.83301 -15.5 5.5 -18.5s11.834 -4.5 24.501 -4.5s20.667 1.5 24 4.5s5 9.16699 5 18.5v16c0 7.33301 -0.166992 13.333 -0.5 18s-1.16602 10.334 -2.49902 17.001z" />
    <glyph glyph-name="uni019D" unicode="&#x19d;" horiz-adv-x="432" 
d="M44 790l127 -0.000976562l114 -507h4v507h100v-790h-123l-119 493h-4v-503c0 -48 -10.333 -83.833 -31 -107.5s-54.667 -35.5 -102 -35.5h-63v83h50c17.333 0 29.5 4.83301 36.5 14.5s10.5 24.834 10.5 45.501v800z" />
    <glyph glyph-name="uni01A0" unicode="&#x1a0;" horiz-adv-x="421" 
d="M365 882l75 -0.000976562v-57c0 -32 -6.83301 -55.667 -20.5 -71s-35.5 -24.666 -65.5 -27.999c3.33301 -12.667 5.66602 -25.834 6.99902 -39.501s2 -31.167 2 -52.5v-477c0 -36.667 -2.16699 -66 -6.5 -88s-12.5 -38.833 -24.5 -50.5s-28.667 -19.334 -50 -23.001
s-49 -5.5 -83 -5.5c-33.333 0 -60.666 1.83301 -81.999 5.5s-38 11.334 -50 23.001s-20.167 28.5 -24.5 50.5s-6.5 51.333 -6.5 88v477c0 34.667 2.16699 62.834 6.5 84.501s12.166 38.5 23.499 50.5s26.666 20.167 45.999 24.5s44.333 6.5 75 6.5
c18 0 33.167 -0.5 45.5 -1.5s23.333 -2.16699 33 -3.5s18.834 -2.5 27.501 -3.5s18.334 -1.5 29.001 -1.5c16.667 0 28 2.16699 34 6.5s9 13.833 9 28.5v57zM251 633.999c0 14 -0.668945 25.332 -2.00195 33.999s-3.83301 15.334 -7.5 20.001s-8.66699 7.83398 -15 9.50098
s-14.833 2.5 -25.5 2.5c-11.333 0 -20.5 -0.833008 -27.5 -2.5s-12.5 -5 -16.5 -10s-6.66699 -11.833 -8 -20.5s-2 -19.667 -2 -33v-477c0 -14.667 0.666992 -26.334 2 -35.001s3.83301 -15.5 7.5 -20.5s8.83398 -8.33301 15.501 -10s15.334 -2.5 26.001 -2.5
c11.333 0 20.5 0.833008 27.5 2.5s12.333 5 16 10s6.16699 12 7.5 21s2 20.5 2 34.5v477z" />
    <glyph glyph-name="uni01A1" unicode="&#x1a1;" horiz-adv-x="404" 
d="M348 691l75.998 0.00195312v-57c0 -34.667 -8.33301 -59.667 -25 -75s-46.667 -23 -90 -23c3.33301 -6 6 -13.833 8 -23.5s3 -24.167 3 -43.5v-352c0 -28 -2 -50.333 -6 -67s-11.167 -29.5 -21.5 -38.5s-24.833 -14.833 -43.5 -17.5s-42.334 -4 -71.001 -4
c-29.333 0 -53.166 1.33301 -71.499 4s-32.666 8.5 -42.999 17.5s-17.5 21.833 -21.5 38.5s-6 39 -6 67v365c0 26.667 2 48.167 6 64.5s11.167 29.166 21.5 38.499s24.666 15.666 42.999 18.999s41.833 5 70.5 5c20 0 35.5 -0.5 46.5 -1.5s20.333 -2.16699 28 -3.5
s14.834 -2.5 21.501 -3.5s15.334 -1.5 26.001 -1.5c19.333 0 32.333 2.5 39 7.5s10 14.167 10 27.5v57zM223.998 463.002c0 22.667 -2.83203 37.167 -8.49902 43.5s-18.167 9.5 -37.5 9.5s-31.833 -3.16699 -37.5 -9.5s-8.5 -20.833 -8.5 -43.5v-328
c0 -11.333 0.666992 -20.5 2 -27.5s3.66602 -12.5 6.99902 -16.5s7.83301 -6.66699 13.5 -8s13.167 -2 22.5 -2c20.667 0 33.667 3.5 39 10.5s8 21.5 8 43.5v328z" />
    <glyph glyph-name="uni01AF" unicode="&#x1af;" horiz-adv-x="468" 
d="M411 882h75.999v-57c0 -34.667 -7.83301 -59.667 -23.5 -75s-42.167 -23 -79.5 -23h-21v-570c0 -36.667 -2.33301 -66 -7 -88s-13 -38.833 -25 -50.5s-28.333 -19.334 -49 -23.001s-47.334 -5.5 -80.001 -5.5s-59.5 1.83301 -80.5 5.5s-37.5 11.334 -49.5 23.001
s-20.333 28.5 -25 50.5s-7 51.333 -7 88v633h111v-633c0 -14 0.666992 -25.5 2 -34.5s3.83301 -16 7.5 -21s8.83398 -8.33301 15.501 -10s15.334 -2.5 26.001 -2.5c22 0 36.167 4.33301 42.5 13s9.5 27 9.5 55v633h119c14.667 0 24.667 2.33301 30 7s8 14 8 28v57z" />
    <glyph glyph-name="uni01B0" unicode="&#x1b0;" horiz-adv-x="436" 
d="M379 691h76v-57c0 -34.667 -7.83301 -59.667 -23.5 -75s-42.167 -23 -79.5 -23h-19v-536h-96v39c-8 -15.333 -19.167 -26.5 -33.5 -33.5s-35.166 -10.5 -62.499 -10.5c-19.333 0 -35.5 2 -48.5 6s-23.333 10.667 -31 20s-13.167 21.833 -16.5 37.5s-5 35.167 -5 58.5v482
h102v-472c0 -14 2.66699 -24.333 8 -31s15.666 -10 30.999 -10s26.333 2.83301 33 8.5s12 13.167 16 22.5v482h111c14.667 0 24.667 2.33301 30 7s8 14 8 28v57z" />
    <glyph glyph-name="uni01DD" unicode="&#x1dd;" horiz-adv-x="349" 
d="M213 335v140.998c0 19.333 -2.5 31.833 -7.5 37.5s-16.833 8.5 -35.5 8.5c-18 0 -29.667 -2.83301 -35 -8.5s-8 -18.167 -8 -37.5v-81h-92v87c0 28 1.83301 50.5 5.5 67.5s10.5 29.833 20.5 38.5s23.833 14.334 41.5 17.001s40.5 4 68.5 4
c29.333 0 53.333 -1.33301 72 -4s33.167 -8.5 43.5 -17.5s17.333 -21.833 21 -38.5s5.5 -39 5.5 -67v-365c0 -28 -1.83301 -50.333 -5.5 -67s-10.667 -29.5 -21 -38.5s-24.833 -14.833 -43.5 -17.5s-42.667 -4 -72 -4c-28 0 -50.833 1.33301 -68.5 4
s-31.5 8.33398 -41.5 17.001s-16.833 21.5 -20.5 38.5s-5.5 39.5 -5.5 67.5v218h178zM213 252.998h-86v-128c0 -19.333 2.66699 -31.666 8 -36.999s17 -8 35 -8c18.667 0 30.5 2.66699 35.5 8s7.5 17.666 7.5 36.999v128z" />
    <glyph glyph-name="uni01DD" unicode="&#x4d9;" horiz-adv-x="349" 
d="M213 335v140.998c0 19.333 -2.5 31.833 -7.5 37.5s-16.833 8.5 -35.5 8.5c-18 0 -29.667 -2.83301 -35 -8.5s-8 -18.167 -8 -37.5v-81h-92v87c0 28 1.83301 50.5 5.5 67.5s10.5 29.833 20.5 38.5s23.833 14.334 41.5 17.001s40.5 4 68.5 4
c29.333 0 53.333 -1.33301 72 -4s33.167 -8.5 43.5 -17.5s17.333 -21.833 21 -38.5s5.5 -39 5.5 -67v-365c0 -28 -1.83301 -50.333 -5.5 -67s-10.667 -29.5 -21 -38.5s-24.833 -14.833 -43.5 -17.5s-42.667 -4 -72 -4c-28 0 -50.833 1.33301 -68.5 4
s-31.5 8.33398 -41.5 17.001s-16.833 21.5 -20.5 38.5s-5.5 39.5 -5.5 67.5v218h178zM213 252.998h-86v-128c0 -19.333 2.66699 -31.666 8 -36.999s17 -8 35 -8c18.667 0 30.5 2.66699 35.5 8s7.5 17.666 7.5 36.999v128z" />
    </font>
</defs>
</svg>
