<?xml version="1.0" standalone="no"?>
<!DOCTYPE svg PUBLIC "-//W3C//DTD SVG 1.1//EN" "http://www.w3.org/Graphics/SVG/1.1/DTD/svg11.dtd" >
<svg>
<metadata>
Created by FontForge 20090914 at Tue Jun 22 13:51:05 2021
 By www-data
&#194;&#169; 1999-2018 Typodermic Fonts Inc.
</metadata>
<defs>
<font id="KenyanCoffeeRg-Italic" horiz-adv-x="399" >
  <font-face 
    font-family="Kenyan Coffee Rg"
    font-weight="400"
    font-style="italic"
    font-stretch="normal"
    units-per-em="1000"
    panose-1="2 0 6 8 2 2 0 1 1 4"
    ascent="796"
    descent="-204"
    x-height="599"
    cap-height="790"
    bbox="-372 -203.001 874.006 1070.05"
    underline-thickness="20"
    underline-position="-123"
    slope="-12"
    unicode-range="U+0020-U+FB02"
  />
<missing-glyph horiz-adv-x="636" 
d="M121 -185c-64 0 -96 27.667 -96 83v879c0 56.667 32 85 96 85h390c64.667 0 97 -28.333 97 -85v-879c0 -55.333 -32.333 -83 -97 -83h-390zM302 490l25.002 96.001c2.66699 12 7.66699 18 15 18c8.66699 0 15 -1.66699 19 -5s6 -6.66602 6 -9.99902
c0 -2 -0.666992 -6.33301 -2 -13l-27 -98c-3.33301 -10.667 -6.66602 -19.167 -9.99902 -25.5s-8.66602 -12.5 -15.999 -18.5l-68 -60c-10 -8.66699 -18.167 -17.167 -24.5 -25.5s-11.833 -17 -16.5 -26s-8.83398 -19.167 -12.501 -30.5s-7.5 -24.333 -11.5 -39l-22 -80
l132 -36l16 62c3.33301 11.333 6.66602 19.833 9.99902 25.5s8.33301 11.834 15 18.501l102 98c10 9.33301 18.5 18 25.5 26s13 16.167 18 24.5s9.5 17.833 13.5 28.5s8 23.334 12 38.001l21 77c5.33301 18.667 9.33301 35.5 12 50.5s4 28.5 4 40.5
c0 16 -2.83301 29.667 -8.5 41s-14.5 21.5 -26.5 30.5s-27.333 17 -46 24s-41.334 14.167 -68.001 21.5c-21.333 5.33301 -40.5 9.66602 -57.5 12.999s-32.167 5 -45.5 5c-15.333 0 -28.5 -2.33301 -39.5 -7s-20.667 -12.334 -29 -23.001s-15.833 -24.334 -22.5 -41.001
s-13.334 -37.334 -20.001 -62.001l-26 -97zM284.002 88.001l-141 38l-37 -136l141 -38z" />
    <glyph glyph-name=".notdef" horiz-adv-x="636" 
d="M121 -185c-64 0 -96 27.667 -96 83v879c0 56.667 32 85 96 85h390c64.667 0 97 -28.333 97 -85v-879c0 -55.333 -32.333 -83 -97 -83h-390zM302 490l25.002 96.001c2.66699 12 7.66699 18 15 18c8.66699 0 15 -1.66699 19 -5s6 -6.66602 6 -9.99902
c0 -2 -0.666992 -6.33301 -2 -13l-27 -98c-3.33301 -10.667 -6.66602 -19.167 -9.99902 -25.5s-8.66602 -12.5 -15.999 -18.5l-68 -60c-10 -8.66699 -18.167 -17.167 -24.5 -25.5s-11.833 -17 -16.5 -26s-8.83398 -19.167 -12.501 -30.5s-7.5 -24.333 -11.5 -39l-22 -80
l132 -36l16 62c3.33301 11.333 6.66602 19.833 9.99902 25.5s8.33301 11.834 15 18.501l102 98c10 9.33301 18.5 18 25.5 26s13 16.167 18 24.5s9.5 17.833 13.5 28.5s8 23.334 12 38.001l21 77c5.33301 18.667 9.33301 35.5 12 50.5s4 28.5 4 40.5
c0 16 -2.83301 29.667 -8.5 41s-14.5 21.5 -26.5 30.5s-27.333 17 -46 24s-41.334 14.167 -68.001 21.5c-21.333 5.33301 -40.5 9.66602 -57.5 12.999s-32.167 5 -45.5 5c-15.333 0 -28.5 -2.33301 -39.5 -7s-20.667 -12.334 -29 -23.001s-15.833 -24.334 -22.5 -41.001
s-13.334 -37.334 -20.001 -62.001l-26 -97zM284.002 88.001l-141 38l-37 -136l141 -38z" />
    <glyph glyph-name="space" unicode=" " horiz-adv-x="169" 
 />
    <glyph glyph-name="exclam" unicode="!" horiz-adv-x="178" 
d="M316 790l-146 -601h-79l107 601h118zM143 0h-105l28 132h105z" />
    <glyph glyph-name="quotedbl" unicode="&#x22;" horiz-adv-x="290" 
d="M286 790l-75 -284h-59l45 284h89zM448 790l-75 -284h-59l45 284h89z" />
    <glyph glyph-name="numbersign" unicode="#" horiz-adv-x="433" 
d="M162 324l45 140h-69l33 98h69l75 228h70l-75 -228h91l74 228h71l-75 -228h60l-34 -98h-58l-46 -140h68l-32 -99h-69l-73 -225h-71l73 225h-90l-73 -225h-70l73 225h-60l34 99h59zM232 324h90l46 140h-90z" />
    <glyph glyph-name="dollar" unicode="$" 
d="M428 862l-14.0049 -63.998c34 -2 58 -8.33301 72 -19s21 -30 21 -58c0 -21.333 -4 -51 -12 -89l-21 -98h-112l21 98c4 18 6 31.667 6 41c0 10.667 -3 17.334 -9 20.001s-16.667 4 -32 4c-10.667 0 -19.334 -0.833008 -26.001 -2.5s-12.334 -4.83398 -17.001 -9.50098
s-8.5 -11.334 -11.5 -20.001s-5.83301 -19.667 -8.5 -33l-11 -51.5l-6 -30c-1.33301 -7 -2.16602 -12 -2.49902 -15s-0.5 -5.5 -0.5 -7.5c0 -11.333 3.66699 -20.166 11 -26.499s20.666 -14.166 39.999 -23.499c22.667 -11.333 41.5 -21.5 56.5 -30.5s27.167 -18 36.5 -27
s16 -18.5 20 -28.5s6 -21.667 6 -35c0 -5.33301 -0.333008 -11.333 -1 -18s-2.33398 -17 -5.00098 -31s-6.5 -33 -11.5 -57l-19.5 -94c-7.33301 -32.667 -14.666 -59.334 -21.999 -80.001s-16.833 -37 -28.5 -49s-25.834 -20.667 -42.501 -26
s-37.334 -8.66602 -62.001 -9.99902l-14 -64h-89l14 64c-33.333 2 -57.166 8.16699 -71.499 18.5s-21.5 29.833 -21.5 58.5c0 21.333 4 50.666 12 87.999l33 157h112l-33 -157c-4 -18 -6 -31.667 -6 -41c0 -10.667 3 -17.334 9 -20.001s16.333 -4 31 -4
c10.667 0 19.334 0.833008 26.001 2.5s12.334 4.83398 17.001 9.50098s8.33398 11.167 11.001 19.5s5.66699 19.5 9 33.5l16.5 79c4.33301 20 7.5 35.5 9.5 46.5s3.33301 18.833 4 23.5s1 8.66699 1 12c0 12 -3.16699 21 -9.5 27s-17.166 13 -32.499 21
c-24 12 -44.167 22.667 -60.5 32s-29.333 18.666 -39 27.999s-16.667 18.833 -21 28.5s-6.5 21.167 -6.5 34.5c0 4 0.333008 9 1 15s2 14.333 4 25s4.66699 24.167 8 40.5l13 62.5c6.66699 32.667 13.834 59.334 21.501 80.001s17.334 37.167 29.001 49.5
s25.834 21.166 42.501 26.499s37.334 8.66602 62.001 9.99902l14 64h89z" />
    <glyph glyph-name="percent" unicode="%" horiz-adv-x="604" 
d="M675 790l-497 -790h-78l497 790h78zM328 445c-4.66699 -21.333 -9.66406 -38.165 -14.9971 -50.498s-12.833 -21.833 -22.5 -28.5s-21.834 -11 -36.501 -13s-33.334 -3 -56.001 -3c-35.333 0 -60 2.66699 -74 8s-21 18.666 -21 39.999c0 12 2 27.667 6 47l55 259
c4.66699 20.667 9.66699 37.167 15 49.5s12.666 21.833 21.999 28.5s21.333 11 36 13s33.334 3 56.001 3c35.333 0 60.166 -2.83301 74.499 -8.5s21.5 -18.834 21.5 -39.501c0 -12 -2 -27.333 -6 -46zM303.003 704.001c1.33301 3.33301 2 6.33496 2 9.00195v8
c0 5.33301 -1.83301 8.83301 -5.5 10.5s-10.167 2.5 -19.5 2.5c-13.333 0 -22.166 -1.83301 -26.499 -5.5s-7.83301 -11.834 -10.5 -24.501l-55 -259c-0.666992 -3.33301 -1.16699 -6.33301 -1.5 -9s-0.5 -5 -0.5 -7c0 -6.66699 1.83301 -10.834 5.5 -12.501
s10.5 -2.5 20.5 -2.5c6.66699 0 12 0.333008 16 1s7.33301 2.16699 10 4.5s4.66699 5.5 6 9.5s2.66602 9.33301 3.99902 16zM609.003 89.0029c-4.66699 -21.333 -9.66406 -38.165 -14.9971 -50.498s-12.833 -21.833 -22.5 -28.5s-21.834 -11 -36.501 -13
s-33.334 -3 -56.001 -3c-35.333 0 -60 2.66699 -74 8s-21 18.666 -21 39.999c0 12 2 27.667 6 47l55 259c4.66699 20.667 9.66699 37.167 15 49.5s12.666 21.833 21.999 28.5s21.333 11 36 13s33.334 3 56.001 3c35.333 0 60.166 -2.83301 74.499 -8.5
s21.5 -18.834 21.5 -39.501c0 -12 -2 -27.333 -6 -46zM584.006 348.004c1.33301 3.33301 2 6.33496 2 9.00195v8c0 5.33301 -1.83301 8.83301 -5.5 10.5s-10.167 2.5 -19.5 2.5c-13.333 0 -22.166 -1.83301 -26.499 -5.5s-7.83301 -11.834 -10.5 -24.501l-55 -259
c-0.666992 -3.33301 -1.16699 -6.33301 -1.5 -9s-0.5 -5 -0.5 -7c0 -6.66699 1.83301 -10.834 5.5 -12.501s10.5 -2.5 20.5 -2.5c6.66699 0 12 0.333008 16 1s7.33301 2.16699 10 4.5s4.66699 5.5 6 9.5s2.66602 9.33301 3.99902 16z" />
    <glyph glyph-name="ampersand" unicode="&#x26;" horiz-adv-x="395" 
d="M436 413l-86.998 -413h-149c-26 0 -48 1 -66 3s-32.667 5.83301 -44 11.5s-19.5 13.5 -24.5 23.5s-7.5 23.333 -7.5 40c0 11.333 1.16699 23.833 3.5 37.5s5.16602 29.167 8.49902 46.5l37 174c4.66699 22.667 10.334 41.167 17.001 55.5s14.167 25.833 22.5 34.5
s17.333 15.334 27 20.001s19.834 9 30.501 13l1 4c-6 1.33301 -12.167 3.16602 -18.5 5.49902s-12 6 -17 11s-9.16699 11.5 -12.5 19.5s-5 18 -5 30c0 6 0.5 12.333 1.5 19s2.16699 14 3.5 22l12 59c7.33301 35.333 15.333 63.5 24 84.5s20.334 37.167 35.001 48.5
s33 18.833 55 22.5s50 5.5 84 5.5h17l-21 -100h-17c-10.667 0 -19.334 -0.833008 -26.001 -2.5s-12.334 -4.66699 -17.001 -9s-8.33398 -10.5 -11.001 -18.5s-5.33398 -18.333 -8.00098 -31l-14 -69c-1.33301 -7.33301 -2.5 -13.5 -3.5 -18.5s-1.5 -9.5 -1.5 -13.5
c0 -10 3 -16.5 9 -19.5s16.333 -4.5 31 -4.5h44l23 112h107l-23 -112h37l-20 -91h-37zM329.002 413l-43.999 -0.000976562c-20 0 -33.667 -4.16699 -41 -12.5s-13.333 -23.166 -18 -44.499l-41 -194c-4 -16 -6 -28.333 -6 -37c0 -11.333 3.16699 -18.5 9.5 -21.5
s17.166 -4.5 32.499 -4.5h42z" />
    <glyph glyph-name="quotesingle" unicode="'" horiz-adv-x="150" 
d="M287 790l-75 -284h-59l45 284h89z" />
    <glyph glyph-name="parenleft" unicode="(" horiz-adv-x="256" 
d="M411 845l-18.002 -0.000976562c-14.667 0 -26.667 -1.33301 -36 -4s-17.166 -8 -23.499 -16s-11.833 -18.833 -16.5 -32.5s-9.33398 -31.5 -14.001 -53.5l-159 -744c-6 -28 -9 -49.333 -9 -64c0 -17.333 4.33301 -28.666 13 -33.999s22.667 -8 42 -8h18l-16 -74h-18
c-45.333 0 -77.166 7.16699 -95.499 21.5s-27.5 38.166 -27.5 71.499c0 22.667 3.66699 51.667 11 87l159 744c6.66699 32.667 14.834 60.334 24.501 83.001s21.667 41.167 36 55.5s31.833 24.833 52.5 31.5s45.667 10 75 10h18z" />
    <glyph glyph-name="parenright" unicode=")" horiz-adv-x="256" 
d="M220 919h18.001c44 0 75.333 -7.66699 94 -23s28 -40.666 28 -75.999c0 -23.333 -3.33301 -50.333 -10 -81l-159 -744c-7.33301 -32.667 -15.333 -60.334 -24 -83.001s-20 -41.167 -34 -55.5s-31.5 -24.833 -52.5 -31.5s-46.833 -10 -77.5 -10h-17l15 74h18
c14 0 25.667 1.33301 35 4s17.166 7.66699 23.499 15s11.833 18 16.5 32s9.66699 32.333 15 55l159 744c3.33301 13.333 5.5 25.333 6.5 36l2.5 27c0 17.333 -4.33301 28.833 -13 34.5s-22.667 8.5 -42 8.5h-18z" />
    <glyph glyph-name="asterisk" unicode="*" horiz-adv-x="437" 
d="M218 708l107 -78l-12 134l34 36l33 -36l-11 -134l107 78l46 -13l-13 -48l-118 -57l118 -56l13 -48l-46 -13l-107 78l11 -134l-33 -36l-34 36l12 134l-107 -78l-46 13l14 48l117 56l-117 57l-14 48z" />
    <glyph glyph-name="plus" unicode="+" horiz-adv-x="493" 
d="M277 354h-158l19 91h158l33 157h90l-33 -157h159l-19 -91h-159l-34 -158h-90z" />
    <glyph glyph-name="comma" unicode="," horiz-adv-x="191" 
d="M144 -19c-6 -28 -17.332 -49.5 -33.999 -64.5s-42.667 -22.5 -78 -22.5h-11l10 47h13c10.667 0 19.167 2.66699 25.5 8s11.166 15 14.499 29l5 22h-45l28 132h105z" />
    <glyph glyph-name="hyphen" unicode="-" horiz-adv-x="205" 
d="M245 288h-163l19 90h163z" />
    <glyph glyph-name="hyphen" unicode="&#xad;" horiz-adv-x="205" 
d="M245 288h-163l19 90h163z" />
    <glyph glyph-name="period" unicode="." horiz-adv-x="191" 
d="M149 0h-105l28 132h105z" />
    <glyph glyph-name="slash" unicode="/" horiz-adv-x="272" 
d="M452 864l-380 -936h-83l378 936h85z" />
    <glyph glyph-name="zero" unicode="0" 
d="M398 157c-8 -36.667 -16.499 -66 -25.499 -88s-20.833 -38.833 -35.5 -50.5s-33.167 -19.334 -55.5 -23.001s-50.5 -5.5 -84.5 -5.5c-25.333 0 -47 1 -65 3s-32.5 5.66699 -43.5 11s-19 13.166 -24 23.499s-7.5 23.833 -7.5 40.5c0 22 4 51.667 12 89l101 477
c8 36.667 16.5 65.834 25.5 87.501s20.667 38.334 35 50.001s32.666 19.334 54.999 23.001s50.5 5.5 84.5 5.5c25.333 0 47 -1 65 -3s32.667 -5.66699 44 -11s19.5 -13.333 24.5 -24s7.5 -24.334 7.5 -41.001c0 -22 -4 -51 -12 -87zM383.001 634
c1.33301 8 2.66895 15.001 4.00195 21.001s2 11.333 2 16c0 11.333 -3.16699 18.5 -9.5 21.5s-16.833 4.5 -31.5 4.5c-10.667 0 -19.334 -0.833008 -26.001 -2.5s-12.334 -4.83398 -17.001 -9.50098s-8.5 -11.167 -11.5 -19.5s-5.83301 -18.833 -8.5 -31.5l-101 -477
c-4 -17.333 -6 -30 -6 -38c0 -11.333 3 -18.666 9 -21.999s16.667 -5 32 -5c10.667 0 19.5 0.833008 26.5 2.5s12.667 5 17 10s8 11.667 11 20s5.83301 19.166 8.5 32.499z" />
    <glyph glyph-name="one" unicode="1" horiz-adv-x="245" 
d="M185 790h185l-167 -790h-116l146 691h-69z" />
    <glyph glyph-name="two" unicode="2" horiz-adv-x="413" 
d="M42 0l49.999 238.001c6.66699 33.333 13.334 60.333 20.001 81s14.5 37.834 23.5 51.501s19.833 25.167 32.5 34.5s29 19.333 49 30l100 54c10 5.33301 18.167 10.166 24.5 14.499s11.5 9.16602 15.5 14.499s7.33301 11.166 10 17.499s5 14.166 7 23.499l17 78
c3.33301 15.333 5 26.666 5 33.999c0 10.667 -3 17.667 -9 21s-16.333 5 -31 5c-10.667 0 -19.5 -1 -26.5 -3s-12.833 -5.33301 -17.5 -10s-8.5 -11 -11.5 -19s-5.83301 -18.333 -8.5 -31l-21 -98h-112l21 98c8 36.667 16.5 65.834 25.5 87.501s20.667 38.334 35 50.001
s32.5 19.334 54.5 23.001s50 5.5 84 5.5c25.333 0 47 -0.833008 65 -2.5s32.5 -5.33398 43.5 -11.001s19 -13.5 24 -23.5s7.5 -23 7.5 -39c0 -22 -4 -51 -12 -87l-18 -83c-4.66699 -20.667 -9.5 -38.167 -14.5 -52.5s-11.5 -27 -19.5 -38s-18 -20.833 -30 -29.5
s-27.333 -17.667 -46 -27l-108 -57c-9.33301 -5.33301 -17 -10.166 -23 -14.499s-11 -9.33301 -15 -15s-7.33301 -12.167 -10 -19.5s-5 -16.333 -7 -27l-37 -172h97l41 191h117l-62 -293h-330z" />
    <glyph glyph-name="three" unicode="3" horiz-adv-x="391" 
d="M208 308l-33.0039 -152.999c-2.66699 -12.667 -4 -23.667 -4 -33c0 -11.333 3 -19 9 -23s16.333 -6 31 -6c10 0 18.333 1 25 3s12.334 5.5 17.001 10.5s8.33398 11.5 11.001 19.5s5.33398 17.667 8.00098 29l29 135c2.66699 12.667 4.83398 23.5 6.50098 32.5
s2.5 17.167 2.5 24.5c0 10.667 -2.83301 18.167 -8.5 22.5s-15.5 6.5 -29.5 6.5h-66l23 104h66c20.667 0 34.5 3.83301 41.5 11.5s12.5 21.167 16.5 40.5l21 103c3.33301 16.667 5 28.334 5 35.001c0 11.333 -3.16699 18.666 -9.5 21.999s-16.5 5 -30.5 5
c-12 0 -21.5 -1 -28.5 -3s-12.667 -5.5 -17 -10.5s-7.66602 -11.5 -9.99902 -19.5s-4.5 -17.667 -6.5 -29l-19 -93h-110l19 93c7.33301 36 15.666 65 24.999 87s21.166 38.667 35.499 50s32.166 18.833 53.499 22.5s48 5.5 80 5.5c25.333 0 47 -1 65 -3
s32.667 -5.83301 44 -11.5s19.5 -13.667 24.5 -24s7.5 -23.833 7.5 -40.5c0 -11.333 -1 -23.833 -3 -37.5s-4.66699 -29.167 -8 -46.5l-21 -99c-4.66699 -20.667 -10.667 -37.5 -18 -50.5s-15.166 -23.5 -23.499 -31.5s-17.166 -13.833 -26.499 -17.5s-18 -6.5 -26 -8.5
l-1 -4c14.667 -3.33301 26.667 -9.66602 36 -18.999s14 -26.333 14 -51c0 -8.66699 -0.5 -18.334 -1.5 -29.001s-3.16699 -22.667 -6.5 -36l-29 -138c-7.33301 -35.333 -15.5 -63.833 -24.5 -85.5s-20.833 -38.167 -35.5 -49.5s-33.167 -18.833 -55.5 -22.5
s-50.5 -5.5 -84.5 -5.5c-24 0 -44.667 1 -62 3s-31.333 5.66699 -42 11s-18.5 13.166 -23.5 23.499s-7.5 23.833 -7.5 40.5c0 22 4 51 12 87l33 153h110z" />
    <glyph glyph-name="four" unicode="4" horiz-adv-x="418" 
d="M465 324l-20 -98h-47l-48 -226h-117l48 226h-194l123 569h106l-103 -471h88l74 346h117l-74 -346h47z" />
    <glyph glyph-name="five" unicode="5" horiz-adv-x="403" 
d="M363 537l34.9951 167.006h-96l-50 -229h88c35.333 0 61 -6.16699 77 -18.5s24 -34.5 24 -66.5c0 -20 -3 -44.333 -9 -73l-34 -160c-8 -36.667 -16.5 -66 -25.5 -88s-21 -38.833 -36 -50.5s-33.5 -19.334 -55.5 -23.001s-50 -5.5 -84 -5.5c-24 0 -44.5 1 -61.5 3
s-30.833 5.66699 -41.5 11s-18.5 13.166 -23.5 23.499s-7.5 23.833 -7.5 40.5c0 21.333 4 50.666 12 87.999l30 142h110l-30 -142c-1.33301 -7.33301 -2.66602 -13.666 -3.99902 -18.999s-2 -10 -2 -14c0 -13.333 2.5 -21.833 7.5 -25.5s15.833 -5.5 32.5 -5.5
c10.667 0 19.334 0.833008 26.001 2.5s12.334 4.66699 17.001 9s8.33398 10.666 11.001 18.999s5.66699 19.5 9 33.5l30 143c2.66699 11.333 4.83398 21.666 6.50098 30.999s2.5 17.666 2.5 24.999c0 13.333 -3.5 22.666 -10.5 27.999s-19.167 8 -36.5 8h-149l87 399h320
l-53 -253h-116z" />
    <glyph glyph-name="six" unicode="6" 
d="M398 157c-8 -36.667 -16.498 -66 -25.498 -88s-20.833 -38.833 -35.5 -50.5s-33.167 -19.334 -55.5 -23.001s-50.5 -5.5 -84.5 -5.5c-25.333 0 -47 1 -65 3s-32.5 5.66699 -43.5 11s-19 13.166 -24 23.499s-7.5 23.833 -7.5 40.5c0 22 4 51.667 12 89l101 477
c8 36.667 16.5 65.834 25.5 87.501s20.667 38.334 35 50.001s32.666 19.334 54.999 23.001s50.5 5.5 84.5 5.5c24 0 44.667 -1 62 -3s31.333 -5.66699 42 -11s18.5 -13.333 23.5 -24s7.5 -24.334 7.5 -41.001c0 -22 -4 -51 -12 -87l-17 -79h-111l17 79
c1.33301 8 2.66602 15 3.99902 21s2 11.333 2 16c0 10.667 -3.16699 17.667 -9.5 21s-16.5 5 -30.5 5c-10 0 -18.5 -1 -25.5 -3s-12.833 -5.33301 -17.5 -10s-8.5 -11 -11.5 -19s-5.83301 -18.333 -8.5 -31l-44 -210c20.667 29.333 57 44 109 44c34 0 57.667 -5.5 71 -16.5
s20 -29.833 20 -56.5c0 -12 -1.16699 -25.833 -3.5 -41.5s-5.5 -33.167 -9.5 -52.5zM312.002 299c4.66699 20.667 6.99805 37.332 6.99805 49.999s-2.83301 20.667 -8.5 24s-14.167 5 -25.5 5c-17.333 0 -30.666 -3.66699 -39.999 -11s-17.333 -19 -24 -35l-35 -166
c-2 -10 -3.66699 -18.667 -5 -26s-2 -13.666 -2 -18.999c0 -12.667 3.16699 -20.667 9.5 -24s16.5 -5 30.5 -5c10 0 18.333 0.833008 25 2.5s12.334 4.66699 17.001 9s8.5 10.833 11.5 19.5s6.16699 20 9.5 34z" />
    <glyph glyph-name="seven" unicode="7" horiz-adv-x="329" 
d="M450 702l-297 -702h-119l300 694h-161l20 96h275z" />
    <glyph glyph-name="eight" unicode="8" horiz-adv-x="401" 
d="M371 800c25.333 0 47.001 -1.00391 65.001 -3.00391s32.667 -5.83301 44 -11.5s19.5 -13.5 24.5 -23.5s7.5 -23.333 7.5 -40c0 -11.333 -1 -23.666 -3 -36.999s-4.66699 -28.666 -8 -45.999l-21 -101c-4 -20.667 -9.66699 -37.5 -17 -50.5s-15.5 -23.5 -24.5 -31.5
s-18.333 -13.833 -28 -17.5s-18.834 -6.5 -27.501 -8.5l-1 -4c16 -3.33301 28.833 -9.66602 38.5 -18.999s14.5 -26 14.5 -50c0 -9.33301 -0.5 -19.333 -1.5 -30s-3.16699 -22.667 -6.5 -36l-29 -139c-7.33301 -35.333 -15.666 -63.666 -24.999 -84.999
s-21.333 -37.666 -36 -48.999s-33 -18.833 -55 -22.5s-50 -5.5 -84 -5.5c-26 0 -48 1 -66 3s-32.667 5.83301 -44 11.5s-19.5 13.5 -24.5 23.5s-7.5 23.333 -7.5 40c0 11.333 1.16699 23.833 3.5 37.5s5.16602 29.167 8.49902 46.5l29 139c5.33301 26 11.5 47.167 18.5 63.5
s14.833 29.5 23.5 39.5s18 17.333 28 22s21 8 33 10l1 4c-6.66699 1.33301 -13.334 3.33301 -20.001 6s-12.667 6.5 -18 11.5s-9.66602 11.667 -12.999 20s-5 18.5 -5 30.5c0 6 0.5 12.333 1.5 19s2.16699 13.667 3.5 21l21 101c7.33301 34.667 15.5 62.667 24.5 84
s20.833 37.666 35.5 48.999s33.167 18.833 55.5 22.5s50.5 5.5 84.5 5.5zM316.001 312.996c1.33301 8.66699 2.66895 16.332 4.00195 22.999s2 12.667 2 18c0 11.333 -3.16699 18.833 -9.5 22.5s-16.5 5.5 -30.5 5.5c-10.667 0 -19.334 -0.833008 -26.001 -2.5
s-12.334 -5.33398 -17.001 -11.001s-8.83398 -14.167 -12.501 -25.5s-7.5 -26.333 -11.5 -45l-31 -145c-3.33301 -15.333 -5 -26.666 -5 -33.999c0 -11.333 3 -18.666 9 -21.999s16.667 -5 32 -5c20.667 0 34.834 3.83301 42.501 11.5s14.167 24.167 19.5 49.5z
M349.004 696.994c-11.333 0 -20.332 -0.999023 -26.999 -2.99902s-12.334 -5.5 -17.001 -10.5s-8.5 -12 -11.5 -21s-5.83301 -20.833 -8.5 -35.5l-21 -98c-2.66699 -10 -4 -19.333 -4 -28c0 -10 3 -17 9 -21s16.667 -6 32 -6c10.667 0 19.5 0.833008 26.5 2.5
s12.667 4.66699 17 9s7.83301 10 10.5 17s5 15.833 7 26.5l21 98c4 18.667 6 33 6 43c0 11.333 -2.83301 18.666 -8.5 21.999s-16.167 5 -31.5 5z" />
    <glyph glyph-name="nine" unicode="9" 
d="M170 633c8 36.667 16.499 66.0049 25.499 88.0049s20.667 38.833 35 50.5s32.666 19.334 54.999 23.001s50.5 5.5 84.5 5.5c25.333 0 47 -1 65 -3s32.667 -5.66699 44 -11s19.5 -13.333 24.5 -24s7.5 -24.334 7.5 -41.001c0 -22 -4 -51.333 -12 -88l-101 -477
c-8 -36.667 -16.5 -65.834 -25.5 -87.501s-20.833 -38.334 -35.5 -50.001s-33.167 -19.334 -55.5 -23.001s-50.5 -5.5 -84.5 -5.5c-24 0 -44.5 1 -61.5 3s-30.833 5.66699 -41.5 11s-18.5 13.166 -23.5 23.499s-7.5 23.833 -7.5 40.5c0 21.333 4 50.666 12 87.999l13 61h110
l-13 -61c-1.33301 -8 -2.66602 -15 -3.99902 -21s-1.66602 -11.333 -0.999023 -16c0 -11.333 3 -18.666 9 -21.999s16 -5 30 -5c21.333 0 35.833 4.33301 43.5 13s14.167 25.667 19.5 51l39 186c-20.667 -28.667 -56.667 -43 -108 -43c-34 0 -57.667 5.5 -71 16.5
s-20 30.167 -20 57.5c0 12 1.16699 25.667 3.5 41s5.5 32.666 9.5 51.999zM253.999 489.005l-8.49609 -43.5c-2.33301 -11.667 -3.5 -21.5 -3.5 -29.5c0 -11.333 2.66699 -18.833 8 -22.5s14.666 -5.5 27.999 -5.5c17.333 0 30.666 3.33301 39.999 10s17 18.667 23 36
l42 199c4 16.667 6 29.667 6 39c0 10.667 -3 17.5 -9 20.5s-16.667 4.5 -32 4.5c-10.667 0 -19.334 -0.666992 -26.001 -2s-12.334 -4.33301 -17.001 -9s-8.5 -11.167 -11.5 -19.5s-5.83301 -19.5 -8.5 -33.5z" />
    <glyph glyph-name="colon" unicode=":" horiz-adv-x="191" 
d="M149 0h-105l28 132h105zM233 397h-105l28 132h105z" />
    <glyph glyph-name="semicolon" unicode=";" horiz-adv-x="191" 
d="M144 -19c-6 -28 -17.499 -49.5 -34.499 -64.5s-42.833 -22.5 -77.5 -22.5h-11l10 47h13c10.667 0 19.167 2.66699 25.5 8s11.166 15 14.499 29l5 22h-45l28 132h105zM233.001 397h-105l28 132h105z" />
    <glyph glyph-name="less" unicode="&#x3c;" horiz-adv-x="493" 
d="M581 613l-21 -93l-333 -122l281 -123l-18 -89l-372 165l21 97z" />
    <glyph glyph-name="equal" unicode="=" horiz-adv-x="493" 
d="M96 247l19 90h408l-19 -90h-408zM142 465l19 90h408l-19 -90h-408z" />
    <glyph glyph-name="greater" unicode="&#x3e;" horiz-adv-x="493" 
d="M84 186l21 93l333 122l-281 123l18 89l372 -165l-21 -97z" />
    <glyph glyph-name="question" unicode="?" horiz-adv-x="385" 
d="M236 0h-105l27 131h105zM186 253c3.33301 16 6.67188 29.832 10.0049 41.499s7.16602 22.334 11.499 32.001s9.5 19 15.5 28s13.667 18.833 23 29.5l74 87c10.667 12.667 18.167 24.5 22.5 35.5s8.83301 26.833 13.5 47.5l17 80c1.33301 8 2.66602 15 3.99902 21
s2 11.333 2 16c0 10.667 -3.16699 17.667 -9.5 21s-16.833 5 -31.5 5c-11.333 0 -20.333 -0.833008 -27 -2.5s-12.334 -4.83398 -17.001 -9.50098s-8.33398 -11.167 -11.001 -19.5s-5.33398 -18.833 -8.00098 -31.5l-21 -100h-112l21 100c8 36.667 16.5 65.834 25.5 87.501
s20.833 38.334 35.5 50.001s32.834 19.334 54.501 23.001s48.834 5.5 81.501 5.5c25.333 0 46.833 -1 64.5 -3s32.167 -5.83301 43.5 -11.5s19.666 -13.667 24.999 -24s8 -23.833 8 -40.5c0 -22 -4 -51 -12 -87l-15 -71c-3.33301 -17.333 -6.83301 -32 -10.5 -44
s-7.83398 -23 -12.501 -33s-10.5 -19.833 -17.5 -29.5s-15.5 -20.5 -25.5 -32.5l-93 -110c-5.33301 -6 -9.5 -11.333 -12.5 -16s-5.66699 -9.33398 -8 -14.001s-4.33301 -9.83398 -6 -15.501s-3.5 -12.5 -5.5 -20.5l-12 -59h-98z" />
    <glyph glyph-name="at" unicode="@" horiz-adv-x="421" 
d="M349 453c31.333 0 50.667 -8.00195 58 -24.002l21 100c4 18.667 6 33.667 6 45c0 17.333 -6.16699 29 -18.5 35s-36.166 9 -71.499 9c-23.333 0 -42.166 -1 -56.499 -3s-25.833 -6.33301 -34.5 -13s-15.334 -15.834 -20.001 -27.501s-9 -26.834 -13 -45.501l-105 -495
c-4 -17.333 -6 -31 -6 -41c0 -17.333 6.66699 -28.5 20 -33.5s37.666 -7.5 72.999 -7.5c23.333 0 42 1 56 3s25.167 6 33.5 12s14.666 14.333 18.999 25s8.5 24.667 12.5 42l6 28h71l-5 -21c-7.33301 -35.333 -15.666 -63.666 -24.999 -84.999
s-21.666 -37.666 -36.999 -48.999s-34.833 -18.833 -58.5 -22.5s-53.5 -5.5 -89.5 -5.5c-28 0 -51.667 1 -71 3s-35 5.83301 -47 11.5s-20.667 13.667 -26 24s-8 24.166 -8 41.499c0 11.333 1 23.5 3 36.5s4.66699 28.167 8 45.5l103 482c8 36.667 16.5 65.834 25.5 87.501
s21.167 38.334 36.5 50.001s34.833 19.334 58.5 23.001s53.5 5.5 89.5 5.5c27.333 0 50.666 -1 69.999 -3s35 -6 47 -12s20.833 -14.333 26.5 -25s8.5 -24.667 8.5 -42c0 -11.333 -1 -23.833 -3 -37.5s-4.66699 -29.167 -8 -46.5l-83 -390h-66l5 24
c-8 -9.33301 -17.833 -16.333 -29.5 -21s-26.5 -7 -44.5 -7c-22 0 -37.667 3.16699 -47 9.5s-14 17.5 -14 33.5c0 11.333 2 26 6 44l31 146c4 18 8.16699 32.833 12.5 44.5s10 21 17 28s15.667 11.833 26 14.5s22.833 4 37.5 4zM293.001 222.998
c-2 -8 -3.00195 -14.332 -3.00195 -18.999c0 -12.667 9.33301 -19 28 -19c9.33301 0 17.5 2.66699 24.5 8s13.167 11.666 18.5 18.999l33 156c-3.33301 15.333 -14 23 -32 23c-13.333 0 -22.666 -3 -27.999 -9s-9.66602 -15.667 -12.999 -29z" />
    <glyph glyph-name="A" unicode="A" 
d="M247 0l36.9971 175.998h-97l-37 -176h-112l134 634c8 36.667 16.5 65.834 25.5 87.501s20.833 38.334 35.5 50.001s32.834 19.334 54.501 23.001s48.834 5.5 81.501 5.5c24.667 0 45.834 -1.16699 63.501 -3.5s32 -6.5 43 -12.5s19 -14.333 24 -25
s7.5 -24.334 7.5 -41.001c0 -20.667 -3.66699 -48.667 -11 -84l-134 -634h-115zM345.997 696.998c-10 0 -18.5 -0.834961 -25.5 -2.50195s-12.667 -4.66699 -17 -9s-8 -10.666 -11 -18.999s-5.83301 -19.166 -8.5 -32.499l-77 -364h97l77 364c3.33301 15.333 5 26.333 5 33
c0 12 -2.83301 20 -8.5 24s-16.167 6 -31.5 6z" />
    <glyph glyph-name="A" unicode="&#x410;" 
d="M247 0l36.9971 175.998h-97l-37 -176h-112l134 634c8 36.667 16.5 65.834 25.5 87.501s20.833 38.334 35.5 50.001s32.834 19.334 54.501 23.001s48.834 5.5 81.501 5.5c24.667 0 45.834 -1.16699 63.501 -3.5s32 -6.5 43 -12.5s19 -14.333 24 -25
s7.5 -24.334 7.5 -41.001c0 -20.667 -3.66699 -48.667 -11 -84l-134 -634h-115zM345.997 696.998c-10 0 -18.5 -0.834961 -25.5 -2.50195s-12.667 -4.66699 -17 -9s-8 -10.666 -11 -18.999s-5.83301 -19.166 -8.5 -32.499l-77 -364h97l77 364c3.33301 15.333 5 26.333 5 33
c0 12 -2.83301 20 -8.5 24s-16.167 6 -31.5 6z" />
    <glyph glyph-name="A" unicode="&#x391;" 
d="M247 0l36.9971 175.998h-97l-37 -176h-112l134 634c8 36.667 16.5 65.834 25.5 87.501s20.833 38.334 35.5 50.001s32.834 19.334 54.501 23.001s48.834 5.5 81.501 5.5c24.667 0 45.834 -1.16699 63.501 -3.5s32 -6.5 43 -12.5s19 -14.333 24 -25
s7.5 -24.334 7.5 -41.001c0 -20.667 -3.66699 -48.667 -11 -84l-134 -634h-115zM345.997 696.998c-10 0 -18.5 -0.834961 -25.5 -2.50195s-12.667 -4.66699 -17 -9s-8 -10.666 -11 -18.999s-5.83301 -19.166 -8.5 -32.499l-77 -364h97l77 364c3.33301 15.333 5 26.333 5 33
c0 12 -2.83301 20 -8.5 24s-16.167 6 -31.5 6z" />
    <glyph glyph-name="B" unicode="B" horiz-adv-x="405" 
d="M399 458c15.333 -4 27.667 -10.6719 37 -20.0049s14 -25.666 14 -48.999c0 -14.667 -2.66699 -34.667 -8 -60l-35 -167c-7.33301 -35.333 -15.5 -63.666 -24.5 -84.999s-20.833 -37.666 -35.5 -48.999s-33 -18.833 -55 -22.5s-50 -5.5 -84 -5.5h-164l167 790h164
c26 0 48 -1 66 -3s32.667 -5.83301 44 -11.5s19.5 -13.5 24.5 -23.5s7.5 -23.333 7.5 -40c0 -11.333 -1 -23.666 -3 -36.999s-4.66699 -28.666 -8 -45.999l-12 -59c-4 -20.667 -10 -37.667 -18 -51s-16.5 -24 -25.5 -32s-18 -14 -27 -18s-16.833 -6.33301 -23.5 -7z
M180.001 98.9951l48.999 0.00292969c10.667 0 19.334 0.833008 26.001 2.5s12.167 4.66699 16.5 9s8 10.666 11 18.999s5.83301 19.166 8.5 32.499l41 193c2.66699 11.333 4 21.666 4 30.999c0 10 -2.83301 17 -8.5 21s-15.5 6 -29.5 6h-52zM266 503.998h52
c18.667 0 31.667 3.66699 39 11s13 20.666 17 39.999l16 74l3.5 19.5c1 5.66699 1.5 10.834 1.5 15.501c0 10 -3 16.833 -9 20.5s-16.667 5.5 -32 5.5h-49z" />
    <glyph glyph-name="B" unicode="&#x412;" horiz-adv-x="405" 
d="M399 458c15.333 -4 27.667 -10.6719 37 -20.0049s14 -25.666 14 -48.999c0 -14.667 -2.66699 -34.667 -8 -60l-35 -167c-7.33301 -35.333 -15.5 -63.666 -24.5 -84.999s-20.833 -37.666 -35.5 -48.999s-33 -18.833 -55 -22.5s-50 -5.5 -84 -5.5h-164l167 790h164
c26 0 48 -1 66 -3s32.667 -5.83301 44 -11.5s19.5 -13.5 24.5 -23.5s7.5 -23.333 7.5 -40c0 -11.333 -1 -23.666 -3 -36.999s-4.66699 -28.666 -8 -45.999l-12 -59c-4 -20.667 -10 -37.667 -18 -51s-16.5 -24 -25.5 -32s-18 -14 -27 -18s-16.833 -6.33301 -23.5 -7z
M180.001 98.9951l48.999 0.00292969c10.667 0 19.334 0.833008 26.001 2.5s12.167 4.66699 16.5 9s8 10.666 11 18.999s5.83301 19.166 8.5 32.499l41 193c2.66699 11.333 4 21.666 4 30.999c0 10 -2.83301 17 -8.5 21s-15.5 6 -29.5 6h-52zM266 503.998h52
c18.667 0 31.667 3.66699 39 11s13 20.666 17 39.999l16 74l3.5 19.5c1 5.66699 1.5 10.834 1.5 15.501c0 10 -3 16.833 -9 20.5s-16.667 5.5 -32 5.5h-49z" />
    <glyph glyph-name="B" unicode="&#x392;" horiz-adv-x="405" 
d="M399 458c15.333 -4 27.667 -10.6719 37 -20.0049s14 -25.666 14 -48.999c0 -14.667 -2.66699 -34.667 -8 -60l-35 -167c-7.33301 -35.333 -15.5 -63.666 -24.5 -84.999s-20.833 -37.666 -35.5 -48.999s-33 -18.833 -55 -22.5s-50 -5.5 -84 -5.5h-164l167 790h164
c26 0 48 -1 66 -3s32.667 -5.83301 44 -11.5s19.5 -13.5 24.5 -23.5s7.5 -23.333 7.5 -40c0 -11.333 -1 -23.666 -3 -36.999s-4.66699 -28.666 -8 -45.999l-12 -59c-4 -20.667 -10 -37.667 -18 -51s-16.5 -24 -25.5 -32s-18 -14 -27 -18s-16.833 -6.33301 -23.5 -7z
M180.001 98.9951l48.999 0.00292969c10.667 0 19.334 0.833008 26.001 2.5s12.167 4.66699 16.5 9s8 10.666 11 18.999s5.83301 19.166 8.5 32.499l41 193c2.66699 11.333 4 21.666 4 30.999c0 10 -2.83301 17 -8.5 21s-15.5 6 -29.5 6h-52zM266 503.998h52
c18.667 0 31.667 3.66699 39 11s13 20.666 17 39.999l16 74l3.5 19.5c1 5.66699 1.5 10.834 1.5 15.501c0 10 -3 16.833 -9 20.5s-16.667 5.5 -32 5.5h-49z" />
    <glyph glyph-name="C" unicode="C" horiz-adv-x="394" 
d="M344 455l38.001 179.001c1.33301 8 2.66602 15 3.99902 21s2 11.333 2 16c0 10.667 -3.16699 17.667 -9.5 21s-16.5 5 -30.5 5c-10.667 0 -19.334 -0.833008 -26.001 -2.5s-12.334 -4.83398 -17.001 -9.50098s-8.5 -11.167 -11.5 -19.5s-5.83301 -18.833 -8.5 -31.5
l-101 -477c-4 -17.333 -6 -30 -6 -38c0 -11.333 3 -18.666 9 -21.999s16.667 -5 32 -5c10 0 18.333 0.833008 25 2.5s12.334 4.83398 17.001 9.50098s8.33398 11.167 11.001 19.5s5.66699 19.5 9 33.5l39 183h111l-39 -183c-8 -36.667 -16.5 -66 -25.5 -88
s-20.667 -38.833 -35 -50.5s-32.333 -19.334 -54 -23.001s-48.5 -5.5 -80.5 -5.5c-25.333 0 -47 1 -65 3s-32.5 5.66699 -43.5 11s-19 13.166 -24 23.499s-7.5 23.833 -7.5 40.5c0 22 4 51.667 12 89l101 477c8 36 16.667 65 26 87s21.5 38.833 36.5 50.5
s33.5 19.334 55.5 23.001s49.333 5.5 82 5.5c24 0 44.667 -1 62 -3s31.333 -5.66699 42 -11s18.5 -13.333 23.5 -24s7.5 -24.334 7.5 -41.001c0 -22 -4 -51 -12 -87l-38 -179h-111z" />
    <glyph glyph-name="C" unicode="&#x421;" horiz-adv-x="394" 
d="M344 455l38.001 179.001c1.33301 8 2.66602 15 3.99902 21s2 11.333 2 16c0 10.667 -3.16699 17.667 -9.5 21s-16.5 5 -30.5 5c-10.667 0 -19.334 -0.833008 -26.001 -2.5s-12.334 -4.83398 -17.001 -9.50098s-8.5 -11.167 -11.5 -19.5s-5.83301 -18.833 -8.5 -31.5
l-101 -477c-4 -17.333 -6 -30 -6 -38c0 -11.333 3 -18.666 9 -21.999s16.667 -5 32 -5c10 0 18.333 0.833008 25 2.5s12.334 4.83398 17.001 9.50098s8.33398 11.167 11.001 19.5s5.66699 19.5 9 33.5l39 183h111l-39 -183c-8 -36.667 -16.5 -66 -25.5 -88
s-20.667 -38.833 -35 -50.5s-32.333 -19.334 -54 -23.001s-48.5 -5.5 -80.5 -5.5c-25.333 0 -47 1 -65 3s-32.5 5.66699 -43.5 11s-19 13.166 -24 23.499s-7.5 23.833 -7.5 40.5c0 22 4 51.667 12 89l101 477c8 36 16.667 65 26 87s21.5 38.833 36.5 50.5
s33.5 19.334 55.5 23.001s49.333 5.5 82 5.5c24 0 44.667 -1 62 -3s31.333 -5.66699 42 -11s18.5 -13.333 23.5 -24s7.5 -24.334 7.5 -41.001c0 -22 -4 -51 -12 -87l-38 -179h-111z" />
    <glyph glyph-name="D" unicode="D" horiz-adv-x="407" 
d="M407 162c-7.33301 -35.333 -15.5 -63.6699 -24.5 -85.0029s-20.833 -37.666 -35.5 -48.999s-33 -18.833 -55 -22.5s-50 -5.5 -84 -5.5h-164l167 790h164c26 0 48 -1 66 -3s32.667 -5.83301 44 -11.5s19.5 -13.5 24.5 -23.5s7.5 -23.333 7.5 -40
c0 -11.333 -1 -23.666 -3 -36.999s-4.66699 -28.666 -8 -45.999zM390 628.996l3.49902 19.501c1 5.66699 1.5 10.834 1.5 15.501c0 10.667 -3 17.667 -9 21s-16.667 5 -32 5h-49l-125 -591h49c10.667 0 19.334 0.833008 26.001 2.5s12.167 4.66699 16.5 9
s8 10.666 11 18.999s5.83301 19.166 8.5 32.499z" />
    <glyph glyph-name="E" unicode="E" horiz-adv-x="293" 
d="M270 0h-226l167 790h225l-20 -95h-110l-24 -115h107l-20 -91h-107l-82 -390h111z" />
    <glyph glyph-name="E" unicode="&#x415;" horiz-adv-x="293" 
d="M270 0h-226l167 790h225l-20 -95h-110l-24 -115h107l-20 -91h-107l-82 -390h111z" />
    <glyph glyph-name="E" unicode="&#x395;" horiz-adv-x="293" 
d="M270 0h-226l167 790h225l-20 -95h-110l-24 -115h107l-20 -91h-107l-82 -390h111z" />
    <glyph glyph-name="F" unicode="F" horiz-adv-x="287" 
d="M44 0l167 790h230l-20 -95h-115l-25 -117h111l-20 -95h-111l-102 -483h-115z" />
    <glyph glyph-name="G" unicode="G" horiz-adv-x="398" 
d="M367 562l15.0039 72.001c1.33301 8 2.66602 15 3.99902 21s2 11.333 2 16c0 10.667 -3.16699 17.667 -9.5 21s-16.5 5 -30.5 5c-10.667 0 -19.334 -0.833008 -26.001 -2.5s-12.334 -4.83398 -17.001 -9.50098s-8.5 -11.167 -11.5 -19.5s-5.83301 -18.833 -8.5 -31.5
l-101 -477l-3.5 -21c-1 -6 -1.5 -11.333 -1.5 -16c0 -11.333 2.83301 -18.833 8.5 -22.5s16.167 -5.5 31.5 -5.5c13.333 0 24.166 0.333008 32.499 1s14.833 1.66699 19.5 3l77 363h108l-97 -459c-10 -2 -28.5 -4.16699 -55.5 -6.5s-62.5 -3.5 -106.5 -3.5
c-25.333 0 -46.833 1.16699 -64.5 3.5s-32 6.66602 -43 12.999s-19 14.833 -24 25.5s-7.5 24.334 -7.5 41.001c0 11.333 1 23.833 3 37.5s4.66699 29.167 8 46.5l101 477c8 36 16.667 65 26 87s21.5 38.833 36.5 50.5s33.5 19.334 55.5 23.001s49.333 5.5 82 5.5
c24 0 44.667 -1 62 -3s31.333 -5.66699 42 -11s18.5 -13.333 23.5 -24s7.5 -24.334 7.5 -41.001c0 -22 -4 -51 -12 -87l-15 -72h-111z" />
    <glyph glyph-name="H" unicode="H" horiz-adv-x="417" 
d="M375 0h-116l91 432h-100l-91 -432h-115l167 790h115l-55 -261h100l55 261h116z" />
    <glyph glyph-name="H" unicode="&#x41d;" horiz-adv-x="417" 
d="M375 0h-116l91 432h-100l-91 -432h-115l167 790h115l-55 -261h100l55 261h116z" />
    <glyph glyph-name="H" unicode="&#x397;" horiz-adv-x="417" 
d="M375 0h-116l91 432h-100l-91 -432h-115l167 790h115l-55 -261h100l55 261h116z" />
    <glyph glyph-name="I" unicode="I" horiz-adv-x="205" 
d="M161 0h-115l167 790h115z" />
    <glyph glyph-name="I" unicode="&#x4cf;" horiz-adv-x="205" 
d="M161 0h-115l167 790h115z" />
    <glyph glyph-name="I" unicode="&#x4c0;" horiz-adv-x="205" 
d="M161 0h-115l167 790h115z" />
    <glyph glyph-name="I" unicode="&#x406;" horiz-adv-x="205" 
d="M161 0h-115l167 790h115z" />
    <glyph glyph-name="I" unicode="&#x399;" horiz-adv-x="205" 
d="M161 0h-115l167 790h115z" />
    <glyph glyph-name="J" unicode="J" horiz-adv-x="372" 
d="M86 340l105 0.000976562l-39 -183c-4 -16 -6 -28.667 -6 -38c0 -11.333 3 -18.666 9 -21.999s16 -5 30 -5c20 0 33.833 4.16699 41.5 12.5s14.167 25.833 19.5 52.5l134 633h116l-134 -633c-8 -36.667 -16.5 -66 -25.5 -88s-20.667 -38.833 -35 -50.5
s-32.333 -19.334 -54 -23.001s-49.167 -5.5 -82.5 -5.5c-23.333 0 -43.166 1 -59.499 3s-29.833 5.66699 -40.5 11s-18.334 13.166 -23.001 23.499s-7 23.833 -7 40.5c0 21.333 4 51 12 89z" />
    <glyph glyph-name="J" unicode="&#x408;" horiz-adv-x="372" 
d="M86 340l105 0.000976562l-39 -183c-4 -16 -6 -28.667 -6 -38c0 -11.333 3 -18.666 9 -21.999s16 -5 30 -5c20 0 33.833 4.16699 41.5 12.5s14.167 25.833 19.5 52.5l134 633h116l-134 -633c-8 -36.667 -16.5 -66 -25.5 -88s-20.667 -38.833 -35 -50.5
s-32.333 -19.334 -54 -23.001s-49.167 -5.5 -82.5 -5.5c-23.333 0 -43.166 1 -59.499 3s-29.833 5.66699 -40.5 11s-18.334 13.166 -23.001 23.499s-7 23.833 -7 40.5c0 21.333 4 51 12 89z" />
    <glyph glyph-name="K" unicode="K" horiz-adv-x="404" 
d="M550 790l-187 -337l36 -453h-120l-26 415h-5l-88 -415h-116l167 789h116l-63 -298h5l155 299h126z" />
    <glyph glyph-name="K" unicode="&#x41a;" horiz-adv-x="404" 
d="M550 790l-187 -337l36 -453h-120l-26 415h-5l-88 -415h-116l167 789h116l-63 -298h5l155 299h126z" />
    <glyph glyph-name="K" unicode="&#x39a;" horiz-adv-x="404" 
d="M550 790l-187 -337l36 -453h-120l-26 415h-5l-88 -415h-116l167 789h116l-63 -298h5l155 299h126z" />
    <glyph glyph-name="L" unicode="L" horiz-adv-x="289" 
d="M277 0h-233l167 790h115l-146 -690h118z" />
    <glyph glyph-name="M" unicode="M" horiz-adv-x="531" 
d="M657 790l-167 -790h-94l118 558h-4l-191 -558h-103l46 562h-4l-119 -562h-95l167 790h159l-48 -531h4l169 531h162z" />
    <glyph glyph-name="M" unicode="&#x41c;" horiz-adv-x="531" 
d="M657 790l-167 -790h-94l118 558h-4l-191 -558h-103l46 562h-4l-119 -562h-95l167 790h159l-48 -531h4l169 531h162z" />
    <glyph glyph-name="M" unicode="&#x39c;" horiz-adv-x="531" 
d="M657 790l-167 -790h-94l118 558h-4l-191 -558h-103l46 562h-4l-119 -562h-95l167 790h159l-48 -531h4l169 531h162z" />
    <glyph glyph-name="N" unicode="N" horiz-adv-x="432" 
d="M268 0l-17 493h-4l-104 -493h-99l167 790h125l9 -507h4l107 507h100l-167 -790h-121z" />
    <glyph glyph-name="N" unicode="&#x39d;" horiz-adv-x="432" 
d="M268 0l-17 493h-4l-104 -493h-99l167 790h125l9 -507h4l107 507h100l-167 -790h-121z" />
    <glyph glyph-name="O" unicode="O" 
d="M398 157c-8 -36.667 -16.499 -66 -25.499 -88s-20.833 -38.833 -35.5 -50.5s-33.167 -19.334 -55.5 -23.001s-50.5 -5.5 -84.5 -5.5c-25.333 0 -47 1 -65 3s-32.5 5.66699 -43.5 11s-19 13.166 -24 23.499s-7.5 23.833 -7.5 40.5c0 22 4 51.667 12 89l101 477
c8 36.667 16.5 65.834 25.5 87.501s20.667 38.334 35 50.001s32.666 19.334 54.999 23.001s50.5 5.5 84.5 5.5c25.333 0 47 -1 65 -3s32.667 -5.66699 44 -11s19.5 -13.333 24.5 -24s7.5 -24.334 7.5 -41.001c0 -22 -4 -51 -12 -87zM383.001 634
c1.33301 8 2.66895 15.001 4.00195 21.001s2 11.333 2 16c0 11.333 -3.16699 18.5 -9.5 21.5s-16.833 4.5 -31.5 4.5c-10.667 0 -19.334 -0.833008 -26.001 -2.5s-12.334 -4.83398 -17.001 -9.50098s-8.5 -11.167 -11.5 -19.5s-5.83301 -18.833 -8.5 -31.5l-101 -477
c-4 -17.333 -6 -30 -6 -38c0 -11.333 3 -18.666 9 -21.999s16.667 -5 32 -5c10.667 0 19.5 0.833008 26.5 2.5s12.667 5 17 10s8 11.667 11 20s5.83301 19.166 8.5 32.499z" />
    <glyph glyph-name="O" unicode="&#x41e;" 
d="M398 157c-8 -36.667 -16.499 -66 -25.499 -88s-20.833 -38.833 -35.5 -50.5s-33.167 -19.334 -55.5 -23.001s-50.5 -5.5 -84.5 -5.5c-25.333 0 -47 1 -65 3s-32.5 5.66699 -43.5 11s-19 13.166 -24 23.499s-7.5 23.833 -7.5 40.5c0 22 4 51.667 12 89l101 477
c8 36.667 16.5 65.834 25.5 87.501s20.667 38.334 35 50.001s32.666 19.334 54.999 23.001s50.5 5.5 84.5 5.5c25.333 0 47 -1 65 -3s32.667 -5.66699 44 -11s19.5 -13.333 24.5 -24s7.5 -24.334 7.5 -41.001c0 -22 -4 -51 -12 -87zM383.001 634
c1.33301 8 2.66895 15.001 4.00195 21.001s2 11.333 2 16c0 11.333 -3.16699 18.5 -9.5 21.5s-16.833 4.5 -31.5 4.5c-10.667 0 -19.334 -0.833008 -26.001 -2.5s-12.334 -4.83398 -17.001 -9.50098s-8.5 -11.167 -11.5 -19.5s-5.83301 -18.833 -8.5 -31.5l-101 -477
c-4 -17.333 -6 -30 -6 -38c0 -11.333 3 -18.666 9 -21.999s16.667 -5 32 -5c10.667 0 19.5 0.833008 26.5 2.5s12.667 5 17 10s8 11.667 11 20s5.83301 19.166 8.5 32.499z" />
    <glyph glyph-name="O" unicode="&#x39f;" 
d="M398 157c-8 -36.667 -16.499 -66 -25.499 -88s-20.833 -38.833 -35.5 -50.5s-33.167 -19.334 -55.5 -23.001s-50.5 -5.5 -84.5 -5.5c-25.333 0 -47 1 -65 3s-32.5 5.66699 -43.5 11s-19 13.166 -24 23.499s-7.5 23.833 -7.5 40.5c0 22 4 51.667 12 89l101 477
c8 36.667 16.5 65.834 25.5 87.501s20.667 38.334 35 50.001s32.666 19.334 54.999 23.001s50.5 5.5 84.5 5.5c25.333 0 47 -1 65 -3s32.667 -5.66699 44 -11s19.5 -13.333 24.5 -24s7.5 -24.334 7.5 -41.001c0 -22 -4 -51 -12 -87zM383.001 634
c1.33301 8 2.66895 15.001 4.00195 21.001s2 11.333 2 16c0 11.333 -3.16699 18.5 -9.5 21.5s-16.833 4.5 -31.5 4.5c-10.667 0 -19.334 -0.833008 -26.001 -2.5s-12.334 -4.83398 -17.001 -9.50098s-8.5 -11.167 -11.5 -19.5s-5.83301 -18.833 -8.5 -31.5l-101 -477
c-4 -17.333 -6 -30 -6 -38c0 -11.333 3 -18.666 9 -21.999s16.667 -5 32 -5c10.667 0 19.5 0.833008 26.5 2.5s12.667 5 17 10s8 11.667 11 20s5.83301 19.166 8.5 32.499z" />
    <glyph glyph-name="P" unicode="P" horiz-adv-x="395" 
d="M222 299l-63.0039 -299.005h-115l167 790h164c26 0 48 -1 66 -3s32.667 -5.83301 44 -11.5s19.5 -13.5 24.5 -23.5s7.5 -23.333 7.5 -40c0 -11.333 -1 -23.666 -3 -36.999s-4.66699 -28.666 -8 -45.999l-36 -169c-7.33301 -35.333 -15.666 -63.666 -24.999 -84.999
s-21.166 -37.666 -35.499 -48.999s-32.666 -18.666 -54.999 -21.999s-50.166 -5 -83.499 -5h-49zM304.996 689.995l-63.002 -297.999h49c10 0 18.333 0.833008 25 2.5s12.334 4.83398 17.001 9.50098s8.33398 11.167 11.001 19.5s5.66699 19.166 9 32.499l37 173l3.5 21
c1 6 1.5 11.333 1.5 16c0 9.33301 -3 15.666 -9 18.999s-16.667 5 -32 5h-49z" />
    <glyph glyph-name="P" unicode="&#x420;" horiz-adv-x="395" 
d="M222 299l-63.0039 -299.005h-115l167 790h164c26 0 48 -1 66 -3s32.667 -5.83301 44 -11.5s19.5 -13.5 24.5 -23.5s7.5 -23.333 7.5 -40c0 -11.333 -1 -23.666 -3 -36.999s-4.66699 -28.666 -8 -45.999l-36 -169c-7.33301 -35.333 -15.666 -63.666 -24.999 -84.999
s-21.166 -37.666 -35.499 -48.999s-32.666 -18.666 -54.999 -21.999s-50.166 -5 -83.499 -5h-49zM304.996 689.995l-63.002 -297.999h49c10 0 18.333 0.833008 25 2.5s12.334 4.83398 17.001 9.50098s8.33398 11.167 11.001 19.5s5.66699 19.166 9 32.499l37 173l3.5 21
c1 6 1.5 11.333 1.5 16c0 9.33301 -3 15.666 -9 18.999s-16.667 5 -32 5h-49z" />
    <glyph glyph-name="P" unicode="&#x3a1;" horiz-adv-x="395" 
d="M222 299l-63.0039 -299.005h-115l167 790h164c26 0 48 -1 66 -3s32.667 -5.83301 44 -11.5s19.5 -13.5 24.5 -23.5s7.5 -23.333 7.5 -40c0 -11.333 -1 -23.666 -3 -36.999s-4.66699 -28.666 -8 -45.999l-36 -169c-7.33301 -35.333 -15.666 -63.666 -24.999 -84.999
s-21.166 -37.666 -35.499 -48.999s-32.666 -18.666 -54.999 -21.999s-50.166 -5 -83.499 -5h-49zM304.996 689.995l-63.002 -297.999h49c10 0 18.333 0.833008 25 2.5s12.334 4.83398 17.001 9.50098s8.33398 11.167 11.001 19.5s5.66699 19.166 9 32.499l37 173l3.5 21
c1 6 1.5 11.333 1.5 16c0 9.33301 -3 15.666 -9 18.999s-16.667 5 -32 5h-49z" />
    <glyph glyph-name="Q" unicode="Q" 
d="M248 -76l-34.999 84.999c-28.667 0 -52.834 0.833008 -72.501 2.5s-35.667 5.16699 -48 10.5s-21.166 12.666 -26.499 21.999s-8 22 -8 38c0 10.667 1.16699 22.5 3.5 35.5l8.5 45.5l100 471c8 36.667 16.5 65.834 25.5 87.501s20.667 38.334 35 50.001
s32.666 19.334 54.999 23.001s50.5 5.5 84.5 5.5c25.333 0 47 -1 65 -3s32.667 -5.66699 44 -11s19.5 -13.333 24.5 -24s7.5 -24.334 7.5 -41.001c0 -22 -4 -51 -12 -87l-100 -471c-9.33301 -45.333 -20.333 -79 -33 -101s-31.667 -36.667 -57 -44l39 -94h-100z
M383.001 633.999c1.33301 8 2.66602 15.0029 3.99902 21.0029s2 11.333 2 16c0 11.333 -3.16699 18.5 -9.5 21.5s-16.833 4.5 -31.5 4.5c-10.667 0 -19.334 -0.833008 -26.001 -2.5s-12.334 -4.83398 -17.001 -9.50098s-8.5 -11.167 -11.5 -19.5
s-5.83301 -18.833 -8.5 -31.5l-100 -471c-4 -16 -6 -28.333 -6 -37c0 -11.333 3.16699 -18.5 9.5 -21.5s17.166 -4.5 32.499 -4.5c10.667 0 19.334 0.833008 26.001 2.5s12.334 4.66699 17.001 9s8.33398 10.666 11.001 18.999s5.33398 19.166 8.00098 32.499z" />
    <glyph glyph-name="R" unicode="R" horiz-adv-x="409" 
d="M159 0l-114.998 -0.000976562l167 790h164c26 0 48 -1 66 -3s32.667 -5.83301 44 -11.5s19.5 -13.667 24.5 -24s7.5 -23.833 7.5 -40.5c0 -19.333 -3.66699 -46.666 -11 -81.999l-17 -83c-4 -20.667 -9.83301 -37.5 -17.5 -50.5s-15.834 -23.5 -24.501 -31.5
s-17.5 -13.833 -26.5 -17.5s-17.5 -6.5 -25.5 -8.5l-1 -4c15.333 -4 27.666 -10.5 36.999 -19.5s14 -24.833 14 -47.5c0 -14 -2 -31.333 -6 -52l-66 -315h-116l70 333c1.33301 6 2.33301 11.5 3 16.5s1 9.5 1 13.5c0 10 -2.83301 17 -8.5 21s-15.5 6 -29.5 6h-52z
M261.002 480.999h51.999c18.667 0 31.834 3.66699 39.501 11s13.5 20.666 17.5 39.999l20 97c3.33301 16.667 5 28.334 5 35.001c0 10 -3 16.833 -9 20.5s-16.667 5.5 -32 5.5h-49z" />
    <glyph glyph-name="S" unicode="S" horiz-adv-x="395" 
d="M360 534l20.9961 98.001c4 16.667 6 30 6 40c0 10.667 -3 17.5 -9 20.5s-16.667 4.5 -32 4.5c-11.333 0 -20.333 -0.833008 -27 -2.5s-12.167 -4.66699 -16.5 -9s-8 -10.833 -11 -19.5s-5.83301 -20 -8.5 -34l-17 -78c-2 -10 -3 -18.333 -3 -25
c0 -10.667 3.66699 -19.334 11 -26.001s20.666 -15.667 39.999 -27c22.667 -13.333 41.5 -25 56.5 -35s27 -19.667 36 -29s15.5 -18.833 19.5 -28.5s6 -20.5 6 -32.5c0 -18 -3 -40.333 -9 -67l-27 -127c-8 -36.667 -16.5 -66 -25.5 -88s-20.833 -38.833 -35.5 -50.5
s-33.167 -19.334 -55.5 -23.001s-50.5 -5.5 -84.5 -5.5c-24 0 -44.667 1 -62 3s-31.5 5.83301 -42.5 11.5s-19 13.667 -24 24s-7.5 24.166 -7.5 41.499c0 22 4 51 12 87l33 157h112l-33 -157c-4 -17.333 -6 -30.333 -6 -39c0 -10.667 3 -17.667 9 -21s16.333 -5 31 -5
c10.667 0 19.334 0.833008 26.001 2.5s12.334 4.83398 17.001 9.50098s8.33398 11.167 11.001 19.5s5.66699 19.5 9 33.5l25 119l3.5 21c1 6 1.5 11.667 1.5 17c0 11.333 -3.33301 20.833 -10 28.5s-19.667 17.167 -39 28.5c-22.667 12.667 -41.667 24.167 -57 34.5
s-27.5 20.333 -36.5 30s-15.333 19.334 -19 29.001s-5.5 20.167 -5.5 31.5c0 8.66699 0.833008 17.834 2.5 27.501s3.83398 20.5 6.50098 32.5l16 76c8 36.667 16.333 66 25 88s20.334 39 35.001 51s33.167 19.833 55.5 23.5s50.5 5.5 84.5 5.5c24.667 0 45.667 -1 63 -3
s31.5 -5.83301 42.5 -11.5s19 -13.667 24 -24s7.5 -23.833 7.5 -40.5c0 -22.667 -4 -52.334 -12 -89.001l-21 -98h-112z" />
    <glyph glyph-name="S" unicode="&#x405;" horiz-adv-x="395" 
d="M360 534l20.9961 98.001c4 16.667 6 30 6 40c0 10.667 -3 17.5 -9 20.5s-16.667 4.5 -32 4.5c-11.333 0 -20.333 -0.833008 -27 -2.5s-12.167 -4.66699 -16.5 -9s-8 -10.833 -11 -19.5s-5.83301 -20 -8.5 -34l-17 -78c-2 -10 -3 -18.333 -3 -25
c0 -10.667 3.66699 -19.334 11 -26.001s20.666 -15.667 39.999 -27c22.667 -13.333 41.5 -25 56.5 -35s27 -19.667 36 -29s15.5 -18.833 19.5 -28.5s6 -20.5 6 -32.5c0 -18 -3 -40.333 -9 -67l-27 -127c-8 -36.667 -16.5 -66 -25.5 -88s-20.833 -38.833 -35.5 -50.5
s-33.167 -19.334 -55.5 -23.001s-50.5 -5.5 -84.5 -5.5c-24 0 -44.667 1 -62 3s-31.5 5.83301 -42.5 11.5s-19 13.667 -24 24s-7.5 24.166 -7.5 41.499c0 22 4 51 12 87l33 157h112l-33 -157c-4 -17.333 -6 -30.333 -6 -39c0 -10.667 3 -17.667 9 -21s16.333 -5 31 -5
c10.667 0 19.334 0.833008 26.001 2.5s12.334 4.83398 17.001 9.50098s8.33398 11.167 11.001 19.5s5.66699 19.5 9 33.5l25 119l3.5 21c1 6 1.5 11.667 1.5 17c0 11.333 -3.33301 20.833 -10 28.5s-19.667 17.167 -39 28.5c-22.667 12.667 -41.667 24.167 -57 34.5
s-27.5 20.333 -36.5 30s-15.333 19.334 -19 29.001s-5.5 20.167 -5.5 31.5c0 8.66699 0.833008 17.834 2.5 27.501s3.83398 20.5 6.50098 32.5l16 76c8 36.667 16.333 66 25 88s20.334 39 35.001 51s33.167 19.833 55.5 23.5s50.5 5.5 84.5 5.5c24.667 0 45.667 -1 63 -3
s31.5 -5.83301 42.5 -11.5s19 -13.667 24 -24s7.5 -23.833 7.5 -40.5c0 -22.667 -4 -52.334 -12 -89.001l-21 -98h-112z" />
    <glyph glyph-name="T" unicode="T" horiz-adv-x="311" 
d="M447 694h-86l-147 -694h-115l147 694h-87l20 96h288z" />
    <glyph glyph-name="T" unicode="&#x422;" horiz-adv-x="311" 
d="M447 694h-86l-147 -694h-115l147 694h-87l20 96h288z" />
    <glyph glyph-name="T" unicode="&#x3a4;" horiz-adv-x="311" 
d="M447 694h-86l-147 -694h-115l147 694h-87l20 96h288z" />
    <glyph glyph-name="U" unicode="U" horiz-adv-x="403" 
d="M200 -10c-25.333 0 -46.667 1.00195 -64 3.00195s-31.666 5.83301 -42.999 11.5s-19.5 13.667 -24.5 24s-7.5 24.166 -7.5 41.499c0 22 4 51 12 87l134 633h115l-134 -633c-4 -16 -6 -28.333 -6 -37c0 -11.333 3.16699 -18.666 9.5 -21.999s17.166 -5 32.499 -5
c10 0 18.333 0.833008 25 2.5s12.167 4.66699 16.5 9s8 10.666 11 18.999s6.16699 19.5 9.5 33.5l134 633h112l-134 -633c-8 -36.667 -16.5 -66 -25.5 -88s-20.833 -38.833 -35.5 -50.5s-33 -19.334 -55 -23.001s-49.333 -5.5 -82 -5.5z" />
    <glyph glyph-name="V" unicode="V" horiz-adv-x="371" 
d="M97 0l78 790h116l-82 -647h4l198 647h121l-267 -790h-168z" />
    <glyph glyph-name="W" unicode="W" horiz-adv-x="574" 
d="M289 790l-99 -621h4l185 621h147l-87 -621h4l175 621h118l-259 -790h-146l90 627h-4l-187 -627h-148l94 790h113z" />
    <glyph glyph-name="X" unicode="X" horiz-adv-x="375" 
d="M523 790l-160 -376l7 -414h-116l8 353l-138 -353h-118l177 414l-4 376h115v-303l119 303h110z" />
    <glyph glyph-name="X" unicode="&#x425;" horiz-adv-x="375" 
d="M523 790l-160 -376l7 -414h-116l8 353l-138 -353h-118l177 414l-4 376h115v-303l119 303h110z" />
    <glyph glyph-name="X" unicode="&#x3a7;" horiz-adv-x="375" 
d="M523 790l-160 -376l7 -414h-116l8 353l-138 -353h-118l177 414l-4 376h115v-303l119 303h110z" />
    <glyph glyph-name="Y" unicode="Y" horiz-adv-x="352" 
d="M517 790l-226 -511l-59 -279h-115l59 279l-6 511h112l-17 -357h4l134 357h114z" />
    <glyph glyph-name="Y" unicode="&#x4ae;" horiz-adv-x="352" 
d="M517 790l-226 -511l-59 -279h-115l59 279l-6 511h112l-17 -357h4l134 357h114z" />
    <glyph glyph-name="Y" unicode="&#x3a5;" horiz-adv-x="352" 
d="M517 790l-226 -511l-59 -279h-115l59 279l-6 511h112l-17 -357h4l134 357h114z" />
    <glyph glyph-name="Z" unicode="Z" horiz-adv-x="313" 
d="M295 0h-277l21 100l282 594h-140l20 96h259l-16 -78l-282 -613h154z" />
    <glyph glyph-name="Z" unicode="&#x396;" horiz-adv-x="313" 
d="M295 0h-277l21 100l282 594h-140l20 96h259l-16 -78l-282 -613h154z" />
    <glyph glyph-name="bracketleft" unicode="[" horiz-adv-x="256" 
d="M421 845h-87l-203 -956h87l-16 -74h-169l235 1104h169z" />
    <glyph glyph-name="backslash" unicode="\" horiz-adv-x="272" 
d="M271 864l-18 -936h-85l19 936h84z" />
    <glyph glyph-name="bracketright" unicode="]" horiz-adv-x="256" 
d="M210 919h169l-235 -1104h-168l16 74h86l203 956h-87z" />
    <glyph glyph-name="asciicircum" unicode="^" horiz-adv-x="452" 
d="M500 341h-88l-39 342l-183 -342h-92l248 449h96z" />
    <glyph glyph-name="underscore" unicode="_" horiz-adv-x="402" 
d="M369 -136h-398l19 90h398z" />
    <glyph glyph-name="grave" unicode="`" horiz-adv-x="201" 
d="M322 639h-74l-63 166h107z" />
    <glyph glyph-name="a" unicode="a" horiz-adv-x="353" 
d="M159 -10c-20 0 -36.8281 0.666016 -50.4951 1.99902s-24.834 4.16602 -33.501 8.49902s-15 10.333 -19 18s-6 17.834 -6 30.501c0 13.333 2.66699 32.333 8 57l31 145c7.33301 36 19.666 62.333 36.999 79s42.666 25 75.999 25h19c22.667 0 38.5 -0.833008 47.5 -2.5
s15.5 -3.83398 19.5 -6.50098l26 124c2.66699 10.667 4 20.334 4 29.001c0 9.33301 -3 15.5 -9 18.5s-15.667 4.5 -29 4.5c-17.333 0 -29.333 -3.66699 -36 -11s-12 -21 -16 -41l-12 -59h-93l15 71c6 28 12.667 50.333 20 67s16.833 29.5 28.5 38.5s26.5 14.833 44.5 17.5
s40.667 4 68 4c45.333 0 77.666 -3.83301 96.999 -11.5s29 -25.167 29 -52.5c0 -8 -0.833008 -17.167 -2.5 -27.5s-3.83398 -22.166 -6.50098 -35.499l-102 -482c-13.333 -3.33301 -32.5 -5.83301 -57.5 -7.5s-57.5 -2.5 -97.5 -2.5zM185.005 73.999
c14.667 0 25.332 0.167969 31.999 0.500977s11.334 0.833008 14.001 1.5l41 196c-6.66699 4 -20.667 6 -42 6c-10 0 -18 -0.833008 -24 -2.5s-10.833 -4.5 -14.5 -8.5s-6.66699 -9.5 -9 -16.5s-4.5 -15.5 -6.5 -25.5l-20 -94l-3.5 -19.5
c-1 -5.66699 -1.5 -10.834 -1.5 -15.501c0 -8.66699 2.33301 -14.5 7 -17.5s13.667 -4.5 27 -4.5z" />
    <glyph glyph-name="a" unicode="&#x430;" horiz-adv-x="353" 
d="M159 -10c-20 0 -36.8281 0.666016 -50.4951 1.99902s-24.834 4.16602 -33.501 8.49902s-15 10.333 -19 18s-6 17.834 -6 30.501c0 13.333 2.66699 32.333 8 57l31 145c7.33301 36 19.666 62.333 36.999 79s42.666 25 75.999 25h19c22.667 0 38.5 -0.833008 47.5 -2.5
s15.5 -3.83398 19.5 -6.50098l26 124c2.66699 10.667 4 20.334 4 29.001c0 9.33301 -3 15.5 -9 18.5s-15.667 4.5 -29 4.5c-17.333 0 -29.333 -3.66699 -36 -11s-12 -21 -16 -41l-12 -59h-93l15 71c6 28 12.667 50.333 20 67s16.833 29.5 28.5 38.5s26.5 14.833 44.5 17.5
s40.667 4 68 4c45.333 0 77.666 -3.83301 96.999 -11.5s29 -25.167 29 -52.5c0 -8 -0.833008 -17.167 -2.5 -27.5s-3.83398 -22.166 -6.50098 -35.499l-102 -482c-13.333 -3.33301 -32.5 -5.83301 -57.5 -7.5s-57.5 -2.5 -97.5 -2.5zM185.005 73.999
c14.667 0 25.332 0.167969 31.999 0.500977s11.334 0.833008 14.001 1.5l41 196c-6.66699 4 -20.667 6 -42 6c-10 0 -18 -0.833008 -24 -2.5s-10.833 -4.5 -14.5 -8.5s-6.66699 -9.5 -9 -16.5s-4.5 -15.5 -6.5 -25.5l-20 -94l-3.5 -19.5
c-1 -5.66699 -1.5 -10.834 -1.5 -15.501c0 -8.66699 2.33301 -14.5 7 -17.5s13.667 -4.5 27 -4.5z" />
    <glyph glyph-name="b" unicode="b" horiz-adv-x="366" 
d="M354 117c-5.33301 -24 -10.999 -43.8311 -16.999 -59.498s-13.5 -28.167 -22.5 -37.5s-20.333 -15.833 -34 -19.5s-30.5 -5.5 -50.5 -5.5c-24 0 -42.5 3.66699 -55.5 11s-21.833 19.666 -26.5 36.999l-9 -43h-95l167 790h102l-48 -228c10 13.333 22.667 23.666 38 30.999
s34.666 11 57.999 11c28.667 0 49 -4.66699 61 -14s18 -25.333 18 -48c0 -14.667 -2.66699 -34.667 -8 -60zM167.001 117.002c4.66699 -20.667 17.6641 -31 38.9971 -31c17.333 0 29.333 3.33301 36 10s12.334 20 17.001 40l70 326c2 10 3 18 3 24
c0 10 -2.66699 16.833 -8 20.5s-14.666 5.5 -27.999 5.5c-11.333 0 -21.166 -2.83301 -29.499 -8.5s-15.5 -13.167 -21.5 -22.5z" />
    <glyph glyph-name="c" unicode="c" horiz-adv-x="347" 
d="M301 377l19.998 93.999c2 8 3 15 3 21c0 8.66699 -2.66699 14.334 -8 17.001s-14.666 4 -27.999 4c-19.333 0 -32.166 -2.66699 -38.499 -8s-11.166 -16.666 -14.499 -33.999l-74 -344c-2 -9.33301 -3 -16.333 -3 -21c0 -9.33301 2.83301 -15.333 8.5 -18
s15.5 -4 29.5 -4c17.333 0 29.333 3.16699 36 9.5s11.667 17.5 15 33.5l33 155h93l-35 -165c-6 -28 -12.833 -50.5 -20.5 -67.5s-17.5 -29.833 -29.5 -38.5s-27 -14.334 -45 -17.001s-40.333 -4 -67 -4c-22.667 0 -41.834 0.833008 -57.501 2.5s-28.5 4.83398 -38.5 9.50098
s-17.167 11.167 -21.5 19.5s-6.5 19.166 -6.5 32.499c0 8.66699 0.5 18 1.5 28s3.16699 21.667 6.5 35l78 365c6 28 12.667 50.333 20 67s17.333 29.5 30 38.5s28.5 14.833 47.5 17.5s43.167 4 72.5 4c42.667 0 72.834 -4.16699 90.501 -12.5s26.5 -25.5 26.5 -51.5
c0 -8.66699 -0.833008 -18.5 -2.5 -29.5s-3.83398 -22.167 -6.50098 -33.5l-22 -105h-93z" />
    <glyph glyph-name="c" unicode="&#x441;" horiz-adv-x="347" 
d="M301 377l19.998 93.999c2 8 3 15 3 21c0 8.66699 -2.66699 14.334 -8 17.001s-14.666 4 -27.999 4c-19.333 0 -32.166 -2.66699 -38.499 -8s-11.166 -16.666 -14.499 -33.999l-74 -344c-2 -9.33301 -3 -16.333 -3 -21c0 -9.33301 2.83301 -15.333 8.5 -18
s15.5 -4 29.5 -4c17.333 0 29.333 3.16699 36 9.5s11.667 17.5 15 33.5l33 155h93l-35 -165c-6 -28 -12.833 -50.5 -20.5 -67.5s-17.5 -29.833 -29.5 -38.5s-27 -14.334 -45 -17.001s-40.333 -4 -67 -4c-22.667 0 -41.834 0.833008 -57.501 2.5s-28.5 4.83398 -38.5 9.50098
s-17.167 11.167 -21.5 19.5s-6.5 19.166 -6.5 32.499c0 8.66699 0.5 18 1.5 28s3.16699 21.667 6.5 35l78 365c6 28 12.667 50.333 20 67s17.333 29.5 30 38.5s28.5 14.833 47.5 17.5s43.167 4 72.5 4c42.667 0 72.834 -4.16699 90.501 -12.5s26.5 -25.5 26.5 -51.5
c0 -8.66699 -0.833008 -18.5 -2.5 -29.5s-3.83398 -22.167 -6.50098 -33.5l-22 -105h-93z" />
    <glyph glyph-name="d" unicode="d" horiz-adv-x="366" 
d="M138 482c4.66699 23.333 10.165 42.8311 16.498 58.498s14 28.167 23 37.5s20.167 16 33.5 20s30 6 50 6c22.667 0 39.834 -3.66699 51.501 -11s20.167 -17.666 25.5 -30.999l48 228h103l-167 -790h-95l9 43c-13.333 -17.333 -28 -29.666 -44 -36.999s-36 -11 -60 -11
c-29.333 0 -50.166 4.16699 -62.499 12.5s-18.5 23.833 -18.5 46.5c0 16 3 37 9 63zM323.998 480.998c-4.66699 20.667 -17.666 31 -38.999 31c-17.333 0 -29.333 -3.33301 -36 -10s-12 -20 -16 -40l-70 -326c-2 -10 -3 -18.333 -3 -25c0 -10 2.5 -16.667 7.5 -20
s14.167 -5 27.5 -5c11.333 0 21.166 2.83301 29.499 8.5s15.5 13.167 21.5 22.5z" />
    <glyph glyph-name="e" unicode="e" horiz-adv-x="349" 
d="M192 264l-29.9971 -140.998c-1.33301 -5.33301 -2.33301 -10 -3 -14s-1 -7.66699 -1 -11c0 -8.66699 2.83301 -14.334 8.5 -17.001s15.167 -4 28.5 -4c18 0 30.333 2.83301 37 8.5s12 18.167 16 37.5l17 81h92l-19 -87c-6 -28 -12.667 -50.333 -20 -67
s-16.833 -29.5 -28.5 -38.5s-26.5 -14.833 -44.5 -17.5s-41 -4 -69 -4c-45.333 0 -77.333 3.83301 -96 11.5s-28 25.167 -28 52.5c0 8.66699 0.5 18 1.5 28s3.16699 21.667 6.5 35l78 365c6 28 12.667 50.333 20 67s17.166 29.5 29.499 38.5s28.166 14.833 47.499 17.5
s43.666 4 72.999 4c42 0 72 -3.66699 90 -11s27 -24.333 27 -51c0 -16.667 -3 -38.334 -9 -65.001l-46 -218h-178zM209.003 346.002l85.999 -0.00195312l27 128c2 10 3 18 3 24c0 8.66699 -2.66699 14.334 -8 17.001s-14.666 4 -27.999 4
c-18.667 0 -31.167 -2.66699 -37.5 -8s-11.5 -17.666 -15.5 -36.999z" />
    <glyph glyph-name="e" unicode="&#x435;" horiz-adv-x="349" 
d="M192 264l-29.9971 -140.998c-1.33301 -5.33301 -2.33301 -10 -3 -14s-1 -7.66699 -1 -11c0 -8.66699 2.83301 -14.334 8.5 -17.001s15.167 -4 28.5 -4c18 0 30.333 2.83301 37 8.5s12 18.167 16 37.5l17 81h92l-19 -87c-6 -28 -12.667 -50.333 -20 -67
s-16.833 -29.5 -28.5 -38.5s-26.5 -14.833 -44.5 -17.5s-41 -4 -69 -4c-45.333 0 -77.333 3.83301 -96 11.5s-28 25.167 -28 52.5c0 8.66699 0.5 18 1.5 28s3.16699 21.667 6.5 35l78 365c6 28 12.667 50.333 20 67s17.166 29.5 29.499 38.5s28.166 14.833 47.499 17.5
s43.666 4 72.999 4c42 0 72 -3.66699 90 -11s27 -24.333 27 -51c0 -16.667 -3 -38.334 -9 -65.001l-46 -218h-178zM209.003 346.002l85.999 -0.00195312l27 128c2 10 3 18 3 24c0 8.66699 -2.66699 14.334 -8 17.001s-14.666 4 -27.999 4
c-18.667 0 -31.167 -2.66699 -37.5 -8s-11.5 -17.666 -15.5 -36.999z" />
    <glyph glyph-name="f" unicode="f" horiz-adv-x="241" 
d="M337 516h-76l-109 -516h-102l109 516h-37l18 83h37l13 64c9.33301 44 27.333 76.167 54 96.5s66 30.5 118 30.5h32l-16 -76h-25c-33.333 0 -54 -18.667 -62 -56l-12 -59h76z" />
    <glyph glyph-name="g" unicode="g" horiz-adv-x="366" 
d="M144 -67c23.333 0 39.834 3.83203 49.501 11.499s17.167 22.834 22.5 45.501l17 77c-10.667 -13.333 -23.5 -23.5 -38.5 -30.5s-33.833 -10.5 -56.5 -10.5c-30 0 -50.833 4.5 -62.5 13.5s-17.5 24.167 -17.5 45.5c0 8.66699 0.833008 18.167 2.5 28.5
s3.83398 21.833 6.50098 34.5l71 334c4.66699 23.333 10.167 42.833 16.5 58.5s14 28.167 23 37.5s20.333 16 34 20s30.5 6 50.5 6c24 0 42.333 -3.83301 55 -11.5s21.667 -20.167 27 -37.5l10 44h95l-130 -609c-10.667 -48.667 -28.834 -84.667 -54.501 -108
s-63.834 -35 -114.501 -35h-131l18 86h107zM324.001 480.999c-4.66699 20.667 -17.667 30.999 -39 30.999c-17.333 0 -29.333 -3.33301 -36 -10s-12 -20 -16 -40l-63 -295c-2.66699 -10 -4 -18.667 -4 -26c0 -9.33301 2.66699 -15.666 8 -18.999s14.333 -5 27 -5
c11.333 0 21.333 2.83301 30 8.5s16 13.167 22 22.5z" />
    <glyph glyph-name="h" unicode="h" horiz-adv-x="375" 
d="M146 0l-102 0.000976562l167 790h102l-48 -229c20.667 28.667 53 43 97 43c30.667 0 52.667 -4.66699 66 -14s20 -26.333 20 -51c0 -17.333 -2.33301 -36.333 -7 -57l-102 -482h-102l100 471c0.666992 3.33301 1.16699 6.16602 1.5 8.49902s0.5 4.83301 0.5 7.5
c0 16.667 -12.667 25 -38 25c-13.333 0 -24 -2.83301 -32 -8.5s-15 -13.167 -21 -22.5z" />
    <glyph glyph-name="h" unicode="&#x4bb;" horiz-adv-x="375" 
d="M146 0l-102 0.000976562l167 790h102l-48 -229c20.667 28.667 53 43 97 43c30.667 0 52.667 -4.66699 66 -14s20 -26.333 20 -51c0 -17.333 -2.33301 -36.333 -7 -57l-102 -482h-102l100 471c0.666992 3.33301 1.16699 6.16602 1.5 8.49902s0.5 4.83301 0.5 7.5
c0 16.667 -12.667 25 -38 25c-13.333 0 -24 -2.83301 -32 -8.5s-15 -13.167 -21 -22.5z" />
    <glyph glyph-name="i" unicode="i" horiz-adv-x="192" 
d="M292 686h-101l22 104h101zM147 0h-101l127 599h101z" />
    <glyph glyph-name="i" unicode="&#x456;" horiz-adv-x="192" 
d="M292 686h-101l22 104h101zM147 0h-101l127 599h101z" />
    <glyph glyph-name="j" unicode="j" horiz-adv-x="192" 
d="M175 599l102 0.000976562l-130 -609c-10.667 -48 -29.167 -83.833 -55.5 -107.5s-64.833 -35.5 -115.5 -35.5h-56l18 86h48c16.667 0 29.5 4.16699 38.5 12.5s15.833 23.166 20.5 44.499zM295 686.001h-102l22 104h102z" />
    <glyph glyph-name="j" unicode="&#x458;" horiz-adv-x="192" 
d="M175 599l102 0.000976562l-130 -609c-10.667 -48 -29.167 -83.833 -55.5 -107.5s-64.833 -35.5 -115.5 -35.5h-56l18 86h48c16.667 0 29.5 4.16699 38.5 12.5s15.833 23.166 20.5 44.499zM295 686.001h-102l22 104h102z" />
    <glyph glyph-name="k" unicode="k" horiz-adv-x="364" 
d="M246 0l-32 308h-4l-65 -308h-101l167 790h101l-87 -412h4l128 221h114l-160 -256l46 -343h-111z" />
    <glyph glyph-name="l" unicode="l" horiz-adv-x="188" 
d="M146 0h-102l167 790h102z" />
    <glyph glyph-name="m" unicode="m" horiz-adv-x="572" 
d="M146 0l-102.001 -0.000976562l127 599h95l-9 -40c10.667 14.667 24.334 25.834 41.001 33.501s37.667 11.5 63 11.5c26.667 0 46.667 -3.66699 60 -11s21.666 -20 24.999 -38c12 16 26.5 28.167 43.5 36.5s38.167 12.5 63.5 12.5c30.667 0 52.834 -4.66699 66.501 -14
s20.5 -26.333 20.5 -51c0 -17.333 -2.33301 -36.333 -7 -57l-102 -482h-102l100 471c0.666992 3.33301 1.16699 6.33301 1.5 9s0.5 5 0.5 7c0 9.33301 -2.83301 15.833 -8.5 19.5s-15.5 5.5 -29.5 5.5c-12.667 0 -23 -2.66699 -31 -8s-15 -12.666 -21 -21.999l-102 -482
h-102l100 471c0.666992 3.33301 1.16699 6.16602 1.5 8.49902s0.5 4.83301 0.5 7.5c0 16.667 -12.667 25 -38 25c-13.333 0 -24 -2.83301 -32 -8.5s-15 -13.167 -21 -22.5z" />
    <glyph glyph-name="n" unicode="n" horiz-adv-x="378" 
d="M146 0h-102.002l127 599h95l-9 -40c10.667 14.667 24.334 25.834 41.001 33.501s37.667 11.5 63 11.5c30.667 0 52.834 -4.66699 66.501 -14s20.5 -26.333 20.5 -51c0 -17.333 -2.33301 -36.333 -7 -57l-102 -482h-102l100 471
c0.666992 3.33301 1.16699 6.16602 1.5 8.49902s0.5 4.83301 0.5 7.5c0 16.667 -12.667 25 -38 25c-13.333 0 -24 -2.83301 -32 -8.5s-15 -13.167 -21 -22.5z" />
    <glyph glyph-name="o" unicode="o" horiz-adv-x="358" 
d="M346 117c-6 -28 -12.6641 -50.333 -19.9971 -67s-17.333 -29.5 -30 -38.5s-28.5 -14.833 -47.5 -17.5s-43.167 -4 -72.5 -4c-45.333 0 -77.333 3.83301 -96 11.5s-28 25.167 -28 52.5c0 8.66699 0.5 18 1.5 28s3.16699 21.667 6.5 35l78 365c6 28 12.667 50.333 20 67
s17.166 29.5 29.499 38.5s28.166 14.833 47.499 17.5s43.666 4 72.999 4c44.667 0 76.5 -3.83301 95.5 -11.5s28.5 -25.167 28.5 -52.5c0 -8.66699 -0.666992 -18 -2 -28s-3.33301 -21.667 -6 -35zM323.003 471c2 8 3.00293 15 3.00293 21
c0 8.66699 -2.83301 14.334 -8.5 17.001s-15.5 4 -29.5 4c-18.667 0 -31.334 -2.83301 -38.001 -8.5s-11.667 -16.834 -15 -33.501l-74 -344c-2 -9.33301 -3 -16.333 -3 -21c0 -9.33301 2.83301 -15.333 8.5 -18s15.5 -4 29.5 -4c19.333 0 32.166 3.16699 38.499 9.5
s11.166 17.5 14.499 33.5z" />
    <glyph glyph-name="o" unicode="&#x43e;" horiz-adv-x="358" 
d="M346 117c-6 -28 -12.6641 -50.333 -19.9971 -67s-17.333 -29.5 -30 -38.5s-28.5 -14.833 -47.5 -17.5s-43.167 -4 -72.5 -4c-45.333 0 -77.333 3.83301 -96 11.5s-28 25.167 -28 52.5c0 8.66699 0.5 18 1.5 28s3.16699 21.667 6.5 35l78 365c6 28 12.667 50.333 20 67
s17.166 29.5 29.499 38.5s28.166 14.833 47.499 17.5s43.666 4 72.999 4c44.667 0 76.5 -3.83301 95.5 -11.5s28.5 -25.167 28.5 -52.5c0 -8.66699 -0.666992 -18 -2 -28s-3.33301 -21.667 -6 -35zM323.003 471c2 8 3.00293 15 3.00293 21
c0 8.66699 -2.83301 14.334 -8.5 17.001s-15.5 4 -29.5 4c-18.667 0 -31.334 -2.83301 -38.001 -8.5s-11.667 -16.834 -15 -33.501l-74 -344c-2 -9.33301 -3 -16.333 -3 -21c0 -9.33301 2.83301 -15.333 8.5 -18s15.5 -4 29.5 -4c19.333 0 32.166 3.16699 38.499 9.5
s11.166 17.5 14.499 33.5z" />
    <glyph glyph-name="o" unicode="&#x3bf;" horiz-adv-x="358" 
d="M346 117c-6 -28 -12.6641 -50.333 -19.9971 -67s-17.333 -29.5 -30 -38.5s-28.5 -14.833 -47.5 -17.5s-43.167 -4 -72.5 -4c-45.333 0 -77.333 3.83301 -96 11.5s-28 25.167 -28 52.5c0 8.66699 0.5 18 1.5 28s3.16699 21.667 6.5 35l78 365c6 28 12.667 50.333 20 67
s17.166 29.5 29.499 38.5s28.166 14.833 47.499 17.5s43.666 4 72.999 4c44.667 0 76.5 -3.83301 95.5 -11.5s28.5 -25.167 28.5 -52.5c0 -8.66699 -0.666992 -18 -2 -28s-3.33301 -21.667 -6 -35zM323.003 471c2 8 3.00293 15 3.00293 21
c0 8.66699 -2.83301 14.334 -8.5 17.001s-15.5 4 -29.5 4c-18.667 0 -31.334 -2.83301 -38.001 -8.5s-11.667 -16.834 -15 -33.501l-74 -344c-2 -9.33301 -3 -16.333 -3 -21c0 -9.33301 2.83301 -15.333 8.5 -18s15.5 -4 29.5 -4c19.333 0 32.166 3.16699 38.499 9.5
s11.166 17.5 14.499 33.5z" />
    <glyph glyph-name="p" unicode="p" horiz-adv-x="366" 
d="M354 117c-5.33301 -24 -11 -43.833 -17 -59.5s-13.5 -28.167 -22.5 -37.5s-20.167 -15.833 -33.5 -19.5s-30 -5.5 -50 -5.5c-23.333 0 -40.833 3.5 -52.5 10.5s-20.167 17.167 -25.5 30.5l-40 -189h-102l160 752h95l-10 -44c12.667 17.333 27.167 29.833 43.5 37.5
s36.5 11.5 60.5 11.5c29.333 0 50 -4.33301 62 -13s18 -24 18 -46c0 -15.333 -2.66699 -36.333 -8 -63zM167 117c4.66699 -20.667 17.6641 -31 38.9971 -31c17.333 0 29.333 3.33301 36 10s12.334 20 17.001 40l70 326c2 10 3 18 3 24c0 10 -2.66699 16.833 -8 20.5
s-14.666 5.5 -27.999 5.5c-11.333 0 -21.166 -2.83301 -29.499 -8.5s-15.5 -13.167 -21.5 -22.5z" />
    <glyph glyph-name="p" unicode="&#x440;" horiz-adv-x="366" 
d="M354 117c-5.33301 -24 -11 -43.833 -17 -59.5s-13.5 -28.167 -22.5 -37.5s-20.167 -15.833 -33.5 -19.5s-30 -5.5 -50 -5.5c-23.333 0 -40.833 3.5 -52.5 10.5s-20.167 17.167 -25.5 30.5l-40 -189h-102l160 752h95l-10 -44c12.667 17.333 27.167 29.833 43.5 37.5
s36.5 11.5 60.5 11.5c29.333 0 50 -4.33301 62 -13s18 -24 18 -46c0 -15.333 -2.66699 -36.333 -8 -63zM167 117c4.66699 -20.667 17.6641 -31 38.9971 -31c17.333 0 29.333 3.33301 36 10s12.334 20 17.001 40l70 326c2 10 3 18 3 24c0 10 -2.66699 16.833 -8 20.5
s-14.666 5.5 -27.999 5.5c-11.333 0 -21.166 -2.83301 -29.499 -8.5s-15.5 -13.167 -21.5 -22.5z" />
    <glyph glyph-name="q" unicode="q" horiz-adv-x="366" 
d="M138 482c4.66699 23.333 10.167 42.833 16.5 58.5s14 28.167 23 37.5s20.333 16 34 20s30.5 6 50.5 6c24 0 42.333 -3.83301 55 -11.5s21.667 -20.167 27 -37.5l10 44h95l-160 -752h-103l40 189c-10 -13.333 -22.667 -23.5 -38 -30.5s-34.333 -10.5 -57 -10.5
c-29.333 0 -49.833 4.5 -61.5 13.5s-17.5 24.5 -17.5 46.5c0 8.66699 0.666992 18 2 28s3.33301 21.333 6 34zM324 481c-4.66699 20.667 -17.666 31 -38.999 31c-17.333 0 -29.333 -3.33301 -36 -10s-12 -20 -16 -40l-70 -326c-2 -10 -3 -18.333 -3 -25
c0 -10 2.5 -16.667 7.5 -20s14.167 -5 27.5 -5c11.333 0 21.166 2.83301 29.499 8.5s15.5 13.167 21.5 22.5z" />
    <glyph glyph-name="r" unicode="r" horiz-adv-x="337" 
d="M146 0l-102 0.00195312l127 599h95l-9 -40c10 13.333 23.5 24.166 40.5 32.499s37.833 12.5 62.5 12.5c26 0 45 -4.5 57 -13.5s18 -25.167 18 -48.5c0 -14.667 -2.66699 -34.667 -8 -60l-32 -149h-92l29 137c1.33301 3.33301 2 6.66602 2 9.99902v9
c0 8.66699 -2.5 14.667 -7.5 18s-14.167 5 -27.5 5c-22 0 -39.333 -11 -52 -33z" />
    <glyph glyph-name="s" unicode="s" horiz-adv-x="354" 
d="M311 426l10.001 45.002c2 8.66699 3 16 3 22c0 8 -2.83301 13.5 -8.5 16.5s-15.167 4.5 -28.5 4.5c-20 0 -32.833 -2.83301 -38.5 -8.5s-10.5 -17.167 -14.5 -34.5l-11 -48c-2 -8 -3 -14.667 -3 -20c0 -8.66699 2.83301 -15.834 8.5 -21.501s16.5 -12.167 32.5 -19.5
c22 -10 40.167 -19 54.5 -27s25.666 -15.667 33.999 -23s14.333 -14.833 18 -22.5s5.5 -16.167 5.5 -25.5c0 -8.66699 -1.66699 -20.334 -5 -35.001l-23 -111c-6 -28 -12.667 -50.5 -20 -67.5s-17.166 -30 -29.499 -39s-28.166 -14.833 -47.499 -17.5s-43.666 -4 -72.999 -4
c-45.333 0 -77.5 3.83301 -96.5 11.5s-28.5 25.167 -28.5 52.5c0 16.667 3 38 9 64l19 92h100l-17 -81c-2 -9.33301 -3 -16.666 -3 -21.999c0 -9.33301 2.83301 -15.333 8.5 -18s15.5 -4 29.5 -4c18.667 0 31.167 3 37.5 9s11.166 17.667 14.499 35l15 73c2 8 3 15 3 21
c0 9.33301 -3.66699 17 -11 23s-20.666 13.333 -39.999 22c-18.667 8 -34.334 15.333 -47.001 22s-23 13.5 -31 20.5s-13.833 14.667 -17.5 23s-5.5 18.166 -5.5 29.499c0 12 2 27 6 45l16 73c6 28 12.667 50.5 20 67.5s17.166 30 29.499 39s28.166 14.833 47.499 17.5
s44 4 74 4c44.667 0 76.5 -3.83301 95.5 -11.5s28.5 -25.167 28.5 -52.5c0 -16.667 -3 -38 -9 -64l-12 -55h-99z" />
    <glyph glyph-name="s" unicode="&#x455;" horiz-adv-x="354" 
d="M311 426l10.001 45.002c2 8.66699 3 16 3 22c0 8 -2.83301 13.5 -8.5 16.5s-15.167 4.5 -28.5 4.5c-20 0 -32.833 -2.83301 -38.5 -8.5s-10.5 -17.167 -14.5 -34.5l-11 -48c-2 -8 -3 -14.667 -3 -20c0 -8.66699 2.83301 -15.834 8.5 -21.501s16.5 -12.167 32.5 -19.5
c22 -10 40.167 -19 54.5 -27s25.666 -15.667 33.999 -23s14.333 -14.833 18 -22.5s5.5 -16.167 5.5 -25.5c0 -8.66699 -1.66699 -20.334 -5 -35.001l-23 -111c-6 -28 -12.667 -50.5 -20 -67.5s-17.166 -30 -29.499 -39s-28.166 -14.833 -47.499 -17.5s-43.666 -4 -72.999 -4
c-45.333 0 -77.5 3.83301 -96.5 11.5s-28.5 25.167 -28.5 52.5c0 16.667 3 38 9 64l19 92h100l-17 -81c-2 -9.33301 -3 -16.666 -3 -21.999c0 -9.33301 2.83301 -15.333 8.5 -18s15.5 -4 29.5 -4c18.667 0 31.167 3 37.5 9s11.166 17.667 14.499 35l15 73c2 8 3 15 3 21
c0 9.33301 -3.66699 17 -11 23s-20.666 13.333 -39.999 22c-18.667 8 -34.334 15.333 -47.001 22s-23 13.5 -31 20.5s-13.833 14.667 -17.5 23s-5.5 18.166 -5.5 29.499c0 12 2 27 6 45l16 73c6 28 12.667 50.5 20 67.5s17.166 30 29.499 39s28.166 14.833 47.499 17.5
s44 4 74 4c44.667 0 76.5 -3.83301 95.5 -11.5s28.5 -25.167 28.5 -52.5c0 -16.667 -3 -38 -9 -64l-12 -55h-99z" />
    <glyph glyph-name="t" unicode="t" horiz-adv-x="240" 
d="M327 516h-69.999l-80 -376c-2 -10 -3 -18 -3 -24c0 -11.333 3.16699 -19 9.5 -23s17.166 -6 32.499 -6h19l-18 -87h-26c-45.333 0 -77.333 6.66699 -96 20s-28 34.333 -28 63c0 6.66699 0.333008 13.667 1 21s2 15 4 23l83 389h-37l18 83h37l39 182h102l-39 -182h70z" />
    <glyph glyph-name="u" unicode="u" horiz-adv-x="376" 
d="M357 599l103.002 0.00195312l-127 -599h-96l8 39c-10.667 -14.667 -24.167 -25.667 -40.5 -33s-36.833 -11 -61.5 -11c-30.667 0 -52.834 4.5 -66.501 13.5s-20.5 25.833 -20.5 50.5c0 8 0.666992 16.833 2 26.5s3.33301 20.167 6 31.5l103 482h102l-101 -472
c-0.666992 -3.33301 -1.16699 -6.33301 -1.5 -9s-0.5 -5.33398 -0.5 -8.00098c0 -8.66699 2.66699 -14.834 8 -18.501s14.666 -5.5 27.999 -5.5s23.833 2.83301 31.5 8.5s14.5 13.167 20.5 22.5z" />
    <glyph glyph-name="v" unicode="v" horiz-adv-x="324" 
d="M78 0l55 599h105l-50 -455h4l146 455h108l-208 -599h-160z" />
    <glyph glyph-name="v" unicode="&#x3bd;" horiz-adv-x="324" 
d="M78 0l55 599h105l-50 -455h4l146 455h108l-208 -599h-160z" />
    <glyph glyph-name="w" unicode="w" horiz-adv-x="532" 
d="M239 599l-65 -448h4l147 448h133l-50 -448h4l133 448h111l-210 -599h-138l57 455h-4l-148 -455h-139l58 599h107z" />
    <glyph glyph-name="x" unicode="x" horiz-adv-x="337" 
d="M446 599l-132 -285l17 -314h-106v266l-113 -266h-106l150 316l-18 283h104l6 -229l100 229h98z" />
    <glyph glyph-name="x" unicode="&#x445;" horiz-adv-x="337" 
d="M446 599l-132 -285l17 -314h-106v266l-113 -266h-106l150 316l-18 283h104l6 -229l100 229h98z" />
    <glyph glyph-name="y" unicode="y" horiz-adv-x="378" 
d="M360 599h102.003l-130 -609c-10.667 -48.667 -29 -84.667 -55 -108s-64.333 -35 -115 -35h-134l18 86h109c23.333 0 40 3.83301 50 11.5s17.667 22.834 23 45.501l17 77c-10.667 -13.333 -23.834 -23.5 -39.501 -30.5s-34.834 -10.5 -57.501 -10.5
c-30 0 -51.667 4.5 -65 13.5s-20 25.833 -20 50.5c0 14 2.66699 33.333 8 58l96 451h102l-92 -432c-2 -9.33301 -3 -17 -3 -23c0 -10.667 3 -17.834 9 -21.501s15.667 -5.5 29 -5.5c11.333 0 21.166 2.83301 29.499 8.5s15.833 13.167 22.5 22.5z" />
    <glyph glyph-name="y" unicode="&#x443;" horiz-adv-x="378" 
d="M360 599h102.003l-130 -609c-10.667 -48.667 -29 -84.667 -55 -108s-64.333 -35 -115 -35h-134l18 86h109c23.333 0 40 3.83301 50 11.5s17.667 22.834 23 45.501l17 77c-10.667 -13.333 -23.834 -23.5 -39.501 -30.5s-34.834 -10.5 -57.501 -10.5
c-30 0 -51.667 4.5 -65 13.5s-20 25.833 -20 50.5c0 14 2.66699 33.333 8 58l96 451h102l-92 -432c-2 -9.33301 -3 -17 -3 -23c0 -10.667 3 -17.834 9 -21.501s15.667 -5.5 29 -5.5c11.333 0 21.166 2.83301 29.499 8.5s15.833 13.167 22.5 22.5z" />
    <glyph glyph-name="z" unicode="z" horiz-adv-x="299" 
d="M284 0h-269l18 87l253 429h-144l18 83h248l-17 -77l-249 -436h160z" />
    <glyph glyph-name="braceleft" unicode="{" horiz-adv-x="265" 
d="M270 452c-5.33301 -24.667 -13.1738 -44.668 -23.5068 -60.001s-22.166 -26.666 -35.499 -33.999c15.333 -12 23 -31.667 23 -59c0 -5.33301 -0.333008 -10.833 -1 -16.5s-1.66699 -11.834 -3 -18.501l-65 -303c-2 -10 -3.66699 -19 -5 -27s-2 -15 -2 -21
c0 -16.667 4.33301 -28.167 13 -34.5s22.667 -9.5 42 -9.5h11l-16 -72h-11c-45.333 0 -77.166 6.5 -95.499 19.5s-27.5 35.5 -27.5 67.5c0 22.667 3.33301 48.334 10 77.001l66 308c0.666992 3.33301 1.16699 6.33301 1.5 9s0.5 5.66699 0.5 9c0 24.667 -14 37 -42 37h-15
l15 68h15c34 0 55 18.333 63 55l65 307c6.66699 30.667 14.334 56.5 23.001 77.5s19.834 38 33.501 51s30.667 22.333 51 28s45.5 8.5 75.5 8.5h11l-16 -73h-11c-13.333 0 -24.666 -1.5 -33.999 -4.5s-17.166 -8 -23.499 -15s-11.666 -16.333 -15.999 -28
s-8.5 -26.5 -12.5 -44.5l-64 -302v0z" />
    <glyph glyph-name="bar" unicode="|" horiz-adv-x="226" 
d="M114 -185h-82l235 1104h82z" />
    <glyph glyph-name="braceright" unicode="}" horiz-adv-x="265" 
d="M253 754c4 20 6.00098 36.001 6.00098 48.001c0 16.667 -4.16699 28.167 -12.5 34.5s-22.166 9.5 -41.499 9.5h-11l16 73h11c44.667 0 76.334 -6.83301 95.001 -20.5s28 -36.5 28 -68.5c0 -10.667 -0.833008 -22.167 -2.5 -34.5s-4.16699 -26.166 -7.5 -41.499l-65 -307
c-2 -7.33301 -3 -13.666 -3 -18.999c0 -24 14 -36 42 -36h15l-15 -68h-15c-18 0 -31.833 -4.66699 -41.5 -14s-16.5 -23 -20.5 -41l-66 -308c-6.66699 -30.667 -14.334 -56.334 -23.001 -77.001s-19.834 -37.5 -33.501 -50.5s-30.667 -22.333 -51 -28
s-45.166 -8.5 -74.499 -8.5h-11l16 72h11c13.333 0 24.5 1.5 33.5 4.5s16.667 8 23 15s11.666 16.333 15.999 28s8.5 26.5 12.5 44.5l65 303c5.33301 24 13.166 43.833 23.499 59.5s22.166 27.167 35.499 34.5c-7.33301 5.33301 -13.166 12.666 -17.499 21.999
s-6.5 21 -6.5 35c0 9.33301 1.66699 21.666 5 36.999z" />
    <glyph glyph-name="asciitilde" unicode="~" horiz-adv-x="509" 
d="M129 403c9.33301 18 24.667 32.833 46 44.5s45.333 17.5 72 17.5c16.667 0 33 -3 49 -9s31.5 -12.833 46.5 -20.5s30 -14.5 45 -20.5s30.5 -9 46.5 -9c28.667 0 52.167 6.33301 70.5 19s34.166 29.667 47.499 51l-19 -86c-8 -17.333 -23.167 -31.833 -45.5 -43.5
s-46.5 -17.5 -72.5 -17.5c-18 0 -35.167 3 -51.5 9s-32 12.667 -47 20s-29.667 14 -44 20s-28.833 9 -43.5 9c-29.333 0 -52.666 -6.5 -69.999 -19.5s-33.333 -29.5 -48 -49.5z" />
    <glyph glyph-name="nonbreakingspace" unicode="&#xa0;" horiz-adv-x="169" 
 />
    <glyph glyph-name="exclamdown" unicode="&#xa1;" horiz-adv-x="178" 
d="M28.0195 0.0478516l145.991 600.964h78.9951l-106.994 -600.964h-117.992zM201.009 790h104.993l-27.998 -131.992h-104.993z" />
    <glyph glyph-name="cent" unicode="&#xa2;" horiz-adv-x="354" 
d="M393 810l-21.001 -96.998c27.333 -2 47 -7.16699 59 -15.5s18 -23.5 18 -45.5c0 -8.66699 -0.833008 -18.167 -2.5 -28.5s-3.83398 -22.166 -6.50098 -35.499l-25 -121h-93l23 110c2 8.66699 3 16.334 3 23.001c0 8 -2.66699 13.333 -8 16s-14.666 4 -27.999 4
c-19.333 0 -32.166 -2.66699 -38.499 -8s-11.166 -17 -14.499 -35l-77 -365c-2 -9.33301 -3 -16.333 -3 -21c0 -8.66699 2.83301 -14.334 8.5 -17.001s15.5 -4 29.5 -4c17.333 0 29.333 2.66699 36 8s11.667 16.666 15 33.999l34 160h93l-37 -170
c-5.33301 -24.667 -11 -44.834 -17 -60.501s-13.5 -28.167 -22.5 -37.5s-20 -16.166 -33 -20.499s-29.167 -6.83301 -48.5 -7.5l-21 -96h-89l21 96c-28 2 -47.833 7.5 -59.5 16.5s-17.5 24.167 -17.5 45.5c0 16.667 3 38 9 64l82 386c4.66699 23.333 10 42.833 16 58.5
s13.5 28.167 22.5 37.5s20.167 16.166 33.5 20.499s29.666 7.16602 48.999 8.49902l21 97h89z" />
    <glyph glyph-name="sterling" unicode="&#xa3;" horiz-adv-x="398" 
d="M21 0l20.001 95.998h34l40 190h-34l18 83h34l56 265c8 36.667 16.333 65.834 25 87.501s20.167 38.334 34.5 50.001s32.333 19.334 54 23.001s49.167 5.5 82.5 5.5c23.333 0 43.333 -1 60 -3s30.167 -5.66699 40.5 -11s18 -13 23 -23s7.5 -23.333 7.5 -40
c0 -22.667 -4 -52.334 -12 -89.001l-41 -196h-105l41 196c1.33301 8 2.66602 15.167 3.99902 21.5s2 11.833 2 16.5c0 10.667 -3 17.667 -9 21s-16 5 -30 5c-10 0 -18.5 -0.833008 -25.5 -2.5s-12.667 -4.83398 -17 -9.50098s-8 -11.167 -11 -19.5
s-5.83301 -19.166 -8.5 -32.499l-56 -265h178l-18 -83h-178l-40 -190h202l-20 -96h-351z" />
    <glyph glyph-name="currency" unicode="&#xa4;" horiz-adv-x="515" 
d="M401 255c-10.667 -4.66699 -23.167 -7.66699 -37.5 -9s-31.833 -2 -52.5 -2c-21.333 0 -38.833 0.666992 -52.5 2s-24.834 4.66602 -33.501 9.99902l-115 -95l-40 51l103 85c-0.666992 2 -1 5.33301 -1 10c0 12.667 2.66699 30.334 8 53.001l15 69
c2.66699 12.667 5.5 24.5 8.5 35.5s6.5 20.5 10.5 28.5l-66 84l62 51l74 -95c11.333 4.66699 24 7.83398 38 9.50098s31.667 2.5 53 2.5c20.667 0 37.834 -0.833008 51.501 -2.5s24.5 -4.83398 32.5 -9.50098l115 95l40 -51l-100 -82c0 -7.33301 -0.333008 -16.833 -1 -28.5
s-2.66699 -24.167 -6 -37.5l-15 -69c-3.33301 -14 -6.5 -26.333 -9.5 -37s-6.83301 -20 -11.5 -28l66 -83l-62 -51zM248 360c-2 -10 -3 -18.001 -3 -24.001c0 -12 5.33301 -20.167 16 -24.5s31.667 -6.5 63 -6.5c19.333 0 35 0.833008 47 2.5s21.5 4.5 28.5 8.5
s12.167 9.5 15.5 16.5s6.33301 16.167 9 27.5l15 70c2 8.66699 3 16.334 3 23.001c0 12 -5.33301 20.333 -16 25s-31.667 7 -63 7c-20 0 -36 -0.833008 -48 -2.5s-21.5 -4.66699 -28.5 -9s-12.167 -10 -15.5 -17s-6 -15.833 -8 -26.5z" />
    <glyph glyph-name="yen" unicode="&#xa5;" horiz-adv-x="394" 
d="M107 352h99l-15 438h110l-10 -327h4l128 327h115l-199 -438h88l-15 -70h-94l-17 -83h94l-15 -71h-94l-27 -128h-121l27 128h-105l15 71h105l17 83h-105z" />
    <glyph glyph-name="brokenbar" unicode="&#xa6;" horiz-adv-x="226" 
d="M32 -185l95 444h82l-95 -444h-82zM260 501h-82l89 418h82z" />
    <glyph glyph-name="section" unicode="&#xa7;" horiz-adv-x="354" 
d="M353 624l9 40.0029c2 8.66699 3 15.667 3 21c0 8.66699 -2.83301 14.5 -8.5 17.5s-15.5 4.5 -29.5 4.5c-19.333 0 -32.166 -3 -38.499 -9s-11.166 -17.333 -14.499 -34l-8 -38c-2 -9.33301 -3 -16.666 -3 -21.999c0 -8.66699 2.83301 -16.334 8.5 -23.001
s16.834 -14 33.501 -22c20.667 -10 37.834 -19.167 51.501 -27.5s24.667 -16.666 33 -24.999s14.166 -17 17.499 -26s5 -18.833 5 -29.5c0 -12.667 -2 -28 -6 -46l-16 -75c-6 -27.333 -13.167 -48 -21.5 -62s-19.166 -25 -32.499 -33c7.33301 -6 12.333 -12.833 15 -20.5
s4 -16.834 4 -27.501c0 -8.66699 -0.833008 -18.167 -2.5 -28.5s-3.83398 -21.5 -6.50098 -33.5l-13 -62c-6 -28.667 -12.667 -51.5 -20 -68.5s-17.166 -30 -29.499 -39s-28.166 -14.833 -47.499 -17.5s-44 -4 -74 -4c-22.667 0 -41.834 0.833008 -57.501 2.5
s-28.5 4.66699 -38.5 9s-17.167 10.666 -21.5 18.999s-6.5 19.5 -6.5 33.5c0 16 3 37.667 9 65l16 75h99l-14 -64c-2 -10 -3 -18 -3 -24c0 -9.33301 2.83301 -15.333 8.5 -18s15.167 -4 28.5 -4c19.333 0 32.166 3.16699 38.499 9.5s11.5 18.5 15.5 36.5l11 52
c2 10 3 18.333 3 25c0 10.667 -3.83301 19.167 -11.5 25.5s-21.167 13.833 -40.5 22.5c-18 8 -33.167 15.167 -45.5 21.5s-22.5 13 -30.5 20s-13.833 14.5 -17.5 22.5s-5.5 17.667 -5.5 29c0 5.33301 0.5 11.166 1.5 17.499s2.16699 13.166 3.5 20.499l16 75
c3.33301 16.667 6.83301 30.834 10.5 42.501s8 21.834 13 30.501s10.833 15.667 17.5 21s15 9.66602 25 12.999c-10.667 6.66699 -18.167 13.667 -22.5 21s-6.5 17 -6.5 29c0 11.333 2 26.666 6 45.999l14 66c6 28 12.667 50.5 20 67.5s17.166 30 29.499 39
s28.166 14.833 47.499 17.5s43.666 4 72.999 4c45.333 0 77.5 -3.83301 96.5 -11.5s28.5 -25.167 28.5 -52.5c0 -16.667 -3 -38 -9 -64l-11 -50h-99zM304 392.003c2 10 3.00195 19 3.00195 27c0 10.667 -2.5 18.667 -7.5 24s-13.833 9.33301 -26.5 12
c-10.667 -1.33301 -19.334 -3.33301 -26.001 -6s-12 -7 -16 -13s-7.5 -13.833 -10.5 -23.5s-5.83301 -22.167 -8.5 -37.5l-6 -30c-2 -8 -3 -15 -3 -21c0 -9.33301 3.83301 -16.5 11.5 -21.5s22.167 -10.167 43.5 -15.5c11.333 2 19.166 8.33301 23.499 19
s8.5 24.667 12.5 42z" />
    <glyph glyph-name="dieresis" unicode="&#xa8;" horiz-adv-x="370" 
d="M473 686h-102l22 104h102zM292 686h-101l22 104h101z" />
    <glyph glyph-name="copyright" unicode="&#xa9;" horiz-adv-x="594" 
d="M467 800c42.667 0 78.832 -1.33691 108.499 -4.00391s53.834 -7.66699 72.501 -15s32.167 -18.166 40.5 -32.499s12.5 -32.833 12.5 -55.5c0 -21.333 -3.66699 -49.666 -11 -84.999l-91 -426c-9.33301 -42 -20.166 -75.667 -32.499 -101s-29.833 -44.833 -52.5 -58.5
s-51.5 -22.5 -86.5 -26.5s-79.5 -6 -133.5 -6c-42.667 0 -78.834 1.16699 -108.501 3.5s-53.667 7.33301 -72 15s-31.5 18.334 -39.5 32.001s-12 31.834 -12 54.501s4 51.667 12 87l91 426c8.66699 42 19.5 75.667 32.5 101s30.5 44.833 52.5 58.5s50.333 22.5 85 26.5
s78.667 6 132 6zM451.998 729.996c-39.333 0 -70.9971 -1.66895 -94.9971 -5.00195s-43.167 -9.5 -57.5 -18.5s-25.166 -21.5 -32.499 -37.5s-13.666 -36.333 -18.999 -61l-91 -425c-5.33301 -23.333 -8 -42 -8 -56c0 -13.333 2.5 -24.166 7.5 -32.499s13.667 -15 26 -20
s28.666 -8.5 48.999 -10.5s46.166 -3 77.499 -3c40 0 72.167 1.66699 96.5 5s43.666 9.5 57.999 18.5s25.166 21.333 32.499 37s13.666 36.167 18.999 61.5l91 425c2 10.667 3.66699 20.334 5 29.001s2 16.667 2 24c0 13.333 -2.5 24.5 -7.5 33.5s-13.667 16.167 -26 21.5
s-28.833 9 -49.5 11s-46.667 3 -78 3zM426.001 451.994l12.001 60c1.33301 5.33301 2 9.33301 2 12c0 10 -8.33301 15 -25 15c-11.333 0 -19.666 -1.83301 -24.999 -5.5s-9 -10.834 -11 -21.501l-47 -222c-1.33301 -6.66699 -2 -11 -2 -13c0 -6 2 -10 6 -12s10.667 -3 20 -3
c12 0 20.167 1.83301 24.5 5.5s7.83301 11.167 10.5 22.5l20 95h59l-21 -102c-4 -19.333 -8.66699 -34.5 -14 -45.5s-12 -19.333 -20 -25s-17.833 -9.33398 -29.5 -11.001s-25.834 -2.5 -42.501 -2.5c-30 0 -51 2.5 -63 7.5s-18 16.5 -18 34.5c0 10.667 2 24.667 6 42
l50 237c4 18 8.33301 32.5 13 43.5s11 19.333 19 25s18.167 9.33398 30.5 11.001s28.166 2.5 47.499 2.5c28 0 47.667 -2.66699 59 -8s17 -16.666 17 -33.999c0 -5.33301 -0.5 -11.333 -1.5 -18s-2.16699 -14 -3.5 -22l-14 -68h-59z" />
    <glyph glyph-name="ordfeminine" unicode="&#xaa;" horiz-adv-x="269" 
d="M206 389c-27.333 0 -46.501 2.33496 -57.501 7.00195s-16.5 14.667 -16.5 30c0 9.33301 1.33301 19.333 4 30l17 79c4.66699 21.333 12.834 36.666 24.501 45.999s28.5 14 50.5 14h11c14 0 24 -0.333008 30 -1s10.333 -1.66699 13 -3l13 62c1.33301 6.66699 2 11 2 13
c0 5.33301 -1.83301 8.66602 -5.5 9.99902s-9.5 2 -17.5 2c-11.333 0 -19 -1.83301 -23 -5.5s-7 -10.167 -9 -19.5l-7 -35h-64l9 42c3.33301 16 7.33301 28.833 12 38.5s10.667 17 18 22s17 8.33301 29 10s27.333 2.5 46 2.5c31.333 0 53.333 -2.16699 66 -6.5
s19 -15.166 19 -32.499c0 -4.66699 -0.333008 -9.83398 -1 -15.501s-1.66699 -11.834 -3 -18.501l-57 -265c-8.66699 -1.33301 -21 -2.66602 -37 -3.99902s-38 -2 -66 -2zM223.999 443.002c15.333 0 24.333 0.333008 27 1l21 99c-6 2 -14.667 3 -26 3s-19 -1.83301 -23 -5.5
s-7 -10.167 -9 -19.5l-11 -51c-0.666992 -3.33301 -1.16699 -6 -1.5 -8s-0.5 -4 -0.5 -6c0 -8.66699 7.66699 -13 23 -13z" />
    <glyph glyph-name="guillemotleft" unicode="&#xab;" horiz-adv-x="378" 
d="M86 299l178 300h64l-162 -300l35 -299h-64zM237 299l178 300h64l-162 -300l35 -299h-64z" />
    <glyph glyph-name="logicalnot" unicode="&#xac;" horiz-adv-x="493" 
d="M366 22l72 339h-318l19 90h408l-91 -429h-90z" />
    <glyph glyph-name="registered" unicode="&#xae;" horiz-adv-x="594" 
d="M467 800c42.667 0 78.832 -1.33691 108.499 -4.00391s53.834 -7.66699 72.501 -15s32.167 -18.166 40.5 -32.499s12.5 -32.833 12.5 -55.5c0 -21.333 -3.66699 -49.666 -11 -84.999l-91 -426c-9.33301 -42 -20.166 -75.667 -32.499 -101s-29.833 -44.833 -52.5 -58.5
s-51.5 -22.5 -86.5 -26.5s-79.5 -6 -133.5 -6c-42.667 0 -78.834 1.16699 -108.501 3.5s-53.667 7.33301 -72 15s-31.5 18.334 -39.5 32.001s-12 31.834 -12 54.501s4 51.667 12 87l91 426c8.66699 42 19.5 75.667 32.5 101s30.5 44.833 52.5 58.5s50.333 22.5 85 26.5
s78.667 6 132 6zM451.998 729.996c-39.333 0 -70.9971 -1.66895 -94.9971 -5.00195s-43.167 -9.5 -57.5 -18.5s-25.166 -21.5 -32.499 -37.5s-13.666 -36.333 -18.999 -61l-91 -425c-5.33301 -23.333 -8 -42 -8 -56c0 -13.333 2.5 -24.166 7.5 -32.499s13.667 -15 26 -20
s28.666 -8.5 48.999 -10.5s46.166 -3 77.499 -3c40 0 72.167 1.66699 96.5 5s43.666 9.5 57.999 18.5s25.166 21.333 32.499 37s13.666 36.167 18.999 61.5l91 425c2 10.667 3.66699 20.334 5 29.001s2 16.667 2 24c0 13.333 -2.5 24.5 -7.5 33.5s-13.667 16.167 -26 21.5
s-28.833 9 -49.5 11s-46.667 3 -78 3zM371.001 190.994l32 148.002c2 10.667 3 19 3 25s-1.33301 9.83301 -4 11.5s-6.66699 2.5 -12 2.5h-42l-40 -187h-69l92 431h100c32 0 54.667 -2.83301 68 -8.5s20 -18.834 20 -39.501c0 -6.66699 -0.666992 -14.167 -2 -22.5
s-3 -17.833 -5 -28.5l-12 -56c-5.33301 -22 -13.5 -36.667 -24.5 -44s-20.5 -12 -28.5 -14v-4c9.33301 -2 16.333 -5.83301 21 -11.5s7 -14.834 7 -27.501c0 -10.667 -1.33301 -21.667 -4 -33l-30 -142h-70zM360.001 433.996l42 0.000976562
c9.33301 0 15.5 2.16699 18.5 6.5s5.5 11.166 7.5 20.499l14 62c2 8 3 14.667 3 20c0 6.66699 -1.83301 11 -5.5 13s-10.167 3 -19.5 3h-34z" />
    <glyph glyph-name="macron" unicode="&#xaf;" horiz-adv-x="383" 
d="M488 708h-292l13 61h292z" />
    <glyph glyph-name="degree" unicode="&#xb0;" horiz-adv-x="336" 
d="M453 644c0 -21.333 -3.83301 -41.333 -11.5 -60s-18 -35 -31 -49s-28.5 -25 -46.5 -33s-37 -12 -57 -12c-20.667 0 -40 4 -58 12s-33.5 19 -46.5 33s-23.333 30.333 -31 49s-11.5 38.667 -11.5 60s3.83301 41.5 11.5 60.5s18 35.5 31 49.5s28.5 25.167 46.5 33.5
s37.333 12.5 58 12.5c20 0 39 -4.16699 57 -12.5s33.5 -19.5 46.5 -33.5s23.333 -30.5 31 -49.5s11.5 -39.167 11.5 -60.5zM398 644c0 27.333 -8.83301 50.5 -26.5 69.5s-39.167 28.5 -64.5 28.5c-13.333 0 -25.5 -2.5 -36.5 -7.5s-20.833 -12 -29.5 -21
s-15.334 -19.5 -20.001 -31.5s-7 -24.667 -7 -38s2.33301 -25.833 7 -37.5s11.334 -22 20.001 -31s18.5 -16 29.5 -21s23.167 -7.5 36.5 -7.5c12.667 0 24.5 2.5 35.5 7.5s20.667 12 29 21s14.833 19.333 19.5 31s7 24.167 7 37.5z" />
    <glyph glyph-name="plusminus" unicode="&#xb1;" horiz-adv-x="493" 
d="M277 354h-158l19 91h158l33 157h90l-33 -157h159l-19 -91h-159l-34 -158h-90zM44 -2l19 91h407l-19 -91h-407z" />
    <glyph glyph-name="twosuperior" unicode="&#xb2;" horiz-adv-x="309" 
d="M119 354l31.999 152.004c2.66699 14 5.5 25.5 8.5 34.5s7.16699 16.667 12.5 23s12.333 12.166 21 17.499s19.667 11 33 17l65 29c11.333 5.33301 19.166 10.333 23.499 15s7.5 11 9.5 19l9 42c0.666992 3.33301 1.16699 6.16602 1.5 8.49902s0.5 4.16602 0.5 5.49902
c0 6 -2 10 -6 12s-10.667 3 -20 3c-12.667 0 -21.5 -2 -26.5 -6s-8.83301 -12 -11.5 -24l-12 -57h-77l12 57c4 20.667 8.83301 37.167 14.5 49.5s13.167 21.833 22.5 28.5s21.333 11 36 13s33.334 3 56.001 3c35.333 0 60.166 -2.83301 74.499 -8.5
s21.5 -18.834 21.5 -39.501c0 -12 -2 -27 -6 -45l-10 -44c-2.66699 -12 -5.66699 -22.167 -9 -30.5s-7.66602 -15.5 -12.999 -21.5s-12 -11.5 -20 -16.5s-18 -10.167 -30 -15.5l-68 -31c-11.333 -5.33301 -19.166 -10.333 -23.499 -15s-7.5 -12 -9.5 -22l-19 -90h60l22 104
h81l-35 -167h-220z" />
    <glyph glyph-name="threesuperior" unicode="&#xb3;" horiz-adv-x="294" 
d="M226 529l-18.999 -86.998c-0.666992 -3.33301 -1.16699 -6 -1.5 -8s-0.5 -4 -0.5 -6c0 -6.66699 2 -11 6 -13s10.667 -3 20 -3c13.333 0 21.833 2.16699 25.5 6.5s6.83398 12.166 9.50098 23.499l16 73c1.33301 5.33301 2.33301 10.333 3 15s1 8.66699 1 12
c0 6 -1.66699 10.167 -5 12.5s-9.66602 3.5 -18.999 3.5h-44l13 64h44c13.333 0 22 1.83301 26 5.5s7 10.167 9 19.5l11 55c0.666992 3.33301 1.16699 6.33301 1.5 9s0.5 5 0.5 7c0 6 -1.83301 9.83301 -5.5 11.5s-10.167 2.5 -19.5 2.5
c-14.667 0 -23.667 -2.16699 -27 -6.5s-6.33301 -12.166 -9 -23.499l-11 -54h-76l11 54c4 20.667 8.83301 37.167 14.5 49.5s13.167 21.833 22.5 28.5s21 11 35 13s31.667 3 53 3c36 0 61.167 -3 75.5 -9s21.5 -19.333 21.5 -40c0 -11.333 -2 -26 -6 -44l-12 -53
c-4.66699 -20 -11 -34.333 -19 -43s-17.333 -14.667 -28 -18c7.33301 -2.66699 13 -6.83398 17 -12.501s6 -14.167 6 -25.5c0 -10.667 -1.33301 -22.334 -4 -35.001l-16 -75c-4 -20 -8.83301 -36.167 -14.5 -48.5s-13.334 -21.666 -23.001 -27.999
s-21.834 -10.666 -36.501 -12.999s-33.334 -3.5 -56.001 -3.5c-33.333 0 -56.833 2.66699 -70.5 8s-20.5 18.666 -20.5 39.999c0 11.333 2 26.666 6 45.999l19 87h76z" />
    <glyph glyph-name="acute" unicode="&#xb4;" horiz-adv-x="201" 
d="M245 805h113l-128 -166h-81z" />
    <glyph glyph-name="paragraph" unicode="&#xb6;" horiz-adv-x="584" 
d="M199 -153l101 472.999h-35c-26 0 -48 0.833008 -66 2.5s-32.667 5.33398 -44 11.001s-19.5 13.5 -24.5 23.5s-7.5 23.333 -7.5 40c0 11.333 1.16699 23.833 3.5 37.5s5.16602 29.167 8.49902 46.5l31 148c7.33301 35.333 15.333 63.5 24 84.5s20.334 37.167 35.001 48.5
s33 18.833 55 22.5s50 5.5 84 5.5h344l-200 -943h-115l180 847h-79l-180 -847h-115zM249 475.999c-4 -16 -5.99902 -28.332 -5.99902 -36.999c0 -10.667 3 -17.667 9 -21s16.667 -5 32 -5h35l59 277h-35c-10.667 0 -19.334 -0.833008 -26.001 -2.5
s-12.167 -4.83398 -16.5 -9.50098s-8 -11 -11 -19s-5.83301 -18.333 -8.5 -31z" />
    <glyph glyph-name="periodcentered" unicode="&#xb7;" horiz-adv-x="191" 
d="M219 330h-105l28 132h105z" />
    <glyph glyph-name="cedilla" unicode="&#xb8;" horiz-adv-x="178" 
d="M58 -20h102l-117 -165h-70z" />
    <glyph glyph-name="onesuperior" unicode="&#xb9;" horiz-adv-x="197" 
d="M195 791h125l-92 -437h-79l79 375h-46z" />
    <glyph glyph-name="ordmasculine" unicode="&#xba;" horiz-adv-x="272" 
d="M328 462c-3.33301 -16 -7.33203 -28.6699 -11.999 -38.0029s-11 -16.666 -19 -21.999s-18.333 -8.83301 -31 -10.5s-29 -2.5 -49 -2.5c-30.667 0 -52.334 2.33301 -65.001 7s-19 15.334 -19 32.001c0 7.33301 1.66699 18.666 5 33.999l42 198
c3.33301 16 7.33301 28.833 12 38.5s11 17 19 22s18.333 8.33301 31 10s28.667 2.5 48 2.5c31.333 0 53.333 -2.16699 66 -6.5s19 -15.166 19 -32.499c0 -7.33301 -1.66699 -18.666 -5 -33.999zM303.001 660.997c0 5.33301 -1.83008 8.66797 -5.49707 10.001
s-10.167 2 -19.5 2c-11.333 0 -19 -1.33301 -23 -4s-6.66699 -7.66699 -8 -15l-41 -194c0 -4.66699 1.66699 -7.83398 5 -9.50098s9.66602 -2.5 18.999 -2.5c11.333 0 19.166 1.5 23.499 4.5s7.16602 8.16699 8.49902 15.5z" />
    <glyph glyph-name="guillemotright" unicode="&#xbb;" horiz-adv-x="378" 
d="M83 0h-65l162 299l-35 300h65l50 -300zM241 0h-65l162 299l-35 300h65l50 -300z" />
    <glyph glyph-name="onequarter" unicode="&#xbc;" horiz-adv-x="622" 
d="M626 790l-497 -790h-78l497 790h78zM195 791h125l-92 -437h-79l79 375h-46zM628 184l-14 -62h-29l-25 -122h-81l25 122h-125l68 317h72l-54 -255h53l40 188h81l-40 -188h29z" />
    <glyph glyph-name="onehalf" unicode="&#xbd;" horiz-adv-x="619" 
d="M626 790l-497 -790h-78l497 790h78zM195 791h125l-92 -437h-79l79 375h-46zM354 0l31.999 152.004c2.66699 14 5.5 25.5 8.5 34.5s7.16699 16.667 12.5 23s12.333 12.166 21 17.499s19.667 11 33 17l65 29c11.333 5.33301 19.166 10.333 23.499 15s7.5 11 9.5 19l9 42
c0.666992 3.33301 1.16699 6.16602 1.5 8.49902s0.5 4.16602 0.5 5.49902c0 6 -2 10 -6 12s-10.667 3 -20 3c-12.667 0 -21.5 -2 -26.5 -6s-8.83301 -12 -11.5 -24l-12 -57h-77l12 57c4 20.667 8.83301 37.167 14.5 49.5s13.167 21.833 22.5 28.5s21.333 11 36 13
s33.334 3 56.001 3c35.333 0 60.166 -2.83301 74.499 -8.5s21.5 -18.834 21.5 -39.501c0 -12 -2 -27 -6 -45l-10 -44c-2.66699 -12 -5.66699 -22.167 -9 -30.5s-7.66602 -15.5 -12.999 -21.5s-12 -11.5 -20 -16.5s-18 -10.167 -30 -15.5l-68 -31
c-11.333 -5.33301 -19.166 -10.333 -23.499 -15s-7.5 -12 -9.5 -22l-19 -90h60l22 104h81l-35 -167h-220z" />
    <glyph glyph-name="threequarters" unicode="&#xbe;" horiz-adv-x="719" 
d="M723 790l-497 -790h-78l497 790h78zM725 184l-14 -62h-29l-25 -122h-81l25 122h-125l68 317h72l-54 -255h53l40 188h81l-40 -188h29zM226 529l-18.999 -86.998c-0.666992 -3.33301 -1.16699 -6 -1.5 -8s-0.5 -4 -0.5 -6c0 -6.66699 2 -11 6 -13s10.667 -3 20 -3
c13.333 0 21.833 2.16699 25.5 6.5s6.83398 12.166 9.50098 23.499l16 73c1.33301 5.33301 2.33301 10.333 3 15s1 8.66699 1 12c0 6 -1.66699 10.167 -5 12.5s-9.66602 3.5 -18.999 3.5h-44l13 64h44c13.333 0 22 1.83301 26 5.5s7 10.167 9 19.5l11 55
c0.666992 3.33301 1.16699 6.33301 1.5 9s0.5 5 0.5 7c0 6 -1.83301 9.83301 -5.5 11.5s-10.167 2.5 -19.5 2.5c-14.667 0 -23.667 -2.16699 -27 -6.5s-6.33301 -12.166 -9 -23.499l-11 -54h-76l11 54c4 20.667 8.83301 37.167 14.5 49.5s13.167 21.833 22.5 28.5
s21 11 35 13s31.667 3 53 3c36 0 61.167 -3 75.5 -9s21.5 -19.333 21.5 -40c0 -11.333 -2 -26 -6 -44l-12 -53c-4.66699 -20 -11 -34.333 -19 -43s-17.333 -14.667 -28 -18c7.33301 -2.66699 13 -6.83398 17 -12.501s6 -14.167 6 -25.5
c0 -10.667 -1.33301 -22.334 -4 -35.001l-16 -75c-4 -20 -8.83301 -36.167 -14.5 -48.5s-13.334 -21.666 -23.001 -27.999s-21.834 -10.666 -36.501 -12.999s-33.334 -3.5 -56.001 -3.5c-33.333 0 -56.833 2.66699 -70.5 8s-20.5 18.666 -20.5 39.999
c0 11.333 2 26.666 6 45.999l19 87h76z" />
    <glyph glyph-name="questiondown" unicode="&#xbf;" horiz-adv-x="385" 
d="M314.015 790h104.993l-26.998 -130.992h-104.994zM364.012 537.016c-3.33301 -15.999 -6.66992 -29.8359 -10.0029 -41.502c-3.33301 -11.665 -7.16602 -22.3311 -11.499 -31.998c-4.33301 -9.66602 -9.49902 -18.999 -15.498 -27.998
c-6 -8.99902 -13.666 -18.832 -22.999 -29.498l-73.9951 -86.9951c-10.666 -12.665 -18.166 -24.4971 -22.499 -35.4961s-8.83301 -26.8311 -13.5 -47.4961l-16.999 -79.9951c-1.33301 -8 -2.66602 -15 -3.99902 -20.999s-2 -11.332 -2 -15.999
c0 -10.666 3.16602 -17.666 9.49902 -20.999s16.832 -4.99902 31.498 -4.99902c11.333 0 20.332 0.833008 26.998 2.49902c6.66699 1.66699 12.333 4.83398 16.999 9.50098c4.66699 4.66602 8.33398 11.166 11.001 19.499c2.66602 8.33301 5.33203 18.832 7.99902 31.498
l20.999 99.9932h111.993l-20.999 -99.9932c-7.99902 -36.665 -16.498 -65.8301 -25.4971 -87.4951s-20.832 -38.3311 -35.498 -49.9971s-32.832 -19.332 -54.4971 -22.998c-21.665 -3.66699 -48.8301 -5.5 -81.4951 -5.5c-25.3311 0 -46.8291 1 -64.4941 3
c-17.666 2 -32.165 5.83301 -43.498 11.499c-11.333 5.66699 -19.666 13.667 -24.999 24s-8 23.832 -8 40.4971c0 21.999 4 50.9971 12 86.9951l14.999 70.9951c3.33301 17.333 6.83301 31.999 10.5 43.998s7.83301 22.998 12.499 32.9971
c4.66699 9.99902 10.5 19.832 17.499 29.499c6.99902 9.66602 15.499 20.498 25.499 32.4971l92.9941 109.994c5.33301 5.99902 9.49902 11.332 12.499 15.999c3 4.66602 5.66602 9.33203 7.99902 13.999c2.33301 4.66602 4.33301 9.83203 6 15.499
c1.66699 5.66602 3.5 12.499 5.5 20.499l11.999 58.9961h97.9941z" />
    <glyph glyph-name="Agrave" unicode="&#xc0;" 
d="M247 0l36.9971 175.998h-97l-37 -176h-112l134 634c8 36.667 16.5 65.834 25.5 87.501s20.833 38.334 35.5 50.001s32.834 19.334 54.501 23.001s48.834 5.5 81.501 5.5c24.667 0 45.834 -1.16699 63.501 -3.5s32 -6.5 43 -12.5s19 -14.333 24 -25
s7.5 -24.334 7.5 -41.001c0 -20.667 -3.66699 -48.667 -11 -84l-134 -634h-115zM345.997 696.998c-10 0 -18.5 -0.834961 -25.5 -2.50195s-12.667 -4.66699 -17 -9s-8 -10.666 -11 -18.999s-5.83301 -19.166 -8.5 -32.499l-77 -364h97l77 364c3.33301 15.333 5 26.333 5 33
c0 12 -2.83301 20 -8.5 24s-16.167 6 -31.5 6zM429.997 829.996h-74l-63 166h107z" />
    <glyph glyph-name="Aacute" unicode="&#xc1;" 
d="M247 0l36.9971 175.998h-97l-37 -176h-112l134 634c8 36.667 16.5 65.834 25.5 87.501s20.833 38.334 35.5 50.001s32.834 19.334 54.501 23.001s48.834 5.5 81.501 5.5c24.667 0 45.834 -1.16699 63.501 -3.5s32 -6.5 43 -12.5s19 -14.333 24 -25
s7.5 -24.334 7.5 -41.001c0 -20.667 -3.66699 -48.667 -11 -84l-134 -634h-115zM345.997 696.998c-10 0 -18.5 -0.834961 -25.5 -2.50195s-12.667 -4.66699 -17 -9s-8 -10.666 -11 -18.999s-5.83301 -19.166 -8.5 -32.499l-77 -364h97l77 364c3.33301 15.333 5 26.333 5 33
c0 12 -2.83301 20 -8.5 24s-16.167 6 -31.5 6zM412.997 995.996h113l-128 -166h-81z" />
    <glyph glyph-name="Acircumflex" unicode="&#xc2;" 
d="M247 0l36.9971 175.998h-97l-37 -176h-112l134 634c8 36.667 16.5 65.834 25.5 87.501s20.833 38.334 35.5 50.001s32.834 19.334 54.501 23.001s48.834 5.5 81.501 5.5c24.667 0 45.834 -1.16699 63.501 -3.5s32 -6.5 43 -12.5s19 -14.333 24 -25
s7.5 -24.334 7.5 -41.001c0 -20.667 -3.66699 -48.667 -11 -84l-134 -634h-115zM345.997 696.998c-10 0 -18.5 -0.834961 -25.5 -2.50195s-12.667 -4.66699 -17 -9s-8 -10.666 -11 -18.999s-5.83301 -19.166 -8.5 -32.499l-77 -364h97l77 364c3.33301 15.333 5 26.333 5 33
c0 12 -2.83301 20 -8.5 24s-16.167 6 -31.5 6zM519.997 829.996h-70l-50 109l-96 -109h-74l138 166h87z" />
    <glyph glyph-name="Atilde" unicode="&#xc3;" 
d="M247 0l36.9971 175.998h-97l-37 -176h-112l134 634c8 36.667 16.5 65.834 25.5 87.501s20.833 38.334 35.5 50.001s32.834 19.334 54.501 23.001s48.834 5.5 81.501 5.5c24.667 0 45.834 -1.16699 63.501 -3.5s32 -6.5 43 -12.5s19 -14.333 24 -25
s7.5 -24.334 7.5 -41.001c0 -20.667 -3.66699 -48.667 -11 -84l-134 -634h-115zM345.997 696.998c-10 0 -18.5 -0.834961 -25.5 -2.50195s-12.667 -4.66699 -17 -9s-8 -10.666 -11 -18.999s-5.83301 -19.166 -8.5 -32.499l-77 -364h97l77 364c3.33301 15.333 5 26.333 5 33
c0 12 -2.83301 20 -8.5 24s-16.167 6 -31.5 6zM313.997 913.996c-16.667 0 -30.834 -3.33008 -42.501 -9.99707s-22.167 -15.334 -31.5 -26.001l15 73c9.33301 7.33301 20.5 13.5 33.5 18.5s26.5 7.5 40.5 7.5s27 -1.66699 39 -5s23.667 -6.83301 35 -10.5
s23 -7.16699 35 -10.5s25 -5 39 -5c30.667 0 56.334 12 77.001 36l-16 -72c-9.33301 -8.66699 -20.5 -15.667 -33.5 -21s-27.167 -8 -42.5 -8c-14 0 -27 1.66699 -39 5s-23.667 7.16602 -35 11.499s-23 8.16602 -35 11.499s-25 5 -39 5z" />
    <glyph glyph-name="Adieresis" unicode="&#xc4;" 
d="M247 0l36.9971 175.998h-97l-37 -176h-112l134 634c8 36.667 16.5 65.834 25.5 87.501s20.833 38.334 35.5 50.001s32.834 19.334 54.501 23.001s48.834 5.5 81.501 5.5c24.667 0 45.834 -1.16699 63.501 -3.5s32 -6.5 43 -12.5s19 -14.333 24 -25
s7.5 -24.334 7.5 -41.001c0 -20.667 -3.66699 -48.667 -11 -84l-134 -634h-115zM345.997 696.998c-10 0 -18.5 -0.834961 -25.5 -2.50195s-12.667 -4.66699 -17 -9s-8 -10.666 -11 -18.999s-5.83301 -19.166 -8.5 -32.499l-77 -364h97l77 364c3.33301 15.333 5 26.333 5 33
c0 12 -2.83301 20 -8.5 24s-16.167 6 -31.5 6zM526.997 876.996h-102l22 104h102zM345.997 876.996h-101l22 104h101z" />
    <glyph glyph-name="Aring" unicode="&#xc5;" 
d="M247 0l36.9971 175.998h-97l-37 -176h-112l134 634c8 36.667 16.5 65.834 25.5 87.501s20.833 38.334 35.5 50.001s32.834 19.334 54.501 23.001s48.834 5.5 81.501 5.5c24.667 0 45.834 -1.16699 63.501 -3.5s32 -6.5 43 -12.5s19 -14.333 24 -25
s7.5 -24.334 7.5 -41.001c0 -20.667 -3.66699 -48.667 -11 -84l-134 -634h-115zM345.997 696.998c-10 0 -18.5 -0.834961 -25.5 -2.50195s-12.667 -4.66699 -17 -9s-8 -10.666 -11 -18.999s-5.83301 -19.166 -8.5 -32.499l-77 -364h97l77 364c3.33301 15.333 5 26.333 5 33
c0 12 -2.83301 20 -8.5 24s-16.167 6 -31.5 6zM467.997 887.996c-3.33301 -15.333 -7.16602 -27.333 -11.499 -36s-10 -15.5 -17 -20.5s-16 -8.16699 -27 -9.5s-24.833 -2 -41.5 -2c-25.333 0 -43.5 2 -54.5 6s-16.5 13.667 -16.5 29c0 4.66699 0.5 9.5 1.5 14.5
s2.16699 11.167 3.5 18.5l8 40c2.66699 14.667 6.16699 26.5 10.5 35.5s10.166 16 17.499 21s16.5 8.16699 27.5 9.5s24.5 2 40.5 2c26 0 44.333 -2 55 -6s16 -13.667 16 -29c0 -9.33301 -1.33301 -20.333 -4 -33zM432.997 923.996
c1.33301 6.66699 1.99902 11.001 1.99902 13.001c0 7.33301 -2.66699 11.833 -8 13.5s-14.666 2.5 -27.999 2.5c-15.333 0 -26 -1.5 -32 -4.5s-10.333 -11.167 -13 -24.5l-6 -32c-0.666992 -3.33301 -1.16699 -6 -1.5 -8s-0.5 -4 -0.5 -6
c0 -6.66699 2.5 -10.834 7.5 -12.501s13.833 -2.5 26.5 -2.5c16 0 27.167 1.5 33.5 4.5s10.833 11.167 13.5 24.5z" />
    <glyph glyph-name="AE" unicode="&#xc6;" horiz-adv-x="486" 
d="M222 0l36.999 176h-72l-37 -176h-112l133 629c8 36.667 16.5 65.667 25.5 87s20.5 37.5 34.5 48.5s31.833 18 53.5 21s48.834 4.5 81.501 4.5h242l-20 -96h-107l-24 -114h104l-20 -92h-104l-83 -390h108l-20 -98h-220zM206.999 270l72 -0.000976562l90 424h-24
c-10 0 -18.333 -0.666992 -25 -2s-12.167 -4.16602 -16.5 -8.49902s-8 -10.5 -11 -18.5s-5.83301 -18.667 -8.5 -32z" />
    <glyph glyph-name="Ccedilla" unicode="&#xc7;" horiz-adv-x="394" 
d="M344 455l38.001 179.001c1.33301 8 2.66602 15 3.99902 21s2 11.333 2 16c0 10.667 -3.16699 17.667 -9.5 21s-16.5 5 -30.5 5c-10.667 0 -19.334 -0.833008 -26.001 -2.5s-12.334 -4.83398 -17.001 -9.50098s-8.5 -11.167 -11.5 -19.5s-5.83301 -18.833 -8.5 -31.5
l-101 -477c-4 -17.333 -6 -30 -6 -38c0 -11.333 3 -18.666 9 -21.999s16.667 -5 32 -5c10 0 18.333 0.833008 25 2.5s12.334 4.83398 17.001 9.50098s8.33398 11.167 11.001 19.5s5.66699 19.5 9 33.5l39 183h111l-39 -183c-8 -36.667 -16.5 -66 -25.5 -88
s-20.667 -38.833 -35 -50.5s-32.333 -19.334 -54 -23.001s-48.5 -5.5 -80.5 -5.5c-25.333 0 -47 1 -65 3s-32.5 5.66699 -43.5 11s-19 13.166 -24 23.499s-7.5 23.833 -7.5 40.5c0 22 4 51.667 12 89l101 477c8 36 16.667 65 26 87s21.5 38.833 36.5 50.5
s33.5 19.334 55.5 23.001s49.333 5.5 82 5.5c24 0 44.667 -1 62 -3s31.333 -5.66699 42 -11s18.5 -13.333 23.5 -24s7.5 -24.334 7.5 -41.001c0 -22 -4 -51 -12 -87l-38 -179h-111zM138.001 -19.999h102l-117 -165h-70z" />
    <glyph glyph-name="Egrave" unicode="&#xc8;" horiz-adv-x="293" 
d="M270 0h-226l167 790h225l-20 -95h-110l-24 -115h107l-20 -91h-107l-82 -390h111zM388 830h-74l-63 166h107z" />
    <glyph glyph-name="Egrave" unicode="&#x400;" horiz-adv-x="293" 
d="M270 0h-226l167 790h225l-20 -95h-110l-24 -115h107l-20 -91h-107l-82 -390h111zM388 830h-74l-63 166h107z" />
    <glyph glyph-name="Eacute" unicode="&#xc9;" horiz-adv-x="293" 
d="M270 0h-226l167 790h225l-20 -95h-110l-24 -115h107l-20 -91h-107l-82 -390h111zM371 996h113l-128 -166h-81z" />
    <glyph glyph-name="Ecircumflex" unicode="&#xca;" horiz-adv-x="293" 
d="M270 0h-226l167 790h225l-20 -95h-110l-24 -115h107l-20 -91h-107l-82 -390h111zM477 830h-70l-50 109l-96 -109h-74l138 166h87z" />
    <glyph glyph-name="Edieresis" unicode="&#xcb;" horiz-adv-x="293" 
d="M270 0h-226l167 790h225l-20 -95h-110l-24 -115h107l-20 -91h-107l-82 -390h111zM484 877h-102l22 104h102zM303 877h-101l22 104h101z" />
    <glyph glyph-name="Edieresis" unicode="&#x401;" horiz-adv-x="293" 
d="M270 0h-226l167 790h225l-20 -95h-110l-24 -115h107l-20 -91h-107l-82 -390h111zM484 877h-102l22 104h102zM303 877h-101l22 104h101z" />
    <glyph glyph-name="Igrave" unicode="&#xcc;" horiz-adv-x="205" 
d="M161 0h-115l167 790h115zM334 830h-74l-63 166h107z" />
    <glyph glyph-name="Iacute" unicode="&#xcd;" horiz-adv-x="205" 
d="M161 0h-115l167 790h115zM317 996h113l-128 -166h-81z" />
    <glyph glyph-name="Icircumflex" unicode="&#xce;" horiz-adv-x="205" 
d="M161 0h-115l167 790h115zM425 830h-70l-50 109l-96 -109h-74l138 166h87z" />
    <glyph glyph-name="Idieresis" unicode="&#xcf;" horiz-adv-x="205" 
d="M161 0h-115l167 790h115zM432 877h-102l22 104h102zM251 877h-101l22 104h101z" />
    <glyph glyph-name="Idieresis" unicode="&#x407;" horiz-adv-x="205" 
d="M161 0h-115l167 790h115zM432 877h-102l22 104h102zM251 877h-101l22 104h101z" />
    <glyph glyph-name="Idieresis" unicode="&#x3aa;" horiz-adv-x="205" 
d="M161 0h-115l167 790h115zM432 877h-102l22 104h102zM251 877h-101l22 104h101z" />
    <glyph glyph-name="Eth" unicode="&#xd0;" horiz-adv-x="428" 
d="M161 580l27 -0.00292969l44 210h165c25.333 0 47 -1 65 -3s32.667 -5.66699 44 -11s19.5 -13.166 24.5 -23.499s7.5 -23.833 7.5 -40.5c0 -20 -3.66699 -47.667 -11 -83l-99 -467c-7.33301 -35.333 -15.5 -63.666 -24.5 -84.999s-20.667 -37.666 -35 -48.999
s-32.5 -18.833 -54.5 -22.5s-50 -5.5 -84 -5.5h-165l103 489h-27zM300 579.997h53.999l-20 -91h-54l-82 -389h56c10.667 0 19.5 1 26.5 3s12.667 5.33301 17 10s8 11 11 19s5.83301 18 8.5 30l99 467l3.5 21c1 6 1.5 11.333 1.5 16c0 11.333 -3.16699 18.333 -9.5 21
s-17.166 4 -32.499 4h-56z" />
    <glyph glyph-name="Eth" unicode="&#x110;" horiz-adv-x="428" 
d="M161 580l27 -0.00292969l44 210h165c25.333 0 47 -1 65 -3s32.667 -5.66699 44 -11s19.5 -13.166 24.5 -23.499s7.5 -23.833 7.5 -40.5c0 -20 -3.66699 -47.667 -11 -83l-99 -467c-7.33301 -35.333 -15.5 -63.666 -24.5 -84.999s-20.667 -37.666 -35 -48.999
s-32.5 -18.833 -54.5 -22.5s-50 -5.5 -84 -5.5h-165l103 489h-27zM300 579.997h53.999l-20 -91h-54l-82 -389h56c10.667 0 19.5 1 26.5 3s12.667 5.33301 17 10s8 11 11 19s5.83301 18 8.5 30l99 467l3.5 21c1 6 1.5 11.333 1.5 16c0 11.333 -3.16699 18.333 -9.5 21
s-17.166 4 -32.499 4h-56z" />
    <glyph glyph-name="Ntilde" unicode="&#xd1;" horiz-adv-x="432" 
d="M268 0l-17 493h-4l-104 -493h-99l167 790h125l9 -507h4l107 507h100l-167 -790h-121zM330 914c-16.667 0 -30.834 -3.33008 -42.501 -9.99707s-22.167 -15.334 -31.5 -26.001l15 73c9.33301 7.33301 20.5 13.5 33.5 18.5s26.5 7.5 40.5 7.5s27 -1.66699 39 -5
s23.667 -6.83301 35 -10.5s23 -7.16699 35 -10.5s25 -5 39 -5c30.667 0 56.334 12 77.001 36l-16 -72c-9.33301 -8.66699 -20.5 -15.667 -33.5 -21s-27.167 -8 -42.5 -8c-14 0 -27 1.66699 -39 5s-23.667 7.16602 -35 11.499s-23 8.16602 -35 11.499s-25 5 -39 5z" />
    <glyph glyph-name="Ograve" unicode="&#xd2;" 
d="M398 157c-8 -36.667 -16.499 -66 -25.499 -88s-20.833 -38.833 -35.5 -50.5s-33.167 -19.334 -55.5 -23.001s-50.5 -5.5 -84.5 -5.5c-25.333 0 -47 1 -65 3s-32.5 5.66699 -43.5 11s-19 13.166 -24 23.499s-7.5 23.833 -7.5 40.5c0 22 4 51.667 12 89l101 477
c8 36.667 16.5 65.834 25.5 87.501s20.667 38.334 35 50.001s32.666 19.334 54.999 23.001s50.5 5.5 84.5 5.5c25.333 0 47 -1 65 -3s32.667 -5.66699 44 -11s19.5 -13.333 24.5 -24s7.5 -24.334 7.5 -41.001c0 -22 -4 -51 -12 -87zM383.001 634
c1.33301 8 2.66895 15.001 4.00195 21.001s2 11.333 2 16c0 11.333 -3.16699 18.5 -9.5 21.5s-16.833 4.5 -31.5 4.5c-10.667 0 -19.334 -0.833008 -26.001 -2.5s-12.334 -4.83398 -17.001 -9.50098s-8.5 -11.167 -11.5 -19.5s-5.83301 -18.833 -8.5 -31.5l-101 -477
c-4 -17.333 -6 -30 -6 -38c0 -11.333 3 -18.666 9 -21.999s16.667 -5 32 -5c10.667 0 19.5 0.833008 26.5 2.5s12.667 5 17 10s8 11.667 11 20s5.83301 19.166 8.5 32.499zM431.004 830.001h-74l-63 166h107z" />
    <glyph glyph-name="Oacute" unicode="&#xd3;" 
d="M398 157c-8 -36.667 -16.499 -66 -25.499 -88s-20.833 -38.833 -35.5 -50.5s-33.167 -19.334 -55.5 -23.001s-50.5 -5.5 -84.5 -5.5c-25.333 0 -47 1 -65 3s-32.5 5.66699 -43.5 11s-19 13.166 -24 23.499s-7.5 23.833 -7.5 40.5c0 22 4 51.667 12 89l101 477
c8 36.667 16.5 65.834 25.5 87.501s20.667 38.334 35 50.001s32.666 19.334 54.999 23.001s50.5 5.5 84.5 5.5c25.333 0 47 -1 65 -3s32.667 -5.66699 44 -11s19.5 -13.333 24.5 -24s7.5 -24.334 7.5 -41.001c0 -22 -4 -51 -12 -87zM383.001 634
c1.33301 8 2.66895 15.001 4.00195 21.001s2 11.333 2 16c0 11.333 -3.16699 18.5 -9.5 21.5s-16.833 4.5 -31.5 4.5c-10.667 0 -19.334 -0.833008 -26.001 -2.5s-12.334 -4.83398 -17.001 -9.50098s-8.5 -11.167 -11.5 -19.5s-5.83301 -18.833 -8.5 -31.5l-101 -477
c-4 -17.333 -6 -30 -6 -38c0 -11.333 3 -18.666 9 -21.999s16.667 -5 32 -5c10.667 0 19.5 0.833008 26.5 2.5s12.667 5 17 10s8 11.667 11 20s5.83301 19.166 8.5 32.499zM414.004 996.001h113l-128 -166h-81z" />
    <glyph glyph-name="Ocircumflex" unicode="&#xd4;" 
d="M398 157c-8 -36.667 -16.499 -66 -25.499 -88s-20.833 -38.833 -35.5 -50.5s-33.167 -19.334 -55.5 -23.001s-50.5 -5.5 -84.5 -5.5c-25.333 0 -47 1 -65 3s-32.5 5.66699 -43.5 11s-19 13.166 -24 23.499s-7.5 23.833 -7.5 40.5c0 22 4 51.667 12 89l101 477
c8 36.667 16.5 65.834 25.5 87.501s20.667 38.334 35 50.001s32.666 19.334 54.999 23.001s50.5 5.5 84.5 5.5c25.333 0 47 -1 65 -3s32.667 -5.66699 44 -11s19.5 -13.333 24.5 -24s7.5 -24.334 7.5 -41.001c0 -22 -4 -51 -12 -87zM383.001 634
c1.33301 8 2.66895 15.001 4.00195 21.001s2 11.333 2 16c0 11.333 -3.16699 18.5 -9.5 21.5s-16.833 4.5 -31.5 4.5c-10.667 0 -19.334 -0.833008 -26.001 -2.5s-12.334 -4.83398 -17.001 -9.50098s-8.5 -11.167 -11.5 -19.5s-5.83301 -18.833 -8.5 -31.5l-101 -477
c-4 -17.333 -6 -30 -6 -38c0 -11.333 3 -18.666 9 -21.999s16.667 -5 32 -5c10.667 0 19.5 0.833008 26.5 2.5s12.667 5 17 10s8 11.667 11 20s5.83301 19.166 8.5 32.499zM520.004 830.001h-70l-50 109l-96 -109h-74l138 166h87z" />
    <glyph glyph-name="Otilde" unicode="&#xd5;" 
d="M398 157c-8 -36.667 -16.499 -66 -25.499 -88s-20.833 -38.833 -35.5 -50.5s-33.167 -19.334 -55.5 -23.001s-50.5 -5.5 -84.5 -5.5c-25.333 0 -47 1 -65 3s-32.5 5.66699 -43.5 11s-19 13.166 -24 23.499s-7.5 23.833 -7.5 40.5c0 22 4 51.667 12 89l101 477
c8 36.667 16.5 65.834 25.5 87.501s20.667 38.334 35 50.001s32.666 19.334 54.999 23.001s50.5 5.5 84.5 5.5c25.333 0 47 -1 65 -3s32.667 -5.66699 44 -11s19.5 -13.333 24.5 -24s7.5 -24.334 7.5 -41.001c0 -22 -4 -51 -12 -87zM383.001 634
c1.33301 8 2.66895 15.001 4.00195 21.001s2 11.333 2 16c0 11.333 -3.16699 18.5 -9.5 21.5s-16.833 4.5 -31.5 4.5c-10.667 0 -19.334 -0.833008 -26.001 -2.5s-12.334 -4.83398 -17.001 -9.50098s-8.5 -11.167 -11.5 -19.5s-5.83301 -18.833 -8.5 -31.5l-101 -477
c-4 -17.333 -6 -30 -6 -38c0 -11.333 3 -18.666 9 -21.999s16.667 -5 32 -5c10.667 0 19.5 0.833008 26.5 2.5s12.667 5 17 10s8 11.667 11 20s5.83301 19.166 8.5 32.499zM314.004 914.001c-16.667 0 -30.834 -3.33008 -42.501 -9.99707s-22.167 -15.334 -31.5 -26.001
l15 73c9.33301 7.33301 20.5 13.5 33.5 18.5s26.5 7.5 40.5 7.5s27 -1.66699 39 -5s23.667 -6.83301 35 -10.5s23 -7.16699 35 -10.5s25 -5 39 -5c30.667 0 56.334 12 77.001 36l-16 -72c-9.33301 -8.66699 -20.5 -15.667 -33.5 -21s-27.167 -8 -42.5 -8
c-14 0 -27 1.66699 -39 5s-23.667 7.16602 -35 11.499s-23 8.16602 -35 11.499s-25 5 -39 5z" />
    <glyph glyph-name="Odieresis" unicode="&#xd6;" 
d="M398 157c-8 -36.667 -16.499 -66 -25.499 -88s-20.833 -38.833 -35.5 -50.5s-33.167 -19.334 -55.5 -23.001s-50.5 -5.5 -84.5 -5.5c-25.333 0 -47 1 -65 3s-32.5 5.66699 -43.5 11s-19 13.166 -24 23.499s-7.5 23.833 -7.5 40.5c0 22 4 51.667 12 89l101 477
c8 36.667 16.5 65.834 25.5 87.501s20.667 38.334 35 50.001s32.666 19.334 54.999 23.001s50.5 5.5 84.5 5.5c25.333 0 47 -1 65 -3s32.667 -5.66699 44 -11s19.5 -13.333 24.5 -24s7.5 -24.334 7.5 -41.001c0 -22 -4 -51 -12 -87zM383.001 634
c1.33301 8 2.66895 15.001 4.00195 21.001s2 11.333 2 16c0 11.333 -3.16699 18.5 -9.5 21.5s-16.833 4.5 -31.5 4.5c-10.667 0 -19.334 -0.833008 -26.001 -2.5s-12.334 -4.83398 -17.001 -9.50098s-8.5 -11.167 -11.5 -19.5s-5.83301 -18.833 -8.5 -31.5l-101 -477
c-4 -17.333 -6 -30 -6 -38c0 -11.333 3 -18.666 9 -21.999s16.667 -5 32 -5c10.667 0 19.5 0.833008 26.5 2.5s12.667 5 17 10s8 11.667 11 20s5.83301 19.166 8.5 32.499zM527.004 877.001h-102l22 104h102zM346.004 877.001h-101l22 104h101z" />
    <glyph glyph-name="multiply" unicode="&#xd7;" horiz-adv-x="479" 
d="M322 337l-142 -118l-54 68l143 118l-88 112l70 58l88 -112l136 112l54 -68l-136 -112l85 -108l-71 -58z" />
    <glyph glyph-name="Oslash" unicode="&#xd8;" 
d="M398 157c-8 -36.667 -16.499 -66.001 -25.499 -88.001s-20.833 -38.833 -35.5 -50.5s-33.167 -19.334 -55.5 -23.001s-50.5 -5.5 -84.5 -5.5c-15.333 0 -29.166 0.5 -41.499 1.5s-23.833 2.16699 -34.5 3.5l-30 -64h-70l46 93c-6.66699 10.667 -10 26 -10 46
c-0.666992 11.333 0.166016 24.166 2.49902 38.499s5.5 30.5 9.5 48.5l101 477c8 36.667 16.5 65.834 25.5 87.501s20.667 38.334 35 50.001s32.666 19.334 54.999 23.001s50.5 5.5 84.5 5.5c15.333 0 29.166 -0.333008 41.499 -1s23.833 -1.66699 34.5 -3l31 64h70l-46 -94
c6.66699 -10.667 10 -26 10 -46c0 -11.333 -1.16699 -24 -3.5 -38s-5.16602 -30 -8.49902 -48zM223.001 342.999l165.002 335.001c-1.33301 7.33301 -5 12.333 -11 15s-15.667 4 -29 4c-10.667 0 -19.334 -0.833008 -26.001 -2.5s-12.334 -4.83398 -17.001 -9.50098
s-8.5 -11.167 -11.5 -19.5s-5.83301 -18.833 -8.5 -31.5zM343.003 444l-163.999 -334c1.33301 -7.33301 5.16602 -12.166 11.499 -14.499s15.833 -3.5 28.5 -3.5c10.667 0 19.5 0.833008 26.5 2.5s12.667 5 17 10s8 11.667 11 20s5.83301 19.166 8.5 32.499z" />
    <glyph glyph-name="Ugrave" unicode="&#xd9;" horiz-adv-x="403" 
d="M200 -10c-25.333 0 -46.667 1.00195 -64 3.00195s-31.666 5.83301 -42.999 11.5s-19.5 13.667 -24.5 24s-7.5 24.166 -7.5 41.499c0 22 4 51 12 87l134 633h115l-134 -633c-4 -16 -6 -28.333 -6 -37c0 -11.333 3.16699 -18.666 9.5 -21.999s17.166 -5 32.499 -5
c10 0 18.333 0.833008 25 2.5s12.167 4.66699 16.5 9s8 10.666 11 18.999s6.16699 19.5 9.5 33.5l134 633h112l-134 -633c-8 -36.667 -16.5 -66 -25.5 -88s-20.833 -38.833 -35.5 -50.5s-33 -19.334 -55 -23.001s-49.333 -5.5 -82 -5.5zM432.999 830.002h-74l-63 166h107z
" />
    <glyph glyph-name="Uacute" unicode="&#xda;" horiz-adv-x="403" 
d="M200 -10c-25.333 0 -46.667 1.00195 -64 3.00195s-31.666 5.83301 -42.999 11.5s-19.5 13.667 -24.5 24s-7.5 24.166 -7.5 41.499c0 22 4 51 12 87l134 633h115l-134 -633c-4 -16 -6 -28.333 -6 -37c0 -11.333 3.16699 -18.666 9.5 -21.999s17.166 -5 32.499 -5
c10 0 18.333 0.833008 25 2.5s12.167 4.66699 16.5 9s8 10.666 11 18.999s6.16699 19.5 9.5 33.5l134 633h112l-134 -633c-8 -36.667 -16.5 -66 -25.5 -88s-20.833 -38.833 -35.5 -50.5s-33 -19.334 -55 -23.001s-49.333 -5.5 -82 -5.5zM415.999 996.002h113l-128 -166h-81z
" />
    <glyph glyph-name="Ucircumflex" unicode="&#xdb;" horiz-adv-x="403" 
d="M200 -10c-25.333 0 -46.667 1.00195 -64 3.00195s-31.666 5.83301 -42.999 11.5s-19.5 13.667 -24.5 24s-7.5 24.166 -7.5 41.499c0 22 4 51 12 87l134 633h115l-134 -633c-4 -16 -6 -28.333 -6 -37c0 -11.333 3.16699 -18.666 9.5 -21.999s17.166 -5 32.499 -5
c10 0 18.333 0.833008 25 2.5s12.167 4.66699 16.5 9s8 10.666 11 18.999s6.16699 19.5 9.5 33.5l134 633h112l-134 -633c-8 -36.667 -16.5 -66 -25.5 -88s-20.833 -38.833 -35.5 -50.5s-33 -19.334 -55 -23.001s-49.333 -5.5 -82 -5.5zM521.999 830.002h-70l-50 109
l-96 -109h-74l138 166h87z" />
    <glyph glyph-name="Udieresis" unicode="&#xdc;" horiz-adv-x="403" 
d="M200 -10c-25.333 0 -46.667 1.00195 -64 3.00195s-31.666 5.83301 -42.999 11.5s-19.5 13.667 -24.5 24s-7.5 24.166 -7.5 41.499c0 22 4 51 12 87l134 633h115l-134 -633c-4 -16 -6 -28.333 -6 -37c0 -11.333 3.16699 -18.666 9.5 -21.999s17.166 -5 32.499 -5
c10 0 18.333 0.833008 25 2.5s12.167 4.66699 16.5 9s8 10.666 11 18.999s6.16699 19.5 9.5 33.5l134 633h112l-134 -633c-8 -36.667 -16.5 -66 -25.5 -88s-20.833 -38.833 -35.5 -50.5s-33 -19.334 -55 -23.001s-49.333 -5.5 -82 -5.5zM528.999 877.002h-102l22 104h102z
M347.999 877.002h-101l22 104h101z" />
    <glyph glyph-name="Yacute" unicode="&#xdd;" horiz-adv-x="352" 
d="M517 790l-226 -511l-59 -279h-115l59 279l-6 511h112l-17 -357h4l134 357h114zM390 996h113l-128 -166h-81z" />
    <glyph glyph-name="Thorn" unicode="&#xde;" horiz-adv-x="395" 
d="M211 790l115 -0.00195312l-24 -115h49c26 0 48 -1 66 -3s32.667 -5.83301 44 -11.5s19.5 -13.5 24.5 -23.5s7.5 -23.333 7.5 -40c0 -11.333 -1 -23.666 -3 -36.999s-4.66699 -28.666 -8 -45.999l-36 -169c-7.33301 -35.333 -15.5 -63.5 -24.5 -84.5
s-20.833 -37.167 -35.5 -48.5s-33 -18.833 -55 -22.5s-50 -5.5 -84 -5.5h-49l-39 -184h-115zM281 574.998l-64.002 -298h49c10.667 0 19.334 0.666992 26.001 2s12.167 4.33301 16.5 9s8 11.167 11 19.5s6.16699 19.5 9.5 33.5l37 173c4 16.667 6 29.667 6 39
c0 10 -3.16699 16.167 -9.5 18.5s-17.166 3.5 -32.499 3.5h-49z" />
    <glyph glyph-name="germandbls" unicode="&#xdf;" horiz-adv-x="393" 
d="M464 538c-4.66699 -20.667 -10.167 -37.499 -16.5 -50.499s-13.5 -23.5 -21.5 -31.5s-16.167 -13.833 -24.5 -17.5s-16.833 -6.5 -25.5 -8.5l-1 -4c16 -3.33301 29.333 -10 40 -20s16 -27.333 16 -52c0 -14 -2 -31 -6 -51l-32 -148c-7.33301 -32 -15 -58 -23 -78
s-18.5 -35.667 -31.5 -47s-29.167 -19.166 -48.5 -23.499s-43.666 -6.5 -72.999 -6.5h-52l21 102h39c16 0 28.167 3.66699 36.5 11s14.833 21.333 19.5 42l36 168c1.33301 5.33301 2.33301 10.166 3 14.499s1 8.16602 1 11.499c0 11.333 -3.33301 18.833 -10 22.5
s-17.667 5.5 -33 5.5h-37l21 102h29c19.333 0 33 3.83301 41 11.5s14 20.167 18 37.5l29 136c2 10 3 18.333 3 25c0 9.33301 -3 15.833 -9 19.5s-16.667 5.5 -32 5.5c-21.333 0 -35.666 -3.33301 -42.999 -10s-13 -20 -17 -40l-141 -664h-102l142 669
c5.33301 26 12.833 47.5 22.5 64.5s21.667 30.5 36 40.5s31.166 16.833 50.499 20.5s41.666 5.5 66.999 5.5c48.667 0 84.5 -5.5 107.5 -16.5s34.5 -32.833 34.5 -65.5c0 -14 -2 -30.333 -6 -49z" />
    <glyph glyph-name="agrave" unicode="&#xe0;" horiz-adv-x="353" 
d="M159 -10c-20 0 -36.8281 0.666016 -50.4951 1.99902s-24.834 4.16602 -33.501 8.49902s-15 10.333 -19 18s-6 17.834 -6 30.501c0 13.333 2.66699 32.333 8 57l31 145c7.33301 36 19.666 62.333 36.999 79s42.666 25 75.999 25h19c22.667 0 38.5 -0.833008 47.5 -2.5
s15.5 -3.83398 19.5 -6.50098l26 124c2.66699 10.667 4 20.334 4 29.001c0 9.33301 -3 15.5 -9 18.5s-15.667 4.5 -29 4.5c-17.333 0 -29.333 -3.66699 -36 -11s-12 -21 -16 -41l-12 -59h-93l15 71c6 28 12.667 50.333 20 67s16.833 29.5 28.5 38.5s26.5 14.833 44.5 17.5
s40.667 4 68 4c45.333 0 77.666 -3.83301 96.999 -11.5s29 -25.167 29 -52.5c0 -8 -0.833008 -17.167 -2.5 -27.5s-3.83398 -22.166 -6.50098 -35.499l-102 -482c-13.333 -3.33301 -32.5 -5.83301 -57.5 -7.5s-57.5 -2.5 -97.5 -2.5zM185.005 73.999
c14.667 0 25.332 0.167969 31.999 0.500977s11.334 0.833008 14.001 1.5l41 196c-6.66699 4 -20.667 6 -42 6c-10 0 -18 -0.833008 -24 -2.5s-10.833 -4.5 -14.5 -8.5s-6.66699 -9.5 -9 -16.5s-4.5 -15.5 -6.5 -25.5l-20 -94l-3.5 -19.5
c-1 -5.66699 -1.5 -10.834 -1.5 -15.501c0 -8.66699 2.33301 -14.5 7 -17.5s13.667 -4.5 27 -4.5zM368.003 639h-74l-63 166h107z" />
    <glyph glyph-name="aacute" unicode="&#xe1;" horiz-adv-x="353" 
d="M159 -10c-20 0 -36.8281 0.666016 -50.4951 1.99902s-24.834 4.16602 -33.501 8.49902s-15 10.333 -19 18s-6 17.834 -6 30.501c0 13.333 2.66699 32.333 8 57l31 145c7.33301 36 19.666 62.333 36.999 79s42.666 25 75.999 25h19c22.667 0 38.5 -0.833008 47.5 -2.5
s15.5 -3.83398 19.5 -6.50098l26 124c2.66699 10.667 4 20.334 4 29.001c0 9.33301 -3 15.5 -9 18.5s-15.667 4.5 -29 4.5c-17.333 0 -29.333 -3.66699 -36 -11s-12 -21 -16 -41l-12 -59h-93l15 71c6 28 12.667 50.333 20 67s16.833 29.5 28.5 38.5s26.5 14.833 44.5 17.5
s40.667 4 68 4c45.333 0 77.666 -3.83301 96.999 -11.5s29 -25.167 29 -52.5c0 -8 -0.833008 -17.167 -2.5 -27.5s-3.83398 -22.166 -6.50098 -35.499l-102 -482c-13.333 -3.33301 -32.5 -5.83301 -57.5 -7.5s-57.5 -2.5 -97.5 -2.5zM185.005 73.999
c14.667 0 25.332 0.167969 31.999 0.500977s11.334 0.833008 14.001 1.5l41 196c-6.66699 4 -20.667 6 -42 6c-10 0 -18 -0.833008 -24 -2.5s-10.833 -4.5 -14.5 -8.5s-6.66699 -9.5 -9 -16.5s-4.5 -15.5 -6.5 -25.5l-20 -94l-3.5 -19.5
c-1 -5.66699 -1.5 -10.834 -1.5 -15.501c0 -8.66699 2.33301 -14.5 7 -17.5s13.667 -4.5 27 -4.5zM351.003 805h113l-128 -166h-81z" />
    <glyph glyph-name="acircumflex" unicode="&#xe2;" horiz-adv-x="353" 
d="M159 -10c-20 0 -36.8281 0.666016 -50.4951 1.99902s-24.834 4.16602 -33.501 8.49902s-15 10.333 -19 18s-6 17.834 -6 30.501c0 13.333 2.66699 32.333 8 57l31 145c7.33301 36 19.666 62.333 36.999 79s42.666 25 75.999 25h19c22.667 0 38.5 -0.833008 47.5 -2.5
s15.5 -3.83398 19.5 -6.50098l26 124c2.66699 10.667 4 20.334 4 29.001c0 9.33301 -3 15.5 -9 18.5s-15.667 4.5 -29 4.5c-17.333 0 -29.333 -3.66699 -36 -11s-12 -21 -16 -41l-12 -59h-93l15 71c6 28 12.667 50.333 20 67s16.833 29.5 28.5 38.5s26.5 14.833 44.5 17.5
s40.667 4 68 4c45.333 0 77.666 -3.83301 96.999 -11.5s29 -25.167 29 -52.5c0 -8 -0.833008 -17.167 -2.5 -27.5s-3.83398 -22.166 -6.50098 -35.499l-102 -482c-13.333 -3.33301 -32.5 -5.83301 -57.5 -7.5s-57.5 -2.5 -97.5 -2.5zM185.005 73.999
c14.667 0 25.332 0.167969 31.999 0.500977s11.334 0.833008 14.001 1.5l41 196c-6.66699 4 -20.667 6 -42 6c-10 0 -18 -0.833008 -24 -2.5s-10.833 -4.5 -14.5 -8.5s-6.66699 -9.5 -9 -16.5s-4.5 -15.5 -6.5 -25.5l-20 -94l-3.5 -19.5
c-1 -5.66699 -1.5 -10.834 -1.5 -15.501c0 -8.66699 2.33301 -14.5 7 -17.5s13.667 -4.5 27 -4.5zM457.003 639h-70l-50 109l-96 -109h-74l138 166h87z" />
    <glyph glyph-name="atilde" unicode="&#xe3;" horiz-adv-x="353" 
d="M159 -10c-20 0 -36.8281 0.666016 -50.4951 1.99902s-24.834 4.16602 -33.501 8.49902s-15 10.333 -19 18s-6 17.834 -6 30.501c0 13.333 2.66699 32.333 8 57l31 145c7.33301 36 19.666 62.333 36.999 79s42.666 25 75.999 25h19c22.667 0 38.5 -0.833008 47.5 -2.5
s15.5 -3.83398 19.5 -6.50098l26 124c2.66699 10.667 4 20.334 4 29.001c0 9.33301 -3 15.5 -9 18.5s-15.667 4.5 -29 4.5c-17.333 0 -29.333 -3.66699 -36 -11s-12 -21 -16 -41l-12 -59h-93l15 71c6 28 12.667 50.333 20 67s16.833 29.5 28.5 38.5s26.5 14.833 44.5 17.5
s40.667 4 68 4c45.333 0 77.666 -3.83301 96.999 -11.5s29 -25.167 29 -52.5c0 -8 -0.833008 -17.167 -2.5 -27.5s-3.83398 -22.166 -6.50098 -35.499l-102 -482c-13.333 -3.33301 -32.5 -5.83301 -57.5 -7.5s-57.5 -2.5 -97.5 -2.5zM185.005 73.999
c14.667 0 25.332 0.167969 31.999 0.500977s11.334 0.833008 14.001 1.5l41 196c-6.66699 4 -20.667 6 -42 6c-10 0 -18 -0.833008 -24 -2.5s-10.833 -4.5 -14.5 -8.5s-6.66699 -9.5 -9 -16.5s-4.5 -15.5 -6.5 -25.5l-20 -94l-3.5 -19.5
c-1 -5.66699 -1.5 -10.834 -1.5 -15.501c0 -8.66699 2.33301 -14.5 7 -17.5s13.667 -4.5 27 -4.5zM252.003 723c-16.667 0 -30.834 -3.33008 -42.501 -9.99707s-22.167 -15.334 -31.5 -26.001l15 73c9.33301 7.33301 20.5 13.5 33.5 18.5s26.5 7.5 40.5 7.5
s27 -1.66699 39 -5s23.667 -6.83301 35 -10.5s23 -7.16699 35 -10.5s25 -5 39 -5c30.667 0 56.334 12 77.001 36l-16 -72c-9.33301 -8.66699 -20.5 -15.667 -33.5 -21s-27.167 -8 -42.5 -8c-14 0 -27 1.66699 -39 5s-23.667 7.16602 -35 11.499s-23 8.16602 -35 11.499
s-25 5 -39 5z" />
    <glyph glyph-name="adieresis" unicode="&#xe4;" horiz-adv-x="353" 
d="M159 -10c-20 0 -36.8281 0.666016 -50.4951 1.99902s-24.834 4.16602 -33.501 8.49902s-15 10.333 -19 18s-6 17.834 -6 30.501c0 13.333 2.66699 32.333 8 57l31 145c7.33301 36 19.666 62.333 36.999 79s42.666 25 75.999 25h19c22.667 0 38.5 -0.833008 47.5 -2.5
s15.5 -3.83398 19.5 -6.50098l26 124c2.66699 10.667 4 20.334 4 29.001c0 9.33301 -3 15.5 -9 18.5s-15.667 4.5 -29 4.5c-17.333 0 -29.333 -3.66699 -36 -11s-12 -21 -16 -41l-12 -59h-93l15 71c6 28 12.667 50.333 20 67s16.833 29.5 28.5 38.5s26.5 14.833 44.5 17.5
s40.667 4 68 4c45.333 0 77.666 -3.83301 96.999 -11.5s29 -25.167 29 -52.5c0 -8 -0.833008 -17.167 -2.5 -27.5s-3.83398 -22.166 -6.50098 -35.499l-102 -482c-13.333 -3.33301 -32.5 -5.83301 -57.5 -7.5s-57.5 -2.5 -97.5 -2.5zM185.005 73.999
c14.667 0 25.332 0.167969 31.999 0.500977s11.334 0.833008 14.001 1.5l41 196c-6.66699 4 -20.667 6 -42 6c-10 0 -18 -0.833008 -24 -2.5s-10.833 -4.5 -14.5 -8.5s-6.66699 -9.5 -9 -16.5s-4.5 -15.5 -6.5 -25.5l-20 -94l-3.5 -19.5
c-1 -5.66699 -1.5 -10.834 -1.5 -15.501c0 -8.66699 2.33301 -14.5 7 -17.5s13.667 -4.5 27 -4.5zM465.003 686h-102l22 104h102zM284.003 686h-101l22 104h101z" />
    <glyph glyph-name="aring" unicode="&#xe5;" horiz-adv-x="353" 
d="M159 -10c-20 0 -36.8281 0.666016 -50.4951 1.99902s-24.834 4.16602 -33.501 8.49902s-15 10.333 -19 18s-6 17.834 -6 30.501c0 13.333 2.66699 32.333 8 57l31 145c7.33301 36 19.666 62.333 36.999 79s42.666 25 75.999 25h19c22.667 0 38.5 -0.833008 47.5 -2.5
s15.5 -3.83398 19.5 -6.50098l26 124c2.66699 10.667 4 20.334 4 29.001c0 9.33301 -3 15.5 -9 18.5s-15.667 4.5 -29 4.5c-17.333 0 -29.333 -3.66699 -36 -11s-12 -21 -16 -41l-12 -59h-93l15 71c6 28 12.667 50.333 20 67s16.833 29.5 28.5 38.5s26.5 14.833 44.5 17.5
s40.667 4 68 4c45.333 0 77.666 -3.83301 96.999 -11.5s29 -25.167 29 -52.5c0 -8 -0.833008 -17.167 -2.5 -27.5s-3.83398 -22.166 -6.50098 -35.499l-102 -482c-13.333 -3.33301 -32.5 -5.83301 -57.5 -7.5s-57.5 -2.5 -97.5 -2.5zM185.005 73.999
c14.667 0 25.332 0.167969 31.999 0.500977s11.334 0.833008 14.001 1.5l41 196c-6.66699 4 -20.667 6 -42 6c-10 0 -18 -0.833008 -24 -2.5s-10.833 -4.5 -14.5 -8.5s-6.66699 -9.5 -9 -16.5s-4.5 -15.5 -6.5 -25.5l-20 -94l-3.5 -19.5
c-1 -5.66699 -1.5 -10.834 -1.5 -15.501c0 -8.66699 2.33301 -14.5 7 -17.5s13.667 -4.5 27 -4.5zM405.003 697c-3.33301 -15.333 -7.16602 -27.333 -11.499 -36s-10 -15.5 -17 -20.5s-16 -8.16699 -27 -9.5s-24.833 -2 -41.5 -2c-25.333 0 -43.5 2 -54.5 6
s-16.5 13.667 -16.5 29c0 4.66699 0.5 9.5 1.5 14.5s2.16699 11.167 3.5 18.5l8 40c2.66699 14.667 6.16699 26.5 10.5 35.5s10.166 16 17.499 21s16.5 8.16699 27.5 9.5s24.5 2 40.5 2c26 0 44.333 -2 55 -6s16 -13.667 16 -29c0 -9.33301 -1.33301 -20.333 -4 -33z
M370.003 733c1.33301 6.66699 1.99902 11.001 1.99902 13.001c0 7.33301 -2.66699 11.833 -8 13.5s-14.666 2.5 -27.999 2.5c-15.333 0 -26 -1.5 -32 -4.5s-10.333 -11.167 -13 -24.5l-6 -32c-0.666992 -3.33301 -1.16699 -6 -1.5 -8s-0.5 -4 -0.5 -6
c0 -6.66699 2.5 -10.834 7.5 -12.501s13.833 -2.5 26.5 -2.5c16 0 27.167 1.5 33.5 4.5s10.833 11.167 13.5 24.5z" />
    <glyph glyph-name="ae" unicode="&#xe6;" horiz-adv-x="530" 
d="M355 -10c-27.333 1.33301 -47.666 4.50098 -60.999 9.50098s-22.333 11.833 -27 20.5c-10 -9.33301 -23.167 -16.666 -39.5 -21.999s-38.5 -8 -66.5 -8c-20 0 -37 0.666992 -51 2s-25.5 4.16602 -34.5 8.49902s-15.5 10.333 -19.5 18s-6 17.834 -6 30.501
c0 13.333 2.66699 32.333 8 57l31 145c7.33301 36 19.666 62.333 36.999 79s42.666 25 75.999 25h19c22.667 0 38.5 -0.833008 47.5 -2.5s15.5 -3.83398 19.5 -6.50098l26 124c2.66699 10.667 4 20.334 4 29.001c0 9.33301 -3 15.5 -9 18.5s-15.667 4.5 -29 4.5
c-17.333 0 -29.333 -3.66699 -36 -11s-12 -21 -16 -41l-12 -59h-93l15 71c6 28 12.667 50.333 20 67s16.833 29.5 28.5 38.5s26.5 14.833 44.5 17.5s40.667 4 68 4s47.333 -2.83301 60 -8.5s21.667 -13.167 27 -22.5c9.33301 9.33301 21.833 16.833 37.5 22.5
s36.834 8.5 63.501 8.5c42 0 72 -3.66699 90 -11s27 -24.333 27 -51c0 -16.667 -3 -38.334 -9 -65.001l-46 -218h-179l-31 -144c-2 -8 -3 -14.333 -3 -19c0 -8.66699 2.66699 -14.834 8 -18.501s15.333 -5.5 30 -5.5c18.667 0 31 3 37 9s11 18.333 15 37l17 81h93l-19 -87
c-6 -28 -12.667 -50.333 -20 -67s-16.833 -29.5 -28.5 -38.5s-26.5 -14.833 -44.5 -17.5s-41 -4 -69 -4zM272 272.001c-6.66699 4 -20.665 6.00098 -41.998 6.00098c-10 0 -18 -0.833008 -24 -2.5s-10.833 -4.5 -14.5 -8.5s-6.66699 -9.5 -9 -16.5s-4.5 -15.5 -6.5 -25.5
l-20 -94l-3.5 -19.5c-1 -5.66699 -1.5 -10.834 -1.5 -15.501c0 -8.66699 2.5 -14.5 7.5 -17.5s14.167 -4.5 27.5 -4.5c19.333 0 32.166 3.16699 38.499 9.5s11.166 17.5 14.499 33.5zM387.002 345.002l86 -0.000976562l27 129c2 10 3 17.667 3 23
c0 8.66699 -2.5 14.5 -7.5 17.5s-14.167 4.5 -27.5 4.5c-9.33301 0 -17 -0.666992 -23 -2s-11 -3.66602 -15 -6.99902s-7.16699 -7.83301 -9.5 -13.5s-4.5 -13.167 -6.5 -22.5z" />
    <glyph glyph-name="ccedilla" unicode="&#xe7;" horiz-adv-x="347" 
d="M301 377l19.998 93.999c2 8 3 15 3 21c0 8.66699 -2.66699 14.334 -8 17.001s-14.666 4 -27.999 4c-19.333 0 -32.166 -2.66699 -38.499 -8s-11.166 -16.666 -14.499 -33.999l-74 -344c-2 -9.33301 -3 -16.333 -3 -21c0 -9.33301 2.83301 -15.333 8.5 -18
s15.5 -4 29.5 -4c17.333 0 29.333 3.16699 36 9.5s11.667 17.5 15 33.5l33 155h93l-35 -165c-6 -28 -12.833 -50.5 -20.5 -67.5s-17.5 -29.833 -29.5 -38.5s-27 -14.334 -45 -17.001s-40.333 -4 -67 -4c-22.667 0 -41.834 0.833008 -57.501 2.5s-28.5 4.83398 -38.5 9.50098
s-17.167 11.167 -21.5 19.5s-6.5 19.166 -6.5 32.499c0 8.66699 0.5 18 1.5 28s3.16699 21.667 6.5 35l78 365c6 28 12.667 50.333 20 67s17.333 29.5 30 38.5s28.5 14.833 47.5 17.5s43.167 4 72.5 4c42.667 0 72.834 -4.16699 90.501 -12.5s26.5 -25.5 26.5 -51.5
c0 -8.66699 -0.833008 -18.5 -2.5 -29.5s-3.83398 -22.167 -6.50098 -33.5l-22 -105h-93zM116.998 -20.001h102l-117 -165h-70z" />
    <glyph glyph-name="egrave" unicode="&#xe8;" horiz-adv-x="349" 
d="M192 264l-29.9971 -140.998c-1.33301 -5.33301 -2.33301 -10 -3 -14s-1 -7.66699 -1 -11c0 -8.66699 2.83301 -14.334 8.5 -17.001s15.167 -4 28.5 -4c18 0 30.333 2.83301 37 8.5s12 18.167 16 37.5l17 81h92l-19 -87c-6 -28 -12.667 -50.333 -20 -67
s-16.833 -29.5 -28.5 -38.5s-26.5 -14.833 -44.5 -17.5s-41 -4 -69 -4c-45.333 0 -77.333 3.83301 -96 11.5s-28 25.167 -28 52.5c0 8.66699 0.5 18 1.5 28s3.16699 21.667 6.5 35l78 365c6 28 12.667 50.333 20 67s17.166 29.5 29.499 38.5s28.166 14.833 47.499 17.5
s43.666 4 72.999 4c42 0 72 -3.66699 90 -11s27 -24.333 27 -51c0 -16.667 -3 -38.334 -9 -65.001l-46 -218h-178zM209.003 346.002l85.999 -0.00195312l27 128c2 10 3 18 3 24c0 8.66699 -2.66699 14.334 -8 17.001s-14.666 4 -27.999 4
c-18.667 0 -31.167 -2.66699 -37.5 -8s-11.5 -17.666 -15.5 -36.999zM366.002 639h-74l-63 166h107z" />
    <glyph glyph-name="egrave" unicode="&#x450;" horiz-adv-x="349" 
d="M192 264l-29.9971 -140.998c-1.33301 -5.33301 -2.33301 -10 -3 -14s-1 -7.66699 -1 -11c0 -8.66699 2.83301 -14.334 8.5 -17.001s15.167 -4 28.5 -4c18 0 30.333 2.83301 37 8.5s12 18.167 16 37.5l17 81h92l-19 -87c-6 -28 -12.667 -50.333 -20 -67
s-16.833 -29.5 -28.5 -38.5s-26.5 -14.833 -44.5 -17.5s-41 -4 -69 -4c-45.333 0 -77.333 3.83301 -96 11.5s-28 25.167 -28 52.5c0 8.66699 0.5 18 1.5 28s3.16699 21.667 6.5 35l78 365c6 28 12.667 50.333 20 67s17.166 29.5 29.499 38.5s28.166 14.833 47.499 17.5
s43.666 4 72.999 4c42 0 72 -3.66699 90 -11s27 -24.333 27 -51c0 -16.667 -3 -38.334 -9 -65.001l-46 -218h-178zM209.003 346.002l85.999 -0.00195312l27 128c2 10 3 18 3 24c0 8.66699 -2.66699 14.334 -8 17.001s-14.666 4 -27.999 4
c-18.667 0 -31.167 -2.66699 -37.5 -8s-11.5 -17.666 -15.5 -36.999zM366.002 639h-74l-63 166h107z" />
    <glyph glyph-name="eacute" unicode="&#xe9;" horiz-adv-x="349" 
d="M192 264l-29.9971 -140.998c-1.33301 -5.33301 -2.33301 -10 -3 -14s-1 -7.66699 -1 -11c0 -8.66699 2.83301 -14.334 8.5 -17.001s15.167 -4 28.5 -4c18 0 30.333 2.83301 37 8.5s12 18.167 16 37.5l17 81h92l-19 -87c-6 -28 -12.667 -50.333 -20 -67
s-16.833 -29.5 -28.5 -38.5s-26.5 -14.833 -44.5 -17.5s-41 -4 -69 -4c-45.333 0 -77.333 3.83301 -96 11.5s-28 25.167 -28 52.5c0 8.66699 0.5 18 1.5 28s3.16699 21.667 6.5 35l78 365c6 28 12.667 50.333 20 67s17.166 29.5 29.499 38.5s28.166 14.833 47.499 17.5
s43.666 4 72.999 4c42 0 72 -3.66699 90 -11s27 -24.333 27 -51c0 -16.667 -3 -38.334 -9 -65.001l-46 -218h-178zM209.003 346.002l85.999 -0.00195312l27 128c2 10 3 18 3 24c0 8.66699 -2.66699 14.334 -8 17.001s-14.666 4 -27.999 4
c-18.667 0 -31.167 -2.66699 -37.5 -8s-11.5 -17.666 -15.5 -36.999zM349.002 805h113l-128 -166h-81z" />
    <glyph glyph-name="ecircumflex" unicode="&#xea;" horiz-adv-x="349" 
d="M192 264l-29.9971 -140.998c-1.33301 -5.33301 -2.33301 -10 -3 -14s-1 -7.66699 -1 -11c0 -8.66699 2.83301 -14.334 8.5 -17.001s15.167 -4 28.5 -4c18 0 30.333 2.83301 37 8.5s12 18.167 16 37.5l17 81h92l-19 -87c-6 -28 -12.667 -50.333 -20 -67
s-16.833 -29.5 -28.5 -38.5s-26.5 -14.833 -44.5 -17.5s-41 -4 -69 -4c-45.333 0 -77.333 3.83301 -96 11.5s-28 25.167 -28 52.5c0 8.66699 0.5 18 1.5 28s3.16699 21.667 6.5 35l78 365c6 28 12.667 50.333 20 67s17.166 29.5 29.499 38.5s28.166 14.833 47.499 17.5
s43.666 4 72.999 4c42 0 72 -3.66699 90 -11s27 -24.333 27 -51c0 -16.667 -3 -38.334 -9 -65.001l-46 -218h-178zM209.003 346.002l85.999 -0.00195312l27 128c2 10 3 18 3 24c0 8.66699 -2.66699 14.334 -8 17.001s-14.666 4 -27.999 4
c-18.667 0 -31.167 -2.66699 -37.5 -8s-11.5 -17.666 -15.5 -36.999zM455.002 639h-70l-50 109l-96 -109h-74l138 166h87z" />
    <glyph glyph-name="edieresis" unicode="&#xeb;" horiz-adv-x="349" 
d="M192 264l-29.9971 -140.998c-1.33301 -5.33301 -2.33301 -10 -3 -14s-1 -7.66699 -1 -11c0 -8.66699 2.83301 -14.334 8.5 -17.001s15.167 -4 28.5 -4c18 0 30.333 2.83301 37 8.5s12 18.167 16 37.5l17 81h92l-19 -87c-6 -28 -12.667 -50.333 -20 -67
s-16.833 -29.5 -28.5 -38.5s-26.5 -14.833 -44.5 -17.5s-41 -4 -69 -4c-45.333 0 -77.333 3.83301 -96 11.5s-28 25.167 -28 52.5c0 8.66699 0.5 18 1.5 28s3.16699 21.667 6.5 35l78 365c6 28 12.667 50.333 20 67s17.166 29.5 29.499 38.5s28.166 14.833 47.499 17.5
s43.666 4 72.999 4c42 0 72 -3.66699 90 -11s27 -24.333 27 -51c0 -16.667 -3 -38.334 -9 -65.001l-46 -218h-178zM209.003 346.002l85.999 -0.00195312l27 128c2 10 3 18 3 24c0 8.66699 -2.66699 14.334 -8 17.001s-14.666 4 -27.999 4
c-18.667 0 -31.167 -2.66699 -37.5 -8s-11.5 -17.666 -15.5 -36.999zM463.002 686h-102l22 104h102zM282.002 686h-101l22 104h101z" />
    <glyph glyph-name="edieresis" unicode="&#x451;" horiz-adv-x="349" 
d="M192 264l-29.9971 -140.998c-1.33301 -5.33301 -2.33301 -10 -3 -14s-1 -7.66699 -1 -11c0 -8.66699 2.83301 -14.334 8.5 -17.001s15.167 -4 28.5 -4c18 0 30.333 2.83301 37 8.5s12 18.167 16 37.5l17 81h92l-19 -87c-6 -28 -12.667 -50.333 -20 -67
s-16.833 -29.5 -28.5 -38.5s-26.5 -14.833 -44.5 -17.5s-41 -4 -69 -4c-45.333 0 -77.333 3.83301 -96 11.5s-28 25.167 -28 52.5c0 8.66699 0.5 18 1.5 28s3.16699 21.667 6.5 35l78 365c6 28 12.667 50.333 20 67s17.166 29.5 29.499 38.5s28.166 14.833 47.499 17.5
s43.666 4 72.999 4c42 0 72 -3.66699 90 -11s27 -24.333 27 -51c0 -16.667 -3 -38.334 -9 -65.001l-46 -218h-178zM209.003 346.002l85.999 -0.00195312l27 128c2 10 3 18 3 24c0 8.66699 -2.66699 14.334 -8 17.001s-14.666 4 -27.999 4
c-18.667 0 -31.167 -2.66699 -37.5 -8s-11.5 -17.666 -15.5 -36.999zM463.002 686h-102l22 104h102zM282.002 686h-101l22 104h101z" />
    <glyph glyph-name="igrave" unicode="&#xec;" horiz-adv-x="205" 
d="M301 639h-74l-63 166h107zM161 0h-101l127 599h101z" />
    <glyph glyph-name="iacute" unicode="&#xed;" horiz-adv-x="213" 
d="M270 805h113l-128 -166h-81zM147 0h-101l127 599h101z" />
    <glyph glyph-name="icircumflex" unicode="&#xee;" horiz-adv-x="255" 
d="M178 0h-101l127 599h101zM408 639h-70l-50 109l-96 -109h-74l138 166h87z" />
    <glyph glyph-name="idieresis" unicode="&#xef;" horiz-adv-x="271" 
d="M423 686h-102l22 104h102zM242 686h-101l22 104h101zM186 0h-101l127 599h101z" />
    <glyph glyph-name="idieresis" unicode="&#x457;" horiz-adv-x="271" 
d="M423 686h-102l22 104h102zM242 686h-101l22 104h101zM186 0h-101l127 599h101z" />
    <glyph glyph-name="eth" unicode="&#xf0;" horiz-adv-x="358" 
d="M174 623l79 38.9971l-46 128h112l28 -81l76 38l15 -47l-75 -37l23 -63c10.667 -30 18 -55 22 -75s6.33301 -39.333 7 -58c0 -12.667 -1 -25.667 -3 -39s-4.66699 -28.333 -8 -45l-57 -266c-6 -28 -12.667 -50.333 -20 -67s-17.166 -29.5 -29.499 -38.5
s-28 -14.833 -47 -17.5s-43.5 -4 -73.5 -4c-45.333 0 -77.333 3.83301 -96 11.5s-28 25.167 -28 52.5c0 8.66699 0.5 18 1.5 28s3.16699 21.667 6.5 35l64 301c8.66699 40 20.5 69.167 35.5 87.5s37.5 27.5 67.5 27.5c20 0 35.333 -2.66699 46 -8
s22.334 -14.666 35.001 -27.999c-0.666992 4 -1.33398 7.66699 -2.00098 11s-1.83398 7.33301 -3.50098 12s-3.5 10.334 -5.5 17.001s-5 15.334 -9 26.001l-19 53l-81 -41zM270 456.997c-18 0 -29.8301 -5.66699 -35.4971 -17s-10.834 -28.333 -15.501 -51l-49 -233
c-2.66699 -12.667 -5 -23.167 -7 -31.5s-3 -15.166 -3 -20.499c0 -9.33301 2.83301 -15 8.5 -17s15.167 -3 28.5 -3c9.33301 0 17.166 1 23.499 3s11.666 5.66699 15.999 11s7.83301 12.666 10.5 21.999s5.66699 21 9 35l53 249c-0.666992 17.333 -3 30.5 -7 39.5
s-14.667 13.5 -32 13.5z" />
    <glyph glyph-name="ntilde" unicode="&#xf1;" horiz-adv-x="378" 
d="M146 0h-102.002l127 599h95l-9 -40c10.667 14.667 24.334 25.834 41.001 33.501s37.667 11.5 63 11.5c30.667 0 52.834 -4.66699 66.501 -14s20.5 -26.333 20.5 -51c0 -17.333 -2.33301 -36.333 -7 -57l-102 -482h-102l100 471
c0.666992 3.33301 1.16699 6.16602 1.5 8.49902s0.5 4.83301 0.5 7.5c0 16.667 -12.667 25 -38 25c-13.333 0 -24 -2.83301 -32 -8.5s-15 -13.167 -21 -22.5zM263.998 723c-16.667 0 -30.834 -3.33008 -42.501 -9.99707s-22.167 -15.334 -31.5 -26.001l15 73
c9.33301 7.33301 20.5 13.5 33.5 18.5s26.5 7.5 40.5 7.5s27 -1.66699 39 -5s23.667 -6.83301 35 -10.5s23 -7.16699 35 -10.5s25 -5 39 -5c30.667 0 56.334 12 77.001 36l-16 -72c-9.33301 -8.66699 -20.5 -15.667 -33.5 -21s-27.167 -8 -42.5 -8c-14 0 -27 1.66699 -39 5
s-23.667 7.16602 -35 11.499s-23 8.16602 -35 11.499s-25 5 -39 5z" />
    <glyph glyph-name="ograve" unicode="&#xf2;" horiz-adv-x="358" 
d="M346 117c-6 -28 -12.6641 -50.333 -19.9971 -67s-17.333 -29.5 -30 -38.5s-28.5 -14.833 -47.5 -17.5s-43.167 -4 -72.5 -4c-45.333 0 -77.333 3.83301 -96 11.5s-28 25.167 -28 52.5c0 8.66699 0.5 18 1.5 28s3.16699 21.667 6.5 35l78 365c6 28 12.667 50.333 20 67
s17.166 29.5 29.499 38.5s28.166 14.833 47.499 17.5s43.666 4 72.999 4c44.667 0 76.5 -3.83301 95.5 -11.5s28.5 -25.167 28.5 -52.5c0 -8.66699 -0.666992 -18 -2 -28s-3.33301 -21.667 -6 -35zM323.003 471c2 8 3.00293 15 3.00293 21
c0 8.66699 -2.83301 14.334 -8.5 17.001s-15.5 4 -29.5 4c-18.667 0 -31.334 -2.83301 -38.001 -8.5s-11.667 -16.834 -15 -33.501l-74 -344c-2 -9.33301 -3 -16.333 -3 -21c0 -9.33301 2.83301 -15.333 8.5 -18s15.5 -4 29.5 -4c19.333 0 32.166 3.16699 38.499 9.5
s11.166 17.5 14.499 33.5zM370.006 639h-74l-63 166h107z" />
    <glyph glyph-name="oacute" unicode="&#xf3;" horiz-adv-x="358" 
d="M346 117c-6 -28 -12.6641 -50.333 -19.9971 -67s-17.333 -29.5 -30 -38.5s-28.5 -14.833 -47.5 -17.5s-43.167 -4 -72.5 -4c-45.333 0 -77.333 3.83301 -96 11.5s-28 25.167 -28 52.5c0 8.66699 0.5 18 1.5 28s3.16699 21.667 6.5 35l78 365c6 28 12.667 50.333 20 67
s17.166 29.5 29.499 38.5s28.166 14.833 47.499 17.5s43.666 4 72.999 4c44.667 0 76.5 -3.83301 95.5 -11.5s28.5 -25.167 28.5 -52.5c0 -8.66699 -0.666992 -18 -2 -28s-3.33301 -21.667 -6 -35zM323.003 471c2 8 3.00293 15 3.00293 21
c0 8.66699 -2.83301 14.334 -8.5 17.001s-15.5 4 -29.5 4c-18.667 0 -31.334 -2.83301 -38.001 -8.5s-11.667 -16.834 -15 -33.501l-74 -344c-2 -9.33301 -3 -16.333 -3 -21c0 -9.33301 2.83301 -15.333 8.5 -18s15.5 -4 29.5 -4c19.333 0 32.166 3.16699 38.499 9.5
s11.166 17.5 14.499 33.5zM353.006 805h113l-128 -166h-81z" />
    <glyph glyph-name="ocircumflex" unicode="&#xf4;" horiz-adv-x="358" 
d="M346 117c-6 -28 -12.6641 -50.333 -19.9971 -67s-17.333 -29.5 -30 -38.5s-28.5 -14.833 -47.5 -17.5s-43.167 -4 -72.5 -4c-45.333 0 -77.333 3.83301 -96 11.5s-28 25.167 -28 52.5c0 8.66699 0.5 18 1.5 28s3.16699 21.667 6.5 35l78 365c6 28 12.667 50.333 20 67
s17.166 29.5 29.499 38.5s28.166 14.833 47.499 17.5s43.666 4 72.999 4c44.667 0 76.5 -3.83301 95.5 -11.5s28.5 -25.167 28.5 -52.5c0 -8.66699 -0.666992 -18 -2 -28s-3.33301 -21.667 -6 -35zM323.003 471c2 8 3.00293 15 3.00293 21
c0 8.66699 -2.83301 14.334 -8.5 17.001s-15.5 4 -29.5 4c-18.667 0 -31.334 -2.83301 -38.001 -8.5s-11.667 -16.834 -15 -33.501l-74 -344c-2 -9.33301 -3 -16.333 -3 -21c0 -9.33301 2.83301 -15.333 8.5 -18s15.5 -4 29.5 -4c19.333 0 32.166 3.16699 38.499 9.5
s11.166 17.5 14.499 33.5zM459.006 639h-70l-50 109l-96 -109h-74l138 166h87z" />
    <glyph glyph-name="otilde" unicode="&#xf5;" horiz-adv-x="358" 
d="M346 117c-6 -28 -12.6641 -50.333 -19.9971 -67s-17.333 -29.5 -30 -38.5s-28.5 -14.833 -47.5 -17.5s-43.167 -4 -72.5 -4c-45.333 0 -77.333 3.83301 -96 11.5s-28 25.167 -28 52.5c0 8.66699 0.5 18 1.5 28s3.16699 21.667 6.5 35l78 365c6 28 12.667 50.333 20 67
s17.166 29.5 29.499 38.5s28.166 14.833 47.499 17.5s43.666 4 72.999 4c44.667 0 76.5 -3.83301 95.5 -11.5s28.5 -25.167 28.5 -52.5c0 -8.66699 -0.666992 -18 -2 -28s-3.33301 -21.667 -6 -35zM323.003 471c2 8 3.00293 15 3.00293 21
c0 8.66699 -2.83301 14.334 -8.5 17.001s-15.5 4 -29.5 4c-18.667 0 -31.334 -2.83301 -38.001 -8.5s-11.667 -16.834 -15 -33.501l-74 -344c-2 -9.33301 -3 -16.333 -3 -21c0 -9.33301 2.83301 -15.333 8.5 -18s15.5 -4 29.5 -4c19.333 0 32.166 3.16699 38.499 9.5
s11.166 17.5 14.499 33.5zM253.006 723c-16.667 0 -30.834 -3.33008 -42.501 -9.99707s-22.167 -15.334 -31.5 -26.001l15 73c9.33301 7.33301 20.5 13.5 33.5 18.5s26.5 7.5 40.5 7.5s27 -1.66699 39 -5s23.667 -6.83301 35 -10.5s23 -7.16699 35 -10.5s25 -5 39 -5
c30.667 0 56.334 12 77.001 36l-16 -72c-9.33301 -8.66699 -20.5 -15.667 -33.5 -21s-27.167 -8 -42.5 -8c-14 0 -27 1.66699 -39 5s-23.667 7.16602 -35 11.499s-23 8.16602 -35 11.499s-25 5 -39 5z" />
    <glyph glyph-name="odieresis" unicode="&#xf6;" horiz-adv-x="358" 
d="M346 117c-6 -28 -12.6641 -50.333 -19.9971 -67s-17.333 -29.5 -30 -38.5s-28.5 -14.833 -47.5 -17.5s-43.167 -4 -72.5 -4c-45.333 0 -77.333 3.83301 -96 11.5s-28 25.167 -28 52.5c0 8.66699 0.5 18 1.5 28s3.16699 21.667 6.5 35l78 365c6 28 12.667 50.333 20 67
s17.166 29.5 29.499 38.5s28.166 14.833 47.499 17.5s43.666 4 72.999 4c44.667 0 76.5 -3.83301 95.5 -11.5s28.5 -25.167 28.5 -52.5c0 -8.66699 -0.666992 -18 -2 -28s-3.33301 -21.667 -6 -35zM323.003 471c2 8 3.00293 15 3.00293 21
c0 8.66699 -2.83301 14.334 -8.5 17.001s-15.5 4 -29.5 4c-18.667 0 -31.334 -2.83301 -38.001 -8.5s-11.667 -16.834 -15 -33.501l-74 -344c-2 -9.33301 -3 -16.333 -3 -21c0 -9.33301 2.83301 -15.333 8.5 -18s15.5 -4 29.5 -4c19.333 0 32.166 3.16699 38.499 9.5
s11.166 17.5 14.499 33.5zM466.006 686h-102l22 104h102zM285.006 686h-101l22 104h101z" />
    <glyph glyph-name="divide" unicode="&#xf7;" horiz-adv-x="493" 
d="M119 354l19 91h407l-19 -91h-407zM415 544h-105l28 132h105zM326 125h-105l28 132h105z" />
    <glyph glyph-name="oslash" unicode="&#xf8;" horiz-adv-x="358" 
d="M346 117c-6 -28 -12.6631 -50.332 -19.9961 -66.999s-17.333 -29.5 -30 -38.5s-28.5 -14.833 -47.5 -17.5s-43.167 -4 -72.5 -4c-10.667 0 -20.334 0.166992 -29.001 0.5s-16.667 0.833008 -24 1.5l-31 -61h-71l41 83c-7.33301 8 -11 20.667 -11 38c0 16 3 37.667 9 65
l78 365c6 28 12.667 50.333 20 67s17.166 29.5 29.499 38.5s28.166 14.833 47.499 17.5s43.666 4 72.999 4c10 0 19.5 -0.166992 28.5 -0.5s17.5 -0.833008 25.5 -1.5l30 61h71l-42 -84c7.33301 -8 11 -21.333 11 -40c0 -14.667 -2.66699 -35.334 -8 -62.001z
M292.004 328.001l-121.998 -242c3.33301 -1.33301 7 -2 11 -2h15c19.333 0 32.166 3.16699 38.499 9.5s11.166 17.5 14.499 33.5zM192.006 270.001l121 240.001c-7.33301 2 -15.666 3 -24.999 3c-18.667 0 -31.334 -2.83301 -38.001 -8.5s-11.667 -16.834 -15 -33.501z" />
    <glyph glyph-name="ugrave" unicode="&#xf9;" horiz-adv-x="376" 
d="M357 599l103.002 0.00195312l-127 -599h-96l8 39c-10.667 -14.667 -24.167 -25.667 -40.5 -33s-36.833 -11 -61.5 -11c-30.667 0 -52.834 4.5 -66.501 13.5s-20.5 25.833 -20.5 50.5c0 8 0.666992 16.833 2 26.5s3.33301 20.167 6 31.5l103 482h102l-101 -472
c-0.666992 -3.33301 -1.16699 -6.33301 -1.5 -9s-0.5 -5.33398 -0.5 -8.00098c0 -8.66699 2.66699 -14.834 8 -18.501s14.666 -5.5 27.999 -5.5s23.833 2.83301 31.5 8.5s14.5 13.167 20.5 22.5zM379.002 639.002h-74l-63 166h107z" />
    <glyph glyph-name="uacute" unicode="&#xfa;" horiz-adv-x="376" 
d="M357 599l103.002 0.00195312l-127 -599h-96l8 39c-10.667 -14.667 -24.167 -25.667 -40.5 -33s-36.833 -11 -61.5 -11c-30.667 0 -52.834 4.5 -66.501 13.5s-20.5 25.833 -20.5 50.5c0 8 0.666992 16.833 2 26.5s3.33301 20.167 6 31.5l103 482h102l-101 -472
c-0.666992 -3.33301 -1.16699 -6.33301 -1.5 -9s-0.5 -5.33398 -0.5 -8.00098c0 -8.66699 2.66699 -14.834 8 -18.501s14.666 -5.5 27.999 -5.5s23.833 2.83301 31.5 8.5s14.5 13.167 20.5 22.5zM362.002 805.002h113l-128 -166h-81z" />
    <glyph glyph-name="ucircumflex" unicode="&#xfb;" horiz-adv-x="376" 
d="M357 599l103.002 0.00195312l-127 -599h-96l8 39c-10.667 -14.667 -24.167 -25.667 -40.5 -33s-36.833 -11 -61.5 -11c-30.667 0 -52.834 4.5 -66.501 13.5s-20.5 25.833 -20.5 50.5c0 8 0.666992 16.833 2 26.5s3.33301 20.167 6 31.5l103 482h102l-101 -472
c-0.666992 -3.33301 -1.16699 -6.33301 -1.5 -9s-0.5 -5.33398 -0.5 -8.00098c0 -8.66699 2.66699 -14.834 8 -18.501s14.666 -5.5 27.999 -5.5s23.833 2.83301 31.5 8.5s14.5 13.167 20.5 22.5zM468.002 639.002h-70l-50 109l-96 -109h-74l138 166h87z" />
    <glyph glyph-name="udieresis" unicode="&#xfc;" horiz-adv-x="376" 
d="M357 599l103.002 0.00195312l-127 -599h-96l8 39c-10.667 -14.667 -24.167 -25.667 -40.5 -33s-36.833 -11 -61.5 -11c-30.667 0 -52.834 4.5 -66.501 13.5s-20.5 25.833 -20.5 50.5c0 8 0.666992 16.833 2 26.5s3.33301 20.167 6 31.5l103 482h102l-101 -472
c-0.666992 -3.33301 -1.16699 -6.33301 -1.5 -9s-0.5 -5.33398 -0.5 -8.00098c0 -8.66699 2.66699 -14.834 8 -18.501s14.666 -5.5 27.999 -5.5s23.833 2.83301 31.5 8.5s14.5 13.167 20.5 22.5zM475.002 686.002h-102l22 104h102zM294.002 686.002h-101l22 104h101z" />
    <glyph glyph-name="yacute" unicode="&#xfd;" horiz-adv-x="378" 
d="M360 599h102.003l-130 -609c-10.667 -48.667 -29 -84.667 -55 -108s-64.333 -35 -115 -35h-134l18 86h109c23.333 0 40 3.83301 50 11.5s17.667 22.834 23 45.501l17 77c-10.667 -13.333 -23.834 -23.5 -39.501 -30.5s-34.834 -10.5 -57.501 -10.5
c-30 0 -51.667 4.5 -65 13.5s-20 25.833 -20 50.5c0 14 2.66699 33.333 8 58l96 451h102l-92 -432c-2 -9.33301 -3 -17 -3 -23c0 -10.667 3 -17.834 9 -21.501s15.667 -5.5 29 -5.5c11.333 0 21.166 2.83301 29.499 8.5s15.833 13.167 22.5 22.5zM363.003 805h113l-128 -166
h-81z" />
    <glyph glyph-name="thorn" unicode="&#xfe;" horiz-adv-x="366" 
d="M354 117c-5.33301 -24 -10.999 -43.832 -16.999 -59.499s-13.5 -28.167 -22.5 -37.5s-20.167 -15.833 -33.5 -19.5s-30 -5.5 -50 -5.5c-23.333 0 -40.833 3.5 -52.5 10.5s-20.167 17.167 -25.5 30.5l-40 -189h-102l200 943h102l-48 -228
c10 13.333 22.667 23.666 38 30.999s34.666 11 57.999 11c28.667 0 49 -4.33301 61 -13s18 -24 18 -46c0 -15.333 -2.66699 -36.333 -8 -63zM167.001 117.001c4.66699 -20.667 17.6641 -30.999 38.9971 -30.999c17.333 0 29.333 3.33301 36 10s12.334 20 17.001 40l70 326
c2 10 3 18.667 3 26c0 9.33301 -2.66699 15.666 -8 18.999s-14.666 5 -27.999 5c-11.333 0 -21.166 -2.83301 -29.499 -8.5s-15.5 -13.167 -21.5 -22.5z" />
    <glyph glyph-name="ydieresis" unicode="&#xff;" horiz-adv-x="378" 
d="M360 599h102.003l-130 -609c-10.667 -48.667 -29 -84.667 -55 -108s-64.333 -35 -115 -35h-134l18 86h109c23.333 0 40 3.83301 50 11.5s17.667 22.834 23 45.501l17 77c-10.667 -13.333 -23.834 -23.5 -39.501 -30.5s-34.834 -10.5 -57.501 -10.5
c-30 0 -51.667 4.5 -65 13.5s-20 25.833 -20 50.5c0 14 2.66699 33.333 8 58l96 451h102l-92 -432c-2 -9.33301 -3 -17 -3 -23c0 -10.667 3 -17.834 9 -21.501s15.667 -5.5 29 -5.5c11.333 0 21.166 2.83301 29.499 8.5s15.833 13.167 22.5 22.5zM476.003 686h-102l22 104
h102zM295.003 686h-101l22 104h101z" />
    <glyph glyph-name="Amacron" unicode="&#x100;" 
d="M247 0l36.9971 175.998h-97l-37 -176h-112l134 634c8 36.667 16.5 65.834 25.5 87.501s20.833 38.334 35.5 50.001s32.834 19.334 54.501 23.001s48.834 5.5 81.501 5.5c24.667 0 45.834 -1.16699 63.501 -3.5s32 -6.5 43 -12.5s19 -14.333 24 -25
s7.5 -24.334 7.5 -41.001c0 -20.667 -3.66699 -48.667 -11 -84l-134 -634h-115zM345.997 696.998c-10 0 -18.5 -0.834961 -25.5 -2.50195s-12.667 -4.66699 -17 -9s-8 -10.666 -11 -18.999s-5.83301 -19.166 -8.5 -32.499l-77 -364h97l77 364c3.33301 15.333 5 26.333 5 33
c0 12 -2.83301 20 -8.5 24s-16.167 6 -31.5 6zM535.997 898.996h-292l13 61h292z" />
    <glyph glyph-name="amacron" unicode="&#x101;" horiz-adv-x="353" 
d="M159 -10c-20 0 -36.8281 0.666016 -50.4951 1.99902s-24.834 4.16602 -33.501 8.49902s-15 10.333 -19 18s-6 17.834 -6 30.501c0 13.333 2.66699 32.333 8 57l31 145c7.33301 36 19.666 62.333 36.999 79s42.666 25 75.999 25h19c22.667 0 38.5 -0.833008 47.5 -2.5
s15.5 -3.83398 19.5 -6.50098l26 124c2.66699 10.667 4 20.334 4 29.001c0 9.33301 -3 15.5 -9 18.5s-15.667 4.5 -29 4.5c-17.333 0 -29.333 -3.66699 -36 -11s-12 -21 -16 -41l-12 -59h-93l15 71c6 28 12.667 50.333 20 67s16.833 29.5 28.5 38.5s26.5 14.833 44.5 17.5
s40.667 4 68 4c45.333 0 77.666 -3.83301 96.999 -11.5s29 -25.167 29 -52.5c0 -8 -0.833008 -17.167 -2.5 -27.5s-3.83398 -22.166 -6.50098 -35.499l-102 -482c-13.333 -3.33301 -32.5 -5.83301 -57.5 -7.5s-57.5 -2.5 -97.5 -2.5zM185.005 73.999
c14.667 0 25.332 0.167969 31.999 0.500977s11.334 0.833008 14.001 1.5l41 196c-6.66699 4 -20.667 6 -42 6c-10 0 -18 -0.833008 -24 -2.5s-10.833 -4.5 -14.5 -8.5s-6.66699 -9.5 -9 -16.5s-4.5 -15.5 -6.5 -25.5l-20 -94l-3.5 -19.5
c-1 -5.66699 -1.5 -10.834 -1.5 -15.501c0 -8.66699 2.33301 -14.5 7 -17.5s13.667 -4.5 27 -4.5zM474.003 708h-292l13 61h292z" />
    <glyph glyph-name="Abreve" unicode="&#x102;" 
d="M247 0l36.9971 175.998h-97l-37 -176h-112l134 634c8 36.667 16.5 65.834 25.5 87.501s20.833 38.334 35.5 50.001s32.834 19.334 54.501 23.001s48.834 5.5 81.501 5.5c24.667 0 45.834 -1.16699 63.501 -3.5s32 -6.5 43 -12.5s19 -14.333 24 -25
s7.5 -24.334 7.5 -41.001c0 -20.667 -3.66699 -48.667 -11 -84l-134 -634h-115zM345.997 696.998c-10 0 -18.5 -0.834961 -25.5 -2.50195s-12.667 -4.66699 -17 -9s-8 -10.666 -11 -18.999s-5.83301 -19.166 -8.5 -32.499l-77 -364h97l77 364c3.33301 15.333 5 26.333 5 33
c0 12 -2.83301 20 -8.5 24s-16.167 6 -31.5 6zM375.997 832.996c-36 0 -64.8311 8.5 -86.498 25.5s-32.5 44.5 -32.5 82.5c0 8.66699 0.666992 17.5 2 26.5s3 18.5 5 28.5h64c-4 -19.333 -6 -35.666 -6 -48.999c0 -18.667 4.83301 -32.334 14.5 -41.001s27.167 -13 52.5 -13
c24 0 45.167 7.33301 63.5 22s32.166 41.667 41.499 81h64c-12.667 -58 -35.334 -99.667 -68.001 -125s-70.667 -38 -114 -38z" />
    <glyph glyph-name="abreve" unicode="&#x103;" horiz-adv-x="353" 
d="M159 -10c-20 0 -36.8281 0.666016 -50.4951 1.99902s-24.834 4.16602 -33.501 8.49902s-15 10.333 -19 18s-6 17.834 -6 30.501c0 13.333 2.66699 32.333 8 57l31 145c7.33301 36 19.666 62.333 36.999 79s42.666 25 75.999 25h19c22.667 0 38.5 -0.833008 47.5 -2.5
s15.5 -3.83398 19.5 -6.50098l26 124c2.66699 10.667 4 20.334 4 29.001c0 9.33301 -3 15.5 -9 18.5s-15.667 4.5 -29 4.5c-17.333 0 -29.333 -3.66699 -36 -11s-12 -21 -16 -41l-12 -59h-93l15 71c6 28 12.667 50.333 20 67s16.833 29.5 28.5 38.5s26.5 14.833 44.5 17.5
s40.667 4 68 4c45.333 0 77.666 -3.83301 96.999 -11.5s29 -25.167 29 -52.5c0 -8 -0.833008 -17.167 -2.5 -27.5s-3.83398 -22.166 -6.50098 -35.499l-102 -482c-13.333 -3.33301 -32.5 -5.83301 -57.5 -7.5s-57.5 -2.5 -97.5 -2.5zM185.005 73.999
c14.667 0 25.332 0.167969 31.999 0.500977s11.334 0.833008 14.001 1.5l41 196c-6.66699 4 -20.667 6 -42 6c-10 0 -18 -0.833008 -24 -2.5s-10.833 -4.5 -14.5 -8.5s-6.66699 -9.5 -9 -16.5s-4.5 -15.5 -6.5 -25.5l-20 -94l-3.5 -19.5
c-1 -5.66699 -1.5 -10.834 -1.5 -15.501c0 -8.66699 2.33301 -14.5 7 -17.5s13.667 -4.5 27 -4.5zM313.003 642c-36 0 -64.8311 8.5 -86.498 25.5s-32.5 44.5 -32.5 82.5c0 8.66699 0.666992 17.5 2 26.5s3 18.5 5 28.5h64c-4 -19.333 -6 -35.666 -6 -48.999
c0 -18.667 4.83301 -32.334 14.5 -41.001s27.167 -13 52.5 -13c24 0 45.167 7.33301 63.5 22s32.166 41.667 41.499 81h64c-12.667 -58 -35.334 -99.667 -68.001 -125s-70.667 -38 -114 -38z" />
    <glyph glyph-name="Aogonek" unicode="&#x104;" 
d="M362 0c-25.333 -11.333 -44.6699 -22.834 -58.0029 -34.501s-20 -27.834 -20 -48.501c0 -14 11 -21 33 -21h36l-17 -81h-78c-27.333 0 -46 5.16699 -56 15.5s-15 23.5 -15 39.5c0 23.333 5 43.5 15 60.5s22.667 30.5 38 40.5l44 205h-97l-37 -176h-112l134 634
c8 36.667 16.5 65.834 25.5 87.501s20.833 38.334 35.5 50.001s32.834 19.334 54.501 23.001s48.834 5.5 81.501 5.5c24.667 0 45.834 -1.16699 63.501 -3.5s32 -6.5 43 -12.5s19 -14.333 24 -25s7.5 -24.334 7.5 -41.001c0 -20.667 -3.66699 -48.667 -11 -84z
M345.996 696.999c-10 0 -18.5 -0.834961 -25.5 -2.50195s-12.667 -4.66699 -17 -9s-8 -10.666 -11 -18.999s-5.83301 -19.166 -8.5 -32.499l-77 -364h97l77 364c3.33301 15.333 5 26.333 5 33c0 12 -2.83301 20 -8.5 24s-16.167 6 -31.5 6z" />
    <glyph glyph-name="aogonek" unicode="&#x105;" horiz-adv-x="353" 
d="M159 -10c-20 0 -36.8291 0.668945 -50.4961 2.00195s-24.834 4.16602 -33.501 8.49902s-15 10.333 -19 18s-6 17.834 -6 30.501c0 13.333 2.66699 32.333 8 57l31 145c7.33301 36 19.666 62.333 36.999 79s42.666 25 75.999 25h19c22.667 0 38.5 -0.833008 47.5 -2.5
s15.5 -3.83398 19.5 -6.50098l26 124c2.66699 10.667 4 20.334 4 29.001c0 9.33301 -3 15.5 -9 18.5s-15.667 4.5 -29 4.5c-17.333 0 -29.333 -3.66699 -36 -11s-12 -21 -16 -41l-12 -59h-93l15 71c6 28 12.667 50.333 20 67s16.833 29.5 28.5 38.5s26.5 14.833 44.5 17.5
s40.667 4 68 4c45.333 0 77.666 -3.83301 96.999 -11.5s29 -25.167 29 -52.5c0 -8 -0.833008 -17.167 -2.5 -27.5s-3.83398 -22.166 -6.50098 -35.499l-102 -482c-25.333 -11.333 -44.666 -22.833 -57.999 -34.5s-20 -27.834 -20 -48.501c0 -14 11 -21 33 -21h36l-17 -81
h-78c-27.333 0 -46 5.16699 -56 15.5s-15 23.5 -15 39.5c0 33.333 8.5 59.166 25.5 77.499s41.5 33.166 73.5 44.499c-11.333 -0.666992 -23.5 -1.16699 -36.5 -1.5s-27.167 -0.5 -42.5 -0.5zM185.004 74.002c14.667 0 25.332 0.167969 31.999 0.500977
s11.334 0.833008 14.001 1.5l41 196c-6.66699 4 -20.667 6 -42 6c-10 0 -18 -0.833008 -24 -2.5s-10.833 -4.5 -14.5 -8.5s-6.66699 -9.5 -9 -16.5s-4.5 -15.5 -6.5 -25.5l-20 -94l-3.5 -19.5c-1 -5.66699 -1.5 -10.834 -1.5 -15.501c0 -8.66699 2.33301 -14.5 7 -17.5
s13.667 -4.5 27 -4.5z" />
    <glyph glyph-name="Cacute" unicode="&#x106;" horiz-adv-x="394" 
d="M344 455l38.001 179.001c1.33301 8 2.66602 15 3.99902 21s2 11.333 2 16c0 10.667 -3.16699 17.667 -9.5 21s-16.5 5 -30.5 5c-10.667 0 -19.334 -0.833008 -26.001 -2.5s-12.334 -4.83398 -17.001 -9.50098s-8.5 -11.167 -11.5 -19.5s-5.83301 -18.833 -8.5 -31.5
l-101 -477c-4 -17.333 -6 -30 -6 -38c0 -11.333 3 -18.666 9 -21.999s16.667 -5 32 -5c10 0 18.333 0.833008 25 2.5s12.334 4.83398 17.001 9.50098s8.33398 11.167 11.001 19.5s5.66699 19.5 9 33.5l39 183h111l-39 -183c-8 -36.667 -16.5 -66 -25.5 -88
s-20.667 -38.833 -35 -50.5s-32.333 -19.334 -54 -23.001s-48.5 -5.5 -80.5 -5.5c-25.333 0 -47 1 -65 3s-32.5 5.66699 -43.5 11s-19 13.166 -24 23.499s-7.5 23.833 -7.5 40.5c0 22 4 51.667 12 89l101 477c8 36 16.667 65 26 87s21.5 38.833 36.5 50.5
s33.5 19.334 55.5 23.001s49.333 5.5 82 5.5c24 0 44.667 -1 62 -3s31.333 -5.66699 42 -11s18.5 -13.333 23.5 -24s7.5 -24.334 7.5 -41.001c0 -22 -4 -51 -12 -87l-38 -179h-111zM411.001 996.001h113l-128 -166h-81z" />
    <glyph glyph-name="cacute" unicode="&#x107;" horiz-adv-x="347" 
d="M301 377l19.998 93.999c2 8 3 15 3 21c0 8.66699 -2.66699 14.334 -8 17.001s-14.666 4 -27.999 4c-19.333 0 -32.166 -2.66699 -38.499 -8s-11.166 -16.666 -14.499 -33.999l-74 -344c-2 -9.33301 -3 -16.333 -3 -21c0 -9.33301 2.83301 -15.333 8.5 -18
s15.5 -4 29.5 -4c17.333 0 29.333 3.16699 36 9.5s11.667 17.5 15 33.5l33 155h93l-35 -165c-6 -28 -12.833 -50.5 -20.5 -67.5s-17.5 -29.833 -29.5 -38.5s-27 -14.334 -45 -17.001s-40.333 -4 -67 -4c-22.667 0 -41.834 0.833008 -57.501 2.5s-28.5 4.83398 -38.5 9.50098
s-17.167 11.167 -21.5 19.5s-6.5 19.166 -6.5 32.499c0 8.66699 0.5 18 1.5 28s3.16699 21.667 6.5 35l78 365c6 28 12.667 50.333 20 67s17.333 29.5 30 38.5s28.5 14.833 47.5 17.5s43.167 4 72.5 4c42.667 0 72.834 -4.16699 90.501 -12.5s26.5 -25.5 26.5 -51.5
c0 -8.66699 -0.833008 -18.5 -2.5 -29.5s-3.83398 -22.167 -6.50098 -33.5l-22 -105h-93zM347.998 804.999h113l-128 -166h-81z" />
    <glyph glyph-name="Cdotaccent" unicode="&#x10a;" horiz-adv-x="394" 
d="M344 455l38.001 179.001c1.33301 8 2.66602 15 3.99902 21s2 11.333 2 16c0 10.667 -3.16699 17.667 -9.5 21s-16.5 5 -30.5 5c-10.667 0 -19.334 -0.833008 -26.001 -2.5s-12.334 -4.83398 -17.001 -9.50098s-8.5 -11.167 -11.5 -19.5s-5.83301 -18.833 -8.5 -31.5
l-101 -477c-4 -17.333 -6 -30 -6 -38c0 -11.333 3 -18.666 9 -21.999s16.667 -5 32 -5c10 0 18.333 0.833008 25 2.5s12.334 4.83398 17.001 9.50098s8.33398 11.167 11.001 19.5s5.66699 19.5 9 33.5l39 183h111l-39 -183c-8 -36.667 -16.5 -66 -25.5 -88
s-20.667 -38.833 -35 -50.5s-32.333 -19.334 -54 -23.001s-48.5 -5.5 -80.5 -5.5c-25.333 0 -47 1 -65 3s-32.5 5.66699 -43.5 11s-19 13.166 -24 23.499s-7.5 23.833 -7.5 40.5c0 22 4 51.667 12 89l101 477c8 36 16.667 65 26 87s21.5 38.833 36.5 50.5
s33.5 19.334 55.5 23.001s49.333 5.5 82 5.5c24 0 44.667 -1 62 -3s31.333 -5.66699 42 -11s18.5 -13.333 23.5 -24s7.5 -24.334 7.5 -41.001c0 -22 -4 -51 -12 -87l-38 -179h-111zM432.001 877.001h-101l22 104h101z" />
    <glyph glyph-name="cdotaccent" unicode="&#x10b;" horiz-adv-x="347" 
d="M301 377l19.998 93.999c2 8 3 15 3 21c0 8.66699 -2.66699 14.334 -8 17.001s-14.666 4 -27.999 4c-19.333 0 -32.166 -2.66699 -38.499 -8s-11.166 -16.666 -14.499 -33.999l-74 -344c-2 -9.33301 -3 -16.333 -3 -21c0 -9.33301 2.83301 -15.333 8.5 -18
s15.5 -4 29.5 -4c17.333 0 29.333 3.16699 36 9.5s11.667 17.5 15 33.5l33 155h93l-35 -165c-6 -28 -12.833 -50.5 -20.5 -67.5s-17.5 -29.833 -29.5 -38.5s-27 -14.334 -45 -17.001s-40.333 -4 -67 -4c-22.667 0 -41.834 0.833008 -57.501 2.5s-28.5 4.83398 -38.5 9.50098
s-17.167 11.167 -21.5 19.5s-6.5 19.166 -6.5 32.499c0 8.66699 0.5 18 1.5 28s3.16699 21.667 6.5 35l78 365c6 28 12.667 50.333 20 67s17.333 29.5 30 38.5s28.5 14.833 47.5 17.5s43.167 4 72.5 4c42.667 0 72.834 -4.16699 90.501 -12.5s26.5 -25.5 26.5 -51.5
c0 -8.66699 -0.833008 -18.5 -2.5 -29.5s-3.83398 -22.167 -6.50098 -33.5l-22 -105h-93zM369.998 685.999h-101l22 104h101z" />
    <glyph glyph-name="Ccaron" unicode="&#x10c;" horiz-adv-x="394" 
d="M344 455l38.001 179.001c1.33301 8 2.66602 15 3.99902 21s2 11.333 2 16c0 10.667 -3.16699 17.667 -9.5 21s-16.5 5 -30.5 5c-10.667 0 -19.334 -0.833008 -26.001 -2.5s-12.334 -4.83398 -17.001 -9.50098s-8.5 -11.167 -11.5 -19.5s-5.83301 -18.833 -8.5 -31.5
l-101 -477c-4 -17.333 -6 -30 -6 -38c0 -11.333 3 -18.666 9 -21.999s16.667 -5 32 -5c10 0 18.333 0.833008 25 2.5s12.334 4.83398 17.001 9.50098s8.33398 11.167 11.001 19.5s5.66699 19.5 9 33.5l39 183h111l-39 -183c-8 -36.667 -16.5 -66 -25.5 -88
s-20.667 -38.833 -35 -50.5s-32.333 -19.334 -54 -23.001s-48.5 -5.5 -80.5 -5.5c-25.333 0 -47 1 -65 3s-32.5 5.66699 -43.5 11s-19 13.166 -24 23.499s-7.5 23.833 -7.5 40.5c0 22 4 51.667 12 89l101 477c8 36 16.667 65 26 87s21.5 38.833 36.5 50.5
s33.5 19.334 55.5 23.001s49.333 5.5 82 5.5c24 0 44.667 -1 62 -3s31.333 -5.66699 42 -11s18.5 -13.333 23.5 -24s7.5 -24.334 7.5 -41.001c0 -22 -4 -51 -12 -87l-38 -179h-111zM263.001 996.001h69l49 -109l97 109h75l-138 -166h-86z" />
    <glyph glyph-name="ccaron" unicode="&#x10d;" horiz-adv-x="347" 
d="M301 377l19.998 93.999c2 8 3 15 3 21c0 8.66699 -2.66699 14.334 -8 17.001s-14.666 4 -27.999 4c-19.333 0 -32.166 -2.66699 -38.499 -8s-11.166 -16.666 -14.499 -33.999l-74 -344c-2 -9.33301 -3 -16.333 -3 -21c0 -9.33301 2.83301 -15.333 8.5 -18
s15.5 -4 29.5 -4c17.333 0 29.333 3.16699 36 9.5s11.667 17.5 15 33.5l33 155h93l-35 -165c-6 -28 -12.833 -50.5 -20.5 -67.5s-17.5 -29.833 -29.5 -38.5s-27 -14.334 -45 -17.001s-40.333 -4 -67 -4c-22.667 0 -41.834 0.833008 -57.501 2.5s-28.5 4.83398 -38.5 9.50098
s-17.167 11.167 -21.5 19.5s-6.5 19.166 -6.5 32.499c0 8.66699 0.5 18 1.5 28s3.16699 21.667 6.5 35l78 365c6 28 12.667 50.333 20 67s17.333 29.5 30 38.5s28.5 14.833 47.5 17.5s43.167 4 72.5 4c42.667 0 72.834 -4.16699 90.501 -12.5s26.5 -25.5 26.5 -51.5
c0 -8.66699 -0.833008 -18.5 -2.5 -29.5s-3.83398 -22.167 -6.50098 -33.5l-22 -105h-93zM199.998 804.999h69l49 -109l97 109h75l-138 -166h-86z" />
    <glyph glyph-name="Dcaron" unicode="&#x10e;" horiz-adv-x="407" 
d="M407 162c-7.33301 -35.333 -15.5 -63.6699 -24.5 -85.0029s-20.833 -37.666 -35.5 -48.999s-33 -18.833 -55 -22.5s-50 -5.5 -84 -5.5h-164l167 790h164c26 0 48 -1 66 -3s32.667 -5.83301 44 -11.5s19.5 -13.5 24.5 -23.5s7.5 -23.333 7.5 -40
c0 -11.333 -1 -23.666 -3 -36.999s-4.66699 -28.666 -8 -45.999zM390 628.996l3.49902 19.501c1 5.66699 1.5 10.834 1.5 15.501c0 10.667 -3 17.667 -9 21s-16.667 5 -32 5h-49l-125 -591h49c10.667 0 19.334 0.833008 26.001 2.5s12.167 4.66699 16.5 9
s8 10.666 11 18.999s5.83301 19.166 8.5 32.499zM262.999 995.997h69l49 -109l97 109h75l-138 -166h-86z" />
    <glyph glyph-name="dcaron" unicode="&#x10f;" horiz-adv-x="483" 
d="M138 482c4.66699 23.333 10.165 42.8311 16.498 58.498s14 28.167 23 37.5s20.167 16 33.5 20s30 6 50 6c22.667 0 39.834 -3.66699 51.501 -11s20.167 -17.666 25.5 -30.999l48 228h103l-167 -790h-95l9 43c-13.333 -17.333 -28 -29.666 -44 -36.999s-36 -11 -60 -11
c-29.333 0 -50.166 4.16699 -62.499 12.5s-18.5 23.833 -18.5 46.5c0 16 3 37 9 63zM323.998 480.998c-4.66699 20.667 -17.666 31 -38.999 31c-17.333 0 -29.333 -3.33301 -36 -10s-12 -20 -16 -40l-70 -326c-2 -10 -3 -18.333 -3 -25c0 -10 2.5 -16.667 7.5 -20
s14.167 -5 27.5 -5c11.333 0 21.166 2.83301 29.499 8.5s15.5 13.167 21.5 22.5zM573.999 789.998h102l-117 -165h-70z" />
    <glyph glyph-name="dmacron" unicode="&#x111;" horiz-adv-x="366" 
d="M513 688l-45.002 -0.00195312l-146 -688h-95l9 43c-13.333 -17.333 -28 -29.666 -44 -36.999s-36 -11 -60 -11c-29.333 0 -50.166 4.16699 -62.499 12.5s-18.5 23.833 -18.5 46.5c0 16 3 37 9 63l78 365c4.66699 23.333 10.167 42.833 16.5 58.5s14 28.167 23 37.5
s20.167 16 33.5 20s30 6 50 6c22.667 0 39.834 -3.66699 51.501 -11s20.167 -17.666 25.5 -30.999l27 126h-144l13 61h144l8 41h103l-8 -41h45zM323.998 480.998c-4.66699 20.667 -17.666 31 -38.999 31c-17.333 0 -29.333 -3.33301 -36 -10s-12 -20 -16 -40l-70 -326
c-2 -10 -3 -18.333 -3 -25c0 -10 2.5 -16.667 7.5 -20s14.167 -5 27.5 -5c11.333 0 21.166 2.83301 29.499 8.5s15.5 13.167 21.5 22.5z" />
    <glyph glyph-name="Emacron" unicode="&#x112;" horiz-adv-x="293" 
d="M270 0h-226l167 790h225l-20 -95h-110l-24 -115h107l-20 -91h-107l-82 -390h111zM493 899h-292l13 61h292z" />
    <glyph glyph-name="emacron" unicode="&#x113;" horiz-adv-x="349" 
d="M192 264l-29.9971 -140.998c-1.33301 -5.33301 -2.33301 -10 -3 -14s-1 -7.66699 -1 -11c0 -8.66699 2.83301 -14.334 8.5 -17.001s15.167 -4 28.5 -4c18 0 30.333 2.83301 37 8.5s12 18.167 16 37.5l17 81h92l-19 -87c-6 -28 -12.667 -50.333 -20 -67
s-16.833 -29.5 -28.5 -38.5s-26.5 -14.833 -44.5 -17.5s-41 -4 -69 -4c-45.333 0 -77.333 3.83301 -96 11.5s-28 25.167 -28 52.5c0 8.66699 0.5 18 1.5 28s3.16699 21.667 6.5 35l78 365c6 28 12.667 50.333 20 67s17.166 29.5 29.499 38.5s28.166 14.833 47.499 17.5
s43.666 4 72.999 4c42 0 72 -3.66699 90 -11s27 -24.333 27 -51c0 -16.667 -3 -38.334 -9 -65.001l-46 -218h-178zM209.003 346.002l85.999 -0.00195312l27 128c2 10 3 18 3 24c0 8.66699 -2.66699 14.334 -8 17.001s-14.666 4 -27.999 4
c-18.667 0 -31.167 -2.66699 -37.5 -8s-11.5 -17.666 -15.5 -36.999zM472.002 708h-292l13 61h292z" />
    <glyph glyph-name="Ebreve" unicode="&#x114;" horiz-adv-x="293" 
d="M270 0h-226l167 790h225l-20 -95h-110l-24 -115h107l-20 -91h-107l-82 -390h111zM333 833c-36 0 -64.8311 8.5 -86.498 25.5s-32.5 44.5 -32.5 82.5c0 8.66699 0.666992 17.5 2 26.5s3 18.5 5 28.5h64c-4 -19.333 -6 -35.666 -6 -48.999
c0 -18.667 4.83301 -32.334 14.5 -41.001s27.167 -13 52.5 -13c24 0 45.167 7.33301 63.5 22s32.166 41.667 41.499 81h64c-12.667 -58 -35.334 -99.667 -68.001 -125s-70.667 -38 -114 -38z" />
    <glyph glyph-name="ebreve" unicode="&#x115;" horiz-adv-x="349" 
d="M192 264l-29.9971 -140.998c-1.33301 -5.33301 -2.33301 -10 -3 -14s-1 -7.66699 -1 -11c0 -8.66699 2.83301 -14.334 8.5 -17.001s15.167 -4 28.5 -4c18 0 30.333 2.83301 37 8.5s12 18.167 16 37.5l17 81h92l-19 -87c-6 -28 -12.667 -50.333 -20 -67
s-16.833 -29.5 -28.5 -38.5s-26.5 -14.833 -44.5 -17.5s-41 -4 -69 -4c-45.333 0 -77.333 3.83301 -96 11.5s-28 25.167 -28 52.5c0 8.66699 0.5 18 1.5 28s3.16699 21.667 6.5 35l78 365c6 28 12.667 50.333 20 67s17.166 29.5 29.499 38.5s28.166 14.833 47.499 17.5
s43.666 4 72.999 4c42 0 72 -3.66699 90 -11s27 -24.333 27 -51c0 -16.667 -3 -38.334 -9 -65.001l-46 -218h-178zM209.003 346.002l85.999 -0.00195312l27 128c2 10 3 18 3 24c0 8.66699 -2.66699 14.334 -8 17.001s-14.666 4 -27.999 4
c-18.667 0 -31.167 -2.66699 -37.5 -8s-11.5 -17.666 -15.5 -36.999zM311.002 642c-36 0 -64.8311 8.5 -86.498 25.5s-32.5 44.5 -32.5 82.5c0 8.66699 0.666992 17.5 2 26.5s3 18.5 5 28.5h64c-4 -19.333 -6 -35.666 -6 -48.999c0 -18.667 4.83301 -32.334 14.5 -41.001
s27.167 -13 52.5 -13c24 0 45.167 7.33301 63.5 22s32.166 41.667 41.499 81h64c-12.667 -58 -35.334 -99.667 -68.001 -125s-70.667 -38 -114 -38z" />
    <glyph glyph-name="Edotaccent" unicode="&#x116;" horiz-adv-x="293" 
d="M270 0h-226l167 790h225l-20 -95h-110l-24 -115h107l-20 -91h-107l-82 -390h111zM392 877h-101l22 104h101z" />
    <glyph glyph-name="edotaccent" unicode="&#x117;" horiz-adv-x="349" 
d="M192 264l-29.9971 -140.998c-1.33301 -5.33301 -2.33301 -10 -3 -14s-1 -7.66699 -1 -11c0 -8.66699 2.83301 -14.334 8.5 -17.001s15.167 -4 28.5 -4c18 0 30.333 2.83301 37 8.5s12 18.167 16 37.5l17 81h92l-19 -87c-6 -28 -12.667 -50.333 -20 -67
s-16.833 -29.5 -28.5 -38.5s-26.5 -14.833 -44.5 -17.5s-41 -4 -69 -4c-45.333 0 -77.333 3.83301 -96 11.5s-28 25.167 -28 52.5c0 8.66699 0.5 18 1.5 28s3.16699 21.667 6.5 35l78 365c6 28 12.667 50.333 20 67s17.166 29.5 29.499 38.5s28.166 14.833 47.499 17.5
s43.666 4 72.999 4c42 0 72 -3.66699 90 -11s27 -24.333 27 -51c0 -16.667 -3 -38.334 -9 -65.001l-46 -218h-178zM209.003 346.002l85.999 -0.00195312l27 128c2 10 3 18 3 24c0 8.66699 -2.66699 14.334 -8 17.001s-14.666 4 -27.999 4
c-18.667 0 -31.167 -2.66699 -37.5 -8s-11.5 -17.666 -15.5 -36.999zM371.002 686h-101l22 104h101z" />
    <glyph glyph-name="Eogonek" unicode="&#x118;" horiz-adv-x="293" 
d="M44 0l166.997 790h225l-20 -95h-110l-24 -115h107l-20 -91h-107l-82 -390h111l-21 -99c-25.333 -11.333 -44.666 -22.833 -57.999 -34.5s-20 -27.834 -20 -48.501c0 -14 11 -21 33 -21h36l-17 -81h-78c-27.333 0 -46 5.16699 -56 15.5s-15 23.5 -15 39.5
c0 18.667 2.66699 34.834 8 48.501s13.333 25.5 24 35.5s23.834 18.667 39.501 26s33.834 14 54.501 20h-177z" />
    <glyph glyph-name="eogonek" unicode="&#x119;" horiz-adv-x="349" 
d="M192 264l-29.9961 -140.998c-1.33301 -5.33301 -2.33301 -10 -3 -14s-1 -7.66699 -1 -11c0 -8.66699 2.83301 -14.334 8.5 -17.001s15.167 -4 28.5 -4c18 0 30.333 2.83301 37 8.5s12 18.167 16 37.5l17 81h92l-19 -87c-8 -35.333 -16.833 -61.833 -26.5 -79.5
s-23.834 -30.167 -42.501 -37.5c-26 -10 -45.5 -21.167 -58.5 -33.5s-19.5 -28.833 -19.5 -49.5c0 -14 11 -21 33 -21h36l-17 -81h-78c-27.333 0 -46 5.16699 -56 15.5s-15 23.5 -15 39.5c0 32.667 8.16699 58 24.5 76s39.833 32.667 70.5 44h-13
c-45.333 0 -77.333 3.83301 -96 11.5s-28 25.167 -28 52.5c0 8.66699 0.5 18 1.5 28s3.16699 21.667 6.5 35l78 365c6 28 12.667 50.333 20 67s17.166 29.5 29.499 38.5s28.166 14.833 47.499 17.5s43.666 4 72.999 4c42 0 72 -3.66699 90 -11s27 -24.333 27 -51
c0 -16.667 -3 -38.334 -9 -65.001l-46 -218h-178zM209.004 346.002l85.999 -0.00195312l27 128c2 10 3 18 3 24c0 8.66699 -2.66699 14.334 -8 17.001s-14.666 4 -27.999 4c-18.667 0 -31.167 -2.66699 -37.5 -8s-11.5 -17.666 -15.5 -36.999z" />
    <glyph glyph-name="Ecaron" unicode="&#x11a;" horiz-adv-x="293" 
d="M270 0h-226l167 790h225l-20 -95h-110l-24 -115h107l-20 -91h-107l-82 -390h111zM223 996h69l49 -109l97 109h75l-138 -166h-86z" />
    <glyph glyph-name="ecaron" unicode="&#x11b;" horiz-adv-x="349" 
d="M192 264l-29.9971 -140.998c-1.33301 -5.33301 -2.33301 -10 -3 -14s-1 -7.66699 -1 -11c0 -8.66699 2.83301 -14.334 8.5 -17.001s15.167 -4 28.5 -4c18 0 30.333 2.83301 37 8.5s12 18.167 16 37.5l17 81h92l-19 -87c-6 -28 -12.667 -50.333 -20 -67
s-16.833 -29.5 -28.5 -38.5s-26.5 -14.833 -44.5 -17.5s-41 -4 -69 -4c-45.333 0 -77.333 3.83301 -96 11.5s-28 25.167 -28 52.5c0 8.66699 0.5 18 1.5 28s3.16699 21.667 6.5 35l78 365c6 28 12.667 50.333 20 67s17.166 29.5 29.499 38.5s28.166 14.833 47.499 17.5
s43.666 4 72.999 4c42 0 72 -3.66699 90 -11s27 -24.333 27 -51c0 -16.667 -3 -38.334 -9 -65.001l-46 -218h-178zM209.003 346.002l85.999 -0.00195312l27 128c2 10 3 18 3 24c0 8.66699 -2.66699 14.334 -8 17.001s-14.666 4 -27.999 4
c-18.667 0 -31.167 -2.66699 -37.5 -8s-11.5 -17.666 -15.5 -36.999zM201.002 805h69l49 -109l97 109h75l-138 -166h-86z" />
    <glyph glyph-name="Gbreve" unicode="&#x11e;" horiz-adv-x="398" 
d="M367 562l15.0039 72.001c1.33301 8 2.66602 15 3.99902 21s2 11.333 2 16c0 10.667 -3.16699 17.667 -9.5 21s-16.5 5 -30.5 5c-10.667 0 -19.334 -0.833008 -26.001 -2.5s-12.334 -4.83398 -17.001 -9.50098s-8.5 -11.167 -11.5 -19.5s-5.83301 -18.833 -8.5 -31.5
l-101 -477l-3.5 -21c-1 -6 -1.5 -11.333 -1.5 -16c0 -11.333 2.83301 -18.833 8.5 -22.5s16.167 -5.5 31.5 -5.5c13.333 0 24.166 0.333008 32.499 1s14.833 1.66699 19.5 3l77 363h108l-97 -459c-10 -2 -28.5 -4.16699 -55.5 -6.5s-62.5 -3.5 -106.5 -3.5
c-25.333 0 -46.833 1.16699 -64.5 3.5s-32 6.66602 -43 12.999s-19 14.833 -24 25.5s-7.5 24.334 -7.5 41.001c0 11.333 1 23.833 3 37.5s4.66699 29.167 8 46.5l101 477c8 36 16.667 65 26 87s21.5 38.833 36.5 50.5s33.5 19.334 55.5 23.001s49.333 5.5 82 5.5
c24 0 44.667 -1 62 -3s31.333 -5.66699 42 -11s18.5 -13.333 23.5 -24s7.5 -24.334 7.5 -41.001c0 -22 -4 -51 -12 -87l-15 -72h-111zM374.004 833.001c-36 0 -64.8311 8.5 -86.498 25.5s-32.5 44.5 -32.5 82.5c0 8.66699 0.666992 17.5 2 26.5s3 18.5 5 28.5h64
c-4 -19.333 -6 -35.666 -6 -48.999c0 -18.667 4.83301 -32.334 14.5 -41.001s27.167 -13 52.5 -13c24 0 45.167 7.33301 63.5 22s32.166 41.667 41.499 81h64c-12.667 -58 -35.334 -99.667 -68.001 -125s-70.667 -38 -114 -38z" />
    <glyph glyph-name="gbreve" unicode="&#x11f;" horiz-adv-x="366" 
d="M144 -67c23.333 0 39.834 3.83203 49.501 11.499s17.167 22.834 22.5 45.501l17 77c-10.667 -13.333 -23.5 -23.5 -38.5 -30.5s-33.833 -10.5 -56.5 -10.5c-30 0 -50.833 4.5 -62.5 13.5s-17.5 24.167 -17.5 45.5c0 8.66699 0.833008 18.167 2.5 28.5
s3.83398 21.833 6.50098 34.5l71 334c4.66699 23.333 10.167 42.833 16.5 58.5s14 28.167 23 37.5s20.333 16 34 20s30.5 6 50.5 6c24 0 42.333 -3.83301 55 -11.5s21.667 -20.167 27 -37.5l10 44h95l-130 -609c-10.667 -48.667 -28.834 -84.667 -54.501 -108
s-63.834 -35 -114.501 -35h-131l18 86h107zM324.001 480.999c-4.66699 20.667 -17.667 30.999 -39 30.999c-17.333 0 -29.333 -3.33301 -36 -10s-12 -20 -16 -40l-63 -295c-2.66699 -10 -4 -18.667 -4 -26c0 -9.33301 2.66699 -15.666 8 -18.999s14.333 -5 27 -5
c11.333 0 21.333 2.83301 30 8.5s16 13.167 22 22.5zM319.001 641.998c-36 0 -64.8311 8.5 -86.498 25.5s-32.5 44.5 -32.5 82.5c0 8.66699 0.666992 17.5 2 26.5s3 18.5 5 28.5h64c-4 -19.333 -6 -35.666 -6 -48.999c0 -18.667 4.83301 -32.334 14.5 -41.001
s27.167 -13 52.5 -13c24 0 45.167 7.33301 63.5 22s32.166 41.667 41.499 81h64c-12.667 -58 -35.334 -99.667 -68.001 -125s-70.667 -38 -114 -38z" />
    <glyph glyph-name="Gdotaccent" unicode="&#x120;" horiz-adv-x="398" 
d="M367 562l15.0039 72.001c1.33301 8 2.66602 15 3.99902 21s2 11.333 2 16c0 10.667 -3.16699 17.667 -9.5 21s-16.5 5 -30.5 5c-10.667 0 -19.334 -0.833008 -26.001 -2.5s-12.334 -4.83398 -17.001 -9.50098s-8.5 -11.167 -11.5 -19.5s-5.83301 -18.833 -8.5 -31.5
l-101 -477l-3.5 -21c-1 -6 -1.5 -11.333 -1.5 -16c0 -11.333 2.83301 -18.833 8.5 -22.5s16.167 -5.5 31.5 -5.5c13.333 0 24.166 0.333008 32.499 1s14.833 1.66699 19.5 3l77 363h108l-97 -459c-10 -2 -28.5 -4.16699 -55.5 -6.5s-62.5 -3.5 -106.5 -3.5
c-25.333 0 -46.833 1.16699 -64.5 3.5s-32 6.66602 -43 12.999s-19 14.833 -24 25.5s-7.5 24.334 -7.5 41.001c0 11.333 1 23.833 3 37.5s4.66699 29.167 8 46.5l101 477c8 36 16.667 65 26 87s21.5 38.833 36.5 50.5s33.5 19.334 55.5 23.001s49.333 5.5 82 5.5
c24 0 44.667 -1 62 -3s31.333 -5.66699 42 -11s18.5 -13.333 23.5 -24s7.5 -24.334 7.5 -41.001c0 -22 -4 -51 -12 -87l-15 -72h-111zM433.004 877.001h-101l22 104h101z" />
    <glyph glyph-name="gdotaccent" unicode="&#x121;" horiz-adv-x="366" 
d="M144 -67c23.333 0 39.834 3.83203 49.501 11.499s17.167 22.834 22.5 45.501l17 77c-10.667 -13.333 -23.5 -23.5 -38.5 -30.5s-33.833 -10.5 -56.5 -10.5c-30 0 -50.833 4.5 -62.5 13.5s-17.5 24.167 -17.5 45.5c0 8.66699 0.833008 18.167 2.5 28.5
s3.83398 21.833 6.50098 34.5l71 334c4.66699 23.333 10.167 42.833 16.5 58.5s14 28.167 23 37.5s20.333 16 34 20s30.5 6 50.5 6c24 0 42.333 -3.83301 55 -11.5s21.667 -20.167 27 -37.5l10 44h95l-130 -609c-10.667 -48.667 -28.834 -84.667 -54.501 -108
s-63.834 -35 -114.501 -35h-131l18 86h107zM324.001 480.999c-4.66699 20.667 -17.667 30.999 -39 30.999c-17.333 0 -29.333 -3.33301 -36 -10s-12 -20 -16 -40l-63 -295c-2.66699 -10 -4 -18.667 -4 -26c0 -9.33301 2.66699 -15.666 8 -18.999s14.333 -5 27 -5
c11.333 0 21.333 2.83301 30 8.5s16 13.167 22 22.5zM378.001 685.998h-101l22 104h101z" />
    <glyph glyph-name="Gcommaaccent" unicode="&#x122;" horiz-adv-x="398" 
d="M367 562l15.0039 72.001c1.33301 8 2.66602 15 3.99902 21s2 11.333 2 16c0 10.667 -3.16699 17.667 -9.5 21s-16.5 5 -30.5 5c-10.667 0 -19.334 -0.833008 -26.001 -2.5s-12.334 -4.83398 -17.001 -9.50098s-8.5 -11.167 -11.5 -19.5s-5.83301 -18.833 -8.5 -31.5
l-101 -477l-3.5 -21c-1 -6 -1.5 -11.333 -1.5 -16c0 -11.333 2.83301 -18.833 8.5 -22.5s16.167 -5.5 31.5 -5.5c13.333 0 24.166 0.333008 32.499 1s14.833 1.66699 19.5 3l77 363h108l-97 -459c-10 -2 -28.5 -4.16699 -55.5 -6.5s-62.5 -3.5 -106.5 -3.5
c-25.333 0 -46.833 1.16699 -64.5 3.5s-32 6.66602 -43 12.999s-19 14.833 -24 25.5s-7.5 24.334 -7.5 41.001c0 11.333 1 23.833 3 37.5s4.66699 29.167 8 46.5l101 477c8 36 16.667 65 26 87s21.5 38.833 36.5 50.5s33.5 19.334 55.5 23.001s49.333 5.5 82 5.5
c24 0 44.667 -1 62 -3s31.333 -5.66699 42 -11s18.5 -13.333 23.5 -24s7.5 -24.334 7.5 -41.001c0 -22 -4 -51 -12 -87l-15 -72h-111zM145.004 -19.999h102l-117 -165h-70z" />
    <glyph glyph-name="gcommaaccent" unicode="&#x123;" horiz-adv-x="366" 
d="M144 -67c23.333 0 39.834 3.83203 49.501 11.499s17.167 22.834 22.5 45.501l17 77c-10.667 -13.333 -23.5 -23.5 -38.5 -30.5s-33.833 -10.5 -56.5 -10.5c-30 0 -50.833 4.5 -62.5 13.5s-17.5 24.167 -17.5 45.5c0 8.66699 0.833008 18.167 2.5 28.5
s3.83398 21.833 6.50098 34.5l71 334c4.66699 23.333 10.167 42.833 16.5 58.5s14 28.167 23 37.5s20.333 16 34 20s30.5 6 50.5 6c24 0 42.333 -3.83301 55 -11.5s21.667 -20.167 27 -37.5l10 44h95l-130 -609c-10.667 -48.667 -28.834 -84.667 -54.501 -108
s-63.834 -35 -114.501 -35h-131l18 86h107zM324.001 480.999c-4.66699 20.667 -17.667 30.999 -39 30.999c-17.333 0 -29.333 -3.33301 -36 -10s-12 -20 -16 -40l-63 -295c-2.66699 -10 -4 -18.667 -4 -26c0 -9.33301 2.66699 -15.666 8 -18.999s14.333 -5 27 -5
c11.333 0 21.333 2.83301 30 8.5s16 13.167 22 22.5zM360.005 624.997h-101.994l116.993 164.989h69.9951z" />
    <glyph glyph-name="Hbar" unicode="&#x126;" horiz-adv-x="417" 
d="M375 0h-116l91 432h-100l-91 -432h-115l167 790h115l-20 -95h100l20 95h116zM371 529l22 105h-100l-22 -105h100z" />
    <glyph glyph-name="hbar" unicode="&#x127;" horiz-adv-x="378" 
d="M438 688l-146 0.000976562l-27 -127c20.667 28.667 53 43 97 43c30.667 0 52.667 -4.66699 66 -14s20 -26.333 20 -51c0 -17.333 -2.33301 -36.333 -7 -57l-102 -482h-102l100 471c0.666992 3.33301 1.16699 6.16602 1.5 8.49902s0.5 4.83301 0.5 7.5
c0 16.667 -12.667 25 -38 25c-13.333 0 -24 -2.83301 -32 -8.5s-15 -13.167 -21 -22.5l-102 -481h-102l146 688h-44l13 61h44l8 41h102l-8 -41h146z" />
    <glyph glyph-name="hbar" unicode="&#x45b;" horiz-adv-x="378" 
d="M438 688l-146 0.000976562l-27 -127c20.667 28.667 53 43 97 43c30.667 0 52.667 -4.66699 66 -14s20 -26.333 20 -51c0 -17.333 -2.33301 -36.333 -7 -57l-102 -482h-102l100 471c0.666992 3.33301 1.16699 6.16602 1.5 8.49902s0.5 4.83301 0.5 7.5
c0 16.667 -12.667 25 -38 25c-13.333 0 -24 -2.83301 -32 -8.5s-15 -13.167 -21 -22.5l-102 -481h-102l146 688h-44l13 61h44l8 41h102l-8 -41h146z" />
    <glyph glyph-name="Itilde" unicode="&#x128;" horiz-adv-x="267" 
d="M191 0h-115l167 790h115zM249 914c-16.667 0 -30.834 -3.33008 -42.501 -9.99707s-22.167 -15.334 -31.5 -26.001l15 73c9.33301 7.33301 20.5 13.5 33.5 18.5s26.5 7.5 40.5 7.5s27 -1.66699 39 -5s23.667 -6.83301 35 -10.5s23 -7.16699 35 -10.5s25 -5 39 -5
c30.667 0 56.334 12 77.001 36l-16 -72c-9.33301 -8.66699 -20.5 -15.667 -33.5 -21s-27.167 -8 -42.5 -8c-14 0 -27 1.66699 -39 5s-23.667 7.16602 -35 11.499s-23 8.16602 -35 11.499s-25 5 -39 5z" />
    <glyph glyph-name="itilde" unicode="&#x129;" horiz-adv-x="262" 
d="M206 723c-16.667 0 -30.834 -3.33008 -42.501 -9.99707s-22.167 -15.334 -31.5 -26.001l15 73c9.33301 7.33301 20.5 13.5 33.5 18.5s26.5 7.5 40.5 7.5s27 -1.66699 39 -5s23.667 -6.83301 35 -10.5s23 -7.16699 35 -10.5s25 -5 39 -5c30.667 0 56.334 12 77.001 36
l-16 -72c-9.33301 -8.66699 -20.5 -15.667 -33.5 -21s-27.167 -8 -42.5 -8c-14 0 -27 1.66699 -39 5s-23.667 7.16602 -35 11.499s-23 8.16602 -35 11.499s-25 5 -39 5zM182 0.00292969h-101l127 599h101z" />
    <glyph glyph-name="Imacron" unicode="&#x12a;" horiz-adv-x="205" 
d="M161 0h-115l167 790h115zM441 899h-292l13 61h292z" />
    <glyph glyph-name="imacron" unicode="&#x12b;" horiz-adv-x="264" 
d="M429 708h-292l13 61h292zM183 0h-101l127 599h101z" />
    <glyph glyph-name="Ibreve" unicode="&#x12c;" horiz-adv-x="205" 
d="M161 0h-115l167 790h115zM281 833c-36 0 -64.8311 8.5 -86.498 25.5s-32.5 44.5 -32.5 82.5c0 8.66699 0.666992 17.5 2 26.5s3 18.5 5 28.5h64c-4 -19.333 -6 -35.666 -6 -48.999c0 -18.667 4.83301 -32.334 14.5 -41.001s27.167 -13 52.5 -13
c24 0 45.167 7.33301 63.5 22s32.166 41.667 41.499 81h64c-12.667 -58 -35.334 -99.667 -68.001 -125s-70.667 -38 -114 -38z" />
    <glyph glyph-name="ibreve" unicode="&#x12d;" horiz-adv-x="261" 
d="M267 642c-36 0 -64.8311 8.5 -86.498 25.5s-32.5 44.5 -32.5 82.5c0 8.66699 0.666992 17.5 2 26.5s3 18.5 5 28.5h64c-4 -19.333 -6 -35.666 -6 -48.999c0 -18.667 4.83301 -32.334 14.5 -41.001s27.167 -13 52.5 -13c24 0 45.167 7.33301 63.5 22
s32.166 41.667 41.499 81h64c-12.667 -58 -35.334 -99.667 -68.001 -125s-70.667 -38 -114 -38zM181.002 0h-101l127 599h101z" />
    <glyph glyph-name="Iogonek" unicode="&#x12e;" horiz-adv-x="205" 
d="M-9 -103c3.33301 17.333 8.83203 31.6689 16.499 43.002s18.167 21.333 31.5 30l174 820h115l-167 -790c-25.333 -11.333 -44.666 -22.833 -57.999 -34.5s-20 -27.834 -20 -48.501c0 -14 11 -21 33 -21h36l-17 -81h-78c-26.667 0 -45 5.16699 -55 15.5s-15 23.5 -15 39.5
c0 4 0.333008 8.16699 1 12.5s1.66699 9.16602 3 14.499z" />
    <glyph glyph-name="iogonek" unicode="&#x12f;" horiz-adv-x="192" 
d="M147 0c-25.333 -11.333 -44.667 -22.832 -58 -34.499s-20 -27.834 -20 -48.501c0 -14 11 -21 33 -21h36l-17 -81h-78c-26.667 0 -45 5.16699 -55 15.5s-15 23.5 -15 39.5c0 28 6 50.667 18 68s28.667 31 50 41l132 620h101zM291.999 686.001h-101l22 104h101z" />
    <glyph glyph-name="Idotaccent" unicode="&#x130;" horiz-adv-x="205" 
d="M161 0h-115l167 790h115zM339 877h-101l22 104h101z" />
    <glyph glyph-name="dotlessi" unicode="&#x131;" horiz-adv-x="192" 
d="M147 0h-101l127 599h101z" />
    <glyph glyph-name="IJ" unicode="&#x132;" horiz-adv-x="577" 
d="M161 0h-115l167 790h115zM291 340l105 0.000976562l-39 -183c-4 -16 -6 -28.667 -6 -38c0 -11.333 3 -18.666 9 -21.999s16 -5 30 -5c20 0 33.833 4.16699 41.5 12.5s14.167 25.833 19.5 52.5l134 633h116l-134 -633c-8 -36.667 -16.5 -66 -25.5 -88
s-20.667 -38.833 -35 -50.5s-32.333 -19.334 -54 -23.001s-49.167 -5.5 -82.5 -5.5c-23.333 0 -43.166 1 -59.499 3s-29.833 5.66699 -40.5 11s-18.334 13.166 -23.001 23.499s-7 23.833 -7 40.5c0 21.333 4 51 12 89z" />
    <glyph glyph-name="ij" unicode="&#x133;" horiz-adv-x="384" 
d="M292 686h-101l22 104h101zM147 0h-101l127 599h101zM367 599l102 0.000976562l-130 -609c-10.667 -48 -29.167 -83.833 -55.5 -107.5s-64.833 -35.5 -115.5 -35.5h-56l18 86h48c16.667 0 29.5 4.16699 38.5 12.5s15.833 23.166 20.5 44.499zM487 686.001h-102l22 104h102
z" />
    <glyph glyph-name="Kcommaaccent" unicode="&#x136;" horiz-adv-x="404" 
d="M550 790l-187 -337l36 -453h-120l-26 415h-5l-88 -415h-116l167 789h116l-63 -298h5l155 299h126zM160 -20h102l-117 -165h-70z" />
    <glyph glyph-name="kcommaaccent" unicode="&#x137;" horiz-adv-x="364" 
d="M246 0l-32 308h-4l-65 -308h-101l167 790h101l-87 -412h4l128 221h114l-160 -256l46 -343h-111zM141 -20h102l-117 -165h-70z" />
    <glyph glyph-name="Lacute" unicode="&#x139;" horiz-adv-x="289" 
d="M277 0h-233l167 790h115l-146 -690h118zM324 996h113l-128 -166h-81z" />
    <glyph glyph-name="lacute" unicode="&#x13a;" horiz-adv-x="188" 
d="M146 0h-102l167 790h102zM308 996h113l-128 -166h-81z" />
    <glyph glyph-name="Lcommaaccent" unicode="&#x13b;" horiz-adv-x="289" 
d="M277 0h-233l167 790h115l-146 -690h118zM103 -20h102l-117 -165h-70z" />
    <glyph glyph-name="lcommaaccent" unicode="&#x13c;" horiz-adv-x="188" 
d="M146 0h-102l167 790h102zM39 -20h102l-117 -165h-70z" />
    <glyph glyph-name="Lcaron" unicode="&#x13d;" horiz-adv-x="348" 
d="M277 0h-233l167 790h115l-146 -690h118zM408 790h102l-117 -165h-70z" />
    <glyph glyph-name="lcaron" unicode="&#x13e;" horiz-adv-x="313" 
d="M146 0h-102l167 790h102zM398 790h102l-117 -165h-70z" />
    <glyph glyph-name="Lslash" unicode="&#x141;" horiz-adv-x="288" 
d="M355 538l-91 -38l-85 -400h118l-21 -100h-232l96 454l-40 -15l19 91l40 15l52 245h114l-42 -199l91 38z" />
    <glyph glyph-name="lslash" unicode="&#x142;" horiz-adv-x="228" 
d="M337 527l-65 -26l-106 -501h-102l98 463l-65 -25l19 91l65 25l50 236h102l-42 -198l65 26z" />
    <glyph glyph-name="Nacute" unicode="&#x143;" horiz-adv-x="432" 
d="M268 0l-17 493h-4l-104 -493h-99l167 790h125l9 -507h4l107 507h100l-167 -790h-121zM431 996h113l-128 -166h-81z" />
    <glyph glyph-name="nacute" unicode="&#x144;" horiz-adv-x="378" 
d="M146 0h-102.002l127 599h95l-9 -40c10.667 14.667 24.334 25.834 41.001 33.501s37.667 11.5 63 11.5c30.667 0 52.834 -4.66699 66.501 -14s20.5 -26.333 20.5 -51c0 -17.333 -2.33301 -36.333 -7 -57l-102 -482h-102l100 471
c0.666992 3.33301 1.16699 6.16602 1.5 8.49902s0.5 4.83301 0.5 7.5c0 16.667 -12.667 25 -38 25c-13.333 0 -24 -2.83301 -32 -8.5s-15 -13.167 -21 -22.5zM362.998 805h113l-128 -166h-81z" />
    <glyph glyph-name="Ncommaaccent" unicode="&#x145;" horiz-adv-x="432" 
d="M268 0l-17 493h-4l-104 -493h-99l167 790h125l9 -507h4l107 507h100l-167 -790h-121zM155 -20h102l-117 -165h-70z" />
    <glyph glyph-name="ncommaaccent" unicode="&#x146;" horiz-adv-x="378" 
d="M146 0h-102.002l127 599h95l-9 -40c10.667 14.667 24.334 25.834 41.001 33.501s37.667 11.5 63 11.5c30.667 0 52.834 -4.66699 66.501 -14s20.5 -26.333 20.5 -51c0 -17.333 -2.33301 -36.333 -7 -57l-102 -482h-102l100 471
c0.666992 3.33301 1.16699 6.16602 1.5 8.49902s0.5 4.83301 0.5 7.5c0 16.667 -12.667 25 -38 25c-13.333 0 -24 -2.83301 -32 -8.5s-15 -13.167 -21 -22.5zM136.998 -20h102l-117 -165h-70z" />
    <glyph glyph-name="Ncaron" unicode="&#x147;" horiz-adv-x="432" 
d="M268 0l-17 493h-4l-104 -493h-99l167 790h125l9 -507h4l107 507h100l-167 -790h-121zM282 996h69l49 -109l97 109h75l-138 -166h-86z" />
    <glyph glyph-name="ncaron" unicode="&#x148;" horiz-adv-x="378" 
d="M146 0h-102.002l127 599h95l-9 -40c10.667 14.667 24.334 25.834 41.001 33.501s37.667 11.5 63 11.5c30.667 0 52.834 -4.66699 66.501 -14s20.5 -26.333 20.5 -51c0 -17.333 -2.33301 -36.333 -7 -57l-102 -482h-102l100 471
c0.666992 3.33301 1.16699 6.16602 1.5 8.49902s0.5 4.83301 0.5 7.5c0 16.667 -12.667 25 -38 25c-13.333 0 -24 -2.83301 -32 -8.5s-15 -13.167 -21 -22.5zM214.998 805h69l49 -109l97 109h75l-138 -166h-86z" />
    <glyph glyph-name="Eng" unicode="&#x14a;" horiz-adv-x="432" 
d="M386 -10c-10.667 -48 -29.168 -83.833 -55.501 -107.5s-65.166 -35.5 -116.499 -35.5h-56l18 86h48c14 0 25.5 2.83301 34.5 8.5s16.167 15.167 21.5 28.5l-29 523h-4l-104 -493h-99l167 790h134v-507h4l107 507h100z" />
    <glyph glyph-name="eng" unicode="&#x14b;" horiz-adv-x="378" 
d="M337 471c0.666992 3.33301 1.16406 6.16699 1.49707 8.5s0.5 4.83301 0.5 7.5c0 16.667 -12.667 25 -38 25c-13.333 0 -24 -2.83301 -32 -8.5s-15 -13.167 -21 -22.5l-102 -481h-102l127 599h95l-9 -40c10.667 14.667 24.334 25.834 41.001 33.501s37.667 11.5 63 11.5
c30.667 0 52.834 -4.66699 66.501 -14s20.5 -26.333 20.5 -51c0 -17.333 -2.33301 -36.333 -7 -57l-105 -492c-10.667 -48 -29.167 -83.833 -55.5 -107.5s-65.166 -35.5 -116.499 -35.5h-56l18 86h48c17.333 0 30.5 4.16699 39.5 12.5s15.833 23.166 20.5 44.499z" />
    <glyph glyph-name="Omacron" unicode="&#x14c;" 
d="M398 157c-8 -36.667 -16.499 -66 -25.499 -88s-20.833 -38.833 -35.5 -50.5s-33.167 -19.334 -55.5 -23.001s-50.5 -5.5 -84.5 -5.5c-25.333 0 -47 1 -65 3s-32.5 5.66699 -43.5 11s-19 13.166 -24 23.499s-7.5 23.833 -7.5 40.5c0 22 4 51.667 12 89l101 477
c8 36.667 16.5 65.834 25.5 87.501s20.667 38.334 35 50.001s32.666 19.334 54.999 23.001s50.5 5.5 84.5 5.5c25.333 0 47 -1 65 -3s32.667 -5.66699 44 -11s19.5 -13.333 24.5 -24s7.5 -24.334 7.5 -41.001c0 -22 -4 -51 -12 -87zM383.001 634
c1.33301 8 2.66895 15.001 4.00195 21.001s2 11.333 2 16c0 11.333 -3.16699 18.5 -9.5 21.5s-16.833 4.5 -31.5 4.5c-10.667 0 -19.334 -0.833008 -26.001 -2.5s-12.334 -4.83398 -17.001 -9.50098s-8.5 -11.167 -11.5 -19.5s-5.83301 -18.833 -8.5 -31.5l-101 -477
c-4 -17.333 -6 -30 -6 -38c0 -11.333 3 -18.666 9 -21.999s16.667 -5 32 -5c10.667 0 19.5 0.833008 26.5 2.5s12.667 5 17 10s8 11.667 11 20s5.83301 19.166 8.5 32.499zM536.004 899.001h-292l13 61h292z" />
    <glyph glyph-name="omacron" unicode="&#x14d;" horiz-adv-x="358" 
d="M346 117c-6 -28 -12.6641 -50.333 -19.9971 -67s-17.333 -29.5 -30 -38.5s-28.5 -14.833 -47.5 -17.5s-43.167 -4 -72.5 -4c-45.333 0 -77.333 3.83301 -96 11.5s-28 25.167 -28 52.5c0 8.66699 0.5 18 1.5 28s3.16699 21.667 6.5 35l78 365c6 28 12.667 50.333 20 67
s17.166 29.5 29.499 38.5s28.166 14.833 47.499 17.5s43.666 4 72.999 4c44.667 0 76.5 -3.83301 95.5 -11.5s28.5 -25.167 28.5 -52.5c0 -8.66699 -0.666992 -18 -2 -28s-3.33301 -21.667 -6 -35zM323.003 471c2 8 3.00293 15 3.00293 21
c0 8.66699 -2.83301 14.334 -8.5 17.001s-15.5 4 -29.5 4c-18.667 0 -31.334 -2.83301 -38.001 -8.5s-11.667 -16.834 -15 -33.501l-74 -344c-2 -9.33301 -3 -16.333 -3 -21c0 -9.33301 2.83301 -15.333 8.5 -18s15.5 -4 29.5 -4c19.333 0 32.166 3.16699 38.499 9.5
s11.166 17.5 14.499 33.5zM475.006 708h-292l13 61h292z" />
    <glyph glyph-name="Obreve" unicode="&#x14e;" 
d="M398 157c-8 -36.667 -16.499 -66 -25.499 -88s-20.833 -38.833 -35.5 -50.5s-33.167 -19.334 -55.5 -23.001s-50.5 -5.5 -84.5 -5.5c-25.333 0 -47 1 -65 3s-32.5 5.66699 -43.5 11s-19 13.166 -24 23.499s-7.5 23.833 -7.5 40.5c0 22 4 51.667 12 89l101 477
c8 36.667 16.5 65.834 25.5 87.501s20.667 38.334 35 50.001s32.666 19.334 54.999 23.001s50.5 5.5 84.5 5.5c25.333 0 47 -1 65 -3s32.667 -5.66699 44 -11s19.5 -13.333 24.5 -24s7.5 -24.334 7.5 -41.001c0 -22 -4 -51 -12 -87zM383.001 634
c1.33301 8 2.66895 15.001 4.00195 21.001s2 11.333 2 16c0 11.333 -3.16699 18.5 -9.5 21.5s-16.833 4.5 -31.5 4.5c-10.667 0 -19.334 -0.833008 -26.001 -2.5s-12.334 -4.83398 -17.001 -9.50098s-8.5 -11.167 -11.5 -19.5s-5.83301 -18.833 -8.5 -31.5l-101 -477
c-4 -17.333 -6 -30 -6 -38c0 -11.333 3 -18.666 9 -21.999s16.667 -5 32 -5c10.667 0 19.5 0.833008 26.5 2.5s12.667 5 17 10s8 11.667 11 20s5.83301 19.166 8.5 32.499zM376.004 833.001c-36 0 -64.8311 8.5 -86.498 25.5s-32.5 44.5 -32.5 82.5
c0 8.66699 0.666992 17.5 2 26.5s3 18.5 5 28.5h64c-4 -19.333 -6 -35.666 -6 -48.999c0 -18.667 4.83301 -32.334 14.5 -41.001s27.167 -13 52.5 -13c24 0 45.167 7.33301 63.5 22s32.166 41.667 41.499 81h64c-12.667 -58 -35.334 -99.667 -68.001 -125
s-70.667 -38 -114 -38z" />
    <glyph glyph-name="obreve" unicode="&#x14f;" horiz-adv-x="358" 
d="M346 117c-6 -28 -12.6641 -50.333 -19.9971 -67s-17.333 -29.5 -30 -38.5s-28.5 -14.833 -47.5 -17.5s-43.167 -4 -72.5 -4c-45.333 0 -77.333 3.83301 -96 11.5s-28 25.167 -28 52.5c0 8.66699 0.5 18 1.5 28s3.16699 21.667 6.5 35l78 365c6 28 12.667 50.333 20 67
s17.166 29.5 29.499 38.5s28.166 14.833 47.499 17.5s43.666 4 72.999 4c44.667 0 76.5 -3.83301 95.5 -11.5s28.5 -25.167 28.5 -52.5c0 -8.66699 -0.666992 -18 -2 -28s-3.33301 -21.667 -6 -35zM323.003 471c2 8 3.00293 15 3.00293 21
c0 8.66699 -2.83301 14.334 -8.5 17.001s-15.5 4 -29.5 4c-18.667 0 -31.334 -2.83301 -38.001 -8.5s-11.667 -16.834 -15 -33.501l-74 -344c-2 -9.33301 -3 -16.333 -3 -21c0 -9.33301 2.83301 -15.333 8.5 -18s15.5 -4 29.5 -4c19.333 0 32.166 3.16699 38.499 9.5
s11.166 17.5 14.499 33.5zM315.006 642c-36 0 -64.8311 8.5 -86.498 25.5s-32.5 44.5 -32.5 82.5c0 8.66699 0.666992 17.5 2 26.5s3 18.5 5 28.5h64c-4 -19.333 -6 -35.666 -6 -48.999c0 -18.667 4.83301 -32.334 14.5 -41.001s27.167 -13 52.5 -13
c24 0 45.167 7.33301 63.5 22s32.166 41.667 41.499 81h64c-12.667 -58 -35.334 -99.667 -68.001 -125s-70.667 -38 -114 -38z" />
    <glyph glyph-name="Ohungarumlaut" unicode="&#x150;" 
d="M398 157c-8 -36.667 -16.499 -66 -25.499 -88s-20.833 -38.833 -35.5 -50.5s-33.167 -19.334 -55.5 -23.001s-50.5 -5.5 -84.5 -5.5c-25.333 0 -47 1 -65 3s-32.5 5.66699 -43.5 11s-19 13.166 -24 23.499s-7.5 23.833 -7.5 40.5c0 22 4 51.667 12 89l101 477
c8 36.667 16.5 65.834 25.5 87.501s20.667 38.334 35 50.001s32.666 19.334 54.999 23.001s50.5 5.5 84.5 5.5c25.333 0 47 -1 65 -3s32.667 -5.66699 44 -11s19.5 -13.333 24.5 -24s7.5 -24.334 7.5 -41.001c0 -22 -4 -51 -12 -87zM383.001 634
c1.33301 8 2.66895 15.001 4.00195 21.001s2 11.333 2 16c0 11.333 -3.16699 18.5 -9.5 21.5s-16.833 4.5 -31.5 4.5c-10.667 0 -19.334 -0.833008 -26.001 -2.5s-12.334 -4.83398 -17.001 -9.50098s-8.5 -11.167 -11.5 -19.5s-5.83301 -18.833 -8.5 -31.5l-101 -477
c-4 -17.333 -6 -30 -6 -38c0 -11.333 3 -18.666 9 -21.999s16.667 -5 32 -5c10.667 0 19.5 0.833008 26.5 2.5s12.667 5 17 10s8 11.667 11 20s5.83301 19.166 8.5 32.499zM514.004 996.001h113l-130 -166h-80zM334.004 996.001h113l-128 -166h-81z" />
    <glyph glyph-name="ohungarumlaut" unicode="&#x151;" horiz-adv-x="358" 
d="M346 117c-6 -28 -12.6641 -50.333 -19.9971 -67s-17.333 -29.5 -30 -38.5s-28.5 -14.833 -47.5 -17.5s-43.167 -4 -72.5 -4c-45.333 0 -77.333 3.83301 -96 11.5s-28 25.167 -28 52.5c0 8.66699 0.5 18 1.5 28s3.16699 21.667 6.5 35l78 365c6 28 12.667 50.333 20 67
s17.166 29.5 29.499 38.5s28.166 14.833 47.499 17.5s43.666 4 72.999 4c44.667 0 76.5 -3.83301 95.5 -11.5s28.5 -25.167 28.5 -52.5c0 -8.66699 -0.666992 -18 -2 -28s-3.33301 -21.667 -6 -35zM323.003 471c2 8 3.00293 15 3.00293 21
c0 8.66699 -2.83301 14.334 -8.5 17.001s-15.5 4 -29.5 4c-18.667 0 -31.334 -2.83301 -38.001 -8.5s-11.667 -16.834 -15 -33.501l-74 -344c-2 -9.33301 -3 -16.333 -3 -21c0 -9.33301 2.83301 -15.333 8.5 -18s15.5 -4 29.5 -4c19.333 0 32.166 3.16699 38.499 9.5
s11.166 17.5 14.499 33.5zM453.006 805h113l-130 -166h-80zM273.006 805h113l-128 -166h-81z" />
    <glyph glyph-name="OE" unicode="&#x152;" horiz-adv-x="504" 
d="M459 0h-258.999c-26 0 -48 1 -66 3s-32.667 5.83301 -44 11.5s-19.5 13.5 -24.5 23.5s-7.5 23.333 -7.5 40c0 11.333 1.16699 23.833 3.5 37.5s5.16602 29.167 8.49902 46.5l99 467c7.33301 35.333 15.5 63.5 24.5 84.5s20.667 37.167 35 48.5s32.5 18.833 54.5 22.5
s50 5.5 84 5.5h259l-20 -96h-110l-24 -114h106l-20 -92h-106l-83 -390h110zM185.001 162c-3.33301 -16.667 -4.99902 -28.668 -4.99902 -36.001c0 -11.333 3 -18.666 9 -21.999s16.667 -5 32 -5h37l125 591h-37c-10.667 0 -19.334 -0.666992 -26.001 -2
s-12.167 -4.33301 -16.5 -9s-8 -11 -11 -19s-5.83301 -18.333 -8.5 -31z" />
    <glyph glyph-name="oe" unicode="&#x153;" horiz-adv-x="537" 
d="M378 264l-31 -144c-2 -9.33301 -3 -16.333 -3 -21c0 -9.33301 3 -15.333 9 -18s15.667 -4 29 -4c17.333 0 29.5 2.83301 36.5 8.5s12.5 18.167 16.5 37.5l17 81h92l-19 -87c-6 -28 -12.667 -50.333 -20 -67s-16.833 -29.5 -28.5 -38.5s-26.5 -14.833 -44.5 -17.5
s-41 -4 -69 -4c-47.333 0 -76.666 10 -87.999 30c-10 -9.33301 -23 -16.666 -39 -21.999s-36 -8 -60 -8c-45.333 0 -77.333 3.83301 -96 11.5s-28 25.167 -28 52.5c0 8.66699 0.5 18 1.5 28s3.16699 21.667 6.5 35l78 365c6 28 12.667 50.333 20 67s17.166 29.5 29.499 38.5
s28.166 14.833 47.499 17.5s43.666 4 72.999 4c24.667 0 43.834 -3 57.501 -9s23.167 -13.667 28.5 -23c9.33301 9.33301 21.833 17 37.5 23s36.834 9 63.501 9c42 0 72 -3.66699 90 -11s27 -24.333 27 -51c0 -16.667 -3 -38.334 -9 -65.001l-46 -218h-179zM395 345
l86.9971 0.000976562l27 129c2 10 3 17.667 3 23c0 9.33301 -2.66699 15.333 -8 18s-14.666 4 -27.999 4c-17.333 0 -29.666 -2.83301 -36.999 -8.5s-12.666 -16.834 -15.999 -33.501zM322.997 471.001c2 8 3.00293 15 3.00293 21c0 8.66699 -2.83301 14.334 -8.5 17.001
s-15.5 4 -29.5 4c-18.667 0 -31.334 -2.83301 -38.001 -8.5s-11.667 -16.834 -15 -33.501l-74 -344c-2 -9.33301 -3 -16.333 -3 -21c0 -9.33301 2.83301 -15.333 8.5 -18s15.5 -4 29.5 -4c19.333 0 32.166 3.16699 38.499 9.5s11.166 17.5 14.499 33.5z" />
    <glyph glyph-name="Racute" unicode="&#x154;" horiz-adv-x="409" 
d="M159 0l-114.998 -0.000976562l167 790h164c26 0 48 -1 66 -3s32.667 -5.83301 44 -11.5s19.5 -13.667 24.5 -24s7.5 -23.833 7.5 -40.5c0 -19.333 -3.66699 -46.666 -11 -81.999l-17 -83c-4 -20.667 -9.83301 -37.5 -17.5 -50.5s-15.834 -23.5 -24.501 -31.5
s-17.5 -13.833 -26.5 -17.5s-17.5 -6.5 -25.5 -8.5l-1 -4c15.333 -4 27.666 -10.5 36.999 -19.5s14 -24.833 14 -47.5c0 -14 -2 -31.333 -6 -52l-66 -315h-116l70 333c1.33301 6 2.33301 11.5 3 16.5s1 9.5 1 13.5c0 10 -2.83301 17 -8.5 21s-15.5 6 -29.5 6h-52z
M261.002 480.999h51.999c18.667 0 31.834 3.66699 39.501 11s13.5 20.666 17.5 39.999l20 97c3.33301 16.667 5 28.334 5 35.001c0 10 -3 16.833 -9 20.5s-16.667 5.5 -32 5.5h-49zM409.001 995.999h113l-128 -166h-81z" />
    <glyph glyph-name="racute" unicode="&#x155;" horiz-adv-x="337" 
d="M146 0l-102 0.00195312l127 599h95l-9 -40c10 13.333 23.5 24.166 40.5 32.499s37.833 12.5 62.5 12.5c26 0 45 -4.5 57 -13.5s18 -25.167 18 -48.5c0 -14.667 -2.66699 -34.667 -8 -60l-32 -149h-92l29 137c1.33301 3.33301 2 6.66602 2 9.99902v9
c0 8.66699 -2.5 14.667 -7.5 18s-14.167 5 -27.5 5c-22 0 -39.333 -11 -52 -33zM363 805.002h113l-128 -166h-81z" />
    <glyph glyph-name="Rcommaaccent" unicode="&#x156;" horiz-adv-x="409" 
d="M159 0l-114.998 -0.000976562l167 790h164c26 0 48 -1 66 -3s32.667 -5.83301 44 -11.5s19.5 -13.667 24.5 -24s7.5 -23.833 7.5 -40.5c0 -19.333 -3.66699 -46.666 -11 -81.999l-17 -83c-4 -20.667 -9.83301 -37.5 -17.5 -50.5s-15.834 -23.5 -24.501 -31.5
s-17.5 -13.833 -26.5 -17.5s-17.5 -6.5 -25.5 -8.5l-1 -4c15.333 -4 27.666 -10.5 36.999 -19.5s14 -24.833 14 -47.5c0 -14 -2 -31.333 -6 -52l-66 -315h-116l70 333c1.33301 6 2.33301 11.5 3 16.5s1 9.5 1 13.5c0 10 -2.83301 17 -8.5 21s-15.5 6 -29.5 6h-52z
M261.002 480.999h51.999c18.667 0 31.834 3.66699 39.501 11s13.5 20.666 17.5 39.999l20 97c3.33301 16.667 5 28.334 5 35.001c0 10 -3 16.833 -9 20.5s-16.667 5.5 -32 5.5h-49zM151.001 -20.001h102l-117 -165h-70z" />
    <glyph glyph-name="rcommaaccent" unicode="&#x157;" horiz-adv-x="337" 
d="M146 0l-102 0.00195312l127 599h95l-9 -40c10 13.333 23.5 24.166 40.5 32.499s37.833 12.5 62.5 12.5c26 0 45 -4.5 57 -13.5s18 -25.167 18 -48.5c0 -14.667 -2.66699 -34.667 -8 -60l-32 -149h-92l29 137c1.33301 3.33301 2 6.66602 2 9.99902v9
c0 8.66699 -2.5 14.667 -7.5 18s-14.167 5 -27.5 5c-22 0 -39.333 -11 -52 -33zM37 -19.998h102l-117 -165h-70z" />
    <glyph glyph-name="Rcaron" unicode="&#x158;" horiz-adv-x="409" 
d="M159 0l-114.998 -0.000976562l167 790h164c26 0 48 -1 66 -3s32.667 -5.83301 44 -11.5s19.5 -13.667 24.5 -24s7.5 -23.833 7.5 -40.5c0 -19.333 -3.66699 -46.666 -11 -81.999l-17 -83c-4 -20.667 -9.83301 -37.5 -17.5 -50.5s-15.834 -23.5 -24.501 -31.5
s-17.5 -13.833 -26.5 -17.5s-17.5 -6.5 -25.5 -8.5l-1 -4c15.333 -4 27.666 -10.5 36.999 -19.5s14 -24.833 14 -47.5c0 -14 -2 -31.333 -6 -52l-66 -315h-116l70 333c1.33301 6 2.33301 11.5 3 16.5s1 9.5 1 13.5c0 10 -2.83301 17 -8.5 21s-15.5 6 -29.5 6h-52z
M261.002 480.999h51.999c18.667 0 31.834 3.66699 39.501 11s13.5 20.666 17.5 39.999l20 97c3.33301 16.667 5 28.334 5 35.001c0 10 -3 16.833 -9 20.5s-16.667 5.5 -32 5.5h-49zM261.001 995.999h69l49 -109l97 109h75l-138 -166h-86z" />
    <glyph glyph-name="rcaron" unicode="&#x159;" horiz-adv-x="337" 
d="M146 0l-102 0.00195312l127 599h95l-9 -40c10 13.333 23.5 24.166 40.5 32.499s37.833 12.5 62.5 12.5c26 0 45 -4.5 57 -13.5s18 -25.167 18 -48.5c0 -14.667 -2.66699 -34.667 -8 -60l-32 -149h-92l29 137c1.33301 3.33301 2 6.66602 2 9.99902v9
c0 8.66699 -2.5 14.667 -7.5 18s-14.167 5 -27.5 5c-22 0 -39.333 -11 -52 -33zM214 805.002h69l49 -109l97 109h75l-138 -166h-86z" />
    <glyph glyph-name="Sacute" unicode="&#x15a;" horiz-adv-x="395" 
d="M360 534l20.9961 98.001c4 16.667 6 30 6 40c0 10.667 -3 17.5 -9 20.5s-16.667 4.5 -32 4.5c-11.333 0 -20.333 -0.833008 -27 -2.5s-12.167 -4.66699 -16.5 -9s-8 -10.833 -11 -19.5s-5.83301 -20 -8.5 -34l-17 -78c-2 -10 -3 -18.333 -3 -25
c0 -10.667 3.66699 -19.334 11 -26.001s20.666 -15.667 39.999 -27c22.667 -13.333 41.5 -25 56.5 -35s27 -19.667 36 -29s15.5 -18.833 19.5 -28.5s6 -20.5 6 -32.5c0 -18 -3 -40.333 -9 -67l-27 -127c-8 -36.667 -16.5 -66 -25.5 -88s-20.833 -38.833 -35.5 -50.5
s-33.167 -19.334 -55.5 -23.001s-50.5 -5.5 -84.5 -5.5c-24 0 -44.667 1 -62 3s-31.5 5.83301 -42.5 11.5s-19 13.667 -24 24s-7.5 24.166 -7.5 41.499c0 22 4 51 12 87l33 157h112l-33 -157c-4 -17.333 -6 -30.333 -6 -39c0 -10.667 3 -17.667 9 -21s16.333 -5 31 -5
c10.667 0 19.334 0.833008 26.001 2.5s12.334 4.83398 17.001 9.50098s8.33398 11.167 11.001 19.5s5.66699 19.5 9 33.5l25 119l3.5 21c1 6 1.5 11.667 1.5 17c0 11.333 -3.33301 20.833 -10 28.5s-19.667 17.167 -39 28.5c-22.667 12.667 -41.667 24.167 -57 34.5
s-27.5 20.333 -36.5 30s-15.333 19.334 -19 29.001s-5.5 20.167 -5.5 31.5c0 8.66699 0.833008 17.834 2.5 27.501s3.83398 20.5 6.50098 32.5l16 76c8 36.667 16.333 66 25 88s20.334 39 35.001 51s33.167 19.833 55.5 23.5s50.5 5.5 84.5 5.5c24.667 0 45.667 -1 63 -3
s31.5 -5.83301 42.5 -11.5s19 -13.667 24 -24s7.5 -23.833 7.5 -40.5c0 -22.667 -4 -52.334 -12 -89.001l-21 -98h-112zM411.996 996.001h113l-128 -166h-81z" />
    <glyph glyph-name="sacute" unicode="&#x15b;" horiz-adv-x="354" 
d="M311 426l10.001 45.002c2 8.66699 3 16 3 22c0 8 -2.83301 13.5 -8.5 16.5s-15.167 4.5 -28.5 4.5c-20 0 -32.833 -2.83301 -38.5 -8.5s-10.5 -17.167 -14.5 -34.5l-11 -48c-2 -8 -3 -14.667 -3 -20c0 -8.66699 2.83301 -15.834 8.5 -21.501s16.5 -12.167 32.5 -19.5
c22 -10 40.167 -19 54.5 -27s25.666 -15.667 33.999 -23s14.333 -14.833 18 -22.5s5.5 -16.167 5.5 -25.5c0 -8.66699 -1.66699 -20.334 -5 -35.001l-23 -111c-6 -28 -12.667 -50.5 -20 -67.5s-17.166 -30 -29.499 -39s-28.166 -14.833 -47.499 -17.5s-43.666 -4 -72.999 -4
c-45.333 0 -77.5 3.83301 -96.5 11.5s-28.5 25.167 -28.5 52.5c0 16.667 3 38 9 64l19 92h100l-17 -81c-2 -9.33301 -3 -16.666 -3 -21.999c0 -9.33301 2.83301 -15.333 8.5 -18s15.5 -4 29.5 -4c18.667 0 31.167 3 37.5 9s11.166 17.667 14.499 35l15 73c2 8 3 15 3 21
c0 9.33301 -3.66699 17 -11 23s-20.666 13.333 -39.999 22c-18.667 8 -34.334 15.333 -47.001 22s-23 13.5 -31 20.5s-13.833 14.667 -17.5 23s-5.5 18.166 -5.5 29.499c0 12 2 27 6 45l16 73c6 28 12.667 50.5 20 67.5s17.166 30 29.499 39s28.166 14.833 47.499 17.5
s44 4 74 4c44.667 0 76.5 -3.83301 95.5 -11.5s28.5 -25.167 28.5 -52.5c0 -16.667 -3 -38 -9 -64l-12 -55h-99zM351.001 805.002h113l-128 -166h-81z" />
    <glyph glyph-name="Scedilla" unicode="&#x15e;" horiz-adv-x="395" 
d="M360 534l20.9961 98.001c4 16.667 6 30 6 40c0 10.667 -3 17.5 -9 20.5s-16.667 4.5 -32 4.5c-11.333 0 -20.333 -0.833008 -27 -2.5s-12.167 -4.66699 -16.5 -9s-8 -10.833 -11 -19.5s-5.83301 -20 -8.5 -34l-17 -78c-2 -10 -3 -18.333 -3 -25
c0 -10.667 3.66699 -19.334 11 -26.001s20.666 -15.667 39.999 -27c22.667 -13.333 41.5 -25 56.5 -35s27 -19.667 36 -29s15.5 -18.833 19.5 -28.5s6 -20.5 6 -32.5c0 -18 -3 -40.333 -9 -67l-27 -127c-8 -36.667 -16.5 -66 -25.5 -88s-20.833 -38.833 -35.5 -50.5
s-33.167 -19.334 -55.5 -23.001s-50.5 -5.5 -84.5 -5.5c-24 0 -44.667 1 -62 3s-31.5 5.83301 -42.5 11.5s-19 13.667 -24 24s-7.5 24.166 -7.5 41.499c0 22 4 51 12 87l33 157h112l-33 -157c-4 -17.333 -6 -30.333 -6 -39c0 -10.667 3 -17.667 9 -21s16.333 -5 31 -5
c10.667 0 19.334 0.833008 26.001 2.5s12.334 4.83398 17.001 9.50098s8.33398 11.167 11.001 19.5s5.66699 19.5 9 33.5l25 119l3.5 21c1 6 1.5 11.667 1.5 17c0 11.333 -3.33301 20.833 -10 28.5s-19.667 17.167 -39 28.5c-22.667 12.667 -41.667 24.167 -57 34.5
s-27.5 20.333 -36.5 30s-15.333 19.334 -19 29.001s-5.5 20.167 -5.5 31.5c0 8.66699 0.833008 17.834 2.5 27.501s3.83398 20.5 6.50098 32.5l16 76c8 36.667 16.333 66 25 88s20.334 39 35.001 51s33.167 19.833 55.5 23.5s50.5 5.5 84.5 5.5c24.667 0 45.667 -1 63 -3
s31.5 -5.83301 42.5 -11.5s19 -13.667 24 -24s7.5 -23.833 7.5 -40.5c0 -22.667 -4 -52.334 -12 -89.001l-21 -98h-112zM141.996 -19.999h102l-117 -165h-70z" />
    <glyph glyph-name="Scedilla" unicode="&#x218;" horiz-adv-x="395" 
d="M360 534l20.9961 98.001c4 16.667 6 30 6 40c0 10.667 -3 17.5 -9 20.5s-16.667 4.5 -32 4.5c-11.333 0 -20.333 -0.833008 -27 -2.5s-12.167 -4.66699 -16.5 -9s-8 -10.833 -11 -19.5s-5.83301 -20 -8.5 -34l-17 -78c-2 -10 -3 -18.333 -3 -25
c0 -10.667 3.66699 -19.334 11 -26.001s20.666 -15.667 39.999 -27c22.667 -13.333 41.5 -25 56.5 -35s27 -19.667 36 -29s15.5 -18.833 19.5 -28.5s6 -20.5 6 -32.5c0 -18 -3 -40.333 -9 -67l-27 -127c-8 -36.667 -16.5 -66 -25.5 -88s-20.833 -38.833 -35.5 -50.5
s-33.167 -19.334 -55.5 -23.001s-50.5 -5.5 -84.5 -5.5c-24 0 -44.667 1 -62 3s-31.5 5.83301 -42.5 11.5s-19 13.667 -24 24s-7.5 24.166 -7.5 41.499c0 22 4 51 12 87l33 157h112l-33 -157c-4 -17.333 -6 -30.333 -6 -39c0 -10.667 3 -17.667 9 -21s16.333 -5 31 -5
c10.667 0 19.334 0.833008 26.001 2.5s12.334 4.83398 17.001 9.50098s8.33398 11.167 11.001 19.5s5.66699 19.5 9 33.5l25 119l3.5 21c1 6 1.5 11.667 1.5 17c0 11.333 -3.33301 20.833 -10 28.5s-19.667 17.167 -39 28.5c-22.667 12.667 -41.667 24.167 -57 34.5
s-27.5 20.333 -36.5 30s-15.333 19.334 -19 29.001s-5.5 20.167 -5.5 31.5c0 8.66699 0.833008 17.834 2.5 27.501s3.83398 20.5 6.50098 32.5l16 76c8 36.667 16.333 66 25 88s20.334 39 35.001 51s33.167 19.833 55.5 23.5s50.5 5.5 84.5 5.5c24.667 0 45.667 -1 63 -3
s31.5 -5.83301 42.5 -11.5s19 -13.667 24 -24s7.5 -23.833 7.5 -40.5c0 -22.667 -4 -52.334 -12 -89.001l-21 -98h-112zM141.996 -19.999h102l-117 -165h-70z" />
    <glyph glyph-name="scedilla" unicode="&#x15f;" horiz-adv-x="354" 
d="M311 426l10.001 45.002c2 8.66699 3 16 3 22c0 8 -2.83301 13.5 -8.5 16.5s-15.167 4.5 -28.5 4.5c-20 0 -32.833 -2.83301 -38.5 -8.5s-10.5 -17.167 -14.5 -34.5l-11 -48c-2 -8 -3 -14.667 -3 -20c0 -8.66699 2.83301 -15.834 8.5 -21.501s16.5 -12.167 32.5 -19.5
c22 -10 40.167 -19 54.5 -27s25.666 -15.667 33.999 -23s14.333 -14.833 18 -22.5s5.5 -16.167 5.5 -25.5c0 -8.66699 -1.66699 -20.334 -5 -35.001l-23 -111c-6 -28 -12.667 -50.5 -20 -67.5s-17.166 -30 -29.499 -39s-28.166 -14.833 -47.499 -17.5s-43.666 -4 -72.999 -4
c-45.333 0 -77.5 3.83301 -96.5 11.5s-28.5 25.167 -28.5 52.5c0 16.667 3 38 9 64l19 92h100l-17 -81c-2 -9.33301 -3 -16.666 -3 -21.999c0 -9.33301 2.83301 -15.333 8.5 -18s15.5 -4 29.5 -4c18.667 0 31.167 3 37.5 9s11.166 17.667 14.499 35l15 73c2 8 3 15 3 21
c0 9.33301 -3.66699 17 -11 23s-20.666 13.333 -39.999 22c-18.667 8 -34.334 15.333 -47.001 22s-23 13.5 -31 20.5s-13.833 14.667 -17.5 23s-5.5 18.166 -5.5 29.499c0 12 2 27 6 45l16 73c6 28 12.667 50.5 20 67.5s17.166 30 29.499 39s28.166 14.833 47.499 17.5
s44 4 74 4c44.667 0 76.5 -3.83301 95.5 -11.5s28.5 -25.167 28.5 -52.5c0 -16.667 -3 -38 -9 -64l-12 -55h-99zM117.001 -19.998h102l-117 -165h-70z" />
    <glyph glyph-name="scedilla" unicode="&#x219;" horiz-adv-x="354" 
d="M311 426l10.001 45.002c2 8.66699 3 16 3 22c0 8 -2.83301 13.5 -8.5 16.5s-15.167 4.5 -28.5 4.5c-20 0 -32.833 -2.83301 -38.5 -8.5s-10.5 -17.167 -14.5 -34.5l-11 -48c-2 -8 -3 -14.667 -3 -20c0 -8.66699 2.83301 -15.834 8.5 -21.501s16.5 -12.167 32.5 -19.5
c22 -10 40.167 -19 54.5 -27s25.666 -15.667 33.999 -23s14.333 -14.833 18 -22.5s5.5 -16.167 5.5 -25.5c0 -8.66699 -1.66699 -20.334 -5 -35.001l-23 -111c-6 -28 -12.667 -50.5 -20 -67.5s-17.166 -30 -29.499 -39s-28.166 -14.833 -47.499 -17.5s-43.666 -4 -72.999 -4
c-45.333 0 -77.5 3.83301 -96.5 11.5s-28.5 25.167 -28.5 52.5c0 16.667 3 38 9 64l19 92h100l-17 -81c-2 -9.33301 -3 -16.666 -3 -21.999c0 -9.33301 2.83301 -15.333 8.5 -18s15.5 -4 29.5 -4c18.667 0 31.167 3 37.5 9s11.166 17.667 14.499 35l15 73c2 8 3 15 3 21
c0 9.33301 -3.66699 17 -11 23s-20.666 13.333 -39.999 22c-18.667 8 -34.334 15.333 -47.001 22s-23 13.5 -31 20.5s-13.833 14.667 -17.5 23s-5.5 18.166 -5.5 29.499c0 12 2 27 6 45l16 73c6 28 12.667 50.5 20 67.5s17.166 30 29.499 39s28.166 14.833 47.499 17.5
s44 4 74 4c44.667 0 76.5 -3.83301 95.5 -11.5s28.5 -25.167 28.5 -52.5c0 -16.667 -3 -38 -9 -64l-12 -55h-99zM117.001 -19.998h102l-117 -165h-70z" />
    <glyph glyph-name="Scaron" unicode="&#x160;" horiz-adv-x="395" 
d="M360 534l20.9961 98.001c4 16.667 6 30 6 40c0 10.667 -3 17.5 -9 20.5s-16.667 4.5 -32 4.5c-11.333 0 -20.333 -0.833008 -27 -2.5s-12.167 -4.66699 -16.5 -9s-8 -10.833 -11 -19.5s-5.83301 -20 -8.5 -34l-17 -78c-2 -10 -3 -18.333 -3 -25
c0 -10.667 3.66699 -19.334 11 -26.001s20.666 -15.667 39.999 -27c22.667 -13.333 41.5 -25 56.5 -35s27 -19.667 36 -29s15.5 -18.833 19.5 -28.5s6 -20.5 6 -32.5c0 -18 -3 -40.333 -9 -67l-27 -127c-8 -36.667 -16.5 -66 -25.5 -88s-20.833 -38.833 -35.5 -50.5
s-33.167 -19.334 -55.5 -23.001s-50.5 -5.5 -84.5 -5.5c-24 0 -44.667 1 -62 3s-31.5 5.83301 -42.5 11.5s-19 13.667 -24 24s-7.5 24.166 -7.5 41.499c0 22 4 51 12 87l33 157h112l-33 -157c-4 -17.333 -6 -30.333 -6 -39c0 -10.667 3 -17.667 9 -21s16.333 -5 31 -5
c10.667 0 19.334 0.833008 26.001 2.5s12.334 4.83398 17.001 9.50098s8.33398 11.167 11.001 19.5s5.66699 19.5 9 33.5l25 119l3.5 21c1 6 1.5 11.667 1.5 17c0 11.333 -3.33301 20.833 -10 28.5s-19.667 17.167 -39 28.5c-22.667 12.667 -41.667 24.167 -57 34.5
s-27.5 20.333 -36.5 30s-15.333 19.334 -19 29.001s-5.5 20.167 -5.5 31.5c0 8.66699 0.833008 17.834 2.5 27.501s3.83398 20.5 6.50098 32.5l16 76c8 36.667 16.333 66 25 88s20.334 39 35.001 51s33.167 19.833 55.5 23.5s50.5 5.5 84.5 5.5c24.667 0 45.667 -1 63 -3
s31.5 -5.83301 42.5 -11.5s19 -13.667 24 -24s7.5 -23.833 7.5 -40.5c0 -22.667 -4 -52.334 -12 -89.001l-21 -98h-112zM263.996 996.001h69l49 -109l97 109h75l-138 -166h-86z" />
    <glyph glyph-name="scaron" unicode="&#x161;" horiz-adv-x="354" 
d="M311 426l10.001 45.002c2 8.66699 3 16 3 22c0 8 -2.83301 13.5 -8.5 16.5s-15.167 4.5 -28.5 4.5c-20 0 -32.833 -2.83301 -38.5 -8.5s-10.5 -17.167 -14.5 -34.5l-11 -48c-2 -8 -3 -14.667 -3 -20c0 -8.66699 2.83301 -15.834 8.5 -21.501s16.5 -12.167 32.5 -19.5
c22 -10 40.167 -19 54.5 -27s25.666 -15.667 33.999 -23s14.333 -14.833 18 -22.5s5.5 -16.167 5.5 -25.5c0 -8.66699 -1.66699 -20.334 -5 -35.001l-23 -111c-6 -28 -12.667 -50.5 -20 -67.5s-17.166 -30 -29.499 -39s-28.166 -14.833 -47.499 -17.5s-43.666 -4 -72.999 -4
c-45.333 0 -77.5 3.83301 -96.5 11.5s-28.5 25.167 -28.5 52.5c0 16.667 3 38 9 64l19 92h100l-17 -81c-2 -9.33301 -3 -16.666 -3 -21.999c0 -9.33301 2.83301 -15.333 8.5 -18s15.5 -4 29.5 -4c18.667 0 31.167 3 37.5 9s11.166 17.667 14.499 35l15 73c2 8 3 15 3 21
c0 9.33301 -3.66699 17 -11 23s-20.666 13.333 -39.999 22c-18.667 8 -34.334 15.333 -47.001 22s-23 13.5 -31 20.5s-13.833 14.667 -17.5 23s-5.5 18.166 -5.5 29.499c0 12 2 27 6 45l16 73c6 28 12.667 50.5 20 67.5s17.166 30 29.499 39s28.166 14.833 47.499 17.5
s44 4 74 4c44.667 0 76.5 -3.83301 95.5 -11.5s28.5 -25.167 28.5 -52.5c0 -16.667 -3 -38 -9 -64l-12 -55h-99zM203.001 805.002h69l49 -109l97 109h75l-138 -166h-86z" />
    <glyph glyph-name="Tcaron" unicode="&#x164;" horiz-adv-x="311" 
d="M447 694h-86l-147 -694h-115l147 694h-87l20 96h288zM222 996h69l49 -109l97 109h75l-138 -166h-86z" />
    <glyph glyph-name="tcaron" unicode="&#x165;" horiz-adv-x="329" 
d="M327 516h-69.999l-80 -376c-2 -10 -3 -18 -3 -24c0 -11.333 3.16699 -19 9.5 -23s17.166 -6 32.499 -6h19l-18 -87h-26c-45.333 0 -77.333 6.66699 -96 20s-28 34.333 -28 63c0 6.66699 0.333008 13.667 1 21s2 15 4 23l83 389h-37l18 83h37l39 182h102l-39 -182h70z
M391.001 790h102l-117 -165h-70z" />
    <glyph glyph-name="Tbar" unicode="&#x166;" horiz-adv-x="311" 
d="M362 468h-49l-99 -468h-115l99 468h-49l19 90h49l29 136h-87l20 96h288l-20 -96h-86l-29 -136h49z" />
    <glyph glyph-name="tbar" unicode="&#x167;" horiz-adv-x="240" 
d="M274 288h-64.999l-32 -148c-2 -10 -3 -18 -3 -24c0 -11.333 3.16699 -19 9.5 -23s17.166 -6 32.499 -6h19l-18 -87h-26c-45.333 0 -77.333 6.66699 -96 20s-28 34.333 -28 63c0 6.66699 0.333008 13.667 1 21s2 15 4 23l35 161h-31l19 90h31l29 138h-37l18 83h37l39 182
h102l-39 -182h70l-18 -83h-70l-29 -138h65z" />
    <glyph glyph-name="Utilde" unicode="&#x168;" horiz-adv-x="403" 
d="M200 -10c-25.333 0 -46.667 1.00195 -64 3.00195s-31.666 5.83301 -42.999 11.5s-19.5 13.667 -24.5 24s-7.5 24.166 -7.5 41.499c0 22 4 51 12 87l134 633h115l-134 -633c-4 -16 -6 -28.333 -6 -37c0 -11.333 3.16699 -18.666 9.5 -21.999s17.166 -5 32.499 -5
c10 0 18.333 0.833008 25 2.5s12.167 4.66699 16.5 9s8 10.666 11 18.999s6.16699 19.5 9.5 33.5l134 633h112l-134 -633c-8 -36.667 -16.5 -66 -25.5 -88s-20.833 -38.833 -35.5 -50.5s-33 -19.334 -55 -23.001s-49.333 -5.5 -82 -5.5zM315.999 914.002
c-16.667 0 -30.834 -3.33008 -42.501 -9.99707s-22.167 -15.334 -31.5 -26.001l15 73c9.33301 7.33301 20.5 13.5 33.5 18.5s26.5 7.5 40.5 7.5s27 -1.66699 39 -5s23.667 -6.83301 35 -10.5s23 -7.16699 35 -10.5s25 -5 39 -5c30.667 0 56.334 12 77.001 36l-16 -72
c-9.33301 -8.66699 -20.5 -15.667 -33.5 -21s-27.167 -8 -42.5 -8c-14 0 -27 1.66699 -39 5s-23.667 7.16602 -35 11.499s-23 8.16602 -35 11.499s-25 5 -39 5z" />
    <glyph glyph-name="utilde" unicode="&#x169;" horiz-adv-x="376" 
d="M357 599l103.002 0.00195312l-127 -599h-96l8 39c-10.667 -14.667 -24.167 -25.667 -40.5 -33s-36.833 -11 -61.5 -11c-30.667 0 -52.834 4.5 -66.501 13.5s-20.5 25.833 -20.5 50.5c0 8 0.666992 16.833 2 26.5s3.33301 20.167 6 31.5l103 482h102l-101 -472
c-0.666992 -3.33301 -1.16699 -6.33301 -1.5 -9s-0.5 -5.33398 -0.5 -8.00098c0 -8.66699 2.66699 -14.834 8 -18.501s14.666 -5.5 27.999 -5.5s23.833 2.83301 31.5 8.5s14.5 13.167 20.5 22.5zM263.002 723.002c-16.667 0 -30.834 -3.33008 -42.501 -9.99707
s-22.167 -15.334 -31.5 -26.001l15 73c9.33301 7.33301 20.5 13.5 33.5 18.5s26.5 7.5 40.5 7.5s27 -1.66699 39 -5s23.667 -6.83301 35 -10.5s23 -7.16699 35 -10.5s25 -5 39 -5c30.667 0 56.334 12 77.001 36l-16 -72c-9.33301 -8.66699 -20.5 -15.667 -33.5 -21
s-27.167 -8 -42.5 -8c-14 0 -27 1.66699 -39 5s-23.667 7.16602 -35 11.499s-23 8.16602 -35 11.499s-25 5 -39 5z" />
    <glyph glyph-name="Umacron" unicode="&#x16a;" horiz-adv-x="403" 
d="M200 -10c-25.333 0 -46.667 1.00195 -64 3.00195s-31.666 5.83301 -42.999 11.5s-19.5 13.667 -24.5 24s-7.5 24.166 -7.5 41.499c0 22 4 51 12 87l134 633h115l-134 -633c-4 -16 -6 -28.333 -6 -37c0 -11.333 3.16699 -18.666 9.5 -21.999s17.166 -5 32.499 -5
c10 0 18.333 0.833008 25 2.5s12.167 4.66699 16.5 9s8 10.666 11 18.999s6.16699 19.5 9.5 33.5l134 633h112l-134 -633c-8 -36.667 -16.5 -66 -25.5 -88s-20.833 -38.833 -35.5 -50.5s-33 -19.334 -55 -23.001s-49.333 -5.5 -82 -5.5zM537.999 899.002h-292l13 61h292z
" />
    <glyph glyph-name="umacron" unicode="&#x16b;" horiz-adv-x="376" 
d="M357 599l103.002 0.00195312l-127 -599h-96l8 39c-10.667 -14.667 -24.167 -25.667 -40.5 -33s-36.833 -11 -61.5 -11c-30.667 0 -52.834 4.5 -66.501 13.5s-20.5 25.833 -20.5 50.5c0 8 0.666992 16.833 2 26.5s3.33301 20.167 6 31.5l103 482h102l-101 -472
c-0.666992 -3.33301 -1.16699 -6.33301 -1.5 -9s-0.5 -5.33398 -0.5 -8.00098c0 -8.66699 2.66699 -14.834 8 -18.501s14.666 -5.5 27.999 -5.5s23.833 2.83301 31.5 8.5s14.5 13.167 20.5 22.5zM485.002 708.002h-292l13 61h292z" />
    </font>
</defs>
</svg>
