<?xml version="1.0" encoding="utf-8"?>
<!-- Generator: Adobe Illustrator 24.3.0, SVG Export Plug-In . SVG Version: 6.00 Build 0)  -->
<svg version="1.1" id="Layer_1" xmlns="http://www.w3.org/2000/svg" xmlns:xlink="http://www.w3.org/1999/xlink" x="0px" y="0px"
	 viewBox="0 0 243 86.2" style="enable-background:new 0 0 243 86.2;" xml:space="preserve">
<style type="text/css">
	.st0{fill:#FFFFFF;}
</style>
<g>
	<g>
		<path class="st0" d="M138.9,40.9h-2.5l-0.4,3.3h2.4l-0.1,1.2h-2.5l-0.4,3.1h-1.2l0.4-3.1h-3.3l-0.4,3.1h-1.2l0.4-3.1h-2.4l0.1-1.2
			h2.5l0.4-3.3h-2.4l0.1-1.2h2.5l0.4-3.2h1.2l-0.4,3.2h3.3l0.4-3.2h1.2l-0.4,3.2h2.4L138.9,40.9z M134.8,44.1l0.4-3.3h-3.3l-0.4,3.3
			H134.8z"/>
		<path class="st0" d="M141.5,36.4h2l4.4,8.4l4.4-8.4h2v12h-1.5l0-9.6l-4.3,8.3h-1l-4.3-8.3v9.6h-1.5V36.4z"/>
		<path class="st0" d="M163.4,39.9c0.7,0.4,1.3,0.9,1.6,1.6c0.4,0.7,0.6,1.5,0.6,2.4c0,0.9-0.2,1.7-0.6,2.4
			c-0.4,0.7-0.9,1.2-1.6,1.6c-0.7,0.4-1.5,0.6-2.4,0.6c-0.9,0-1.7-0.2-2.4-0.6c-0.7-0.4-1.3-0.9-1.6-1.6c-0.4-0.7-0.6-1.5-0.6-2.4
			c0-0.9,0.2-1.7,0.6-2.4c0.4-0.7,0.9-1.2,1.6-1.6c0.7-0.4,1.5-0.6,2.4-0.6C161.9,39.3,162.7,39.5,163.4,39.9z M159.4,41.1
			c-0.5,0.3-0.8,0.7-1.1,1.1c-0.3,0.5-0.4,1-0.4,1.7c0,0.6,0.1,1.2,0.4,1.7c0.3,0.5,0.6,0.9,1.1,1.1c0.5,0.3,1,0.4,1.6,0.4
			c0.6,0,1.1-0.1,1.6-0.4c0.5-0.3,0.8-0.6,1.1-1.1c0.3-0.5,0.4-1.1,0.4-1.7c0-0.6-0.1-1.2-0.4-1.7c-0.3-0.5-0.6-0.9-1.1-1.1
			c-0.5-0.3-1-0.4-1.6-0.4C160.4,40.7,159.8,40.8,159.4,41.1z"/>
		<path class="st0" d="M172.9,47.8c-0.7,0.4-1.4,0.7-2.1,0.7s-1.3-0.2-1.7-0.6c-0.4-0.4-0.7-1.1-0.7-1.9v-5H167v-1.2h1.3v-2.4h1.6
			v2.4h2.8v1.2h-2.8v4.7c0,0.5,0.1,0.9,0.3,1.1c0.2,0.2,0.5,0.3,0.8,0.3c0.4,0,0.9-0.1,1.4-0.4L172.9,47.8z"/>
		<path class="st0" d="M176.6,36c0.2,0.2,0.3,0.4,0.3,0.7c0,0.3-0.1,0.5-0.3,0.7c-0.2,0.2-0.4,0.3-0.7,0.3c-0.3,0-0.5-0.1-0.7-0.3
			c-0.2-0.2-0.3-0.4-0.3-0.7c0-0.3,0.1-0.5,0.3-0.7c0.2-0.2,0.4-0.3,0.7-0.3C176.2,35.7,176.5,35.8,176.6,36z M175.1,39.4h1.6v9.1
			h-1.6V39.4z"/>
		<path class="st0" d="M178.7,39.4h1.7l2.7,7.5l2.7-7.5h1.6l-3.5,9.1h-1.7L178.7,39.4z"/>
		<path class="st0" d="M195.1,39.9c0.7,0.4,1.3,0.9,1.6,1.6c0.4,0.7,0.6,1.5,0.6,2.4c0,0.9-0.2,1.7-0.6,2.4
			c-0.4,0.7-0.9,1.2-1.6,1.6c-0.7,0.4-1.5,0.6-2.4,0.6c-0.9,0-1.7-0.2-2.4-0.6c-0.7-0.4-1.3-0.9-1.6-1.6c-0.4-0.7-0.6-1.5-0.6-2.4
			c0-0.9,0.2-1.7,0.6-2.4c0.4-0.7,0.9-1.2,1.6-1.6c0.7-0.4,1.5-0.6,2.4-0.6C193.6,39.3,194.4,39.5,195.1,39.9z M191.2,41.1
			c-0.5,0.3-0.8,0.7-1.1,1.1c-0.3,0.5-0.4,1-0.4,1.7c0,0.6,0.1,1.2,0.4,1.7c0.3,0.5,0.6,0.9,1.1,1.1c0.5,0.3,1,0.4,1.6,0.4
			c0.6,0,1.1-0.1,1.6-0.4c0.5-0.3,0.8-0.6,1.1-1.1c0.3-0.5,0.4-1.1,0.4-1.7c0-0.6-0.1-1.2-0.4-1.7c-0.3-0.5-0.6-0.9-1.1-1.1
			c-0.5-0.3-1-0.4-1.6-0.4C192.1,40.7,191.6,40.8,191.2,41.1z"/>
		<path class="st0" d="M203.7,40.8c-0.5-0.1-0.9-0.2-1.3-0.2c-0.5,0-0.9,0.1-1.2,0.3c-0.3,0.2-0.4,0.4-0.4,0.8
			c0,0.4,0.2,0.6,0.5,0.8c0.3,0.2,0.8,0.4,1.5,0.6c0.6,0.2,1.1,0.4,1.5,0.5c0.4,0.2,0.7,0.5,1,0.8c0.3,0.4,0.4,0.8,0.4,1.4
			c0,0.9-0.3,1.5-1,2c-0.6,0.4-1.4,0.7-2.4,0.7c-0.7,0-1.3-0.1-2-0.3c-0.6-0.2-1.2-0.5-1.6-0.9l0.6-1.2c0.4,0.3,0.8,0.6,1.4,0.8
			c0.6,0.2,1.1,0.3,1.6,0.3c0.5,0,0.9-0.1,1.3-0.3c0.3-0.2,0.5-0.5,0.5-0.9c0-0.4-0.2-0.7-0.5-0.9c-0.3-0.2-0.8-0.4-1.5-0.6
			c-0.6-0.2-1.1-0.3-1.5-0.5c-0.4-0.2-0.7-0.4-1-0.8c-0.3-0.3-0.4-0.8-0.4-1.3c0-0.8,0.3-1.5,0.9-1.9c0.6-0.4,1.4-0.6,2.3-0.6
			c0.5,0,1.1,0.1,1.6,0.2c0.5,0.2,1,0.4,1.4,0.6l-0.6,1.2C204.5,41.1,204.1,41,203.7,40.8z"/>
		<path class="st0" d="M216.4,37.5c0.8,0.7,1.2,1.7,1.2,3c0,1.3-0.4,2.4-1.2,3.1c-0.8,0.7-2,1.1-3.5,1.1h-3v3.7h-1.6v-12h4.6
			C214.5,36.4,215.6,36.8,216.4,37.5z M215.3,42.5c0.5-0.5,0.8-1.1,0.8-2c0-0.9-0.3-1.5-0.8-1.9c-0.5-0.4-1.3-0.7-2.4-0.7l-2.9,0
			v5.3h2.9C213.9,43.2,214.7,43,215.3,42.5z"/>
		<path class="st0" d="M225.2,48.4v-1.3c-0.7,0.9-1.7,1.3-3.2,1.3c-0.6,0-1.2-0.1-1.7-0.4c-0.5-0.2-0.8-0.6-1.1-1
			c-0.3-0.4-0.4-0.9-0.4-1.4c0-0.8,0.3-1.5,0.9-1.9c0.6-0.5,1.4-0.7,2.5-0.7h2.9v-0.4c0-0.6-0.2-1.1-0.6-1.5c-0.4-0.3-1-0.5-1.7-0.5
			c-0.9,0-1.8,0.3-2.8,1l-0.7-1.1c0.7-0.4,1.3-0.7,1.8-0.9c0.6-0.2,1.2-0.3,2-0.3c1.1,0,2,0.3,2.6,0.8c0.6,0.6,0.9,1.3,0.9,2.3l0,6
			H225.2z M224.3,46.6c0.5-0.4,0.8-0.8,0.9-1.4v-0.9h-2.7c-0.7,0-1.3,0.1-1.6,0.3c-0.3,0.2-0.5,0.6-0.5,1s0.2,0.8,0.5,1.1
			c0.4,0.3,0.8,0.4,1.4,0.4C223.1,47.2,223.8,47,224.3,46.6z"/>
		<path class="st0" d="M232.3,39.8c0.5-0.3,1.2-0.5,2-0.5v1.5c-0.9,0-1.7,0.2-2.2,0.7c-0.6,0.5-0.9,1.2-1,2.1v4.8h-1.6v-9.1h1.6v2
			C231.4,40.7,231.8,40.2,232.3,39.8z"/>
		<path class="st0" d="M241.4,48.4v-1.3c-0.7,0.9-1.7,1.3-3.2,1.3c-0.6,0-1.2-0.1-1.7-0.4c-0.5-0.2-0.8-0.6-1.1-1
			c-0.3-0.4-0.4-0.9-0.4-1.4c0-0.8,0.3-1.5,0.9-1.9c0.6-0.5,1.4-0.7,2.5-0.7h2.9v-0.4c0-0.6-0.2-1.1-0.6-1.5c-0.4-0.3-1-0.5-1.7-0.5
			c-0.9,0-1.8,0.3-2.8,1l-0.7-1.1c0.7-0.4,1.3-0.7,1.8-0.9c0.6-0.2,1.2-0.3,2-0.3c1.1,0,2,0.3,2.6,0.8c0.6,0.6,0.9,1.3,0.9,2.3l0,6
			H241.4z M240.5,46.6c0.5-0.4,0.8-0.8,0.9-1.4v-0.9h-2.7c-0.7,0-1.3,0.1-1.6,0.3c-0.3,0.2-0.5,0.6-0.5,1s0.2,0.8,0.5,1.1
			c0.4,0.3,0.8,0.4,1.4,0.4C239.3,47.2,240,47,240.5,46.6z"/>
		<path class="st0" d="M134.1,55.7c-0.6-0.2-1.2-0.3-1.7-0.3c-0.7,0-1.3,0.1-1.7,0.4c-0.4,0.3-0.6,0.6-0.6,1.1c0,0.4,0.1,0.8,0.4,1
			c0.3,0.3,0.6,0.5,0.9,0.6c0.4,0.2,0.9,0.3,1.5,0.5c0.8,0.3,1.5,0.5,2,0.7c0.5,0.2,0.9,0.6,1.3,1c0.4,0.5,0.5,1,0.5,1.8
			c0,0.7-0.2,1.3-0.6,1.8c-0.4,0.5-0.9,0.9-1.6,1.2c-0.7,0.3-1.4,0.4-2.3,0.4c-0.9,0-1.7-0.2-2.6-0.5c-0.8-0.3-1.6-0.8-2.2-1.4
			l0.7-1.4c0.6,0.6,1.2,1,1.9,1.3c0.7,0.3,1.4,0.5,2.1,0.5c0.8,0,1.4-0.2,1.9-0.5c0.5-0.3,0.7-0.7,0.7-1.3c0-0.4-0.1-0.8-0.4-1
			c-0.3-0.3-0.6-0.5-1-0.7c-0.4-0.2-0.9-0.3-1.6-0.5c-0.8-0.2-1.5-0.5-2-0.7c-0.5-0.2-0.9-0.6-1.3-1c-0.3-0.4-0.5-1-0.5-1.8
			c0-0.6,0.2-1.2,0.5-1.7c0.4-0.5,0.9-0.9,1.5-1.1c0.6-0.3,1.4-0.4,2.2-0.4c0.7,0,1.4,0.1,2.1,0.3c0.7,0.2,1.3,0.5,1.8,0.8l-0.7,1.5
			C135.3,56.1,134.7,55.8,134.1,55.7z"/>
		<path class="st0" d="M144.7,66v-1.3c-0.7,0.9-1.7,1.3-3.2,1.3c-0.6,0-1.2-0.1-1.7-0.4c-0.5-0.2-0.8-0.6-1.1-1
			c-0.3-0.4-0.4-0.9-0.4-1.4c0-0.8,0.3-1.5,0.9-1.9c0.6-0.5,1.4-0.7,2.5-0.7h2.9v-0.4c0-0.6-0.2-1.1-0.6-1.5c-0.4-0.3-1-0.5-1.7-0.5
			c-0.9,0-1.8,0.3-2.8,1l-0.7-1.1c0.7-0.4,1.3-0.7,1.8-0.9c0.6-0.2,1.2-0.3,2-0.3c1.1,0,2,0.3,2.6,0.8c0.6,0.6,0.9,1.3,0.9,2.3l0,6
			H144.7z M143.8,64.2c0.5-0.4,0.8-0.8,0.9-1.4v-0.9h-2.7c-0.7,0-1.3,0.1-1.6,0.3c-0.3,0.2-0.5,0.6-0.5,1s0.2,0.8,0.5,1.1
			c0.4,0.3,0.8,0.4,1.4,0.4C142.6,64.7,143.3,64.5,143.8,64.2z"/>
		<path class="st0" d="M149.2,53.2h1.6V66h-1.6V53.2z"/>
		<path class="st0" d="M155,53.6c0.2,0.2,0.3,0.4,0.3,0.7c0,0.3-0.1,0.5-0.3,0.7c-0.2,0.2-0.4,0.3-0.7,0.3c-0.3,0-0.5-0.1-0.7-0.3
			c-0.2-0.2-0.3-0.4-0.3-0.7c0-0.3,0.1-0.5,0.3-0.7c0.2-0.2,0.4-0.3,0.7-0.3C154.6,53.3,154.8,53.4,155,53.6z M153.5,56.9h1.6V66
			h-1.6V56.9z"/>
		<path class="st0" d="M160.7,57.4c0.5-0.3,1.2-0.5,2-0.5v1.5c-0.9,0-1.7,0.2-2.2,0.7c-0.6,0.5-0.9,1.2-1,2.1V66h-1.6v-9.1h1.6v2
			C159.8,58.2,160.2,57.7,160.7,57.4z"/>
		<path class="st0" d="M173.4,66l-1.3-2.9h-6.3l-1.3,2.9h-1.7l5.3-12h1.7l5.3,12H173.4z M166.4,61.5h5l-2.5-5.8L166.4,61.5z"/>
		<path class="st0" d="M185.5,53.2V66h-1.6v-1.8c-0.3,0.6-0.8,1.1-1.4,1.4c-0.6,0.3-1.2,0.5-2,0.5c-0.9,0-1.6-0.2-2.3-0.6
			c-0.7-0.4-1.2-0.9-1.5-1.6c-0.4-0.7-0.5-1.5-0.5-2.4c0-0.9,0.2-1.7,0.5-2.4c0.4-0.7,0.9-1.2,1.5-1.6c0.7-0.4,1.4-0.6,2.3-0.6
			c0.8,0,1.5,0.2,2,0.5c0.6,0.3,1,0.8,1.4,1.4v-5.5H185.5z M182.4,64.3c0.5-0.3,0.8-0.7,1.1-1.1c0.3-0.5,0.4-1,0.4-1.7
			c0-0.6-0.1-1.2-0.4-1.7c-0.3-0.5-0.6-0.9-1.1-1.1c-0.5-0.3-1-0.4-1.6-0.4c-0.6,0-1.1,0.1-1.6,0.4c-0.5,0.3-0.8,0.7-1.1,1.2
			c-0.3,0.5-0.4,1-0.4,1.7c0,0.6,0.1,1.2,0.4,1.7c0.3,0.5,0.6,0.9,1.1,1.1c0.5,0.3,1,0.4,1.6,0.4C181.4,64.7,182,64.5,182.4,64.3z"
			/>
		<path class="st0" d="M195.3,58.1c0.7,0.8,1.1,2,1.1,3.5c0,0.2,0,0.4,0,0.5h-7.2c0.1,0.8,0.5,1.5,1,1.9c0.6,0.5,1.2,0.7,2,0.7
			c0.5,0,1-0.1,1.5-0.3s0.9-0.5,1.2-0.8l0.9,0.9c-0.4,0.5-1,0.9-1.6,1.1c-0.6,0.3-1.3,0.4-2.1,0.4c-0.9,0-1.7-0.2-2.4-0.6
			c-0.7-0.4-1.2-0.9-1.6-1.6c-0.4-0.7-0.6-1.5-0.6-2.4c0-0.9,0.2-1.7,0.6-2.4c0.4-0.7,0.9-1.2,1.6-1.6c0.7-0.4,1.5-0.6,2.3-0.6
			C193.5,56.8,194.6,57.2,195.3,58.1z M194.9,60.8c0-0.8-0.3-1.5-0.8-1.9c-0.5-0.5-1.2-0.7-2-0.7c-0.8,0-1.5,0.2-2,0.7
			c-0.5,0.5-0.8,1.1-1,1.9H194.9z"/>
		<path class="st0" d="M198.5,53.2h1.6V66h-1.6V53.2z"/>
		<path class="st0" d="M208.6,66v-1.3c-0.7,0.9-1.7,1.3-3.2,1.3c-0.6,0-1.2-0.1-1.7-0.4c-0.5-0.2-0.8-0.6-1.1-1
			c-0.3-0.4-0.4-0.9-0.4-1.4c0-0.8,0.3-1.5,0.9-1.9c0.6-0.5,1.4-0.7,2.5-0.7h2.9v-0.4c0-0.6-0.2-1.1-0.6-1.5c-0.4-0.3-1-0.5-1.7-0.5
			c-0.9,0-1.8,0.3-2.8,1l-0.7-1.1c0.7-0.4,1.3-0.7,1.8-0.9c0.6-0.2,1.2-0.3,2-0.3c1.1,0,2,0.3,2.6,0.8c0.6,0.6,0.9,1.3,0.9,2.3l0,6
			H208.6z M207.7,64.2c0.5-0.4,0.8-0.8,0.9-1.4v-0.9H206c-0.7,0-1.3,0.1-1.6,0.3c-0.3,0.2-0.5,0.6-0.5,1s0.2,0.8,0.5,1.1
			c0.4,0.3,0.8,0.4,1.4,0.4C206.5,64.7,207.2,64.5,207.7,64.2z"/>
		<path class="st0" d="M220.3,57.8c0.6,0.6,0.9,1.5,0.9,2.6V66h-1.6v-5.2c0-0.8-0.2-1.4-0.6-1.8c-0.4-0.4-1-0.6-1.8-0.6
			c-0.8,0-1.5,0.3-2,0.8c-0.5,0.5-0.8,1.2-0.9,2V66h-1.6v-9.1h1.6v1.9c0.6-1.3,1.8-1.9,3.4-2C218.8,56.8,219.6,57.1,220.3,57.8z"/>
		<path class="st0" d="M228.7,65.4c-0.7,0.4-1.4,0.7-2.1,0.7c-0.7,0-1.3-0.2-1.7-0.6c-0.4-0.4-0.7-1.1-0.7-1.9v-5h-1.3v-1.2h1.3
			v-2.4h1.6v2.4h2.8v1.2h-2.8v4.7c0,0.5,0.1,0.9,0.3,1.1c0.2,0.2,0.5,0.3,0.8,0.3c0.4,0,0.9-0.1,1.4-0.4L228.7,65.4z"/>
		<path class="st0" d="M237.6,58.1c0.7,0.8,1.1,2,1.1,3.5c0,0.2,0,0.4,0,0.5h-7.2c0.1,0.8,0.5,1.5,1,1.9c0.6,0.5,1.2,0.7,2,0.7
			c0.5,0,1-0.1,1.5-0.3c0.5-0.2,0.9-0.5,1.2-0.8l0.9,0.9c-0.4,0.5-1,0.9-1.6,1.1c-0.6,0.3-1.3,0.4-2.1,0.4c-0.9,0-1.7-0.2-2.4-0.6
			c-0.7-0.4-1.2-0.9-1.6-1.6c-0.4-0.7-0.6-1.5-0.6-2.4c0-0.9,0.2-1.7,0.6-2.4c0.4-0.7,0.9-1.2,1.6-1.6c0.7-0.4,1.5-0.6,2.3-0.6
			C235.8,56.8,236.9,57.2,237.6,58.1z M237.2,60.8c0-0.8-0.3-1.5-0.8-1.9c-0.5-0.5-1.2-0.7-2-0.7c-0.8,0-1.5,0.2-2,0.7
			c-0.5,0.5-0.8,1.1-1,1.9H237.2z"/>
	</g>
	<g>
		<path class="st0" d="M65.3,61.1c0-0.1,0-0.2,0-0.3c0-0.8,0.1-1.6,0.1-2.4c0-0.9,0.1-1.9,0.1-2.8c0-0.9,0.1-1.8,0.1-2.7
			c0-1.2,0.1-2.4,0.1-3.6c0.1-1.7,0-3.4,0-5.1c0-0.3-0.1-0.6-0.2-0.9c-0.1-0.2-0.2-0.5-0.3-0.7c-0.4-0.7-0.5-1.4-0.4-2.2
			c0.1-0.7,0-1.4-0.2-2.1c-0.1-0.4-0.3-0.9-0.4-1.3c-0.1-0.6-0.4-1.2-0.7-1.7c-0.1-0.3-0.3-0.6-0.4-1c-0.1-0.2-0.1-0.3-0.1-0.5
			c0-0.3,0.2-0.4,0.4-0.5c0.2-0.1,0.3,0,0.5,0.2c0.1,0.1,0.2,0.3,0.3,0.5c0.4,0.9,0.8,1.7,1.3,2.6c0.1,0.1,0.2,0.3,0.3,0.4
			c0-0.2,0-0.5,0-0.7c-0.1-1-0.3-2.1-0.4-3.1c0-0.4-0.1-0.8,0-1.1c0-0.2,0.1-0.4,0.2-0.5c0.2-0.3,0.6-0.3,0.9,0
			c0.2,0.3,0.2,0.6,0.3,0.9c0.2,1,0.2,2.1,0.5,3.1c0,0.1,0.1,0.3,0.1,0.4c0,0.1,0.1,0.2,0.2,0.1c0.1,0,0.1-0.1,0.1-0.2
			c0.1-0.2,0.1-0.5,0.1-0.7c0.1-0.9,0-1.8,0-2.7c0-0.4,0-0.7,0-1.1c0-0.4,0.2-0.7,0.5-1c0.3-0.3,0.7-0.2,0.9,0.2
			c0.1,0.4,0.1,0.8,0,1.2c0,0.6-0.1,1.2-0.2,1.8c0,0.6-0.1,1.2-0.1,1.8c0,0.2,0,0.4,0.1,0.6c0.1,0.3,0.2,0.3,0.4,0.1
			c0.2-0.2,0.2-0.4,0.3-0.6c0.3-0.7,0.4-1.5,0.6-2.2c0.1-0.4,0.3-0.9,0.5-1.3c0.1-0.2,0.2-0.4,0.4-0.5c0.2-0.3,0.5-0.2,0.7,0.1
			c0.1,0.2,0.1,0.5,0.1,0.7c-0.1,0.8-0.2,1.6-0.4,2.4c-0.1,0.6-0.3,1.2-0.5,1.8c-0.1,0.4-0.3,0.7-0.3,1.1c-0.1,0.4-0.1,0.8,0.2,1.2
			c0.2,0.4,0.5,0.5,0.9,0.2c0.3-0.2,0.5-0.5,0.7-0.7c0.4-0.6,1-1,1.7-1.3c0.2-0.1,0.4-0.1,0.6-0.1c0.5,0,0.7,0.3,0.6,0.8
			c0,0.3-0.1,0.5-0.3,0.7c-0.2,0.2-0.4,0.4-0.6,0.5c-0.2,0.2-0.4,0.3-0.6,0.5c-0.3,0.2-0.5,0.5-0.6,0.8c0,0.2-0.1,0.3-0.1,0.5
			c-0.1,0.5-0.4,0.8-0.9,1.1c-0.6,0.3-0.9,0.8-1.2,1.4c-0.7,1.4-1,2.9-1.2,4.5c-0.1,0.8-0.1,1.7-0.1,2.5c0,1,0,2.1,0.1,3.1
			c0,0.8,0.1,1.5,0.1,2.3c0,1,0.1,1.9,0.1,2.9c0,0.4,0,0.9,0.1,1.3c0.7-0.1,1.4-0.1,2.1-0.1c2.1,0,4,0.4,5.8,1.1
			c0.3-8.7,0.7-21.3,0.7-23.2c0-0.3-0.1-0.6-0.2-0.9c-0.1-0.2-0.2-0.4-0.3-0.7c-0.4-0.7-0.5-1.4-0.4-2.2c0.1-0.7,0-1.4-0.2-2.1
			c-0.1-0.4-0.3-0.9-0.3-1.3c-0.1-0.6-0.4-1.1-0.7-1.7c-0.1-0.3-0.3-0.6-0.4-1c-0.1-0.2-0.1-0.3-0.1-0.5c0-0.3,0.2-0.4,0.4-0.5
			c0.2-0.1,0.3,0,0.5,0.2c0.1,0.1,0.2,0.3,0.3,0.5c0.4,0.9,0.8,1.7,1.3,2.5c0.1,0.1,0.2,0.3,0.3,0.4c0-0.2,0-0.5,0-0.7
			c-0.1-1-0.3-2-0.4-3c0-0.4-0.1-0.7,0-1.1c0-0.2,0.1-0.4,0.2-0.5c0.2-0.3,0.6-0.3,0.8,0c0.2,0.3,0.2,0.6,0.2,0.9
			c0.2,1,0.2,2,0.5,3.1c0,0.1,0.1,0.3,0.1,0.4c0,0.1,0.1,0.2,0.2,0.1c0.1,0,0.1-0.1,0.1-0.2c0.1-0.2,0.1-0.4,0.1-0.7
			c0.1-0.9,0-1.8,0-2.6c0-0.4,0-0.7,0-1.1c0-0.4,0.2-0.7,0.4-1c0.3-0.3,0.7-0.2,0.9,0.2c0.1,0.4,0.1,0.8,0,1.2
			c0,0.6-0.1,1.2-0.2,1.8c0,0.6-0.1,1.2-0.1,1.8c0,0.2,0,0.4,0.1,0.6c0.1,0.3,0.2,0.3,0.4,0.1c0.2-0.2,0.2-0.4,0.3-0.6
			c0.2-0.7,0.4-1.5,0.6-2.2c0.1-0.4,0.2-0.8,0.4-1.2c0.1-0.2,0.2-0.3,0.4-0.5c0.2-0.2,0.5-0.2,0.7,0.1c0.1,0.2,0.1,0.5,0.1,0.7
			c-0.1,0.8-0.2,1.6-0.3,2.3c-0.1,0.6-0.2,1.2-0.5,1.7c-0.1,0.3-0.3,0.7-0.3,1.1c0,0.4-0.1,0.8,0.1,1.2c0.2,0.4,0.5,0.5,0.9,0.2
			c0.3-0.2,0.5-0.5,0.6-0.7c0.4-0.6,1-1,1.7-1.3c0.2-0.1,0.4-0.1,0.6-0.1c0.5,0,0.7,0.3,0.6,0.7c0,0.3-0.1,0.5-0.3,0.7
			c-0.2,0.2-0.4,0.4-0.6,0.5c-0.2,0.1-0.4,0.3-0.6,0.5c-0.3,0.2-0.5,0.5-0.6,0.8c0,0.2-0.1,0.3-0.1,0.5c-0.1,0.5-0.4,0.8-0.8,1
			c-0.6,0.3-0.9,0.8-1.1,1.3c-0.7,1.4-1,2.9-1.2,4.4c-0.1,0.8-0.1,1.6-0.1,2.5c0,0.3,0,0.6,0,1c0.1,3.2,0.7,14.4,1.1,20.7
			c0.5,0.6,0.9,1.1,1.2,1.8c0.6-2.3,2.1-4.3,4.2-5.5c0-0.5,0-1,0.1-1.5c0-0.8,0.1-1.7,0.1-2.5c0-0.8,0-1.6,0.1-2.4
			c0-1.1,0-2.2,0.1-3.2c0.1-1.5,0-3,0-4.5c0-0.3-0.1-0.6-0.2-0.8c-0.1-0.2-0.2-0.4-0.3-0.6c-0.3-0.6-0.5-1.3-0.4-2
			c0.1-0.6,0-1.3-0.2-1.9c-0.1-0.4-0.2-0.8-0.3-1.2c-0.1-0.5-0.4-1-0.6-1.5c-0.1-0.3-0.3-0.6-0.4-0.9c-0.1-0.2-0.1-0.3-0.1-0.5
			c0-0.2,0.1-0.4,0.3-0.5c0.2-0.1,0.3,0,0.4,0.2c0.1,0.1,0.2,0.3,0.3,0.5c0.3,0.8,0.7,1.5,1.2,2.3c0.1,0.1,0.1,0.2,0.3,0.3
			c0-0.2,0-0.4,0-0.6c-0.1-0.9-0.2-1.8-0.3-2.7c0-0.3-0.1-0.7,0-1c0-0.2,0.1-0.3,0.2-0.5c0.2-0.3,0.6-0.3,0.8,0
			c0.2,0.2,0.2,0.5,0.2,0.8c0.1,0.9,0.2,1.9,0.4,2.8c0,0.1,0.1,0.2,0.1,0.3c0,0.1,0.1,0.1,0.1,0.1c0.1,0,0.1-0.1,0.1-0.1
			c0.1-0.2,0.1-0.4,0.1-0.6c0.1-0.8,0-1.6,0-2.4c0-0.3,0-0.6,0-1c0-0.4,0.1-0.7,0.4-0.9c0.3-0.3,0.7-0.2,0.8,0.2
			c0.1,0.4,0.1,0.7,0,1.1c0,0.5-0.1,1.1-0.1,1.6c0,0.5-0.1,1.1-0.1,1.6c0,0.2,0,0.4,0.1,0.6c0.1,0.2,0.2,0.3,0.4,0.1
			c0.1-0.2,0.2-0.4,0.3-0.5c0.2-0.6,0.4-1.3,0.5-2c0.1-0.4,0.2-0.8,0.4-1.1c0.1-0.2,0.2-0.3,0.3-0.4c0.2-0.2,0.5-0.2,0.6,0.1
			c0.1,0.2,0.1,0.4,0.1,0.6c0,0.7-0.2,1.4-0.3,2.1c-0.1,0.5-0.2,1.1-0.4,1.6c-0.1,0.3-0.3,0.6-0.3,1c0,0.4-0.1,0.8,0.1,1.1
			c0.2,0.3,0.5,0.4,0.8,0.2c0.2-0.2,0.4-0.4,0.6-0.7c0.4-0.5,0.9-0.9,1.5-1.1c0.2-0.1,0.4-0.1,0.6-0.1c0.4,0,0.6,0.2,0.6,0.7
			c0,0.2-0.1,0.4-0.3,0.6c-0.2,0.2-0.3,0.3-0.5,0.5c-0.2,0.1-0.4,0.3-0.6,0.4c-0.2,0.2-0.4,0.4-0.5,0.7c0,0.1-0.1,0.3-0.1,0.4
			c-0.1,0.4-0.4,0.8-0.8,1c-0.5,0.3-0.8,0.7-1,1.2c-0.6,1.3-0.9,2.6-1.1,4c-0.1,0.7-0.1,1.5-0.1,2.2c0,0.9,0,1.8,0.1,2.8
			c0,0.7,0.1,1.3,0.1,2c0,0.9,0.1,1.7,0.1,2.6c0,0.1,0,0.1,0,0.2c0.6-0.1,1.3-0.1,1.9-0.1c1.9,0,3.9,0.4,5.7,1c0-0.4,0-0.8,0-1.2
			c0-0.6,0-1.3,0.1-1.9c0-0.9,0-1.8,0.1-2.6c0-1.2,0-2.4,0-3.7c0-0.2-0.1-0.4-0.2-0.7c-0.1-0.2-0.2-0.3-0.2-0.5
			c-0.3-0.5-0.4-1-0.3-1.6c0.1-0.5,0-1-0.2-1.5c-0.1-0.3-0.2-0.6-0.3-0.9c-0.1-0.4-0.3-0.8-0.5-1.2c-0.1-0.2-0.2-0.5-0.3-0.7
			c0-0.1-0.1-0.2-0.1-0.4c0-0.2,0.1-0.3,0.3-0.4c0.1-0.1,0.3,0,0.3,0.1c0.1,0.1,0.2,0.2,0.2,0.4c0.3,0.6,0.6,1.3,1,1.8
			c0.1,0.1,0.1,0.2,0.2,0.3c0-0.2,0-0.3,0-0.5c-0.1-0.7-0.2-1.5-0.3-2.2c0-0.3-0.1-0.6,0-0.8c0-0.1,0.1-0.3,0.1-0.4
			c0.2-0.2,0.5-0.2,0.6,0c0.1,0.2,0.1,0.4,0.2,0.6c0.1,0.8,0.2,1.5,0.3,2.3c0,0.1,0,0.2,0.1,0.3c0,0,0,0.1,0.1,0.1
			c0.1,0,0.1-0.1,0.1-0.1c0.1-0.2,0.1-0.3,0.1-0.5c0-0.6,0-1.3,0-1.9c0-0.3,0-0.5,0-0.8c0-0.3,0.1-0.5,0.3-0.7
			c0.2-0.2,0.5-0.1,0.6,0.2c0.1,0.3,0,0.6,0,0.9c0,0.4-0.1,0.9-0.1,1.3c0,0.4-0.1,0.9-0.1,1.3c0,0.2,0,0.3,0.1,0.5
			c0.1,0.2,0.2,0.2,0.3,0.1c0.1-0.1,0.2-0.3,0.2-0.4c0.2-0.5,0.3-1.1,0.4-1.6c0.1-0.3,0.2-0.6,0.3-0.9c0.1-0.1,0.2-0.3,0.3-0.4
			c0.2-0.2,0.4-0.1,0.5,0.1c0.1,0.2,0.1,0.3,0.1,0.5c0,0.6-0.1,1.2-0.3,1.7c-0.1,0.4-0.2,0.9-0.4,1.3c-0.1,0.3-0.2,0.5-0.2,0.8
			c0,0.3,0,0.6,0.1,0.9c0.1,0.3,0.4,0.3,0.6,0.1c0.2-0.2,0.3-0.3,0.5-0.5c0.3-0.4,0.7-0.7,1.2-0.9c0.1-0.1,0.3-0.1,0.5-0.1
			c0.3,0,0.5,0.2,0.5,0.5c0,0.2-0.1,0.4-0.2,0.5c-0.1,0.1-0.3,0.3-0.4,0.4c-0.2,0.1-0.3,0.2-0.5,0.4c-0.2,0.2-0.3,0.3-0.4,0.6
			c0,0.1-0.1,0.2-0.1,0.3c-0.1,0.3-0.3,0.6-0.6,0.8c-0.4,0.2-0.7,0.6-0.8,1c-0.5,1-0.7,2.1-0.9,3.2c-0.1,0.6-0.1,1.2-0.1,1.8
			c0,0.8,0,1.5,0,2.3c0,0.5,0,1.1,0.1,1.6c0,0.7,0.1,1.4,0.1,2.1c0,0.3,0,0.5,0,0.8c0.3,0.2,0.5,0.3,0.8,0.5l1.6,1
			c5.4-6.5,8.5-15.9,8.5-26.9C114.8,15.3,103,0,85.4,0C67.8,0,55.9,15.3,55.9,36.8c0,10.3,2.7,19.1,7.4,25.5
			C64,61.9,64.6,61.5,65.3,61.1z"/>
		<g>
			<path class="st0" d="M26.9,85.6v-2.9c-1.6,1.9-4,3.4-7.6,3.4c-4.4,0-8.4-2.5-8.4-7.2v-0.1c0-5.2,4-7.7,9.5-7.7
				c2.8,0,4.7,0.4,6.5,1v-0.4c0-3.2-2-5-5.8-5c-2.6,0-4.6,0.6-6.7,1.5L13,63.8c2.6-1.2,5.1-2,8.9-2c6.9,0,10.3,3.6,10.3,9.9v13.9
				H26.9z M27,75.8c-1.4-0.5-3.3-0.9-5.4-0.9c-3.4,0-5.4,1.4-5.4,3.6v0.1c0,2.2,2,3.5,4.5,3.5c3.6,0,6.2-2,6.2-4.9V75.8z"/>
			<path class="st0" d="M35.7,62.2h5.4v3.6c1.5-2.2,3.7-4.1,7.3-4.1c5.3,0,8.4,3.6,8.4,9v14.9h-5.4V72.3c0-3.6-1.8-5.7-5-5.7
				c-3.1,0-5.3,2.2-5.3,5.8v13.2h-5.4V62.2z M37.9,58.7c1-3.6,2.3-5.6,5-5.6c2.5,0,4.8,1.8,6.4,1.8c1.3,0,1.8-0.7,2.4-2.2l3,0.9
				c-1,3.6-2.3,5.5-5,5.5c-2.4,0-4.8-1.8-6.4-1.8c-1.3,0-1.8,0.7-2.4,2.2L37.9,58.7z"/>
			<path class="st0" d="M59.6,74L59.6,74c0-6.8,5.3-12.4,12.5-12.4c7.2,0,12.5,5.5,12.5,12.2v0.1c0,6.7-5.3,12.2-12.6,12.2
				C64.8,86.2,59.6,80.7,59.6,74z M79.2,74L79.2,74c0-4.2-3-7.6-7.2-7.6c-4.3,0-7.1,3.4-7.1,7.5v0.1c0,4.1,3,7.6,7.2,7.6
				C76.4,81.5,79.2,78.1,79.2,74z"/>
			<path class="st0" d="M85.5,82.6l2.4-3.6c2.5,1.9,5.3,2.9,7.7,2.9c2.3,0,3.6-1,3.6-2.5v-0.1c0-1.8-2.5-2.4-5.2-3.3
				c-3.5-1-7.3-2.4-7.3-6.9v-0.1c0-4.4,3.7-7.2,8.4-7.2c2.9,0,6.1,1,8.6,2.7l-2.1,3.8c-2.3-1.4-4.7-2.2-6.6-2.2
				c-2.1,0-3.3,1-3.3,2.4v0.1c0,1.7,2.5,2.4,5.3,3.3c3.4,1.1,7.3,2.6,7.3,6.8v0.1c0,4.9-3.8,7.4-8.7,7.4
				C92.1,86.1,88.4,84.9,85.5,82.6z"/>
		</g>
		<path class="st0" d="M11.3,65.6l-1-2.9l1.8-0.8c2.5-1.1,5.4-2.1,9.8-2.1c0.1,0,0.3,0,0.4,0V0.4h-4.2L0,6.2v14.9l8.1-2.3v46.8H11.3
			z"/>
		<path class="st0" d="M35.4,58.7h0.3l0.1-0.5c0.6-2.1,1.9-7.1,7-7.1c1.8,0,3.4,0.7,4.7,1.2c0.6,0.2,1.5,0.6,1.7,0.6
			c0.1-0.1,0.2-0.3,0.4-0.7V0.4h-4.2L27.3,6.2v14.9l8.1-2.3V58.7z"/>
	</g>
</g>
</svg>
