<?xml version="1.0" encoding="utf-8"?>
<!-- Generator: Adobe Illustrator 24.3.0, SVG Export Plug-In . SVG Version: 6.00 Build 0)  -->
<svg version="1.1" id="Layer_1" xmlns="http://www.w3.org/2000/svg" xmlns:xlink="http://www.w3.org/1999/xlink" x="0px" y="0px"
	 viewBox="0 0 1150 716.5" style="enable-background:new 0 0 1150 716.5;" xml:space="preserve">
<style type="text/css">
	.st0{opacity:0.7;}
	.st1{fill:#FFFFFF;}
</style>
<g class="st0">
	<path class="st1" d="M0.3,713.5L0.3,713.5c0.9,2.2,3.4,3.3,5.6,2.5l27.7-10.6c2.2-0.9,3.3-3.4,2.5-5.6c-0.9-2.2-3.4-3.3-5.6-2.5
		L2.8,707.9C0.6,708.7-0.6,711.2,0.3,713.5"/>
	<path class="st1" d="M24.9,713.2L24.9,713.2c0.8,2.2,3.3,3.4,5.5,2.7l28.1-9.8c2.2-0.8,3.5-3.3,2.7-5.5s-3.3-3.4-5.5-2.7l-28.1,9.8
		C25.3,708.4,24.1,710.9,24.9,713.2"/>
	<path class="st1" d="M51.3,713.3L51.3,713.3c0.8,2.2,3.4,3.4,5.6,2.5l27.8-10.5c2.2-0.8,3.4-3.4,2.5-5.6c-0.8-2.2-3.4-3.4-5.6-2.5
		l-27.8,10.5C51.6,708.6,50.5,711.1,51.3,713.3"/>
	<path class="st1" d="M77.2,713.7L77.2,713.7c1,2.2,3.6,3.1,5.8,2.1l26.9-12.7c2.2-1,3.1-3.6,2.1-5.8s-3.6-3.1-5.8-2.1l-26.9,12.7
		C77.1,708.9,76.2,711.5,77.2,713.7"/>
	<path class="st1" d="M101.4,714.3L101.4,714.3c1.4,2,4.1,2.5,6,1.1l24.4-16.9c2-1.4,2.4-4.1,1.1-6c-1.4-2-4.1-2.5-6-1.1l-24.4,16.9
		C100.5,709.7,100,712.4,101.4,714.3"/>
	<path class="st1" d="M122.6,714.9L122.6,714.9c1.7,1.6,4.5,1.5,6.1-0.2l20.2-21.8c1.6-1.7,1.5-4.5-0.2-6.1s-4.5-1.5-6.1,0.2
		l-20.2,21.8C120.7,710.6,120.8,713.3,122.6,714.9"/>
	<path class="st1" d="M140.2,715.6L140.2,715.6c2,1.2,4.7,0.6,6-1.5l15.4-25.4c1.2-2,0.6-4.7-1.5-6c-2-1.2-4.7-0.6-6,1.5l-15.4,25.4
		C137.5,711.7,138.1,714.3,140.2,715.6"/>
	<path class="st1" d="M166.4,716.1L166.4,716.1c2.2,0.9,4.7-0.2,5.7-2.4l11.3-27.5c0.9-2.2-0.2-4.7-2.4-5.7
		c-2.2-0.9-4.7,0.2-5.6,2.4L164,710.4C163.1,712.6,164.2,715.2,166.4,716.1"/>
	<path class="st1" d="M190,716.1L190,716.1c2.2,0.9,4.7-0.2,5.7-2.4l11.3-27.5c0.9-2.2-0.2-4.7-2.4-5.7c-2.2-0.9-4.7,0.2-5.7,2.4
		l-11.3,27.5C186.7,712.6,187.8,715.2,190,716.1"/>
	<path class="st1" d="M213.5,716.1L213.5,716.1c2.2,0.9,4.7-0.2,5.7-2.4l11.3-27.5c0.9-2.2-0.2-4.7-2.4-5.7
		c-2.2-0.9-4.7,0.2-5.7,2.4l-11.3,27.5C210.3,712.6,211.3,715.2,213.5,716.1"/>
	<path class="st1" d="M237.1,716.1L237.1,716.1c2.2,0.9,4.7-0.2,5.7-2.4l11.3-27.5c0.9-2.2-0.2-4.7-2.4-5.7
		c-2.2-0.9-4.7,0.2-5.6,2.4l-11.3,27.5C233.8,712.6,234.9,715.2,237.1,716.1"/>
	<path class="st1" d="M260.7,716.1L260.7,716.1c2.2,0.9,4.7-0.2,5.7-2.4l11.3-27.5c0.9-2.2-0.2-4.7-2.4-5.7
		c-2.2-0.9-4.7,0.2-5.7,2.4l-11.3,27.5C257.4,712.6,258.5,715.2,260.7,716.1"/>
	<path class="st1" d="M401.3,716.1L401.3,716.1c2.2,0.9,4.7-0.2,5.7-2.4l11.3-27.5c0.9-2.2-0.2-4.7-2.4-5.7
		c-2.2-0.9-4.7,0.2-5.7,2.4l-11.3,27.5C398,712.6,399.1,715.2,401.3,716.1"/>
	<path class="st1" d="M658.9,716.1L658.9,716.1c2.2,0.9,4.7-0.2,5.7-2.4l11.3-27.5c0.9-2.2-0.2-4.7-2.4-5.7
		c-2.2-0.9-4.7,0.2-5.7,2.4l-11.3,27.5C655.6,712.6,656.7,715.2,658.9,716.1"/>
	<path class="st1" d="M798.6,716.1L798.6,716.1c2.2,0.9,4.7-0.2,5.7-2.4l11.3-27.5c0.9-2.2-0.2-4.7-2.4-5.7
		c-2.2-0.9-4.7,0.2-5.7,2.4l-11.3,27.5C795.3,712.6,796.4,715.2,798.6,716.1"/>
	<path class="st1" d="M284.2,716.1L284.2,716.1c2.2,0.9,4.7-0.2,5.7-2.4l11.3-27.5c0.9-2.2-0.2-4.7-2.4-5.7
		c-2.2-0.9-4.7,0.2-5.6,2.4l-11.3,27.5C281,712.6,282,715.2,284.2,716.1"/>
	<path class="st1" d="M541.9,716.1L541.9,716.1c2.2,0.9,4.7-0.2,5.7-2.4l11.3-27.5c0.9-2.2-0.2-4.7-2.4-5.7
		c-2.2-0.9-4.7,0.2-5.6,2.4l-11.3,27.5C538.6,712.6,539.7,715.2,541.9,716.1"/>
	<path class="st1" d="M424.8,716.1L424.8,716.1c2.2,0.9,4.7-0.2,5.7-2.4l11.3-27.5c0.9-2.2-0.2-4.7-2.4-5.7
		c-2.2-0.9-4.7,0.2-5.6,2.4l-11.3,27.5C421.6,712.6,422.6,715.2,424.8,716.1"/>
	<path class="st1" d="M682.5,716.1L682.5,716.1c2.2,0.9,4.7-0.2,5.7-2.4l11.3-27.5c0.9-2.2-0.2-4.7-2.4-5.7
		c-2.2-0.9-4.7,0.2-5.6,2.4l-11.3,27.5C679.2,712.6,680.3,715.2,682.5,716.1"/>
	<path class="st1" d="M822.2,716.1L822.2,716.1c2.2,0.9,4.7-0.2,5.7-2.4l11.3-27.5c0.9-2.2-0.2-4.7-2.4-5.7
		c-2.2-0.9-4.7,0.2-5.6,2.4l-11.3,27.5C818.9,712.6,820,715.2,822.2,716.1"/>
	<path class="st1" d="M307.8,716.1L307.8,716.1c2.2,0.9,4.7-0.2,5.7-2.4l11.3-27.5c0.9-2.2-0.2-4.7-2.4-5.7
		c-2.2-0.9-4.7,0.2-5.6,2.4l-11.3,27.5C304.5,712.6,305.6,715.2,307.8,716.1"/>
	<path class="st1" d="M565.4,716.1L565.4,716.1c2.2,0.9,4.7-0.2,5.7-2.4l11.3-27.5c0.9-2.2-0.2-4.7-2.4-5.7
		c-2.2-0.9-4.7,0.2-5.6,2.4l-11.3,27.5C562.2,712.6,563.2,715.2,565.4,716.1"/>
	<path class="st1" d="M448.4,716.1L448.4,716.1c2.2,0.9,4.7-0.2,5.7-2.4l11.3-27.5c0.9-2.2-0.2-4.7-2.4-5.7
		c-2.2-0.9-4.7,0.2-5.6,2.4L446,710.4C445.1,712.6,446.2,715.2,448.4,716.1"/>
	<path class="st1" d="M706,716.1L706,716.1c2.2,0.9,4.7-0.2,5.7-2.4l11.3-27.5c0.9-2.2-0.2-4.7-2.4-5.7c-2.2-0.9-4.7,0.2-5.6,2.4
		l-11.3,27.5C702.8,712.6,703.8,715.2,706,716.1"/>
	<path class="st1" d="M845.8,716.1L845.8,716.1c2.2,0.9,4.7-0.2,5.7-2.4l11.3-27.5c0.9-2.2-0.2-4.7-2.4-5.7
		c-2.2-0.9-4.7,0.2-5.6,2.4l-11.3,27.5C842.5,712.6,843.5,715.2,845.8,716.1"/>
	<path class="st1" d="M354.1,716.1L354.1,716.1c2.2,0.9,4.7-0.2,5.7-2.4l11.3-27.5c0.9-2.2-0.2-4.7-2.4-5.7
		c-2.2-0.9-4.7,0.2-5.6,2.4l-11.3,27.5C350.9,712.6,351.9,715.2,354.1,716.1"/>
	<path class="st1" d="M611.8,716.1L611.8,716.1c2.2,0.9,4.7-0.2,5.7-2.4l11.3-27.5c0.9-2.2-0.2-4.7-2.4-5.7
		c-2.2-0.9-4.7,0.2-5.6,2.4l-11.3,27.5C608.5,712.6,609.6,715.2,611.8,716.1"/>
	<path class="st1" d="M494.7,716.1L494.7,716.1c2.2,0.9,4.7-0.2,5.7-2.4l11.3-27.5c0.9-2.2-0.2-4.7-2.4-5.7
		c-2.2-0.9-4.7,0.2-5.6,2.4l-11.3,27.5C491.5,712.6,492.5,715.2,494.7,716.1"/>
	<path class="st1" d="M752.4,716.1L752.4,716.1c2.2,0.9,4.7-0.2,5.7-2.4l11.3-27.5c0.9-2.2-0.2-4.7-2.4-5.7
		c-2.2-0.9-4.7,0.2-5.6,2.4L750,710.4C749.1,712.6,750.2,715.2,752.4,716.1"/>
	<path class="st1" d="M892.1,716.1L892.1,716.1c2.2,0.9,4.7-0.2,5.7-2.4l11.3-27.5c0.9-2.2-0.2-4.7-2.4-5.7
		c-2.2-0.9-4.7,0.2-5.6,2.4l-11.3,27.5C888.8,712.6,889.9,715.2,892.1,716.1"/>
	<path class="st1" d="M939.2,716.1L939.2,716.1c2.2,0.9,4.7-0.2,5.7-2.4l11.3-27.5c0.9-2.2-0.2-4.7-2.4-5.7
		c-2.2-0.9-4.7,0.2-5.6,2.4l-11.3,27.5C935.9,712.6,937,715.2,939.2,716.1"/>
	<path class="st1" d="M331.4,716.1L331.4,716.1c2.2,0.9,4.7-0.2,5.7-2.4l11.3-27.5c0.9-2.2-0.2-4.7-2.4-5.7
		c-2.2-0.9-4.7,0.2-5.7,2.4L329,710.4C328.1,712.6,329.2,715.2,331.4,716.1"/>
	<path class="st1" d="M589,716.1L589,716.1c2.2,0.9,4.7-0.2,5.7-2.4l11.3-27.5c0.9-2.2-0.2-4.7-2.4-5.7c-2.2-0.9-4.7,0.2-5.7,2.4
		l-11.3,27.5C585.7,712.6,586.8,715.2,589,716.1"/>
	<path class="st1" d="M472,716.1L472,716.1c2.2,0.9,4.7-0.2,5.7-2.4l11.3-27.5c0.9-2.2-0.2-4.7-2.4-5.7c-2.2-0.9-4.7,0.2-5.7,2.4
		l-11.3,27.5C468.7,712.6,469.8,715.2,472,716.1"/>
	<path class="st1" d="M729.6,716.1L729.6,716.1c2.2,0.9,4.7-0.2,5.7-2.4l11.3-27.5c0.9-2.2-0.2-4.7-2.4-5.7
		c-2.2-0.9-4.7,0.2-5.7,2.4l-11.3,27.5C726.3,712.6,727.4,715.2,729.6,716.1"/>
	<path class="st1" d="M869.3,716.1L869.3,716.1c2.2,0.9,4.7-0.2,5.7-2.4l11.3-27.5c0.9-2.2-0.2-4.7-2.4-5.7
		c-2.2-0.9-4.7,0.2-5.7,2.4L867,710.4C866.1,712.6,867.1,715.2,869.3,716.1"/>
	<path class="st1" d="M377.7,716.1L377.7,716.1c2.2,0.9,4.7-0.2,5.7-2.4l11.3-27.5c0.9-2.2-0.2-4.7-2.4-5.7
		c-2.2-0.9-4.7,0.2-5.7,2.4l-11.3,27.5C374.4,712.6,375.5,715.2,377.7,716.1"/>
	<path class="st1" d="M635.3,716.1L635.3,716.1c2.2,0.9,4.7-0.2,5.7-2.4l11.3-27.5c0.9-2.2-0.2-4.7-2.4-5.7
		c-2.2-0.9-4.7,0.2-5.7,2.4L633,710.4C632.1,712.6,633.1,715.2,635.3,716.1"/>
	<path class="st1" d="M518.3,716.1L518.3,716.1c2.2,0.9,4.7-0.2,5.7-2.4l11.3-27.5c0.9-2.2-0.2-4.7-2.4-5.7
		c-2.2-0.9-4.7,0.2-5.7,2.4l-11.3,27.5C515,712.6,516.1,715.2,518.3,716.1"/>
	<path class="st1" d="M775.9,716.1L775.9,716.1c2.2,0.9,4.7-0.2,5.7-2.4l11.3-27.5c0.9-2.2-0.2-4.7-2.4-5.7
		c-2.2-0.9-4.7,0.2-5.7,2.4l-11.3,27.5C772.7,712.6,773.7,715.2,775.9,716.1"/>
	<path class="st1" d="M915.6,716.1L915.6,716.1c2.2,0.9,4.7-0.2,5.7-2.4l11.3-27.5c0.9-2.2-0.2-4.7-2.4-5.7
		c-2.2-0.9-4.7,0.2-5.6,2.4l-11.3,27.5C912.4,712.6,913.4,715.2,915.6,716.1"/>
	<path class="st1" d="M962.8,716.1L962.8,716.1c2.2,0.9,4.7-0.2,5.7-2.4l11.3-27.5c0.9-2.2-0.2-4.7-2.4-5.7
		c-2.2-0.9-4.7,0.2-5.7,2.4l-11.3,27.5C959.5,712.6,960.6,715.2,962.8,716.1"/>
	<path class="st1" d="M1114.2,426.3L1114.2,426.3c-0.9,2.2,0.2,4.7,2.4,5.6l27.5,11.3c2.2,0.9,4.7-0.2,5.7-2.4
		c0.9-2.2-0.2-4.7-2.4-5.7l-27.5-11.3C1117.6,423,1115.1,424,1114.2,426.3"/>
	<path class="st1" d="M1114.2,449.8L1114.2,449.8c-0.9,2.2,0.2,4.7,2.4,5.7l27.5,11.3c2.2,0.9,4.7-0.2,5.7-2.4
		c0.9-2.2-0.2-4.7-2.4-5.7l-27.5-11.3C1117.6,446.6,1115.1,447.6,1114.2,449.8"/>
	<path class="st1" d="M1114.2,473.4L1114.2,473.4c-0.9,2.2,0.2,4.7,2.4,5.7l27.5,11.3c2.2,0.9,4.7-0.2,5.7-2.4
		c0.9-2.2-0.2-4.7-2.4-5.6l-27.5-11.3C1117.6,470.1,1115.1,471.2,1114.2,473.4"/>
	<path class="st1" d="M1114.2,497L1114.2,497c-0.9,2.2,0.2,4.7,2.4,5.6l27.5,11.3c2.2,0.9,4.7-0.2,5.7-2.4c0.9-2.2-0.2-4.7-2.4-5.7
		l-27.5-11.3C1117.6,493.7,1115.1,494.8,1114.2,497"/>
	<path class="st1" d="M1114.3,520.3L1114.3,520.3c-1,2.2,0.1,4.8,2.2,5.7l27.2,11.9c2.2,1,4.8-0.1,5.7-2.2c1-2.2-0.1-4.8-2.2-5.7
		l-27.2-11.9C1117.8,517.1,1115.3,518.1,1114.3,520.3"/>
	<path class="st1" d="M1113.3,542.2L1113.3,542.2c-1.2,2-0.6,4.7,1.4,6l25.4,15.5c2,1.2,4.7,0.6,6-1.4c1.2-2,0.6-4.7-1.4-6
		l-25.4-15.5C1117.2,539.5,1114.6,540.2,1113.3,542.2"/>
	<path class="st1" d="M1109.5,563.3L1109.5,563.3c-1.5,1.8-1.2,4.6,0.6,6.1l23,18.8c1.8,1.5,4.6,1.2,6.1-0.6s1.2-4.6-0.6-6.1
		l-23-18.8C1113.7,561.1,1111,561.4,1109.5,563.3"/>
	<path class="st1" d="M1102.9,583.4L1102.9,583.4c-1.7,1.6-1.8,4.4-0.2,6.1l20.4,21.6c1.6,1.7,4.4,1.8,6.1,0.2s1.8-4.4,0.2-6.1
		l-20.4-21.6C1107.4,581.8,1104.6,581.7,1102.9,583.4"/>
	<path class="st1" d="M1093.9,602.3L1093.9,602.3c-1.9,1.4-2.4,4.1-1,6l17.4,24.1c1.4,1.9,4.1,2.4,6,1s2.4-4.1,1-6l-17.4-24.1
		C1098.5,601.3,1095.8,600.9,1093.9,602.3"/>
	<path class="st1" d="M1082.5,619.7L1082.5,619.7c-2.1,1.1-2.9,3.8-1.7,5.9l14.1,26.1c1.1,2.1,3.8,2.9,5.9,1.7
		c2.1-1.1,2.9-3.8,1.7-5.9l-14.1-26.1C1087.2,619.4,1084.6,618.6,1082.5,619.7"/>
	<path class="st1" d="M1069,635.6L1069,635.6c-2.2,0.9-3.3,3.4-2.5,5.6l10.7,27.7c0.9,2.2,3.4,3.3,5.6,2.5c2.2-0.9,3.3-3.4,2.5-5.6
		l-10.7-27.7C1073.7,635.9,1071.2,634.8,1069,635.6"/>
	<path class="st1" d="M1053.6,649.6L1053.6,649.6c-2.3,0.6-3.7,2.9-3.2,5.2l7.1,28.9c0.6,2.3,2.9,3.7,5.2,3.2
		c2.3-0.6,3.7-2.9,3.2-5.2l-7.1-28.9C1058.2,650.5,1055.9,649.1,1053.6,649.6"/>
	<path class="st1" d="M1036.4,661.6L1036.4,661.6c-2.4,0.3-4.1,2.4-3.8,4.8l3.3,29.5c0.3,2.4,2.4,4.1,4.8,3.8s4.1-2.4,3.8-4.8
		l-3.3-29.5C1040.9,663.1,1038.8,661.3,1036.4,661.6"/>
	<path class="st1" d="M1017.8,671.3L1017.8,671.3c-2.4,0-4.4,1.9-4.4,4.2l-0.6,29.7c0,2.4,1.9,4.4,4.2,4.4s4.4-1.9,4.4-4.2l0.6-29.7
		C1022.1,673.3,1020.2,671.4,1017.8,671.3"/>
	<path class="st1" d="M997.8,678.6L997.8,678.6c-2.4-0.4-4.6,1.3-4.9,3.6l-4.5,29.4c-0.4,2.4,1.3,4.6,3.6,4.9
		c2.4,0.4,4.6-1.3,4.9-3.6l4.5-29.4C1001.8,681.1,1000.2,678.9,997.8,678.6"/>
	<path class="st1" d="M1114.2,332.1L1114.2,332.1c-0.9,2.2,0.2,4.7,2.4,5.7l27.5,11.3c2.2,0.9,4.7-0.2,5.7-2.4
		c0.9-2.2-0.2-4.7-2.4-5.7l-27.5-11.3C1117.6,328.9,1115.1,329.9,1114.2,332.1"/>
	<path class="st1" d="M1114.2,355.7L1114.2,355.7c-0.9,2.2,0.2,4.7,2.4,5.6l27.5,11.3c2.2,0.9,4.7-0.2,5.7-2.4
		c0.9-2.2-0.2-4.7-2.4-5.6l-27.5-11.3C1117.6,352.4,1115.1,353.5,1114.2,355.7"/>
	<path class="st1" d="M1114.2,379.3L1114.2,379.3c-0.9,2.2,0.2,4.7,2.4,5.7l27.5,11.3c2.2,0.9,4.7-0.2,5.7-2.4
		c0.9-2.2-0.2-4.7-2.4-5.6l-27.5-11.3C1117.6,376,1115.1,377.1,1114.2,379.3"/>
	<path class="st1" d="M1114.2,402.9L1114.2,402.9c-0.9,2.2,0.2,4.7,2.4,5.7l27.5,11.3c2.2,0.9,4.7-0.2,5.7-2.4
		c0.9-2.2-0.2-4.7-2.4-5.7l-27.5-11.3C1117.6,399.6,1115.1,400.6,1114.2,402.9"/>
	<path class="st1" d="M1114.2,238L1114.2,238c-0.9,2.2,0.2,4.7,2.4,5.7L1144,255c2.2,0.9,4.7-0.2,5.7-2.4c0.9-2.2-0.2-4.7-2.4-5.7
		l-27.5-11.3C1117.6,234.8,1115.1,235.8,1114.2,238"/>
	<path class="st1" d="M1114.2,261.6L1114.2,261.6c-0.9,2.2,0.2,4.7,2.4,5.6l27.5,11.3c2.2,0.9,4.7-0.2,5.7-2.4
		c0.9-2.2-0.2-4.7-2.4-5.6l-27.5-11.3C1117.6,258.3,1115.1,259.4,1114.2,261.6"/>
	<path class="st1" d="M1114.2,285.2L1114.2,285.2c-0.9,2.2,0.2,4.7,2.4,5.7l27.5,11.3c2.2,0.9,4.7-0.2,5.7-2.4
		c0.9-2.2-0.2-4.7-2.4-5.6l-27.5-11.3C1117.6,281.9,1115.1,283,1114.2,285.2"/>
	<path class="st1" d="M1114.2,308.7L1114.2,308.7c-0.9,2.2,0.2,4.7,2.4,5.7l27.5,11.3c2.2,0.9,4.7-0.2,5.7-2.4
		c0.9-2.2-0.2-4.7-2.4-5.7l-27.5-11.3C1117.6,305.5,1115.1,306.5,1114.2,308.7"/>
	<path class="st1" d="M1114.2,143.9L1114.2,143.9c-0.9,2.2,0.2,4.7,2.4,5.7l27.5,11.3c2.2,0.9,4.7-0.2,5.7-2.4
		c0.9-2.2-0.2-4.7-2.4-5.7l-27.5-11.3C1117.6,140.7,1115.1,141.7,1114.2,143.9"/>
	<path class="st1" d="M1114.2,167.5L1114.2,167.5c-0.9,2.2,0.2,4.7,2.4,5.6l27.5,11.3c2.2,0.9,4.7-0.2,5.7-2.4
		c0.9-2.2-0.2-4.7-2.4-5.6l-27.5-11.3C1117.6,164.2,1115.1,165.3,1114.2,167.5"/>
	<path class="st1" d="M1114.2,191.1L1114.2,191.1c-0.9,2.2,0.2,4.7,2.4,5.7L1144,208c2.2,0.9,4.7-0.2,5.7-2.4
		c0.9-2.2-0.2-4.7-2.4-5.6l-27.5-11.3C1117.6,187.8,1115.1,188.9,1114.2,191.1"/>
	<path class="st1" d="M1114.2,214.6L1114.2,214.6c-0.9,2.2,0.2,4.7,2.4,5.7l27.5,11.3c2.2,0.9,4.7-0.2,5.7-2.4
		c0.9-2.2-0.2-4.7-2.4-5.7l-27.5-11.3C1117.6,211.4,1115.1,212.4,1114.2,214.6"/>
	<path class="st1" d="M1114.2,49.8L1114.2,49.8c-0.9,2.2,0.2,4.7,2.4,5.7l27.5,11.3c2.2,0.9,4.7-0.2,5.7-2.4
		c0.9-2.2-0.2-4.7-2.4-5.7l-27.5-11.3C1117.6,46.6,1115.1,47.6,1114.2,49.8"/>
	<path class="st1" d="M1114.2,73.4L1114.2,73.4c-0.9,2.2,0.2,4.7,2.4,5.6l27.5,11.3c2.2,0.9,4.7-0.2,5.7-2.4
		c0.9-2.2-0.2-4.7-2.4-5.6L1119.8,71C1117.6,70.1,1115.1,71.2,1114.2,73.4"/>
	<path class="st1" d="M1114.2,97L1114.2,97c-0.9,2.2,0.2,4.7,2.4,5.7l27.5,11.3c2.2,0.9,4.7-0.2,5.7-2.4c0.9-2.2-0.2-4.7-2.4-5.6
		l-27.5-11.3C1117.6,93.7,1115.1,94.8,1114.2,97"/>
	<path class="st1" d="M1114.2,2.7L1114.2,2.7c-0.9,2.2,0.2,4.7,2.4,5.7l27.5,11.3c2.2,0.9,4.7-0.2,5.7-2.4c0.9-2.2-0.2-4.7-2.4-5.7
		l-27.5-11.3C1117.6-0.6,1115.1,0.5,1114.2,2.7"/>
	<path class="st1" d="M1114.2,26.3L1114.2,26.3c-0.9,2.2,0.2,4.7,2.4,5.6l27.5,11.3c2.2,0.9,4.7-0.2,5.7-2.4
		c0.9-2.2-0.2-4.7-2.4-5.6l-27.5-11.3C1117.6,23,1115.1,24.1,1114.2,26.3"/>
	<path class="st1" d="M1114.2,120.5L1114.2,120.5c-0.9,2.2,0.2,4.7,2.4,5.7l27.5,11.3c2.2,0.9,4.7-0.2,5.7-2.4
		c0.9-2.2-0.2-4.7-2.4-5.7l-27.5-11.3C1117.6,117.3,1115.1,118.3,1114.2,120.5"/>
</g>
</svg>
