<?xml version="1.0" encoding="utf-8"?>
<!-- Generator: Adobe Illustrator 24.3.0, SVG Export Plug-In . SVG Version: 6.00 Build 0)  -->
<svg version="1.1" id="Layer_1" xmlns="http://www.w3.org/2000/svg" xmlns:xlink="http://www.w3.org/1999/xlink" x="0px" y="0px"
	 viewBox="0 0 448 716.6" style="enable-background:new 0 0 448 716.6;" xml:space="preserve">
<style type="text/css">
	.st0{opacity:0.7;}
	.st1{fill:#FFFFFF;}
</style>
<g class="st0">
	<path class="st1" d="M0.3,713.5L0.3,713.5c0.9,2.2,3.4,3.3,5.6,2.5l27.7-10.6c2.2-0.9,3.3-3.4,2.5-5.6c-0.9-2.2-3.4-3.3-5.6-2.5
		L2.8,707.9C0.6,708.7-0.6,711.2,0.3,713.5"/>
	<path class="st1" d="M24.9,713.2L24.9,713.2c0.8,2.2,3.3,3.4,5.5,2.7l28.1-9.8c2.2-0.8,3.5-3.3,2.7-5.5s-3.3-3.4-5.5-2.7l-28.1,9.8
		C25.3,708.4,24.1,710.9,24.9,713.2"/>
	<path class="st1" d="M51.3,713.3L51.3,713.3c0.8,2.2,3.4,3.4,5.6,2.5l27.8-10.5c2.2-0.8,3.4-3.4,2.5-5.6c-0.8-2.2-3.4-3.4-5.6-2.5
		l-27.8,10.5C51.6,708.6,50.5,711.1,51.3,713.3"/>
	<path class="st1" d="M77.2,713.7L77.2,713.7c1,2.2,3.6,3.1,5.8,2.1l26.9-12.7c2.2-1,3.1-3.6,2.1-5.8s-3.6-3.1-5.8-2.1l-26.9,12.7
		C77.1,708.9,76.2,711.5,77.2,713.7"/>
	<path class="st1" d="M101.4,714.3L101.4,714.3c1.4,2,4.1,2.5,6,1.1l24.4-16.9c2-1.4,2.4-4.1,1.1-6c-1.4-2-4.1-2.5-6-1.1l-24.4,16.9
		C100.5,709.7,100,712.4,101.4,714.3"/>
	<path class="st1" d="M122.6,714.9L122.6,714.9c1.7,1.6,4.5,1.5,6.1-0.2l20.2-21.8c1.6-1.7,1.5-4.5-0.2-6.1s-4.5-1.5-6.1,0.2
		l-20.2,21.8C120.7,710.6,120.8,713.3,122.6,714.9"/>
	<path class="st1" d="M140.2,715.6L140.2,715.6c2,1.2,4.7,0.6,6-1.5l15.4-25.4c1.2-2,0.6-4.7-1.5-6c-2-1.2-4.7-0.6-6,1.5l-15.4,25.4
		C137.5,711.7,138.1,714.3,140.2,715.6"/>
	<path class="st1" d="M166.4,716.1L166.4,716.1c2.2,0.9,4.7-0.2,5.7-2.4l11.3-27.5c0.9-2.2-0.2-4.7-2.4-5.7
		c-2.2-0.9-4.7,0.2-5.6,2.4L164,710.4C163.1,712.6,164.2,715.2,166.4,716.1"/>
	<path class="st1" d="M190,716.1L190,716.1c2.2,0.9,4.7-0.2,5.7-2.4l11.3-27.5c0.9-2.2-0.2-4.7-2.4-5.7c-2.2-0.9-4.7,0.2-5.7,2.4
		l-11.3,27.5C186.7,712.6,187.8,715.2,190,716.1"/>
	<path class="st1" d="M213.5,716.1L213.5,716.1c2.2,0.9,4.7-0.2,5.7-2.4l11.3-27.5c0.9-2.2-0.2-4.7-2.4-5.7
		c-2.2-0.9-4.7,0.2-5.7,2.4l-11.3,27.5C210.3,712.6,211.3,715.2,213.5,716.1"/>
	<path class="st1" d="M237.1,716.1L237.1,716.1c2.2,0.9,4.7-0.2,5.7-2.4l11.3-27.5c0.9-2.2-0.2-4.7-2.4-5.7
		c-2.2-0.9-4.7,0.2-5.6,2.4l-11.3,27.5C233.8,712.6,234.9,715.2,237.1,716.1"/>
	<path class="st1" d="M260.7,716.1L260.7,716.1c2.2,0.9,4.7-0.2,5.7-2.4l11.3-27.5c0.9-2.2-0.2-4.7-2.4-5.7
		c-2.2-0.9-4.7,0.2-5.7,2.4l-11.3,27.5C257.4,712.6,258.5,715.2,260.7,716.1"/>
	<path class="st1" d="M412.1,426.3L412.1,426.3c-0.9,2.2,0.2,4.7,2.4,5.6l27.5,11.3c2.2,0.9,4.7-0.2,5.7-2.4
		c0.9-2.2-0.2-4.7-2.4-5.7l-27.5-11.3C415.5,423,413,424,412.1,426.3"/>
	<path class="st1" d="M412.1,449.8L412.1,449.8c-0.9,2.2,0.2,4.7,2.4,5.7l27.5,11.3c2.2,0.9,4.7-0.2,5.7-2.4
		c0.9-2.2-0.2-4.7-2.4-5.7l-27.5-11.3C415.5,446.6,413,447.6,412.1,449.8"/>
	<path class="st1" d="M412.1,473.4L412.1,473.4c-0.9,2.2,0.2,4.7,2.4,5.7l27.5,11.3c2.2,0.9,4.7-0.2,5.7-2.4
		c0.9-2.2-0.2-4.7-2.4-5.6l-27.5-11.3C415.5,470.1,413,471.2,412.1,473.4"/>
	<path class="st1" d="M412.1,497L412.1,497c-0.9,2.2,0.2,4.7,2.4,5.6l27.5,11.3c2.2,0.9,4.7-0.2,5.7-2.4c0.9-2.2-0.2-4.7-2.4-5.7
		l-27.5-11.3C415.5,493.7,413,494.8,412.1,497"/>
	<path class="st1" d="M412.2,520.3L412.2,520.3c-1,2.2,0.1,4.8,2.2,5.7l27.2,11.9c2.2,1,4.8-0.1,5.7-2.2c1-2.2-0.1-4.8-2.2-5.7
		l-27.2-11.9C415.7,517.1,413.2,518.1,412.2,520.3"/>
	<path class="st1" d="M411.2,542.2L411.2,542.2c-1.2,2-0.6,4.7,1.4,6l25.4,15.5c2,1.2,4.7,0.6,6-1.4c1.2-2,0.6-4.7-1.4-6l-25.4-15.5
		C415.1,539.5,412.5,540.2,411.2,542.2"/>
	<path class="st1" d="M407.4,563.3L407.4,563.3c-1.5,1.8-1.2,4.6,0.6,6.1l23,18.8c1.8,1.5,4.6,1.2,6.1-0.6s1.2-4.6-0.6-6.1l-23-18.8
		C411.6,561.1,408.9,561.4,407.4,563.3"/>
	<path class="st1" d="M400.8,583.4L400.8,583.4c-1.7,1.6-1.8,4.4-0.2,6.1l20.4,21.6c1.6,1.7,4.4,1.8,6.1,0.2s1.8-4.4,0.2-6.1
		l-20.4-21.6C405.3,581.8,402.5,581.7,400.8,583.4"/>
	<path class="st1" d="M391.8,602.3L391.8,602.3c-1.9,1.4-2.4,4.1-1,6l17.4,24.1c1.4,1.9,4.1,2.4,6,1s2.4-4.1,1-6l-17.4-24.1
		C396.4,601.3,393.7,600.9,391.8,602.3"/>
	<path class="st1" d="M380.4,619.7L380.4,619.7c-2.1,1.1-2.9,3.8-1.7,5.9l14.1,26.1c1.1,2.1,3.8,2.9,5.9,1.7
		c2.1-1.1,2.9-3.8,1.7-5.9l-14.1-26.1C385.1,619.4,382.5,618.6,380.4,619.7"/>
	<path class="st1" d="M366.9,635.6L366.9,635.6c-2.2,0.9-3.3,3.4-2.5,5.6l10.7,27.7c0.9,2.2,3.4,3.3,5.6,2.5
		c2.2-0.9,3.3-3.4,2.5-5.6l-10.7-27.7C371.6,635.9,369.1,634.8,366.9,635.6"/>
	<path class="st1" d="M351.5,649.6L351.5,649.6c-2.3,0.6-3.7,2.9-3.2,5.2l7.1,28.9c0.6,2.3,2.9,3.7,5.2,3.2c2.3-0.6,3.7-2.9,3.2-5.2
		l-7.1-28.9C356.1,650.5,353.8,649.1,351.5,649.6"/>
	<path class="st1" d="M334.3,661.6L334.3,661.6c-2.4,0.3-4.1,2.4-3.8,4.8l3.3,29.5c0.3,2.4,2.4,4.1,4.8,3.8s4.1-2.4,3.8-4.8
		l-3.3-29.5C338.8,663.1,336.7,661.3,334.3,661.6"/>
	<path class="st1" d="M315.7,671.3L315.7,671.3c-2.4,0-4.4,1.9-4.4,4.2l-0.6,29.7c0,2.4,1.9,4.4,4.2,4.4s4.4-1.9,4.4-4.2l0.6-29.7
		C320,673.3,318.1,671.4,315.7,671.3"/>
	<path class="st1" d="M295.7,678.6L295.7,678.6c-2.4-0.4-4.6,1.3-4.9,3.6l-4.5,29.4c-0.4,2.4,1.3,4.6,3.6,4.9
		c2.4,0.4,4.6-1.3,4.9-3.6l4.5-29.4C299.7,681.1,298.1,678.9,295.7,678.6"/>
	<path class="st1" d="M412.1,332.1L412.1,332.1c-0.9,2.2,0.2,4.7,2.4,5.7l27.5,11.3c2.2,0.9,4.7-0.2,5.7-2.4
		c0.9-2.2-0.2-4.7-2.4-5.7l-27.5-11.3C415.5,328.9,413,329.9,412.1,332.1"/>
	<path class="st1" d="M412.1,355.7L412.1,355.7c-0.9,2.2,0.2,4.7,2.4,5.6l27.5,11.3c2.2,0.9,4.7-0.2,5.7-2.4
		c0.9-2.2-0.2-4.7-2.4-5.6l-27.5-11.3C415.5,352.4,413,353.5,412.1,355.7"/>
	<path class="st1" d="M412.1,379.3L412.1,379.3c-0.9,2.2,0.2,4.7,2.4,5.7l27.5,11.3c2.2,0.9,4.7-0.2,5.7-2.4
		c0.9-2.2-0.2-4.7-2.4-5.6L417.8,377C415.5,376,413,377.1,412.1,379.3"/>
	<path class="st1" d="M412.1,402.9L412.1,402.9c-0.9,2.2,0.2,4.7,2.4,5.7l27.5,11.3c2.2,0.9,4.7-0.2,5.7-2.4
		c0.9-2.2-0.2-4.7-2.4-5.7l-27.5-11.3C415.5,399.6,413,400.6,412.1,402.9"/>
	<path class="st1" d="M412.1,238L412.1,238c-0.9,2.2,0.2,4.7,2.4,5.7l27.4,11.3c2.2,0.9,4.7-0.2,5.7-2.4c0.9-2.2-0.2-4.7-2.4-5.7
		l-27.5-11.3C415.5,234.8,413,235.8,412.1,238"/>
	<path class="st1" d="M412.1,261.6L412.1,261.6c-0.9,2.2,0.2,4.7,2.4,5.6l27.5,11.3c2.2,0.9,4.7-0.2,5.7-2.4
		c0.9-2.2-0.2-4.7-2.4-5.6l-27.5-11.3C415.5,258.3,413,259.4,412.1,261.6"/>
	<path class="st1" d="M412.1,285.2L412.1,285.2c-0.9,2.2,0.2,4.7,2.4,5.7l27.5,11.3c2.2,0.9,4.7-0.2,5.7-2.4
		c0.9-2.2-0.2-4.7-2.4-5.6l-27.5-11.3C415.5,281.9,413,283,412.1,285.2"/>
	<path class="st1" d="M412.1,308.7L412.1,308.7c-0.9,2.2,0.2,4.7,2.4,5.7l27.5,11.3c2.2,0.9,4.7-0.2,5.7-2.4
		c0.9-2.2-0.2-4.7-2.4-5.7l-27.5-11.3C415.5,305.5,413,306.5,412.1,308.7"/>
	<path class="st1" d="M412.1,143.9L412.1,143.9c-0.9,2.2,0.2,4.7,2.4,5.7l27.5,11.3c2.2,0.9,4.7-0.2,5.7-2.4
		c0.9-2.2-0.2-4.7-2.4-5.7l-27.5-11.3C415.5,140.7,413,141.7,412.1,143.9"/>
	<path class="st1" d="M412.1,167.5L412.1,167.5c-0.9,2.2,0.2,4.7,2.4,5.6l27.5,11.3c2.2,0.9,4.7-0.2,5.7-2.4
		c0.9-2.2-0.2-4.7-2.4-5.6l-27.5-11.3C415.5,164.2,413,165.3,412.1,167.5"/>
	<path class="st1" d="M412.1,191.1L412.1,191.1c-0.9,2.2,0.2,4.7,2.4,5.7l27.4,11.2c2.2,0.9,4.7-0.2,5.7-2.4
		c0.9-2.2-0.2-4.7-2.4-5.6l-27.5-11.3C415.5,187.8,413,188.9,412.1,191.1"/>
	<path class="st1" d="M412.1,214.6L412.1,214.6c-0.9,2.2,0.2,4.7,2.4,5.7l27.5,11.3c2.2,0.9,4.7-0.2,5.7-2.4
		c0.9-2.2-0.2-4.7-2.4-5.7l-27.5-11.3C415.5,211.4,413,212.4,412.1,214.6"/>
	<path class="st1" d="M412.1,49.8L412.1,49.8c-0.9,2.2,0.2,4.7,2.4,5.7L442,66.8c2.2,0.9,4.7-0.2,5.7-2.4c0.9-2.2-0.2-4.7-2.4-5.7
		l-27.5-11.3C415.5,46.6,413,47.6,412.1,49.8"/>
	<path class="st1" d="M412.1,73.4L412.1,73.4c-0.9,2.2,0.2,4.7,2.4,5.6L442,90.3c2.2,0.9,4.7-0.2,5.7-2.4c0.9-2.2-0.2-4.7-2.4-5.6
		L417.7,71C415.5,70.1,413,71.2,412.1,73.4"/>
	<path class="st1" d="M412.1,97L412.1,97c-0.9,2.2,0.2,4.7,2.4,5.7L442,114c2.2,0.9,4.7-0.2,5.7-2.4c0.9-2.2-0.2-4.7-2.4-5.6
		l-27.5-11.3C415.5,93.7,413,94.8,412.1,97"/>
	<path class="st1" d="M412.1,2.7L412.1,2.7c-0.9,2.2,0.2,4.7,2.4,5.7L442,19.7c2.2,0.9,4.7-0.2,5.7-2.4c0.9-2.2-0.2-4.7-2.4-5.7
		L417.8,0.3C415.5-0.6,413,0.5,412.1,2.7"/>
	<path class="st1" d="M412.1,26.3L412.1,26.3c-0.9,2.2,0.2,4.7,2.4,5.6L442,43.2c2.2,0.9,4.7-0.2,5.7-2.4c0.9-2.2-0.2-4.7-2.4-5.6
		l-27.5-11.3C415.5,23,413,24.1,412.1,26.3"/>
	<path class="st1" d="M412.1,120.5L412.1,120.5c-0.9,2.2,0.2,4.7,2.4,5.7l27.5,11.3c2.2,0.9,4.7-0.2,5.7-2.4
		c0.9-2.2-0.2-4.7-2.4-5.7l-27.5-11.3C415.5,117.3,413,118.3,412.1,120.5"/>
</g>
</svg>
