<?xml version="1.0" encoding="utf-8"?>
<!-- Generator: Adobe Illustrator 24.3.0, SVG Export Plug-In . SVG Version: 6.00 Build 0)  -->
<svg version="1.1" id="Layer_1" xmlns="http://www.w3.org/2000/svg" xmlns:xlink="http://www.w3.org/1999/xlink" x="0px" y="0px"
	 viewBox="0 0 229 244.3" style="enable-background:new 0 0 229 244.3;" xml:space="preserve">
<style type="text/css">
	.st0{fill:#DE192E;}
</style>
<g>
	<path class="st0" d="M118.1,235V112.9l24.7-11.9c1.8-0.9,2.5-3,1.7-4.8c-0.9-1.8-3-2.5-4.8-1.7l-25.2,12.2l-9.9-4.8
		c-1.8-0.9-3.9-0.1-4.8,1.7c-0.9,1.8-0.1,3.9,1.7,4.8l9.5,4.6V235L7.2,184.9V62.8l79,38.1c0.5,0.2,1,0.4,1.6,0.4
		c1.3,0,2.6-0.7,3.2-2c0.9-1.8,0.1-3.9-1.7-4.8L11.8,57.1L47.4,40l107.5,51.9c0,0,0,0,0.1,0.1v42.9c0,1.2,0.6,2.4,1.7,3
		c0.6,0.4,1.2,0.5,1.9,0.5c0.5,0,1.1-0.1,1.6-0.4l26.8-12.9c1.2-0.6,2-1.8,2-3.2V78.8l33-15.9v122.1L118.1,235z M162.1,91.7
		l19.6-9.5v37.5l-19.6,9.5V91.7z M76.7,25.9l102.5,49.5l-21,10.1L55.8,36.1L76.7,25.9z M114.5,7.5l102.7,49.6l-29.8,14.4
		c-0.2-0.1-0.4-0.3-0.6-0.4l-102-49.2L114.5,7.5z M227,53.9L116.1,0.4c-1-0.5-2.1-0.5-3.1,0L2,53.9c-1.2,0.6-2,1.8-2,3.2v130
		c0,1.4,0.8,2.6,2,3.2l110.9,53.5c0.5,0.2,1,0.4,1.6,0.4c0.5,0,1.1-0.1,1.6-0.4L227,190.4c1.2-0.6,2-1.8,2-3.2v-130
		C229,55.8,228.2,54.5,227,53.9"/>
	<path class="st0" d="M36.7,171l-16.3-7.9c-1.8-0.9-3.9-0.1-4.8,1.7c-0.9,1.8-0.1,3.9,1.7,4.8l16.3,7.9c0.5,0.2,1,0.4,1.6,0.4
		c1.3,0,2.6-0.7,3.2-2C39.2,174,38.5,171.9,36.7,171"/>
	<path class="st0" d="M51.7,161.3l-31.2-15.1c-1.8-0.9-3.9-0.1-4.8,1.7c-0.9,1.8-0.1,3.9,1.7,4.8l31.2,15.1c0.5,0.2,1,0.4,1.6,0.4
		c1.3,0,2.6-0.7,3.2-2C54.2,164.3,53.4,162.2,51.7,161.3"/>
</g>
</svg>
