<?xml version="1.0" encoding="utf-8"?>
<!-- Generator: Adobe Illustrator 24.3.0, SVG Export Plug-In . SVG Version: 6.00 Build 0)  -->
<svg version="1.1" id="Layer_1" xmlns="http://www.w3.org/2000/svg" xmlns:xlink="http://www.w3.org/1999/xlink" x="0px" y="0px"
	 viewBox="0 0 71 55.1" style="enable-background:new 0 0 71 55.1;" xml:space="preserve">
<style type="text/css">
	.st0{fill:#FFFFFF;}
</style>
<g>
	<path class="st0" d="M70.2,50.3c-1.1-0.8-2.1-1.8-2.9-2.9c-1.9-2.3-4.3-5.1-8.8-5.1c-4.5,0-6.8,2.8-8.8,5.2c-2,2.5-3.3,3.9-6.2,3.9
		c-2.9,0-4.4-1.7-6.2-3.9c-1.8-2.2-4.2-5.2-8.8-5.2c-4.6,0-6.8,2.8-8.8,5.2s-3.3,3.9-6.2,3.9c-2.9,0-4.4-1.7-6.2-3.9
		c-1.2-1.7-2.8-3.2-4.6-4.2c-0.9-0.5-1.9-0.1-2.3,0.8s-0.1,2,0.8,2.5c1.4,0.9,2.6,2,3.5,3.3c2,2.5,4.3,5.2,8.8,5.2s6.8-2.8,8.8-5.2
		c2-2.5,3.3-3.9,6.2-3.9c2.9,0,4.4,1.7,6.2,3.9c1.8,2.2,4.2,5.2,8.8,5.2c4.6,0,6.8-2.8,8.8-5.2c2-2.5,3.3-3.9,6.2-3.9
		s4.4,1.7,6.2,3.9c1,1.4,2.2,2.6,3.5,3.6c0.8,0.6,1.9,0.3,2.4-0.6C71.2,52,71,50.9,70.2,50.3"/>
	<path class="st0" d="M70.2,36.6c-1.1-0.8-2.1-1.8-2.9-2.9c-1.9-2.3-4.3-5.1-8.8-5.1c-4.5,0-6.8,2.8-8.8,5.2c-2,2.5-3.3,3.9-6.2,3.9
		c-2.9,0-4.4-1.7-6.2-3.9c-1.8-2.2-4.2-5.2-8.8-5.2c-4.6,0-6.8,2.8-8.8,5.2c-2,2.5-3.3,3.9-6.2,3.9c-2.9,0-4.4-1.7-6.2-3.9
		c-1.2-1.7-2.8-3.2-4.6-4.2c-0.9-0.5-1.9-0.1-2.3,0.8s-0.1,2,0.8,2.5c1.4,0.9,2.6,2,3.5,3.3c2,2.5,4.3,5.2,8.8,5.2s6.8-2.8,8.8-5.2
		c2-2.5,3.3-3.9,6.2-3.9c2.9,0,4.4,1.7,6.2,3.9c1.8,2.2,4.2,5.2,8.8,5.2c4.6,0,6.8-2.8,8.8-5.2c2-2.5,3.3-3.9,6.2-3.9
		s4.4,1.7,6.2,3.9c1,1.4,2.2,2.6,3.5,3.6c0.8,0.6,1.9,0.3,2.4-0.6C71.2,38.3,71,37.1,70.2,36.6"/>
	<path class="st0" d="M70.2,21.9c-1.1-0.8-2.1-1.8-2.9-2.9c-1.9-2.3-4.3-5.1-8.8-5.1c-4.5,0-6.8,2.8-8.8,5.2c-2,2.5-3.3,3.9-6.2,3.9
		c-2.9,0-4.4-1.7-6.2-3.9c-1.8-2.2-4.2-5.2-8.8-5.2c-4.6,0-6.8,2.8-8.8,5.2c-2,2.5-3.3,3.9-6.2,3.9c-2.9,0-4.4-1.7-6.2-3.9
		c-1.2-1.7-2.8-3.2-4.6-4.2c-0.9-0.5-1.9-0.1-2.3,0.8s-0.1,2,0.8,2.5c1.4,0.9,2.6,2,3.5,3.3c2,2.5,4.3,5.2,8.8,5.2s6.8-2.8,8.8-5.2
		c2-2.5,3.3-3.9,6.2-3.9c2.9,0,4.4,1.7,6.2,3.9c1.8,2.2,4.2,5.2,8.8,5.2c4.6,0,6.8-2.8,8.8-5.2c2-2.5,3.3-3.9,6.2-3.9
		s4.4,1.7,6.2,3.9c1,1.4,2.2,2.6,3.5,3.6c0.8,0.6,1.9,0.3,2.4-0.6C71.2,23.6,71,22.4,70.2,21.9"/>
	<path class="st0" d="M70.2,8.1c-1.1-0.8-2.1-1.8-2.9-2.9C65.4,2.8,63,0,58.5,0c-4.5,0-6.8,2.8-8.8,5.2c-2,2.5-3.3,3.9-6.2,3.9
		c-2.9,0-4.4-1.7-6.2-3.9C35.4,3,33,0,28.4,0c-4.6,0-6.8,2.8-8.8,5.2c-2,2.5-3.3,3.9-6.2,3.9c-2.9,0-4.4-1.7-6.2-3.9
		C5.9,3.5,4.3,2.1,2.5,1C1.7,0.6,0.6,0.9,0.2,1.8S0.1,3.9,1,4.3c1.4,0.9,2.6,2,3.5,3.3c2,2.5,4.3,5.2,8.8,5.2s6.8-2.8,8.8-5.2
		c2-2.5,3.3-3.9,6.2-3.9c2.9,0,4.4,1.7,6.2,3.9c1.8,2.2,4.2,5.2,8.8,5.2c4.6,0,6.8-2.8,8.8-5.2c2-2.5,3.3-3.9,6.2-3.9
		s4.4,1.7,6.2,3.9c1,1.4,2.2,2.6,3.5,3.6c0.8,0.6,1.9,0.3,2.4-0.6C71.2,9.8,71,8.6,70.2,8.1"/>
</g>
</svg>
