<?xml version="1.0" encoding="utf-8"?>
<!-- Generator: Adobe Illustrator 24.3.0, SVG Export Plug-In . SVG Version: 6.00 Build 0)  -->
<svg version="1.1" id="Layer_1" xmlns="http://www.w3.org/2000/svg" xmlns:xlink="http://www.w3.org/1999/xlink" x="0px" y="0px"
	 viewBox="0 0 278.9 36.3" style="enable-background:new 0 0 278.9 36.3;" xml:space="preserve">
<style type="text/css">
	.st0{opacity:0.2;}
</style>
<g class="st0">
	<path d="M276.2,0.3L276.2,0.3c-2.2-0.9-4.7,0.2-5.7,2.4l-11.3,27.5c-0.9,2.2,0.2,4.7,2.4,5.7c2.2,0.9,4.7-0.2,5.6-2.4L278.6,6
		C279.5,3.8,278.4,1.2,276.2,0.3"/>
	<path d="M252.7,0.3L252.7,0.3c-2.2-0.9-4.7,0.2-5.6,2.4l-11.3,27.5c-0.9,2.2,0.2,4.7,2.4,5.7c2.2,1,4.7-0.2,5.7-2.4L255.2,6
		C255.9,3.8,254.9,1.2,252.7,0.3"/>
	<g>
		<path d="M87.9,0.3L87.9,0.3c-2.2-0.9-4.7,0.2-5.6,2.4L71,30.2c-0.9,2.2,0.2,4.7,2.4,5.7c2.2,0.9,4.7-0.2,5.7-2.4L90.4,6
			C91.1,3.8,90.1,1.2,87.9,0.3"/>
		<path d="M64.3,0.3L64.3,0.3c-2.2-0.9-4.7,0.2-5.7,2.4L47.3,30.2c-0.9,2.2,0.2,4.7,2.4,5.7c2.2,1,4.7-0.2,5.7-2.4L66.7,6
			C67.6,3.8,66.5,1.2,64.3,0.3"/>
		<path d="M40.7,0.3L40.7,0.3C38.5-0.6,36,0.5,35,2.7L23.7,30.2c-0.9,2.2,0.2,4.7,2.4,5.7c2.2,0.9,4.7-0.2,5.6-2.4L43.1,6
			C44,3.8,42.9,1.2,40.7,0.3"/>
		<path d="M17.2,0.3L17.2,0.3c-2.2-0.9-4.7,0.2-5.6,2.4L0.3,30.2c-0.9,2.2,0.2,4.7,2.4,5.7c2.2,1,4.7-0.2,5.7-2.4L19.7,6
			C20.4,3.8,19.4,1.2,17.2,0.3"/>
		<path d="M229.1,0.3L229.1,0.3c-2.2-0.9-4.7,0.2-5.7,2.4l-11.3,27.5c-0.9,2.2,0.2,4.7,2.4,5.7c2.2,1,4.7-0.2,5.6-2.4L231.4,6
			C232.4,3.7,231.3,1.2,229.1,0.3"/>
		<path d="M205.5,0.3L205.5,0.3c-2.2-0.9-4.7,0.2-5.7,2.4l-11.3,27.5c-0.9,2.2,0.2,4.7,2.4,5.7c2.2,0.9,4.7-0.2,5.7-2.4L207.9,6
			C208.8,3.7,207.8,1.2,205.5,0.3"/>
		<path d="M182,0.3L182,0.3c-2.2-0.9-4.7,0.2-5.7,2.4l-11.2,27.5c-0.9,2.2,0.2,4.7,2.4,5.7c2.2,0.9,4.7-0.2,5.7-2.4L184.5,6
			C185.2,3.7,184.2,1.2,182,0.3"/>
		<path d="M158.4,0.3L158.4,0.3c-2.2-0.9-4.7,0.2-5.6,2.4l-11.3,27.5c-0.9,2.2,0.2,4.7,2.4,5.7c2.2,1,4.7-0.2,5.6-2.4L160.8,6
			C161.7,3.7,160.6,1.2,158.4,0.3"/>
		<path d="M134.8,0.3L134.8,0.3c-2.2-0.9-4.7,0.2-5.7,2.4l-11.3,27.5c-0.9,2.2,0.2,4.7,2.4,5.7c2.2,0.9,4.7-0.2,5.6-2.4L137.1,6
			C138.1,3.7,137,1.2,134.8,0.3"/>
		<path d="M111.3,0.3L111.3,0.3c-2.2-0.9-4.7,0.2-5.7,2.4L94.3,30.2c-0.9,2.2,0.2,4.7,2.4,5.7c2.2,0.9,4.7-0.2,5.7-2.4L113.7,6
			C114.5,3.7,113.5,1.2,111.3,0.3"/>
	</g>
</g>
</svg>
