<?xml version="1.0" encoding="utf-8"?>
<!-- Generator: Adobe Illustrator 24.3.0, SVG Export Plug-In . SVG Version: 6.00 Build 0)  -->
<svg version="1.1" id="Layer_1" xmlns="http://www.w3.org/2000/svg" xmlns:xlink="http://www.w3.org/1999/xlink" x="0px" y="0px"
	 viewBox="0 0 106.8 244.3" style="enable-background:new 0 0 106.8 244.3;" xml:space="preserve">
<style type="text/css">
	.st0{fill:#DE192E;}
</style>
<g>
	<path class="st0" d="M89.9,152.5c5.6,0,10.2,4.8,9.8,10.5c-0.4,5.2-4.9,9.1-10.1,9.1h-5.6c-2,0-3.6,1.6-3.6,3.6v0
		c0,2,1.6,3.6,3.6,3.6H88c6.4,0,11.5,5.1,11.5,11.5v31.1c0,6.4-5.1,11.5-11.5,11.5H74.5c0.5-1.3,0.9-2.5,1.2-3.7
		c0.5-2.3-1.2-4.4-3.5-4.4h0c-1.7,0-3.1,1.1-3.5,2.8c-1.2,5.2-5.9,9.2-11.4,9.2h-7.6c-5.5,0-10.1-4-11.4-9.2
		c-0.4-1.6-1.8-2.8-3.5-2.8h0c-2.3,0-4,2.2-3.5,4.4c0.3,1.2,0.7,2.4,1.2,3.7H19.1c-6.5,0-11.9-5.4-11.9-11.9v-30.7
		c0-6.5,5.5-11.5,11.9-11.5h34.6c2,0,3.6-1.6,3.6-3.6v0c0-2-1.6-3.6-3.6-3.6H17.6c-5.2,0-9.8-3.9-10.1-9.1
		c-0.4-5.7,4.2-10.5,9.8-10.5h36.6c2,0,3.6-1.6,3.6-3.6v0c0-2-1.6-3.6-3.6-3.6H17.6c-5.2,0-9.8-3.9-10.1-9.1
		c-0.4-5.7,4.2-10.5,9.8-10.5h36.6c2,0,3.6-1.6,3.6-3.6l0,0c0-2-1.6-3.6-3.6-3.6H19.1c-6.5,0-11.9-5.5-11.9-11.9V76h92.3v30.6
		c0,6.5-5.4,11.9-11.9,11.9H84c-2,0-3.6,1.6-3.6,3.6v0c0,2,1.6,3.6,3.6,3.6l5.6,0c5.2,0,9.8,3.9,10.1,9.1c0.4,5.7-4.2,10.5-9.8,10.5
		h-6c-2,0-3.6,1.6-3.6,3.6v0c0,2,1.6,3.6,3.6,3.6H89.9z M43.8,26.3h19.4L96,68.8H11.1L43.8,26.3z M33.9,7.2h38.7v12H33.9V7.2z
		 M106.8,162.1c0-5.4-2.5-10.3-6.5-13.4c4-3.1,6.6-8,6.6-13.4c0-5.7-3-10.8-7.3-13.9c4.4-3.5,7.1-8.8,7.1-14.8V71L72.3,26.3h7.5V0
		h-53v26.3h8L0,71v35.6c0,6,2.9,11.4,7.3,14.8c-4.4,3.1-7.1,8.1-7.1,13.9c0,5.4,2.6,10.3,6.6,13.4c-4,3.1-6.5,8-6.5,13.4
		c0,5.7,2.7,10.8,7.1,13.9c-4.4,3.5-7.3,8.8-7.3,14.8v30.6c0,10.4,8.7,19.1,19.1,19.1h19.1v-0.3c3.2,2.4,7.2,4.1,11.5,4.1h7.6
		c4.3,0,8.3-1.7,11.5-4.1v0.3H88c10.4,0,18.6-8.7,18.6-19.1v-30.6c0-6-2.7-11.4-7.1-14.8C103.9,172.9,106.8,167.8,106.8,162.1"/>
</g>
</svg>
