<?xml version="1.0" encoding="utf-8"?>
<!-- Generator: Adobe Illustrator 24.3.0, SVG Export Plug-In . SVG Version: 6.00 Build 0)  -->
<svg version="1.1" id="Layer_1" xmlns="http://www.w3.org/2000/svg" xmlns:xlink="http://www.w3.org/1999/xlink" x="0px" y="0px"
	 viewBox="0 0 118 118" style="enable-background:new 0 0 118 118;" xml:space="preserve">
<style type="text/css">
	.st0{fill:#FFFFFF;}
</style>
<path class="st0" d="M117.8,109.5c-0.5-3.2-3.3-5.3-6.6-5.4c-1.2,0-2.4,0-3.7,0V56.7c0.4-0.2,0.8-0.3,1.1-0.4
	c6.3-1.8,9.4-5.9,9.4-12.5c0-2.1-0.1-4.3,0-6.4c0.5-10.6-6.9-18.1-14.7-20.8c-1.6-0.6-3.4-0.9-5.1-1.4c0-2.7,0-5.4,0-8.1
	c-0.1-4.1-2.9-7-7-7C69.8,0,48.4,0,26.9,0c-4.2,0-7,2.9-7.1,7.2c0,2.6,0,5.2,0,8c-0.9,0.2-1.6,0.3-2.3,0.5c-9,1.9-16,8.8-17.3,17.5
	c-0.5,3.6-0.2,7.3-0.2,11c0,5.8,3.2,10.3,8.7,11.8c1.6,0.5,2,1.1,2,2.7c-0.1,14.4,0,28.9,0,43.3c0,0.7-0.1,1.3-0.1,2.1
	c-1.3,0-2.3,0-3.4,0c-4.1,0.1-7,2.9-7.1,6.9c0,0.9,0,1.8,0,2.8c0,3.7,0.4,4.1,4,4.1c36.6,0,73.2,0,109.8,0c0.6,0,1.4,0.2,1.8-0.1
	c0.8-0.5,2-1.2,2.1-2C118.1,113.8,118.1,111.6,117.8,109.5z M113.3,45.9c-0.4,3.6-4.2,6.4-8,6.1c-3.9-0.2-7-3.3-7.1-7.1
	c-0.1-2.1,0-4.3,0-6.6h15.1C113.3,40.9,113.5,43.4,113.3,45.9z M89,73.5c0-4.8-2.8-7.6-7.6-7.6c-0.6,0-1.1,0-1.7,0
	c0-0.6,0-1.1,0-1.7c0-1.7-0.6-3-2.4-2.9c-1.7,0-2.3,1.3-2.2,2.8c0,0.6,0,1.2,0,1.8c-12.9,0-25.8,0-38.6,0c-4.6,0-7.4,2.8-7.4,7.5
	c0,10.1,0,20.3,0,30.6H15.4V56.7c2.2-1.4,4.4-2.8,6.8-4.3c7,5.8,11.7,5.9,18.5,0c6.3,5.8,11.6,5.8,18.5,0c2.5,2.6,5.4,4.3,9.2,4.3
	c2.7,0,5.1-1,7.1-2.5c0,0.1-0.1,0.2-0.1,0.2c-0.1,0.8,1.1,1.7,1.8,2.6c0.3,0,0.7,0,1-0.1c0.5-0.9,1.5-1.9,1.5-2.7
	c6.1,4.3,11.9,2.7,16.3-1.8c2.2,1.4,4.4,2.8,6.8,4.4V104H89v-2.4C89,92.2,89,82.8,89,73.5z M75.1,73.5c0,1.6,0.6,2.8,2.3,2.8
	c1.7,0,2.4-1.1,2.4-2.7c0-1,0-2.1,0-3.1c0.7,0,1.5,0,2.2,0c1.5,0,2.4,1,2.4,2.5c0,10.3,0,20.5,0,31H61.5V70.5c4.6,0,9.1,0,13.7,0
	C75.1,71.5,75.2,72.5,75.1,73.5z M56.5,70.5v33.4H33.7c0-10.4,0-20.7,0-30.9c0-1.7,1-2.5,2.7-2.5C43,70.5,49.7,70.5,56.5,70.5z
	 M38.3,33.5H25c-0.2-7.6,8.3-14.2,17.8-13.6C39.4,23.9,37.9,28.3,38.3,33.5z M38.3,38.4c0,2.5,0.1,4.9,0,7.3
	C38,49.3,34.9,52,31.4,52c-3.5,0-6.6-2.8-6.8-6.4c-0.1-2.4,0-4.7,0-7.2H38.3z M56.7,38.4c0,2.5,0.1,4.7,0,7
	c-0.2,3.7-3.2,6.6-6.9,6.6c-3.6,0-6.7-2.9-6.9-6.6c-0.1-2.3,0-4.6,0-7H56.7z M56.6,20v13.6H43.2C41.8,25.4,47.8,19.3,56.6,20z
	 M75,38.3c0,2.8,0.3,5.6-0.1,8.3c-0.5,3.4-3.9,5.7-7.2,5.3c-3.5-0.4-6.2-3.1-6.3-6.8c-0.1-2.2,0-4.4,0-6.9H75z M61.5,33.5V20
	C70,19.1,76,25.1,74.9,33.5H61.5z M79.8,33.5c0.2-5-0.9-9.5-4.4-13.3c8-2,17.5,5.4,17.7,13.3H79.8z M93.5,38.3c0,2.7,0.3,5.4-0.1,8
	c-0.4,3.5-3.8,6-7.2,5.7c-3.5-0.3-6.3-3-6.4-6.6c-0.1-2.3,0-4.6,0-7.1H93.5z M112.9,33.5H98.1c-0.9-5.3-3.1-9.8-7.1-13.3
	C100.4,17.6,112.4,24.9,112.9,33.5z M24.5,7.8c0-2.4,0.8-3.1,3.2-3.1c8.6,0,17.2,0,25.8,0c12.1,0,24.1,0,36.2,0c3.4,0,3.9,0.5,3.9,4
	c0,1.9,0,3.8,0,5.8c0,0.1-0.1,0.3-0.1,0.6h-69C24.5,12.5,24.5,10.1,24.5,7.8z M27.3,19.9c-4.2,3.8-6.6,8.3-7.4,13.6H5.4
	C4.6,25.9,15.2,19.2,27.3,19.9z M4.7,45.6c-0.2-2.3,0-4.7,0-7.2h15.1c0,2.5,0.2,5,0,7.4c-0.3,3.5-3.9,6.4-7.6,6.3
	C8.5,52,5,49.1,4.7,45.6z M113.3,113.2H4.8c-0.4-3.8,0.2-4.4,3.9-4.4c33.5,0,67,0,100.5,0C113,108.7,113.5,109.3,113.3,113.2z"/>
</svg>
