<?xml version="1.0" encoding="utf-8"?>
<!-- Generator: Adobe Illustrator 24.3.0, SVG Export Plug-In . SVG Version: 6.00 Build 0)  -->
<svg version="1.1" id="Layer_1" xmlns="http://www.w3.org/2000/svg" xmlns:xlink="http://www.w3.org/1999/xlink" x="0px" y="0px"
	 viewBox="0 0 117.1 136" style="enable-background:new 0 0 117.1 136;" xml:space="preserve">
<style type="text/css">
	.st0{fill:#FFFFFF;}
</style>
<g>
	<path class="st0" d="M111.8,130.7h-10.5v-13.8c0-2.7-1.6-5-3.9-6V97.8c8.1,3.6,14.2,9.2,14.4,19.9V130.7z M92.1,110.3h-5.9V94
		c2,0.5,4,1.1,5.9,1.8V110.3z M80.9,110.3H36.2V92.6c2.2-0.6,4.4-1.1,6.5-1.7c1.6,7.3,8.1,12.8,15.9,12.8c7.8,0,14.3-5.5,15.9-12.8
		c2.1,0.6,4.2,1.2,6.5,1.7V110.3z M69.5,79.3v8c0,6-4.9,11-11,11c-6,0-11-4.9-11-11v-8c3.4,1.3,7.1,2.1,11,2.1
		C62.4,81.4,66.1,80.7,69.5,79.3 M34,51.5v-4.2c0.3-0.2,0.6-0.3,0.9-0.5c14.9-10.4,32.6-10.4,47.4,0c0.3,0.2,0.6,0.4,0.9,0.5v4.2
		c0,13.6-11,24.6-24.6,24.6C45,76.1,34,65.1,34,51.5 M29.4,42.9c-0.9-0.2-1.6-0.6-2.1-1.3c-1-1.5-0.7-3.5,0.8-4.6c0,0,0,0,0,0
		c19.1-13.3,41.9-13.3,61,0c1.5,1,1.8,3.1,0.8,4.6c-1,1.5-3.1,1.8-4.6,0.8c-8.4-5.8-17.6-8.8-26.7-8.8c-9.2,0-18.4,2.9-26.8,8.8
		C31.1,42.9,30.2,43.1,29.4,42.9 M72.5,23.5c-4.6-1.2-9.2-1.8-13.9-1.8c-4.3,0-8.6,0.5-12.8,1.5c1.3-4,6.9-7.1,13.4-7.1
		C65.7,16.2,71.4,19.4,72.5,23.5 M31.7,21.9c0-9.1,7.4-16.6,16.6-16.6h20.6c9.1,0,16.6,7.4,16.6,16.6v6.7c-2.4-1.3-4.9-2.4-7.4-3.3
		c0-0.1,0-0.1,0-0.2c0-4-2.1-7.6-5.9-10.3c-3.5-2.5-8.2-3.9-13.1-3.9s-9.5,1.4-13.1,3.9c-3.8,2.7-5.8,6.2-5.9,10.1
		c-2.9,1-5.7,2.2-8.4,3.7V21.9z M30.9,110.3H25V95.7c1.9-0.6,3.9-1.2,5.9-1.8V110.3z M19.7,110.9c-2.3,1-3.9,3.3-3.9,6v13.8H5.3v-13
		c0.2-10.7,6.2-16.3,14.4-19.9V110.9z M117.1,117.6c-0.2-9.5-4-16.6-11.8-21.7c-6.5-4.2-14.7-6.3-22.6-8.4c-2.8-0.7-5.4-1.4-7.9-2.1
		v-8.8C83,71.2,88.5,62,88.5,51.5v-3.3c2.3-0.3,4.4-1.6,5.8-3.6c2.7-3.9,1.7-9.3-2.1-12c-0.5-0.3-0.9-0.6-1.4-0.9v-9.8
		C90.7,9.8,80.9,0,68.8,0H48.3C36.2,0,26.4,9.8,26.4,21.9v9.8C26,32,25.5,32.3,25,32.6c-3.9,2.7-4.8,8.1-2.1,12
		c1.3,1.9,3.3,3.1,5.5,3.5c0.1,0,0.2,0,0.2,0v3.3c0,10.5,5.4,19.7,13.6,25.1v8.8c-2.5,0.7-5.1,1.4-7.9,2.1c-7.9,2-16.1,4.2-22.6,8.4
		C4,101,0.2,108.1,0,117.6v0v15.7c0,1.5,1.2,2.7,2.7,2.7h44c1.5,0,2.7-1.2,2.7-2.7c0-1.5-1.2-2.7-2.7-2.7H21.1v-13.8
		c0-0.7,0.6-1.2,1.2-1.2h72.5c0.7,0,1.2,0.6,1.2,1.2v13.8H70.5c-1.5,0-2.7,1.2-2.7,2.7c0,1.5,1.2,2.7,2.7,2.7h44
		c1.5,0,2.7-1.2,2.7-2.7V117.6L117.1,117.6z"/>
	<path class="st0" d="M58.6,130.7c-1.5,0-2.7,1.2-2.7,2.7s1.2,2.7,2.7,2.7h0c1.5,0,2.7-1.2,2.7-2.7S60,130.7,58.6,130.7"/>
</g>
</svg>
