<?xml version="1.0" encoding="utf-8"?>
<!-- Generator: Adobe Illustrator 24.3.0, SVG Export Plug-In . SVG Version: 6.00 Build 0)  -->
<svg version="1.1" id="Layer_1" xmlns="http://www.w3.org/2000/svg" xmlns:xlink="http://www.w3.org/1999/xlink" x="0px" y="0px"
	 viewBox="0 0 715 100" style="enable-background:new 0 0 715 100;" xml:space="preserve">
<style type="text/css">
	.st0{opacity:0.2;}
	.st1{fill:#1D1D1B;}
</style>
<g class="st0">
	<path class="st1" d="M260.8,63.9L260.8,63.9c-2.2-0.9-4.7,0.2-5.6,2.4l-11.3,27.5c-0.9,2.2,0.2,4.7,2.4,5.7
		c2.2,0.9,4.7-0.2,5.7-2.4l11.3-27.5C264,67.4,263,64.8,260.8,63.9"/>
	<path class="st1" d="M237.2,63.9L237.2,63.9c-2.2-0.9-4.7,0.2-5.7,2.4l-11.3,27.5c-0.9,2.2,0.2,4.7,2.4,5.7s4.7-0.2,5.7-2.4
		l11.3-27.5C240.5,67.4,239.4,64.8,237.2,63.9"/>
	<path class="st1" d="M213.6,63.9L213.6,63.9c-2.2-0.9-4.7,0.2-5.7,2.4l-11.3,27.5c-0.9,2.2,0.2,4.7,2.4,5.7
		c2.2,0.9,4.7-0.2,5.6-2.4L216,69.6C216.9,67.4,215.8,64.8,213.6,63.9"/>
	<path class="st1" d="M190.1,63.9L190.1,63.9c-2.2-0.9-4.7,0.2-5.6,2.4l-11.3,27.5c-0.9,2.2,0.2,4.7,2.4,5.7s4.7-0.2,5.7-2.4
		l11.3-27.5C193.3,67.4,192.3,64.8,190.1,63.9"/>
	<path class="st1" d="M166.7,64.1L166.7,64.1c-2.2-1-4.8,0.1-5.7,2.2l-11.9,27.2c-1,2.2,0.1,4.8,2.2,5.7c2.2,1,4.8-0.1,5.7-2.2
		l11.9-27.2C169.9,67.6,168.9,65,166.7,64.1"/>
	<path class="st1" d="M144.8,63.1L144.8,63.1c-2-1.2-4.7-0.6-6,1.4l-15.5,25.4c-1.2,2-0.6,4.7,1.4,6c2,1.2,4.7,0.6,6-1.4L146.3,69
		C147.5,67,146.9,64.3,144.8,63.1"/>
	<path class="st1" d="M123.8,59.2L123.8,59.2c-1.8-1.5-4.6-1.2-6.1,0.6l-18.8,23c-1.5,1.8-1.2,4.6,0.6,6.1c1.8,1.5,4.6,1.2,6.1-0.6
		l18.8-23C125.9,63.5,125.6,60.7,123.8,59.2"/>
	<path class="st1" d="M103.7,52.7L103.7,52.7c-1.6-1.7-4.4-1.8-6.1-0.2L75.9,72.8c-1.7,1.6-1.8,4.4-0.2,6.1c1.6,1.7,4.4,1.8,6.1,0.2
		l21.6-20.4C105.2,57.1,105.3,54.4,103.7,52.7"/>
	<path class="st1" d="M84.8,43.6L84.8,43.6c-1.4-1.9-4.1-2.4-6-1L54.6,60c-1.9,1.4-2.4,4.1-1,6c1.4,1.9,4.1,2.4,6,1l24.1-17.4
		C85.7,48.3,86.2,45.5,84.8,43.6"/>
	<path class="st1" d="M67.3,32.2L67.3,32.2c-1.1-2.1-3.8-2.9-5.9-1.7L35.3,44.6c-2.1,1.1-2.9,3.8-1.7,5.9s3.8,2.9,5.9,1.7l26.1-14.1
		C67.6,37,68.4,34.3,67.3,32.2"/>
	<path class="st1" d="M51.4,18.7L51.4,18.7c-0.9-2.2-3.4-3.3-5.6-2.5L18.1,26.9c-2.2,0.9-3.3,3.4-2.5,5.6c0.9,2.2,3.4,3.3,5.6,2.5
		l27.7-10.7C51.2,23.5,52.3,20.9,51.4,18.7"/>
	<path class="st1" d="M37.4,3.3L37.4,3.3c-0.6-2.3-2.9-3.7-5.2-3.2L3.3,7.2C1,7.8-0.4,10.1,0.1,12.4c0.6,2.3,2.9,3.7,5.2,3.2
		l28.9-7.1C36.5,8,38,5.6,37.4,3.3"/>
	<path class="st1" d="M708.9,63.9L708.9,63.9c-2.2-0.9-4.7,0.2-5.7,2.4L692,93.8c-0.9,2.2,0.2,4.7,2.4,5.7c2.2,0.9,4.7-0.2,5.6-2.4
		l11.3-27.5C712.2,67.3,711.1,64.8,708.9,63.9"/>
	<path class="st1" d="M685.4,63.9L685.4,63.9c-2.2-0.9-4.7,0.2-5.7,2.4l-11.3,27.5c-0.9,2.2,0.2,4.7,2.4,5.7s4.7-0.2,5.7-2.4
		l11.3-27.5C688.6,67.3,687.6,64.8,685.4,63.9"/>
	<path class="st1" d="M661.3,63.9L661.3,63.9c-2.2-0.9-4.7,0.2-5.7,2.4l-11.3,27.5c-0.9,2.2,0.2,4.7,2.4,5.7
		c2.2,0.9,4.7-0.2,5.7-2.4l11.3-27.5C664.5,67.3,663.5,64.8,661.3,63.9"/>
	<path class="st1" d="M637.7,63.9L637.7,63.9c-2.2-0.9-4.7,0.2-5.7,2.4l-11.3,27.5c-0.9,2.2,0.2,4.7,2.4,5.7s4.7-0.2,5.6-2.4
		l11.3-27.5C641,67.3,639.9,64.8,637.7,63.9"/>
	<path class="st1" d="M614.1,63.9L614.1,63.9c-2.2-0.9-4.7,0.2-5.7,2.4l-11.3,27.5c-0.9,2.2,0.2,4.7,2.4,5.7
		c2.2,0.9,4.7-0.2,5.6-2.4l11.3-27.5C617.4,67.3,616.3,64.8,614.1,63.9"/>
	<path class="st1" d="M590.6,63.9L590.6,63.9c-2.2-0.9-4.7,0.2-5.7,2.4l-11.3,27.5c-0.9,2.2,0.2,4.7,2.4,5.7
		c2.2,0.9,4.7-0.2,5.7-2.4l11.3-27.5C593.8,67.3,592.8,64.8,590.6,63.9"/>
	<path class="st1" d="M567,63.9L567,63.9c-2.2-0.9-4.7,0.2-5.7,2.4l-11.3,27.5c-0.9,2.2,0.2,4.7,2.4,5.7c2.2,0.9,4.7-0.2,5.6-2.4
		l11.3-27.5C570.3,67.3,569.2,64.8,567,63.9"/>
	<path class="st1" d="M543.4,63.9L543.4,63.9c-2.2-0.9-4.7,0.2-5.7,2.4l-11.3,27.5c-0.9,2.2,0.2,4.7,2.4,5.7s4.7-0.2,5.7-2.4
		l11.3-27.5C546.7,67.3,545.6,64.8,543.4,63.9"/>
	<path class="st1" d="M519.9,63.9L519.9,63.9c-2.2-0.9-4.7,0.2-5.7,2.4l-11.3,27.5c-0.9,2.2,0.2,4.7,2.4,5.7
		c2.2,0.9,4.7-0.2,5.7-2.4l11.3-27.5C523.1,67.3,522.1,64.8,519.9,63.9"/>
	<path class="st1" d="M496.3,63.9L496.3,63.9c-2.2-0.9-4.7,0.2-5.7,2.4l-11.3,27.5c-0.9,2.2,0.2,4.7,2.4,5.7
		c2.2,0.9,4.7-0.2,5.7-2.4l11.3-27.5C499.6,67.3,498.5,64.8,496.3,63.9"/>
	<path class="st1" d="M472.7,63.9L472.7,63.9c-2.2-0.9-4.7,0.2-5.7,2.4l-11.3,27.5c-0.9,2.2,0.2,4.7,2.4,5.7s4.7-0.2,5.6-2.4
		l11.3-27.5C476,67.3,474.9,64.8,472.7,63.9"/>
	<path class="st1" d="M449.2,63.9L449.2,63.9c-2.2-0.9-4.7,0.2-5.7,2.4l-11.3,27.5c-0.9,2.2,0.2,4.7,2.4,5.7
		c2.2,0.9,4.7-0.2,5.7-2.4l11.3-27.5C452.4,67.3,451.4,64.8,449.2,63.9"/>
	<path class="st1" d="M425.6,63.9L425.6,63.9c-2.2-0.9-4.7,0.2-5.7,2.4l-11.3,27.5c-0.9,2.2,0.2,4.7,2.4,5.7
		c2.2,0.9,4.7-0.2,5.7-2.4l11.3-27.5C428.9,67.3,427.8,64.8,425.6,63.9"/>
	<path class="st1" d="M402,63.9L402,63.9c-2.2-0.9-4.7,0.2-5.7,2.4l-11.3,27.5c-0.9,2.2,0.2,4.7,2.4,5.7s4.7-0.2,5.6-2.4l11.3-27.5
		C405.3,67.3,404.2,64.8,402,63.9"/>
	<path class="st1" d="M378.4,63.9L378.4,63.9c-2.2-0.9-4.7,0.2-5.7,2.4l-11.3,27.5c-0.9,2.2,0.2,4.7,2.4,5.7
		c2.2,0.9,4.7-0.2,5.7-2.4l11.3-27.5C381.7,67.3,380.7,64.8,378.4,63.9"/>
	<path class="st1" d="M354.9,63.9L354.9,63.9c-2.2-0.9-4.7,0.2-5.7,2.4L338,93.8c-0.9,2.2,0.2,4.7,2.4,5.7c2.2,0.9,4.7-0.2,5.7-2.4
		l11.3-27.5C358.1,67.3,357.1,64.8,354.9,63.9"/>
	<path class="st1" d="M331.3,63.9L331.3,63.9c-2.2-0.9-4.7,0.2-5.6,2.4l-11.3,27.5c-0.9,2.2,0.2,4.7,2.4,5.7s4.7-0.2,5.6-2.4
		l11.3-27.5C334.6,67.3,333.5,64.8,331.3,63.9"/>
	<path class="st1" d="M307.7,63.9L307.7,63.9c-2.2-0.9-4.7,0.2-5.7,2.4l-11.3,27.5c-0.9,2.2,0.2,4.7,2.4,5.7
		c2.2,0.9,4.7-0.2,5.6-2.4l11.3-27.5C311,67.3,309.9,64.8,307.7,63.9"/>
	<path class="st1" d="M284.2,63.9L284.2,63.9c-2.2-0.9-4.7,0.2-5.7,2.4l-11.3,27.5c-0.9,2.2,0.2,4.7,2.4,5.7
		c2.2,0.9,4.7-0.2,5.7-2.4l11.3-27.5C287.4,67.3,286.4,64.8,284.2,63.9"/>
</g>
</svg>
