<?xml version="1.0" encoding="utf-8"?>
<!-- Generator: Adobe Illustrator 24.3.0, SVG Export Plug-In . SVG Version: 6.00 Build 0)  -->
<svg version="1.1" id="Layer_1" xmlns="http://www.w3.org/2000/svg" xmlns:xlink="http://www.w3.org/1999/xlink" x="0px" y="0px"
	 viewBox="0 0 75.9 63" style="enable-background:new 0 0 75.9 63;" xml:space="preserve">
<style type="text/css">
	.st0{fill:#FFFFFF;}
</style>
<g>
	<path class="st0" d="M67.3,60.8v-5.6c0-0.6-0.5-1.1-1.1-1.1c-0.6,0-1.1,0.5-1.1,1.1v5.6l-21.9,0l-1.5-11.9
		c-0.6-4.8-2.9-7.2-5.6-8.7H46l6,4.1c0.8,0.6,1.6,0.9,2.3,0.9s1.5-0.3,2.3-0.9l5.8-4c4.8,1.3,8.9,2.5,9.7,8.9l1.5,11.6H67.3z
		 M60.2,39.1l-4.9,3.3c0,0,0,0,0,0c-0.9,0.7-1.1,0.7-2,0c0,0,0,0,0,0l-4.7-3.2c0.2-0.2,0.3-0.4,0.4-0.7l0.6-1.5
		c0.3,0.1,0.6,0.3,0.9,0.4c1.4,0.5,2.6,0.8,3.8,0.8c1.2,0,2.4-0.3,3.8-0.8c0.3-0.1,0.7-0.3,1-0.4l0.5,1.1
		C59.7,38.5,59.9,38.8,60.2,39.1 M41.7,23.3V20c2.7-0.6,4.8-2.7,6-3.9c0.2-0.2,0.4-0.4,0.5-0.5c0.8-0.7,1.1-0.9,1.8-0.5
		c7.7,3.5,9.8,3.8,15.7,4.8c0.3,0,0.6,0.1,0.9,0.2v3.2c0,4.6-4.4,10.2-9.5,12.1c-2.2,0.8-3.9,0.8-6.1,0c-0.6-0.2-1.1-0.5-1.6-0.8
		c-0.1,0-0.1-0.1-0.2-0.1c0,0,0,0,0,0C45.1,32.1,41.7,27.2,41.7,23.3 M22.6,42.4C22.6,42.4,22.6,42.4,22.6,42.4
		c-0.9,0.7-1.1,0.7-2,0c0,0,0,0,0,0L15.7,39c0.6-0.6,0.9-1.4,1.2-2c0.3,0.1,0.6,0.3,0.9,0.4c1.4,0.5,2.6,0.8,3.8,0.8
		c1.2,0,2.4-0.3,3.8-0.8c0.3-0.1,0.6-0.2,0.9-0.4c0.3,0.6,0.6,1.4,1.2,2L22.6,42.4z M9.1,23.3v-3.2c2.5-0.4,3.7-1.7,4.6-2.6
		c0.9-0.9,1.2-1.3,2.5-0.9c0.7,0.2,1.3,0.3,1.8,0.5c1.8,0.5,2.6,0.7,3.6,0.7c1,0,1.9-0.2,3.6-0.7c0.5-0.1,1.1-0.3,1.8-0.5
		c1.2-0.3,1.6,0,2.5,0.9c0.9,0.9,2.1,2.2,4.6,2.6v3.2c0,4.5-4.4,10.2-9.5,12c-2.2,0.8-3.8,0.8-6,0C13.5,33.5,9.1,27.8,9.1,23.3
		 M21.6,4.9C27.4,5,33.5,9.1,34.1,17.8c-1.5-0.4-2.3-1.1-3-1.9c-0.8-0.8-1.7-1.7-3.3-1.7c-0.4,0-0.8,0.1-1.3,0.2
		c-0.7,0.2-1.3,0.3-1.8,0.5c-1.6,0.4-2.4,0.6-3.1,0.6c-0.7,0-1.5-0.2-3.1-0.6c-0.5-0.1-1.1-0.3-1.8-0.5c-2.5-0.6-3.6,0.5-4.6,1.5
		c-0.7,0.7-1.5,1.5-3,1.9C9.7,9.1,15.9,5,21.6,4.9 M6.3,46.4L4.1,45c-0.6-0.4-1-1-1.1-1.6c-0.1-0.7,0-1.4,0.4-1.9l1-1.5
		c0.8-1.2,2.4-1.5,3.6-0.7l2.2,1.4L6.3,46.4z M75.8,60.6l-1.5-11.7c-1-7.9-6.6-9.5-11.5-10.8c0,0-0.3-0.1-0.3-0.1
		c-0.4-0.1-0.8-0.4-0.9-0.7L61,35.9c4.6-2.9,8-8.1,8-12.7v-3.7c4.1-4,4.5-10.9,4-16c0-0.4-0.1-0.7-0.1-1c-0.1-1.3-0.2-2-0.9-2.4
		c-0.7-0.4-1.3-0.1-2.1,0.2c-0.4,0.2-0.8,0.3-1.4,0.6C67,1.5,65,1.8,62.6,1.8c-0.6,0-1.1,0.5-1.1,1.1c0,0.6,0.5,1.1,1.1,1.1
		c2.7,0,4.9-0.3,6.9-0.9c0.5-0.2,1-0.4,1.3-0.5c0,0.1,0,0.2,0,0.3c0,0.3,0,0.6,0.1,1c0.3,3.8,0.4,10.5-3.3,14.1
		c-0.5-0.1-0.9-0.2-1.3-0.2c-5.9-1-7.7-1.3-15.2-4.6c-2.2-1-3.6,0.3-4.3,1c-0.2,0.2-0.4,0.4-0.6,0.6c-1,1-2.6,2.6-4.4,3.2
		c0-3.4,0.1-5.6,2-7.3c0.4-0.4,1-0.7,1.6-1.1l0,0c0.5-0.3,0.9-0.5,1-1.2c0,0,0-0.1,0-0.2c0.2-0.9,0.5-1.6,0.8-2.2
		C49,3,52.9,3.3,57.6,3.7c0.6,0.1,1.1-0.4,1.2-1c0.1-0.6-0.4-1.1-1-1.2c-4.9-0.4-10-0.8-12.5,3.1c-0.5,0.8-0.9,1.8-1.1,2.9
		c0,0,0,0,0,0c-0.7,0.4-1.4,0.8-1.9,1.3c-2.7,2.4-2.7,5.5-2.7,9.4c0,0.3,0,0.6,0,0.9v4.2c0,4.5,3.5,9.8,8,12.7l-0.7,1.7
		c-0.1,0.3-0.4,0.3-0.6,0.3H29.7c-0.7-0.3-1.2-1.2-1.4-2c4.6-2.9,8-8.1,8-12.7v-4.2c0-5-1.6-9.2-4.6-12.2c-2.7-2.7-6.3-4.2-10.1-4.2
		c0,0,0,0,0,0c-3.9,0.1-7.5,1.6-10.1,4.2c-3,3-4.6,7.2-4.6,12.2v4.2c0,4.5,3.5,9.8,8,12.7c-0.3,0.8-0.7,1.7-1.5,2c0,0-0.1,0-0.1,0
		c-0.7,0.2-1.4,0.4-2.1,0.6l-1.9-1.3c-2.2-1.5-5.2-0.9-6.7,1.3l-1,1.5c-1.3,1.9-1,4.4,0.6,6c-0.3,0.8-0.5,1.7-0.6,2.7L0,60.6
		c-0.1,0.5-0.1,1.2,0.4,1.8C0.9,62.9,1.6,63,2.2,63h7.3c0.1,0,0.1,0,0.2,0c0.1,0,0.1,0,0.2,0h8.8c0.6,0,1.1-0.5,1.1-1.1
		c0-0.6-0.5-1.1-1.1-1.1h-7.8v-5.6c0-0.6-0.5-1.1-1.1-1.1c-0.6,0-1.1,0.5-1.1,1.1v5.6H2.3l1.5-11.6c0.1-0.5,0.2-1.1,0.3-1.6l1.3,0.9
		c0.3,0.2,0.7,0.3,1,0.3c0.1,0,0.2,0,0.4,0c0.5-0.1,0.9-0.4,1.2-0.8l4.3-6.5c0.2-0.3,0.3-0.7,0.3-1c0.3-0.1,0.6-0.2,0.9-0.2l5.8,4
		c0.8,0.6,1.6,0.9,2.3,0.9c0.7,0,1.5-0.3,2.3-0.9l5.8-4c4.8,1.3,8.9,2.5,9.7,8.9L41,60.8h-6.3v-5.6c0-0.6-0.5-1.1-1.1-1.1
		s-1.1,0.5-1.1,1.1v5.6l-8.8,0c-0.6,0-1.1,0.5-1.1,1.1S23,63,23.6,63h9.8c0,0,0.1,0,0.2,0c0.1,0,0.1,0,0.2,0l40,0
		c0.6,0,1.3-0.1,1.8-0.6C75.9,61.8,75.9,61.1,75.8,60.6z"/>
</g>
</svg>
