<?xml version="1.0" encoding="utf-8"?>
<!-- Generator: Adobe Illustrator 24.3.0, SVG Export Plug-In . SVG Version: 6.00 Build 0)  -->
<svg version="1.1" id="Layer_1" xmlns="http://www.w3.org/2000/svg" xmlns:xlink="http://www.w3.org/1999/xlink" x="0px" y="0px"
	 viewBox="0 0 74.2 73" style="enable-background:new 0 0 74.2 73;" xml:space="preserve">
<style type="text/css">
	.st0{fill:#FFFFFF;}
</style>
<g>
	<path class="st0" d="M72,56.3L57.7,70.8c0,0-0.1,0-0.1,0c0,0-0.1,0-0.1,0l-5.1-5.1c0-0.1,0-0.1,0-0.2l0.8-0.8h0l8.3-8.4l5.2-5.2
		c0,0,0.1,0,0.2,0l5.1,5.1C72.1,56.2,72.1,56.2,72,56.3 M46.5,43.1c0,0.9-0.7,1.5-1.5,1.5c-0.8,0-1.5-0.7-1.5-1.5V30.9
		c0-0.6-0.5-1.1-1.1-1.1s-1.1,0.5-1.1,1.1v18.2c0,0.9-0.7,1.5-1.5,1.5c-0.8,0-1.4-0.6-1.5-1.3V30.9c0-0.6-0.5-1.1-1.1-1.1
		c-0.2,0-0.4,0.1-0.5,0.1c-0.3,0.2-0.6,0.5-0.6,1v18.2c0,0.1,0,0.3,0,0.4v2.2c0,0.9-0.7,1.5-1.5,1.5c-0.8,0-1.5-0.7-1.5-1.5V30.9
		c0-0.6-0.5-1.1-1.1-1.1c-0.6,0-1.1,0.5-1.1,1.1v18.2c0,0.9-0.7,1.5-1.5,1.5c-0.8,0-1.5-0.7-1.5-1.5V28.8c0-0.6-0.5-1.1-1.1-1.1
		c-0.6,0-1.1,0.5-1.1,1.1v3.8c-0.1,0-0.2,0.1-0.3,0.1c-1.4-0.5-2.4-1.9-2.4-3.5v-7.1c0-1.1,0.4-2.1,1.2-2.8l2.2-2.2
		c1.2-1.2,1.9-2.9,1.9-4.7v-0.5h2.2c0.6,0,1.1-0.5,1.1-1.1c0-0.6-0.5-1.1-1.1-1.1h-4.5c-0.1,0-0.1-0.1-0.1-0.1V2.3
		c0-0.1,0.1-0.1,0.1-0.1h20.3c0.1,0,0.1,0.1,0.1,0.1v7.3c0,0.1-0.1,0.1-0.1,0.1H35.4c-0.6,0-1.1,0.5-1.1,1.1c0,0.6,0.5,1.1,1.1,1.1
		h8.4v0.9c0,1.6,0.6,3.2,1.6,4.4c0.6,0.7,1,1.7,1,2.7V43.1z M29.2,58.6c-0.7,0.7-1.6,1.1-2.6,1.2c-1.6,0.1-3.1,0.8-4.2,1.9l-0.6,0.6
		l-0.6-0.6c0,0,0,0,0,0L10.7,51.1l0.3-0.3c1.2-1.2,1.9-2.9,1.9-4.7V43c0-1.1,0.4-2.1,1.2-2.8l5-5c0.7-0.7,1.6-1.1,2.6-1.1
		c0.6,0,1.2,0.2,1.8,0.5l-2.8,2.8c-0.4,0.4-0.4,1.1,0,1.5c0.2,0.2,0.5,0.3,0.8,0.3s0.6-0.1,0.8-0.3l3.3-3.4v13.7
		c0,2.1,1.7,3.7,3.7,3.7c0.6,0,1.1-0.1,1.6-0.4c0.2,1.1,0.9,2,1.8,2.5L29.2,58.6z M73.6,54.6l-5.1-5.1c-0.4-0.5-1-0.7-1.7-0.7
		c-0.6,0-1.2,0.3-1.6,0.7l-0.1,0.1l-0.3-0.3c-0.4-0.4-0.7-0.9-1-1.4c0-0.1,0-0.1-0.1-0.2c-0.2-0.5-0.3-1-0.3-1.5v-1.5
		c0.1,0,0.2-1.6,0.1-1.9c0-0.1-0.1-0.2-0.1-0.3c-0.1-1.4-0.8-2.8-1.8-3.8l-5-5c-1.1-1.1-2.6-1.7-4.2-1.7c-1.2,0-2.4,0.4-3.4,1.1
		l-0.5-0.5V19.8c0-1.5-0.5-3-1.5-4.1c-0.7-0.8-1.1-1.8-1.1-2.9v-0.9h0.1c1.3,0,2.3-1,2.3-2.3V2.3c0-1.3-1-2.3-2.3-2.3H25.8
		c-1.3,0-2.3,1-2.3,2.3v7.3c0,1.3,1,2.3,2.3,2.3H26v0.5c0,1.2-0.5,2.3-1.3,3.1l-2.2,2.2c-1.2,1.2-1.8,2.7-1.8,4.4v7.1
		c0,1,0.2,1.9,0.6,2.7c-1.4,0.1-2.8,0.7-3.8,1.7l-5,5c-1.2,1.2-1.8,2.7-1.8,4.4v3.1c0,1.2-0.5,2.3-1.3,3.1l-0.3,0.3c0,0,0,0,0,0
		l-0.1-0.1c-0.4-0.4-0.9-0.7-1.4-0.7c-0.7-0.1-1.4,0.2-1.9,0.7l-5.1,5.1c-0.9,0.9-0.9,2.4,0,3.3l1.7,1.8C2.8,60,3.5,60,4,59.6
		c0.4-0.4,0.4-1.1,0-1.5l-1.7-1.8c0,0,0-0.1,0-0.2L7.3,51c0,0,0.1,0,0.2,0l0.9,0.9h0l12.1,12.2l1.4,1.4c0,0,0,0.1,0,0.2l-5.1,5.1
		c0,0-0.1,0-0.2,0L7,61.2c-0.4-0.4-1.1-0.4-1.5,0c-0.4,0.4-0.4,1.1,0,1.5l9.5,9.6c0.4,0.4,1,0.7,1.6,0.7c0.6,0,1.2-0.2,1.6-0.7
		l5.1-5.1c0.9-0.9,0.9-2.4,0-3.3l-0.1-0.1l0.6-0.6c0.8-0.8,1.8-1.2,2.8-1.3c1.5-0.1,2.9-0.7,4-1.8l4.7-4.7c1.4-0.4,2.4-1.5,2.7-2.9
		c0.5,0.2,1,0.4,1.6,0.4c2,0,3.7-1.7,3.7-3.7v-2.6c0.5,0.2,1,0.3,1.5,0.3c2,0,3.7-1.7,3.7-3.7v-7.7l3.3,3.4c0.2,0.2,0.5,0.3,0.8,0.3
		c0.3,0,0.6-0.1,0.8-0.3c0.4-0.4,0.4-1.1,0-1.5l-2.8-2.8c0.5-0.3,1.1-0.5,1.8-0.5c1,0,1.9,0.4,2.6,1.1l5,5c0.8,0.8,1.2,1.8,1.2,2.8
		v3.1c0,1.8,0.7,3.4,1.9,4.7l0.3,0.3L62,52.7l-9.5,9.6l-0.5-0.5c0,0,0,0,0,0l-0.1-0.1c-1.1-1.1-2.6-1.8-4.2-1.9
		c-1-0.1-1.9-0.5-2.6-1.2L41.4,55c-0.4-0.4-1.1-0.4-1.5,0s-0.4,1.1,0,1.5l3.6,3.6c1.1,1.1,2.5,1.7,4,1.8c1.1,0.1,2.1,0.5,2.8,1.3
		l0.1,0.1c0,0,0.1,0.1,0.1,0.1l0.5,0.5l-0.1,0.1c-0.9,0.9-0.9,2.4,0,3.3l5.1,5.1c0.4,0.4,1,0.7,1.6,0.7c0.6,0,1.2-0.2,1.6-0.7
		l14.4-14.5C74.5,56.9,74.5,55.5,73.6,54.6"/>
	<path class="st0" d="M29.3,4.8c-0.6,0-1.2,0.5-1.2,1.2c0,0.6,0.5,1.2,1.2,1.2c0.6,0,1.2-0.5,1.2-1.2C30.4,5.3,29.9,4.8,29.3,4.8"/>
	<path class="st0" d="M67.2,54.7c-0.6,0-1.2,0.5-1.2,1.2s0.5,1.2,1.2,1.2c0.6,0,1.2-0.5,1.2-1.2S67.8,54.7,67.2,54.7"/>
	<path class="st0" d="M18.1,65.8c0-0.6-0.5-1.2-1.2-1.2c-0.6,0-1.2,0.5-1.2,1.2c0,0.6,0.5,1.2,1.2,1.2C17.6,67,18.1,66.5,18.1,65.8"
		/>
</g>
</svg>
