<?xml version="1.0" encoding="utf-8"?>
<!-- Generator: Adobe Illustrator 24.3.0, SVG Export Plug-In . SVG Version: 6.00 Build 0)  -->
<svg version="1.1" id="Layer_1" xmlns="http://www.w3.org/2000/svg" xmlns:xlink="http://www.w3.org/1999/xlink" x="0px" y="0px"
	 viewBox="0 0 68.8 66" style="enable-background:new 0 0 68.8 66;" xml:space="preserve">
<style type="text/css">
	.st0{fill:#FFFFFF;}
</style>
<g>
	<g>
		<path class="st0" d="M36.5,66c-4.7,0-9.9-1.4-15.4-4.9c-3.7-2.4-6.3-5.7-7.7-9.7C3.1,49.5,0.1,40.3,0,35.4
			c-0.1-7.2,5.2-11.7,9.8-15.6l0.4-0.3c6.8-5.8,5.5-15.6,5.5-15.7c-0.1-0.7,0.2-1.3,0.8-1.7c0.6-0.4,1.3-0.3,1.9,0
			c0.8,0.5,19,13.2,20.4,27.5c0.8,7.7-0.7,13.5-4.3,17.2c-3.6,3.7-9.3,5.4-17.1,5c1.2,2.6,3.1,4.7,5.7,6.4C33.6,65,43.2,63,48,58.1
			c3.9-3.9,8.1-12.6,6.6-31.8h-3.9c-0.5,0-2.6,0-4.5-1.6c-1.7-1.6-2.6-4-2.6-7.3c0-3.5,0-5.7,0-6c0.1-0.9,0.8-1.6,1.7-1.6h3.8V1.7
			C49.2,0.8,50,0,50.9,0s1.7,0.8,1.7,1.7v8.1h7.6V1.7C60.3,0.8,61.1,0,62,0s1.7,0.8,1.7,1.7v8.1H67c0.9,0,1.7,0.8,1.7,1.7v5.8
			c0.1,0.8,0.3,4.2-1.8,6.6c-1.4,1.6-3.4,2.4-6,2.4h-2.8c1.6,20.2-3.2,29.8-7.6,34.2C47.3,63.8,42.4,66,36.5,66z M16.3,48.4
			c7.4,0.5,12.7-0.8,15.7-3.9c2.9-3,4-7.9,3.4-14.5c-0.7-6.8-6.1-13.5-10.9-18.2c1.6,4.2,2.3,10.3-2.3,16.5c-4.7,6.3-7,13.9-5.8,20
			C16.3,48.3,16.3,48.4,16.3,48.4z M19.1,8.9c-0.5,4-2,9.3-6.7,13.2L12,22.4C7.8,26,3.3,29.8,3.4,35.4c0,0.4,0.3,9.8,9.3,12.4
			c-0.9-6.9,1.6-14.9,6.7-21.6C25.2,18.4,20.7,11.1,19.1,8.9z M47.1,13.3c0,0.9,0,2.2,0,4.2c0,2.2,0.5,3.9,1.4,4.7
			c0.9,0.8,1.9,0.8,2,0.8c0,0,0.1,0,0.1,0h5.5c0,0,0,0,0,0h4.7c1.6,0,2.7-0.4,3.4-1.2c1.3-1.5,1-4,1-4c0-0.1,0-0.2,0-0.2v-4.2H47.1z
			"/>
	</g>
</g>
</svg>
