<?xml version="1.0" encoding="utf-8"?>
<!-- Generator: Adobe Illustrator 24.3.0, SVG Export Plug-In . SVG Version: 6.00 Build 0)  -->
<svg version="1.1" id="Layer_1" xmlns="http://www.w3.org/2000/svg" xmlns:xlink="http://www.w3.org/1999/xlink" x="0px" y="0px"
	 viewBox="0 0 25.6 25.6" style="enable-background:new 0 0 25.6 25.6;" xml:space="preserve">
<style type="text/css">
	.st0{fill-rule:evenodd;clip-rule:evenodd;fill:#DE192E;}
</style>
<g>
	<path class="st0" d="M16.9,12.4l-3.3,3.3V7.2c0-0.4-0.4-0.8-0.8-0.8c-0.4,0-0.8,0.4-0.8,0.8v8.5l-3.3-3.3c-0.3-0.3-0.8-0.3-1.1,0
		c-0.3,0.3-0.3,0.8,0,1.1l4.5,4.5c0.2,0.2,0.5,0.3,0.7,0.2c0.2,0,0.5,0,0.7-0.2l4.5-4.5c0.3-0.3,0.3-0.8,0-1.1
		C17.7,12.1,17.2,12.1,16.9,12.4L16.9,12.4z M12.8,0C5.7,0,0,5.7,0,12.8c0,7.1,5.7,12.8,12.8,12.8c7.1,0,12.8-5.7,12.8-12.8
		C25.6,5.7,19.9,0,12.8,0L12.8,0z M12.8,24C6.6,24,1.6,19,1.6,12.8c0-6.2,5-11.2,11.2-11.2C19,1.6,24,6.6,24,12.8
		C24,19,19,24,12.8,24L12.8,24z M12.8,24"/>
</g>
</svg>
