<?xml version="1.0" encoding="utf-8"?>
<!-- Generator: Adobe Illustrator 24.3.0, SVG Export Plug-In . SVG Version: 6.00 Build 0)  -->
<svg version="1.1" id="Layer_1" xmlns="http://www.w3.org/2000/svg" xmlns:xlink="http://www.w3.org/1999/xlink" x="0px" y="0px"
	 viewBox="0 0 229 122.9" style="enable-background:new 0 0 229 122.9;" xml:space="preserve">
<style type="text/css">
	.st0{fill:#DE192E;}
</style>
<g>
	<path class="st0" d="M221.4,65.3c0,13.3-9.8,24.5-22.9,26.4V31.2c13.1,1.9,22.9,13.2,22.9,26.4V65.3z M190.8,101
		c0,1.8-1.3,3.4-3.1,3.7l-38.2,7.3c-23.1,4.4-46.9,4.4-70,0l-38.2-7.3c-1.8-0.3-3.1-1.9-3.1-3.7V22c0-1.8,1.3-3.4,3.1-3.7l38.2-7.3
		c23.1-4.4,46.9-4.4,70,0l38.2,7.3c1.8,0.3,3.1,1.9,3.1,3.7V101z M30.5,91.7C17.4,89.8,7.6,78.6,7.6,65.3v-7.6
		c0-13.3,9.8-24.5,22.9-26.4V91.7z M198.5,23.5V22c0-5.5-3.9-10.2-9.3-11.2l-38.2-7.3c-24.1-4.6-48.8-4.6-72.8,0l-38.2,7.3
		c-5.4,1-9.3,5.7-9.3,11.2v1.6C13.2,25.5,0,40.2,0,57.7v7.6c0,17.5,13.2,32.2,30.5,34.1v1.6c0,5.5,3.9,10.2,9.3,11.2l38.2,7.3
		c12,2.3,24.2,3.4,36.4,3.4c12.2,0,24.4-1.2,36.4-3.4l38.2-7.3c5.4-1,9.3-5.7,9.3-11.2v-1.6c17.4-2,30.5-16.6,30.5-34.1v-7.6
		C229,40.2,215.8,25.5,198.5,23.5"/>
	<path class="st0" d="M171.8,57.7H57.3c-2.1,0-3.8,1.7-3.8,3.8c0,2.1,1.7,3.8,3.8,3.8h114.5c2.1,0,3.8-1.7,3.8-3.8
		C175.6,59.4,173.9,57.7,171.8,57.7"/>
	<path class="st0" d="M171.8,34.8H57.3c-2.1,0-3.8,1.7-3.8,3.8s1.7,3.8,3.8,3.8h114.5c2.1,0,3.8-1.7,3.8-3.8S173.9,34.8,171.8,34.8"
		/>
	<path class="st0" d="M171.8,80.6H57.3c-2.1,0-3.8,1.7-3.8,3.8s1.7,3.8,3.8,3.8h114.5c2.1,0,3.8-1.7,3.8-3.8S173.9,80.6,171.8,80.6"
		/>
</g>
</svg>
