<?xml version="1.0" encoding="utf-8"?>
<!-- Generator: Adobe Illustrator 24.3.0, SVG Export Plug-In . SVG Version: 6.00 Build 0)  -->
<svg version="1.1" id="Layer_1" xmlns="http://www.w3.org/2000/svg" xmlns:xlink="http://www.w3.org/1999/xlink" x="0px" y="0px"
	 viewBox="0 0 70.1 63" style="enable-background:new 0 0 70.1 63;" xml:space="preserve">
<style type="text/css">
	.st0{fill:#FFFFFF;}
</style>
<g>
	<path class="st0" d="M22.7,6.8c0,0.8,0.6,1.4,1.4,1.4H46c0.8,0,1.4-0.6,1.4-1.4c0-0.8-0.6-1.4-1.4-1.4H24.1
		C23.3,5.5,22.7,6.1,22.7,6.8"/>
	<path class="st0" d="M26.8,21.9h16.4c2.3,0,4.1-1.8,4.1-4.1c0-0.8-0.6-1.4-1.4-1.4s-1.4,0.6-1.4,1.4c0,0.8-0.6,1.4-1.4,1.4H26.8
		c-0.8,0-1.4-0.6-1.4-1.4c0-0.8-0.6-1.4-1.4-1.4c-0.8,0-1.4,0.6-1.4,1.4C22.7,20.1,24.6,21.9,26.8,21.9"/>
	<path class="st0" d="M8.2,46.6H11v2.7H8.2V46.6z M16.4,49.3h-2.7v-2.7h2.7V49.3z M6.8,52h11c0.8,0,1.4-0.6,1.4-1.4v-5.5
		c0-0.8-0.6-1.4-1.4-1.4h-11c-0.8,0-1.4,0.6-1.4,1.4v5.5C5.5,51.4,6.1,52,6.8,52"/>
	<path class="st0" d="M35.9,0.3c0.6,0.5,0.7,1.3,0.2,1.9c-0.5,0.6-1.3,0.7-1.9,0.2C33.6,2,33.5,1.1,34,0.5
		C34.5-0.1,35.3-0.2,35.9,0.3"/>
	<path class="st0" d="M64.1,60.3l-1.4-2.7h4.6v2.7H64.1z M6,60.3H2.7v-2.7h4.6L6,60.3z M67.4,54.8H2.7V13.7h64.6V54.8z M68.8,0H41.2
		c-0.8,0-1.4,0.6-1.4,1.4c0,0.8,0.6,1.4,1.4,1.4h26.2V11H2.7V2.7h26.2c0.8,0,1.4-0.6,1.4-1.4c0-0.8-0.6-1.4-1.4-1.4H1.4
		C0.6,0,0,0.6,0,1.4v60.3C0,62.4,0.6,63,1.4,63h5.5c0.5,0,1-0.3,1.2-0.8l2.4-4.7h49.3l2.4,4.7c0.2,0.5,0.7,0.8,1.2,0.8h5.5
		c0.8,0,1.4-0.6,1.4-1.4V1.4C70.1,0.6,69.5,0,68.8,0"/>
	<path class="st0" d="M45.9,38c0-0.7-0.6-1.3-1.3-1.3h-1.5l2.6-3.4c0.4-0.6,0.3-1.4-0.3-1.8c-0.6-0.4-1.4-0.3-1.8,0.3l-3.7,5h-3.6
		v-3.6l5-3.7c0.6-0.4,0.7-1.2,0.3-1.8c-0.4-0.6-1.2-0.7-1.8-0.3l-3.4,2.6v-1.5c0-0.7-0.6-1.3-1.3-1.3c-0.7,0-1.3,0.6-1.3,1.3v1.5
		l-3.4-2.6c-0.6-0.4-1.4-0.3-1.8,0.3c-0.4,0.6-0.3,1.4,0.3,1.8l5,3.7v3.6h-3.6l-3.7-5c-0.4-0.6-1.2-0.7-1.8-0.3
		c-0.6,0.4-0.7,1.2-0.3,1.8l2.6,3.4h-1.5c-0.7,0-1.3,0.6-1.3,1.3c0,0.7,0.6,1.3,1.3,1.3H27l-2.6,3.4c-0.4,0.6-0.3,1.4,0.3,1.8
		c0.6,0.4,1.4,0.3,1.8-0.3l3.7-5h3.6v3.6l-5,3.7c-0.6,0.4-0.7,1.2-0.3,1.8c0.4,0.6,1.2,0.7,1.8,0.3l3.4-2.6v1.5
		c0,0.7,0.6,1.3,1.3,1.3c0.7,0,1.3-0.6,1.3-1.3v-1.5l3.4,2.6c0.6,0.4,1.4,0.3,1.8-0.3c0.4-0.6,0.3-1.4-0.3-1.8l-5-3.7v-3.6h3.6
		l3.7,5c0.3,0.3,0.6,0.5,1,0.5c1,0,1.7-1.2,1-2.1l-2.6-3.4h1.5C45.4,39.3,45.9,38.7,45.9,38"/>
</g>
</svg>
