<?xml version="1.0" encoding="utf-8"?>
<!-- Generator: Adobe Illustrator 24.3.0, SVG Export Plug-In . SVG Version: 6.00 Build 0)  -->
<svg version="1.1" id="Layer_1" xmlns="http://www.w3.org/2000/svg" xmlns:xlink="http://www.w3.org/1999/xlink" x="0px" y="0px"
	 viewBox="0 0 113.4 104.8" style="enable-background:new 0 0 113.4 104.8;" xml:space="preserve">
<style type="text/css">
	.st0{fill:#DE192E;}
	.st1{fill:none;}
</style>
<path class="st0" d="M84.1,62.5c-0.8,1.1-1.3,2.5-1.3,3.9l-0.4,24l-23.5-7.2c-1.4-0.4-2.9-0.5-4.4,0l-23.4,7.2l-0.5-24
	c0-1.4-0.5-2.7-1.3-3.8l-14-18.9l23.3-8.2c1.3-0.4,2.4-1.2,3.2-2.3l14.9-18.5l14.8,18.5c0.8,1,1.9,1.8,3.2,2.3l23.4,8.2L84.1,62.5z
	 M105,31.4l-23.4-8.2L66.8,4.8c-5.1-6.3-15.1-6.4-20.2,0L31.7,23.2L8.4,31.4c-7.9,2.8-10.9,12-6,18.6l13.9,18.8l0.5,23.9
	c0.2,8.2,8.5,13.9,16.7,11.4L56.7,97c25.3,7.8,24.6,7.8,27.2,7.8c2.6,0,5.2-0.8,7.4-2.3c3.3-2.3,5.3-5.8,5.3-9.7L97,68.8L111,50
	C115.9,43.4,112.9,34.2,105,31.4"/>
<path class="st1" d="M178.9,152.2c-0.8,1.1-1.3,2.5-1.3,3.9l-0.4,24l-23.5-7.2c-1.4-0.4-2.9-0.5-4.4,0l-23.4,7.2l-0.5-24
	c0-1.4-0.5-2.7-1.3-3.8l-14-18.9l23.3-8.2c1.3-0.4,2.4-1.2,3.2-2.3l14.9-18.5l14.8,18.5c0.8,1,1.9,1.8,3.2,2.3l23.4,8.2L178.9,152.2
	z M199.8,121.1l-23.4-8.2l-14.8-18.4c-5.1-6.3-15.1-6.4-20.2,0l-14.9,18.5l-23.3,8.2c-7.9,2.8-10.9,12-6,18.6l13.9,18.8l0.5,23.9
	c0.2,8.2,8.5,13.9,16.7,11.4l23.2-7.2c25.3,7.8,24.6,7.8,27.2,7.8c2.6,0,5.2-0.8,7.4-2.3c3.3-2.3,5.3-5.8,5.3-9.7l0.4-23.9l14-18.8
	C210.7,133.1,207.7,123.8,199.8,121.1z"/>
</svg>
