<?xml version="1.0" encoding="utf-8"?>
<!-- Generator: Adobe Illustrator 24.3.0, SVG Export Plug-In . SVG Version: 6.00 Build 0)  -->
<svg version="1.1" id="Layer_1" xmlns="http://www.w3.org/2000/svg" xmlns:xlink="http://www.w3.org/1999/xlink" x="0px" y="0px"
	 viewBox="0 0 71 71" style="enable-background:new 0 0 71 71;" xml:space="preserve">
<style type="text/css">
	.st0{fill:#FFFFFF;}
</style>
<g>
	<path class="st0" d="M38.7,65.8c0,1.7-1.4,3.2-3.2,3.2c-1.7,0-3.2-1.4-3.2-3.2s1.4-3.2,3.2-3.2C37.2,62.6,38.7,64,38.7,65.8
		 M9.7,65.8c-2.5,0-4.6-2-4.6-4.6c0-2.5,2-4.6,4.6-4.6c2.5,0,4.6,2,4.6,4.6C14.3,63.8,12.2,65.8,9.7,65.8 M35.5,15.5
		c11,0,20,9,20,20s-9,20-20,20s-20-9-20-20C15.5,24.5,24.5,15.5,35.5,15.5 M5.2,38.7c-1.7,0-3.2-1.4-3.2-3.2c0-1.7,1.4-3.2,3.2-3.2
		s3.2,1.4,3.2,3.2C8.4,37.2,7,38.7,5.2,38.7 M32.3,5.2c0-1.7,1.4-3.2,3.2-3.2c1.7,0,3.2,1.4,3.2,3.2c0,1.7-1.4,3.2-3.2,3.2
		C33.8,8.4,32.3,7,32.3,5.2 M61.3,5.2c2.5,0,4.6,2,4.6,4.6c0,2.5-2,4.6-4.6,4.6c-2.5,0-4.6-2-4.6-4.6C56.7,7.2,58.8,5.2,61.3,5.2
		 M65.8,32.3c1.7,0,3.2,1.4,3.2,3.2c0,1.7-1.4,3.2-3.2,3.2c-1.7,0-3.2-1.4-3.2-3.2C62.6,33.8,64,32.3,65.8,32.3 M57.5,36.5h3.1
		c0.5,2.4,2.6,4.2,5.1,4.2c2.9,0,5.2-2.4,5.2-5.2c0-2.9-2.4-5.2-5.2-5.2c-2.5,0-4.7,1.8-5.1,4.2h-3.1c-0.2-5.3-2.4-10.1-5.7-13.8
		l5.6-5.6c1.1,0.8,2.4,1.3,3.9,1.3c3.7,0,6.6-3,6.6-6.6c0-3.7-3-6.6-6.6-6.6c-3.7,0-6.6,3-6.6,6.6c0,1.5,0.5,2.8,1.3,3.9l-5.6,5.6
		c-3.7-3.4-8.5-5.5-13.8-5.7v-3.1c2.4-0.5,4.2-2.6,4.2-5.1c0-2.9-2.4-5.2-5.2-5.2s-5.2,2.4-5.2,5.2c0,2.5,1.8,4.7,4.2,5.1v3.1
		c-5.3,0.2-10.1,2.4-13.8,5.7l-5.6-5.6c0.8-1.1,1.3-2.4,1.3-3.9c0-2.2-1.1-4.3-2.9-5.5C13,3.9,12.3,4,12,4.5
		c-0.3,0.5-0.2,1.1,0.3,1.4c1.3,0.9,2,2.3,2,3.8c0,2.5-2,4.6-4.6,4.6s-4.6-2-4.6-4.6c0-2,1.4-3.8,3.3-4.4C9,5.2,9.4,4.6,9.2,4
		C9,3.5,8.5,3.2,7.9,3.3C5.1,4.1,3.1,6.8,3.1,9.7c0,3.7,3,6.6,6.6,6.6c1.5,0,2.8-0.5,3.9-1.3l5.6,5.6c-3.4,3.7-5.5,8.5-5.7,13.8
		h-3.1c-0.5-2.4-2.6-4.2-5.1-4.2c-2.9,0-5.2,2.4-5.2,5.2c0,2.9,2.4,5.2,5.2,5.2c2.5,0,4.7-1.8,5.1-4.2h3.1
		c0.2,5.3,2.4,10.1,5.7,13.8l-5.6,5.6c-1.1-0.8-2.4-1.3-3.9-1.3c-3.7,0-6.6,3-6.6,6.6c0,3.7,3,6.6,6.6,6.6s6.6-3,6.6-6.6
		c0-1.5-0.5-2.8-1.3-3.9l5.6-5.6c3.7,3.4,8.5,5.5,13.8,5.7v3.1c-2.4,0.5-4.2,2.6-4.2,5.1c0,2.9,2.4,5.2,5.2,5.2s5.2-2.4,5.2-5.2
		c0-2.5-1.8-4.7-4.2-5.1v-3.1c5.3-0.2,10.1-2.4,13.8-5.7l5.6,5.6c-0.8,1.1-1.3,2.4-1.3,3.9c0,3.7,3,6.6,6.6,6.6c3.7,0,6.6-3,6.6-6.6
		c0-0.7-0.1-1.4-0.3-2.1c-0.2-0.5-0.8-0.8-1.3-0.7s-0.8,0.8-0.7,1.3c0.2,0.5,0.2,1,0.2,1.4c0,2.5-2,4.6-4.6,4.6
		c-2.5,0-4.6-2-4.6-4.6c0-2.5,2-4.6,4.6-4.6c0.6,0,1.1,0.1,1.7,0.3c0.5,0.2,1.1-0.1,1.3-0.6c0.2-0.5-0.1-1.1-0.6-1.3
		c-0.8-0.3-1.6-0.5-2.4-0.5c-1.5,0-2.8,0.5-3.9,1.3l-5.6-5.6C55.2,46.7,57.3,41.8,57.5,36.5z"/>
	<path class="st0" d="M29.5,28.5c0-3.3,2.7-6,6-6c3.3,0,6,2.7,6,6s-2.7,6-6,6C32.2,34.5,29.5,31.8,29.5,28.5 M23.7,48.3h5.9
		c0,0,0,0,0,0c0,0,0,0,0,0h3.4c0.6,0,1-0.5,1-1c0-0.6-0.5-1-1-1h-2.4v-1.8c0-0.6-0.5-1-1-1c-0.6,0-1,0.5-1,1v1.8h-3.8v-5.1
		c0-2.5,2-4.6,4.6-4.6h12.3c2.5,0,4.6,2,4.6,4.6v5.1h-3.8v-1.8c0-0.6-0.5-1-1-1s-1,0.5-1,1v1.8h-2.4c-0.6,0-1,0.5-1,1
		c0,0.6,0.5,1,1,1h3.4c0,0,0,0,0,0s0,0,0,0h5.9c0.6,0,1-0.5,1-1v-6.2c0-3.7-3-6.6-6.6-6.6h-0.8c1.6-1.5,2.7-3.6,2.7-6
		c0-4.4-3.6-8-8-8s-8,3.6-8,8c0,2.4,1,4.5,2.7,6h-0.8c-3.7,0-6.6,3-6.6,6.6v6.2C22.7,47.8,23.2,48.3,23.7,48.3"/>
</g>
</svg>
