<?xml version="1.0" encoding="utf-8"?>
<!-- Generator: Adobe Illustrator 24.3.0, SVG Export Plug-In . SVG Version: 6.00 Build 0)  -->
<svg version="1.1" id="Layer_1" xmlns="http://www.w3.org/2000/svg" xmlns:xlink="http://www.w3.org/1999/xlink" x="0px" y="0px"
	 viewBox="0 0 186.5 121.7" style="enable-background:new 0 0 186.5 121.7;" xml:space="preserve">
<style type="text/css">
	.st0{fill:#7B3A1A;}
	.st1{fill:#DE192E;}
</style>
<g>
	<path class="st0" d="M179.7,63.1h-3.1v7.7c0,0.8,0,1.2,0.4,2.1c0.8,1.9,2.9,2.3,5.2,2.3h4.4v-1.9h-3.9c-1,0-1.9-0.2-2.5-0.8
		c-0.4-0.6-0.6-1-0.6-1.7v-7.7C179.6,63.1,179.7,63.1,179.7,63.1z"/>
	<path class="st0" d="M162.9,75.1l4.4-10.6c0,0,0.6-1.5,2.1-1.5s2.1,1.5,2.1,1.5l4.6,10.6H173l-1-2.7h-3.7l0.8-2.1h2.1l-1.7-4.1
		l-1.7,4.1l-0.2,0.4l-0.4,1l-0.2,0.6l-1,2.7L162.9,75.1L162.9,75.1z"/>
	<path class="st1" d="M70.9,116.2c0,0.2,0,0.2,0,0.4c0,1-1.2,1.2-2.1,1.2c-1.7,0-6.2-0.8-10.4-1.9c4.8-3.3,5.4-4.1,5.4-4.8v-8.5
		c0-1,0.6-1.9,1.9-1.9c0.6,0,1.5,0.4,2.1,1.5l0.4-0.2c-0.4-0.8-1.5-1.7-2.5-1.7c-2.5,0-6.2,3.5-8.3,3.5c-0.8,0-1.2-0.4-1.5-1.7h-0.4
		c0,1.7,1,2.1,2.5,2.1c0.4,0,0.6,0.2,0.6,0.4v9.9c0,0.4-0.2,0.6-0.8,1l-1.7-0.4c-1,1.2-1.7,2.1-2.7,3.1l0.2,0.2
		c0.6-0.2,1-0.2,1.2-0.2c2.1,0,11.6,2.1,13.7,2.5l-0.2,0.8l0.4,0.2c0.6-2.3,2.7-3.9,2.7-5.2c0-0.2,0-0.2-0.2-0.4L70.9,116.2
		L70.9,116.2L70.9,116.2z M61.1,103.7c0-0.8,0.4-1.2,1.2-1.7v10.2c0,0.4-0.4,0.8-1.2,1.2V103.7z"/>
	<path class="st1" d="M71.3,106c0.2,0,0.2,0,0.4,0.2c0,0,0,0.2,0,0.4v7.9c0,0.2,0,0.2,0,0.4c0,0-0.2,0.2-0.4,0.2v0.2h2.9v-0.2
		c-0.2,0-0.2,0-0.4-0.2c0,0-0.2-0.2-0.2-0.4v-7.9c0-0.2,0-0.2,0.2-0.4c0,0,0.2-0.2,0.4-0.2v-0.2h-2.9V106z"/>
	<path class="st1" d="M84.3,106c0.2,0,0.2,0,0.4,0.2c0,0,0,0.2,0,0.4v5.6l-5.2-5.4c-0.2-0.2-0.2-0.2-0.2-0.4s0-0.2,0.2-0.4v-0.2
		h-3.1v0.2c0.2,0,0.2,0,0.4,0.2c0,0,0,0.2,0,0.4v7.9c0,0.2,0,0.2,0,0.4c0,0-0.2,0.2-0.4,0.2v0.2h2.7v-0.2c-0.2,0-0.2,0-0.4-0.2
		c0,0,0-0.2,0-0.4v-5.8l5.2,5.4c0.2,0.2,0.4,0.4,0.4,0.4c0,0.2,0,0.2-0.2,0.2v0.2H87v-0.2c-0.2,0-0.2,0-0.4-0.2c0,0,0-0.2,0-0.4
		v-7.9c0-0.2,0-0.2,0-0.4c0,0,0.2-0.2,0.4-0.2v-0.2h-2.7V106z"/>
	<path class="st1" d="M97.2,106.2c-0.6-0.2-1.5-0.4-2.7-0.4h-5.2v0.2c0.2,0,0.2,0,0.4,0.2c0,0,0,0.2,0,0.4v7.9c0,0.2,0,0.2,0,0.4
		c0,0-0.2,0.2-0.4,0.2v0.2h5.2c0.8,0,1.7,0,2.1-0.2c0.6-0.2,1-0.4,1.5-0.8c1-0.8,1.5-2.1,1.5-3.7c0-0.8-0.2-1.7-0.4-2.5
		C98.8,107.3,98.2,106.6,97.2,106.2 M96.4,113.3c-0.4,0.2-1,0.4-1.9,0.4H92v-6.2h2.5c0.6,0,1,0,1.5,0.2c0.4,0.2,0.6,0.4,1,0.6
		c0.4,0.6,0.6,1.2,0.6,2.3C97.6,111.8,97.2,112.8,96.4,113.3"/>
	<path class="st1" d="M110.5,113.5c0,0-0.2,0-0.4,0h-5.8v-7c0-0.2,0-0.2,0.2-0.4c0,0,0.2-0.2,0.4-0.2v-0.2H102v0.4
		c0.2,0,0.2,0,0.4,0.2c0,0,0,0.2,0,0.4v7.9c0,0.2,0,0.2,0,0.4c0,0-0.2,0.2-0.4,0.2v0.2h8.3c0.2,0,0.2,0,0.4,0c0,0,0.2,0.4,0.2,0.6
		h0.2v-2.7h-0.2C110.5,113.5,110.5,113.5,110.5,113.5"/>
	<path class="st1" d="M121.2,113.5c0,0-0.2,0-0.4,0h-6V111h3.7c0.2,0,0.2,0,0.4,0.2c0,0,0.2,0.2,0.2,0.4h0.2v-2.3h-0.2
		c0,0.2-0.2,0.2-0.2,0.4c0,0-0.2,0-0.4,0h-3.7v-2.3h5.8c0.2,0,0.2,0,0.4,0c0,0,0.2,0.2,0.2,0.4h0.2v-2.5h-0.2c0,0.2,0,0.2-0.2,0.4
		c0,0-0.2,0-0.4,0h-8.3v0.2c0.2,0,0.2,0,0.4,0.2c0,0,0,0.2,0,0.4v7.9c0,0.2,0,0.2,0,0.4c0,0-0.2,0.2-0.4,0.2v0.2h8.5
		c0.2,0,0.2,0,0.4,0c0,0,0.2,0.4,0.2,0.6h0.2v-2.5h-0.2C121.4,113.5,121.4,113.5,121.2,113.5"/>
	<path class="st1" d="M129.5,105.8v0.2c0.2,0,0.2,0,0.4,0.2l0.2,0.2c0,0,0,0.2-0.2,0.6l-1.7,2.5l-1.7-2.5c-0.2-0.2-0.2-0.4-0.2-0.6
		s0.2-0.4,0.4-0.4v-0.2H123v0.2c0.2,0,0.4,0,0.6,0.2s0.4,0.4,0.6,0.8l3.1,4.4v3.1c0,0.2,0,0.2,0,0.4c0,0-0.2,0.2-0.4,0.2v0.2h2.9
		v-0.2c-0.2,0-0.2,0-0.4-0.2c0,0,0-0.2,0-0.4v-3.1l3.1-4.4c0.2-0.4,0.4-0.6,0.6-0.8c0.2-0.2,0.4-0.2,0.6-0.2v-0.2
		C133.7,105.8,129.5,105.8,129.5,105.8z"/>
	<path class="st1" d="M65.3,26.4l14.1-14.1c1.7-1.7,3.5,0,3.5,0l3.9,3.9l7-7c-2.5-2.5-4.6-4.6-5.6-5.6c-7-7-14.1,0-14.1,0L56.4,21
		c-7,7,0,14.3,0,14.3l16.8,16.8c0,0,0.8,0.8,1.9-0.2c0.4-0.4,0.8-0.8,0.8-2.5c0-1.2,0-8.9,0-8.9L65.3,30
		C63.4,28.1,65.3,26.4,65.3,26.4"/>
	<path class="st1" d="M103.2,18.6l-7,7l0.8,0.8c1.7,1.7,0,3.5,0,3.5L86.2,40.7c0,0,0,7.3,0,8.3c0,1.9,0.4,2.5,0.8,2.9
		c1,1,2.1,0.2,2.1,0.2s13.3-13.3,16.8-16.8c7-7,0-14.1,0-14.1S104.9,20.2,103.2,18.6"/>
	<path class="st0" d="M132.6,34.3c-0.4-0.4-0.8-0.8-2.5-0.8h-8.9l-10.6,10.6c-1.9,1.9-3.5,0-3.5,0l-3.9-3.9l-7,7l5.6,5.6
		c7,7,14.1,0,14.1,0L132.7,36C132.8,36.2,133.7,35.3,132.6,34.3"/>
	<path class="st0" d="M93.9,30.8L93,30c-1.7-1.7,0-3.5,0-3.5l2.1-2.1l7-7l5.2-5.2c1.7-1.7,3.5,0,3.5,0L121.6,23c0,0,7.3,0,8.3,0
		c1.9,0,2.5-0.4,2.9-0.8c1-1,0.2-2.1,0.2-2.1S119.6,7,116,3.4c-7-7-14.1,0-14.1,0s-3.1,3.1-6.8,6.8c-2.3,2.3-5,5-7,7l-3.7,3.7
		c-7,7,0,14.1,0,14.1l2.5,2.5L93.9,30.8z"/>
	<path class="st1" d="M32.7,75.1h5.4V73h-5c-1.7,0-2.3-1.9-2.3-3.5c-0.2-1.9,0.4-4.1,2.3-4.1h5v-2.3h-5c-0.8,0-1.5,0.2-2.3,0.4
		c-4.1,1.7-3.9,10.2,0.2,11.4C31.7,75.1,32.1,75.1,32.7,75.1"/>
	<path class="st1" d="M0,75.1l4.4-10.6c0,0,0.6-1.5,2.1-1.5s2.1,1.5,2.1,1.5l4.6,10.6h-2.9l-1-2.7H5.4l0.8-2.1h2.1l-1.7-4.1L5,70.4
		L4.8,71l-0.4,1l-0.2,0.6l-1,2.5C3.2,75.1,0,75.1,0,75.1z"/>
	<path class="st1" d="M14.7,63.1h8.7c0,0,3.1,0.2,3.3,3.7c0,0,0.2,2.9-3.1,3.5l3.3,5h-3.3l-3.1-4.8h-1.9l0.8-1.9h1.9
		c0,0,2.3,0,2.3-1.9c0-1.7-2.1-1.7-2.1-1.7h-4.1v10.3h-2.7L14.7,63.1"/>
	<path class="st1" d="M39.6,75.1L44,64.5c0,0,0.6-1.5,2.1-1.5s2.1,1.5,2.1,1.5l4.6,10.6h-2.9l-1-2.7H45l0.8-2.1h2.1l-1.7-4.1
		l-1.7,4.1l-0.2,0.4l-0.4,1l-0.4,0.8l-1,2.5L39.6,75.1L39.6,75.1z"/>
	<polygon class="st0" points="152.3,65.2 156.7,65.2 156.7,75.1 159.6,75.1 159.6,65.2 164.1,65.2 164.1,63.1 152.3,63.1 	"/>
	<polygon class="st0" points="138.2,75.1 140.9,75.1 140.9,66.2 146.7,75.1 150.7,75.1 150.7,63.1 147.8,63.1 147.8,72 142,63.1 
		138,63.1 	"/>
	<path class="st0" d="M130.6,75.1h5.8V73H131c-0.8,0-1.5-0.4-1.9-1s-0.6-1-0.6-1.9h7.9V68h-7.9c0-0.8,0.2-1.5,0.8-2.1
		s1.2-0.8,2.1-0.8h5V63H131c-1.2,0-1.9,0.2-2.9,0.6c-3.7,1.9-3.7,8.9,0,10.8C128.9,74.9,129.5,75.1,130.6,75.1"/>
	<polygon class="st0" points="111.1,75.1 114,75.1 114,66.2 119.8,75.1 123.7,75.1 123.7,63.1 120.8,63.1 120.8,72 115,63.1 
		111.1,63.1 	"/>
	<polygon class="st0" points="93,65.2 97.4,65.2 97.4,75.1 100.3,75.1 100.3,65.2 104.9,65.2 104.9,63.1 93,63.1 	"/>
	<rect x="106.3" y="63.1" class="st0" width="3.1" height="12"/>
	<polygon class="st0" points="78.7,75.1 81.6,75.1 81.6,66.2 87.5,75.1 91.4,75.1 91.4,63.1 88.5,63.1 88.5,72 82.7,63.1 78.7,63.1 
			"/>
	<path class="st0" d="M77.3,69.1c-0.2-3.9-1.5-6.4-6.6-6.4c-4.8,0-6.6,2.7-6.6,6.2c0,4.8,2.5,6.4,6.6,6.4
		C74.4,75.5,77.5,74.1,77.3,69.1 M70.9,73.3c-3.3,0-3.7-2.1-3.7-4.4c0-2.1,0.8-4.1,3.5-4.1s3.7,1.9,3.7,4.1
		C74.4,71.2,73.8,73.3,70.9,73.3"/>
	<path class="st0" d="M57.6,75.1H63V73h-5c-1.7,0-2.3-1.9-2.3-3.5c-0.2-1.9,0.4-4.1,2.3-4.1h5v-2.3h-5c-0.8,0-1.5,0.2-2.3,0.4
		c-4.1,1.7-3.9,10.2,0.2,11.4C56.6,75.1,57,75.1,57.6,75.1"/>
	<rect y="87.6" class="st0" width="186.5" height="0.6"/>
</g>
</svg>
