<?xml version="1.0" encoding="utf-8"?>
<!-- Generator: Adobe Illustrator 24.3.0, SVG Export Plug-In . SVG Version: 6.00 Build 0)  -->
<svg version="1.1" id="Layer_1" xmlns="http://www.w3.org/2000/svg" xmlns:xlink="http://www.w3.org/1999/xlink" x="0px" y="0px"
	 viewBox="0 0 186.5 121.7" style="enable-background:new 0 0 186.5 121.7;" xml:space="preserve">
<style type="text/css">
	.st0{fill:#FFFFFF;}
</style>
<g>
	<path class="st0" d="M179.7,62.8h-3.1v7.7c0,0.8,0,1.2,0.4,2.1c0.8,1.9,2.9,2.3,5.2,2.3h4.4V73h-3.9c-1,0-1.9-0.2-2.5-0.8
		c-0.4-0.6-0.6-1-0.6-1.7v-7.7H179.7z"/>
	<path class="st0" d="M162.9,74.8l4.4-10.6c0,0,0.6-1.5,2.1-1.5c1.5,0,2.1,1.5,2.1,1.5l4.6,10.6h-3.1l-1-2.7h-3.7l0.8-2.1h2.1
		l-1.7-4.1l-1.7,4.1l-0.2,0.4l-0.4,1l-0.2,0.6l-1,2.7H162.9z"/>
	<path class="st0" d="M70.9,115.9c0,0.2,0,0.2,0,0.4c0,1-1.2,1.2-2.1,1.2c-1.7,0-6.2-0.8-10.4-1.9c4.8-3.3,5.4-4.1,5.4-4.8v-8.5
		c0-1,0.6-1.9,1.9-1.9c0.6,0,1.5,0.4,2.1,1.5l0.4-0.2c-0.4-0.8-1.5-1.7-2.5-1.7c-2.5,0-6.2,3.5-8.3,3.5c-0.8,0-1.2-0.4-1.5-1.7h-0.4
		c0,1.7,1,2.1,2.5,2.1c0.4,0,0.6,0.2,0.6,0.4v9.9c0,0.4-0.2,0.6-0.8,1l-1.7-0.4c-1,1.2-1.7,2.1-2.7,3.1l0.2,0.2
		c0.6-0.2,1-0.2,1.2-0.2c2.1,0,11.6,2.1,13.7,2.5l-0.2,0.8l0.4,0.2c0.6-2.3,2.7-3.9,2.7-5.2c0-0.2,0-0.2-0.2-0.4h-0.4V115.9z
		 M61.1,103.4c0-0.8,0.4-1.2,1.2-1.7v10.2c0,0.4-0.4,0.8-1.2,1.2V103.4z"/>
	<path class="st0" d="M71.3,105.7c0.2,0,0.2,0,0.4,0.2c0,0,0,0.2,0,0.4v7.9c0,0.2,0,0.2,0,0.4c0,0-0.2,0.2-0.4,0.2v0.2h2.9v-0.2
		c-0.2,0-0.2,0-0.4-0.2c0,0-0.2-0.2-0.2-0.4v-7.9c0-0.2,0-0.2,0.2-0.4c0,0,0.2-0.2,0.4-0.2v-0.2h-2.9V105.7z"/>
	<path class="st0" d="M84.3,105.7c0.2,0,0.2,0,0.4,0.2c0,0,0,0.2,0,0.4v5.6l-5.2-5.4c-0.2-0.2-0.2-0.2-0.2-0.4s0-0.2,0.2-0.4v-0.2
		h-3.1v0.2c0.2,0,0.2,0,0.4,0.2c0,0,0,0.2,0,0.4v7.9c0,0.2,0,0.2,0,0.4c0,0-0.2,0.2-0.4,0.2v0.2h2.7v-0.2c-0.2,0-0.2,0-0.4-0.2
		c0,0,0-0.2,0-0.4v-5.8l5.2,5.4c0.2,0.2,0.4,0.4,0.4,0.4c0,0.2,0,0.2-0.2,0.2v0.2H87v-0.2c-0.2,0-0.2,0-0.4-0.2c0,0,0-0.2,0-0.4
		v-7.9c0-0.2,0-0.2,0-0.4c0,0,0.2-0.2,0.4-0.2v-0.2h-2.7V105.7z"/>
	<path class="st0" d="M97.2,105.9c-0.6-0.2-1.5-0.4-2.7-0.4h-5.2v0.2c0.2,0,0.2,0,0.4,0.2c0,0,0,0.2,0,0.4v7.9c0,0.2,0,0.2,0,0.4
		c0,0-0.2,0.2-0.4,0.2v0.2h5.2c0.8,0,1.7,0,2.1-0.2c0.6-0.2,1-0.4,1.5-0.8c1-0.8,1.5-2.1,1.5-3.7c0-0.8-0.2-1.7-0.4-2.5
		C98.8,107,98.2,106.3,97.2,105.9 M96.4,113c-0.4,0.2-1,0.4-1.9,0.4H92v-6.2h2.5c0.6,0,1,0,1.5,0.2c0.4,0.2,0.6,0.4,1,0.6
		c0.4,0.6,0.6,1.2,0.6,2.3C97.6,111.5,97.2,112.5,96.4,113"/>
	<path class="st0" d="M110.5,113.2c0,0-0.2,0-0.4,0h-5.8v-7c0-0.2,0-0.2,0.2-0.4c0,0,0.2-0.2,0.4-0.2v-0.2H102v0.4
		c0.2,0,0.2,0,0.4,0.2c0,0,0,0.2,0,0.4v7.9c0,0.2,0,0.2,0,0.4c0,0-0.2,0.2-0.4,0.2v0.2h8.3c0.2,0,0.2,0,0.4,0c0,0,0.2,0.4,0.2,0.6
		h0.2V113h-0.2C110.5,113.2,110.5,113.2,110.5,113.2"/>
	<path class="st0" d="M121.2,113.2c0,0-0.2,0-0.4,0h-6v-2.5h3.7c0.2,0,0.2,0,0.4,0.2c0,0,0.2,0.2,0.2,0.4h0.2V109h-0.2
		c0,0.2-0.2,0.2-0.2,0.4c0,0-0.2,0-0.4,0h-3.7v-2.3h5.8c0.2,0,0.2,0,0.4,0c0,0,0.2,0.2,0.2,0.4h0.2v-2.5h-0.2c0,0.2,0,0.2-0.2,0.4
		c0,0-0.2,0-0.4,0h-8.3v0.2c0.2,0,0.2,0,0.4,0.2c0,0,0,0.2,0,0.4v7.9c0,0.2,0,0.2,0,0.4c0,0-0.2,0.2-0.4,0.2v0.2h8.5
		c0.2,0,0.2,0,0.4,0c0,0,0.2,0.4,0.2,0.6h0.2V113h-0.2C121.4,113.2,121.4,113.2,121.2,113.2"/>
	<path class="st0" d="M129.5,105.5v0.2c0.2,0,0.2,0,0.4,0.2l0.2,0.2c0,0,0,0.2-0.2,0.6l-1.7,2.5l-1.7-2.5c-0.2-0.2-0.2-0.4-0.2-0.6
		c0-0.2,0.2-0.4,0.4-0.4v-0.2h-3.7v0.2c0.2,0,0.4,0,0.6,0.2c0.2,0.2,0.4,0.4,0.6,0.8l3.1,4.4v3.1c0,0.2,0,0.2,0,0.4
		c0,0-0.2,0.2-0.4,0.2v0.2h2.9v-0.2c-0.2,0-0.2,0-0.4-0.2c0,0,0-0.2,0-0.4v-3.1l3.1-4.4c0.2-0.4,0.4-0.6,0.6-0.8
		c0.2-0.2,0.4-0.2,0.6-0.2v-0.2H129.5z"/>
	<path class="st0" d="M65.3,26.1L79.4,12c1.7-1.7,3.5,0,3.5,0l3.9,3.9l7-7c-2.5-2.5-4.6-4.6-5.6-5.6c-7-7-14.1,0-14.1,0L56.4,20.7
		c-7,7,0,14.3,0,14.3l16.8,16.8c0,0,0.8,0.8,1.9-0.2c0.4-0.4,0.8-0.8,0.8-2.5c0-1.2,0-8.9,0-8.9L65.3,29.7
		C63.4,27.8,65.3,26.1,65.3,26.1"/>
	<path class="st0" d="M103.2,18.3l-7,7l0.8,0.8c1.7,1.7,0,3.5,0,3.5L86.2,40.4c0,0,0,7.3,0,8.3c0,1.9,0.4,2.5,0.8,2.9
		c1,1,2.1,0.2,2.1,0.2s13.3-13.3,16.8-16.8c7-7,0-14.1,0-14.1S104.9,19.9,103.2,18.3"/>
	<path class="st0" d="M132.6,34c-0.4-0.4-0.8-0.8-2.5-0.8h-8.9l-10.6,10.6c-1.9,1.9-3.5,0-3.5,0l-3.9-3.9l-7,7l5.6,5.6
		c7,7,14.1,0,14.1,0l16.8-16.8C132.8,35.9,133.7,35,132.6,34"/>
	<path class="st0" d="M93.9,30.5L93,29.7c-1.7-1.7,0-3.5,0-3.5l2.1-2.1l7-7l5.2-5.2c1.7-1.7,3.5,0,3.5,0l10.8,10.8c0,0,7.3,0,8.3,0
		c1.9,0,2.5-0.4,2.9-0.8c1-1,0.2-2.1,0.2-2.1S119.6,6.7,116,3.1c-7-7-14.1,0-14.1,0s-3.1,3.1-6.8,6.8c-2.3,2.3-5,5-7,7l-3.7,3.7
		c-7,7,0,14.1,0,14.1l2.5,2.5L93.9,30.5z"/>
	<path class="st0" d="M32.7,74.8h5.4v-2.1h-5c-1.7,0-2.3-1.9-2.3-3.5c-0.2-1.9,0.4-4.1,2.3-4.1h5v-2.3h-5c-0.8,0-1.5,0.2-2.3,0.4
		c-4.1,1.7-3.9,10.2,0.2,11.4C31.7,74.8,32.1,74.8,32.7,74.8"/>
	<path class="st0" d="M0,74.8l4.4-10.6c0,0,0.6-1.5,2.1-1.5s2.1,1.5,2.1,1.5l4.6,10.6h-2.9l-1-2.7H5.4l0.8-2.1h2.1l-1.7-4.1L5,70.1
		l-0.2,0.6l-0.4,1l-0.2,0.6l-1,2.5H0z"/>
	<path class="st0" d="M14.7,62.8h8.7c0,0,3.1,0.2,3.3,3.7c0,0,0.2,2.9-3.1,3.5l3.3,5h-3.3l-3.1-4.8h-1.9l0.8-1.9h1.9
		c0,0,2.3,0,2.3-1.9c0-1.7-2.1-1.7-2.1-1.7h-4.1V75h-2.7V62.8"/>
	<path class="st0" d="M39.6,74.8l4.4-10.6c0,0,0.6-1.5,2.1-1.5s2.1,1.5,2.1,1.5l4.6,10.6h-2.9l-1-2.7H45l0.8-2.1h2.1l-1.7-4.1
		l-1.7,4.1l-0.2,0.4l-0.4,1l-0.4,0.8l-1,2.5H39.6z"/>
	<polygon class="st0" points="152.3,64.9 156.7,64.9 156.7,74.8 159.6,74.8 159.6,64.9 164.1,64.9 164.1,62.8 152.3,62.8 	"/>
	<polygon class="st0" points="138.2,74.8 140.9,74.8 140.9,65.9 146.7,74.8 150.7,74.8 150.7,62.8 147.8,62.8 147.8,71.7 142,62.8 
		138,62.8 	"/>
	<path class="st0" d="M130.6,74.8h5.8v-2.1H131c-0.8,0-1.5-0.4-1.9-1c-0.4-0.6-0.6-1-0.6-1.9h7.9v-2.1h-7.9c0-0.8,0.2-1.5,0.8-2.1
		c0.6-0.6,1.2-0.8,2.1-0.8h5v-2.1H131c-1.2,0-1.9,0.2-2.9,0.6c-3.7,1.9-3.7,8.9,0,10.8C128.9,74.6,129.5,74.8,130.6,74.8"/>
	<polygon class="st0" points="111.1,74.8 114,74.8 114,65.9 119.8,74.8 123.7,74.8 123.7,62.8 120.8,62.8 120.8,71.7 115,62.8 
		111.1,62.8 	"/>
	<polygon class="st0" points="93,64.9 97.4,64.9 97.4,74.8 100.3,74.8 100.3,64.9 104.9,64.9 104.9,62.8 93,62.8 	"/>
	<rect x="106.3" y="62.8" class="st0" width="3.1" height="12"/>
	<polygon class="st0" points="78.7,74.8 81.6,74.8 81.6,65.9 87.5,74.8 91.4,74.8 91.4,62.8 88.5,62.8 88.5,71.7 82.7,62.8 
		78.7,62.8 	"/>
	<path class="st0" d="M77.3,68.8c-0.2-3.9-1.5-6.4-6.6-6.4c-4.8,0-6.6,2.7-6.6,6.2c0,4.8,2.5,6.4,6.6,6.4
		C74.4,75.2,77.5,73.8,77.3,68.8 M70.9,73c-3.3,0-3.7-2.1-3.7-4.4c0-2.1,0.8-4.1,3.5-4.1s3.7,1.9,3.7,4.1C74.4,70.9,73.8,73,70.9,73
		"/>
	<path class="st0" d="M57.6,74.8H63v-2.1h-5c-1.7,0-2.3-1.9-2.3-3.5c-0.2-1.9,0.4-4.1,2.3-4.1h5v-2.3h-5c-0.8,0-1.5,0.2-2.3,0.4
		c-4.1,1.7-3.9,10.2,0.2,11.4C56.6,74.8,57,74.8,57.6,74.8"/>
	<rect y="87.3" class="st0" width="186.5" height="0.6"/>
</g>
</svg>
