<?xml version="1.0" encoding="utf-8"?>
<!-- Generator: Adobe Illustrator 24.3.0, SVG Export Plug-In . SVG Version: 6.00 Build 0)  -->
<svg version="1.1" id="Layer_1" xmlns="http://www.w3.org/2000/svg" xmlns:xlink="http://www.w3.org/1999/xlink" x="0px" y="0px"
	 viewBox="0 0 116 116" style="enable-background:new 0 0 116 116;" xml:space="preserve">
<style type="text/css">
	.st0{fill:#FFFFFF;}
</style>
<g>
	<g>
		<path class="st0" d="M98.6,3.9c5.5,0,10.4,3.3,12.5,8.4c2.1,5.1,0.9,10.9-2.9,14.7c-3.9,3.9-9.7,5-14.7,2.9
			c-5.1-2.1-8.4-7-8.4-12.5C85.1,9.9,91.1,3.9,98.6,3.9 M98.6,34.8c7,0,13.4-4.2,16.1-10.7c2.7-6.5,1.2-14-3.8-19
			c-5-5-12.5-6.5-19-3.8c-6.5,2.7-10.7,9-10.7,16.1C81.2,27,89,34.8,98.6,34.8"/>
		<path class="st0" d="M96.7,23.2c0.5,0,1-0.2,1.4-0.6l9.7-9.7l-2.7-2.7l-8.3,8.3l-4.4-4.4l-2.7,2.7l5.8,5.8
			C95.7,23,96.2,23.2,96.7,23.2"/>
		<path class="st0" d="M112.1,112.1H3.9v-3.9h108.3V112.1z M7.7,77.3h7.7v5.8c0,1.1,0.9,1.9,1.9,1.9h7.7c1.1,0,1.9-0.9,1.9-1.9v-5.8
			h7.7v27.1H7.7V77.3z M19.3,77.3h3.9v3.9h-3.9V77.3z M20.9,50.3h7.2l16.8,20.6l3-2.4l-8.3-10.1c1.2-0.9,2.6-1.5,4-2l8.5,11.9
			l-3.8,22.4c-0.1,0.6,0.1,1.2,0.5,1.7l7.7,7.7c0.8,0.7,2,0.7,2.7,0l7.7-7.7c0.4-0.4,0.6-1.1,0.5-1.7l-3.8-22.4l8.5-11.9
			c1.5,0.4,2.8,1.1,4,2l-8.3,10.1l3,2.4l16.8-20.6H95C83.1,68.6,83.1,68.9,83.1,69.6v3.9h-3.9c-1.1,0-1.9,0.9-1.9,1.9v29H38.7v-29
			c0-1.1-0.9-1.9-1.9-1.9h-3.9v-3.9c0-0.4-0.1-0.7-0.3-1L20.9,50.3z M9.7,46.4c-2.5,0-4.6-1.6-5.5-3.9h17.1c2.5,0,4.6,1.6,5.5,3.9
			H9.7z M55.1,73.5l0.7-3.9h4.4l0.7,3.9H55.1z M61.5,77.3l2.1,12.9L58,95.9l-5.7-5.7l2.1-12.9H61.5z M49.7,54.4l6.9,6.9
			c0.8,0.8,2,0.8,2.7,0l6.9-6.9l2.2,0.7l-7.6,10.6h-5.8l-7.6-10.6L49.7,54.4z M61.7,53.5L58,57.2l-3.7-3.7l0.9-5.5
			c1.9,0.4,3.8,0.4,5.6,0L61.7,53.5z M48.3,34.8V24.4l6-3l13.3,3.3v10.1c0,5.3-4.3,9.7-9.7,9.7C52.7,44.5,48.3,40.1,48.3,34.8
			 M44.5,23.2v1.1l-1.9-1.9v-1.1c0-5.3,4.3-9.7,9.7-9.7h11.6c5.3,0,9.7,4.3,9.7,9.7v1.1l-1.9,1.9v-1.1c0-0.9-0.6-1.7-1.5-1.9
			l-15.5-3.9c-0.4-0.1-0.9-0.1-1.3,0.2l-7.7,3.9C44.9,21.8,44.5,22.5,44.5,23.2 M44.5,32.9h-1.9v-1.9h1.9V32.9z M73.5,32.9h-1.9
			v-1.9h1.9V32.9z M94.7,42.5h17.1c-0.8,2.3-3,3.9-5.5,3.9H89.3C90.1,44.1,92.3,42.5,94.7,42.5 M88.9,77.3v5.8
			c0,1.1,0.9,1.9,1.9,1.9h7.7c1.1,0,1.9-0.9,1.9-1.9v-5.8h7.7v27.1H81.2V77.3H88.9z M92.8,77.3h3.9v3.9h-3.9V77.3z M114.1,104.4
			h-1.9v-29c0-1.1-0.9-1.9-1.9-1.9H87v-3.4c1.2-2.1,8-12.7,12.6-19.8h6.7c5.3,0,9.7-4.3,9.7-9.7c0-1.1-0.9-1.9-1.9-1.9H94.7
			c-5,0-9.2,3.9-9.6,8.9l-6.3,7.7c-2-1.5-4.3-2.5-6.7-3l-5.8-1.9c-0.4-0.1-0.8-0.1-1.2,0l-0.6-3.7c3.7-2.1,6.2-5.7,6.9-9.9h2.1
			c2.1,0,3.9-1.7,3.9-3.9v-1.9c0-1.9-1.3-3.4-3.1-3.8l2.6-2.6c0.4-0.4,0.6-0.9,0.6-1.4v-1.9c0-7.5-6.1-13.5-13.5-13.5H52.2
			c-7.5,0-13.5,6.1-13.5,13.5v1.9c0,0.5,0.2,1,0.6,1.4l2.6,2.6c-1.8,0.4-3.1,1.9-3.1,3.8v1.9c0,2.1,1.7,3.9,3.9,3.9h2.1
			c0.6,4.2,3.2,7.9,6.9,9.9l-0.6,3.7c-0.4-0.1-0.8-0.1-1.2,0l-5.8,1.9c-2.4,0.4-4.8,1.4-6.7,3l-6.3-7.7c-0.4-5-4.6-8.9-9.6-8.9H1.9
			c-1.1,0-1.9,0.9-1.9,1.9c0,5.3,4.3,9.7,9.7,9.7h6.7L29,70.2v3.3H5.8c-1.1,0-1.9,0.9-1.9,1.9v29H1.9c-1.1,0-1.9,0.9-1.9,1.9v7.7
			c0,1.1,0.9,1.9,1.9,1.9h112.1c1.1,0,1.9-0.9,1.9-1.9v-7.7C116,105.3,115.1,104.4,114.1,104.4"/>
		<path class="st0" d="M3.9,5.8c0-1.1,0.9-1.9,1.9-1.9H29c1.1,0,1.9,0.9,1.9,1.9V29c0,1.1-0.9,1.9-1.9,1.9H5.8
			c-1.1,0-1.9-0.9-1.9-1.9V5.8z M5.8,34.8H29c3.2,0,5.8-2.6,5.8-5.8V5.8C34.8,2.6,32.2,0,29,0H5.8C2.6,0,0,2.6,0,5.8V29
			C0,32.2,2.6,34.8,5.8,34.8"/>
	</g>
	<rect x="7.7" y="7.7" class="st0" width="3.9" height="3.9"/>
	<rect x="15.5" y="7.7" class="st0" width="11.6" height="3.9"/>
	<rect x="7.7" y="15.5" class="st0" width="19.3" height="3.9"/>
	<rect x="7.7" y="23.2" class="st0" width="19.3" height="3.9"/>
</g>
</svg>
