<?xml version="1.0" encoding="utf-8"?>
<!-- Generator: Adobe Illustrator 24.3.0, SVG Export Plug-In . SVG Version: 6.00 Build 0)  -->
<svg version="1.1" id="Layer_1" xmlns="http://www.w3.org/2000/svg" xmlns:xlink="http://www.w3.org/1999/xlink" x="0px" y="0px"
	 viewBox="0 0 137 137" style="enable-background:new 0 0 137 137;" xml:space="preserve">
<style type="text/css">
	.st0{fill:#FFFFFF;}
</style>
<g>
	<g>
		<path class="st0" d="M93.3,57.9c-0.5,2.5-2.3,4.6-4.7,5.5c-0.9,0.3-1.5,1.3-1.5,2.2l1.7,38.5c0.1,0.8-0.2,1.5-0.7,2.1
			c-1.4,1.4-3.6,1.4-5,0c-0.5-0.6-0.8-1.4-0.7-2.2l1.7-38.4c0-1-0.6-1.9-1.5-2.2c-2.4-0.8-4.2-2.9-4.7-5.5c-0.6-3.5-0.4-7,0.6-10.4
			l1.5-4.8c1.1-3.1,4.5-4.6,7.6-3.5c1.6,0.6,2.9,1.9,3.5,3.5l1.5,4.8C93.7,50.9,93.9,54.5,93.3,57.9 M97.8,58.7
			c0.7-4.2,0.5-8.5-0.8-12.6l-1.5-4.8c-1.9-5.5-7.8-8.4-13.3-6.6c-3.1,1-5.5,3.5-6.6,6.6l-1.5,4.8c-1.2,4.1-1.5,8.4-0.8,12.6
			c0.7,3.5,2.9,6.6,6.1,8.2l-1.6,36.7c-0.2,2,0.4,4.1,1.8,5.6c3,3.3,8,3.5,11.3,0.5c0.2-0.2,0.3-0.3,0.5-0.5c1.4-1.5,2-3.5,1.8-5.5
			L91.7,67C94.9,65.3,97.1,62.3,97.8,58.7"/>
		<path class="st0" d="M63.3,58.7c0.4-0.4,0.7-1,0.7-1.6V36.5c0-1.3-1-2.3-2.3-2.3c-1.3,0-2.3,1-2.3,2.3v19.6l-6.2,6.2
			c-0.5,0.5-0.7,1.1-0.7,1.7l2,40c0,0.9-0.3,1.7-0.9,2.3c-1.3,1.3-3.3,1.3-4.5,0c0,0,0,0,0,0c-0.6-0.6-0.9-1.5-0.9-2.3l2-40
			c0-0.6-0.2-1.3-0.7-1.7l-6.2-6.2V36.5c0-1.3-1-2.3-2.3-2.3c-1.3,0-2.3,1-2.3,2.3v20.5c0,0.6,0.2,1.2,0.7,1.6l6.1,6.1l-1.9,39
			c-0.2,4.3,3.1,7.9,7.3,8.1c4.3,0.2,7.9-3.1,8.1-7.3c0-0.3,0-0.5,0-0.7l-1.9-39L63.3,58.7z"/>
		<path class="st0" d="M47.9,57.1c1.3,0,2.3-1,2.3-2.3V36.5c0-1.3-1-2.3-2.3-2.3c-1.3,0-2.3,1-2.3,2.3v18.3
			C45.7,56.1,46.7,57.1,47.9,57.1"/>
		<path class="st0" d="M52.5,36.5v18.3c0,1.3,1,2.3,2.3,2.3c1.3,0,2.3-1,2.3-2.3V36.5c0-1.3-1-2.3-2.3-2.3
			C53.5,34.3,52.5,35.3,52.5,36.5"/>
		<path class="st0" d="M68.5,132.4c-35.3,0-63.9-28.6-63.9-63.9S33.2,4.6,68.5,4.6s63.9,28.6,63.9,63.9
			C132.4,103.8,103.8,132.4,68.5,132.4 M68.5,0C30.7,0,0,30.7,0,68.5S30.7,137,68.5,137S137,106.3,137,68.5C137,30.7,106.3,0,68.5,0
			"/>
		<path class="st0" d="M73.3,109.3c-3.2,0.4-6.5,0.4-9.7,0c-1.3-0.1-2.4,0.7-2.5,2c-0.1,1.3,0.7,2.4,2,2.5c3.6,0.4,7.2,0.4,10.7,0
			c1.3-0.1,2.2-1.2,2.1-2.5C75.8,110.1,74.7,109.2,73.3,109.3C73.4,109.3,73.4,109.3,73.3,109.3L73.3,109.3z"/>
		<path class="st0" d="M100.2,38.8c-1,0.8-1.1,2.3-0.3,3.2c13.8,16.3,12.7,40.5-2.4,55.6c-0.9,0.9-0.9,2.3,0,3.2
			c0.9,0.9,2.3,0.9,3.2,0c16.8-16.8,18-43.6,2.7-61.8C102.6,38.1,101.2,38,100.2,38.8C100.2,38.8,100.2,38.8,100.2,38.8"/>
		<path class="st0" d="M53.2,30.2c0.3,0,0.5-0.1,0.8-0.1c7.7-2.9,16.2-3.4,24.2-1.5c1.2,0.3,2.5-0.5,2.8-1.7
			c0.3-1.2-0.5-2.5-1.7-2.8C70.3,22,61,22.5,52.4,25.8c-1.2,0.4-1.8,1.8-1.3,2.9C51.4,29.6,52.2,30.2,53.2,30.2L53.2,30.2z"/>
		<path class="st0" d="M27.4,68.5c0-8.7,2.7-17.2,7.9-24.2c0.8-1,0.6-2.4-0.5-3.2c-1-0.8-2.4-0.6-3.2,0.5c0,0,0,0,0,0.1
			c-13.2,18.1-11.3,43.2,4.6,59.1c0.9,0.9,2.3,0.9,3.2,0c0.9-0.9,0.9-2.3,0-3.2C31.7,89.8,27.4,79.4,27.4,68.5"/>
	</g>
</g>
</svg>
