<?xml version="1.0" encoding="utf-8"?>
<!-- Generator: Adobe Illustrator 24.3.0, SVG Export Plug-In . SVG Version: 6.00 Build 0)  -->
<svg version="1.1" id="Layer_1" xmlns="http://www.w3.org/2000/svg" xmlns:xlink="http://www.w3.org/1999/xlink" x="0px" y="0px"
	 viewBox="0 0 693 722.5" style="enable-background:new 0 0 693 722.5;" xml:space="preserve">
<style type="text/css">
	.st0{opacity:0.2;}
	.st1{fill:#1D1D1B;}
</style>
<g>
	<g>
		<g>
			<g class="st0">
				<g>
					<path class="st1" d="M656.8,484.3L656.8,484.3c-0.9-2.2,0.2-4.7,2.4-5.6l27.5-11.3c2.2-0.9,4.7,0.2,5.7,2.4
						c0.9,2.2-0.2,4.7-2.4,5.7l-27.5,11.3C660.3,487.6,657.7,486.5,656.8,484.3"/>
				</g>
			</g>
			<g class="st0">
				<g>
					<path class="st1" d="M656.8,460.7L656.8,460.7c-0.9-2.2,0.2-4.7,2.4-5.7l27.5-11.3c2.2-0.9,4.7,0.2,5.7,2.4
						c0.9,2.2-0.2,4.7-2.4,5.7l-27.5,11.3C660.3,464,657.7,462.9,656.8,460.7"/>
				</g>
			</g>
			<g class="st0">
				<g>
					<path class="st1" d="M656.8,437.2L656.8,437.2c-0.9-2.2,0.2-4.7,2.4-5.6l27.5-11.3c2.2-0.9,4.7,0.2,5.7,2.4
						c0.9,2.2-0.2,4.7-2.4,5.6l-27.5,11.3C660.3,440.4,657.7,439.4,656.8,437.2"/>
				</g>
			</g>
			<g class="st0">
				<g>
					<path class="st1" d="M656.8,413.6L656.8,413.6c-0.9-2.2,0.2-4.7,2.4-5.6l27.5-11.3c2.2-0.9,4.7,0.2,5.7,2.4s-0.2,4.7-2.4,5.7
						L662.5,416C660.3,416.9,657.7,415.8,656.8,413.6"/>
				</g>
			</g>
			<g class="st0">
				<g>
					<path class="st1" d="M656.9,390.2L656.9,390.2c-1-2.2,0.1-4.8,2.2-5.7l27.2-11.9c2.2-1,4.8,0.1,5.7,2.2c1,2.2-0.1,4.8-2.2,5.7
						l-27.2,11.9C660.5,393.4,657.9,392.4,656.9,390.2"/>
				</g>
			</g>
			<g class="st0">
				<g>
					<path class="st1" d="M655.9,368.4L655.9,368.4c-1.2-2-0.6-4.7,1.4-6l25.4-15.5c2-1.2,4.7-0.6,6,1.4c1.2,2,0.6,4.7-1.4,6
						l-25.4,15.5C659.9,371,657.2,370.4,655.9,368.4"/>
				</g>
			</g>
			<g class="st0">
				<g>
					<path class="st1" d="M652.1,347.3L652.1,347.3c-1.5-1.8-1.2-4.6,0.6-6.1l23-18.8c1.8-1.5,4.6-1.2,6.1,0.6
						c1.5,1.8,1.2,4.6-0.6,6.1l-23,18.8C656.3,349.4,653.6,349.1,652.1,347.3"/>
				</g>
			</g>
			<g class="st0">
				<g>
					<path class="st1" d="M645.5,327.2L645.5,327.2c-1.7-1.6-1.8-4.4-0.2-6.1l20.4-21.6c1.6-1.7,4.4-1.8,6.1-0.2
						c1.7,1.6,1.8,4.4,0.2,6.1L651.7,327C650,328.7,647.3,328.8,645.5,327.2"/>
				</g>
			</g>
			<g class="st0">
				<g>
					<path class="st1" d="M636.5,308.3L636.5,308.3c-1.9-1.4-2.4-4.1-1-6l17.4-24.1c1.4-1.9,4.1-2.4,6-1c1.9,1.4,2.4,4.1,1,6
						l-17.4,24.1C641.1,309.3,638.4,309.7,636.5,308.3"/>
				</g>
			</g>
			<g class="st0">
				<g>
					<path class="st1" d="M625.1,290.8L625.1,290.8c-2.1-1.1-2.9-3.8-1.7-5.9l14.1-26.1c1.1-2.1,3.8-2.9,5.9-1.7
						c2.1,1.1,2.9,3.8,1.7,5.9L631,289.1C629.8,291.2,627.2,291.9,625.1,290.8"/>
				</g>
			</g>
			<g class="st0">
				<g>
					<path class="st1" d="M611.6,274.9L611.6,274.9c-2.2-0.9-3.3-3.4-2.5-5.6l10.7-27.7c0.9-2.2,3.4-3.3,5.6-2.5
						c2.2,0.9,3.3,3.4,2.5,5.6l-10.7,27.7C616.3,274.7,613.8,275.8,611.6,274.9"/>
				</g>
			</g>
			<g class="st0">
				<g>
					<path class="st1" d="M596.2,260.9L596.2,260.9c-2.3-0.6-3.7-2.9-3.2-5.2l7.1-28.9c0.6-2.3,2.9-3.7,5.2-3.2
						c2.3,0.6,3.7,2.9,3.2,5.2l-7.1,28.9C600.8,260.1,598.5,261.5,596.2,260.9"/>
				</g>
			</g>
			<g class="st0">
				<g>
					<path class="st1" d="M579,249L579,249c-2.4-0.3-4.1-2.4-3.8-4.8l3.3-29.5c0.3-2.4,2.4-4.1,4.8-3.8c2.4,0.3,4.1,2.4,3.8,4.8
						l-3.3,29.5C583.6,247.5,581.4,249.2,579,249"/>
				</g>
			</g>
			<g class="st0">
				<g>
					<path class="st1" d="M560.4,239.3L560.4,239.3c-2.4,0-4.4-1.9-4.4-4.2l-0.6-29.7c0-2.4,1.9-4.4,4.2-4.4s4.4,1.9,4.4,4.2
						l0.6,29.7C564.7,237.2,562.8,239.2,560.4,239.3"/>
				</g>
			</g>
			<g class="st0">
				<g>
					<path class="st1" d="M540.4,232L540.4,232c-2.4,0.4-4.6-1.3-4.9-3.6l-4.5-29.4c-0.4-2.4,1.3-4.6,3.6-4.9
						c2.4-0.4,4.6,1.3,4.9,3.6l4.5,29.4C544.4,229.4,542.8,231.6,540.4,232"/>
				</g>
			</g>
			<g class="st0">
				<g>
					<path class="st1" d="M519.3,227.4L519.3,227.4c-2.3,0.7-4.7-0.6-5.4-2.9l-8.5-28.5c-0.7-2.3,0.6-4.7,2.9-5.4
						c2.3-0.7,4.7,0.6,5.4,2.9l8.5,28.5C522.9,224.3,521.6,226.8,519.3,227.4"/>
				</g>
			</g>
			<g class="st0">
				<g>
					<path class="st1" d="M496.9,225.9L496.9,225.9c-2.2,0.9-4.7-0.2-5.7-2.4L480,196.1c-0.9-2.2,0.2-4.7,2.4-5.7
						c2.2-0.9,4.7,0.2,5.7,2.4l11.3,27.5C500.2,222.5,499.1,225,496.9,225.9"/>
				</g>
			</g>
			<g class="st0">
				<g>
					<path class="st1" d="M473.3,225.9L473.3,225.9c-2.2,0.9-4.7-0.2-5.7-2.4l-11.3-27.5c-0.9-2.2,0.2-4.7,2.4-5.7
						c2.2-0.9,4.7,0.2,5.6,2.4l11.3,27.5C476.6,222.5,475.5,225,473.3,225.9"/>
				</g>
			</g>
			<g class="st0">
				<g>
					<path class="st1" d="M449.7,225.9L449.7,225.9c-2.2,0.9-4.7-0.2-5.7-2.4l-11.3-27.5c-0.9-2.2,0.2-4.7,2.4-5.7
						c2.2-0.9,4.7,0.2,5.7,2.4l11.3,27.5C453,222.5,452,225,449.7,225.9"/>
				</g>
			</g>
			<g class="st0">
				<g>
					<path class="st1" d="M656.8,719.8L656.8,719.8c-0.9-2.2,0.2-4.7,2.4-5.7l27.5-11.3c2.2-0.9,4.7,0.2,5.7,2.4
						c0.9,2.2-0.2,4.7-2.4,5.7l-27.5,11.3C660.2,723.1,657.7,722,656.8,719.8"/>
				</g>
			</g>
			<g class="st0">
				<g>
					<path class="st1" d="M656.8,696.3L656.8,696.3c-0.9-2.2,0.2-4.7,2.4-5.7l27.5-11.3c2.2-0.9,4.7,0.2,5.7,2.4
						c0.9,2.2-0.2,4.7-2.4,5.7l-27.5,11.3C660.2,699.5,657.7,698.5,656.8,696.3"/>
				</g>
			</g>
			<g class="st0">
				<g>
					<path class="st1" d="M656.8,672.7L656.8,672.7c-0.9-2.2,0.2-4.7,2.4-5.7l27.5-11.3c2.2-0.9,4.7,0.2,5.7,2.4s-0.2,4.7-2.4,5.7
						l-27.5,11.3C660.2,676,657.7,674.9,656.8,672.7"/>
				</g>
			</g>
			<g class="st0">
				<g>
					<path class="st1" d="M656.8,649.1L656.8,649.1c-0.9-2.2,0.2-4.7,2.4-5.7l27.5-11.3c2.2-0.9,4.7,0.2,5.7,2.4
						c0.9,2.2-0.2,4.7-2.4,5.7l-27.5,11.3C660.2,652.4,657.7,651.3,656.8,649.1"/>
				</g>
			</g>
			<g class="st0">
				<g>
					<path class="st1" d="M656.8,625.5L656.8,625.5c-0.9-2.2,0.2-4.7,2.4-5.7l27.5-11.3c2.2-0.9,4.7,0.2,5.7,2.4
						c0.9,2.2-0.2,4.7-2.4,5.6l-27.5,11.3C660.2,628.8,657.7,627.8,656.8,625.5"/>
				</g>
			</g>
			<g class="st0">
				<g>
					<path class="st1" d="M656.8,602L656.8,602c-0.9-2.2,0.2-4.7,2.4-5.7l27.5-11.3c2.2-0.9,4.7,0.2,5.7,2.4s-0.2,4.7-2.4,5.7
						l-27.5,11.3C660.2,605.3,657.7,604.2,656.8,602"/>
				</g>
			</g>
			<g class="st0">
				<g>
					<path class="st1" d="M656.8,578.4L656.8,578.4c-0.9-2.2,0.2-4.7,2.4-5.7l27.5-11.3c2.2-0.9,4.7,0.2,5.7,2.4
						c0.9,2.2-0.2,4.7-2.4,5.7l-27.5,11.3C660.2,581.7,657.7,580.6,656.8,578.4"/>
				</g>
			</g>
			<g class="st0">
				<g>
					<path class="st1" d="M656.8,554.8L656.8,554.8c-0.9-2.2,0.2-4.7,2.4-5.6l27.5-11.3c2.2-0.9,4.7,0.2,5.7,2.4s-0.2,4.7-2.4,5.7
						l-27.5,11.3C660.2,558.1,657.7,557,656.8,554.8"/>
				</g>
			</g>
			<g class="st0">
				<g>
					<path class="st1" d="M656.8,531.3L656.8,531.3c-0.9-2.2,0.2-4.7,2.4-5.6l27.5-11.3c2.2-0.9,4.7,0.2,5.7,2.4
						c0.9,2.2-0.2,4.7-2.4,5.6l-27.5,11.3C660.2,534.5,657.7,533.5,656.8,531.3"/>
				</g>
			</g>
			<g class="st0">
				<g>
					<path class="st1" d="M656.8,507.7L656.8,507.7c-0.9-2.2,0.2-4.7,2.4-5.6l27.5-11.3c2.2-0.9,4.7,0.2,5.7,2.4
						c0.9,2.2-0.2,4.7-2.4,5.7l-27.5,11.3C660.2,511,657.7,509.9,656.8,507.7"/>
				</g>
			</g>
			<g class="st0">
				<g>
					<path class="st1" d="M36.2,2.7L36.2,2.7c0.9,2.2-0.2,4.7-2.4,5.6L6.3,19.6c-2.2,0.9-4.7-0.2-5.7-2.4s0.2-4.7,2.4-5.7L30.5,0.3
						C32.7-0.6,35.3,0.5,36.2,2.7"/>
				</g>
			</g>
			<g class="st0">
				<g>
					<path class="st1" d="M36.1,26L36.1,26c1,2.2-0.1,4.8-2.2,5.7L6.6,43.6c-2.2,1-4.8-0.1-5.7-2.2c-1-2.2,0.1-4.8,2.2-5.7
						l27.2-11.9C32.5,22.9,35.1,23.9,36.1,26"/>
				</g>
			</g>
			<g class="st0">
				<g>
					<path class="st1" d="M37.1,47.9L37.1,47.9c1.2,2,0.6,4.7-1.4,6L10.3,69.4c-2,1.2-4.7,0.6-6-1.4c-1.2-2-0.6-4.7,1.4-6l25.4-15.5
						C33.1,45.2,35.8,45.9,37.1,47.9"/>
				</g>
			</g>
			<g class="st0">
				<g>
					<path class="st1" d="M40.9,69L40.9,69c1.5,1.8,1.2,4.6-0.6,6.1l-23,18.8c-1.8,1.5-4.6,1.2-6.1-0.6c-1.5-1.8-1.2-4.6,0.6-6.1
						l23-18.8C36.7,66.9,39.4,67.2,40.9,69"/>
				</g>
			</g>
			<g class="st0">
				<g>
					<path class="st1" d="M47.5,89.1L47.5,89.1c1.7,1.6,1.8,4.4,0.2,6.1l-20.4,21.6c-1.6,1.7-4.4,1.8-6.1,0.2
						c-1.7-1.6-1.8-4.4-0.2-6.1l20.4-21.6C43,87.5,45.7,87.5,47.5,89.1"/>
				</g>
			</g>
			<g class="st0">
				<g>
					<path class="st1" d="M56.5,108L56.5,108c1.9,1.4,2.4,4.1,1,6l-17.4,24.1c-1.4,1.9-4.1,2.4-6,1c-1.9-1.4-2.4-4.1-1-6L50.5,109
						C51.9,107,54.6,106.6,56.5,108"/>
				</g>
			</g>
			<g class="st0">
				<g>
					<path class="st1" d="M67.9,125.5L67.9,125.5c2.1,1.1,2.9,3.8,1.7,5.9l-14.1,26.1c-1.1,2.1-3.8,2.9-5.9,1.7
						c-2.1-1.1-2.9-3.8-1.7-5.9L62,127.2C63.2,125.1,65.8,124.3,67.9,125.5"/>
				</g>
			</g>
			<g class="st0">
				<g>
					<path class="st1" d="M81.4,141.3L81.4,141.3c2.2,0.9,3.3,3.4,2.5,5.6l-10.7,27.7c-0.9,2.2-3.4,3.3-5.6,2.5
						c-2.2-0.9-3.3-3.4-2.5-5.6l10.7-27.7C76.7,141.6,79.2,140.5,81.4,141.3"/>
				</g>
			</g>
			<g class="st0">
				<g>
					<path class="st1" d="M96.8,155.4L96.8,155.4c2.3,0.6,3.7,2.9,3.2,5.2l-7.1,28.9c-0.6,2.3-2.9,3.7-5.2,3.2
						c-2.3-0.6-3.7-2.9-3.2-5.2l7.1-28.9C92.2,156.2,94.5,154.8,96.8,155.4"/>
				</g>
			</g>
			<g class="st0">
				<g>
					<path class="st1" d="M114,167.3L114,167.3c2.4,0.3,4.1,2.4,3.8,4.8l-3.3,29.5c-0.3,2.4-2.4,4.1-4.8,3.8
						c-2.4-0.3-4.1-2.4-3.8-4.8l3.3-29.5C109.4,168.8,111.6,167.1,114,167.3"/>
				</g>
			</g>
			<g class="st0">
				<g>
					<path class="st1" d="M132.6,177L132.6,177c2.4,0,4.4,1.9,4.4,4.2l0.6,29.7c0,2.4-1.9,4.4-4.2,4.4c-2.4,0-4.4-1.9-4.4-4.2
						l-0.6-29.7C128.3,179.1,130.2,177.1,132.6,177"/>
				</g>
			</g>
			<g class="st0">
				<g>
					<path class="st1" d="M152.6,184.3L152.6,184.3c2.4-0.4,4.6,1.3,4.9,3.6l4.5,29.4c0.4,2.4-1.3,4.6-3.6,4.9
						c-2.4,0.4-4.6-1.3-4.9-3.6l-4.5-29.4C148.6,186.9,150.2,184.6,152.6,184.3"/>
				</g>
			</g>
			<g class="st0">
				<g>
					<path class="st1" d="M173.7,188.9L173.7,188.9c2.3-0.7,4.7,0.6,5.4,2.9l8.5,28.5c0.7,2.3-0.6,4.7-2.9,5.4
						c-2.3,0.7-4.7-0.6-5.4-2.9l-8.5-28.5C170.1,192,171.4,189.5,173.7,188.9"/>
				</g>
			</g>
			<g class="st0">
				<g>
					<path class="st1" d="M196.1,190.4L196.1,190.4c2.2-0.9,4.7,0.2,5.7,2.4l11.3,27.5c0.9,2.2-0.2,4.7-2.4,5.7s-4.7-0.2-5.7-2.4
						L193.8,196C192.8,193.8,193.9,191.3,196.1,190.4"/>
				</g>
			</g>
			<g class="st0">
				<g>
					<path class="st1" d="M411.5,190.4L411.5,190.4c2.2-0.9,4.7,0.2,5.6,2.4l11.3,27.5c0.9,2.2-0.2,4.7-2.4,5.7
						c-2.2,0.9-4.7-0.2-5.7-2.4L409.2,196C408.2,193.8,409.3,191.3,411.5,190.4"/>
					<path class="st1" d="M387.8,190.4L387.8,190.4c2.2-0.9,4.7,0.2,5.6,2.4l11.3,27.5c0.9,2.2-0.2,4.7-2.4,5.7
						c-2.2,0.9-4.7-0.2-5.7-2.4L385.5,196C384.6,193.8,385.6,191.3,387.8,190.4"/>
				</g>
			</g>
			<g class="st0">
				<g>
					<path class="st1" d="M363.7,190.4L363.7,190.4c2.2-0.9,4.7,0.2,5.6,2.4l11.3,27.5c0.9,2.2-0.2,4.7-2.4,5.7
						c-2.2,0.9-4.7-0.2-5.7-2.4L361.3,196C360.4,193.8,361.4,191.3,363.7,190.4"/>
					<path class="st1" d="M339.6,190.4L339.6,190.4c2.2-0.9,4.7,0.2,5.6,2.4l11.3,27.5c0.9,2.2-0.2,4.7-2.4,5.7
						c-2.2,0.9-4.7-0.2-5.7-2.4L337.2,196C336.3,193.8,337.4,191.3,339.6,190.4"/>
					<path class="st1" d="M315.9,190.4L315.9,190.4c2.2-0.9,4.7,0.2,5.6,2.4l11.3,27.5c0.9,2.2-0.2,4.7-2.4,5.7
						c-2.2,0.9-4.7-0.2-5.7-2.4L313.5,196C312.6,193.8,313.7,191.3,315.9,190.4"/>
				</g>
			</g>
			<g class="st0">
				<g>
					<path class="st1" d="M291.7,190.4L291.7,190.4c2.2-0.9,4.7,0.2,5.6,2.4l11.3,27.5c0.9,2.2-0.2,4.7-2.4,5.7
						c-2.2,0.9-4.7-0.2-5.7-2.4L289.4,196C288.5,193.8,289.5,191.3,291.7,190.4"/>
					<path class="st1" d="M267.7,190.4L267.7,190.4c2.2-0.9,4.7,0.2,5.6,2.4l11.3,27.5c0.9,2.2-0.2,4.7-2.4,5.7
						c-2.2,0.9-4.7-0.2-5.7-2.4L265.3,196C264.4,193.8,265.5,191.3,267.7,190.4"/>
				</g>
			</g>
			<g class="st0">
				<g>
					<path class="st1" d="M243.7,190.4L243.7,190.4c2.2-0.9,4.7,0.2,5.6,2.4l11.3,27.5c0.9,2.2-0.2,4.7-2.4,5.7
						c-2.2,0.9-4.7-0.2-5.7-2.4L241.3,196C240.4,193.8,241.5,191.3,243.7,190.4"/>
					<path class="st1" d="M219.6,190.4L219.6,190.4c2.2-0.9,4.7,0.2,5.6,2.4l11.3,27.5c0.9,2.2-0.2,4.7-2.4,5.7s-4.7-0.2-5.7-2.4
						L217.3,196C216.4,193.8,217.4,191.3,219.6,190.4"/>
				</g>
			</g>
		</g>
	</g>
</g>
</svg>
