<?xml version="1.0" encoding="utf-8"?>
<!-- Generator: Adobe Illustrator 23.0.3, SVG Export Plug-In . SVG Version: 6.00 Build 0)  -->
<svg version="1.1" id="Capa_1" xmlns="http://www.w3.org/2000/svg" xmlns:xlink="http://www.w3.org/1999/xlink" x="0px" y="0px"
	 viewBox="0 0 44.7 54.53" style="enable-background:new 0 0 44.7 54.53;" xml:space="preserve">
<style type="text/css">
	.st0{fill:#001E61;}
</style>
<path id="XMLID_6_" class="st0" d="M29.83,24.61l-7.5,7.49l-7.49-7.49h5.02l2.48,2.44l2.39-2.44L29.83,24.61z M31.91,8.43
	c-0.55-4.83-4.64-8.58-9.62-8.58c-4.97,0-9.06,3.74-9.62,8.56c-0.68,0.02-1.22,0.57-1.22,1.26c0,0.7,0.57,1.26,1.26,1.26h19.06
	c0.7,0,1.26-0.57,1.26-1.26C33.04,9.01,32.54,8.49,31.91,8.43z M12.84,14.08c1.05,4.23,4.86,7.37,9.41,7.37s8.36-3.14,9.41-7.37
	H12.84z M33.91,25.01L22.33,36.43l-11.6-11.42L0,32.24l4.48,22.29h35.74l4.48-22.29L33.91,25.01z"/>
</svg>
