<?xml version="1.0" encoding="utf-8"?>
<!-- Generator: Adobe Illustrator 23.0.3, SVG Export Plug-In . SVG Version: 6.00 Build 0)  -->
<svg version="1.1" id="Capa_1" xmlns="http://www.w3.org/2000/svg" xmlns:xlink="http://www.w3.org/1999/xlink" x="0px" y="0px"
	 viewBox="0 0 36 44.01" style="enable-background:new 0 0 36 44.01;" xml:space="preserve">
<style type="text/css">
	.st0{fill:#001E61;}
</style>
<path id="XMLID_80_" class="st0" d="M24.02,19.91l-6.04,6.03l-6.03-6.03h4.05l1.99,1.96l1.92-1.96L24.02,19.91z M25.7,6.88
	c-0.44-3.89-3.74-6.91-7.75-6.91c-4,0-7.29,3.01-7.74,6.89C9.66,6.89,9.22,7.33,9.22,7.88c0,0.56,0.46,1.02,1.02,1.02h15.35
	c0.56,0,1.02-0.46,1.02-1.02C26.61,7.35,26.21,6.94,25.7,6.88z M10.34,11.43c0.84,3.41,3.91,5.94,7.58,5.94s6.73-2.53,7.58-5.94
	H10.34z M27.31,20.24l-9.32,9.19l-9.34-9.19L0,26.06l3.61,17.95H32.4L36,26.06L27.31,20.24z"/>
</svg>
