<?xml version="1.0" encoding="utf-8"?>
<!-- Generator: Adobe Illustrator 23.0.3, SVG Export Plug-In . SVG Version: 6.00 Build 0)  -->
<svg version="1.1" id="Capa_1" xmlns="http://www.w3.org/2000/svg" xmlns:xlink="http://www.w3.org/1999/xlink" x="0px" y="0px"
	 viewBox="0 0 57.26 31.93" style="enable-background:new 0 0 57.26 31.93;" xml:space="preserve">
<style type="text/css">
	.st0{fill:#001E61;}
</style>
<path id="XMLID_86_" class="st0" d="M54.24,25.67C53.06,16.11,45.85,6.9,36.3,3.46V0h-3.32v11h-2.91V0h-3.46v11h-2.9V0h-3.32v3.46
	C11.2,7.07,4.4,16.3,3.24,25.65C1.44,25.7,0,27.08,0,28.78c0,1.74,1.5,3.15,3.35,3.15H53.9c1.85,0,3.35-1.41,3.35-3.15
	C57.26,27.16,55.93,25.83,54.24,25.67z M28.44,22.01l-6.09-6.06h4.08l1.98,1.86l1.98-1.85l4.13,0L28.44,22.01z"/>
</svg>
