<?xml version="1.0" encoding="utf-8"?>
<!-- Generator: Adobe Illustrator 23.0.3, SVG Export Plug-In . SVG Version: 6.00 Build 0)  -->
<svg version="1.1" id="Capa_1" xmlns="http://www.w3.org/2000/svg" xmlns:xlink="http://www.w3.org/1999/xlink" x="0px" y="0px"
	 viewBox="0 0 58.49 48.49" style="enable-background:new 0 0 58.49 48.49;" xml:space="preserve">
<style type="text/css">
	.st0{fill:#001E61;}
</style>
<g>
	<g>
		<path class="st0" d="M23.64,20.31c0.95,0.46,1.96,0.7,2.98,0.85c0.8,0.13,0.83,0.17,0.84,1c0,0.38,0.01,0.76,0.01,1.14
			c0,0.48,0.24,0.76,0.72,0.77c0.56,0.01,1.12,0.01,1.68,0c0.46-0.01,0.7-0.26,0.7-0.72c0-0.52,0.02-1.03,0-1.56
			c-0.02-0.53,0.2-0.79,0.71-0.94c1.16-0.32,2.16-0.95,2.93-1.87c2.12-2.58,1.31-6.36-1.7-8.03c-0.95-0.53-1.94-0.92-2.94-1.33
			c-0.58-0.24-1.13-0.52-1.61-0.91c-0.96-0.77-0.78-2,0.35-2.5c0.31-0.13,0.65-0.18,1-0.2c1.3-0.07,2.53,0.17,3.72,0.73
			C33.6,7.02,33.79,6.93,34,6.31c0.2-0.65,0.38-1.3,0.58-1.96c0.13-0.43-0.02-0.73-0.44-0.91c-0.76-0.34-1.54-0.58-2.34-0.7
			c-1.07-0.17-1.07-0.17-1.07-1.24C30.71,0,30.71,0,29.21,0h-0.66c-0.71,0.02-0.83,0.14-0.84,0.85c-0.01,0.32,0,0.64,0,0.96
			c0,0.95-0.01,0.94-0.91,1.26c-2.18,0.79-3.54,2.28-3.68,4.67c-0.13,2.11,0.97,3.54,2.7,4.57c1.07,0.64,2.26,1.02,3.38,1.51
			c0.44,0.19,0.86,0.42,1.24,0.72c1.09,0.9,0.89,2.4-0.41,2.96c-0.7,0.3-1.42,0.37-2.17,0.29c-1.15-0.14-2.27-0.44-3.31-1
			c-0.61-0.32-0.79-0.24-1,0.43c-0.18,0.58-0.34,1.15-0.49,1.73C22.82,19.76,22.89,19.95,23.64,20.31L23.64,20.31z M23.64,20.31"/>
	</g>
	<path class="st0" d="M3.72,36.96L14.6,26.08l13.76,13.76l24.55-24.55l4.37,4.37l1.21-13.62L44.82,7.57l4.46,4.46L29.1,32.21
		L14.78,17.9L0,32.87C0,32.87,3.72,37.33,3.72,36.96z"/>
	<polygon class="st0" points="5.77,48.49 5.77,39.93 14.78,30.91 14.78,48.51 	"/>
	<polygon class="st0" points="25.76,48.49 25.76,42.16 18.41,34.82 18.41,48.51 	"/>
	<polygon class="st0" points="50.12,48.49 50.12,23.38 41.1,32.03 41.1,48.51 	"/>
	<polygon class="st0" points="30.13,48.49 30.13,42.16 37.47,34.82 37.47,48.51 	"/>
</g>
</svg>
