<?xml version="1.0" encoding="utf-8"?>
<!-- Generator: Adobe Illustrator 23.0.3, SVG Export Plug-In . SVG Version: 6.00 Build 0)  -->
<svg version="1.1" id="Capa_1" xmlns="http://www.w3.org/2000/svg" xmlns:xlink="http://www.w3.org/1999/xlink" x="0px" y="0px"
	 viewBox="0 0 58.95 64.36" style="enable-background:new 0 0 58.95 64.36;" xml:space="preserve">
<style type="text/css">
	.st0{fill:#001E61;}
</style>
<g>
	<g>
		<path class="st0" d="M14.66,54.3c-2.9,0-5.24-2.35-5.24-5.24s2.35-5.24,5.24-5.24s5.24,2.35,5.24,5.24S17.55,54.3,14.66,54.3
			 M29.31,52.63v-5.85l-3.96-0.26c-0.22-0.75-0.52-1.46-0.88-2.13l2.62-2.98l-4.14-4.14l-2.98,2.62c-0.67-0.36-1.39-0.66-2.14-0.88
			l-0.26-3.96h-5.85l-0.26,3.96c-0.75,0.22-1.46,0.52-2.14,0.88l-2.98-2.62l-4.14,4.14l2.62,2.98c-0.36,0.67-0.66,1.39-0.88,2.13
			L0,46.78v5.85l3.96,0.25c0.22,0.75,0.52,1.46,0.88,2.14L2.22,58l4.14,4.14l2.98-2.62c0.67,0.37,1.39,0.66,2.13,0.88l0.26,3.96
			h5.85l0.26-3.96c0.75-0.22,1.46-0.52,2.14-0.88l2.98,2.62L27.09,58l-2.62-2.98c0.36-0.67,0.66-1.39,0.88-2.14L29.31,52.63z"/>
		<rect x="1.42" y="24.5" class="st0" width="2.11" height="2.12"/>
		<rect x="1.42" y="20.26" class="st0" width="2.11" height="2.12"/>
		<rect x="1.42" y="28.7" class="st0" width="2.11" height="2.12"/>
		<rect x="1.42" y="32.93" class="st0" width="2.11" height="2.12"/>
		<rect x="1.42" y="16.03" class="st0" width="2.11" height="2.12"/>
		<rect x="1.42" y="11.8" class="st0" width="2.11" height="2.12"/>
		<rect x="1.42" y="7.57" class="st0" width="2.11" height="2.12"/>
		<rect x="18.34" y="7.57" class="st0" width="2.12" height="2.11"/>
		<rect x="14.11" y="7.57" class="st0" width="2.12" height="2.11"/>
		<rect x="22.57" y="7.57" class="st0" width="2.12" height="2.11"/>
		<rect x="26.8" y="7.57" class="st0" width="2.12" height="2.11"/>
		<rect x="9.87" y="7.57" class="st0" width="2.12" height="2.11"/>
		<rect x="5.64" y="7.57" class="st0" width="2.12" height="2.11"/>
		<rect x="52.27" y="41.2" class="st0" width="2.11" height="2.12"/>
		<rect x="52.27" y="45.43" class="st0" width="2.11" height="2.12"/>
		<rect x="52.27" y="49.67" class="st0" width="2.11" height="2.12"/>
		<rect x="52.27" y="53.9" class="st0" width="2.11" height="2.12"/>
		<rect x="52.27" y="58.13" class="st0" width="2.11" height="2.12"/>
		<rect x="35.35" y="58.13" class="st0" width="2.12" height="2.11"/>
		<rect x="39.58" y="58.13" class="st0" width="2.12" height="2.11"/>
		<rect x="43.81" y="58.13" class="st0" width="2.12" height="2.11"/>
		<rect x="48.04" y="58.13" class="st0" width="2.12" height="2.11"/>
	</g>
	<path class="st0" d="M49.78,12.86h-7.14l-10.27,6.61l2.62,13.31h21.24l2.72-13.31L49.78,12.86z M52.02,5.49
		c0,3.03-2.46,5.49-5.49,5.49c-3.03,0-5.49-2.46-5.49-5.49S43.5,0,46.53,0C49.56,0,52.02,2.46,52.02,5.49"/>
</g>
</svg>
