<?xml version="1.0" encoding="utf-8"?>
<!-- Generator: Adobe Illustrator 23.0.3, SVG Export Plug-In . SVG Version: 6.00 Build 0)  -->
<svg version="1.1" id="Capa_1" xmlns="http://www.w3.org/2000/svg" xmlns:xlink="http://www.w3.org/1999/xlink" x="0px" y="0px"
	 viewBox="0 0 32.6 47.58" style="enable-background:new 0 0 32.6 47.58;" xml:space="preserve">
<style type="text/css">
	.st0{fill:#001E61;}
</style>
<path class="st0" d="M32.58,11.71c0-1.31-1.02-2.41-2.28-2.45c-0.65-0.03-1.24,0.21-1.72,0.67c-0.3,0.29-0.45,0.63-0.57,0.92
	l-0.09,0.2v14.54c0,0.39-0.32,0.7-0.7,0.7c-0.39,0-0.7-0.32-0.7-0.7V7.39c0-1.31-1.05-2.41-2.34-2.45
	c-0.66-0.03-1.33,0.22-1.79,0.67c-0.31,0.3-0.47,0.63-0.63,1.01l-0.05,0.12v17.25c0,0.39-0.32,0.7-0.7,0.7s-0.7-0.32-0.7-0.7V2.45
	c0-1.31-1.03-2.41-2.31-2.45c-0.65-0.03-1.29,0.22-1.75,0.67c-0.36,0.35-0.6,0.8-0.69,1.31L15.54,2.1l0.01,0.06
	c0.02,0.96,0.04,13.87,0.04,20.71c0,0.39-0.32,0.7-0.7,0.7c-0.39,0-0.7-0.32-0.7-0.71c0,0-0.07-15.4-0.07-15.55
	c0-0.65-0.26-1.26-0.73-1.71c-0.47-0.45-1.09-0.7-1.72-0.67C10.4,4.98,9.4,6.06,9.4,7.39V27.4c0,0.31-0.23,0.59-0.56,0.68
	c-0.31,0.08-0.67-0.06-0.8-0.27l-2.36-5.16c-0.46-0.79-1.2-1.36-2.09-1.6C2.72,20.82,1.79,20.94,1,21.4
	c-0.45,0.26-0.78,0.69-0.92,1.19c-0.14,0.5-0.08,1.02,0.17,1.44L5.39,34.1c0.8,1.4,1.23,2.99,1.23,4.64v0.09
	c0.07,4.82,4.07,8.74,8.93,8.75l8.12-0.01c4.85,0,8.77-3.79,8.92-8.63v0C32.6,38.83,32.59,18.07,32.58,11.71z"/>
</svg>
