<?xml version="1.0" encoding="utf-8"?>
<!-- Generator: Adobe Illustrator 23.0.3, SVG Export Plug-In . SVG Version: 6.00 Build 0)  -->
<svg version="1.1" id="Capa_1" xmlns="http://www.w3.org/2000/svg" xmlns:xlink="http://www.w3.org/1999/xlink" x="0px" y="0px"
	 viewBox="0 0 69.3 38.52" style="enable-background:new 0 0 69.3 38.52;" xml:space="preserve">
<style type="text/css">
	.st0{fill:#001E61;}
</style>
<g>
	<path class="st0" d="M37.71,9.99l0.08-0.09l-8.08-9.1l-7.14,9.18H37.71z M37.71,9.99"/>
	<path class="st0" d="M8.88,0L0,9.99h18.95L26.72,0H8.88z M8.88,0"/>
	<path class="st0" d="M32.49,21.4h17.84l7.55-9.99H40.26l-8.88,9.99H32.49z M32.49,21.4"/>
	<path class="st0" d="M69.3,21.4l-8.17-9.56L53.9,21.4H69.3z M69.3,21.4"/>
	<g>
		<path class="st0" d="M55.31,24.25v14.27h4.69V38.3h0l0-4.98c0-0.78,0.58-1.48,1.36-1.52c0.82-0.04,1.49,0.62,1.49,1.43v5.07h0
			v0.22h3.86V24.25H55.31z"/>
		<polygon class="st0" points="21.08,12.84 2.53,12.84 2.53,26.93 21.07,26.93 		"/>
		<path class="st0" d="M35.18,12.84H23.93v14.09h9.99v11.59h18.55V24.25l-26.76,0C25.74,24.18,35.18,12.84,35.18,12.84z"/>
	</g>
</g>
</svg>
