<?xml version="1.0" encoding="utf-8"?>
<!-- Generator: Adobe Illustrator 23.0.3, SVG Export Plug-In . SVG Version: 6.00 Build 0)  -->
<svg version="1.1" id="Capa_1" xmlns="http://www.w3.org/2000/svg" xmlns:xlink="http://www.w3.org/1999/xlink" x="0px" y="0px"
	 viewBox="0 0 42.49 41.99" style="enable-background:new 0 0 42.49 41.99;" xml:space="preserve">
<style type="text/css">
	.st0{fill:#001E61;}
</style>
<g>
	<polygon class="st0" points="10.06,3.32 5.84,3.32 10.56,39.07 	"/>
	<path class="st0" d="M0,5.98l9.92,36.01L4.71,5.98C4.71,5.98,1.06,5.98,0,5.98z"/>
	<path class="st0" d="M11.56,0v41.99h30.93V0H11.56z M38.6,34.36H14.23v-1.11H38.6V34.36z M38.6,30.04H14.23v-1.11H38.6V30.04z
		 M38.6,25.66H14.23v-1.11H38.6V25.66z M25.3,12.67H14.23v-1.11H25.3V12.67z M25.42,20.17v1.11H14.35v-1.11H25.42z M25.3,15.82v1.11
		H14.23v-1.11H25.3z M29.6,21.29v-10.1h9l0,10.1H29.6z M14.15,6.58V3.59h25.58l0,2.99H14.15z"/>
</g>
</svg>
