<?xml version="1.0" encoding="utf-8"?>
<!-- Generator: Adobe Illustrator 21.1.0, SVG Export Plug-In . SVG Version: 6.00 Build 0)  -->
<svg version="1.1" id="Capa_1" xmlns="http://www.w3.org/2000/svg" xmlns:xlink="http://www.w3.org/1999/xlink" x="0px" y="0px"
	 viewBox="0 0 42.5 48.2" style="enable-background:new 0 0 42.5 48.2;" xml:space="preserve">
<style type="text/css">
	.st0{fill:#001E61;}
</style>
<path id="XMLID_70_" class="st0" d="M30,48.2H16.8c0,0-7.4-7.7,0-22.9l-8.4-7.5h5.7l7,6.3l7.1-6.4h5.7l-8.5,7.6
	C25.4,25.3,19.3,34.5,30,48.2z M38.2,13.1c0-1.4-1.3-2.5-2.8-2.5s-2.8,1.1-2.8,2.5s1.3,2.5,2.8,2.5S38.2,14.5,38.2,13.1z M25.4,3.1
	c0-1.4-1.3-2.5-2.8-2.5s-2.8,1.1-2.8,2.5s1.3,2.5,2.8,2.5S25.4,4.5,25.4,3.1z M36,7c0-1.4-1.3-2.5-2.8-2.5S30.3,5.6,30.3,7
	s1.3,2.5,2.8,2.5C34.7,9.5,36,8.4,36,7z M5.6,19.5c0-1.4-1.3-2.5-2.8-2.5S0,18.1,0,19.5C0,20.9,1.3,22,2.8,22S5.6,20.9,5.6,19.5z
	 M20.8,13.9c0-1.4-1.3-2.5-2.8-2.5s-2.8,1.1-2.8,2.5s1.3,2.5,2.8,2.5S20.8,15.3,20.8,13.9z M19.1,6.6c0-1.4-1.3-2.5-2.8-2.5
	s-2.8,1.1-2.8,2.5s1.3,2.5,2.8,2.5S19.1,8,19.1,6.6z M42.2,23.2c0-2-1.8-3.7-4.1-3.7S34,21.2,34,23.2s1.8,3.7,4.1,3.7
	C40.3,26.9,42.2,25.2,42.2,23.2z M31.1,11.9c0-2-1.8-3.7-4.1-3.7s-4.1,1.6-4.1,3.7s1.8,3.7,4.1,3.7S31.1,13.9,31.1,11.9z M11.3,25.8
	c0-2-1.8-3.7-4.1-3.7s-4.1,1.6-4.1,3.7s1.8,3.7,4.1,3.7S11.3,27.9,11.3,25.8z M13.8,11.4c0-2-1.8-3.7-4.1-3.7s-4.1,1.6-4.1,3.7
	s1.8,3.7,4.1,3.7S13.8,13.4,13.8,11.4z M42.5,16.3c0-0.9-0.8-1.6-1.8-1.6c-1,0-1.8,0.7-1.8,1.6c0,0.9,0.8,1.6,1.8,1.6
	S42.5,17.2,42.5,16.3z M40.6,8.5c0-0.9-0.8-1.6-1.8-1.6c-1,0-1.8,0.7-1.8,1.6c0,0.9,0.8,1.6,1.8,1.6C39.8,10.1,40.6,9.4,40.6,8.5z
	 M4.6,12.7c0-0.9-0.8-1.6-1.8-1.6s-1.8,0.7-1.8,1.6s0.8,1.6,1.8,1.6S4.6,13.5,4.6,12.7z M22.9,18.2c0-0.9-0.8-1.6-1.8-1.6
	s-1.8,0.7-1.8,1.6c0,0.9,0.8,1.6,1.8,1.6S22.9,19,22.9,18.2z M6.3,7c0-0.9-0.8-1.6-1.8-1.6S2.8,6.1,2.8,7s0.8,1.6,1.8,1.6
	S6.3,7.8,6.3,7z M33.7,26c0-0.9-0.8-1.6-1.8-1.6s-1.8,0.7-1.8,1.6c0,0.9,0.8,1.6,1.8,1.6S33.7,26.9,33.7,26z M12.4,5.1
	c0-0.9-0.8-1.6-1.8-1.6S8.9,4.2,8.9,5.1s0.8,1.6,1.8,1.6S12.4,5.9,12.4,5.1z M19.1,1.6c0-0.9-0.8-1.6-1.8-1.6s-1.8,0.7-1.8,1.6
	s0.8,1.6,1.8,1.6C18.3,3.1,19.1,2.4,19.1,1.6z M22.9,9.1c0-0.9-0.8-1.6-1.8-1.6s-1.8,0.7-1.8,1.6s0.8,1.6,1.8,1.6S22.9,9.9,22.9,9.1
	z M28.9,6c0-0.9-0.8-1.6-1.8-1.6c-1,0-1.8,0.7-1.8,1.6s0.8,1.6,1.8,1.6S28.9,6.8,28.9,6z"/>
</svg>
