<?xml version="1.0" encoding="utf-8"?>
<!-- Generator: Adobe Illustrator 23.0.3, SVG Export Plug-In . SVG Version: 6.00 Build 0)  -->
<svg version="1.1" id="Capa_1" xmlns="http://www.w3.org/2000/svg" xmlns:xlink="http://www.w3.org/1999/xlink" x="0px" y="0px"
	 viewBox="0 0 50.94 58.29" style="enable-background:new 0 0 50.94 58.29;" xml:space="preserve">
<style type="text/css">
	.st0{fill:#001E61;}
</style>
<path id="XMLID_63_" class="st0" d="M33.97,41.29H8.56c-4.29,0-8.56,3.8-8.56,8.5s4.24,8.5,8.53,8.5h25.44c4.29,0,8.57-3.8,8.57-8.5
	S38.26,41.29,33.97,41.29z M8.5,53.23c-1.77,0-3.21-1.51-3.21-3.38c0-1.87,1.44-3.38,3.21-3.38c1.77,0,3.21,1.51,3.21,3.38
	C11.71,51.72,10.27,53.23,8.5,53.23z M33.96,53.23c-1.77,0-3.21-1.51-3.21-3.38c0-1.87,1.44-3.38,3.21-3.38
	c1.77,0,3.21,1.51,3.21,3.38C37.17,51.72,35.74,53.23,33.96,53.23z M50.94,0h-4.22L30.15,30.33l-6.87-13.32H5.29L5.3,38.29h31.88
	L50.94,0z M10.11,31.38v-8.91c0-0.75,0.61-1.36,1.36-1.36h7.15c0.78,0,1.49,0.44,1.83,1.14l4.37,9.12H10.11z"/>
</svg>
