<?xml version="1.0" encoding="utf-8"?>
<!-- Generator: Adobe Illustrator 21.1.0, SVG Export Plug-In . SVG Version: 6.00 Build 0)  -->
<svg version="1.1" id="Capa_1" xmlns="http://www.w3.org/2000/svg" xmlns:xlink="http://www.w3.org/1999/xlink" x="0px" y="0px"
	 viewBox="0 0 54.8 49.2" style="enable-background:new 0 0 54.8 49.2;" xml:space="preserve">
<style type="text/css">
	.st0{fill:#001E61;}
</style>
<g>
	<polygon class="st0" points="26.9,10.5 20.7,18.8 10.6,11.3 20.1,0 36.3,0 41.3,10.8 44.3,9.6 38.3,20 26.7,16.8 29.6,15.3 	"/>
	<polygon class="st0" points="42.4,33 37.4,23.9 48.5,17.8 54.8,31.1 48,45.9 36.2,45.9 36,49.2 29,39.4 36.7,30.1 37,33.4 	"/>
	<polygon class="st0" points="13.9,33.7 24.2,33.7 24.2,46 9.6,46 0,31.7 6.4,21.2 3.8,19.2 15.8,18.7 19.4,30.2 16.5,28.6 	"/>
</g>
</svg>
