<?xml version="1.0" encoding="utf-8"?>
<!-- Generator: Adobe Illustrator 23.0.3, SVG Export Plug-In . SVG Version: 6.00 Build 0)  -->
<svg version="1.1" id="Capa_1" xmlns="http://www.w3.org/2000/svg" xmlns:xlink="http://www.w3.org/1999/xlink" x="0px" y="0px"
	 viewBox="0 0 52.31 41.19" style="enable-background:new 0 0 52.31 41.19;" xml:space="preserve">
<style type="text/css">
	.st0{fill:#001E61;}
</style>
<g>
	<path class="st0" d="M30.64,10.13l-4.28-0.05l-8.24,4.14c-3.38,1.7-7.53,0.35-9.24-3.02C8.2,9.84,7.98,8.29,8.28,6.79L11.48,5
		L7.64,2.56L0,15.46c0,0,1.26,1.16,1.25,1.16l0,0c0.93-0.96,2.19-1.53,3.58-1.58c0.94-0.03,1.87,0.19,2.69,0.65
		C8.47,16.22,9.2,17,9.67,17.92c0.74-0.55,1.62-0.89,2.56-0.99c1.13-0.12,2.28,0.14,3.26,0.74c1.11,0.68,1.86,1.69,2.23,2.82
		c0.32-0.12,0.66-0.2,1.01-0.25c1.53-0.22,3.05,0.23,4.22,1.26c0.79,0.7,1.36,1.63,1.61,2.66c0.35,1.46,0.08,2.95-0.74,4.17
		c0.9,0.2,1.74,0.64,2.45,1.31c0.75,0.71,1.28,1.63,1.5,2.64c0.34,1.51,0.01,3.05-0.91,4.27l-0.14,0.18l6.23,4.41
		c0.04,0.03,0.09,0.04,0.13,0.03c2.35-0.26,2.68-2.46,1.46-3.43l-3.53-2.5c-0.48-2.02,1.29-2.88,2.4-2.1l4.96,3.5
		c0.84,0.57,1.99,0.38,2.58-0.45c0.59-0.82,0.4-1.96-0.42-2.55l-6.11-4.32c-0.48-2.02,1.29-2.88,2.4-2.1l5.52,3.9l0,0l0.02,0.01
		l1.19,0.84c0.03,0.02,0.08,0.04,0.12,0.03c2.43-0.21,2.71-2.54,1.42-3.47l-7.74-5.47c-0.48-2.02,1.29-2.88,2.4-2.1l7.14,5.05l0,0
		l0.04,0.03l1.26,0.89c0.84,0.58,1.99,0.38,2.59-0.44c0.29-0.4,0.4-0.89,0.32-1.37c-0.08-0.49-0.35-0.91-0.75-1.2l-3.86-2.73
		L30.64,10.13z"/>
	<path class="st0" d="M52.31,15.02L43.43,0.33l-6.2,2.72L26.91,0L11.33,8.62c0.06,0.39,0.18,0.77,0.36,1.13
		c0.94,1.85,3.21,2.6,5.08,1.67l8.58-4.29c0.22-0.11,0.45-0.16,0.69-0.16c0,0,0.02,0,0.02,0l5.61,0.08L47.4,18.12L52.31,15.02
		L52.31,15.02z"/>
	<path class="st0" d="M21.66,38.27l2.68-3.57c0.34-0.45,0.48-1.01,0.4-1.57c-0.08-0.56-0.37-1.06-0.83-1.4
		c-0.37-0.28-0.81-0.42-1.27-0.42c-0.1,0-0.2,0.01-0.31,0.02c-0.56,0.08-1.06,0.37-1.4,0.83l-2.68,3.57
		c-0.34,0.45-0.48,1.01-0.4,1.57c0.08,0.56,0.37,1.06,0.83,1.4h0C19.62,39.4,20.96,39.21,21.66,38.27z"/>
	<path class="st0" d="M14.38,34.69c0.56-0.08,1.06-0.37,1.4-0.83l5.39-7.19c0.34-0.45,0.48-1.01,0.4-1.57
		c-0.08-0.56-0.37-1.06-0.83-1.4c-0.37-0.28-0.81-0.42-1.27-0.42c-0.1,0-0.2,0.01-0.31,0.02c-0.56,0.08-1.06,0.37-1.4,0.83
		l-0.83,1.11l0,0l-4.56,6.08c-0.34,0.45-0.48,1.01-0.4,1.57c0.08,0.56,0.37,1.06,0.83,1.4C13.26,34.63,13.82,34.77,14.38,34.69z"/>
	<path class="st0" d="M8.5,30.29c0.56-0.08,1.06-0.37,1.4-0.83l4.56-6.08c0.7-0.94,0.51-2.27-0.43-2.97
		c-0.37-0.28-0.81-0.42-1.27-0.42c-0.1,0-0.2,0.01-0.31,0.02c-0.56,0.08-1.06,0.37-1.4,0.83L6.5,26.91
		c-0.34,0.45-0.48,1.01-0.4,1.57c0.08,0.56,0.37,1.06,0.83,1.4C7.38,30.22,7.94,30.37,8.5,30.29z"/>
	<path class="st0" d="M2.62,25.88c0.56-0.08,1.06-0.37,1.4-0.83l2.68-3.57c0.34-0.45,0.48-1.01,0.4-1.57s-0.37-1.06-0.83-1.4
		C5.9,18.23,5.46,18.09,5,18.09c-0.1,0-0.2,0.01-0.31,0.02c-0.56,0.08-1.06,0.37-1.4,0.83l-2.68,3.57c-0.34,0.45-0.48,1.01-0.4,1.57
		c0.08,0.56,0.37,1.06,0.83,1.4C1.5,25.82,2.06,25.96,2.62,25.88z"/>
</g>
</svg>
