<?xml version="1.0" encoding="utf-8"?>
<!-- Generator: Adobe Illustrator 23.0.3, SVG Export Plug-In . SVG Version: 6.00 Build 0)  -->
<svg version="1.1" id="Capa_1" xmlns="http://www.w3.org/2000/svg" xmlns:xlink="http://www.w3.org/1999/xlink" x="0px" y="0px"
	 viewBox="0 0 49.21 47.71" style="enable-background:new 0 0 49.21 47.71;" xml:space="preserve">
<style type="text/css">
	.st0{fill:#001E61;}
</style>
<g>
	<polygon class="st0" points="9.68,24.99 8.96,25.01 8.96,25.01 	"/>
	<path class="st0" d="M12.75,36.49c-3.09-3.1-4.83-6.78-5.18-10.95l-4.3,0.48l-0.06,0.01l-0.06,0c-0.34,0.01-0.78,0.03-1.22,0.08
		c-0.09,0.01-0.19,0.02-0.28,0.04c0.55,5.5,2.98,10.64,6.89,14.55c4.52,4.53,10.54,7.02,16.94,7.02c6.03,0,11.73-2.22,16.15-6.26
		l-4.21-4.21c-3.29,2.92-7.48,4.52-11.92,4.52C20.67,41.76,16.15,39.88,12.75,36.49z"/>
	<path class="st0" d="M25.3-0.02C18.9-0.02,12.88,2.47,8.36,7C7.83,7.53,7.32,8.09,6.85,8.66l4.24,4.24
		c0.46-0.59,0.94-1.16,1.48-1.69c3.4-3.4,7.91-5.27,12.72-5.27c4.82,0,9.35,1.87,12.75,5.27c3.28,3.28,5.13,7.62,5.25,12.26
		c1.97-0.32,3.95-0.64,5.92-0.96C48.86,16.65,46.4,11.17,42.24,7C37.71,2.47,31.7-0.02,25.3-0.02L25.3-0.02z"/>
	<polygon class="st0" points="2.48,4.29 0,21.05 16.72,18.53 11.09,12.9 6.85,8.66 	"/>
	<polygon class="st0" points="37.42,37.23 41.63,41.45 45.95,45.76 48.47,29.05 31.71,31.52 	"/>
</g>
</svg>
