<?xml version="1.0" encoding="utf-8"?>
<!-- Generator: Adobe Illustrator 23.0.3, SVG Export Plug-In . SVG Version: 6.00 Build 0)  -->
<svg version="1.1" id="Capa_1" xmlns="http://www.w3.org/2000/svg" xmlns:xlink="http://www.w3.org/1999/xlink" x="0px" y="0px"
	 viewBox="0 0 46.54 42" style="enable-background:new 0 0 46.54 42;" xml:space="preserve">
<style type="text/css">
	.st0{fill:#001E61;}
</style>
<path class="st0" d="M42.78,29.56v-9.33h-4.67v0H25.67v-4.67h12.44V0H8.56v15.56H21v4.67H8.56v0H3.89v9.33H0V42h12.44V29.56H8.56
	v-4.67H21v4.67h-3.89V42h12.44V29.56h-3.89v-4.67h12.44v4.67h-3.89V42h12.44V29.56H42.78z M13.22,10.64V4.67h5.68L13.22,10.64z
	 M4.67,37.33v-3.11h3.11L4.67,37.33z M21.78,37.33v-3.11h3.11L21.78,37.33z M38.89,37.33v-3.11H42L38.89,37.33z"/>
</svg>
