<?xml version="1.0" encoding="utf-8"?>
<!-- Generator: Adobe Illustrator 23.0.3, SVG Export Plug-In . SVG Version: 6.00 Build 0)  -->
<svg version="1.1" id="Capa_1" xmlns="http://www.w3.org/2000/svg" xmlns:xlink="http://www.w3.org/1999/xlink" x="0px" y="0px"
	 viewBox="0 0 65.02 56.65" style="enable-background:new 0 0 65.02 56.65;" xml:space="preserve">
<style type="text/css">
	.st0{fill:#001E61;}
</style>
<g>
	<path class="st0" d="M59.34,46.71h-3.56L50.66,50l1.3,6.64h10.6L63.92,50L59.34,46.71z M60.13,43.21c0,1.41-1.14,2.56-2.56,2.56
		c-1.41,0-2.56-1.14-2.56-2.56c0-1.41,1.14-2.56,2.56-2.56C58.98,40.66,60.13,41.8,60.13,43.21"/>
	<path class="st0" d="M8.62,46.71H5.06L-0.06,50l1.3,6.64h10.6L13.19,50L8.62,46.71z M9.41,43.21c0,1.41-1.14,2.56-2.56,2.56
		c-1.41,0-2.56-1.14-2.56-2.56c0-1.41,1.14-2.56,2.56-2.56C8.26,40.66,9.41,41.8,9.41,43.21"/>
	<rect x="5.51" y="35.89" class="st0" width="2.11" height="2.12"/>
	<rect x="5.51" y="31.66" class="st0" width="2.11" height="2.12"/>
	<rect x="5.51" y="27.43" class="st0" width="2.11" height="2.12"/>
	<rect x="5.51" y="23.2" class="st0" width="2.11" height="2.12"/>
	<rect x="5.51" y="18.96" class="st0" width="2.11" height="2.12"/>
	<rect x="56.23" y="35.89" class="st0" width="2.11" height="2.12"/>
	<rect x="56.23" y="31.66" class="st0" width="2.11" height="2.12"/>
	<rect x="56.23" y="27.43" class="st0" width="2.11" height="2.12"/>
	<rect x="56.23" y="23.2" class="st0" width="2.11" height="2.12"/>
	<rect x="56.23" y="18.96" class="st0" width="2.11" height="2.12"/>
	<rect x="56.23" y="14.73" class="st0" width="2.11" height="2.12"/>
	<rect x="33.04" y="4.15" class="st0" width="2.11" height="2.12"/>
	<rect x="24.58" y="4.15" class="st0" width="2.11" height="2.12"/>
	<rect x="28.81" y="4.15" class="st0" width="2.11" height="2.12"/>
	<rect x="20.3" y="4.15" class="st0" width="2.11" height="2.12"/>
	<rect x="16.02" y="4.15" class="st0" width="2.11" height="2.12"/>
	<rect x="37.26" y="4.15" class="st0" width="2.11" height="2.12"/>
	<rect x="41.49" y="4.15" class="st0" width="2.11" height="2.12"/>
	<rect x="45.72" y="4.15" class="st0" width="2.11" height="2.12"/>
	<rect x="30.87" y="12.61" class="st0" width="2.11" height="2.12"/>
	<rect x="30.87" y="8.38" class="st0" width="2.11" height="2.12"/>
	<polygon class="st0" points="34.43,15.82 31.93,18.32 29.42,15.82 28.35,16.89 31.93,20.52 35.5,16.89 	"/>
	<polygon class="st0" points="51.21,6.88 49.56,8.54 54.88,13.88 65.02,3.72 63.36,2.06 54.88,10.56 	"/>
	<polygon class="st0" points="51.21,6.88 49.56,8.54 54.88,13.88 65.02,3.72 63.36,2.06 54.88,10.56 	"/>
	<path class="st0" d="M35.55,33.52h-6.27l-9.02,5.81l2.3,11.7h18.67l2.39-11.7L35.55,33.52z M36.93,27.37c0,2.49-2.02,4.5-4.5,4.5
		c-2.49,0-4.5-2.02-4.5-4.5s2.02-4.5,4.5-4.5C34.91,22.87,36.93,24.88,36.93,27.37"/>
	<path class="st0" d="M10.5,9.1l1.33-0.04c0,0,1.09,0,1.11-1.11c0.02-1.13-1.06-1.14-1.06-1.14l-1.3,0.03c0,0-0.28,0.03-0.28-0.31
		c0-0.28,0.32-0.26,0.32-0.26l1.26-0.04c0,0,1.06-0.02,1.06-1.13c0.01-1.07-1.03-1.13-1.03-1.13H5.79l1.16-2.4
		c0,0,0.49-1.01-0.62-1.47C5.29-0.33,4.84,0.73,4.84,0.73l-1.65,3.2v0.23v2.09v8.7l8.63-0.02c0,0,1.1-0.05,1.13-1.13
		c0.03-1.06-1.06-1.13-1.06-1.13l-0.7,0.03c0,0-0.07,0.02-0.64,0.02c-0.21,0-0.34-0.2-0.34-0.33c0-0.33,0.32-0.31,0.32-0.31
		l1.37-0.05c0,0,1.02,0,1.06-1.08c0.03-1.16-1.02-1.16-1.02-1.16L10.5,9.81c0,0-0.31-0.02-0.32-0.34C10.17,9.1,10.5,9.1,10.5,9.1"/>
	<rect x="0.19" y="3.93" class="st0" width="2.28" height="11.02"/>
</g>
</svg>
