<?xml version="1.0" encoding="utf-8"?>
<!-- Generator: Adobe Illustrator 23.0.3, SVG Export Plug-In . SVG Version: 6.00 Build 0)  -->
<svg version="1.1" id="Capa_1" xmlns="http://www.w3.org/2000/svg" xmlns:xlink="http://www.w3.org/1999/xlink" x="0px" y="0px"
	 viewBox="0 0 48.88 50.68" style="enable-background:new 0 0 48.88 50.68;" xml:space="preserve">
<style type="text/css">
	.st0{fill:#001E61;}
</style>
<g>
	<path class="st0" d="M28.73,33.62c0,2.37-1.92,4.3-4.3,4.3c-2.37,0-4.3-1.92-4.3-4.3c0-2.37,1.92-4.3,4.3-4.3
		C26.81,29.33,28.73,31.25,28.73,33.62L28.73,33.62z M28.73,33.62"/>
	<path class="st0" d="M5.82,23.6L0,46.51h14.41l-0.82-3.84l4.69-5.44c0,0-1.01-2.28-1.01-3.6c0-3.95,3.21-7.16,7.16-7.16
		s7.16,3.21,7.16,7.16c0,1.32-1.01,3.6-1.01,3.6l4.18,4.19l-0.3,5.09h14.41L43.05,23.6H5.82z M5.82,23.6"/>
	<path class="st0" d="M21.14,4.3c0,2.37-1.92,4.3-4.3,4.3s-4.3-1.92-4.3-4.3c0-2.37,1.92-4.3,4.3-4.3S21.14,1.92,21.14,4.3
		L21.14,4.3z M21.14,4.3"/>
	<path class="st0" d="M38.32,4.3c0,2.37-1.92,4.3-4.3,4.3s-4.3-1.92-4.3-4.3c0-2.37,1.92-4.3,4.3-4.3S38.32,1.92,38.32,4.3
		L38.32,4.3z M38.32,4.3"/>
	<polygon id="XMLID_49_" class="st0" points="35.94,9.95 31.96,9.95 26.24,13.63 27.7,21.05 39.54,21.05 41.06,13.63 	"/>
	<polygon id="XMLID_48_" class="st0" points="27.85,39.15 20.93,39.15 16.78,43.26 18.68,50.68 30.08,50.68 31.6,43.26 	"/>
	<polygon id="XMLID_24_" class="st0" points="18.57,9.95 14.59,9.95 8.86,13.63 10.32,21.05 22.17,21.05 23.68,13.63 	"/>
</g>
</svg>
