<?xml version="1.0" encoding="utf-8"?>
<!-- Generator: Adobe Illustrator 23.0.3, SVG Export Plug-In . SVG Version: 6.00 Build 0)  -->
<svg version="1.1" id="Capa_1" xmlns="http://www.w3.org/2000/svg" xmlns:xlink="http://www.w3.org/1999/xlink" x="0px" y="0px"
	 viewBox="0 0 43.25 56.68" style="enable-background:new 0 0 43.25 56.68;" xml:space="preserve">
<style type="text/css">
	.st0{fill:#001E61;}
</style>
<g>
	<path class="st0" d="M19.74,40.08c0.02,0.02,0.03,0.04,0.05,0.05c3.67,3.67,9.62,3.67,13.29,0c3.67-3.67,3.67-9.62,0-13.28
		c-3.67-3.67-9.62-3.67-13.29,0c-3.16,3.16-3.59,8.02-1.3,11.65l6.22-6.17h-4.66v-2h8.31v8.21h-2v-5.04L19.74,40.08z"/>
	<path class="st0" d="M31.59,44.14c-4.41,2.14-9.87,1.39-13.53-2.27c-0.02-0.02-0.04-0.04-0.06-0.06l-2.97,2.95l-5.11-4.99L0,49.84
		v2.36c0,2.48,2.01,4.49,4.49,4.49h32.03v-7.47l-4.86-4.97C31.64,44.21,31.61,44.17,31.59,44.14z"/>
	<path class="st0" d="M42.68,49.85c-0.36,0.37-0.85,0.58-1.36,0.58H41.3c-0.51,0-0.98-0.2-1.33-0.56l-3.45-3.53l-3.18-3.26
		l-0.06-0.06c1.04-0.78,1.97-1.72,2.73-2.79l0.07,0.07l0.45,0.46l6.17,6.32C43.44,47.84,43.43,49.08,42.68,49.85z"/>
	<g>
		<rect x="10.8" y="16.14" class="st0" width="2.84" height="2"/>
		<rect x="17.62" y="16.14" class="st0" width="2.74" height="2"/>
		<rect x="3.98" y="16.14" class="st0" width="2.83" height="2"/>
		<rect x="21.49" y="6.23" class="st0" width="11" height="2"/>
		<rect x="25.49" y="11.23" class="st0" width="7" height="2"/>
		<path class="st0" d="M32.03,0H4.49C2.01,0,0,2.01,0,4.49v4.12h3.98v7.53h2.83V6.23h3.98v9.91h2.84v-3.96h3.98v3.96h2.74v2h-2.74
			h-3.98H10.8H6.82H3.98H0v28.85l9.89-10.05l5.13,5.01l1.7-1.69c-3.22-4.62-2.78-11.01,1.33-15.13c4.62-4.62,12.11-4.62,16.74,0
			c0.68,0.68,1.24,1.42,1.72,2.21V4.49C36.52,2.01,34.51,0,32.03,0z M32.49,13.23h-7v-2h7V13.23z M32.49,8.23h-11v-2h11V8.23z"/>
	</g>
</g>
</svg>
