<?xml version="1.0" encoding="utf-8"?>
<!-- Generator: Adobe Illustrator 21.1.0, SVG Export Plug-In . SVG Version: 6.00 Build 0)  -->
<svg version="1.1" id="Capa_1" xmlns="http://www.w3.org/2000/svg" xmlns:xlink="http://www.w3.org/1999/xlink" x="0px" y="0px"
	 viewBox="0 0 105.3 45.6" style="enable-background:new 0 0 105.3 45.6;" xml:space="preserve">
<style type="text/css">
	.st0{enable-background:new    ;}
	.st1{fill:#001E61;}
</style>
<g>
	<g>
		<g class="st0">
			<g>
				<path class="st1" d="M49,18.8c0,0.7-0.3,2.1-2.1,2.1h-2.3v-7.6h2.3c1.8,0,2.1,1.4,2.1,2.1V18.8z M48,15.3c0-0.9-0.7-1.1-1.1-1.1
					h-1.3v5.6H47c0.4,0,1-0.1,1-1.1V15.3z"/>
			</g>
			<g>
				<path class="st1" d="M54.6,18.4h-3.2v0.5c0,0.5,0.2,1.1,1.1,1.1c0.6,0,1-0.4,1.1-0.9h1c-0.1,1.2-0.9,1.9-2.1,1.9
					c-1.3,0-2.1-0.8-2.1-2.1v-1.7c0-1.2,0.9-2,2.1-2c1.3,0,2.1,0.8,2.1,2V18.4z M53.6,17.2c0-0.5-0.2-1-1.1-1c-0.7,0-1.1,0.4-1.1,1
					v0.2h2.2V17.2z"/>
			</g>
			<g>
				<path class="st1" d="M57.8,20.9c-1.2,0-2-0.7-2.1-1.9h1c0.1,0.6,0.5,0.9,1.1,0.9c0.5,0,1.1-0.2,1.1-0.8c0-0.3-0.2-0.5-0.6-0.6
					c-0.5-0.1-0.9-0.2-1.3-0.4c-0.7-0.2-1.3-0.7-1.3-1.4c0-1.1,0.9-1.6,2-1.6c1.1,0,2,0.6,2.1,1.8h-1c-0.1-0.5-0.4-0.8-1.1-0.8
					c-0.5,0-1,0.2-1,0.6c0,0.3,0.2,0.4,0.5,0.5c0.4,0.1,1,0.2,1.4,0.4c0.7,0.2,1.2,0.7,1.2,1.4C59.9,20.4,58.9,20.9,57.8,20.9z"/>
			</g>
			<g>
				<path class="st1" d="M65.2,17.1h-1c-0.1-0.5-0.4-0.9-1.1-0.9c-0.7,0-1.1,0.4-1.1,1v1.7c0,0.5,0.2,1.1,1.1,1.1
					c0.6,0,1-0.4,1.1-0.9h1c-0.1,1.2-0.9,1.9-2.1,1.9c-1.3,0-2.1-0.8-2.1-2.1v-1.7c0-1.2,0.9-2,2.1-2C64.3,15.2,65.1,15.9,65.2,17.1
					z"/>
			</g>
			<g>
				<path class="st1" d="M70.4,20.9h-1v-0.4c-0.2,0.3-0.8,0.5-1.3,0.5c-0.9,0-1.9-0.6-1.9-1.8c0-1.1,0.8-1.6,2-1.6h1.2v-0.4
					c0-0.7-0.4-0.9-1-0.9c-0.5,0-0.9,0.2-1,0.8h-1c0.1-1.3,1.2-1.7,2-1.7c1,0,2,0.5,2,1.8V20.9z M69.4,18.4h-1.2c-0.6,0-1,0.3-1,0.7
					c0,0.7,0.5,0.9,1,0.9c0.6,0,1.2-0.4,1.2-1.1V18.4z"/>
			</g>
			<g>
				<path class="st1" d="M73.7,16.2c-0.4,0-0.8,0.3-0.8,1.1v3.5h-1v-5.6h1v0.5c0.2-0.3,0.5-0.5,1-0.5h0.4v1H73.7z"/>
			</g>
			<g>
				<path class="st1" d="M78.3,20.5c-0.2,0.2-0.6,0.4-1.1,0.4c-1.3,0-2.1-0.8-2.1-2.1v-1.7c0-1.2,0.8-2,2.1-2c0.4,0,0.9,0.2,1.1,0.4
					v-0.4h1v6c0,1.6-1,2-2.1,2c-1,0-1.8-0.6-2-1.5h1.1c0.1,0.4,0.5,0.6,0.9,0.6c0.5,0,1.1-0.2,1.1-1.1V20.5z M78.3,17.2
					c0-0.5-0.2-1-1.1-1c-0.7,0-1.1,0.4-1.1,1v1.7c0,0.5,0.2,1.1,1.1,1.1c0.7,0,1.1-0.4,1.1-1.1V17.2z"/>
			</g>
			<g>
				<path class="st1" d="M84.8,20.9h-1v-0.4c-0.2,0.3-0.8,0.5-1.3,0.5c-0.9,0-1.9-0.6-1.9-1.8c0-1.1,0.8-1.6,2-1.6h1.2v-0.4
					c0-0.7-0.4-0.9-1-0.9c-0.5,0-0.9,0.2-1,0.8h-1c0.1-1.3,1.2-1.7,2-1.7c1,0,2,0.5,2,1.8V20.9z M83.7,18.4h-1.2c-0.6,0-1,0.3-1,0.7
					c0,0.7,0.5,0.9,1,0.9c0.6,0,1.2-0.4,1.2-1.1V18.4z"/>
			</g>
			<g>
				<path class="st1" d="M88.1,16.2c-0.4,0-0.8,0.3-0.8,1.1v3.5h-1v-5.6h1v0.5c0.2-0.3,0.5-0.5,1-0.5h0.4v1H88.1z"/>
			</g>
		</g>
		<g class="st0">
			<g>
				<path class="st1" d="M46.6,32.3c-1.4,0-2.3-0.9-2.3-2.1h1c0,0.7,0.5,1.1,1.2,1.1c0.8,0,1.3-0.5,1.3-1.1c0-0.5-0.3-0.8-0.7-1
					c-0.3-0.2-0.8-0.4-1.7-0.9c-0.6-0.3-1-1-1-1.7c0-1.2,0.9-2,2.1-2c1.3,0,2.2,0.9,2.2,2.1h-1c0-0.7-0.5-1-1.2-1
					c-0.6,0-1.1,0.4-1.1,1c0,0.4,0.2,0.7,0.6,0.9c0.6,0.3,1.2,0.6,1.6,0.8c0.8,0.4,1.2,1.1,1.2,2C48.9,31.4,47.9,32.3,46.6,32.3z"/>
			</g>
			<g>
				<path class="st1" d="M54.3,29.8H51v0.5c0,0.5,0.2,1.1,1.1,1.1c0.6,0,1-0.4,1.1-0.9h1c-0.1,1.2-0.9,1.9-2.1,1.9
					c-1.3,0-2.1-0.8-2.1-2.1v-1.7c0-1.2,0.9-2,2.1-2c1.3,0,2.1,0.8,2.1,2V29.8z M53.2,28.6c0-0.5-0.2-1-1.1-1c-0.7,0-1.1,0.4-1.1,1
					v0.2h2.2V28.6z"/>
			</g>
			<g>
				<path class="st1" d="M59.8,28.5h-1c-0.1-0.5-0.4-0.9-1.1-0.9c-0.7,0-1.1,0.4-1.1,1v1.7c0,0.5,0.2,1.1,1.1,1.1
					c0.6,0,1-0.4,1.1-0.9h1c-0.1,1.2-0.9,1.9-2.1,1.9c-1.3,0-2.1-0.8-2.1-2.1v-1.7c0-1.2,0.9-2,2.1-2C58.8,26.6,59.6,27.3,59.8,28.5
					z"/>
			</g>
			<g>
				<path class="st1" d="M65.1,28.5h-1C64,28,63.7,27.5,63,27.5c-0.7,0-1.1,0.4-1.1,1v1.7c0,0.5,0.2,1.1,1.1,1.1
					c0.6,0,1-0.4,1.1-0.9h1c-0.1,1.2-0.9,1.9-2.1,1.9c-1.3,0-2.1-0.8-2.1-2.1v-1.7c0-1.2,0.9-2,2.1-2C64.2,26.6,65,27.3,65.1,28.5z"
					/>
			</g>
			<g>
				<path class="st1" d="M66.3,25.9v-1.3h1.1v1.3H66.3z M66.4,32.2v-5.6h1v5.6H66.4z"/>
			</g>
			<g>
				<path class="st1" d="M71,32.3c-1.3,0-2.1-0.8-2.1-2.1v-1.7c0-1.2,0.9-2,2.1-2c1.3,0,2.1,0.8,2.1,2v1.7
					C73.1,31.5,72.3,32.3,71,32.3z M72.1,28.6c0-0.5-0.2-1-1.1-1c-0.7,0-1.1,0.4-1.1,1v1.7c0,0.5,0.2,1.1,1.1,1.1
					c0.7,0,1.1-0.4,1.1-1.1V28.6z M70.2,25.9l0.9-1.8h1.2l-1.1,1.8H70.2z"/>
			</g>
			<g>
				<path class="st1" d="M77.7,32.2v-3.6c0-0.5-0.1-1-1-1c-0.6,0-1.2,0.4-1.2,1v3.7h-1v-5.6h1v0.3c0.3-0.3,0.8-0.4,1.2-0.4
					c1.3,0,2,0.8,2,2v3.6H77.7z"/>
			</g>
		</g>
	</g>
	<g>
		<g>
			<path class="st1" d="M22.5,25.6h-0.6v2.9h0.6c0.2,0,0.5-0.1,0.5-0.5v-1.9C23,25.7,22.7,25.6,22.5,25.6z"/>
		</g>
		<g>
			<path class="st1" d="M19.1,25.6h-0.6v1.3h0.6c0.2,0,0.5-0.1,0.5-0.5v-0.3C19.6,25.7,19.3,25.6,19.1,25.6z"/>
		</g>
		<g>
			<path class="st1" d="M31.3,9.5H19.5c-0.9,0-1.7,0.8-1.7,1.7v11.6h-1.4V32h1.4v2.4c0,0.9,0.8,1.7,1.7,1.7h16.9
				c0.9,0,1.7-0.8,1.7-1.7V16.2L31.3,9.5z M19.2,27.7h-0.6v1.7h-0.8v-4.6h1.4c1.1,0,1.3,0.9,1.3,1.3v0.3
				C20.5,26.9,20.3,27.7,19.2,27.7z M35.2,34.3H19.6V32h14.7v-9.2H19.6V12.3c0-0.6,0.5-1.1,1.1-1.1l10,0v3.7c0,1.1,0.9,2,2,2l3.6,0
				l0,16.4C36.3,33.9,35.8,34.3,35.2,34.3z M21.1,29.4v-4.6h1.4c1.1,0,1.3,0.9,1.3,1.3v2c0,0.4-0.2,1.3-1.3,1.3
				C22.5,29.4,21.1,29.4,21.1,29.4z M27.1,26.6v0.8h-1.7v2h-0.8v-4.6h2.7v0.8h-1.8v0.9H27.1z M31.8,27.6c0.1-0.1,0.2-0.1,0.3,0
				l0.3,0.4c0.1,0.1,0.1,0.2,0,0.3l-1.9,1.6c-0.1,0.1-0.2,0.1-0.3,0l-1.9-1.6c-0.1-0.1-0.1-0.2,0-0.3l0.3-0.4c0.1-0.1,0.2-0.1,0.3,0
				l0.9,0.8V25c0-0.1,0.1-0.2,0.2-0.2h0.5c0.1,0,0.2,0.1,0.2,0.2v3.4L31.8,27.6z"/>
		</g>
	</g>
	<g>
		<path class="st1" d="M105.3,45.6H0V0h105.3V45.6z M0.8,44.8h103.7v-44H0.8V44.8z"/>
	</g>
</g>
</svg>
