<?xml version="1.0" encoding="utf-8"?>
<!-- Generator: Adobe Illustrator 23.0.3, SVG Export Plug-In . SVG Version: 6.00 Build 0)  -->
<svg version="1.1" id="Capa_1" xmlns="http://www.w3.org/2000/svg" xmlns:xlink="http://www.w3.org/1999/xlink" x="0px" y="0px"
	 viewBox="0 0 26.9 33.04" style="enable-background:new 0 0 26.9 33.04;" xml:space="preserve">
<style type="text/css">
	.st0{fill:#AAAAAA;}
</style>
<g>
	<g>
		<path class="st0" d="M3.38,20.07H2.67v1.58H3.4c0.23,0,0.62-0.07,0.62-0.62v-0.35C4.01,20.15,3.61,20.07,3.38,20.07z"/>
		<path class="st0" d="M7.54,20.07H6.81v3.64h0.74c0.23,0,0.6-0.08,0.6-0.61v-2.41C8.15,20.15,7.77,20.07,7.54,20.07z"/>
		<path class="st0" d="M18.55,0H3.86c-1.15,0-2.1,0.94-2.1,2.1v14.42H0v11.43h1.76v2.99c0,1.16,0.94,2.1,2.1,2.1H24.8
			c1.16,0,2.1-0.94,2.1-2.1V8.32L18.55,0z M3.44,22.69H2.67v2.06H1.62v-5.71H3.4c1.38,0,1.64,1.11,1.64,1.63v0.38
			C5.05,21.59,4.78,22.69,3.44,22.69z M23.39,30.89H3.92v-2.94h18.3V16.52H3.92v-13c0-0.75,0.61-1.36,1.36-1.36l12.47-0.01v4.61
			c0,1.35,1.09,2.44,2.44,2.44l4.51-0.01l0.05,20.35C24.75,30.28,24.14,30.89,23.39,30.89z M5.77,24.75v-5.71h1.78
			c1.38,0,1.64,1.11,1.64,1.63v2.45c0,0.54-0.27,1.64-1.61,1.64H5.77z M13.26,21.24v1.03h-2.09v2.48h-1.04v-5.71h3.3v1.03h-2.26
			v1.16H13.26z M19.18,22.45c0.12-0.11,0.31-0.1,0.42,0.03l0.39,0.44c0.11,0.12,0.1,0.31-0.03,0.42l-2.34,2.05
			c-0.11,0.1-0.28,0.1-0.39,0l-2.34-2.05c-0.12-0.11-0.14-0.3-0.03-0.42l0.39-0.44c0.11-0.12,0.3-0.13,0.42-0.03l1.17,1.02v-4.23
			c0-0.16,0.13-0.3,0.3-0.3h0.59c0.16,0,0.3,0.13,0.3,0.3v4.23L19.18,22.45z"/>
	</g>
</g>
</svg>
