<?xml version="1.0" encoding="utf-8"?>
<!-- Generator: Adobe Illustrator 21.1.0, SVG Export Plug-In . SVG Version: 6.00 Build 0)  -->
<svg version="1.1" id="Layer_1" xmlns="http://www.w3.org/2000/svg" xmlns:xlink="http://www.w3.org/1999/xlink" x="0px" y="0px"
	 viewBox="0 0 147.8 74.1" style="enable-background:new 0 0 147.8 74.1;" xml:space="preserve">
<style type="text/css">
	.st0{fill:#001E62;}
	.st1{fill:#888B8D;}
	.st2{fill:#FFFFFF;}
	.st3{fill-rule:evenodd;clip-rule:evenodd;fill:#062D4A;}
	.st4{clip-path:url(#SVGID_2_);fill:none;}
	.st5{fill:#062D4A;}
	.st6{fill:#00B398;}
</style>
<g>
	<polygon class="st0" points="120.9,0 94.1,26.9 120.9,53.7 127.6,47 127.6,6.7 	"/>
	<path class="st0" d="M67.2,6.1c5.1,0,10,1.3,13.4,4.3L75,19.7c-1.7-1.5-4-2.8-7.2-2.8c-5.5,0-9.8,3.8-9.8,9.9c0,6,4.3,9.9,9.8,9.9
		c3.2,0,5.6-1.3,7.2-2.8l5.6,9.4c-3.3,3.1-8.4,4.3-13.4,4.3c-13.2,0-21.7-8.5-21.7-20.6C45.5,15,54.1,6.1,67.2,6.1"/>
	<path class="st0" d="M0,6.7V17h4.7v15.6c0,3.1-2,4.7-4.7,4.7v10.3c0.1,0,0.1,0,0.2,0c9.3,0,16.6-4.2,16.6-14.6V6.7H0z"/>
	<path class="st0" d="M23.5,6.7V17h4.7v15.6c0,3.1-2,4.7-4.7,4.7v10.3c0.1,0,0.1,0,0.2,0c9.3,0,16.6-4.2,16.6-14.6V6.7H23.5z"/>
	<path class="st1" d="M34,74.1c-3,0-3.9-2.5-3.9-3.7V64c0-1.2,0.8-3.6,3.9-3.6c3,0,3.9,2.3,3.9,3.7H36c0-1.6-1.4-1.9-2-1.9
		c-0.7,0-2.1,0.3-2.1,1.9v6.3c0,1.6,1.4,1.9,2.1,1.9c0.6,0,2.1-0.3,2.1-1.9v-2.2h-2.3v-1.8h4.1v4.1C37.9,71.6,37,74.1,34,74.1"/>
	<path class="st1" d="M46.2,73.9l-2.6-5.5h-1.8v5.5H40V60.5h4.1c3.1,0,3.7,2.5,3.7,3.7v0.6c0,1-0.4,2.8-2.3,3.5l2.7,5.7H46.2z
		 M46,64.2c0-1.6-1.3-1.9-2-1.9h-2.2v4.3h2.2c0.7,0,1.9-0.2,1.9-1.9V64.2z"/>
	<path class="st1" d="M53.8,74.1c-3.1,0-3.9-2.4-3.9-3.7v-9.9h1.8v9.9c0,1.7,1.4,1.9,2.1,1.9c0.7,0,2.1-0.3,2.1-1.9v-9.9h1.8v9.9
		C57.7,71.7,56.9,74.1,53.8,74.1"/>
	<path class="st1" d="M64,68.8h-2.3v5.1h-1.8V60.5h4c3.1,0,3.7,2.5,3.7,3.7v0.9C67.7,66.3,67.1,68.8,64,68.8 M65.8,64.2
		c0-1.6-1.2-1.9-1.9-1.9h-2.2V67H64c0.7,0,1.9-0.2,1.9-1.9V64.2z"/>
	<path class="st1" d="M73.4,74.1c-3,0-3.9-2.5-3.9-3.7V64c0-1.2,0.8-3.6,3.9-3.6c3,0,3.9,2.4,3.9,3.7v6.3
		C77.3,71.6,76.4,74.1,73.4,74.1 M75.4,64c0-1.6-1.4-1.9-2.1-1.9c-0.7,0-2.1,0.2-2.1,1.9v6.3c0,1.7,1.4,1.9,2.1,1.9
		c0.6,0,2.1-0.3,2.1-1.9V64z"/>
	<polygon class="st1" points="147.8,26.9 134.4,13.4 134.4,22.9 138.3,26.9 134.4,30.8 134.4,40.3 	"/>
</g>
</svg>
