<svg id="Layer_1" data-name="Layer 1" xmlns="http://www.w3.org/2000/svg" viewBox="0 0 300.78 118.47"><defs><style>.cls-1{fill:#919396;}</style></defs><title>2018</title><path class="cls-1" d="M75.56,106.21a7.06,7.06,0,0,1,2.11,5.19,6.53,6.53,0,0,1-2.11,5,7.37,7.37,0,0,1-5.19,1.95H12.8a7.39,7.39,0,0,1-5.35-2,7.18,7.18,0,0,1-2.11-5.43,8.26,8.26,0,0,1,2.27-5.51L43.78,66.15Q58.86,50.09,58.86,37.77A19.69,19.69,0,0,0,53.1,23.25,19.89,19.89,0,0,0,38.43,17.5a21.61,21.61,0,0,0-11.52,3.4A25.12,25.12,0,0,0,18,30.63,7.59,7.59,0,0,1,11.83,34a7.8,7.8,0,0,1-5.19-2.11A6.29,6.29,0,0,1,4.2,27.06a7.07,7.07,0,0,1,1.22-3.73,36.68,36.68,0,0,1,3.49-4.54A38.79,38.79,0,0,1,22.53,7.44,36.46,36.46,0,0,1,39.24,3.22,38.4,38.4,0,0,1,58,7.6a30.8,30.8,0,0,1,12.25,12,35.09,35.09,0,0,1,4.3,17.52q0,18.65-20.11,40.22L30,104.1H70.37a7.06,7.06,0,0,1,5.19,2.11" transform="translate(-4.2 -1.53)"/><path class="cls-1" d="M103.43,112.53Q94,105.08,89.23,91.94T84.45,61.61q0-17.19,4.78-30.33t14.19-20.6q9.4-7.46,22.7-7.46t22.7,7.46q9.4,7.46,14.19,20.6t4.78,30.33q0,17.19-4.78,30.33t-14.19,20.6q-9.41,7.46-22.7,7.46t-22.7-7.46m41.11-19.3Q151.1,82,151.11,61.61T144.54,30Q138,18.79,126.13,18.79T107.72,30q-6.57,11.19-6.57,31.62t6.57,31.62q6.57,11.19,18.41,11.19t18.41-11.19" transform="translate(-4.2 -1.53)"/><path class="cls-1" d="M214,7.34a7.7,7.7,0,0,1,2,5.43v98a7.27,7.27,0,0,1-2.43,5.52,8.47,8.47,0,0,1-6,2.27,7.9,7.9,0,0,1-5.84-2.27,7.51,7.51,0,0,1-2.27-5.52V26.4L185.17,35a7.38,7.38,0,0,1-4.05,1.14,7.16,7.16,0,0,1-5.52-2.51,8,8,0,0,1-2.27-5.43,6.85,6.85,0,0,1,1.14-3.73,9.38,9.38,0,0,1,2.92-2.92L203,6.13A12.66,12.66,0,0,1,208.68,5,7.4,7.4,0,0,1,214,7.34" transform="translate(-4.2 -1.53)"/><path class="cls-1" d="M268.77,61.91c-17.25,0-31.28-13.54-31.28-30.19s14-30.19,31.28-30.19S300,15.07,300,31.72s-14,30.19-31.28,30.19m0-46.43c-9.56,0-17.33,7.29-17.33,16.24S259.21,48,268.77,48s17.32-7.29,17.32-16.24-7.77-16.24-17.32-16.24" transform="translate(-4.2 -1.53)"/><path class="cls-1" d="M269.88,119c18.3-.52,33.66-14.66,35-33a35,35,0,0,0-8.52-25.64A36.15,36.15,0,0,0,271.49,48c-3.73-.29-14.25,1.11-20.53,4.51-4.45,2.41,4.93,7.12,12.16,8.87a72.47,72.47,0,0,0,7.35.65,22,22,0,0,1,15.24,7.56,20.93,20.93,0,0,1,5.12,15.34c-.88,11.81-11.44,20.74-23.59,19.88A22,22,0,0,1,252,97.22a21,21,0,0,1-3.65-21.65,7.07,7.07,0,0,0-12.85-5.9q-.14.31-.25.62a35.13,35.13,0,0,0,6.07,36.18,36.06,36.06,0,0,0,24.94,12.41c1.23.09,2.44.11,3.65.08" transform="translate(-4.2 -1.53)"/></svg>