<?xml version="1.0" encoding="utf-8"?>
<!-- Generator: Adobe Illustrator 21.1.0, SVG Export Plug-In . SVG Version: 6.00 Build 0)  -->
<svg version="1.1" id="Layer_1" xmlns="http://www.w3.org/2000/svg" xmlns:xlink="http://www.w3.org/1999/xlink" x="0px" y="0px"
	 viewBox="0 0 772.6 772" style="enable-background:new 0 0 772.6 772;" xml:space="preserve">
<style type="text/css">
	.st0{fill:#BABCBE;}
	.st1{fill:#CFD1D2;}
</style>
<title>Fecha gris</title>
<g>
	<path class="st0" d="M122.4,166.3C243.8,20.4,460.5,0.6,606.4,122l0,0c20,16.7,38.1,35.5,53.9,56.3l-56.7-8.1
		c-11.6-1.8-22.4,6.1-24.2,17.7s6.1,22.4,17.7,24.2l0.5,0.1l0,0l106.6,15.2c11.6,1.6,22.3-6.4,23.9-18c0.1-0.8,0.2-1.6,0.2-2.4
		l3.2-107.7c0.5-11.7-8.6-21.5-20.3-22s-21.5,8.6-22,20.3l0,0l0,0V98l-1.4,46.8c-16.2-20.2-34.5-38.8-54.4-55.4
		C469.6-46.9,226.2-24.6,89.9,139.3C29.7,211.6-2,303.3,0.8,397.4c0.3,11.7,10.1,20.9,21.8,20.5s20.9-10.1,20.5-21.8
		C40.6,312.4,68.8,230.6,122.4,166.3z"/>
	<path class="st1" d="M754.7,502.5c18.3-58.2,22.6-119.9,12.7-180.1c-2.1-11.5-13.2-19.1-24.7-16.9c-11.2,2.1-18.7,12.7-17.1,23.9
		c31.2,187.2-95.4,364.3-282.6,395.5c-137.8,22.9-275.8-39.8-349.1-158.7l55.1,13.6c11.3,2.8,22.8-4.1,25.6-15.5
		s-4.1-22.8-15.5-25.6l0,0l0,0L54.6,513c-11.4-2.8-22.8,4.2-25.6,15.5c-0.2,0.7-0.3,1.5-0.4,2.3l-14,106.8
		c-1.9,11.5,6,22.4,17.6,24.3s22.4-6,24.3-17.6c0-0.2,0.1-0.4,0.1-0.6c0-0.2,0-0.4,0.1-0.7l6.1-46.9c12.6,19.3,26.9,37.5,42.7,54.3
		c1.9,2,3.9,4.1,5.8,6.1c149.5,152.1,393.9,154.2,546,4.8C702.2,617.2,735.6,562.7,754.7,502.5L754.7,502.5z"/>
</g>
</svg>
