<svg id="Layer_1" data-name="Layer 1" xmlns="http://www.w3.org/2000/svg" viewBox="0 0 1043.84 760.07"><defs><style>.cls-1{fill:#e4e5e6;}</style></defs><title>Flecha fondo RS</title><path class="cls-1" d="M805.8,252.7c.1.1.2.1.2.2A465.66,465.66,0,0,1,977.2,778.1h60a522.37,522.37,0,0,0-198-571.8,28.59,28.59,0,1,0-33.4,46.4Z" transform="translate(-14.18 -18.03)"/><path class="cls-1" d="M693.8,135.5a16.38,16.38,0,0,0-2.1-2.5L591.8,27a28.65,28.65,0,0,0-41.7,39.3l43.5,46.1a526.37,526.37,0,0,0-105-.9C349.8,124.2,224.2,190.2,135,297.4S3.7,540,16.4,678.8a518.35,518.35,0,0,0,18.9,99.3h60A460.26,460.26,0,0,1,73.5,673.6C62.1,550,99.6,429.4,179,334S370.2,179.8,493.8,168.5a469.39,469.39,0,0,1,105.3,2.2l-61.9,46.5a28.61,28.61,0,1,0,33.2,46.6,10.62,10.62,0,0,0,1.1-.9L688,175.4A28.36,28.36,0,0,0,693.8,135.5Z" transform="translate(-14.18 -18.03)"/></svg>