<svg id="Layer_1" data-name="Layer 1" xmlns="http://www.w3.org/2000/svg" viewBox="0 0 500.18 587.01"><defs><style>.cls-1{opacity:0.75;}.cls-2{fill:#6d3826;}.cls-3{fill:#e31837;}</style></defs><title>Flecha roja-marron</title><g id="Layer_1-2" data-name="Layer 1"><g class="cls-1"><path class="cls-2" d="M504.94,294.11a249.76,249.76,0,0,0-111-202.53,11.79,11.79,0,0,0-13.12,19.6h0A226.18,226.18,0,0,1,481.36,294.61c2.59,125.15-96.76,228.7-221.91,231.29a226.65,226.65,0,0,1-55-5.61l35.26-22.82a11.79,11.79,0,0,0-12.81-19.8h0l-59.06,38.22a11.79,11.79,0,0,0-2.72,17.37l44.57,54.42a11.8,11.8,0,0,0,18.25-15l-23.14-28.25a250.54,250.54,0,0,0,50.07,5q2.74,0,5.48-.06c138-2.95,247.56-117.24,244.61-255.28Z" transform="translate(-4.82 -5)"/><path class="cls-3" d="M321.24,58.13,271.44,8.44a11.79,11.79,0,1,0-16.66,16.7h0l25.63,25.57a250.91,250.91,0,0,0-55.86.6C87.5,68-10,192.71,6.69,329.76A250,250,0,0,0,89,486.54a11.79,11.79,0,0,0,15.65-17.65h0C11.13,385.77,2.69,242.58,85.8,149.05A226.55,226.55,0,0,1,283.65,74.8l-33,26.4a11.79,11.79,0,0,0,14.73,18.42l54.93-43.94a11.79,11.79,0,0,0,1-17.56Z" transform="translate(-4.82 -5)"/></g></g></svg>