<svg id="Layer_1" data-name="Layer 1" xmlns="http://www.w3.org/2000/svg" viewBox="0 0 580.6 378.23"><defs><style>.cls-1{fill:#7c3b1a;}.cls-2{fill:#d71f32;}</style></defs><title>Logo AC Lindley</title><path class="cls-1" d="M570.4,215.4h-9.7v23.9a13.31,13.31,0,0,0,1.3,6.5c2.9,6.1,9.2,7.3,16.2,7.3h13.5V247h-12c-3.1,0-5.7-.4-7.6-2.8a7.59,7.59,0,0,1-1.7-5.2Z" transform="translate(-11.4 -20.07)"/><path class="cls-1" d="M518.3,253l13.4-33s2-4.7,6.6-4.7,6.5,4.7,6.5,4.7L559,253h-9.4l-3.4-8.5H534.6l2.5-6.6h6.4l-5.2-13.1-4.9,13.1-.7,1.8-1.3,3.3-.7,2-3.2,8Z" transform="translate(-11.4 -20.07)"/><path class="cls-2" d="M231.7,380.5a3.4,3.4,0,0,1,.1,1c0,3.4-3.9,4.1-6.7,4.1-4.9,0-19.6-2.6-32.5-5.9,14.8-10.4,17.1-13.1,17.1-14.7V338.7c0-3.3,2.1-5.8,6-5.8,2.2,0,4.5,1.3,6.2,4.3l1.2-.6a9.12,9.12,0,0,0-7.8-4.9c-8,0-19.1,11-26,11-2.3,0-4-1-4.5-5.1h-1.2c0,5.5,3.3,6.4,7.8,6.4,1.5,0,2.2.5,2.2,1.6v31a3.28,3.28,0,0,1-2.3,3l-5.4-1.6a100.72,100.72,0,0,1-8.5,9.9l.6.7a12.36,12.36,0,0,1,3.9-.9c6.1,0,35.9,6.6,42.8,7.6l-1,2.7,1.1.3c2.2-7.3,8.3-12.5,8.3-16.5a2.38,2.38,0,0,0-.3-1.2Zm-30-38.8c0-2.9,1-4,3.8-5.4v31.5c0,1-1.4,2.6-3.8,4Z" transform="translate(-11.4 -20.07)"/><path class="cls-2" d="M233.2,349.2a3.7,3.7,0,0,1,1.1.5,1.69,1.69,0,0,1,.3,1v24.8a1.69,1.69,0,0,1-.3,1,1.61,1.61,0,0,1-1.1.5v.7h9.1V377a2.22,2.22,0,0,1-1.1-.5,2,2,0,0,1-.3-1.1V350.7a1.69,1.69,0,0,1,.3-1,1.61,1.61,0,0,1,1.1-.5v-.7h-9.1Z" transform="translate(-11.4 -20.07)"/><path class="cls-2" d="M273.9,349.2a3.7,3.7,0,0,1,1.1.5,1.69,1.69,0,0,1,.3,1v17.4l-16.1-16.8a1.74,1.74,0,0,1-.6-1.2c0-.5.3-.8.9-1v-.7h-10v.7a3.7,3.7,0,0,1,1.1.5,1.69,1.69,0,0,1,.3,1v24.8a1.69,1.69,0,0,1-.3,1,1.61,1.61,0,0,1-1.1.5v.7h8.6V377a3.7,3.7,0,0,1-1.1-.5,1.69,1.69,0,0,1-.3-1V357.7l16.4,16.9c.7.7,1,1.2,1,1.5q0,.75-.9.9v.7h9.2V377a3.7,3.7,0,0,1-1.1-.5,1.69,1.69,0,0,1-.3-1V350.7a1.69,1.69,0,0,1,.3-1,1.61,1.61,0,0,1,1.1-.5v-.7h-8.6Z" transform="translate(-11.4 -20.07)"/><path class="cls-2" d="M314.2,349.7a23,23,0,0,0-8.2-1.2H289.7v.7a3.7,3.7,0,0,1,1.1.5,1.69,1.69,0,0,1,.3,1v24.7a1.69,1.69,0,0,1-.3,1,1.61,1.61,0,0,1-1.1.5v.7H306a30.51,30.51,0,0,0,6.7-.7,13.5,13.5,0,0,0,4.6-2.4c3.1-2.6,4.7-6.5,4.7-11.5a16.09,16.09,0,0,0-1.6-7.5,12.09,12.09,0,0,0-6.2-5.8m-2.9,22.1a12.71,12.71,0,0,1-5.8,1h-8V353.3h8a12.43,12.43,0,0,1,4.7.6,6.14,6.14,0,0,1,3,2c1.5,1.7,2.2,4.1,2.2,7.2,0,4.3-1.4,7.3-4.1,8.7" transform="translate(-11.4 -20.07)"/><path class="cls-2" d="M355.1,372.6a1.69,1.69,0,0,1-1,.3h-18V350.7a1.69,1.69,0,0,1,.3-1,1.39,1.39,0,0,1,1-.5v-.7h-9.1v.7a2.34,2.34,0,0,1,1,.5,1.69,1.69,0,0,1,.3,1v24.7a1.69,1.69,0,0,1-.3,1,1.59,1.59,0,0,1-1,.5v.7H354a1.69,1.69,0,0,1,1,.3,5.49,5.49,0,0,1,.5,1.7h.7v-8.2h-.7a1.59,1.59,0,0,1-.4,1.2" transform="translate(-11.4 -20.07)"/><path class="cls-2" d="M388.9,372.6a1.69,1.69,0,0,1-1,.3H369.1v-8H381a1.69,1.69,0,0,1,1,.3,2.66,2.66,0,0,1,.6,1h.7v-7.4h-.7a2.38,2.38,0,0,1-.6,1.1,1.69,1.69,0,0,1-1,.3H369.1v-6.9h18.3a1.69,1.69,0,0,1,1,.3,2.35,2.35,0,0,1,.5,1h.7V347H389a3.7,3.7,0,0,1-.5,1.1,1.69,1.69,0,0,1-1,.3H361.4v.7a3.7,3.7,0,0,1,1.1.5,1.69,1.69,0,0,1,.3,1v24.7a1.69,1.69,0,0,1-.3,1,1.61,1.61,0,0,1-1.1.5v.7H388a1.69,1.69,0,0,1,1,.3,11.51,11.51,0,0,1,.6,1.7h.7v-8.2h-.7a3.16,3.16,0,0,1-.7,1.3" transform="translate(-11.4 -20.07)"/><path class="cls-2" d="M414.5,348.5v.7a1.61,1.61,0,0,1,1.1.5,1.27,1.27,0,0,1,.4.9,4,4,0,0,1-.9,1.7l-5.5,7.8-5.3-7.8a5.56,5.56,0,0,1-.9-1.7c0-.8.5-1.2,1.4-1.3v-.7H393.3v.7a3.63,3.63,0,0,1,1.7.7,13.65,13.65,0,0,1,1.9,2.3l9.4,13.3v10a1.69,1.69,0,0,1-.3,1,1.61,1.61,0,0,1-1.1.5v.7h9.2V377a2.22,2.22,0,0,1-1.1-.5,1.69,1.69,0,0,1-.3-1v-10l9.4-13.3a13.66,13.66,0,0,1,1.9-2.3,2.84,2.84,0,0,1,1.7-.7v-.7Z" transform="translate(-11.4 -20.07)"/><path class="cls-2" d="M214.7,101.2l44-44c5.4-5.4,11,0,11,0l12.2,12.2,21.7-21.8C296,40,289.3,33.4,285.9,29.9c-22-22-43.8-.2-43.8-.2l-55,55c-22.2,22.2-.2,44.2-.2,44.2l52.2,52.2s2.8,2.8,6.1-.5c1.2-1.2,2.3-2.3,2.3-7.8V145l-32.8-32.8c-5.7-5.6-.1-11,0-11" transform="translate(-11.4 -20.07)"/><path class="cls-2" d="M332.9,76.9,311.1,98.7l2.5,2.4c5.4,5.4,0,11,0,11l-33.3,33.3v26c-.1,5.7,1.1,7.6,2.5,8.9,3.3,3.3,6.2.4,6.2.4l52.1-52.1c21.8-21.8-.2-43.8-.2-43.8l-8-7.9" transform="translate(-11.4 -20.07)"/><path class="cls-1" d="M424.5,125.6c-1.2-1.2-2.3-2.3-7.8-2.3H388.9l-32.8,32.9c-5.6,5.6-11,0-11,0l-12-12-22,22,17.5,17.5c22.2,22.2,44.2.2,44.2.2L425,131.7c0-.1,2.7-2.8-.5-6.1" transform="translate(-11.4 -20.07)"/><path class="cls-1" d="M303.6,114.6l-2.5-2.4c-5.4-5.4,0-11,0-11l6.2-6.2,21.8-21.8,16-16c5.4-5.4,11,0,11,0l33.3,33.3h26c5.7.1,7.5-1.2,8.9-2.5,3.3-3.3.4-6.2.4-6.2l-52.1-52c-21.8-21.8-43.8.2-43.8.2L307.3,51.5,285.5,73.3,273.8,85c-22,22-.2,43.8-.2,43.8l8,7.9Z" transform="translate(-11.4 -20.07)"/><path class="cls-2" d="M113.4,253.1H130v-6.7l-15.3-.2c-5.1,0-7-5.8-7.3-11-.4-5.6,1.2-12.6,6.9-12.6h15.6v-7.1h-15a16.68,16.68,0,0,0-7.3,1.4c-12.8,5.2-12.4,31.5.8,35.5a14.09,14.09,0,0,0,5,.7" transform="translate(-11.4 -20.07)"/><path class="cls-2" d="M11.6,253.1,25,220.2s2-4.7,6.6-4.7,6.5,4.6,6.5,4.6l14.2,33H43l-3.4-8.5H28l2.5-6.6H37l-5.2-13.1L26.9,238l-.7,1.8-1.3,3.3-.7,2-3.3,8Z" transform="translate(-11.4 -20.07)"/><path class="cls-2" d="M56.9,215.3H83.8s9.6.3,10.4,11.3c0,0,.7,9.1-9.4,11.2l10.5,15.3H84.8l-9.7-14.6H69.7l2.4-6.1h5.7s7-.2,7.1-5.6-6.7-5.2-6.7-5.2H65.9V253H57V215.3" transform="translate(-11.4 -20.07)"/><path class="cls-2" d="M134.6,253,148,220s2-4.7,6.6-4.7,6.5,4.7,6.5,4.7l14.2,33H166l-3.4-8.5H151l2.5-6.6h6.4l-5.2-13.1-4.9,13.1-.7,1.8-1.3,3.4-.7,2-3.2,8h-9.3Z" transform="translate(-11.4 -20.07)"/><polygon class="cls-1" points="474.2 201.93 487.9 201.93 487.9 233.03 496.6 233.03 496.6 201.93 510.6 201.93 510.6 195.53 474.2 195.53 474.2 201.93"/><polygon class="cls-1" points="430 232.93 438.9 232.93 438.7 205.53 457 233.13 468.9 233.13 468.9 195.33 459.8 195.33 459.8 223.53 442 195.33 429.9 195.33 430 232.93"/><path class="cls-1" d="M417.9,252.8h18.3v-6.5H419.7a7.34,7.34,0,0,1-5.9-3,7.6,7.6,0,0,1-2.2-5.7h24.5V231H411.4a8.43,8.43,0,0,1,7.9-9H436v-6.6H419a17.32,17.32,0,0,0-9.2,2.1c-11.5,6.1-11.7,27.8,0,33.5a17.45,17.45,0,0,0,8.1,1.8" transform="translate(-11.4 -20.07)"/><polygon class="cls-1" points="346 232.93 355 232.93 354.8 205.53 373 233.13 385 233.13 385 195.33 375.8 195.33 375.8 223.53 358 195.33 346 195.33 346 232.93"/><polygon class="cls-1" points="289.6 201.93 303.4 201.93 303.4 233.03 312.1 233.03 312.1 201.93 326.1 201.93 326.1 195.53 289.6 195.53 289.6 201.93"/><rect class="cls-1" x="331" y="195.53" width="9.4" height="37.6"/><polygon class="cls-1" points="245.4 232.93 254.3 232.93 254.2 205.53 272.4 233.13 284.3 233.13 284.3 195.33 275.2 195.33 275.2 223.53 257.4 195.33 245.3 195.33 245.4 232.93"/><path class="cls-1" d="M252.2,234.2c-.4-12.1-4.2-19.8-20.5-19.8-14.6,0-20.8,8.1-20.8,19.3,0,14.7,7.6,20.3,21,20.3,10.9.1,20.8-4,20.3-19.8m-20,13.1c-10.6.1-11.7-6.8-11.8-13.3,0-6.1,2.8-12.6,11-12.8s11.4,5.9,11.4,12.8-1.7,13.3-10.6,13.3" transform="translate(-11.4 -20.07)"/><path class="cls-1" d="M190.8,253.1h16.6v-6.7l-15.3-.2c-5.1,0-7-5.8-7.3-11-.4-5.6,1.2-12.6,6.9-12.6h15.6v-7.1h-15a16,16,0,0,0-7.2,1.4c-12.8,5.2-12.4,31.5.9,35.5a12.42,12.42,0,0,0,4.8.7" transform="translate(-11.4 -20.07)"/><rect class="cls-1" y="271.33" width="580.6" height="2.2"/></svg>