<svg id="Layer_1" data-name="Layer 1" xmlns="http://www.w3.org/2000/svg" viewBox="0 0 35.01 34.96"><defs><style>.cls-1{fill:#fff;}</style></defs><title>Negocio icono21</title><path class="cls-1" d="M16.82,8.88h3.5A4.09,4.09,0,0,1,24.4,13v1.77H12.73V13a4.09,4.09,0,0,1,4.08-4.08M15.65,4.79a2.92,2.92,0,1,1,2.92,2.92h0a2.92,2.92,0,0,1-2.92-2.92M11.57,13v2.33a.58.58,0,0,0,.58.58H25a.58.58,0,0,0,.58-.58V13a5.26,5.26,0,0,0-4.26-5.15,4.08,4.08,0,1,0-5.76-.27l.27.27A5.26,5.26,0,0,0,11.57,13" transform="translate(-1.06 -0.75)"/><path class="cls-1" d="M2.23,32.79a4.09,4.09,0,0,1,4.08-4.08h3.5a4.09,4.09,0,0,1,4.08,4.08v1.75H2.23Zm2.92-8.17a2.92,2.92,0,1,1,2.92,2.92h0a2.92,2.92,0,0,1-2.92-2.92M1.65,35.71H14.48a.58.58,0,0,0,.58-.58h0V32.79a5.26,5.26,0,0,0-4.26-5.15A4.08,4.08,0,1,0,5,27.37l.27.27a5.26,5.26,0,0,0-4.25,5.15v2.33a.58.58,0,0,0,.58.58h0" transform="translate(-1.06 -0.75)"/><path class="cls-1" d="M34.9,34.54H23.24V32.79a4.09,4.09,0,0,1,4.08-4.08h3.5a4.09,4.09,0,0,1,4.08,4.08Zm-8.75-9.92a2.92,2.92,0,1,1,2.92,2.92h0a2.92,2.92,0,0,1-2.92-2.92m5.66,3A4.08,4.08,0,1,0,26,27.35l.27.27a5.26,5.26,0,0,0-4.25,5.15V35.1a.58.58,0,0,0,.58.58H35.49a.58.58,0,0,0,.58-.58h0V32.79a5.26,5.26,0,0,0-4.25-5.15" transform="translate(-1.06 -0.75)"/><path class="cls-1" d="M3.41,19.4a5,5,0,0,0,.1,1.21l1.16-.14c0-.37-.07-.74-.09-1.12Z" transform="translate(-1.06 -0.75)"/><path class="cls-1" d="M3.41,18.19H4.57a4.71,4.71,0,0,1,.09-1.12L3.51,17c0,.4-.08.8-.09,1.21" transform="translate(-1.06 -0.75)"/><path class="cls-1" d="M9.37,6.73c-.32.24-.63.5-.94.77l.78.87c.28-.25.57-.49.86-.71Z" transform="translate(-1.06 -0.75)"/><path class="cls-1" d="M4.37,13.45l1.09.41a8.36,8.36,0,0,1,.44-1l-1.06-.5c-.17.36-.33.74-.47,1.12" transform="translate(-1.06 -0.75)"/><path class="cls-1" d="M3.7,15.78,4.84,16c.07-.36.16-.73.26-1.09L4,14.61c-.11.39-.21.78-.29,1.18" transform="translate(-1.06 -0.75)"/><path class="cls-1" d="M8.42,9.15l-.85-.8c-.28.29-.55.6-.8.91l.91.73c.23-.29.48-.57.74-.84" transform="translate(-1.06 -0.75)"/><path class="cls-1" d="M10.37,6,11,7c.32-.2.64-.39,1-.57l-.55-1a8.09,8.09,0,0,0-1,.62" transform="translate(-1.06 -0.75)"/><path class="cls-1" d="M5.4,11.26l1,.58a10.75,10.75,0,0,1,.6-.95l-1-.66c-.23.33-.44.68-.64,1" transform="translate(-1.06 -0.75)"/><path class="cls-1" d="M15.8,32.52l-.23,1.14c.39.08.8.14,1.2.19l.14-1.16a5.16,5.16,0,0,1-1.1-.18" transform="translate(-1.06 -0.75)"/><path class="cls-1" d="M21.37,32.51q-.54.1-1.11.18l.14,1.16a6.12,6.12,0,0,0,1.2-.19Z" transform="translate(-1.06 -0.75)"/><path class="cls-1" d="M19.19,34V32.79H18.07V34h1.21" transform="translate(-1.06 -0.75)"/><path class="cls-1" d="M27.92,8.37c.28.25.55.51.8.78l.85-.8c-.28-.29-.57-.58-.87-.85Z" transform="translate(-1.06 -0.75)"/><path class="cls-1" d="M29.46,10c.23.29.46.59.67.9l1-.66c-.23-.33-.47-.66-.72-1Z" transform="translate(-1.06 -0.75)"/><path class="cls-1" d="M33.72,19.4V18.19H32.56v1.12Z" transform="translate(-1.06 -0.75)"/><path class="cls-1" d="M30.73,11.84c.19.32.36.66.52,1l1.06-.5c-.17-.36-.36-.73-.56-1.08Z" transform="translate(-1.06 -0.75)"/><path class="cls-1" d="M31.68,13.87c.13.35.25.71.35,1.06l1.12-.32c-.11-.39-.24-.78-.38-1.15Z" transform="translate(-1.06 -0.75)"/><path class="cls-1" d="M32.29,16c.07.36.13.74.18,1.11L33.63,17a6.24,6.24,0,0,0-.19-1.2Z" transform="translate(-1.06 -0.75)"/><path class="cls-1" d="M27.77,6.73a11.89,11.89,0,0,0-1-.7l-.63,1c.31.2.62.42.92.64Z" transform="translate(-1.06 -0.75)"/><path class="cls-1" d="M24.64,4.89,24.17,6c.34.15.68.31,1,.49l.55-1C25.36,5.3,25,5.12,24.63,5" transform="translate(-1.06 -0.75)"/></svg>