<svg id="Layer_1" data-name="Layer 1" xmlns="http://www.w3.org/2000/svg" viewBox="0 0 31 30.99"><defs><style>.cls-1{fill:#fff;}</style></defs><title>Negocio icono14</title><path class="cls-1" d="M3,12.62V30.44H1.7V9.92L15.93,2.07l14.24,8.35v20h-1.3V12.62a.63.63,0,0,0-.63-.63H3.63a.63.63,0,0,0-.63.63H3M31.12,9.51,16.26.8a.63.63,0,0,0-.62,0L.76,9a.63.63,0,0,0-.33.55V31.08a.63.63,0,0,0,.63.63H3.63a.63.63,0,0,0,.63-.63V13.25H27.61V31.08a.63.63,0,0,0,.63.63H30.8a.63.63,0,0,0,.63-.63v-21a.64.64,0,0,0-.31-.55" transform="translate(-0.43 -0.72)"/><path class="cls-1" d="M21.21,23.72h1.31V25H21.21Zm-.66,2.62h2.62a.66.66,0,0,0,.66-.66v-2h1.31v6.56H18.59V23.72H19.9v2a.66.66,0,0,0,.66.66m0-7.88h2.62a.66.66,0,0,0,.66-.66v-2h1.31V22.4H18.59V15.84H19.9v2a.65.65,0,0,0,.64.66h0m.66-2.62h1.31v1.31H21.21Zm-8.53,10.5h2.62a.66.66,0,0,0,.66-.66v-2h1.31v6.56H10.71V23.72H12v2a.66.66,0,0,0,.66.66m.66-2.62h1.31V25H13.34Zm12.47-9.19H17.93a.66.66,0,0,0-.66.66V22.4H10.06a.66.66,0,0,0-.66.66v7.87a.66.66,0,0,0,.66.66H25.81a.66.66,0,0,0,.66-.66V15.18a.66.66,0,0,0-.66-.66" transform="translate(-0.43 -0.72)"/></svg>