<svg id="Layer_1" data-name="Layer 1" xmlns="http://www.w3.org/2000/svg" viewBox="0 0 17.9 33.3"><defs><style>.cls-1{fill:#fff;}</style></defs><title>Negocio icono16</title><path class="cls-1" d="M15.4.6H3.3A2.9,2.9,0,0,0,.4,3.5V31a2.9,2.9,0,0,0,2.9,2.9H15.4A2.9,2.9,0,0,0,18.3,31V3.5A3,3,0,0,0,15.4.6ZM10.8,31a1.5,1.5,0,1,1-1.5-1.5A1.54,1.54,0,0,1,10.8,31Zm-4,1.5H3.3A1.54,1.54,0,0,1,1.8,31V29.4H7a2.92,2.92,0,0,0-.2,3.1Zm4.9-3h5.2V31a1.54,1.54,0,0,1-1.5,1.5H11.8a2.55,2.55,0,0,0-.1-3ZM1.7,5.6V3.5A1.54,1.54,0,0,1,3.2,2H15.3a1.54,1.54,0,0,1,1.5,1.5V5.6ZM16.9,6.9V28.1H1.7V6.9Z" transform="translate(-0.4 -0.6)"/><path class="cls-1" d="M4.9,17.3H7.1a1.79,1.79,0,0,0,1.8-1.8V13.3a1.79,1.79,0,0,0-1.8-1.8H4.9a1.79,1.79,0,0,0-1.8,1.8v2.2A1.79,1.79,0,0,0,4.9,17.3Zm2.6-1.7a.43.43,0,0,1-.4.4H4.9a.43.43,0,0,1-.4-.4V13.4a.43.43,0,0,1,.4-.4H7.1a.43.43,0,0,1,.4.4Z" transform="translate(-0.4 -0.6)"/><path class="cls-1" d="M11.5,17.3h2.2a1.79,1.79,0,0,0,1.8-1.8V13.3a1.79,1.79,0,0,0-1.8-1.8H11.5a1.79,1.79,0,0,0-1.8,1.8v2.2A1.79,1.79,0,0,0,11.5,17.3Zm2.6-1.7a.43.43,0,0,1-.4.4H11.5a.43.43,0,0,1-.4-.4V13.4a.43.43,0,0,1,.4-.4h2.2a.43.43,0,0,1,.4.4Z" transform="translate(-0.4 -0.6)"/><path class="cls-1" d="M4.9,23.9H7.1a1.79,1.79,0,0,0,1.8-1.8V20a1.79,1.79,0,0,0-1.8-1.8H4.9A1.79,1.79,0,0,0,3.1,20v2.2A1.77,1.77,0,0,0,4.9,23.9Zm2.6-1.8a.43.43,0,0,1-.4.4H4.9a.43.43,0,0,1-.4-.4h0V20a.43.43,0,0,1,.4-.4H7.1a.43.43,0,0,1,.4.4h0Z" transform="translate(-0.4 -0.6)"/><path class="cls-1" d="M11.5,23.9h2.2a1.79,1.79,0,0,0,1.8-1.8V20a1.79,1.79,0,0,0-1.8-1.8H11.5A1.79,1.79,0,0,0,9.7,20v2.2A1.77,1.77,0,0,0,11.5,23.9Zm2.6-1.8a.43.43,0,0,1-.4.4H11.5a.43.43,0,0,1-.4-.4h0V20a.43.43,0,0,1,.4-.4h2.2a.43.43,0,0,1,.4.4h0Z" transform="translate(-0.4 -0.6)"/></svg>