<svg id="Layer_1" data-name="Layer 1" xmlns="http://www.w3.org/2000/svg" viewBox="0 0 31 29.44"><defs><style>.cls-1{fill:#fff;}</style></defs><title>Negocio icono</title><rect class="cls-1" x="5.42" y="7.01" width="1.55" height="1.55"/><rect class="cls-1" x="5.42" y="10.12" width="1.55" height="1.55"/><rect class="cls-1" x="8.52" y="7.01" width="1.55" height="1.55"/><rect class="cls-1" x="8.52" y="10.12" width="1.55" height="1.55"/><rect class="cls-1" x="13.17" y="7.01" width="1.55" height="1.55"/><rect class="cls-1" x="13.17" y="10.12" width="1.55" height="1.55"/><rect class="cls-1" x="16.27" y="7.01" width="1.55" height="1.55"/><rect class="cls-1" x="16.27" y="10.12" width="1.55" height="1.55"/><rect class="cls-1" x="20.92" y="7.01" width="1.55" height="1.55"/><rect class="cls-1" x="20.92" y="10.12" width="1.55" height="1.55"/><rect class="cls-1" x="24.02" y="7.01" width="1.55" height="1.55"/><rect class="cls-1" x="24.02" y="10.12" width="1.55" height="1.55"/><path class="cls-1" d="M29.44,3.36H1.54V1.81h27.9Zm-1.55,24.8H19.37V22h.78a.78.78,0,0,0,.78-.78h0v-3.1a.78.78,0,0,0-.78-.78h-14a.78.78,0,0,0-.78.78h0v3.1a.78.78,0,0,0,.78.78H7v6.2H3.09V4.91h24.8Zm-10.07,0H13.94V22h3.88ZM7,18.86H19.4v1.55H7Zm5.43,9.3H8.52V22H12.4ZM30.22.26H.77A.78.78,0,0,0,0,1V4.1a.78.78,0,0,0,.78.78h.78v24a.77.77,0,0,0,.76.78H29.44V4.91h.78A.78.78,0,0,0,31,4.14V1a.78.78,0,0,0-.78-.78h0" transform="translate(0 -0.22)"/></svg>