<svg id="Layer_1" data-name="Layer 1" xmlns="http://www.w3.org/2000/svg" viewBox="0 0 37.01 27.96"><defs><style>.cls-1{fill:#fff;}</style></defs><title>Negocio icono18</title><path class="cls-1" d="M15.14,2.39h7.43V5.92H15.14Zm-.84,5.2h9.11a.84.84,0,0,0,.84-.84h0V1.56a.84.84,0,0,0-.84-.84h-9.1a.84.84,0,0,0-.84.84h0v5.2a.84.84,0,0,0,.84.84h0" transform="translate(-0.36 -0.72)"/><path class="cls-1" d="M22.58,27H15.14V23.51h7.43Zm.84-5.2H14.31a.84.84,0,0,0-.84.84h0v5.2a.84.84,0,0,0,.84.84h9.11a.84.84,0,0,0,.84-.84h0v-5.2a.84.84,0,0,0-.84-.84h0" transform="translate(-0.36 -0.72)"/><path class="cls-1" d="M35.69,27H28.25V23.51h7.43Zm.84-5.2H27.42a.84.84,0,0,0-.84.84h0v5.2a.84.84,0,0,0,.84.84h9.11a.84.84,0,0,0,.84-.84h0v-5.2a.84.84,0,0,0-.84-.84h0" transform="translate(-0.36 -0.72)"/><path class="cls-1" d="M9.47,27H2V23.51H9.47Zm.84-5.2H1.2a.84.84,0,0,0-.84.84h0v5.2a.84.84,0,0,0,.84.84h9.1a.84.84,0,0,0,.84-.84h0v-5.2a.84.84,0,0,0-.84-.84h0" transform="translate(-0.36 -0.72)"/><path class="cls-1" d="M18,17.18v3a.84.84,0,1,0,1.67,0v-3a.84.84,0,1,0-1.67,0" transform="translate(-0.36 -0.72)"/><path class="cls-1" d="M5.75,21a.84.84,0,0,0,.84-.84h0V15.55H31.13v4.61a.84.84,0,0,0,1.67,0V14.71a.84.84,0,0,0-.84-.84H19.7V9.26a.84.84,0,0,0-1.67,0v4.61H5.75a.84.84,0,0,0-.84.84h0v5.45a.84.84,0,0,0,.84.84h0" transform="translate(-0.36 -0.72)"/></svg>