<svg id="Layer_1" data-name="Layer 1" xmlns="http://www.w3.org/2000/svg" viewBox="0 0 27.3 37.32"><defs><style>.cls-1{fill:#fff;}</style></defs><title>Negocio icono22</title><path class="cls-1" d="M26.87,12.5l-1.73-2.1a1.7,1.7,0,0,1-.39-.94l-.26-2.72a3.12,3.12,0,0,0-2.8-2.8L19,3.68a1.75,1.75,0,0,1-1-.39L15.92,1.55a3.11,3.11,0,0,0-4,0L9.85,3.29a1.74,1.74,0,0,1-.94.39L6.2,3.94a3.12,3.12,0,0,0-2.8,2.8L3.14,9.46a1.72,1.72,0,0,1-.39.94L1,12.5a3.12,3.12,0,0,0,0,4l1.74,2.11a1.73,1.73,0,0,1,.39.94l.26,2.72A3.12,3.12,0,0,0,6.2,25l1.47.14-3.88,9.3a.86.86,0,0,0,1,1.16l3.34-.94,1.67,3a.86.86,0,0,0,.75.44h0a.86.86,0,0,0,.75-.53l4.15-9.92a3.23,3.23,0,0,0,.38-.27L18,25.68a1.71,1.71,0,0,1,.75-.36L22.4,34,20,33.3a1.27,1.27,0,0,0-1.46.61l-1.2,2.18-1.66-4a.69.69,0,0,0-1.31.43l0,.1,2.08,5a.86.86,0,0,0,.75.52h0A.86.86,0,0,0,18,37.7l1.67-3,3.34.94a.86.86,0,0,0,1-1.16l-3.88-9.26L21.69,25a3.12,3.12,0,0,0,2.8-2.8l.26-2.72a1.71,1.71,0,0,1,.39-.94l1.74-2.11A3.12,3.12,0,0,0,26.87,12.5ZM9.1,25.32a1.73,1.73,0,0,1,.75.36L12,27.42a3.12,3.12,0,0,0,1.9.71l-3.33,8-1.2-2.18a1.26,1.26,0,0,0-1.11-.66,1.3,1.3,0,0,0-.35,0L5.48,34Zm3.74,1-2.11-1.74a3.1,3.1,0,0,0-1.68-.7l-2.72-.26A1.73,1.73,0,0,1,4.77,22.1l-.26-2.72a3.1,3.1,0,0,0-.7-1.68L2.07,15.59a1.74,1.74,0,0,1,0-2.21l1.74-2.11a3.09,3.09,0,0,0,.7-1.68l.26-2.72A1.74,1.74,0,0,1,6.33,5.31L9.05,5a3.09,3.09,0,0,0,1.68-.7l2.11-1.74a1.74,1.74,0,0,1,2.21,0L17.16,4.3a3.09,3.09,0,0,0,1.68.7l2.72.26a1.74,1.74,0,0,1,1.56,1.56l.26,2.72a3.11,3.11,0,0,0,.7,1.68l1.74,2.11a1.74,1.74,0,0,1,0,2.21L24.07,17.7a3.12,3.12,0,0,0-.7,1.68l-.26,2.72a1.74,1.74,0,0,1-1.56,1.56l-2.72.26a3.11,3.11,0,0,0-1.68.7L15,26.36a1.73,1.73,0,0,1-2.16,0Z" transform="translate(-0.27 -0.82)"/><path class="cls-1" d="M22.65,14.48a8.72,8.72,0,0,0-8.71-8.71,8.86,8.86,0,0,0-1.11.07.69.69,0,0,0-.6.77h0a.7.7,0,0,0,.77.6,7.18,7.18,0,0,1,.94-.06,7.32,7.32,0,1,1-3,.64.69.69,0,0,0-.57-1.25,8.71,8.71,0,1,0,12.27,8Z" transform="translate(-0.27 -0.82)"/></svg>