<svg id="Layer_1" data-name="Layer 1" xmlns="http://www.w3.org/2000/svg" viewBox="0 0 32.22 32.09"><defs><style>.cls-1{fill:#fff;}</style></defs><title>Negocio icono17</title><path class="cls-1" d="M2.61,17.61h.24a22.49,22.49,0,0,0,7.85-1.73,34.8,34.8,0,0,0,8.12-4.58,47.74,47.74,0,0,0,8.35-8.12l.19,1.34a.7.7,0,0,0,.69.6h.1a.69.69,0,0,0,.59-.78h0l-.42-3a.69.69,0,0,0-.78-.59h0l-3.3.5a.69.69,0,0,0,.21,1.37L26,2.39a46.44,46.44,0,0,1-8,7.78,33.55,33.55,0,0,1-7.77,4.4,20.24,20.24,0,0,1-7.58,1.65.72.72,0,0,0-.5.18.7.7,0,0,0,.43,1.21Z" transform="translate(-1.37 -0.74)"/><path class="cls-1" d="M27,25.21V23.4a2,2,0,0,1,.71.23.84.84,0,0,0,.37.12c.39,0,.57-.46.57-.69,0-.59-1-.8-1.64-.84v-.15a.41.41,0,0,0-.42-.36.39.39,0,0,0-.41.36v.18a2,2,0,0,0-1.9,2c0,1.33,1,1.74,1.9,2v2.12a1.9,1.9,0,0,1-1-.51.78.78,0,0,0-.47-.25.7.7,0,0,0-.58.69c0,.58.88,1.24,2.08,1.3v.19a.39.39,0,0,0,.41.36A.41.41,0,0,0,27,29.8v-.23a2,2,0,0,0,1.82-2.16h0C28.84,26,27.92,25.54,27,25.21Zm.57,2.31a.79.79,0,0,1-.63.83V26.6a1,1,0,0,1,.65.92Zm-2.06-3.39c0-.37.24-.6.71-.69v1.49c-.46-.21-.69-.4-.69-.8Z" transform="translate(-1.37 -0.74)"/><path class="cls-1" d="M31.57,20.91a6.92,6.92,0,0,0-1.48-1.13V12.49a1.4,1.4,0,0,0-1.4-1.4h-4.5a1.4,1.4,0,0,0-1.4,1.4V20a7,7,0,0,0-1.45,10.4,7.09,7.09,0,0,0,1.11,1H19.38V17.66a1.4,1.4,0,0,0-1.4-1.4h-4.5a1.4,1.4,0,0,0-1.4,1.4V31.44H8.67v-9.1a1.4,1.4,0,0,0-1.4-1.4H2.77a1.4,1.4,0,0,0-1.4,1.4v9.22a1.22,1.22,0,0,0,1.17,1.27H27.59a5.55,5.55,0,0,0,2.88-1.16,7.08,7.08,0,0,0,1.08-.89,7,7,0,0,0,0-9.88ZM7.28,22.34v9.1H2.76V22.33Zm6.19,9.1V17.65H18V31.44Zm13.79,0H25.71a5.59,5.59,0,0,1-1.86-.67h0a5.67,5.67,0,0,1-1.15-.88,5.6,5.6,0,0,1,1.3-9h0a5.71,5.71,0,0,1,4.65-.23h0l.21.09h.08A5.6,5.6,0,0,1,29,30.81h0a5.66,5.66,0,0,1-1.8.53ZM28.7,19.17a7,7,0,0,0-4.52.13V12.49H28.7Z" transform="translate(-1.37 -0.74)"/></svg>