<svg id="Layer_1" data-name="Layer 1" xmlns="http://www.w3.org/2000/svg" viewBox="0 0 28.96 28.84"><defs><style>.cls-1{fill:#fff;}</style></defs><title>Negocio icono19</title><path class="cls-1" d="M10.13,25.18H5.9A2.79,2.79,0,0,1,3.49,21l3.67-6.37.22.93a1.06,1.06,0,0,0,2.06-.48L8.68,11.8A1.06,1.06,0,0,0,7.45,11L4,11.66a1.06,1.06,0,0,0,.4,2.08l.92-.18L1.66,19.94A4.9,4.9,0,0,0,5.9,27.29h4.23a1.06,1.06,0,0,0,0-2.12" transform="translate(-1 -0.88)"/><path class="cls-1" d="M9,9.27a1.06,1.06,0,0,0,1.45-.39h0L13,4.39a2.79,2.79,0,0,1,4.83,0l4.71,8.16c-.54-.13-1.15-.38-1.67-.06a1.06,1.06,0,0,0,.31,1.92l3.28.76a1.08,1.08,0,0,0,1.26-.75l1-3.42a1.06,1.06,0,0,0-2-.56l-.26,1L19.74,3.33a4.9,4.9,0,0,0-8.49,0L8.65,7.82A1.06,1.06,0,0,0,9,9.27" transform="translate(-1 -0.88)"/><path class="cls-1" d="M27.66,17a1.06,1.06,0,0,0-1.83,1.06L27.49,21a2.79,2.79,0,0,1-2.41,4.18H16.56l.69-.75A1.06,1.06,0,0,0,15.7,23l-2.29,2.47a1.06,1.06,0,0,0,0,1.47l2.47,2.47a1.06,1.06,0,0,0,1.5-1.5l-.62-.62H25a4.9,4.9,0,0,0,4.25-7.36Z" transform="translate(-1 -0.88)"/></svg>