<svg id="Layer_1" data-name="Layer 1" xmlns="http://www.w3.org/2000/svg" viewBox="0 0 22.21 33.47"><defs><style>.cls-1{fill:#fff;}</style></defs><title>Negocio icono20</title><path class="cls-1" d="M22,6.83h.1a.77.77,0,0,0,0-.1V6.64h0V6.58h0V6.5h0L22,6.42l-6-6L15.92.35H.68A.75.75,0,0,0-.07.94V28.88a.75.75,0,0,0,.75.75h9.73v3.43a.75.75,0,0,0,1.15.64L14,32.16l2.44,1.53A.75.75,0,0,0,17.59,33V29.63h3.8a.75.75,0,0,0,.75-.75v-22ZM16.22,6.1V2.75L19.56,6.1Zm-4.31,20h.5a1.94,1.94,0,0,1,.32.23A2,2,0,0,0,14,26.9a2,2,0,0,0,1.26-.57,2.07,2.07,0,0,1,.31-.22h.5v5.6l-1.68-1.06a.75.75,0,0,0-.8,0l-1.67,1ZM16,24.59h-.31a2,2,0,0,0-.63.09,2.54,2.54,0,0,0-.78.48,2.15,2.15,0,0,1-.32.23,2.53,2.53,0,0,1-.32-.24,2.51,2.51,0,0,0-.78-.48,2,2,0,0,0-.63-.09h-.64a3.07,3.07,0,0,1-.09-.31,2.39,2.39,0,0,0-.36-.87,2.43,2.43,0,0,0-.71-.6l-.29-.2a2.58,2.58,0,0,1,.11-.34,2.67,2.67,0,0,0,.21-.93,2.64,2.64,0,0,0-.21-.91h0a2.51,2.51,0,0,1-.11-.34l.29-.2a2.42,2.42,0,0,0,.71-.6,2.44,2.44,0,0,0,.36-.87,3.15,3.15,0,0,1,.09-.31h.64a1.91,1.91,0,0,0,.63-.09,2.55,2.55,0,0,0,.78-.48,2.21,2.21,0,0,1,.32-.24,2.61,2.61,0,0,1,.33.24,2.55,2.55,0,0,0,.78.48,2.68,2.68,0,0,0,1,.08h.32a2.12,2.12,0,0,0,.09.31,2.45,2.45,0,0,0,.36.87,2.52,2.52,0,0,0,.73.61l.27.18a3.33,3.33,0,0,1-.11.34,2.67,2.67,0,0,0-.21.93,2.72,2.72,0,0,0,.22.94,3.13,3.13,0,0,1,.11.33l-.29.2a2.46,2.46,0,0,0-.71.6,2.42,2.42,0,0,0-.36.87h0a1.29,1.29,0,0,1-.08.28Zm1.53.91a2.53,2.53,0,0,0,.34-.85A1.89,1.89,0,0,1,18,24.3a2,2,0,0,1,.31-.22,1.91,1.91,0,0,0,.92-1,2,2,0,0,0-.14-1.34,1.79,1.79,0,0,1-.12-.41,1.84,1.84,0,0,1,.12-.41,2,2,0,0,0,.14-1.34,2,2,0,0,0-.93-1,1.88,1.88,0,0,1-.3-.21,1.52,1.52,0,0,1-.11-.36,1.9,1.9,0,0,0-.65-1.16,1.64,1.64,0,0,0-1-.28h-.7a2,2,0,0,1-.32-.23A2,2,0,0,0,14,15.8a2,2,0,0,0-1.27.57,1.93,1.93,0,0,1-.31.22h-.71a1.63,1.63,0,0,0-1,.28,1.93,1.93,0,0,0-.65,1.18,1.93,1.93,0,0,1-.11.34,1.86,1.86,0,0,1-.28.2h0a1.94,1.94,0,0,0-.92,1,2,2,0,0,0,.14,1.34,1.84,1.84,0,0,1,.12.41,1.83,1.83,0,0,1-.12.42,2,2,0,0,0-.14,1.33,1.92,1.92,0,0,0,.92,1,2.06,2.06,0,0,1,.3.22,2,2,0,0,1,.11.36,2.54,2.54,0,0,0,.34.85v2.62h-9V1.69H14.71V6.85a.75.75,0,0,0,.75.75h5.16V28.13h-3Z" transform="translate(0.07 -0.35)"/></svg>