<svg id="Layer_1" data-name="Layer 1" xmlns="http://www.w3.org/2000/svg" viewBox="0 0 31.17 43.86"><defs><style>.cls-1{fill:#fff;}</style></defs><title>Negocio icono15</title><path class="cls-1" d="M29.71,18.16A5.48,5.48,0,0,1,29.07,16a.64.64,0,0,0,.63-.64V12.88a.63.63,0,0,0-.53-.63,17.1,17.1,0,0,0-5.19,0,.63.63,0,0,0-.54.63v2.54a.64.64,0,0,0,.63.64,5.58,5.58,0,0,1-.65,2.12l-1.56,3a6,6,0,0,0-.82,3.2v6.43A1,1,0,0,0,21,31l.93,3.8a3.78,3.78,0,0,1-.17,2.09L21.44,38a4.41,4.41,0,0,0-.31,2.32.43.43,0,0,0,0,.1c.12.43.16.64.2.85l.07.35A2,2,0,0,0,22.21,43a2.41,2.41,0,0,0,1.87.42l.46-.1a2.49,2.49,0,0,0,1.48.54h1.11a2.13,2.13,0,0,0,1.28-.47l.11-.07h0l.51.12a2.42,2.42,0,0,0,1.9-.42,2,2,0,0,0,.79-1.37v-.36h0a7,7,0,0,1,.19-.81.26.26,0,0,0,0-.08,4.56,4.56,0,0,0-.3-2.33l-.36-1.16h0a3.84,3.84,0,0,1-.16-2.09L32,31a.72.72,0,0,0,0-.15V24.32a6.22,6.22,0,0,0-.83-3.2Zm-6.77,3.59,1.59-3a6.73,6.73,0,0,0,.8-2.72H27.8a6.78,6.78,0,0,0,.8,2.71l1.59,3a4.38,4.38,0,0,1,.58,1.58h-8.4a4.47,4.47,0,0,1,.57-1.58Zm5.48-7H24.7V13.44a16.08,16.08,0,0,1,3.73,0ZM22.61,38.46a.21.21,0,0,0,0-.08L23,37.23a5,5,0,0,0,.2-2.77l-.73-3.07h8.19l-.73,3a5.12,5.12,0,0,0,.2,2.79l.37,1.18h0A3.24,3.24,0,0,1,30.74,40a9.12,9.12,0,0,0-.2.91l-.06.33a.24.24,0,0,0,0,.09.72.72,0,0,1-.3.52,1.14,1.14,0,0,1-.88.18L28.56,42a.69.69,0,0,0-.45.06l-.35.22H27.7c-.26.18-.38.26-.58.26H26a1.18,1.18,0,0,1-.82-.37A.63.63,0,0,0,24.7,42h-.14l-.72.16A1.2,1.2,0,0,1,23,42a.72.72,0,0,1-.3-.51.29.29,0,0,0,0,0L22.58,41a8.33,8.33,0,0,0-.19-.86A3.24,3.24,0,0,1,22.61,38.46Zm-.31-8.35v-5.5h8.54v5.5Zm-1,10.24Z" transform="translate(-0.85 0)"/><path class="cls-1" d="M15.6,12.89,12.27,7a9,9,0,0,1-.89-2.21,1.48,1.48,0,0,0,.88-1.35v-2A1.48,1.48,0,0,0,10.78,0h-4A1.48,1.48,0,0,0,5.33,1.47v2a1.48,1.48,0,0,0,.88,1.35A9.09,9.09,0,0,1,5.32,7L2,12.89A8.6,8.6,0,0,0,.91,16.3v9.21h0v.42l.76,4.34a7.32,7.32,0,0,1-.32,3.62,8.8,8.8,0,0,0-.5,2.94v.57A8.86,8.86,0,0,0,2,41.68l.38.68a2.84,2.84,0,0,0,2.48,1.47h1.4a1.87,1.87,0,0,0,1.51-.77A.34.34,0,0,1,8,42.93H9.57a.34.34,0,0,1,.27.14,1.88,1.88,0,0,0,1.51.77h1.4a2.84,2.84,0,0,0,2.48-1.47l.38-.68a8.86,8.86,0,0,0,1.1-4.28v-.57a8.84,8.84,0,0,0-.5-2.94,7.32,7.32,0,0,1-.32-3.61l.77-4.36h0a4.18,4.18,0,0,0,0-.48V16.29A8.53,8.53,0,0,0,15.6,12.89ZM13.89,41.63a1.31,1.31,0,0,1-1.14.67h-1.4a.34.34,0,0,1-.27-.14,1.87,1.87,0,0,0-1.51-.77H8a1.88,1.88,0,0,0-1.51.77.33.33,0,0,1-.27.14H4.84a1.3,1.3,0,0,1-1.14-.67L3.32,41a7.32,7.32,0,0,1-.91-3.53v-.57a7.23,7.23,0,0,1,.42-2.43A8.88,8.88,0,0,0,3.2,30l-.67-3.84H15.06L14.38,30a8.87,8.87,0,0,0,.38,4.38,7.27,7.27,0,0,1,.42,2.43v.57a7.33,7.33,0,0,1-.91,3.53Zm-7-38.21V1.53h3.85V3.42ZM9.89,5a10.56,10.56,0,0,0,1,2.6h-4a10.58,10.58,0,0,0,1-2.6Zm1.84,4.14,2.59,4.56a7,7,0,0,1,.75,2H2.57a7,7,0,0,1,.75-2L5.91,9.08ZM10.35,21.33c2-1.2,3.4-1.9,4.83-1.44v4.75H2.4v-2a5.61,5.61,0,0,0,2.6.65A11,11,0,0,0,10.35,21.33ZM8.82,20.12c-2.8,1.64-4.56,2.18-6.41.56V17.14H15.18v1C12.75,17.82,10.57,19.09,8.82,20.12Z" transform="translate(-0.85 0)"/></svg>