<svg id="Layer_1" data-name="Layer 1" xmlns="http://www.w3.org/2000/svg" viewBox="0 0 163.2 163.4"><defs><style>.cls-1{fill:#e31837;}.cls-2{fill:#99082b;}.cls-3{fill:#fff;}</style></defs><title>pdf rojo</title><path class="cls-1" d="M97.4,135.3A37.66,37.66,0,0,1,135,97.5a40.72,40.72,0,0,1,10.4,1.4V48.4L99.5,2.6H12.8A10.24,10.24,0,0,0,2.6,12.8h0V155.6a10.24,10.24,0,0,0,10.2,10.2H113A37.48,37.48,0,0,1,97.4,135.3Z" transform="translate(-2.6 -2.6)"/><path class="cls-2" d="M145.3,48.5H109.7A10.24,10.24,0,0,1,99.5,38.3V2.7Z" transform="translate(-2.6 -2.6)"/><path class="cls-3" d="M107.2,80a3,3,0,0,0,2.3-3.6,2.88,2.88,0,0,0-2.3-2.3H97.5a3,3,0,0,0-3,3v24.2c0,2.1,1.2,3.3,2.9,3.3s2.8-1.2,2.8-3.3V94.7h5.9a2.8,2.8,0,0,0,2.8-2.8v-.2a2.7,2.7,0,0,0-2.5-2.9h-6.1V80ZM74.3,74.1H67.2a3.2,3.2,0,0,0-3.3,3v24.3a3.14,3.14,0,0,0,3.1,3.2h7.8c8.8,0,14.7-5.8,14.7-14.8-.1-9.5-5.6-15.6-15.2-15.7Zm.3,24.6H70.3V80h3.9c5.9,0,8.5,4,8.5,9.5,0,5.1-2.5,9.2-8.1,9.2ZM48.5,74.1H41.4c-2,0-3.1,1.3-3.1,3.3v23.9a3,3,0,1,0,6,0v-7h4.4a9.69,9.69,0,0,0,10-9.3v-.8A9.89,9.89,0,0,0,49.3,74c-.1.1-.4.1-.8.1Zm-.1,14.7H44.3v-9h4.1c2.5,0,4.1,2,4.1,4.5s-1.6,4.5-4.1,4.5Z" transform="translate(-2.6 -2.6)"/><path class="cls-1" d="M135.2,104.8a30.6,30.6,0,1,0,30.6,30.6A30.6,30.6,0,0,0,135.2,104.8Zm17.6,33.4-15,15.3c-2,2-3.1,2-5.1,0l-15-15.3c-1.4-2.4-.2-4.3,2.6-4.3h6.8V119.1a3.33,3.33,0,0,1,3.3-3.3h9.9a3.33,3.33,0,0,1,3.3,3.3v14.8h6.7C153,133.9,154.2,135.8,152.8,138.2Z" transform="translate(-2.6 -2.6)"/></svg>