<svg id="Layer_1" data-name="Layer 1" xmlns="http://www.w3.org/2000/svg" viewBox="0 0 152.69 152.83"><defs><style>.cls-1{fill:#fff;}.cls-2{fill:#a5a7aa;}</style></defs><title>pdf blanco</title><path class="cls-1" d="M50,80.29H46.2v8.44H50c2.35,0,3.84-1.83,3.84-4.22S52.35,80.29,50,80.29Z" transform="translate(-7.16 -8.17)"/><path class="cls-1" d="M74.11,80.56H70.45V98h4.06c5.18,0,7.55-3.8,7.55-8.6C82.06,84.28,79.65,80.56,74.11,80.56Z" transform="translate(-7.16 -8.17)"/><path class="cls-1" d="M97.78,8.17H16.7a9.55,9.55,0,0,0-9.54,9.55V151.33a9.54,9.54,0,0,0,9.54,9.54h93.77a35.34,35.34,0,0,1,30.29-62.68V51ZM50.33,94H46.19v6.53c0,2-1.19,3.1-2.8,3.1s-2.8-1.11-2.8-3.1V78.14A2.78,2.78,0,0,1,43.51,75h6.6a9.14,9.14,0,0,1,9.54,8.72q0,.39,0,.79A9,9,0,0,1,51.16,94Q50.75,94,50.33,94Zm24.26,9.55h-7a2.93,2.93,0,0,1-3.17-3V78.12A2.94,2.94,0,0,1,67.17,75h7c9,0,14.14,5.76,14.14,14.65,0,8.44-5.46,13.88-13.74,13.88Zm30.37-23H98.43V88.9h5.51a2.54,2.54,0,0,1,2.57,2.51q0,.1,0,.2a2.58,2.58,0,0,1-2.36,2.78H98.43v6.14c0,2-1.14,3.1-2.67,3.1s-2.67-1.11-2.67-3.1V78.14A2.85,2.85,0,0,1,95.63,75H105a2.77,2.77,0,0,1,0,5.49Z" transform="translate(-7.16 -8.17)"/><path class="cls-1" d="M131.22,103.74a28.63,28.63,0,1,0,28.63,28.63A28.63,28.63,0,0,0,131.22,103.74ZM147.6,135l-14,14.34c-1.9,1.9-2.95,1.83-4.78,0l-14-14.34c-1.31-2.21-.24-4,2.39-4h6.29V117.09a3.08,3.08,0,0,1,3.07-3.09h9.27a3.08,3.08,0,0,1,3.08,3.08h0V131h6.29C147.84,131,148.91,132.77,147.6,135Z" transform="translate(-7.16 -8.17)"/><path class="cls-2" d="M140.62,51.12H107.36a9.55,9.55,0,0,1-9.54-9.54V8.27Z" transform="translate(-7.16 -8.17)"/></svg>