<svg id="Layer_1" data-name="Layer 1" xmlns="http://www.w3.org/2000/svg" viewBox="0 0 122.82 129.61"><defs><style>.cls-1{fill:#414042;}</style></defs><title>RS icono 04</title><path class="cls-1" d="M45.34,28.44a5.72,5.72,0,0,1-5.51-5.9,5.52,5.52,0,1,1,11,0,5.72,5.72,0,0,1-5.51,5.9m0-16.92c-5.68,0-10.31,5-10.31,11s4.62,11,10.31,11,10.31-5,10.31-11-4.62-11-10.31-11" transform="translate(-5.64 -11.52)"/><path class="cls-1" d="M92.09,28.44a5.72,5.72,0,0,1-5.51-5.9,5.52,5.52,0,1,1,11,0,5.72,5.72,0,0,1-5.51,5.9m0-16.92c-5.68,0-10.31,5-10.31,11s4.62,11,10.31,11,10.31-5,10.31-11-4.62-11-10.31-11" transform="translate(-5.64 -11.52)"/><path class="cls-1" d="M83.32,135.94V106.75a11.63,11.63,0,0,0,5.93-2.5l.06,31.68ZM80.92,70.7a2.49,2.49,0,0,0-2.4,2.57v62.67h-6.9v-31a2.4,2.4,0,0,0-4.8,0h0v31H61V73.27a2.4,2.4,0,1,0-4.8,0h0v28.36A7.34,7.34,0,0,1,50,94.31V72.51a20.75,20.75,0,0,1,1.43-7.61h0a19.36,19.36,0,0,1,36.33.1,20.71,20.71,0,0,1,1.4,7.53V94.31a7.35,7.35,0,0,1-5.84,7.26V73.27a2.49,2.49,0,0,0-2.4-2.57M56.19,135.94H50V104.33a11.68,11.68,0,0,0,6.19,2.46ZM68.92,30.37a8.13,8.13,0,0,1,7.83,8.39,7.85,7.85,0,1,1-15.67,0,8.14,8.14,0,0,1,7.84-8.39M37.44,57.63a7.11,7.11,0,0,1,0-14.18,7.11,7.11,0,0,1,0,14.18m63.19-14.18h0a6.87,6.87,0,0,1,6.63,7.07,7.3,7.3,0,0,1-1.93,5,6.38,6.38,0,0,1-4.68,2.09h0a6.37,6.37,0,0,1-4.65-2,7.3,7.3,0,0,1-2-5,6.88,6.88,0,0,1,6.61-7.1M126.08,136H113.8l-.11-55a2.49,2.49,0,0,0-2.4-2.56h0A2.49,2.49,0,0,0,108.9,81v0l.11,55H94.11L94,75.86a2.65,2.65,0,0,0,0-.45V72.5a26.17,26.17,0,0,0-1.07-7.44,16.43,16.43,0,0,1,8.36-2.3h0a16.61,16.61,0,0,1,12,5.14,17.72,17.72,0,0,1,5,12.37V91.73a2.48,2.48,0,0,0,2.4,2.56h0a2.49,2.49,0,0,0,2.39-2.58V80.25a23,23,0,0,0-6.44-16A21.6,21.6,0,0,0,108.86,59a12.61,12.61,0,0,0,3.21-8.52c0-6.73-5.14-12.2-11.43-12.2h0c-6.3,0-11.42,5.51-11.4,12.25a12.59,12.59,0,0,0,3.37,8.63l.22.22c-.62.28-1.22.58-1.82.91a24.52,24.52,0,0,0-13.36-11.8,13.93,13.93,0,0,0,3.93-9.78c0-7.46-5.67-13.52-12.64-13.52S56.28,31.3,56.28,38.75A13.9,13.9,0,0,0,60.59,48.9,24.6,24.6,0,0,0,48.22,60.27,21.74,21.74,0,0,0,45.63,59a12.63,12.63,0,0,0,3.24-8.51c0-6.74-5.12-12.22-11.42-12.22S26,43.8,26,50.54a12.59,12.59,0,0,0,3.57,8.86A22.74,22.74,0,0,0,16.23,80.3V91.77a2.41,2.41,0,1,0,4.8,0V80.31c0-9.67,7.62-17.54,17-17.54A16.4,16.4,0,0,1,46.29,65a26.08,26.08,0,0,0-1.09,7.5v63.43H30.73V81a2.4,2.4,0,1,0-4.8,0h0v55H8.05a2.57,2.57,0,0,0,0,5.13h118a2.57,2.57,0,0,0,0-5.13" transform="translate(-5.64 -11.52)"/><path class="cls-1" d="M120.71,99.26a2.57,2.57,0,1,1-2.39,2.73q0-.08,0-.16a2.49,2.49,0,0,1,2.4-2.57" transform="translate(-5.64 -11.52)"/><path class="cls-1" d="M18.64,99.26A2.57,2.57,0,1,1,16.25,102q0-.08,0-.16a2.49,2.49,0,0,1,2.4-2.57" transform="translate(-5.64 -11.52)"/></svg>