<svg id="Layer_1" data-name="Layer 1" xmlns="http://www.w3.org/2000/svg" viewBox="0 0 173.13 117.7"><defs><style>.cls-1{fill:#414042;}</style></defs><title>RS icono 03</title><path class="cls-1" d="M145,114.1a8.81,8.81,0,1,1-.6-17.6h.6a8.75,8.75,0,0,1,8.5,9.1,8.91,8.91,0,0,1-8.5,8.5m0-24.6a16.4,16.4,0,0,0-11.3,4.6,15.63,15.63,0,0,0-.3,22.1l.3.3a15.85,15.85,0,1,0,11.3-27" transform="translate(-3.28 -3.4)"/><path class="cls-1" d="M153.8,64.7H132.2V42.8h13.2l8.4,7.6V64.7ZM149,36.8a3.41,3.41,0,0,0-2.4-.9h-18a3.54,3.54,0,0,0-3.5,3.5V68.2a3.54,3.54,0,0,0,3.5,3.5h28.6a3.54,3.54,0,0,0,3.5-3.5V48.9a3.37,3.37,0,0,0-1.2-2.6Z" transform="translate(-3.28 -3.4)"/><path class="cls-1" d="M59.1,114.1a8.81,8.81,0,0,1-.6-17.6h.6a8.75,8.75,0,0,1,8.5,9.1,8.91,8.91,0,0,1-8.5,8.5m0-24.6a16.4,16.4,0,0,0-11.3,4.6,15.63,15.63,0,0,0-.3,22.1l.3.3a15.85,15.85,0,1,0,11.3-27" transform="translate(-3.28 -3.4)"/><path class="cls-1" d="M35.6,93.8H28.5V84.4a3.51,3.51,0,0,0-3.9-3.1,3.61,3.61,0,0,0-3.1,3.1V97.3a3.48,3.48,0,0,0,3.5,3.5H35.6a3.51,3.51,0,0,0,3.1-3.9,3.42,3.42,0,0,0-3.1-3.1" transform="translate(-3.28 -3.4)"/><path class="cls-1" d="M53.4,74.6a3.54,3.54,0,0,0-3.5-3.5H7.2a3.52,3.52,0,1,0-.8,7H49.8a3.5,3.5,0,0,0,3.6-3.5h0" transform="translate(-3.28 -3.4)"/><path class="cls-1" d="M14.4,61.9l42.7.2a3.54,3.54,0,0,0,3.5-3.5,3.46,3.46,0,0,0-3.4-3.5h-.1l-42.6-.2h0a3.51,3.51,0,0,0-3.1,3.9,3.41,3.41,0,0,0,3,3.1" transform="translate(-3.28 -3.4)"/><path class="cls-1" d="M21.6,46H64.3a3.52,3.52,0,1,0,.8-7H21.6a3.52,3.52,0,1,0-.8,7h.8" transform="translate(-3.28 -3.4)"/><path class="cls-1" d="M175.2,41.2,150,20.4a3.49,3.49,0,0,0-2.2-.8H118.2V6.9a3.54,3.54,0,0,0-3.5-3.5H25a3.54,3.54,0,0,0-3.5,3.5V32.7a3.51,3.51,0,0,0,3.9,3.1,3.61,3.61,0,0,0,3.1-3.1V10.4h82.6V93.8H82.3a3.51,3.51,0,0,0-3.1,3.9,3.61,3.61,0,0,0,3.1,3.1h43a3.51,3.51,0,0,0,3.1-3.9,3.61,3.61,0,0,0-3.1-3.1h-7.1V26.6h28.4l22.9,19-.2,48.2h-3.7a3.51,3.51,0,0,0-3.1,3.9,3.61,3.61,0,0,0,3.1,3.1h7.1a3.48,3.48,0,0,0,3.5-3.5h0l.2-53.3a3.33,3.33,0,0,0-1.2-2.8" transform="translate(-3.28 -3.4)"/></svg>