<svg id="Layer_1" data-name="Layer 1" xmlns="http://www.w3.org/2000/svg" viewBox="0 0 183.68 134.9"><defs><style>.cls-1{fill:#414042;}</style></defs><title>RS icono 02</title><path class="cls-1" d="M167.88,71.79A2.69,2.69,0,0,0,170.29,67c-6.25-3.13-18-3.16-18.47-3.16a2.69,2.69,0,1,0,0,5.38C154.84,69.19,163.63,69.66,167.88,71.79Z" transform="translate(-8.23 -6.26)"/><path class="cls-1" d="M183.7,105.29l-11.11-3.18a1.13,1.13,0,0,1-.81-1.08v-3.7a20.23,20.23,0,0,0,2.57-2.11,19.8,19.8,0,0,0,6.06-14.32V75.77l1.07-2.15a17.17,17.17,0,0,0,1.8-7.64V52.12a2.69,2.69,0,0,0-2.69-2.69H154.7A17.1,17.1,0,0,0,137.62,66.5v.16a14.28,14.28,0,0,0,1.5,6.35l1.38,2.76v4.4a21,21,0,0,0,8.63,17V101c0,.6,0,.85-2.22,1.48L141.49,104,125.8,98.32a2.69,2.69,0,0,0-.73-2.06L120,91V82.19c.53-.44,1.05-.89,1.56-1.36a31.59,31.59,0,0,0,10-23v-7a31.11,31.11,0,0,0,2.88-13.08V8.95a2.69,2.69,0,0,0-2.69-2.69H91.46A25.74,25.74,0,0,0,65.75,32v5.76a31.11,31.11,0,0,0,2.87,13v6.08A32.89,32.89,0,0,0,80.13,82v9l-5,5.27a2.69,2.69,0,0,0-.73,2.06l-16.56,6a14.11,14.11,0,0,0-3.33,1.74l-2.6-1.3c7.74-3.37,10.19-8.11,10.31-8.34a2.69,2.69,0,0,0,0-2.41C60.28,90.14,60,83,59.86,77.31c-.06-1.9-.12-3.7-.24-5.3C58.7,59.1,48.89,49.36,36.79,49.36S14.87,59.14,14,72.05c-.11,1.6-.17,3.4-.24,5.3-.19,5.71-.43,12.83-2.37,16.71a2.69,2.69,0,0,0,0,2.41c.12.24,2.56,5,10.32,8.34l-7.22,3.61a11.26,11.26,0,0,0-6.26,10.13v19.88a2.69,2.69,0,1,0,5.38,0V118.55a5.91,5.91,0,0,1,3.28-5.31l9-4.5,3.13,3a11.32,11.32,0,0,0,15.6,0l3.13-3,2.93,1.47a14.17,14.17,0,0,0-2.17,7.51v20.71a2.69,2.69,0,1,0,5.38,0V117.72a8.85,8.85,0,0,1,5.81-8.29l17.46-6.35L84.39,114a5.55,5.55,0,0,0,4.08,2.45H89a5.55,5.55,0,0,0,4-1.61l4.43-4.43v28a2.69,2.69,0,0,0,5.38,0v-28l4.43,4.43a5.54,5.54,0,0,0,3.93,1.63h.55a5.55,5.55,0,0,0,4.09-2.45l7.27-10.9,17.46,6.35a8.85,8.85,0,0,1,5.8,8.29v20.71a2.69,2.69,0,1,0,5.38,0V117.73a14.23,14.23,0,0,0-4-9.85l.66-.19a14.76,14.76,0,0,0,2.5-.9l6.87,6.87v24.78a2.69,2.69,0,1,0,5.38,0V113.66l6.82-6.82a6.4,6.4,0,0,0,1.15.45l11.12,3.18a6,6,0,0,1,4.31,5.71v22.26a2.69,2.69,0,1,0,5.38,0V116.18A11.37,11.37,0,0,0,183.7,105.29ZM48.1,100.53V97.32a19.91,19.91,0,0,0,7.11-8.77A29.63,29.63,0,0,0,56.74,95C55.67,96.29,53.13,98.72,48.1,100.53ZM19.32,72.43a20,20,0,0,1,5.44-12.55,16.72,16.72,0,0,1,23.64-.36l.36.36A20,20,0,0,1,54.2,72.43c.11,1.5.16,3.25.22,5.1V78A24.18,24.18,0,0,0,41.19,68.3,33.78,33.78,0,0,0,31,66.68a2.69,2.69,0,0,0-1.86.82l-4.86,5a2.69,2.69,0,1,0,3.87,3.74l4-4.19c3.48.17,14.67,1.47,19,11.06a14.57,14.57,0,0,1-29-2.27A2.68,2.68,0,0,0,19,78.19V77.5C19.16,75.68,19.22,73.93,19.32,72.43ZM16.82,95a29.67,29.67,0,0,0,1.53-6.44,20.07,20.07,0,0,0,7.1,8.76v3.23C20.42,98.71,17.9,96.3,16.82,95Zm15.87,12.83-2.5-2.38a5.57,5.57,0,0,0,.65-2.63V99.93a20,20,0,0,0,11.88,0v2.87a5.57,5.57,0,0,0,.65,2.63l-2.5,2.38a5.94,5.94,0,0,1-8.19,0ZM74,56.87V50.2a2.69,2.69,0,0,0-.26-1.2,25.82,25.82,0,0,1-2.61-11.31V32A20.35,20.35,0,0,1,91.46,11.63h37.6V37.72A25.82,25.82,0,0,1,126.45,49a2.69,2.69,0,0,0-.27,1.17v7.66a25.84,25.84,0,0,1-8.25,19,26.78,26.78,0,0,1-2.07,1.75h0A25.88,25.88,0,0,1,98.4,83.79C84.7,83,74,71.14,74,56.87ZM98,89.26q1.06.07,2.12.07a31.17,31.17,0,0,0,14.55-3.56v4.92l-14.58,10-14.57-10v-5A30.3,30.3,0,0,0,98,89.26ZM89.15,111a.2.2,0,0,1-.15.05.17.17,0,0,1-.14-.08L80.5,98.45l2.69-2.83,12.7,8.68Zm22.15,0a.17.17,0,0,1-.14.08.15.15,0,0,1-.13,0l-6.75-6.75L117,95.62l2.69,2.83Zm34.57-30.84v-5a2.69,2.69,0,0,0-.28-1.2l-1.66-3.33a8.87,8.87,0,0,1-.93-3.94V66.5a11.71,11.71,0,0,1,11.7-11.7h23.21V66a11.76,11.76,0,0,1-1.24,5.23L175.31,74a2.69,2.69,0,0,0-.28,1.2v5.76a14.57,14.57,0,0,1-14.56,14.58H160c-7.82-.26-14.15-7.12-14.15-15.31Zm14,20.67h.62a20,20,0,0,0,5.93-.9V101a6.43,6.43,0,0,0,.19,1.57l-6.14,6.14-6.11-6.11a7.38,7.38,0,0,0,.17-1.6V99.9a18.87,18.87,0,0,0,5.31.94Z" transform="translate(-8.23 -6.26)"/><path class="cls-1" d="M82.64,37.27a.18.18,0,0,1,.14-.18,85,85,0,0,1,17.48-.85c8.39.56,14.47,2.67,18.07,6.26a2.69,2.69,0,0,0,3.81-3.81h0C112,28.52,90.66,30.46,82,31.77a5.53,5.53,0,0,0-4.72,5.5v6.2a2.69,2.69,0,1,0,5.38,0h0v-6.2Z" transform="translate(-8.23 -6.26)"/></svg>