<svg id="Layer_1" data-name="Layer 1" xmlns="http://www.w3.org/2000/svg" viewBox="0 0 99.69 142.88"><defs><style>.cls-1{fill:#414042;stroke:#414042;stroke-miterlimit:10;stroke-width:1.77px;}</style></defs><title>RS icono 06</title><path class="cls-1" d="M103.7,93.6C100.37,91.17,93,84,96.44,70.3a52.21,52.21,0,0,0,1.45-9.45A45.11,45.11,0,0,1,113.65,95.1a45.85,45.85,0,0,1-.9,8.88,44.59,44.59,0,0,0-9-10.39M70.49,46.21a26.69,26.69,0,0,1,5.45-12.69,13,13,0,0,0,8.42,3.59h.3c3,0,9.1-1.51,10.9-6.45a22.34,22.34,0,0,0,1.05-8.91c-.12-4.06-.19-6.51,4.06-9.09a1.87,1.87,0,0,0-.89-3.47c-.78,0-19.23-.61-25.94,8.42a11,11,0,0,0-1.77,3.58,1.87,1.87,0,0,0,3.6,1,7.29,7.29,0,0,1,1.17-2.36c3.64-4.91,12.29-6.35,17.83-6.77-2,2.81-1.88,5.83-1.8,8.78A19.07,19.07,0,0,1,92,29.38c-1.16,3.17-6,4-7.55,4a9.27,9.27,0,0,1-6.1-2.67,34.93,34.93,0,0,1,8.54-6.49,1.87,1.87,0,1,0-1.63-3.37c-.59.28-12,6-16.78,18.12a35.55,35.55,0,0,0-4.13-8.31,14.42,14.42,0,0,0,.2-17C56.07,2.14,32.44,2.88,31.44,2.92a1.87,1.87,0,0,0-.9,3.47c5.79,3.5,5.69,7,5.53,12.26A28.66,28.66,0,0,0,37.4,30c2.25,6.12,9.88,8,13.61,8h.37a15.62,15.62,0,0,0,4.13-.71,1.88,1.88,0,0,0-1.12-3.58,11.9,11.9,0,0,1-3.14.54c-2.17.08-8.69-1.09-10.32-5.54a25.18,25.18,0,0,1-1.11-9.93c.12-4.06.25-8.21-3-12C44,7.2,56.43,8.94,61.57,15.86A10.36,10.36,0,0,1,62,27.42a44.32,44.32,0,0,0-13.45-10.9,1.87,1.87,0,1,0-1.63,3.37h0c.18.08,17.22,8.53,19.45,26.32a48.94,48.94,0,0,0-18.52,93.31h.06a48.91,48.91,0,0,0,46-2.7,1.88,1.88,0,1,0-2-3.19h0a45.23,45.23,0,0,1-41.15,3.11,20.65,20.65,0,0,0-4-17.2c-4.17-5.39-1.38-9,3.93-14.91l1.5-1.69A15,15,0,0,0,55.67,91,22.19,22.19,0,0,0,45.54,75.9,1.87,1.87,0,0,0,43.46,79,18.45,18.45,0,0,1,52,91.54a11.29,11.29,0,0,1-2.41,9l-1.48,1.66c-4.87,5.43-10.39,11.58-4.1,19.71a17.28,17.28,0,0,1,3.44,13.25A45.15,45.15,0,0,1,35.11,64.59c.12,2.86,4,12.9,10.55,16,.52.89-1.37-1.06-.48-1.57s2.38-1.17,1.88-2.06c-6.57-4.48-8.62-12.74-8-16.19A45.07,45.07,0,0,1,94.23,58,49.36,49.36,0,0,1,92.8,69.4c-4,16,4.75,24.35,8.69,27.23a46,46,0,0,1,9.94,12.43,45,45,0,0,1-7.62,14.21,1.87,1.87,0,0,0,2.93,2.33,48.43,48.43,0,0,0,10.65-30.48A49,49,0,0,0,70.5,46.22" transform="translate(-18.58 -2.01)"/></svg>