<svg id="Layer_1" data-name="Layer 1" xmlns="http://www.w3.org/2000/svg" viewBox="0 0 166.7 133.1"><defs><style>.cls-1{fill:#414042;}</style></defs><title>RS icono 01</title><path class="cls-1" d="M87.8,41.3c5.2,0,21.3,1.2,23.3,15.3H64.5c2-14.2,18.2-15.3,23.3-15.3M61.1,62.8h53.4a3.12,3.12,0,0,0,3.1-3.1c0-15.2-11.4-24.7-29.8-24.7S58,44.4,58,59.7a3.12,3.12,0,0,0,3.1,3.1" transform="translate(-4.4 -2)"/><path class="cls-1" d="M87.8,8.3a8.6,8.6,0,1,1-8.6,8.6h0a8.54,8.54,0,0,1,8.6-8.6m0,23.5A14.9,14.9,0,1,0,72.9,16.9h0A14.87,14.87,0,0,0,87.8,31.8" transform="translate(-4.4 -2)"/><path class="cls-1" d="M11,128.8c2.1-14.1,18.2-15.3,23.3-15.3s21.3,1.2,23.3,15.3Zm23.3-21.5c-18.4,0-29.9,9.4-29.9,24.7a3.12,3.12,0,0,0,3.1,3.1H61a3.12,3.12,0,0,0,3.1-3.1c.1-15.2-11.3-24.7-29.8-24.7" transform="translate(-4.4 -2)"/><path class="cls-1" d="M34.4,80.6a8.6,8.6,0,1,1-8.6,8.6h0a8.47,8.47,0,0,1,8.6-8.6m0,23.5A14.9,14.9,0,1,0,19.5,89.2h0a14.81,14.81,0,0,0,14.9,14.9h0" transform="translate(-4.4 -2)"/><path class="cls-1" d="M117.9,128.8c2.1-14.1,18.2-15.3,23.3-15.3s21.3,1.2,23.4,15.3Zm23.3-21.5c-18.4,0-29.9,9.4-29.9,24.7a3.12,3.12,0,0,0,3.1,3.1H168a3.12,3.12,0,0,0,3.1-3.1c0-15.3-11.4-24.7-29.9-24.7" transform="translate(-4.4 -2)"/><path class="cls-1" d="M141.2,80.6a8.6,8.6,0,1,1-8.6,8.6h0a8.6,8.6,0,0,1,8.6-8.6m0,23.5a14.9,14.9,0,1,0-14.9-14.9h0a14.87,14.87,0,0,0,14.9,14.9" transform="translate(-4.4 -2)"/><path class="cls-1" d="M91,88.7V70.1a3.1,3.1,0,0,0-6.2,0V88.6L71.7,101.7a3.26,3.26,0,0,0,.1,4.5,3.21,3.21,0,0,0,4.3,0L87.9,94.4l11.8,11.8a3.14,3.14,0,0,0,4.4-.3,3.18,3.18,0,0,0,0-4.1Z" transform="translate(-4.4 -2)"/></svg>