<?xml version="1.0" encoding="utf-8"?>
<!-- Generator: Adobe Illustrator 24.1.1, SVG Export Plug-In . SVG Version: 6.00 Build 0)  -->
<svg version="1.1" id="barra_izq" xmlns="http://www.w3.org/2000/svg" xmlns:xlink="http://www.w3.org/1999/xlink" x="0px" y="0px"
	 viewBox="0 0 28.6 28.6" style="enable-background:new 0 0 28.6 28.6;" xml:space="preserve">
<style type="text/css">
	.st0{fill:#FFFFFF;}
</style>
<g>
	<path class="st0" d="M22.5,16.3c-2,0-3.8,1-4.9,2.5L12,16.1c0.2-0.6,0.3-1.2,0.3-1.8c0-0.6-0.1-1.2-0.3-1.8l5.6-2.8
		c1.1,1.5,2.9,2.5,4.9,2.5c3.4,0,6.1-2.7,6.1-6.1S25.9,0,22.5,0c-3.4,0-6.1,2.7-6.1,6.1c0,0.6,0.1,1.2,0.3,1.8l-5.6,2.8
		C9.9,9.2,8.2,8.2,6.1,8.2C2.7,8.2,0,10.9,0,14.3c0,3.4,2.7,6.1,6.1,6.1c2,0,3.8-1,4.9-2.5l5.6,2.8c-0.2,0.6-0.3,1.2-0.3,1.8
		c0,3.4,2.7,6.1,6.1,6.1c3.4,0,6.1-2.7,6.1-6.1S25.9,16.3,22.5,16.3L22.5,16.3z M22.5,2c2.3,0,4.1,1.8,4.1,4.1
		c0,2.3-1.8,4.1-4.1,4.1s-4.1-1.8-4.1-4.1S20.2,2,22.5,2z M6.1,18.4c-2.3,0-4.1-1.8-4.1-4.1c0-2.3,1.8-4.1,4.1-4.1
		c2.3,0,4.1,1.8,4.1,4.1S8.4,18.4,6.1,18.4z M22.5,26.6c-2.3,0-4.1-1.8-4.1-4.1s1.8-4.1,4.1-4.1c2.3,0,4.1,1.8,4.1,4.1
		C26.6,24.7,24.7,26.6,22.5,26.6z"/>
</g>
</svg>
