<?xml version="1.0" encoding="utf-8"?>
<!-- Generator: Adobe Illustrator 24.1.1, SVG Export Plug-In . SVG Version: 6.00 Build 0)  -->
<svg version="1.1" id="barra_izq" xmlns="http://www.w3.org/2000/svg" xmlns:xlink="http://www.w3.org/1999/xlink" x="0px" y="0px"
	 viewBox="0 0 21.5 32.7" style="enable-background:new 0 0 21.5 32.7;" xml:space="preserve">
<style type="text/css">
	.st0{fill:#FFFFFF;}
</style>
<g>
	<g>
		<g>
			<path class="st0" d="M12,19.7l7.4-7.4c0.5-0.5,1.3-0.5,1.7,0s0.5,1.3,0,1.7l-9.5,9.5c-0.2,0.2-0.5,0.4-0.9,0.4s-0.6-0.1-0.9-0.4
				L0.4,14c-0.5-0.5-0.5-1.3,0-1.7c0.5-0.5,1.3-0.5,1.7,0l7.4,7.4V1.2c0-0.7,0.5-1.2,1.2-1.2S12,0.5,12,1.2V19.7z"/>
		</g>
	</g>
	<g>
		<path class="st0" d="M20.3,32.7H1.2c-0.7,0-1.2-0.5-1.2-1.2s0.6-1.2,1.2-1.2h19.1c0.7,0,1.2,0.5,1.2,1.2
			C21.5,32.1,21,32.7,20.3,32.7z"/>
	</g>
</g>
</svg>
