<?xml version="1.0" encoding="utf-8"?>
<!-- Generator: Adobe Illustrator 24.1.1, SVG Export Plug-In . SVG Version: 6.00 Build 0)  -->
<svg version="1.1" id="barra_izq" xmlns="http://www.w3.org/2000/svg" xmlns:xlink="http://www.w3.org/1999/xlink" x="0px" y="0px"
	 viewBox="0 0 108.2 24.5" style="enable-background:new 0 0 108.2 24.5;" xml:space="preserve">
<style type="text/css">
	.st0{fill:#FFFFFF;}
</style>
<g>
	<g>
		<g>
			<path class="st0" d="M16.1,0H5.3C5.1,0,5,0.1,4.8,0.2L0.2,4.8C0.1,5,0,5.1,0,5.3v16.9c0,1.2,1,2.3,2.3,2.3h13.8
				c1.2,0,2.3-1,2.3-2.3v-20C18.4,1,17.4,0,16.1,0z M5.4,1.7v2.9C5.4,5,5,5.4,4.6,5.4H1.7L5.4,1.7z M16.9,22.3
				c0,0.4-0.4,0.8-0.8,0.8H2.3c-0.5,0-0.8-0.4-0.8-0.8V6.8h3.1c1.2,0,2.3-1,2.3-2.3V1.4h9.3c0.4,0,0.8,0.4,0.8,0.8V22.3z"/>
			<path class="st0" d="M16.9,2.3v20c0,1.3,1,2.3,2.3,2.3h6.9h3.6H33c1.2,0,2.3-1,2.3-2.3v-20C35.3,1,34.3,0,33,0h-5.8H25h-5.8
				C17.9,0,16.9,1,16.9,2.3z M18.4,2.3c0-0.5,0.4-0.8,0.8-0.8H25h2.3H33c0.4,0,0.8,0.4,0.8,0.8v20c0,0.4-0.4,0.8-0.8,0.8h-3.3h-3.6
				h-6.9c-0.5,0-0.8-0.4-0.8-0.8V2.3z"/>
		</g>
		<path class="st0" d="M8.7,16.6c0.3,0.3,0.7,0.3,1,0l3.1-3.1c0.3-0.3,0.3-0.7,0-1c-0.3-0.3-0.7-0.3-1,0l-1.9,1.9V9.2
			c0-0.4-0.3-0.7-0.7-0.7c-0.4,0-0.7,0.3-0.7,0.7v5.2l-1.9-1.9c-0.3-0.3-0.7-0.3-1,0c-0.3,0.3-0.3,0.7,0,1L8.7,16.6z"/>
		<path class="st0" d="M12.3,18.5H6.1c-0.4,0-0.7,0.3-0.7,0.7c0,0.4,0.3,0.7,0.7,0.7h6.2c0.4,0,0.7-0.3,0.7-0.7
			C13,18.8,12.7,18.5,12.3,18.5z"/>
	</g>
	<g>
		<path class="st0" d="M46.8,9.1c0.5,0.3,0.8,0.8,1.1,1.3c0.2,0.5,0.4,1.2,0.4,1.8s-0.1,1.3-0.4,1.8c-0.2,0.5-0.6,1-1.1,1.3
			c-0.5,0.3-1,0.5-1.7,0.5h-2.5c-0.2,0-0.3-0.1-0.5-0.2c-0.1-0.1-0.2-0.3-0.2-0.5v-6c0-0.2,0.1-0.3,0.2-0.5c0.1-0.1,0.3-0.2,0.5-0.2
			h2.5C45.8,8.6,46.4,8.8,46.8,9.1z M46.5,14c0.3-0.5,0.5-1,0.5-1.7c0-0.7-0.2-1.3-0.5-1.7c-0.3-0.5-0.8-0.7-1.4-0.7h-1.7v4.9h1.7
			C45.7,14.7,46.1,14.5,46.5,14z"/>
		<path class="st0" d="M54.5,14.6c-0.2,0.4-0.6,0.8-1,1C53,15.9,52.6,16,52.1,16c-0.5,0-1-0.1-1.4-0.4s-0.8-0.6-1-1
			s-0.4-0.9-0.4-1.5s0.1-1,0.4-1.5s0.6-0.8,1-1c0.4-0.2,0.9-0.4,1.4-0.4c0.5,0,1,0.1,1.4,0.4c0.4,0.2,0.8,0.6,1,1s0.4,0.9,0.4,1.5
			S54.7,14.2,54.5,14.6z M53.4,12.2c-0.1-0.3-0.3-0.5-0.6-0.6s-0.5-0.2-0.8-0.2c-0.3,0-0.6,0.1-0.8,0.2s-0.4,0.4-0.6,0.6
			c-0.1,0.3-0.2,0.6-0.2,0.9c0,0.3,0.1,0.6,0.2,0.9s0.3,0.5,0.6,0.6c0.2,0.1,0.5,0.2,0.8,0.2c0.3,0,0.6-0.1,0.8-0.2
			c0.2-0.1,0.4-0.3,0.6-0.6s0.2-0.6,0.2-0.9C53.6,12.8,53.6,12.5,53.4,12.2z"/>
		<path class="st0" d="M60.2,10.6c0.4,0.2,0.7,0.6,0.9,1s0.3,0.9,0.3,1.5c0,0.6-0.1,1-0.3,1.5c-0.2,0.4-0.5,0.8-0.9,1
			S59.4,16,58.9,16c-0.3,0-0.6-0.1-0.9-0.2c-0.3-0.1-0.5-0.3-0.7-0.5v0.1c0,0.2-0.1,0.3-0.2,0.5C57,15.9,56.8,16,56.6,16
			s-0.3-0.1-0.4-0.2c-0.1-0.1-0.2-0.3-0.2-0.5V8.8c0-0.2,0.1-0.3,0.2-0.5c0.1-0.1,0.3-0.2,0.4-0.2s0.3,0.1,0.4,0.2s0.2,0.3,0.2,0.5
			V11c0.2-0.2,0.4-0.4,0.7-0.5c0.3-0.2,0.6-0.2,0.9-0.2C59.4,10.2,59.8,10.4,60.2,10.6z M59.8,14.4c0.3-0.3,0.4-0.7,0.4-1.2
			c0-0.5-0.1-0.9-0.4-1.2c-0.3-0.3-0.6-0.5-1.1-0.5c-0.4,0-0.8,0.2-1.1,0.5s-0.4,0.7-0.4,1.2c0,0.5,0.1,0.9,0.4,1.2
			c0.3,0.3,0.6,0.5,1.1,0.5C59.2,14.8,59.5,14.7,59.8,14.4z"/>
		<path class="st0" d="M63.7,15.7c-0.1,0.1-0.3,0.2-0.5,0.2c-0.2,0-0.3-0.1-0.4-0.2c-0.1-0.1-0.2-0.3-0.2-0.5V8.8
			c0-0.2,0.1-0.3,0.2-0.5s0.3-0.2,0.5-0.2c0.2,0,0.3,0.1,0.4,0.2c0.1,0.1,0.2,0.3,0.2,0.5v6.4C63.9,15.4,63.9,15.6,63.7,15.7z"/>
		<path class="st0" d="M70.1,13.4c-0.1,0.1-0.3,0.2-0.4,0.2h-3.4c0.1,0.4,0.3,0.7,0.6,1c0.3,0.2,0.6,0.3,1,0.3c0.3,0,0.5,0,0.7-0.1
			c0.2-0.1,0.3-0.1,0.4-0.2c0.1-0.1,0.2-0.1,0.2-0.1c0.1-0.1,0.2-0.1,0.4-0.1c0.1,0,0.3,0.1,0.4,0.2c0.1,0.1,0.2,0.2,0.2,0.4
			c0,0.2-0.1,0.4-0.3,0.5c-0.2,0.2-0.5,0.3-0.8,0.4c-0.3,0.1-0.7,0.2-1,0.2c-0.6,0-1.1-0.1-1.5-0.4s-0.8-0.6-1-1
			c-0.2-0.4-0.4-0.9-0.4-1.4c0-0.6,0.1-1.1,0.4-1.6s0.6-0.8,1-1c0.4-0.2,0.8-0.4,1.3-0.4c0.5,0,0.9,0.1,1.3,0.4c0.4,0.2,0.7,0.6,1,1
			c0.2,0.4,0.4,0.9,0.4,1.4C70.3,13.1,70.3,13.3,70.1,13.4z M66.3,12.5H69v-0.1c0-0.3-0.2-0.5-0.4-0.7c-0.3-0.2-0.5-0.3-0.9-0.3
			C66.9,11.4,66.4,11.8,66.3,12.5z"/>
		<path class="st0" d="M78.7,10.6c0.4,0.2,0.7,0.6,0.9,1s0.3,0.9,0.3,1.5c0,0.6-0.1,1-0.3,1.5c-0.2,0.4-0.5,0.8-0.9,1
			c-0.4,0.2-0.8,0.4-1.3,0.4c-0.3,0-0.6-0.1-0.9-0.2s-0.5-0.3-0.7-0.5v2c0,0.2-0.1,0.3-0.2,0.5c-0.1,0.1-0.3,0.2-0.4,0.2
			s-0.3-0.1-0.4-0.2c-0.1-0.1-0.2-0.3-0.2-0.5V11c0-0.2,0.1-0.3,0.2-0.5s0.3-0.2,0.4-0.2s0.3,0.1,0.4,0.2c0.1,0.1,0.2,0.3,0.2,0.5v0
			c0.2-0.2,0.4-0.4,0.7-0.5c0.3-0.2,0.6-0.2,0.9-0.2C77.8,10.2,78.3,10.4,78.7,10.6z M78.3,14.4c0.3-0.3,0.4-0.7,0.4-1.2
			c0-0.5-0.1-0.9-0.4-1.2c-0.3-0.3-0.6-0.5-1.1-0.5s-0.8,0.2-1.1,0.5s-0.4,0.7-0.4,1.2c0,0.5,0.1,0.9,0.4,1.2
			c0.3,0.3,0.6,0.5,1.1,0.5C77.6,14.8,78,14.7,78.3,14.4z"/>
		<path class="st0" d="M86,10.4c0.1,0.1,0.2,0.3,0.2,0.5v4.4c0,0.2-0.1,0.3-0.2,0.5s-0.3,0.2-0.4,0.2s-0.3-0.1-0.4-0.2
			c-0.1-0.1-0.2-0.3-0.2-0.4c-0.2,0.2-0.4,0.4-0.7,0.5c-0.3,0.1-0.6,0.2-0.9,0.2c-0.5,0-0.9-0.1-1.3-0.4c-0.4-0.2-0.7-0.6-0.9-1
			c-0.2-0.4-0.3-0.9-0.3-1.5s0.1-1,0.3-1.5c0.2-0.4,0.5-0.8,0.9-1c0.4-0.2,0.8-0.4,1.3-0.4c0.3,0,0.6,0.1,0.9,0.2
			c0.3,0.1,0.5,0.3,0.7,0.5v0c0-0.2,0.1-0.3,0.2-0.5c0.1-0.1,0.3-0.2,0.4-0.2S85.9,10.3,86,10.4z M84.5,14.4
			c0.3-0.3,0.4-0.7,0.4-1.2c0-0.5-0.1-0.9-0.4-1.2c-0.3-0.3-0.6-0.5-1.1-0.5c-0.4,0-0.8,0.2-1.1,0.5c-0.3,0.3-0.4,0.7-0.4,1.2
			c0,0.5,0.1,0.9,0.4,1.2c0.3,0.3,0.6,0.5,1.1,0.5S84.3,14.7,84.5,14.4z M83.3,9.9c-0.1-0.1-0.1-0.1-0.1-0.2c0-0.1,0-0.1,0.1-0.2
			l0.6-1.1C84,8.3,84,8.2,84.1,8.1C84.2,8,84.3,8,84.5,8c0.2,0,0.3,0,0.4,0.1C85,8.2,85,8.3,85,8.5c0,0.2-0.1,0.3-0.2,0.4L84,9.8
			c-0.1,0.1-0.3,0.2-0.5,0.2C83.5,10,83.4,10,83.3,9.9z"/>
		<path class="st0" d="M92.6,10.4c0.1,0.1,0.2,0.3,0.2,0.5v4.6c0,0.8-0.3,1.5-0.8,1.9s-1.2,0.6-2,0.6c-0.2,0-0.5,0-0.9-0.1
			c-0.4-0.1-0.6-0.1-0.8-0.2c-0.3-0.1-0.5-0.3-0.5-0.6c0,0,0-0.1,0-0.2c0-0.2,0.1-0.3,0.2-0.3c0.1-0.1,0.2-0.1,0.3-0.1
			c0.1,0,0.1,0,0.2,0c0,0,0.2,0.1,0.5,0.2c0.3,0.1,0.6,0.2,0.9,0.2c0.5,0,0.9-0.1,1.1-0.3s0.4-0.5,0.4-0.9v-0.5
			c-0.2,0.2-0.4,0.4-0.7,0.6c-0.3,0.2-0.6,0.3-1,0.3c-0.5,0-0.9-0.1-1.3-0.4s-0.7-0.6-0.9-1c-0.2-0.4-0.3-0.9-0.3-1.5s0.1-1,0.3-1.5
			s0.5-0.8,0.9-1c0.4-0.2,0.8-0.4,1.3-0.4c0.4,0,0.7,0.1,1,0.2c0.3,0.1,0.5,0.3,0.7,0.5v-0.1c0-0.2,0.1-0.3,0.2-0.5
			c0.1-0.1,0.3-0.2,0.4-0.2S92.5,10.3,92.6,10.4z M91.2,14.4c0.3-0.3,0.4-0.7,0.4-1.2c0-0.5-0.1-0.9-0.4-1.2
			c-0.3-0.3-0.7-0.5-1.1-0.5s-0.8,0.2-1.1,0.5c-0.3,0.3-0.4,0.7-0.4,1.2c0,0.5,0.1,0.9,0.4,1.2c0.3,0.3,0.7,0.5,1.1,0.5
			S90.9,14.7,91.2,14.4z"/>
		<path class="st0" d="M94.3,9.6c-0.1-0.1-0.1-0.2-0.1-0.4V9c0-0.2,0.1-0.3,0.2-0.4s0.3-0.1,0.5-0.1c0.2,0,0.4,0,0.5,0.1
			c0.1,0.1,0.1,0.2,0.1,0.4v0.2c0,0.2,0,0.3-0.2,0.4c-0.1,0.1-0.3,0.1-0.5,0.1C94.6,9.7,94.4,9.6,94.3,9.6z M95.3,15.7
			c-0.1,0.1-0.3,0.2-0.4,0.2c-0.2,0-0.3-0.1-0.4-0.2s-0.2-0.3-0.2-0.5V11c0-0.2,0.1-0.3,0.2-0.5s0.3-0.2,0.4-0.2
			c0.2,0,0.3,0.1,0.4,0.2c0.1,0.1,0.2,0.3,0.2,0.5v4.3C95.4,15.4,95.4,15.6,95.3,15.7z"/>
		<path class="st0" d="M101.2,10.9c0.3,0.4,0.4,1,0.4,1.7v2.7c0,0.2-0.1,0.3-0.2,0.5c-0.1,0.1-0.3,0.2-0.4,0.2s-0.3-0.1-0.4-0.2
			c-0.1-0.1-0.2-0.3-0.2-0.5v-2.7c0-0.4-0.1-0.7-0.2-0.9c-0.2-0.2-0.4-0.3-0.8-0.3c-0.4,0-0.7,0.1-0.9,0.3c-0.2,0.2-0.3,0.5-0.3,0.9
			v2.7c0,0.2-0.1,0.3-0.2,0.5c-0.1,0.1-0.3,0.2-0.4,0.2s-0.3-0.1-0.4-0.2s-0.2-0.3-0.2-0.5V11c0-0.2,0.1-0.3,0.2-0.5
			s0.3-0.2,0.4-0.2s0.3,0.1,0.4,0.2c0.1,0.1,0.2,0.3,0.2,0.5v0.2c0.2-0.2,0.4-0.5,0.7-0.6s0.6-0.3,1-0.3
			C100.5,10.2,101,10.4,101.2,10.9z"/>
		<path class="st0" d="M108,10.4c0.1,0.1,0.2,0.3,0.2,0.5v4.4c0,0.2-0.1,0.3-0.2,0.5c-0.1,0.1-0.3,0.2-0.4,0.2s-0.3-0.1-0.4-0.2
			s-0.2-0.3-0.2-0.4c-0.2,0.2-0.4,0.4-0.7,0.5s-0.6,0.2-0.9,0.2c-0.5,0-0.9-0.1-1.3-0.4s-0.7-0.6-0.9-1c-0.2-0.4-0.3-0.9-0.3-1.5
			s0.1-1,0.3-1.5c0.2-0.4,0.5-0.8,0.9-1c0.4-0.2,0.8-0.4,1.3-0.4c0.3,0,0.6,0.1,0.9,0.2s0.5,0.3,0.7,0.5v0c0-0.2,0.1-0.3,0.2-0.5
			s0.3-0.2,0.4-0.2S107.9,10.3,108,10.4z M106.6,14.4c0.3-0.3,0.4-0.7,0.4-1.2c0-0.5-0.1-0.9-0.4-1.2c-0.3-0.3-0.6-0.5-1.1-0.5
			c-0.4,0-0.8,0.2-1.1,0.5c-0.3,0.3-0.4,0.7-0.4,1.2c0,0.5,0.1,0.9,0.4,1.2s0.6,0.5,1.1,0.5C105.9,14.8,106.3,14.7,106.6,14.4z"/>
	</g>
</g>
</svg>
