<?xml version="1.0" encoding="utf-8"?>
<!-- Generator: Adobe Illustrator 24.1.1, SVG Export Plug-In . SVG Version: 6.00 Build 0)  -->
<svg version="1.1" id="barra_izq" xmlns="http://www.w3.org/2000/svg" xmlns:xlink="http://www.w3.org/1999/xlink" x="0px" y="0px"
	 viewBox="0 0 181.8 42.2" style="enable-background:new 0 0 181.8 42.2;" xml:space="preserve">
<style type="text/css">
	.st0{fill:#FFFFFF;}
</style>
<g>
	<g>
		<g>
			<path class="st0" d="M27.7,0H9.2C8.9,0,8.5,0.1,8.3,0.4L0.4,8.3C0.1,8.5,0,8.9,0,9.2v29.1c0,2.1,1.7,3.9,3.9,3.9h23.8
				c2.1,0,3.9-1.7,3.9-3.9V3.9C31.6,1.8,29.9,0,27.7,0z M9.3,2.9v5c0,0.8-0.6,1.4-1.4,1.4h-5L9.3,2.9z M29.1,38.3
				c0,0.8-0.6,1.4-1.4,1.4H3.9c-0.8,0-1.4-0.6-1.4-1.4V11.7h5.4c2.1,0,3.9-1.7,3.9-3.9V2.5h16c0.8,0,1.4,0.6,1.4,1.4V38.3z"/>
			<path class="st0" d="M29.1,3.9v34.4c0,2.2,1.8,3.9,3.9,3.9h11.9h6.2h5.7c2.1,0,3.9-1.7,3.9-3.9V3.9C60.7,1.8,59,0,56.8,0h-10H43
				H33C30.8,0,29.1,1.8,29.1,3.9z M31.6,3.9c0-0.8,0.6-1.4,1.4-1.4h10h3.9h10c0.8,0,1.4,0.6,1.4,1.4v34.4c0,0.8-0.6,1.4-1.4,1.4
				h-5.7h-6.2H33c-0.8,0-1.4-0.6-1.4-1.4C31.6,38.3,31.6,3.9,31.6,3.9z"/>
		</g>
		<path class="st0" d="M14.9,28.6c0.5,0.5,1.3,0.5,1.8,0l5.3-5.3c0.5-0.5,0.5-1.3,0-1.8c-0.5-0.5-1.3-0.5-1.8,0L17,24.7v-8.9
			c0-0.7-0.5-1.2-1.2-1.2c-0.7,0-1.2,0.6-1.2,1.2v8.9l-3.2-3.2c-0.5-0.5-1.3-0.5-1.8,0c-0.5,0.5-0.5,1.3,0,1.8L14.9,28.6z"/>
		<path class="st0" d="M21.1,31.8H10.5c-0.7,0-1.2,0.5-1.2,1.2c0,0.7,0.6,1.2,1.2,1.2h10.6c0.7,0,1.2-0.5,1.2-1.2
			C22.3,32.3,21.8,31.8,21.1,31.8z"/>
	</g>
	<g>
		<path class="st0" d="M79.9,15.1c0.8,0.5,1.4,1.3,1.8,2.2c0.4,0.9,0.6,1.9,0.6,3c0,1.1-0.2,2.1-0.6,3s-1,1.6-1.8,2.2
			s-1.7,0.8-2.8,0.8H73c-0.3,0-0.6-0.1-0.8-0.3c-0.2-0.2-0.3-0.5-0.3-0.8v-9.9c0-0.3,0.1-0.6,0.3-0.8c0.2-0.2,0.4-0.3,0.8-0.3h4.1
			C78.2,14.3,79.1,14.5,79.9,15.1z M79.3,23.2c0.5-0.8,0.8-1.7,0.8-2.9s-0.3-2.1-0.8-2.9S78,16.2,77,16.2h-2.8v8.1H77
			C78,24.3,78.8,24,79.3,23.2z"/>
		<path class="st0" d="M92.6,24.2c-0.4,0.7-1,1.3-1.7,1.7c-0.7,0.4-1.5,0.6-2.4,0.6c-0.9,0-1.7-0.2-2.4-0.6s-1.3-1-1.7-1.7
			c-0.4-0.7-0.6-1.5-0.6-2.5s0.2-1.7,0.6-2.5s1-1.3,1.7-1.7s1.5-0.6,2.4-0.6c0.9,0,1.7,0.2,2.4,0.6c0.7,0.4,1.3,1,1.7,1.7
			c0.4,0.7,0.6,1.5,0.6,2.5C93.3,22.6,93.1,23.5,92.6,24.2z M90.8,20.2c-0.2-0.4-0.6-0.8-0.9-1s-0.8-0.4-1.3-0.4
			c-0.5,0-0.9,0.1-1.3,0.4s-0.7,0.6-0.9,1S86,21.1,86,21.7s0.1,1.1,0.3,1.5c0.2,0.4,0.6,0.8,0.9,1c0.4,0.2,0.8,0.4,1.3,0.4
			c0.5,0,0.9-0.1,1.3-0.4s0.7-0.6,0.9-1c0.2-0.4,0.3-0.9,0.3-1.5C91.2,21.1,91.1,20.6,90.8,20.2z"/>
		<path class="st0" d="M102.1,17.5c0.6,0.4,1.2,1,1.5,1.7c0.4,0.7,0.6,1.5,0.6,2.5c0,0.9-0.2,1.7-0.6,2.5s-0.9,1.3-1.5,1.7
			c-0.6,0.4-1.3,0.6-2.1,0.6c-0.6,0-1.1-0.1-1.6-0.3c-0.5-0.2-0.9-0.5-1.2-0.8v0.1c0,0.3-0.1,0.5-0.3,0.8c-0.2,0.2-0.4,0.3-0.7,0.3
			s-0.5-0.1-0.7-0.3s-0.3-0.5-0.3-0.8V14.6c0-0.3,0.1-0.6,0.3-0.8s0.4-0.3,0.7-0.3s0.5,0.1,0.7,0.3c0.2,0.2,0.3,0.4,0.3,0.8v3.6
			c0.3-0.3,0.7-0.6,1.2-0.9c0.5-0.3,1-0.4,1.6-0.4C100.7,16.9,101.4,17.1,102.1,17.5z M101.5,23.8c0.5-0.5,0.7-1.2,0.7-2.1
			c0-0.8-0.2-1.5-0.7-2.1s-1.1-0.8-1.8-0.8c-0.8,0-1.3,0.3-1.8,0.8c-0.5,0.5-0.7,1.2-0.7,2.1s0.2,1.5,0.7,2.1
			c0.5,0.5,1.1,0.8,1.8,0.8C100.4,24.6,101,24.3,101.5,23.8z"/>
		<path class="st0" d="M108,26c-0.2,0.2-0.4,0.3-0.8,0.3c-0.3,0-0.5-0.1-0.7-0.3c-0.2-0.2-0.3-0.5-0.3-0.8V14.6
			c0-0.3,0.1-0.6,0.3-0.8c0.2-0.2,0.4-0.3,0.8-0.3c0.3,0,0.5,0.1,0.7,0.3s0.3,0.4,0.3,0.8v10.6C108.3,25.6,108.2,25.8,108,26z"/>
		<path class="st0" d="M118.6,22.2c-0.2,0.2-0.4,0.3-0.7,0.3h-5.7c0.1,0.7,0.4,1.2,0.9,1.6c0.5,0.4,1.1,0.6,1.7,0.6
			c0.5,0,0.8,0,1.1-0.1c0.3-0.1,0.5-0.2,0.6-0.3c0.2-0.1,0.3-0.2,0.3-0.2c0.2-0.1,0.4-0.1,0.6-0.1c0.2,0,0.4,0.1,0.6,0.3
			c0.2,0.2,0.3,0.4,0.3,0.6c0,0.3-0.2,0.6-0.5,0.8c-0.3,0.3-0.8,0.5-1.3,0.7s-1.1,0.3-1.6,0.3c-1,0-1.8-0.2-2.5-0.6
			c-0.7-0.4-1.3-1-1.7-1.7c-0.4-0.7-0.6-1.5-0.6-2.4c0-1,0.2-1.9,0.6-2.6s1-1.3,1.6-1.7c0.7-0.4,1.4-0.6,2.2-0.6
			c0.8,0,1.5,0.2,2.1,0.6s1.2,1,1.6,1.7s0.6,1.5,0.6,2.3C118.9,21.8,118.8,22,118.6,22.2z M112.2,20.7h4.5v-0.1
			c-0.1-0.5-0.3-0.9-0.7-1.2c-0.4-0.3-0.9-0.5-1.4-0.5C113.3,18.8,112.5,19.5,112.2,20.7z"/>
		<path class="st0" d="M132.7,17.5c0.6,0.4,1.1,1,1.5,1.7c0.4,0.7,0.6,1.5,0.6,2.5c0,0.9-0.2,1.7-0.6,2.5c-0.4,0.7-0.9,1.3-1.5,1.7
			c-0.6,0.4-1.3,0.6-2.1,0.6c-0.6,0-1.1-0.1-1.6-0.3c-0.5-0.2-0.9-0.5-1.2-0.8v3.4c0,0.3-0.1,0.5-0.3,0.8c-0.2,0.2-0.4,0.3-0.7,0.3
			s-0.5-0.1-0.7-0.3c-0.2-0.2-0.3-0.5-0.3-0.8V18.1c0-0.3,0.1-0.5,0.3-0.8s0.4-0.3,0.7-0.3s0.5,0.1,0.7,0.3c0.2,0.2,0.3,0.5,0.3,0.8
			v0.1c0.3-0.3,0.7-0.6,1.2-0.9c0.5-0.3,1-0.4,1.6-0.4C131.4,16.9,132.1,17.1,132.7,17.5z M132.1,23.8c0.5-0.5,0.7-1.2,0.7-2.1
			c0-0.8-0.2-1.5-0.7-2.1s-1.1-0.8-1.8-0.8c-0.8,0-1.4,0.3-1.8,0.8c-0.5,0.5-0.7,1.2-0.7,2.1s0.2,1.5,0.7,2.1
			c0.5,0.5,1.1,0.8,1.8,0.8C131.1,24.6,131.6,24.3,132.1,23.8z"/>
		<path class="st0" d="M144.9,17.2c0.2,0.2,0.3,0.5,0.3,0.8v7.3c0,0.3-0.1,0.5-0.3,0.8c-0.2,0.2-0.4,0.3-0.7,0.3s-0.5-0.1-0.7-0.3
			s-0.3-0.4-0.3-0.7c-0.3,0.3-0.7,0.6-1.2,0.9s-1,0.4-1.5,0.4c-0.8,0-1.5-0.2-2.1-0.6s-1.1-1-1.5-1.7s-0.6-1.5-0.6-2.5
			c0-0.9,0.2-1.7,0.6-2.5c0.4-0.7,0.9-1.3,1.5-1.7c0.6-0.4,1.3-0.6,2.1-0.6c0.6,0,1.1,0.1,1.6,0.3c0.5,0.2,0.9,0.5,1.2,0.8v0
			c0-0.3,0.1-0.5,0.3-0.8c0.2-0.2,0.4-0.3,0.7-0.3C144.4,16.9,144.7,17,144.9,17.2z M142.5,23.8c0.5-0.5,0.7-1.2,0.7-2.1
			s-0.2-1.5-0.7-2.1s-1.1-0.8-1.8-0.8c-0.7,0-1.3,0.3-1.8,0.8s-0.7,1.2-0.7,2.1c0,0.8,0.2,1.5,0.7,2.1s1.1,0.8,1.8,0.8
			C141.4,24.6,142,24.3,142.5,23.8z M140.5,16.4c-0.1-0.1-0.2-0.2-0.2-0.4c0-0.1,0-0.2,0.1-0.3l1-1.8c0.1-0.2,0.3-0.4,0.4-0.5
			s0.3-0.2,0.5-0.2c0.3,0,0.5,0.1,0.7,0.2c0.1,0.2,0.2,0.4,0.2,0.6c0,0.3-0.1,0.5-0.3,0.7l-1.3,1.5c-0.2,0.2-0.4,0.3-0.8,0.3
			C140.8,16.5,140.6,16.5,140.5,16.4z"/>
		<path class="st0" d="M155.9,17.2c0.2,0.2,0.3,0.5,0.3,0.8v7.6c0,1.4-0.4,2.4-1.3,3.1c-0.9,0.7-2,1-3.3,1c-0.3,0-0.8-0.1-1.4-0.2
			c-0.6-0.1-1-0.2-1.3-0.3c-0.6-0.2-0.8-0.6-0.8-1c0-0.1,0-0.2,0.1-0.3c0.1-0.3,0.2-0.5,0.4-0.6c0.2-0.1,0.4-0.2,0.5-0.2
			c0.1,0,0.2,0,0.3,0c0.1,0,0.3,0.1,0.9,0.3c0.5,0.2,1,0.3,1.4,0.3c0.9,0,1.5-0.2,1.9-0.5s0.6-0.8,0.6-1.4v-0.8
			c-0.3,0.4-0.6,0.7-1.1,1c-0.5,0.3-1.1,0.4-1.6,0.4c-0.8,0-1.5-0.2-2.2-0.6s-1.2-1-1.6-1.7s-0.6-1.5-0.6-2.5c0-0.9,0.2-1.7,0.6-2.5
			s0.9-1.3,1.5-1.7c0.6-0.4,1.4-0.6,2.2-0.6c0.6,0,1.1,0.1,1.6,0.4s0.9,0.5,1.2,0.9V18c0-0.3,0.1-0.5,0.3-0.8
			c0.2-0.2,0.4-0.3,0.7-0.3C155.5,16.9,155.8,17,155.9,17.2z M153.5,23.8c0.5-0.5,0.7-1.2,0.7-2.1s-0.2-1.5-0.7-2.1
			c-0.5-0.5-1.1-0.8-1.9-0.8c-0.8,0-1.4,0.3-1.9,0.8s-0.7,1.2-0.7,2.1c0,0.8,0.2,1.5,0.7,2.1c0.5,0.5,1.1,0.8,1.9,0.8
			C152.4,24.6,153,24.3,153.5,23.8z"/>
		<path class="st0" d="M158.7,15.8c-0.2-0.1-0.2-0.4-0.2-0.7v-0.3c0-0.3,0.1-0.5,0.3-0.7s0.4-0.2,0.8-0.2c0.4,0,0.7,0.1,0.8,0.2
			s0.2,0.4,0.2,0.7v0.3c0,0.3-0.1,0.6-0.3,0.7s-0.4,0.2-0.9,0.2C159.1,16,158.9,15.9,158.7,15.8z M160.3,26
			c-0.2,0.2-0.4,0.3-0.7,0.3s-0.5-0.1-0.7-0.3c-0.2-0.2-0.3-0.5-0.3-0.8v-7.1c0-0.3,0.1-0.5,0.3-0.8c0.2-0.2,0.4-0.3,0.7-0.3
			s0.5,0.1,0.7,0.3c0.2,0.2,0.3,0.5,0.3,0.8v7.1C160.6,25.6,160.5,25.8,160.3,26z"/>
		<path class="st0" d="M170.2,18c0.4,0.7,0.7,1.6,0.7,2.9v4.4c0,0.3-0.1,0.5-0.3,0.8c-0.2,0.2-0.4,0.3-0.7,0.3s-0.5-0.1-0.7-0.3
			c-0.2-0.2-0.3-0.5-0.3-0.8v-4.4c0-0.6-0.1-1.1-0.4-1.5c-0.3-0.4-0.7-0.5-1.4-0.5c-0.7,0-1.2,0.2-1.6,0.6c-0.4,0.4-0.6,0.9-0.6,1.5
			v4.4c0,0.3-0.1,0.5-0.3,0.8c-0.2,0.2-0.4,0.3-0.7,0.3s-0.5-0.1-0.7-0.3c-0.2-0.2-0.3-0.5-0.3-0.8v-7.1c0-0.3,0.1-0.5,0.3-0.8
			c0.2-0.2,0.4-0.3,0.7-0.3s0.5,0.1,0.7,0.3c0.2,0.2,0.3,0.5,0.3,0.8v0.3c0.3-0.4,0.7-0.8,1.2-1.1s1.1-0.5,1.6-0.5
			C169,16.9,169.8,17.3,170.2,18z"/>
		<path class="st0" d="M181.5,17.2c0.2,0.2,0.3,0.5,0.3,0.8v7.3c0,0.3-0.1,0.5-0.3,0.8c-0.2,0.2-0.4,0.3-0.7,0.3s-0.5-0.1-0.7-0.3
			s-0.3-0.4-0.3-0.7c-0.3,0.3-0.7,0.6-1.2,0.9s-1,0.4-1.5,0.4c-0.8,0-1.5-0.2-2.1-0.6s-1.1-1-1.5-1.7s-0.6-1.5-0.6-2.5
			c0-0.9,0.2-1.7,0.6-2.5c0.4-0.7,0.9-1.3,1.5-1.7c0.6-0.4,1.3-0.6,2.1-0.6c0.6,0,1.1,0.1,1.6,0.3c0.5,0.2,0.9,0.5,1.2,0.8v0
			c0-0.3,0.1-0.5,0.3-0.8c0.2-0.2,0.4-0.3,0.7-0.3C181.1,16.9,181.3,17,181.5,17.2z M179.1,23.8c0.5-0.5,0.7-1.2,0.7-2.1
			s-0.2-1.5-0.7-2.1s-1.1-0.8-1.8-0.8c-0.7,0-1.3,0.3-1.8,0.8s-0.7,1.2-0.7,2.1c0,0.8,0.2,1.5,0.7,2.1s1.1,0.8,1.8,0.8
			C178,24.6,178.6,24.3,179.1,23.8z"/>
	</g>
</g>
</svg>
