<?xml version="1.0" encoding="utf-8"?>
<!-- Generator: Adobe Illustrator 24.1.1, SVG Export Plug-In . SVG Version: 6.00 Build 0)  -->
<svg version="1.1" id="barra_izq" xmlns="http://www.w3.org/2000/svg" xmlns:xlink="http://www.w3.org/1999/xlink" x="0px" y="0px"
	 viewBox="0 0 30.1 30.1" style="enable-background:new 0 0 30.1 30.1;" xml:space="preserve">
<style type="text/css">
	.st0{fill:#FFFFFF;}
</style>
<g>
	<path class="st0" d="M30.1,15.1C30.1,6.7,23.4,0,15.1,0C6.7,0,0,6.7,0,15.1c0,8.3,6.7,15.1,15.1,15.1c0.1,0,0.2,0,0.3,0V18.4h-3.2
		v-3.8h3.2v-2.8c0-3.2,2-5,4.8-5c1.4,0,2.6,0.1,2.9,0.1v3.4h-2c-1.6,0-1.9,0.7-1.9,1.8v2.4H23l-0.5,3.8h-3.2v11.1
		C25.5,27.7,30.1,21.9,30.1,15.1z"/>
</g>
</svg>
