<?xml version="1.0" encoding="utf-8"?>
<!-- Generator: Adobe Illustrator 24.1.1, SVG Export Plug-In . SVG Version: 6.00 Build 0)  -->
<svg version="1.1" id="barra_izq" xmlns="http://www.w3.org/2000/svg" xmlns:xlink="http://www.w3.org/1999/xlink" x="0px" y="0px"
	 viewBox="0 0 31.1 27" style="enable-background:new 0 0 31.1 27;" xml:space="preserve">
<style type="text/css">
	.st0{fill:#DD052B;}
</style>
<g>
	<g>
		<path class="st0" d="M17.6,0c0.5,0,1,0.2,1.5,0.6L30.5,12c0.8,0.8,0.8,2.1,0,2.9L19.1,26.4c-0.8,0.8-2.1,0.8-2.9,0s-0.8-2.1,0-2.9
			l10-10l-10-10c-0.8-0.8-0.8-2.1,0-2.9C16.6,0.2,17.1,0,17.6,0z"/>
	</g>
	<g>
		<path class="st0" d="M2.1,11.4h27c1.1,0,2.1,0.9,2.1,2.1s-0.9,2.1-2.1,2.1h-27c-1.1,0-2.1-0.9-2.1-2.1S0.9,11.4,2.1,11.4z"/>
	</g>
</g>
</svg>
