<?xml version="1.0" encoding="utf-8"?>
<!-- Generator: Adobe Illustrator 24.1.1, SVG Export Plug-In . SVG Version: 6.00 Build 0)  -->
<svg version="1.1" id="barra_izq" xmlns="http://www.w3.org/2000/svg" xmlns:xlink="http://www.w3.org/1999/xlink" x="0px" y="0px"
	 viewBox="0 0 27 31.1" style="enable-background:new 0 0 27 31.1;" xml:space="preserve">
<style type="text/css">
	.st0{fill:#FFFFFF;}
</style>
<g>
	<g>
		<path class="st0" d="M27,17.6c0,0.5-0.2,1-0.6,1.5L15,30.5c-0.8,0.8-2.1,0.8-2.9,0L0.6,19.1c-0.8-0.8-0.8-2.1,0-2.9s2.1-0.8,2.9,0
			l10,10l10-10c0.8-0.8,2.1-0.8,2.9,0C26.8,16.6,27,17.1,27,17.6z"/>
	</g>
	<g>
		<path class="st0" d="M15.6,2.1v27c0,1.1-0.9,2.1-2.1,2.1s-2.1-0.9-2.1-2.1v-27c0-1.1,0.9-2.1,2.1-2.1S15.6,0.9,15.6,2.1z"/>
	</g>
</g>
</svg>
