<?xml version="1.0" encoding="utf-8"?>
<!-- Generator: Adobe Illustrator 24.1.1, SVG Export Plug-In . SVG Version: 6.00 Build 0)  -->
<svg version="1.1" id="barra_izq" xmlns="http://www.w3.org/2000/svg" xmlns:xlink="http://www.w3.org/1999/xlink" x="0px" y="0px"
	 viewBox="0 0 30.1 30.1" style="enable-background:new 0 0 30.1 30.1;" xml:space="preserve">
<style type="text/css">
	.st0{fill:#FFFFFF;}
</style>
<g>
	<path class="st0" d="M15.1,0C6.7,0,0,6.7,0,15.1c0,8.3,6.7,15.1,15.1,15.1c8.3,0,15.1-6.7,15.1-15.1C30.1,6.7,23.4,0,15.1,0z
		 M10.7,22.8H7v-11h3.7V22.8z M8.9,10.2L8.9,10.2c-1.3,0-2.1-0.8-2.1-1.9c0-1.1,0.8-1.9,2.1-1.9s2,0.8,2.1,1.9
		C10.9,9.4,10.1,10.2,8.9,10.2z M23.9,22.8h-3.7v-5.9c0-1.5-0.5-2.5-1.9-2.5c-1,0-1.6,0.7-1.9,1.3c-0.1,0.2-0.1,0.6-0.1,0.9v6.2
		h-3.7c0,0,0-10,0-11h3.7v1.6c0.5-0.8,1.4-1.8,3.3-1.8c2.4,0,4.2,1.6,4.2,5V22.8z"/>
</g>
</svg>
