<?xml version="1.0" encoding="utf-8"?>
<!-- Generator: Adobe Illustrator 24.1.1, SVG Export Plug-In . SVG Version: 6.00 Build 0)  -->
<svg version="1.1" id="barra_izq" xmlns="http://www.w3.org/2000/svg" xmlns:xlink="http://www.w3.org/1999/xlink" x="0px" y="0px"
	 viewBox="0 0 90 58.6" style="enable-background:new 0 0 90 58.6;" xml:space="preserve">
<style type="text/css">
	.st0{fill:#7C3B1A;}
	.st1{fill:#CA1F32;}
</style>
<g>
	<path class="st0" d="M86.7,30.3h-1.5V34c0,0.4,0,0.6,0.2,1c0.4,0.9,1.4,1.1,2.5,1.1H90v-0.9h-1.9c-0.5,0-0.9-0.1-1.2-0.4
		c-0.2-0.3-0.3-0.5-0.3-0.8V30.3z"/>
	<path class="st0" d="M78.6,36.1l2.1-5.1c0,0,0.3-0.7,1-0.7c0.7,0,1,0.7,1,0.7l2.2,5.1h-1.5l-0.5-1.3h-1.8l0.4-1l1,0l-0.8-2l-0.8,2
		L80.8,34l-0.2,0.5l-0.1,0.3L80,36.1L78.6,36.1z"/>
	<path class="st1" d="M34.2,55.9c0,0.1,0,0.1,0,0.2c0,0.5-0.6,0.6-1,0.6c-0.8,0-3-0.4-5-0.9c2.3-1.6,2.6-2,2.6-2.3v-4.1
		c0-0.5,0.3-0.9,0.9-0.9c0.3,0,0.7,0.2,1,0.7l0.2-0.1c-0.2-0.4-0.7-0.8-1.2-0.8c-1.2,0-3,1.7-4,1.7c-0.4,0-0.6-0.2-0.7-0.8h-0.2
		c0,0.8,0.5,1,1.2,1c0.2,0,0.3,0.1,0.3,0.2v4.8c0,0.2-0.1,0.3-0.4,0.5l-0.8-0.2c-0.5,0.6-0.8,1-1.3,1.5l0.1,0.1
		c0.3-0.1,0.5-0.1,0.6-0.1c1,0,5.6,1,6.6,1.2l-0.1,0.4l0.2,0.1c0.3-1.1,1.3-1.9,1.3-2.5c0-0.1,0-0.1-0.1-0.2H34.2z M29.5,49.9
		c0-0.4,0.2-0.6,0.6-0.8v4.9c0,0.2-0.2,0.4-0.6,0.6V49.9z"/>
	<path class="st1" d="M34.4,51c0.1,0,0.1,0,0.2,0.1c0,0,0,0.1,0,0.2v3.8c0,0.1,0,0.1,0,0.2c0,0-0.1,0.1-0.2,0.1v0.1h1.4v-0.1
		c-0.1,0-0.1,0-0.2-0.1c0,0-0.1-0.1-0.1-0.2v-3.8c0-0.1,0-0.1,0.1-0.2c0,0,0.1-0.1,0.2-0.1v-0.1h-1.4V51z"/>
	<path class="st1" d="M40.7,51c0.1,0,0.1,0,0.2,0.1c0,0,0,0.1,0,0.2v2.7l-2.5-2.6c-0.1-0.1-0.1-0.1-0.1-0.2c0-0.1,0-0.1,0.1-0.2
		v-0.1h-1.5V51c0.1,0,0.1,0,0.2,0.1c0,0,0,0.1,0,0.2v3.8c0,0.1,0,0.1,0,0.2c0,0-0.1,0.1-0.2,0.1v0.1h1.3v-0.1c-0.1,0-0.1,0-0.2-0.1
		c0,0,0-0.1,0-0.2v-2.8l2.5,2.6c0.1,0.1,0.2,0.2,0.2,0.2c0,0.1,0,0.1-0.1,0.1v0.1H42v-0.1c-0.1,0-0.1,0-0.2-0.1c0,0,0-0.1,0-0.2
		v-3.8c0-0.1,0-0.1,0-0.2c0,0,0.1-0.1,0.2-0.1v-0.1h-1.3V51z"/>
	<path class="st1" d="M46.9,51.1c-0.3-0.1-0.7-0.2-1.3-0.2h-2.5V51c0.1,0,0.1,0,0.2,0.1c0,0,0,0.1,0,0.2v3.8c0,0.1,0,0.1,0,0.2
		c0,0-0.1,0.1-0.2,0.1v0.1h2.5c0.4,0,0.8,0,1-0.1c0.3-0.1,0.5-0.2,0.7-0.4c0.5-0.4,0.7-1,0.7-1.8c0-0.4-0.1-0.8-0.2-1.2
		C47.7,51.6,47.4,51.3,46.9,51.1 M46.5,54.5c-0.2,0.1-0.5,0.2-0.9,0.2h-1.2v-3h1.2c0.3,0,0.5,0,0.7,0.1c0.2,0.1,0.3,0.2,0.5,0.3
		c0.2,0.3,0.3,0.6,0.3,1.1C47.1,53.8,46.9,54.3,46.5,54.5"/>
	<path class="st1" d="M53.3,54.6c0,0-0.1,0-0.2,0h-2.8v-3.4c0-0.1,0-0.1,0.1-0.2c0,0,0.1-0.1,0.2-0.1v-0.1h-1.4V51
		c0.1,0,0.1,0,0.2,0.1c0,0,0,0.1,0,0.2v3.8c0,0.1,0,0.1,0,0.2c0,0-0.1,0.1-0.2,0.1v0.1h4c0.1,0,0.1,0,0.2,0c0,0,0.1,0.2,0.1,0.3h0.1
		v-1.3h-0.1C53.3,54.6,53.3,54.6,53.3,54.6"/>
	<path class="st1" d="M58.5,54.6c0,0-0.1,0-0.2,0h-2.9v-1.2h1.8c0.1,0,0.1,0,0.2,0.1c0,0,0.1,0.1,0.1,0.2h0.1v-1.1h-0.1
		c0,0.1-0.1,0.1-0.1,0.2c0,0-0.1,0-0.2,0h-1.8v-1.1h2.8c0.1,0,0.1,0,0.2,0c0,0,0.1,0.1,0.1,0.2h0.1v-1.2h-0.1c0,0.1,0,0.1-0.1,0.2
		c0,0-0.1,0-0.2,0h-4V51c0.1,0,0.1,0,0.2,0.1c0,0,0,0.1,0,0.2v3.8c0,0.1,0,0.1,0,0.2c0,0-0.1,0.1-0.2,0.1v0.1h4.1c0.1,0,0.1,0,0.2,0
		c0,0,0.1,0.2,0.1,0.3h0.1v-1.3h-0.1C58.6,54.6,58.6,54.6,58.5,54.6"/>
	<path class="st1" d="M62.5,50.9V51c0.1,0,0.1,0,0.2,0.1c0,0,0.1,0.1,0.1,0.1c0,0,0,0.1-0.1,0.3l-0.8,1.2l-0.8-1.2
		c-0.1-0.1-0.1-0.2-0.1-0.3c0-0.1,0.1-0.2,0.2-0.2v-0.1h-1.8V51c0.1,0,0.2,0,0.3,0.1c0.1,0.1,0.2,0.2,0.3,0.4l1.5,2.1v1.5
		c0,0.1,0,0.1,0,0.2c0,0-0.1,0.1-0.2,0.1v0.1h1.4v-0.1c-0.1,0-0.1,0-0.2-0.1c0,0,0-0.1,0-0.2v-1.5l1.5-2.1c0.1-0.2,0.2-0.3,0.3-0.4
		c0.1-0.1,0.2-0.1,0.3-0.1v-0.1H62.5z"/>
	<path class="st1" d="M31.5,12.6l6.8-6.8c0.8-0.8,1.7,0,1.7,0l1.9,1.9l3.4-3.4c-1.2-1.2-2.2-2.2-2.7-2.7c-3.4-3.4-6.8,0-6.8,0
		L27.2,10c-3.4,3.4,0,6.9,0,6.9l8.1,8.1c0,0,0.4,0.4,0.9-0.1c0.2-0.2,0.4-0.4,0.4-1.2c0-0.6,0-4.3,0-4.3l-5.1-5.1
		C30.6,13.4,31.5,12.6,31.5,12.6"/>
	<path class="st1" d="M49.8,8.8l-3.4,3.4l0.4,0.4c0.8,0.8,0,1.7,0,1.7l-5.2,5.2c0,0,0,3.5,0,4c0,0.9,0.2,1.2,0.4,1.4
		c0.5,0.5,1,0.1,1,0.1s6.4-6.4,8.1-8.1c3.4-3.4,0-6.8,0-6.8S50.6,9.6,49.8,8.8"/>
	<path class="st0" d="M64,16.4c-0.2-0.2-0.4-0.4-1.2-0.4h-4.3l-5.1,5.1c-0.9,0.9-1.7,0-1.7,0l-1.9-1.9l-3.4,3.4l2.7,2.7
		c3.4,3.4,6.8,0,6.8,0l8.1-8.1C64.1,17.3,64.5,16.9,64,16.4"/>
	<path class="st0" d="M45.3,14.7l-0.4-0.4c-0.8-0.8,0-1.7,0-1.7l1-1l3.4-3.4l2.5-2.5c0.8-0.8,1.7,0,1.7,0l5.2,5.2c0,0,3.5,0,4,0
		c0.9,0,1.2-0.2,1.4-0.4c0.5-0.5,0.1-1,0.1-1S57.7,3.2,56,1.5c-3.4-3.4-6.8,0-6.8,0s-1.5,1.5-3.3,3.3c-1.1,1.1-2.4,2.4-3.4,3.4
		L40.7,10c-3.4,3.4,0,6.8,0,6.8l1.2,1.2L45.3,14.7z"/>
	<path class="st1" d="M15.8,36.1h2.6v-1l-2.4,0c-0.8,0-1.1-0.9-1.1-1.7c-0.1-0.9,0.2-2,1.1-2h2.4v-1.1H16c-0.4,0-0.7,0.1-1.1,0.2
		c-2,0.8-1.9,4.9,0.1,5.5C15.3,36.1,15.5,36.1,15.8,36.1"/>
	<path class="st1" d="M0,36.1L2.1,31c0,0,0.3-0.7,1-0.7c0.7,0,1,0.7,1,0.7l2.2,5.1H4.9l-0.5-1.3H2.6l0.4-1l1,0l-0.8-2l-0.8,2
		l-0.1,0.3l-0.2,0.5L2,34.9l-0.5,1.2L0,36.1z"/>
	<path class="st1" d="M7.1,30.3h4.2c0,0,1.5,0.1,1.6,1.8c0,0,0.1,1.4-1.5,1.7l1.6,2.4h-1.6l-1.5-2.3H9l0.4-0.9h0.9
		c0,0,1.1,0,1.1-0.9c0-0.8-1-0.8-1-0.8H8.4v4.9H7.1V30.3"/>
	<path class="st1" d="M19.1,36.1l2.1-5.1c0,0,0.3-0.7,1-0.7c0.7,0,1,0.7,1,0.7l2.2,5.1H24l-0.5-1.3h-1.8l0.4-1l1,0l-0.8-2l-0.8,2
		L21.4,34l-0.2,0.5L21,34.9l-0.5,1.2L19.1,36.1z"/>
	<polygon class="st0" points="73.5,31.3 75.6,31.3 75.6,36.1 77,36.1 77,31.3 79.2,31.3 79.2,30.3 73.5,30.3 	"/>
	<polygon class="st0" points="66.7,36.1 68,36.1 68,31.8 70.8,36.1 72.7,36.1 72.7,30.3 71.3,30.3 71.3,34.6 68.5,30.3 66.6,30.3 	
		"/>
	<path class="st0" d="M63,36.1h2.8v-1h-2.6c-0.4,0-0.7-0.2-0.9-0.5c-0.2-0.3-0.3-0.5-0.3-0.9h3.8v-1H62c0-0.4,0.1-0.7,0.4-1
		c0.3-0.3,0.6-0.4,1-0.4h2.4v-1h-2.6c-0.6,0-0.9,0.1-1.4,0.3c-1.8,0.9-1.8,4.3,0,5.2C62.2,36,62.5,36.1,63,36.1"/>
	<polygon class="st0" points="53.6,36.1 55,36.1 55,31.8 57.8,36.1 59.7,36.1 59.7,30.3 58.3,30.3 58.3,34.6 55.5,30.3 53.6,30.3 	
		"/>
	<polygon class="st0" points="44.9,31.3 47,31.3 47,36.1 48.4,36.1 48.4,31.3 50.6,31.3 50.6,30.3 44.9,30.3 	"/>
	<rect x="51.3" y="30.3" class="st0" width="1.5" height="5.8"/>
	<polygon class="st0" points="38,36.1 39.4,36.1 39.4,31.8 42.2,36.1 44.1,36.1 44.1,30.3 42.7,30.3 42.7,34.6 39.9,30.3 38,30.3 	
		"/>
	<path class="st0" d="M37.3,33.2c-0.1-1.9-0.7-3.1-3.2-3.1c-2.3,0-3.2,1.3-3.2,3c0,2.3,1.2,3.1,3.2,3.1
		C35.9,36.3,37.4,35.6,37.3,33.2 M34.2,35.2c-1.6,0-1.8-1-1.8-2.1c0-1,0.4-2,1.7-2c1.3,0,1.8,0.9,1.8,2
		C35.9,34.2,35.6,35.2,34.2,35.2"/>
	<path class="st0" d="M27.8,36.1h2.6v-1l-2.4,0c-0.8,0-1.1-0.9-1.1-1.7c-0.1-0.9,0.2-2,1.1-2h2.4v-1.1H28c-0.4,0-0.7,0.1-1.1,0.2
		c-2,0.8-1.9,4.9,0.1,5.5C27.3,36.1,27.5,36.1,27.8,36.1"/>
	<rect y="42.1" class="st0" width="90" height="0.3"/>
</g>
</svg>
