<?xml version="1.0" encoding="utf-8"?>
<!-- Generator: Adobe Illustrator 24.1.1, SVG Export Plug-In . SVG Version: 6.00 Build 0)  -->
<svg version="1.1" id="barra_izq" xmlns="http://www.w3.org/2000/svg" xmlns:xlink="http://www.w3.org/1999/xlink" x="0px" y="0px"
	 viewBox="0 0 246.2 246.2" style="enable-background:new 0 0 246.2 246.2;" xml:space="preserve">
<style type="text/css">
	.st0{fill:#DD052B;}
	.st1{fill:#FFFFFF;}
</style>
<g>
	<g>
		<circle class="st0" cx="123.1" cy="123.1" r="123.1"/>
		<g>
			<path class="st1" d="M123.1,94.2c4,0,16.3,0.9,17.9,11.7h-35.9C106.7,95.1,119.1,94.2,123.1,94.2 M102.5,110.8h41.1
				c1.3,0,2.4-1.1,2.4-2.4c0-11.7-8.8-19-22.9-19c-14.2,0-22.9,7.2-22.9,19C100.1,109.7,101.2,110.8,102.5,110.8"/>
			<path class="st1" d="M123.1,68.9c3.7,0,6.6,3,6.6,6.6c0,3.7-3,6.6-6.6,6.6c-3.7,0-6.6-3-6.6-6.6
				C116.4,71.8,119.4,68.9,123.1,68.9 M123.1,87c6.3,0,11.5-5.1,11.5-11.5S129.4,64,123.1,64c-6.3,0-11.5,5.1-11.5,11.5
				C111.6,81.9,116.7,87,123.1,87"/>
			<path class="st1" d="M64.1,161.5c1.6-10.8,14-11.7,17.9-11.7c4,0,16.4,0.9,17.9,11.7H64.1z M82,145c-14.1,0-22.9,7.2-22.9,19
				c0,1.3,1.1,2.4,2.4,2.4h41.1c1.3,0,2.4-1.1,2.4-2.4C105,152.2,96.2,145,82,145"/>
			<path class="st1" d="M82,124.4c3.7,0,6.6,3,6.6,6.6c0,3.7-3,6.6-6.6,6.6c-3.7,0-6.6-3-6.6-6.6C75.4,127.4,78.4,124.4,82,124.4
				 M82,142.5c6.3,0,11.5-5.1,11.5-11.5c0-6.3-5.1-11.5-11.5-11.5s-11.5,5.1-11.5,11.5C70.6,137.4,75.7,142.5,82,142.5"/>
			<path class="st1" d="M146.2,161.5c1.6-10.8,14-11.7,17.9-11.7c4,0,16.4,0.9,17.9,11.7H146.2z M164.1,145
				c-14.1,0-22.9,7.2-22.9,19c0,1.3,1.1,2.4,2.4,2.4h41.1c1.3,0,2.4-1.1,2.4-2.4C187.1,152.2,178.3,145,164.1,145"/>
			<path class="st1" d="M164.1,124.4c3.7,0,6.6,3,6.6,6.6c0,3.7-3,6.6-6.6,6.6c-3.7,0-6.6-3-6.6-6.6
				C157.5,127.4,160.5,124.4,164.1,124.4 M164.1,142.5c6.3,0,11.5-5.1,11.5-11.5c0-6.3-5.1-11.5-11.5-11.5
				c-6.3,0-11.5,5.1-11.5,11.5C152.7,137.4,157.8,142.5,164.1,142.5"/>
			<path class="st1" d="M125.5,130.7v-14.2c0-1.3-1.1-2.4-2.4-2.4c-1.3,0-2.4,1.1-2.4,2.4v14.2l-10.1,10.1c-1,0.9-1,2.5,0,3.4
				c0.9,1,2.5,1,3.4,0l9.1-9.1l9.1,9.1c1,0.9,2.5,0.7,3.4-0.3c0.8-0.9,0.8-2.2,0-3.1L125.5,130.7z"/>
		</g>
	</g>
</g>
</svg>
