<?xml version="1.0" encoding="utf-8"?>
<!-- Generator: Adobe Illustrator 24.1.1, SVG Export Plug-In . SVG Version: 6.00 Build 0)  -->
<svg version="1.1" id="barra_izq" xmlns="http://www.w3.org/2000/svg" xmlns:xlink="http://www.w3.org/1999/xlink" x="0px" y="0px"
	 viewBox="0 0 246.2 246.2" style="enable-background:new 0 0 246.2 246.2;" xml:space="preserve">
<style type="text/css">
	.st0{fill:#DD052B;}
	.st1{fill:#FFFFFF;}
</style>
<g>
	<circle class="st0" cx="123.1" cy="123.1" r="123.1"/>
	<g>
		<g>
			<g>
				<path class="st1" d="M92.8,106.8L63.3,77.3c-1-1-2.6-1-3.5,0c-1,1-1,2.6,0,3.5l28.8,28.8l0,3.4c0,1.4,1.1,2.5,2.5,2.5l0,0
					c1.4,0,2.5-1.1,2.5-2.5l0-4.5C93.6,107.9,93.3,107.3,92.8,106.8z"/>
			</g>
		</g>
		<g>
			<g>
				<path class="st1" d="M115.5,88.6L115.5,88.6l-5.9,0L80.9,59.8c-1-1-2.6-1-3.5,0c-1,1-1,2.6,0,3.5l29.5,29.5
					c0.5,0.5,1.1,0.7,1.8,0.7l0,0l6.9,0c1.4,0,2.5-1.1,2.5-2.5C118,89.7,116.9,88.6,115.5,88.6z"/>
			</g>
		</g>
		<g>
			<g>
				<path class="st1" d="M168.8,59.8c-1-1-2.6-1-3.5,0l-28.8,28.8l-3.4,0c0,0,0,0,0,0c-6.6,0-12.8,2.6-17.5,7.3l-2.2,2.2
					c-1,1-1,2.6,0,3.5c0.5,0.5,1.1,0.7,1.8,0.7c0.6,0,1.3-0.2,1.8-0.7l2.2-2.2c3.7-3.7,8.7-5.8,14-5.8c0,0,0,0,0,0l4.5,0l0,0
					c0.7,0,1.3-0.3,1.8-0.7l29.5-29.5C169.8,62.4,169.8,60.8,168.8,59.8z"/>
			</g>
		</g>
		<g>
			<g>
				<path class="st1" d="M186.3,77.3c-1-1-2.6-1-3.5,0l-29.5,29.5c-0.5,0.5-0.7,1.1-0.7,1.8l0,6.9c0,1.4,1.1,2.5,2.5,2.5l0,0
					c1.4,0,2.5-1.1,2.5-2.5l0-5.9l28.8-28.8C187.3,79.9,187.3,78.3,186.3,77.3z"/>
			</g>
		</g>
		<g>
			<g>
				<path class="st1" d="M186.3,165.3l-28.8-28.8l0-3.4c0-3.3-0.6-6.5-1.9-9.5c-0.5-1.3-2-1.9-3.3-1.3c-1.3,0.5-1.9,2-1.3,3.3
					c1,2.4,1.5,5,1.5,7.6l0,4.5c0,0.7,0.3,1.3,0.7,1.8l29.5,29.5c0.5,0.5,1.1,0.7,1.8,0.7c0.6,0,1.3-0.2,1.8-0.7
					C187.3,167.8,187.3,166.3,186.3,165.3z"/>
			</g>
		</g>
		<g>
			<g>
				<path class="st1" d="M168.8,182.8l-29.5-29.5c-0.5-0.5-1.1-0.7-1.8-0.7l0,0l-6.9,0c-1.4,0-2.5,1.1-2.5,2.5
					c0,1.4,1.1,2.5,2.5,2.5l0,0l5.9,0l28.8,28.8c0.5,0.5,1.1,0.7,1.8,0.7s1.3-0.2,1.8-0.7C169.8,185.4,169.8,183.8,168.8,182.8z"/>
			</g>
		</g>
		<g>
			<g>
				<path class="st1" d="M148.5,122.5c-0.6-0.6-1.2-1-1.9-1.3c0.6-1,0.9-2.2,0.9-3.4c0-1.9-0.7-3.7-2.1-5c-0.6-0.6-1.3-1.1-2-1.4
					c1.3-2.6,0.8-5.9-1.4-8c-2.2-2.2-5.4-2.6-8-1.4c-0.3-0.7-0.8-1.4-1.4-2c-2.7-2.7-7.2-2.7-10,0l-10,10c-0.2-2-1.2-3.9-3-5.2
					c-1.6-1.1-3.5-1.5-5.4-1.2s-3.5,1.4-4.6,3l-6.9,10.2c-2.7,4.1-4.2,8.9-4.2,13.8l0,5.9l-28.8,28.8c-1,1-1,2.6,0,3.5
					c0.5,0.5,1.1,0.7,1.8,0.7c0.6,0,1.3-0.2,1.8-0.7l29.5-29.5c0.5-0.5,0.7-1.1,0.7-1.8l0-6.9c0-3.9,1.2-7.8,3.3-11l6.8-10.2
					c0.3-0.5,0.8-0.8,1.4-0.9c0.6-0.1,1.2,0,1.6,0.4c0.9,0.6,1.2,1.9,0.6,2.9l-2.7,4.4c-0.8,1.4-0.5,3.1,0.8,4.1
					c1.3,1,3,0.9,4.2-0.3l16.5-16.5c0.8-0.8,2.1-0.8,2.9,0c0.4,0.4,0.6,0.9,0.6,1.4c0,0.5-0.2,0.9-0.4,1.3l-9.8,9.8
					c-1,1-1,2.6,0,3.5c1,1,2.6,1,3.5,0l12.6-12.7c0.8-0.8,2.1-0.8,2.9,0c0.8,0.8,0.8,2.1,0,2.9l-12.6,12.6c-1,1-1,2.6,0,3.5
					c0.5,0.5,1.1,0.7,1.8,0.7c0.6,0,1.3-0.2,1.8-0.7l9.8-9.8c0.8-0.6,2-0.6,2.7,0.2c0.4,0.4,0.6,0.9,0.6,1.4c0,0.6-0.2,1.1-0.6,1.4
					l-9.6,9.6c-1,1-1,2.6,0,3.5c0.5,0.5,1.1,0.7,1.8,0.7c0.6,0,1.3-0.2,1.8-0.7l6.4-6.4c0.8-0.6,2-0.6,2.7,0.2
					c0.4,0.4,0.6,0.9,0.6,1.4s-0.2,1.1-0.6,1.4l-17.9,17.9c-3.7,3.7-8.7,5.8-14,5.8c0,0,0,0,0,0l-4.5,0l0,0c-0.7,0-1.3,0.3-1.8,0.7
					l-29.5,29.5c-1,1-1,2.6,0,3.5c0.5,0.5,1.1,0.7,1.8,0.7c0.6,0,1.3-0.2,1.8-0.7l28.8-28.8l3.4,0c0,0,0,0,0,0
					c6.6,0,12.8-2.6,17.5-7.3l17.9-17.9C151.2,129.7,151.2,125.3,148.5,122.5z"/>
			</g>
		</g>
	</g>
</g>
</svg>
