<?xml version="1.0" encoding="utf-8"?>
<!-- Generator: Adobe Illustrator 24.1.1, SVG Export Plug-In . SVG Version: 6.00 Build 0)  -->
<svg version="1.1" id="barra_izq" xmlns="http://www.w3.org/2000/svg" xmlns:xlink="http://www.w3.org/1999/xlink" x="0px" y="0px"
	 viewBox="0 0 246.2 246.2" style="enable-background:new 0 0 246.2 246.2;" xml:space="preserve">
<style type="text/css">
	.st0{fill:#DD052B;}
	.st1{fill:#FFFFFF;}
	.st2{fill:none;stroke:#FFFFFF;stroke-width:0.25;stroke-miterlimit:10;}
</style>
<g>
	<circle class="st0" cx="123.1" cy="123.1" r="123.1"/>
	<g>
		<path class="st1" d="M157.5,142.7c-3.2-2.4-10.4-9.3-7.1-22.7c0.7-3,1.2-6.1,1.4-9.2c9.8,8.4,15.4,20.6,15.4,33.4
			c0,2.9-0.3,5.8-0.9,8.7C164,149.1,161,145.6,157.5,142.7 M125.1,96.5c0.7-4.5,2.5-8.8,5.3-12.4c2.2,2.1,5.1,3.4,8.2,3.5h0.3
			c2.9,0,8.9-1.5,10.7-6.3c0.9-2.8,1.3-5.8,1-8.7c-0.1-4-0.2-6.4,4-8.9c0.7-0.4,1-1.2,0.8-2c-0.2-0.8-0.9-1.3-1.7-1.4
			c-0.8,0-18.8-0.6-25.3,8.2c-0.8,1.1-1.4,2.2-1.7,3.5c-0.3,1,0.3,2,1.3,2.2c1,0.3,2-0.3,2.2-1.3c0.2-0.8,0.6-1.6,1.1-2.3
			c3.6-4.8,12-6.2,17.4-6.6c-1.9,2.7-1.8,5.7-1.8,8.6c0.2,2.5,0,5-0.8,7.3c-1.1,3.1-5.9,3.9-7.4,3.9c-2.2-0.1-4.4-1-6-2.6
			c2.4-2.5,5.3-4.7,8.3-6.3c0.9-0.4,1.3-1.5,0.8-2.4c-0.4-0.9-1.5-1.3-2.4-0.8c-0.6,0.3-11.8,5.8-16.4,17.7c-1-2.9-2.3-5.6-4-8.1
			c3.7-4.9,3.8-11.6,0.2-16.6C111,53.4,87.9,54.1,87,54.2c-0.8,0-1.5,0.6-1.7,1.4c-0.2,0.8,0.1,1.6,0.8,2c5.7,3.4,5.6,6.8,5.4,12
			c-0.3,3.7,0.1,7.5,1.3,11.1c2.2,6,9.6,7.8,13.3,7.8h0.4c1.4,0,2.7-0.3,4-0.7c1-0.3,1.5-1.3,1.2-2.3c-0.3-1-1.3-1.5-2.3-1.2
			c-1,0.3-2,0.5-3.1,0.5c-2.1,0.1-8.5-1.1-10.1-5.4c-1-3.1-1.4-6.4-1.1-9.7c0.1-4,0.2-8-2.9-11.7c7,0.4,19.2,2.1,24.2,8.9
			c2.4,3.3,2.6,7.8,0.4,11.3c-3.6-4.4-8.1-8-13.1-10.6c-0.9-0.4-2,0-2.4,0.9c-0.4,0.9-0.1,2,0.8,2.4c0.2,0.1,16.8,8.3,19,25.7
			c-22,0.9-40.6,16.8-44.9,38.4s6.8,43.4,26.8,52.7c0,0,0,0,0.1,0c0,0,0,0,0,0c14.5,6.7,31.4,5.7,44.9-2.6c0.9-0.5,1.1-1.7,0.6-2.5
			c-0.5-0.9-1.7-1.1-2.5-0.6c-12.1,7.4-27.1,8.5-40.2,3c1.3-5.9-0.1-12.1-3.8-16.8c-4.1-5.3-1.3-8.8,3.8-14.6c0.5-0.6,1-1.1,1.5-1.7
			c2.7-3.2,3.9-7.5,3.2-11.6c-1-6.1-4.6-11.5-9.9-14.8c-0.8-0.6-2-0.3-2.5,0.5c-0.6,0.8-0.3,2,0.5,2.5c4.4,2.7,7.4,7.2,8.3,12.2
			c0.5,3.1-0.4,6.3-2.4,8.8c-0.5,0.5-1,1.1-1.4,1.6c-4.8,5.3-10.1,11.3-4,19.2c2.9,3.7,4.1,8.3,3.4,12.9c-12.1-6.4-20.6-18-23-31.5
			c-2.4-13.5,1.7-27.3,11-37.4c0.1,2.8,3.9,12.6,10.3,15.6c0.5,0.9-1.3-1-0.5-1.5s2.3-1.1,1.8-2c-6.4-4.4-8.4-12.4-7.8-15.8
			c15.2-13.1,37.4-14.2,53.8-2.7c0,3.7-0.5,7.5-1.4,11.1c-3.9,15.6,4.6,23.8,8.5,26.6c3.9,3.5,7.2,7.6,9.7,12.1
			c-1.6,5-4.1,9.7-7.4,13.9c-0.6,0.8-0.5,1.9,0.3,2.6c0.8,0.6,1.9,0.5,2.6-0.3c6.8-8.4,10.4-18.9,10.4-29.8
			C170.9,118.6,150.7,97.6,125.1,96.5"/>
		<path class="st2" d="M157.5,142.7c-3.2-2.4-10.4-9.3-7.1-22.7c0.7-3,1.2-6.1,1.4-9.2c9.8,8.4,15.4,20.6,15.4,33.4
			c0,2.9-0.3,5.8-0.9,8.7C164,149.1,161,145.6,157.5,142.7z M125.1,96.5c0.7-4.5,2.5-8.8,5.3-12.4c2.2,2.1,5.1,3.4,8.2,3.5h0.3
			c2.9,0,8.9-1.5,10.7-6.3c0.9-2.8,1.3-5.8,1-8.7c-0.1-4-0.2-6.4,4-8.9c0.7-0.4,1-1.2,0.8-2c-0.2-0.8-0.9-1.3-1.7-1.4
			c-0.8,0-18.8-0.6-25.3,8.2c-0.8,1.1-1.4,2.2-1.7,3.5c-0.3,1,0.3,2,1.3,2.2c1,0.3,2-0.3,2.2-1.3c0.2-0.8,0.6-1.6,1.1-2.3
			c3.6-4.8,12-6.2,17.4-6.6c-1.9,2.7-1.8,5.7-1.8,8.6c0.2,2.5,0,5-0.8,7.3c-1.1,3.1-5.9,3.9-7.4,3.9c-2.2-0.1-4.4-1-6-2.6
			c2.4-2.5,5.3-4.7,8.3-6.3c0.9-0.4,1.3-1.5,0.8-2.4c-0.4-0.9-1.5-1.3-2.4-0.8c-0.6,0.3-11.8,5.8-16.4,17.7c-1-2.9-2.3-5.6-4-8.1
			c3.7-4.9,3.8-11.6,0.2-16.6C111,53.4,87.9,54.1,87,54.2c-0.8,0-1.5,0.6-1.7,1.4c-0.2,0.8,0.1,1.6,0.8,2c5.7,3.4,5.6,6.8,5.4,12
			c-0.3,3.7,0.1,7.5,1.3,11.1c2.2,6,9.6,7.8,13.3,7.8h0.4c1.4,0,2.7-0.3,4-0.7c1-0.3,1.5-1.3,1.2-2.3c-0.3-1-1.3-1.5-2.3-1.2
			c-1,0.3-2,0.5-3.1,0.5c-2.1,0.1-8.5-1.1-10.1-5.4c-1-3.1-1.4-6.4-1.1-9.7c0.1-4,0.2-8-2.9-11.7c7,0.4,19.2,2.1,24.2,8.9
			c2.4,3.3,2.6,7.8,0.4,11.3c-3.6-4.4-8.1-8-13.1-10.6c-0.9-0.4-2,0-2.4,0.9c-0.4,0.9-0.1,2,0.8,2.4c0.2,0.1,16.8,8.3,19,25.7
			c-22,0.9-40.6,16.8-44.9,38.4s6.8,43.4,26.8,52.7c0,0,0,0,0.1,0c0,0,0,0,0,0c14.5,6.7,31.4,5.7,44.9-2.6c0.9-0.5,1.1-1.7,0.6-2.5
			c-0.5-0.9-1.7-1.1-2.5-0.6c-12.1,7.4-27.1,8.5-40.2,3c1.3-5.9-0.1-12.1-3.8-16.8c-4.1-5.3-1.3-8.8,3.8-14.6c0.5-0.6,1-1.1,1.5-1.7
			c2.7-3.2,3.9-7.5,3.2-11.6c-1-6.1-4.6-11.5-9.9-14.8c-0.8-0.6-2-0.3-2.5,0.5c-0.6,0.8-0.3,2,0.5,2.5c4.4,2.7,7.4,7.2,8.3,12.2
			c0.5,3.1-0.4,6.3-2.4,8.8c-0.5,0.5-1,1.1-1.4,1.6c-4.8,5.3-10.1,11.3-4,19.2c2.9,3.7,4.1,8.3,3.4,12.9c-12.1-6.4-20.6-18-23-31.5
			c-2.4-13.5,1.7-27.3,11-37.4c0.1,2.8,3.9,12.6,10.3,15.6c0.5,0.9-1.3-1-0.5-1.5s2.3-1.1,1.8-2c-6.4-4.4-8.4-12.4-7.8-15.8
			c15.2-13.1,37.4-14.2,53.8-2.7c0,3.7-0.5,7.5-1.4,11.1c-3.9,15.6,4.6,23.8,8.5,26.6c3.9,3.5,7.2,7.6,9.7,12.1
			c-1.6,5-4.1,9.7-7.4,13.9c-0.6,0.8-0.5,1.9,0.3,2.6c0.8,0.6,1.9,0.5,2.6-0.3c6.8-8.4,10.4-18.9,10.4-29.8
			C170.9,118.6,150.7,97.6,125.1,96.5z"/>
	</g>
</g>
</svg>
