<?xml version="1.0" encoding="utf-8"?>
<!-- Generator: Adobe Illustrator 24.1.1, SVG Export Plug-In . SVG Version: 6.00 Build 0)  -->
<svg version="1.1" id="barra_izq" xmlns="http://www.w3.org/2000/svg" xmlns:xlink="http://www.w3.org/1999/xlink" x="0px" y="0px"
	 viewBox="0 0 246.2 246.2" style="enable-background:new 0 0 246.2 246.2;" xml:space="preserve">
<style type="text/css">
	.st0{fill:#DD052B;}
	.st1{fill:#FFFFFF;}
</style>
<g>
	<circle class="st0" cx="123.1" cy="123.1" r="123.1"/>
	<g>
		<path class="st1" d="M76.3,100.1c-0.3,0-0.7,0.2-0.9,0.6c-0.8,1.7-2.4,4.3-5,6.6c-2.3,2.1-4.7,3.5-6.3,4.3
			c-0.4,0.2-0.6,0.6-0.5,1.1c1.1,8.7,8.5,15.2,17.2,15.2c9,0,16.6-7.1,17.3-16.1c0-0.3-0.1-0.6-0.4-0.8c-2.7-2.4-10.2-8.1-21.2-11
			C76.5,100.1,76.4,100.1,76.3,100.1 M81.2,81.2c-11.1,0-20.1,9-21,21c-0.5,6.5-2.7,19.7-5.6,27.6c-0.2,0.5,0,1.1,0.5,1.3
			c0.7,0.3,1.4,0.7,2.1,1.1c2.5,1.3,5.5,2.9,10.9,3.7c0.4-0.7,0.6-1.5,0.6-2.3v-4.7c-5.1-3.4-8.8-9-9.6-15.5c-0.3-2.4,0.9-4.7,3-5.7
			c1.4-0.7,3.4-1.9,5.3-3.6c2.1-1.9,3.3-3.9,3.9-5.2c1.1-2.4,3.8-3.7,6.3-3c12,3.1,20.1,9.4,23.1,11.9c1.3,1.1,2,2.8,1.9,4.5
			c-0.5,6.9-4.3,13-9.7,16.6v4.7c0,0.8,0.2,1.5,0.6,2.2c5.8-1,9.9-2.9,12.6-4.2l1.1-0.5c0.5-0.2,0.7-0.8,0.5-1.3
			c-2.9-7.8-5.1-21-5.6-27.6C101.3,90.2,92.3,81.2,81.2,81.2 M67.8,141.8c3.3,3.8,8,6,13,6c5,0,9.7-2.2,13-6l-0.6-0.3
			c-3-1.5-4.9-4.5-4.9-7.9v-2.4c-4.7,1.8-10.3,1.8-15,0v2.4c0,3.4-1.9,6.4-4.9,7.9L67.8,141.8z M110.2,169.5c-1.3,0-2.3-1-2.3-2.3
			v-13.6c0-0.9-0.1-1.7-0.4-2.5l-6.5,5.3c-1,0.8-1.6,2.1-1.6,3.4v7.4c0,1.3-1,2.3-2.3,2.3c-1.3,0-2.3-1-2.3-2.3v-7.4
			c0-2.7,1.2-5.2,3.3-6.9l6.7-5.4c-0.3-0.3-0.7-0.5-1.1-0.7l-5.8-2.9c-4.1,5.3-10.4,8.4-17.2,8.4c-6.7,0-13-3.1-17.2-8.4l-5.8,2.9
			c-0.4,0.2-0.8,0.4-1.1,0.7l6.7,5.4c2.1,1.7,3.3,4.2,3.3,6.9v7.4c0,1.3-1,2.3-2.3,2.3c-1.3,0-2.3-1-2.3-2.3v-7.4
			c0-1.3-0.6-2.6-1.6-3.4l-6.5-5.2c-0.3,0.8-0.4,1.6-0.4,2.5v13.6c0,1.3-1,2.3-2.3,2.3s-2.3-1-2.3-2.3v-13.6c0-4.6,2.6-8.8,6.7-10.9
			l6.9-3.5c-3.3-1-5.7-2.2-7.6-3.2c-0.7-0.4-1.3-0.7-1.9-1c-2.7-1.2-3.9-4.3-2.9-7c2.8-7.5,4.9-20.1,5.3-26.3
			c1-14.3,12-25.2,25.5-25.2s24.4,10.8,25.5,25.2c0.5,6.3,2.6,18.9,5.3,26.3c1,2.8-0.2,5.8-2.9,7l-1.1,0.5c-2.2,1.1-5.2,2.5-9.3,3.6
			l7,3.5c4.1,2.1,6.7,6.2,6.7,10.9v13.6C112.5,168.5,111.5,169.5,110.2,169.5 M155.5,95.5c0.1,0,0.2,0,0.3,0
			c8.1,0.3,19,1.8,25.3,7.7l0.7-2.6c0.6-2.1,0.9-4.3,0.9-6.5V88c0-2.3-1.9-4.2-4.1-4.2h-22.4c-2.1,0-4,0.9-5.4,2.4
			c-0.1,0.1-0.1,0.1-0.2,0.2c-1.1,1.3-1.8,3-1.8,4.8c0,2.3,1.9,4.2,4.1,4.2c0.3,0,0.6,0.1,0.9,0.2C154.5,95.6,155,95.5,155.5,95.5
			 M144.5,89.4c-1.3,1.3-2,3.2-2,5.1v2.3c0,2.5,0.4,4.9,1.1,7.3c0,0,0-0.1,0.1-0.1l5.1-5.1c-2.6-1.5-4.4-4.3-4.4-7.6
			C144.4,90.7,144.4,90,144.5,89.4 M145.7,110.7v3.2c0,9.4,7.6,17.1,17,17.1c9.4,0,17-7.7,17-17.1v-4.1v-0.1c0-0.2-0.1-0.4,0-0.6
			c-0.1-0.9-0.5-1.7-1.1-2.3c-4.1-4-12.2-6.4-22.7-6.8c-0.4,0-0.8,0-1.2,0.2c-0.2,0.1-0.3,0.1-0.5,0.2c-0.5,0.2-0.9,0.5-1.3,0.9
			l-5.8,5.9c-0.8,0.8-1.2,1.9-1.2,3L145.7,110.7L145.7,110.7z M155.3,137.8c0,4.1,3.3,7.4,7.3,7.4s7.3-3.3,7.3-7.4
			c0-0.1,0-0.1,0-0.2v-3.3c-4.6,1.7-10.1,1.7-14.7,0V137.8z M194.7,169.5c-1.3,0-2.3-1-2.3-2.3v-15.6c0-0.6-0.1-1.1-0.2-1.6l-5.9,6
			c-1.4,1.4-2.2,3.3-2.2,5.3v5.9c0,1.3-1,2.3-2.3,2.3c-1.3,0-2.3-1-2.3-2.3v-5.9c0-3.2,1.2-6.2,3.5-8.4l6.8-6.8
			c-0.8-0.7-1.7-1.2-2.8-1.5l-13-3.5c-1.4,5-6,8.7-11.4,8.7c-5.4,0-10-3.7-11.4-8.7l-13.1,3.5c-1,0.3-1.9,0.8-2.7,1.5l6.8,6.8
			c2.2,2.3,3.5,5.3,3.5,8.4v5.9c0,1.3-1,2.3-2.3,2.3c-1.3,0-2.3-1-2.3-2.3v-5.9c0-2-0.8-3.9-2.2-5.3l-5.9-6
			c-0.1,0.5-0.2,1.1-0.2,1.6v15.6c0,1.3-1,2.3-2.3,2.3c-1.3,0-2.3-1-2.3-2.3v-15.6c0-5.3,3.5-10,8.6-11.5l13.8-3.7V132
			c-5.8-3.9-9.6-10.5-9.6-18v-2.9l-1.8-5.4c-0.9-2.9-1.4-5.9-1.4-8.9v-2.3c0-5.9,4.3-10.9,10-11.8c2.1-2.1,5.1-3.4,8.3-3.4h22.4
			c4.8,0,8.7,3.9,8.7,8.7v6.1c0,2.6-0.4,5.2-1.1,7.7l-2.1,7.6c0,0.1,0,0.3,0,0.4v4.1c0,7.5-3.8,14.2-9.6,18v4.6l13.8,3.7
			c5.1,1.5,8.7,6.2,8.7,11.5v15.6C196.9,168.5,195.9,169.5,194.7,169.5"/>
	</g>
</g>
</svg>
