<?xml version="1.0" encoding="utf-8"?>
<!-- Generator: Adobe Illustrator 24.1.1, SVG Export Plug-In . SVG Version: 6.00 Build 0)  -->
<svg version="1.1" id="barra_izq" xmlns="http://www.w3.org/2000/svg" xmlns:xlink="http://www.w3.org/1999/xlink" x="0px" y="0px"
	 viewBox="0 0 246.2 246.2" style="enable-background:new 0 0 246.2 246.2;" xml:space="preserve">
<style type="text/css">
	.st0{fill:#DD052B;}
	.st1{fill:#FFFFFF;}
</style>
<g>
	<circle class="st0" cx="123.1" cy="123.1" r="123.1"/>
	<g>
		<path class="st1" d="M170,167.4c-4.2,0-7.6-3.4-7.6-7.5c0-4.1,3.5-7.5,7.6-7.5c4.1,0,7.4,3.4,7.4,7.5S174.1,167.4,170,167.4
			 M170,146.4c-3.6,0-7,1.4-9.6,4c-2.6,2.6-4,6-4,9.6c0,3.6,1.4,7,4,9.6c2.6,2.6,6,4,9.6,4c7.4,0,13.4-6.1,13.4-13.5
			C183.4,152.4,177.4,146.4,170,146.4"/>
		<path class="st1" d="M177.5,125.2H159v-18.7h11.2l7.2,6.5V125.2z M173.5,101.3c-0.5-0.5-1.3-0.8-2-0.8H156c-1.7,0-3,1.3-3,3v24.7
			c0,1.7,1.3,3,3,3h24.5c1.7,0,3-1.3,3-3v-16.5c0-0.8-0.4-1.7-1-2.2L173.5,101.3z"/>
		<path class="st1" d="M96.5,167.4c-4.2,0-7.6-3.4-7.6-7.5c0-4.1,3.5-7.5,7.6-7.5c4.1,0,7.4,3.4,7.4,7.5
			C103.9,164,100.6,167.4,96.5,167.4 M96.5,146.4c-3.6,0-7,1.4-9.6,4c-2.6,2.6-4,6-4,9.6c0,3.6,1.4,7,4,9.6c2.6,2.6,6,4,9.6,4
			c7.4,0,13.4-6.1,13.4-13.5C110,152.4,103.9,146.4,96.5,146.4"/>
		<path class="st1" d="M76.5,150.1h-6v-8c0-1.7-1.3-3-3-3c-1.7,0-3,1.3-3,3v11c0,1.7,1.3,3,3,3h9.1c1.7,0,3-1.3,3-3
			C79.5,151.4,78.1,150.1,76.5,150.1"/>
		<path class="st1" d="M91.7,133.7c0-1.7-1.3-3-3-3H52.2c-1.7,0-3,1.4-3,3c0,1.7,1.4,3,3,3h36.5C90.4,136.7,91.7,135.3,91.7,133.7"
			/>
		<path class="st1" d="M58.3,122.8l36.5,0.2c1.7,0,3-1.3,3-3c0-1.7-1.3-3-3-3l-36.5-0.2h0c-1.7,0-3,1.3-3,3
			C55.3,121.5,56.7,122.8,58.3,122.8"/>
		<path class="st1" d="M64.5,109.2H101c1.7,0,3-1.3,3-3c0-1.7-1.3-3-3-3H64.5c-1.7,0-3,1.3-3,3C61.5,107.8,62.8,109.2,64.5,109.2"/>
		<path class="st1" d="M195.8,105.1l-21.5-17.8c-0.5-0.5-1.2-0.7-1.9-0.7H147V75.7c0-1.7-1.4-3-3-3H67.4c-1.7,0-3,1.4-3,3v22
			c0,1.7,1.3,3,3,3c1.7,0,3-1.3,3-3v-19H141v71.3h-24.7c-1.7,0-3,1.4-3,3s1.3,3,3,3h36.7c1.7,0,3-1.4,3-3s-1.3-3-3-3h-6V92.6h24.2
			l19.6,16.2l-0.2,41.2h-3.1c-1.7,0-3,1.3-3,3s1.3,3,3,3h6.1c1.7,0,3-1.3,3-3l0.2-45.6C196.9,106.5,196.5,105.7,195.8,105.1"/>
	</g>
</g>
</svg>
