<?xml version="1.0" encoding="utf-8"?>
<!-- Generator: Adobe Illustrator 24.1.1, SVG Export Plug-In . SVG Version: 6.00 Build 0)  -->
<svg version="1.1" id="barra_izq" xmlns="http://www.w3.org/2000/svg" xmlns:xlink="http://www.w3.org/1999/xlink" x="0px" y="0px"
	 viewBox="0 0 150 150" style="enable-background:new 0 0 150 150;" xml:space="preserve">
<style type="text/css">
	.st0{fill:#FFFFFF;}
	.st1{fill:#DD052B;}
</style>
<g>
	<circle class="st0" cx="75" cy="75" r="75"/>
	<g>
		<path class="st1" d="M30.6,55.3c-0.8-0.3-1.5-0.7-2.2-1.3c-0.4-0.3-0.6-0.7-0.6-1.1c0-0.3,0.1-0.6,0.4-0.9
			c0.2-0.3,0.5-0.4,0.9-0.4c0.3,0,0.5,0.1,0.7,0.3c0.6,0.5,1.1,0.8,1.7,1c0.5,0.2,1.2,0.3,1.9,0.3c0.8,0,1.5-0.2,2.1-0.5
			s0.9-0.8,0.9-1.3c0-0.6-0.3-1.1-0.8-1.5s-1.5-0.6-2.7-0.8c-3.1-0.5-4.7-1.9-4.7-4.3c0-0.9,0.2-1.7,0.7-2.3s1.1-1.2,1.9-1.5
			c0.8-0.3,1.7-0.5,2.7-0.5c0.9,0,1.7,0.1,2.5,0.4c0.8,0.3,1.5,0.6,2,1.1c0.4,0.3,0.6,0.7,0.6,1.1c0,0.3-0.1,0.6-0.4,0.9
			c-0.2,0.3-0.5,0.4-0.8,0.4c-0.2,0-0.4-0.1-0.6-0.2c-0.4-0.3-0.9-0.6-1.5-0.8s-1.3-0.4-1.8-0.4c-0.9,0-1.6,0.2-2.1,0.5
			s-0.7,0.8-0.7,1.3c0,0.6,0.3,1.1,0.8,1.4c0.5,0.3,1.3,0.6,2.4,0.8c1.2,0.2,2.2,0.5,2.9,0.8c0.7,0.3,1.3,0.8,1.7,1.4
			c0.4,0.6,0.5,1.3,0.5,2.3c0,0.9-0.3,1.7-0.8,2.4c-0.5,0.7-1.2,1.2-2,1.6c-0.8,0.4-1.7,0.5-2.7,0.5C32.3,55.7,31.4,55.6,30.6,55.3z
			"/>
		<path class="st1" d="M51.1,53.4c0.3,0.3,0.4,0.5,0.4,0.9c0,0.4-0.1,0.7-0.4,0.9c-0.3,0.2-0.6,0.3-0.9,0.3H43
			c-0.4,0-0.7-0.1-0.9-0.4s-0.4-0.6-0.4-0.9V41.9c0-0.4,0.1-0.7,0.4-0.9s0.6-0.4,0.9-0.4h7.2c0.4,0,0.7,0.1,0.9,0.3s0.4,0.5,0.4,0.9
			c0,0.4-0.1,0.6-0.4,0.9S50.5,43,50.2,43h-5.8v3.6h4.8c0.4,0,0.7,0.1,0.9,0.3s0.4,0.5,0.4,0.9c0,0.4-0.1,0.6-0.4,0.9
			s-0.5,0.3-0.9,0.3h-4.8v4h5.8C50.5,53.1,50.8,53.2,51.1,53.4z"/>
		<path class="st1" d="M65.4,42.4c0,0.3-0.1,0.6-0.3,0.9c-0.2,0.3-0.5,0.5-0.9,0.5c-0.2,0-0.5-0.1-0.7-0.2c-0.7-0.3-1.5-0.5-2.3-0.5
			c-1,0-1.9,0.2-2.6,0.6s-1.3,1-1.7,1.8c-0.4,0.8-0.6,1.6-0.6,2.6c0,1.7,0.5,3,1.3,3.8s2.1,1.3,3.5,1.3c0.9,0,1.6-0.2,2.3-0.5
			c0.3-0.1,0.5-0.2,0.7-0.2c0.4,0,0.7,0.2,0.9,0.5c0.2,0.3,0.3,0.6,0.3,0.9c0,0.2-0.1,0.4-0.2,0.6s-0.3,0.3-0.5,0.4
			c-1.1,0.5-2.3,0.8-3.5,0.8c-1.4,0-2.7-0.3-3.8-0.9c-1.2-0.6-2.1-1.5-2.8-2.6c-0.7-1.2-1-2.5-1-4.2c0-1.5,0.3-2.8,1-3.9
			s1.6-2,2.7-2.7c1.2-0.7,2.5-1,4-1c1.3,0,2.4,0.3,3.5,0.8C65.2,41.5,65.4,41.9,65.4,42.4z"/>
		<path class="st1" d="M79.3,42.4c0,0.3-0.1,0.6-0.3,0.9c-0.2,0.3-0.5,0.5-0.9,0.5c-0.2,0-0.5-0.1-0.7-0.2c-0.7-0.3-1.4-0.5-2.3-0.5
			c-1,0-1.9,0.2-2.6,0.6c-0.7,0.4-1.3,1-1.7,1.8c-0.4,0.8-0.6,1.6-0.6,2.6c0,1.7,0.4,3,1.3,3.8s2.1,1.3,3.6,1.3
			c0.9,0,1.6-0.2,2.3-0.5c0.3-0.1,0.5-0.2,0.7-0.2c0.4,0,0.7,0.2,0.9,0.5c0.2,0.3,0.3,0.6,0.3,0.9c0,0.2-0.1,0.4-0.2,0.6
			s-0.3,0.3-0.5,0.4c-1.1,0.5-2.3,0.8-3.5,0.8c-1.4,0-2.7-0.3-3.8-0.9s-2.1-1.5-2.8-2.6c-0.7-1.2-1.1-2.5-1.1-4.2
			c0-1.5,0.3-2.8,1-3.9c0.7-1.2,1.6-2,2.7-2.7s2.5-1,3.9-1c1.3,0,2.4,0.3,3.5,0.8C79,41.5,79.3,41.9,79.3,42.4z"/>
		<path class="st1" d="M84.2,55.2c-0.3,0.3-0.6,0.4-0.9,0.4c-0.4,0-0.7-0.1-0.9-0.4s-0.4-0.6-0.4-0.9V41.9c0-0.4,0.1-0.7,0.4-0.9
			c0.3-0.3,0.6-0.4,1-0.4c0.4,0,0.7,0.1,0.9,0.4c0.3,0.3,0.4,0.6,0.4,0.9v12.3C84.6,54.6,84.5,54.9,84.2,55.2z"/>
		<path class="st1" d="M101,51.9c-0.6,1.2-1.5,2.1-2.6,2.8s-2.3,1-3.7,1c-1.4,0-2.6-0.3-3.7-1s-2-1.6-2.6-2.8s-0.9-2.5-0.9-3.9
			s0.3-2.7,0.9-3.9s1.5-2.1,2.6-2.8s2.3-1,3.7-1c1.4,0,2.6,0.3,3.7,1s2,1.6,2.6,2.8c0.6,1.2,0.9,2.5,0.9,3.9
			C102,49.5,101.7,50.8,101,51.9z M98.6,45.5c-0.4-0.8-0.9-1.4-1.6-1.8s-1.4-0.7-2.3-0.7c-0.9,0-1.6,0.2-2.3,0.7s-1.2,1.1-1.6,1.8
			c-0.4,0.8-0.6,1.7-0.6,2.6c0,1,0.2,1.8,0.6,2.6s0.9,1.4,1.6,1.8c0.7,0.5,1.4,0.7,2.3,0.7c0.8,0,1.6-0.2,2.3-0.7
			c0.7-0.5,1.2-1.1,1.6-1.8s0.6-1.6,0.6-2.6C99.2,47.1,99,46.2,98.6,45.5z M94.1,39.6c-0.2-0.1-0.3-0.3-0.3-0.5
			c0-0.2,0.1-0.4,0.3-0.6l1.8-1.6c0.4-0.3,0.7-0.5,1-0.5c0.3,0,0.5,0.1,0.8,0.3s0.4,0.5,0.4,0.8c0,0.2-0.1,0.4-0.2,0.6
			c-0.1,0.2-0.3,0.4-0.6,0.5l-2.1,1.1c-0.1,0.1-0.3,0.1-0.5,0.1C94.5,39.8,94.3,39.7,94.1,39.6z"/>
		<path class="st1" d="M117,40.9c0.2,0.2,0.3,0.5,0.3,0.8v12.4c0,0.4-0.1,0.7-0.4,0.9s-0.6,0.4-0.9,0.4c-0.2,0-0.4,0-0.6-0.1
			s-0.3-0.2-0.4-0.3l-7.8-9.9v9.1c0,0.3-0.1,0.6-0.3,0.8c-0.2,0.2-0.5,0.3-0.9,0.3c-0.3,0-0.6-0.1-0.8-0.3s-0.3-0.5-0.3-0.8V41.9
			c0-0.4,0.1-0.7,0.4-0.9s0.6-0.4,0.9-0.4c0.2,0,0.4,0,0.6,0.1s0.4,0.2,0.5,0.3L115,51v-9.2c0-0.3,0.1-0.6,0.3-0.8
			c0.2-0.2,0.5-0.3,0.8-0.3S116.8,40.7,117,40.9z"/>
		<path class="st1" d="M65.9,75.3c0,0.8-0.3,1.5-0.8,2.3c-0.6,0.8-1.3,1.2-2.3,1.2c-0.6,0-1.3-0.2-1.9-0.5C59.1,77.4,57.1,77,55,77
			c-2.6,0-4.8,0.6-6.8,1.6c-1.9,1.1-3.4,2.6-4.4,4.6c-1,2-1.5,4.2-1.5,6.8c0,4.4,1.2,7.7,3.5,9.9c2.3,2.3,5.4,3.4,9.2,3.4
			c2.3,0,4.2-0.4,5.9-1.3c0.7-0.3,1.3-0.4,1.8-0.4c1,0,1.8,0.4,2.4,1.2c0.6,0.7,0.8,1.5,0.8,2.3c0,0.6-0.2,1.1-0.4,1.6
			c-0.3,0.5-0.7,0.8-1.3,1.1c-2.9,1.4-6,2.2-9.2,2.2c-3.6,0-7-0.8-10-2.3c-3-1.5-5.5-3.8-7.3-6.8c-1.8-3-2.7-6.6-2.7-10.9
			c0-3.8,0.9-7.2,2.6-10.2s4.1-5.3,7.1-7c3-1.7,6.5-2.5,10.3-2.5c3.3,0,6.3,0.7,9.2,2.2C65.3,73.1,65.9,74,65.9,75.3z"/>
		<path class="st1" d="M103.2,73.2c2.5,1.7,4.4,4.1,5.7,7c1.3,2.9,2,6.2,2,9.8c0,3.6-0.7,6.9-2,9.8c-1.3,2.9-3.2,5.3-5.7,7
			s-5.5,2.6-9,2.6H80.9c-1,0-1.8-0.3-2.4-1c-0.7-0.7-1-1.4-1-2.4V74c0-1,0.3-1.8,1-2.4c0.7-0.7,1.4-1,2.4-1h13.3
			C97.7,70.6,100.7,71.5,103.2,73.2z M101.1,99.3c1.7-2.5,2.5-5.6,2.5-9.3c0-3.8-0.8-6.9-2.5-9.3C99.4,78.2,97,77,93.7,77h-9.2V103
			h9.2C97,103,99.5,101.8,101.1,99.3z"/>
	</g>
</g>
</svg>
