<?xml version="1.0" encoding="utf-8"?>
<!-- Generator: Adobe Illustrator 24.1.2, SVG Export Plug-In . SVG Version: 6.00 Build 0)  -->
<svg version="1.1" xmlns="http://www.w3.org/2000/svg" xmlns:xlink="http://www.w3.org/1999/xlink" x="0px" y="0px"
	 viewBox="0 0 199.39 139.78" style="enable-background:new 0 0 199.39 139.78;" xml:space="preserve">
<style type="text/css">
	.st0{opacity:0.2;fill:#FFFFFF;}
	.st1{opacity:0.5;fill:#FFFFFF;}
	.st2{opacity:0.7;fill:#FFFFFF;}
</style>
<g id="contenid">
</g>
<g id="bolitas">
	<g>
		<circle class="st0" cx="14.24" cy="11.6" r="11.6"/>
		
			<ellipse transform="matrix(0.7071 -0.7071 0.7071 0.7071 -44.3162 30.1547)" class="st1" cx="14.24" cy="68.57" rx="14.24" ry="14.24"/>
		
			<ellipse transform="matrix(0.2298 -0.9732 0.9732 0.2298 -11.8886 122.1214)" class="st0" cx="71.21" cy="68.57" rx="11.6" ry="11.6"/>
		
			<ellipse transform="matrix(0.2298 -0.9732 0.9732 0.2298 31.9903 177.5649)" class="st2" cx="128.18" cy="68.57" rx="14.24" ry="14.24"/>
		
			<ellipse transform="matrix(0.7071 -0.7071 0.7071 0.7071 -84.5982 46.84)" class="st1" cx="14.24" cy="125.54" rx="14.24" ry="14.24"/>
		
			<ellipse transform="matrix(0.2298 -0.9732 0.9732 0.2298 -67.3321 166.0004)" class="st1" cx="71.21" cy="125.54" rx="14.24" ry="14.24"/>
		
			<ellipse transform="matrix(0.2298 -0.9732 0.9732 0.2298 -23.4531 221.4438)" class="st2" cx="128.18" cy="125.54" rx="14.24" ry="14.24"/>
		
			<ellipse transform="matrix(0.7071 -0.7071 0.7071 0.7071 -34.5421 167.6862)" class="st2" cx="185.14" cy="125.54" rx="14.24" ry="14.24"/>
	</g>
</g>
<g id="barra_izq">
</g>
<g id="menu">
</g>
</svg>
