<?xml version="1.0" encoding="utf-8"?>
<!-- Generator: Adobe Illustrator 24.1.2, SVG Export Plug-In . SVG Version: 6.00 Build 0)  -->
<svg version="1.1" xmlns="http://www.w3.org/2000/svg" xmlns:xlink="http://www.w3.org/1999/xlink" x="0px" y="0px"
	 viewBox="0 0 256.35 427.26" style="enable-background:new 0 0 256.35 427.26;" xml:space="preserve">
<style type="text/css">
	.st0{opacity:0.2;fill:#DD052B;}
	.st1{opacity:0.5;fill:#DD052B;}
	.st2{opacity:0.7;fill:#DD052B;}
</style>
<g id="contenid">
</g>
<g id="bolitas">
	<g>
		<circle class="st0" cx="185.14" cy="14.24" r="14.24"/>
		
			<ellipse transform="matrix(0.1602 -0.9871 0.9871 0.1602 85.1976 242.5564)" class="st0" cx="185.14" cy="71.21" rx="8.44" ry="8.44"/>
		
			<ellipse transform="matrix(0.2298 -0.9732 0.9732 0.2298 17.8587 278.919)" class="st0" cx="185.14" cy="128.18" rx="14.24" ry="14.24"/>
		<circle class="st0" cx="128.18" cy="185.14" r="11.6"/>
		<circle class="st0" cx="185.14" cy="185.14" r="11.6"/>
		
			<ellipse transform="matrix(0.7071 -0.7071 0.7071 0.7071 -133.6567 161.5475)" class="st1" cx="128.18" cy="242.11" rx="14.24" ry="14.24"/>
		
			<ellipse transform="matrix(0.7071 -0.7071 0.7071 0.7071 -116.9713 201.8296)" class="st0" cx="185.14" cy="242.11" rx="14.24" ry="14.24"/>
		
			<ellipse transform="matrix(0.7071 -0.7071 0.7071 0.7071 -173.9387 178.2329)" class="st1" cx="128.18" cy="299.08" rx="14.24" ry="14.24"/>
		
			<ellipse transform="matrix(0.7071 -0.7071 0.7071 0.7071 -157.2533 218.5149)" class="st0" cx="185.14" cy="299.08" rx="14.24" ry="14.24"/>
		
			<ellipse transform="matrix(0.7071 -0.7071 0.7071 0.7071 -230.9061 154.6362)" class="st1" cx="71.21" cy="356.05" rx="14.24" ry="14.24"/>
		
			<ellipse transform="matrix(0.2298 -0.9732 0.9732 0.2298 -247.7941 398.9914)" class="st1" cx="128.18" cy="356.05" rx="14.24" ry="14.24"/>
		<circle class="st1" cx="185.14" cy="356.05" r="11.6"/>
		<circle class="st2" cx="14.24" cy="413.01" r="14.24"/>
		<circle class="st2" cx="71.21" cy="413.01" r="14.24"/>
		<circle class="st1" cx="128.18" cy="413.01" r="11.6"/>
		<circle class="st1" cx="185.14" cy="413.01" r="14.24"/>
		
			<ellipse transform="matrix(0.2298 -0.9732 0.9732 0.2298 117.1815 290.4838)" class="st0" cx="242.11" cy="71.21" rx="14.24" ry="14.24"/>
		<circle class="st0" cx="242.11" cy="128.18" r="8.44"/>
		
			<ellipse transform="matrix(0.7071 -0.7071 0.7071 0.7071 -60.0038 225.4262)" class="st0" cx="242.11" cy="185.14" rx="14.24" ry="14.24"/>
		
			<ellipse transform="matrix(0.2298 -0.9732 0.9732 0.2298 -49.149 422.1209)" class="st0" cx="242.11" cy="242.11" rx="14.24" ry="14.24"/>
		
			<ellipse transform="matrix(0.1602 -0.9871 0.9871 0.1602 -91.8875 490.1573)" class="st1" cx="242.11" cy="299.08" rx="11.6" ry="11.6"/>
		
			<ellipse transform="matrix(0.7071 -0.7071 0.7071 0.7071 -180.85 275.4824)" class="st1" cx="242.11" cy="356.05" rx="14.24" ry="14.24"/>
		<circle class="st1" cx="242.11" cy="413.01" r="14.24"/>
	</g>
</g>
<g id="barra_izq">
</g>
<g id="menu">
</g>
<g id="GRID">
</g>
</svg>
