<?xml version="1.0" encoding="utf-8"?>
<!-- Generator: Adobe Illustrator 24.1.1, SVG Export Plug-In . SVG Version: 6.00 Build 0)  -->
<svg version="1.1" id="barra_izq" xmlns="http://www.w3.org/2000/svg" xmlns:xlink="http://www.w3.org/1999/xlink" x="0px" y="0px"
	 viewBox="0 0 30.1 30.1" style="enable-background:new 0 0 30.1 30.1;" xml:space="preserve">
<style type="text/css">
	.st0{fill:#FFFFFF;}
</style>
<g>
	<path class="st0" d="M15.1,0C6.7,0,0,6.7,0,15.1c0,8.3,6.7,15.1,15.1,15.1c8.3,0,15.1-6.7,15.1-15.1C30.1,6.7,23.4,0,15.1,0z
		 M21.9,11.7c0,0.1,0,0.3,0,0.4c0,4.6-3.5,9.8-9.8,9.8h0h0c-2,0-3.8-0.6-5.3-1.6c0.3,0,0.5,0,0.8,0c1.6,0,3.1-0.6,4.3-1.5
		c-1.5,0-2.8-1-3.2-2.4c0.2,0,0.4,0.1,0.6,0.1c0.3,0,0.6,0,0.9-0.1c-1.6-0.3-2.8-1.7-2.8-3.4c0,0,0,0,0,0c0.5,0.3,1,0.4,1.6,0.4
		c-0.9-0.6-1.5-1.7-1.5-2.9C7.5,10.1,7.7,9.5,8,9c1.7,2.1,4.3,3.5,7.1,3.6c-0.1-0.3-0.1-0.5-0.1-0.8c0-1.9,1.5-3.5,3.5-3.5
		c1,0,1.9,0.4,2.5,1.1c0.8-0.2,1.5-0.4,2.2-0.8c-0.3,0.8-0.8,1.5-1.5,1.9c0.7-0.1,1.4-0.3,2-0.5C23.2,10.6,22.6,11.3,21.9,11.7z"/>
</g>
</svg>
