<?xml version="1.0" encoding="utf-8"?>
<!-- Generator: Adobe Illustrator 24.1.1, SVG Export Plug-In . SVG Version: 6.00 Build 0)  -->
<svg version="1.1" id="barra_izq" xmlns="http://www.w3.org/2000/svg" xmlns:xlink="http://www.w3.org/1999/xlink" x="0px" y="0px"
	 viewBox="0 0 82 24.5" style="enable-background:new 0 0 82 24.5;" xml:space="preserve">
<style type="text/css">
	.st0{fill:#FFFFFF;}
</style>
<g>
	<g>
		<g>
			<path class="st0" d="M8.7,16.6c0.3,0.3,0.7,0.3,1,0l3.1-3.1c0.3-0.3,0.3-0.7,0-1c-0.3-0.3-0.7-0.3-1,0l-1.9,1.9V9.2
				c0-0.4-0.3-0.7-0.7-0.7c-0.4,0-0.7,0.3-0.7,0.7v5.2l-1.9-1.9c-0.3-0.3-0.7-0.3-1,0c-0.3,0.3-0.3,0.7,0,1L8.7,16.6z"/>
			<path class="st0" d="M12.3,18.5H6.1c-0.4,0-0.7,0.3-0.7,0.7c0,0.4,0.3,0.7,0.7,0.7h6.2c0.4,0,0.7-0.3,0.7-0.7
				C13,18.8,12.7,18.5,12.3,18.5z"/>
			<path class="st0" d="M16.1,0H5.3C5.1,0,5,0.1,4.8,0.2L0.2,4.8C0.1,5,0,5.1,0,5.3v16.9c0,1.2,1,2.3,2.3,2.3h13.8
				c1.2,0,2.3-1,2.3-2.3v-20C18.4,1,17.4,0,16.1,0z M5.4,1.7v2.9C5.4,5,5,5.4,4.6,5.4H1.7L5.4,1.7z M16.9,22.3
				c0,0.4-0.4,0.8-0.8,0.8H2.3c-0.5,0-0.8-0.4-0.8-0.8V6.8h3.1c1.2,0,2.3-1,2.3-2.3V1.4h9.3c0.4,0,0.8,0.4,0.8,0.8V22.3z"/>
		</g>
		<g>
			<path class="st0" d="M30.7,8.8c0.1,0.1,0.2,0.3,0.2,0.5V13c0,0.6-0.1,1.1-0.4,1.5c-0.2,0.4-0.6,0.8-1,1c-0.4,0.2-0.9,0.4-1.5,0.4
				s-1.1-0.1-1.5-0.4c-0.4-0.2-0.8-0.6-1-1s-0.4-1-0.4-1.5V9.3c0-0.2,0.1-0.3,0.2-0.5c0.1-0.1,0.3-0.2,0.5-0.2
				c0.2,0,0.3,0.1,0.4,0.2c0.1,0.1,0.2,0.3,0.2,0.5V13c0,0.3,0.1,0.6,0.2,0.9c0.1,0.3,0.3,0.5,0.6,0.6c0.2,0.1,0.5,0.2,0.8,0.2
				c0.3,0,0.6-0.1,0.8-0.2c0.3-0.1,0.5-0.3,0.6-0.6c0.2-0.3,0.2-0.6,0.2-0.9V9.3c0-0.2,0.1-0.3,0.2-0.5c0.1-0.1,0.2-0.2,0.4-0.2
				S30.6,8.7,30.7,8.8z"/>
			<path class="st0" d="M36.9,10.9c0.3,0.4,0.4,1,0.4,1.7v2.7c0,0.2-0.1,0.3-0.2,0.5c-0.1,0.1-0.3,0.2-0.4,0.2s-0.3-0.1-0.4-0.2
				c-0.1-0.1-0.2-0.3-0.2-0.5v-2.7c0-0.4-0.1-0.7-0.2-0.9s-0.4-0.3-0.8-0.3c-0.4,0-0.7,0.1-0.9,0.3c-0.2,0.2-0.3,0.5-0.3,0.9v2.7
				c0,0.2-0.1,0.3-0.2,0.5c-0.1,0.1-0.3,0.2-0.4,0.2s-0.3-0.1-0.4-0.2c-0.1-0.1-0.2-0.3-0.2-0.5V11c0-0.2,0.1-0.3,0.2-0.5
				c0.1-0.1,0.3-0.2,0.4-0.2s0.3,0.1,0.4,0.2c0.1,0.1,0.2,0.3,0.2,0.5v0.2c0.2-0.2,0.4-0.5,0.7-0.6s0.6-0.3,1-0.3
				C36.1,10.2,36.6,10.4,36.9,10.9z"/>
			<path class="st0" d="M43.6,10.4c0.1,0.1,0.2,0.3,0.2,0.5v4.4c0,0.2-0.1,0.3-0.2,0.5c-0.1,0.1-0.3,0.2-0.4,0.2s-0.3-0.1-0.4-0.2
				c-0.1-0.1-0.2-0.3-0.2-0.4c-0.2,0.2-0.4,0.4-0.7,0.5C41.6,15.9,41.3,16,41,16c-0.5,0-0.9-0.1-1.3-0.4c-0.4-0.2-0.7-0.6-0.9-1
				c-0.2-0.4-0.3-0.9-0.3-1.5s0.1-1,0.3-1.5c0.2-0.4,0.5-0.8,0.9-1c0.4-0.2,0.8-0.4,1.3-0.4c0.3,0,0.6,0.1,0.9,0.2
				c0.3,0.1,0.5,0.3,0.7,0.5v0c0-0.2,0.1-0.3,0.2-0.5c0.1-0.1,0.3-0.2,0.4-0.2S43.5,10.3,43.6,10.4z M42.2,14.4
				c0.3-0.3,0.4-0.7,0.4-1.2c0-0.5-0.1-0.9-0.4-1.2c-0.3-0.3-0.6-0.5-1.1-0.5c-0.4,0-0.8,0.2-1.1,0.5c-0.3,0.3-0.4,0.7-0.4,1.2
				c0,0.5,0.1,0.9,0.4,1.2c0.3,0.3,0.6,0.5,1.1,0.5S41.9,14.7,42.2,14.4z"/>
			<path class="st0" d="M52.4,10.6c0.4,0.2,0.7,0.6,0.9,1c0.2,0.4,0.3,0.9,0.3,1.5s-0.1,1-0.3,1.5c-0.2,0.4-0.5,0.8-0.9,1
				c-0.4,0.2-0.8,0.4-1.3,0.4c-0.3,0-0.6-0.1-0.9-0.2s-0.5-0.3-0.7-0.5v2c0,0.2-0.1,0.3-0.2,0.5c-0.1,0.1-0.3,0.2-0.4,0.2
				s-0.3-0.1-0.4-0.2c-0.1-0.1-0.2-0.3-0.2-0.5V11c0-0.2,0.1-0.3,0.2-0.5c0.1-0.1,0.3-0.2,0.4-0.2s0.3,0.1,0.4,0.2
				c0.1,0.1,0.2,0.3,0.2,0.5v0c0.2-0.2,0.4-0.4,0.7-0.5c0.3-0.2,0.6-0.2,0.9-0.2C51.6,10.2,52.1,10.4,52.4,10.6z M52.1,14.4
				c0.3-0.3,0.4-0.7,0.4-1.2s-0.1-0.9-0.4-1.2c-0.3-0.3-0.6-0.5-1.1-0.5s-0.8,0.2-1.1,0.5s-0.4,0.7-0.4,1.2s0.1,0.9,0.4,1.2
				c0.3,0.3,0.6,0.5,1.1,0.5C51.4,14.8,51.8,14.7,52.1,14.4z"/>
			<path class="st0" d="M59.8,10.4c0.1,0.1,0.2,0.3,0.2,0.5v4.4c0,0.2-0.1,0.3-0.2,0.5c-0.1,0.1-0.3,0.2-0.4,0.2
				c-0.2,0-0.3-0.1-0.4-0.2c-0.1-0.1-0.2-0.3-0.2-0.4c-0.2,0.2-0.4,0.4-0.7,0.5c-0.3,0.1-0.6,0.2-0.9,0.2c-0.5,0-0.9-0.1-1.3-0.4
				c-0.4-0.2-0.7-0.6-0.9-1c-0.2-0.4-0.3-0.9-0.3-1.5s0.1-1,0.3-1.5c0.2-0.4,0.5-0.8,0.9-1c0.4-0.2,0.8-0.4,1.3-0.4
				c0.3,0,0.6,0.1,0.9,0.2c0.3,0.1,0.5,0.3,0.7,0.5v0c0-0.2,0.1-0.3,0.2-0.5c0.1-0.1,0.3-0.2,0.4-0.2C59.5,10.2,59.7,10.3,59.8,10.4
				z M58.3,14.4c0.3-0.3,0.4-0.7,0.4-1.2c0-0.5-0.1-0.9-0.4-1.2c-0.3-0.3-0.6-0.5-1.1-0.5c-0.4,0-0.8,0.2-1.1,0.5
				c-0.3,0.3-0.4,0.7-0.4,1.2c0,0.5,0.1,0.9,0.4,1.2c0.3,0.3,0.6,0.5,1.1,0.5S58,14.7,58.3,14.4z M57.1,9.9C57,9.8,57,9.7,57,9.6
				c0-0.1,0-0.1,0.1-0.2l0.6-1.1c0.1-0.1,0.2-0.2,0.2-0.3S58.1,8,58.2,8c0.2,0,0.3,0,0.4,0.1c0.1,0.1,0.1,0.2,0.1,0.4
				c0,0.2-0.1,0.3-0.2,0.4l-0.8,0.9c-0.1,0.1-0.3,0.2-0.5,0.2C57.3,10,57.2,10,57.1,9.9z"/>
			<path class="st0" d="M66.4,10.4c0.1,0.1,0.2,0.3,0.2,0.5v4.6c0,0.8-0.3,1.5-0.8,1.9c-0.5,0.4-1.2,0.6-2,0.6c-0.2,0-0.5,0-0.9-0.1
				c-0.4-0.1-0.6-0.1-0.8-0.2c-0.3-0.1-0.5-0.3-0.5-0.6c0,0,0-0.1,0-0.2c0-0.2,0.1-0.3,0.2-0.3c0.1-0.1,0.2-0.1,0.3-0.1
				c0.1,0,0.1,0,0.2,0c0,0,0.2,0.1,0.5,0.2s0.6,0.2,0.9,0.2c0.5,0,0.9-0.1,1.1-0.3c0.3-0.2,0.4-0.5,0.4-0.9v-0.5
				c-0.2,0.2-0.4,0.4-0.7,0.6c-0.3,0.2-0.6,0.3-1,0.3c-0.5,0-0.9-0.1-1.3-0.4c-0.4-0.2-0.7-0.6-0.9-1c-0.2-0.4-0.3-0.9-0.3-1.5
				s0.1-1,0.3-1.5s0.5-0.8,0.9-1c0.4-0.2,0.8-0.4,1.3-0.4c0.4,0,0.7,0.1,1,0.2c0.3,0.1,0.5,0.3,0.7,0.5v-0.1c0-0.2,0.1-0.3,0.2-0.5
				c0.1-0.1,0.3-0.2,0.4-0.2S66.3,10.3,66.4,10.4z M65,14.4c0.3-0.3,0.4-0.7,0.4-1.2c0-0.5-0.1-0.9-0.4-1.2
				c-0.3-0.3-0.7-0.5-1.1-0.5s-0.8,0.2-1.1,0.5c-0.3,0.3-0.4,0.7-0.4,1.2c0,0.5,0.1,0.9,0.4,1.2c0.3,0.3,0.7,0.5,1.1,0.5
				S64.7,14.7,65,14.4z"/>
			<path class="st0" d="M68.1,9.6C68,9.5,68,9.3,68,9.1V9c0-0.2,0.1-0.3,0.2-0.4s0.3-0.1,0.5-0.1c0.2,0,0.4,0,0.5,0.1
				s0.1,0.2,0.1,0.4v0.2c0,0.2,0,0.3-0.2,0.4c-0.1,0.1-0.3,0.1-0.5,0.1C68.4,9.7,68.2,9.6,68.1,9.6z M69.1,15.7
				c-0.1,0.1-0.3,0.2-0.4,0.2s-0.3-0.1-0.4-0.2C68,15.6,68,15.4,68,15.3V11c0-0.2,0.1-0.3,0.2-0.5c0.1-0.1,0.3-0.2,0.4-0.2
				s0.3,0.1,0.4,0.2c0.1,0.1,0.2,0.3,0.2,0.5v4.3C69.2,15.4,69.2,15.6,69.1,15.7z"/>
			<path class="st0" d="M75,10.9c0.3,0.4,0.4,1,0.4,1.7v2.7c0,0.2-0.1,0.3-0.2,0.5c-0.1,0.1-0.3,0.2-0.4,0.2s-0.3-0.1-0.4-0.2
				c-0.1-0.1-0.2-0.3-0.2-0.5v-2.7c0-0.4-0.1-0.7-0.2-0.9s-0.4-0.3-0.8-0.3c-0.4,0-0.7,0.1-0.9,0.3c-0.2,0.2-0.3,0.5-0.3,0.9v2.7
				c0,0.2-0.1,0.3-0.2,0.5c-0.1,0.1-0.3,0.2-0.4,0.2s-0.3-0.1-0.4-0.2c-0.1-0.1-0.2-0.3-0.2-0.5V11c0-0.2,0.1-0.3,0.2-0.5
				c0.1-0.1,0.3-0.2,0.4-0.2s0.3,0.1,0.4,0.2c0.1,0.1,0.2,0.3,0.2,0.5v0.2c0.2-0.2,0.4-0.5,0.7-0.6s0.6-0.3,1-0.3
				C74.3,10.2,74.8,10.4,75,10.9z"/>
			<path class="st0" d="M81.8,10.4c0.1,0.1,0.2,0.3,0.2,0.5v4.4c0,0.2-0.1,0.3-0.2,0.5c-0.1,0.1-0.3,0.2-0.4,0.2s-0.3-0.1-0.4-0.2
				c-0.1-0.1-0.2-0.3-0.2-0.4c-0.2,0.2-0.4,0.4-0.7,0.5c-0.3,0.1-0.6,0.2-0.9,0.2c-0.5,0-0.9-0.1-1.3-0.4c-0.4-0.2-0.7-0.6-0.9-1
				c-0.2-0.4-0.3-0.9-0.3-1.5s0.1-1,0.3-1.5c0.2-0.4,0.5-0.8,0.9-1c0.4-0.2,0.8-0.4,1.3-0.4c0.3,0,0.6,0.1,0.9,0.2
				c0.3,0.1,0.5,0.3,0.7,0.5v0c0-0.2,0.1-0.3,0.2-0.5c0.1-0.1,0.3-0.2,0.4-0.2S81.7,10.3,81.8,10.4z M80.4,14.4
				c0.3-0.3,0.4-0.7,0.4-1.2c0-0.5-0.1-0.9-0.4-1.2c-0.3-0.3-0.6-0.5-1.1-0.5c-0.4,0-0.8,0.2-1.1,0.5c-0.3,0.3-0.4,0.7-0.4,1.2
				c0,0.5,0.1,0.9,0.4,1.2s0.6,0.5,1.1,0.5C79.7,14.8,80.1,14.7,80.4,14.4z"/>
		</g>
	</g>
</g>
</svg>
