<?xml version="1.0" encoding="utf-8"?>
<!-- Generator: Adobe Illustrator 24.1.1, SVG Export Plug-In . SVG Version: 6.00 Build 0)  -->
<svg version="1.1" id="barra_izq" xmlns="http://www.w3.org/2000/svg" xmlns:xlink="http://www.w3.org/1999/xlink" x="0px" y="0px"
	 viewBox="0 0 137.3 42.2" style="enable-background:new 0 0 137.3 42.2;" xml:space="preserve">
<style type="text/css">
	.st0{fill:#FFFFFF;}
</style>
<g>
	<g>
		<path class="st0" d="M14.9,28.6c0.5,0.5,1.3,0.5,1.8,0l5.3-5.3c0.5-0.5,0.5-1.3,0-1.8c-0.5-0.5-1.3-0.5-1.8,0L17,24.7v-8.9
			c0-0.7-0.5-1.2-1.2-1.2c-0.7,0-1.2,0.6-1.2,1.2v8.9l-3.2-3.2c-0.5-0.5-1.3-0.5-1.8,0c-0.5,0.5-0.5,1.3,0,1.8L14.9,28.6z"/>
		<path class="st0" d="M21.1,31.8H10.5c-0.7,0-1.2,0.5-1.2,1.2c0,0.7,0.6,1.2,1.2,1.2h10.6c0.7,0,1.2-0.5,1.2-1.2
			C22.3,32.3,21.8,31.8,21.1,31.8z"/>
		<path class="st0" d="M27.7,0H9.2C8.9,0,8.5,0.1,8.3,0.4L0.4,8.3C0.1,8.5,0,8.9,0,9.2v29.1c0,2.1,1.7,3.9,3.9,3.9h23.8
			c2.1,0,3.9-1.7,3.9-3.9V3.9C31.6,1.8,29.9,0,27.7,0z M9.3,2.9v5c0,0.8-0.6,1.4-1.4,1.4h-5L9.3,2.9z M29.1,38.3
			c0,0.8-0.6,1.4-1.4,1.4H3.9c-0.8,0-1.4-0.6-1.4-1.4V11.7h5.4c2.1,0,3.9-1.7,3.9-3.9V2.5h16c0.8,0,1.4,0.6,1.4,1.4V38.3z"/>
	</g>
	<g>
		<path class="st0" d="M52.1,13.1c0.2,0.2,0.3,0.4,0.3,0.8v6.2c0,1-0.2,1.8-0.6,2.5c-0.4,0.7-1,1.3-1.7,1.7
			c-0.7,0.4-1.5,0.6-2.5,0.6s-1.8-0.2-2.5-0.6c-0.7-0.4-1.3-1-1.7-1.7c-0.4-0.7-0.6-1.6-0.6-2.5v-6.2c0-0.3,0.1-0.6,0.3-0.8
			s0.5-0.3,0.8-0.3c0.3,0,0.5,0.1,0.7,0.3c0.2,0.2,0.3,0.4,0.3,0.8v6.2c0,0.5,0.1,1,0.4,1.5s0.6,0.8,1,1s0.8,0.3,1.3,0.3
			c0.5,0,1-0.1,1.4-0.3s0.8-0.6,1-1s0.4-0.9,0.4-1.5v-6.2c0-0.3,0.1-0.6,0.3-0.8c0.2-0.2,0.4-0.3,0.7-0.3
			C51.7,12.8,52,12.9,52.1,13.1z"/>
		<path class="st0" d="M62.3,16.5c0.5,0.7,0.7,1.6,0.7,2.9v4.4c0,0.3-0.1,0.5-0.3,0.8c-0.2,0.2-0.4,0.3-0.7,0.3
			c-0.3,0-0.5-0.1-0.7-0.3c-0.2-0.2-0.3-0.5-0.3-0.8v-4.4c0-0.6-0.1-1.1-0.4-1.5c-0.3-0.4-0.7-0.5-1.4-0.5c-0.7,0-1.2,0.2-1.6,0.6
			c-0.4,0.4-0.6,0.9-0.6,1.5v4.4c0,0.3-0.1,0.5-0.3,0.8c-0.2,0.2-0.4,0.3-0.7,0.3s-0.5-0.1-0.7-0.3c-0.2-0.2-0.3-0.5-0.3-0.8v-7.1
			c0-0.3,0.1-0.5,0.3-0.8c0.2-0.2,0.4-0.3,0.7-0.3s0.5,0.1,0.7,0.3c0.2,0.2,0.3,0.5,0.3,0.8V17c0.3-0.4,0.7-0.8,1.2-1.1
			c0.5-0.3,1-0.4,1.6-0.4C61.1,15.5,61.9,15.8,62.3,16.5z"/>
		<path class="st0" d="M73.6,15.8c0.2,0.2,0.3,0.5,0.3,0.8v7.3c0,0.3-0.1,0.5-0.3,0.8c-0.2,0.2-0.4,0.3-0.7,0.3
			c-0.3,0-0.5-0.1-0.7-0.3c-0.2-0.2-0.3-0.4-0.3-0.7c-0.3,0.3-0.7,0.6-1.2,0.9c-0.5,0.2-1,0.4-1.5,0.4c-0.8,0-1.5-0.2-2.2-0.6
			s-1.2-1-1.5-1.7c-0.4-0.7-0.6-1.5-0.6-2.5c0-0.9,0.2-1.7,0.6-2.5s0.9-1.3,1.5-1.7c0.6-0.4,1.3-0.6,2.1-0.6c0.6,0,1.1,0.1,1.6,0.3
			s0.9,0.5,1.2,0.8v0c0-0.3,0.1-0.6,0.3-0.8s0.4-0.3,0.7-0.3C73.2,15.5,73.4,15.6,73.6,15.8z M71.2,22.3c0.5-0.5,0.7-1.2,0.7-2
			c0-0.8-0.2-1.5-0.7-2.1s-1.1-0.8-1.8-0.8c-0.7,0-1.3,0.3-1.8,0.8c-0.5,0.5-0.7,1.2-0.7,2.1c0,0.8,0.2,1.5,0.7,2
			c0.5,0.5,1.1,0.8,1.8,0.8C70.1,23.1,70.7,22.9,71.2,22.3z"/>
		<path class="st0" d="M88.2,16.1c0.6,0.4,1.2,1,1.5,1.7c0.4,0.7,0.6,1.5,0.6,2.5c0,0.9-0.2,1.7-0.6,2.5s-0.9,1.3-1.5,1.7
			c-0.6,0.4-1.3,0.6-2.1,0.6c-0.6,0-1.1-0.1-1.6-0.3s-0.9-0.5-1.2-0.8v3.4c0,0.3-0.1,0.5-0.3,0.8c-0.2,0.2-0.4,0.3-0.7,0.3
			s-0.5-0.1-0.7-0.3s-0.3-0.5-0.3-0.8V16.7c0-0.3,0.1-0.5,0.3-0.8c0.2-0.2,0.4-0.3,0.7-0.3s0.5,0.1,0.7,0.3c0.2,0.2,0.3,0.5,0.3,0.8
			v0.1c0.3-0.3,0.7-0.6,1.2-0.9s1-0.4,1.6-0.4C86.8,15.5,87.6,15.7,88.2,16.1z M87.6,22.3c0.5-0.5,0.7-1.2,0.7-2.1s-0.2-1.5-0.7-2.1
			c-0.5-0.5-1.1-0.8-1.8-0.8c-0.8,0-1.3,0.3-1.8,0.8c-0.5,0.5-0.7,1.2-0.7,2.1s0.2,1.5,0.7,2.1c0.5,0.5,1.1,0.8,1.8,0.8
			C86.5,23.1,87.1,22.8,87.6,22.3z"/>
		<path class="st0" d="M100.4,15.8c0.2,0.2,0.3,0.5,0.3,0.8v7.3c0,0.3-0.1,0.5-0.3,0.8c-0.2,0.2-0.4,0.3-0.7,0.3
			c-0.3,0-0.5-0.1-0.7-0.3c-0.2-0.2-0.3-0.4-0.3-0.7c-0.3,0.3-0.7,0.6-1.2,0.9c-0.5,0.2-1,0.4-1.5,0.4c-0.8,0-1.5-0.2-2.2-0.6
			s-1.2-1-1.5-1.7c-0.4-0.7-0.6-1.5-0.6-2.5c0-0.9,0.2-1.7,0.6-2.5s0.9-1.3,1.5-1.7c0.6-0.4,1.3-0.6,2.1-0.6c0.6,0,1.1,0.1,1.6,0.3
			s0.9,0.5,1.2,0.8v0c0-0.3,0.1-0.6,0.3-0.8s0.4-0.3,0.7-0.3C99.9,15.5,100.2,15.6,100.4,15.8z M98,22.3c0.5-0.5,0.7-1.2,0.7-2
			c0-0.8-0.2-1.5-0.7-2.1s-1.1-0.8-1.8-0.8c-0.7,0-1.3,0.3-1.8,0.8c-0.5,0.5-0.7,1.2-0.7,2.1c0,0.8,0.2,1.5,0.7,2
			c0.5,0.5,1.1,0.8,1.8,0.8C96.9,23.1,97.5,22.9,98,22.3z M96,14.9c-0.1-0.1-0.2-0.2-0.2-0.4c0-0.1,0-0.2,0.1-0.3l1-1.8
			c0.1-0.2,0.3-0.4,0.4-0.5s0.3-0.2,0.5-0.2c0.3,0,0.5,0.1,0.7,0.2c0.2,0.2,0.2,0.4,0.2,0.6c0,0.3-0.1,0.5-0.3,0.7l-1.3,1.4
			c-0.2,0.2-0.4,0.3-0.8,0.3C96.2,15.1,96.1,15,96,14.9z"/>
		<path class="st0" d="M111.4,15.8c0.2,0.2,0.3,0.5,0.3,0.8v7.6c0,1.4-0.4,2.4-1.3,3.1s-2,1-3.3,1c-0.3,0-0.8-0.1-1.4-0.2
			c-0.6-0.1-1-0.2-1.3-0.3c-0.6-0.2-0.8-0.6-0.8-1c0-0.1,0-0.2,0.1-0.3c0.1-0.3,0.2-0.4,0.3-0.6s0.3-0.2,0.5-0.2c0.1,0,0.2,0,0.3,0
			c0.1,0,0.3,0.1,0.8,0.3c0.5,0.2,1,0.3,1.4,0.3c0.8,0,1.5-0.2,1.9-0.5s0.6-0.8,0.6-1.4v-0.8c-0.3,0.4-0.6,0.7-1.1,1
			c-0.5,0.3-1.1,0.4-1.6,0.4c-0.8,0-1.5-0.2-2.2-0.6s-1.2-1-1.6-1.7c-0.4-0.7-0.6-1.5-0.6-2.5c0-0.9,0.2-1.7,0.6-2.5
			c0.4-0.7,0.9-1.3,1.5-1.7c0.7-0.4,1.4-0.6,2.2-0.6c0.6,0,1.1,0.1,1.6,0.4s0.9,0.5,1.2,0.9v-0.2c0-0.3,0.1-0.6,0.3-0.8
			s0.4-0.3,0.7-0.3C111,15.5,111.2,15.6,111.4,15.8z M109,22.3c0.5-0.5,0.7-1.2,0.7-2c0-0.8-0.2-1.5-0.7-2.1
			c-0.5-0.5-1.1-0.8-1.9-0.8c-0.8,0-1.4,0.3-1.9,0.8c-0.5,0.5-0.7,1.2-0.7,2.1c0,0.8,0.2,1.5,0.7,2c0.5,0.5,1.1,0.8,1.9,0.8
			C107.9,23.1,108.5,22.9,109,22.3z"/>
		<path class="st0" d="M114.2,14.3c-0.2-0.1-0.2-0.4-0.2-0.7v-0.3c0-0.3,0.1-0.5,0.3-0.7c0.2-0.1,0.4-0.2,0.8-0.2
			c0.4,0,0.7,0.1,0.8,0.2c0.2,0.1,0.2,0.4,0.2,0.7v0.3c0,0.3-0.1,0.6-0.3,0.7s-0.4,0.2-0.8,0.2S114.4,14.5,114.2,14.3z M115.8,24.5
			c-0.2,0.2-0.4,0.3-0.7,0.3c-0.3,0-0.5-0.1-0.7-0.3c-0.2-0.2-0.3-0.5-0.3-0.8v-7.1c0-0.3,0.1-0.5,0.3-0.8c0.2-0.2,0.4-0.3,0.7-0.3
			c0.3,0,0.5,0.1,0.7,0.3c0.2,0.2,0.3,0.5,0.3,0.8v7.1C116.1,24.1,116,24.3,115.8,24.5z"/>
		<path class="st0" d="M125.7,16.5c0.4,0.7,0.7,1.6,0.7,2.9v4.4c0,0.3-0.1,0.5-0.3,0.8c-0.2,0.2-0.4,0.3-0.7,0.3
			c-0.3,0-0.5-0.1-0.7-0.3c-0.2-0.2-0.3-0.5-0.3-0.8v-4.4c0-0.6-0.1-1.1-0.4-1.5c-0.3-0.4-0.7-0.5-1.4-0.5c-0.7,0-1.2,0.2-1.6,0.6
			c-0.4,0.4-0.6,0.9-0.6,1.5v4.4c0,0.3-0.1,0.5-0.3,0.8c-0.2,0.2-0.4,0.3-0.7,0.3s-0.5-0.1-0.7-0.3c-0.2-0.2-0.3-0.5-0.3-0.8v-7.1
			c0-0.3,0.1-0.5,0.3-0.8c0.2-0.2,0.4-0.3,0.7-0.3s0.5,0.1,0.7,0.3c0.2,0.2,0.3,0.5,0.3,0.8V17c0.3-0.4,0.7-0.8,1.2-1.1
			c0.5-0.3,1.1-0.4,1.6-0.4C124.4,15.5,125.3,15.8,125.7,16.5z"/>
		<path class="st0" d="M137,15.8c0.2,0.2,0.3,0.5,0.3,0.8v7.3c0,0.3-0.1,0.5-0.3,0.8c-0.2,0.2-0.4,0.3-0.7,0.3s-0.5-0.1-0.7-0.3
			c-0.2-0.2-0.3-0.4-0.3-0.7c-0.3,0.3-0.7,0.6-1.2,0.9c-0.5,0.2-1,0.4-1.5,0.4c-0.8,0-1.5-0.2-2.1-0.6s-1.1-1-1.5-1.7
			c-0.4-0.7-0.6-1.5-0.6-2.5c0-0.9,0.2-1.7,0.6-2.5c0.4-0.7,0.9-1.3,1.5-1.7c0.6-0.4,1.3-0.6,2.1-0.6c0.6,0,1.1,0.1,1.6,0.3
			s0.9,0.5,1.2,0.8v0c0-0.3,0.1-0.6,0.3-0.8c0.2-0.2,0.4-0.3,0.7-0.3C136.5,15.5,136.8,15.6,137,15.8z M134.6,22.3
			c0.5-0.5,0.7-1.2,0.7-2c0-0.8-0.2-1.5-0.7-2.1s-1.1-0.8-1.8-0.8c-0.7,0-1.3,0.3-1.8,0.8c-0.5,0.5-0.7,1.2-0.7,2.1
			c0,0.8,0.2,1.5,0.7,2c0.5,0.5,1.1,0.8,1.8,0.8C133.5,23.1,134.1,22.9,134.6,22.3z"/>
	</g>
</g>
</svg>
