<?xml version="1.0" encoding="utf-8"?>
<!-- Generator: Adobe Illustrator 24.1.1, SVG Export Plug-In . SVG Version: 6.00 Build 0)  -->
<svg version="1.1" id="barra_izq" xmlns="http://www.w3.org/2000/svg" xmlns:xlink="http://www.w3.org/1999/xlink" x="0px" y="0px"
	 viewBox="0 0 27 27" style="enable-background:new 0 0 27 27;" xml:space="preserve">
<style type="text/css">
	.st0{fill:#FFFFFF;}
</style>
<g>
	<g>
		<path class="st0" d="M13.5,0L13.5,0C6.1,0,0,6,0,13.5c0,2.9,0.9,5.7,2.6,7.9l-1.7,5l5.2-1.7c2.1,1.4,4.7,2.2,7.4,2.2
			C21,27,27,20.9,27,13.5S21,0,13.5,0z M21.4,19.1C21,20,19.7,20.7,18.7,21c-0.7,0.1-1.6,0.3-4.7-1c-4-1.6-6.5-5.7-6.7-5.9
			c-0.2-0.3-1.6-2.1-1.6-4.1s1-2.9,1.4-3.3c0.3-0.3,0.9-0.5,1.4-0.5c0.2,0,0.3,0,0.4,0c0.4,0,0.6,0,0.9,0.7c0.3,0.8,1.1,2.7,1.2,2.9
			c0.1,0.2,0.2,0.5,0.1,0.7c-0.1,0.3-0.2,0.4-0.4,0.6s-0.4,0.4-0.6,0.6c-0.2,0.2-0.4,0.4-0.2,0.8c0.2,0.4,1,1.7,2.2,2.7
			c1.5,1.3,2.7,1.8,3.2,1.9c0.3,0.1,0.7,0.1,1-0.1c0.3-0.3,0.7-0.9,1-1.4c0.3-0.4,0.6-0.4,1-0.3c0.4,0.1,2.3,1.1,2.7,1.3
			c0.4,0.2,0.7,0.3,0.8,0.5C21.7,17.4,21.7,18.1,21.4,19.1z"/>
	</g>
</g>
</svg>
